<?xml version='1.0' encoding='utf-8'?>
<svg xmlns="http://www.w3.org/2000/svg" id="Layer_1" data-name="Layer 1" viewBox="0 0 3909.9681 897.1336" version="1.1" width="600" height="137.66868833709125">
    <defs id="defs9"/>
    <g id="path1" style="opacity:1" transform="translate(29.996894,0.59885457)">
        <path style="baseline-shift:baseline;display:inline;overflow:visible;vector-effect:none;fill:#ffffff;stroke-linecap:round;stroke-linejoin:round;paint-order:markers stroke fill;enable-background:accumulate;stop-color:#000000;stop-opacity:1" d="M 729.19922,5.0664062 A 30.003,30.003 0 0 0 701.87695,24.533203 l -192.68554,514.460937 -0.0137,0.0391 c -24.26236,64.18418 -22.09847,135.40261 6.01954,197.9961 0.002,0.004 0.004,0.008 0.006,0.0117 10e-4,0.003 0.002,0.007 0.004,0.01 58.73469,130.96601 213.33269,189.90233 344.31836,131.18555 65.92304,-29.35745 116.65625,-84.89466 139.94141,-153.20117 l -0.30469,0.85351 16.34767,-43.5957 43.416,16.83398 -0.8067,-0.32617 c 66.53,28.03982 141.7612,27.17839 207.6329,-2.375 a 30.003,30.003 0 0 0 0.012,-0.006 C 1396.7317,627.58611 1455.6803,472.97759 1396.9458,341.98059 1368.8797,279.3514 1317.161,230.34272 1253.1157,205.68371 l -0.072,-0.0293 L 740.81445,7.0839844 A 30.003,30.003 0 0 0 729.19922,5.0664062 Z M 747.42187,73.996094 1231.4277,261.62695 a 30.003,30.003 0 0 0 0.072,0.0273 c 49.3104,18.96871 89.0888,56.65533 110.6934,104.86914 a 30.003,30.003 0 0 0 0,0.006 c 45.4655,101.40299 0.4129,219.59409 -101.0196,265.16015 -50.7068,22.74516 -108.5435,23.40433 -159.7558,1.82032 a 30.003,30.003 0 0 0 -0.8047,-0.32618 l -71.7012,-27.79882 a 30.003,30.003 0 0 0 -38.93553,17.43554 l -27,72 a 30.003,30.003 0 0 0 -0.30469,0.85547 C 924.76106,748.216 885.78363,790.87788 835.07002,813.44736 a 30.003,30.003 0 0 0 -0.0762,0.0332 c -101.403,45.46554 -219.58298,0.4124 -265.05274,-101 a 30.003,30.003 0 0 0 -0.01,-0.0215 C 548.29571,664.29827 546.63902,609.55453 565.32812,560.17383 a 30.003,30.003 0 0 0 0.0371,-0.0957 z M 765,84.865234 a 30.003,30.003 0 0 0 -27.32227,19.464846 l -168.40039,449.5 0.0215,-0.0527 c -33.47618,88.84154 12.68549,188.74825 102.03711,220.83789 89.35162,32.08965 188.5292,-15.62072 219.22461,-105.46093 l -0.29297,0.81836 56.55664,-151.07227 150.40037,58.32422 -0.8281,-0.33399 c 43.5808,18.4105 92.9008,17.84199 136.0469,-1.5625 62.8274,-28.0962 102.7162,-91.4244 100.914,-160.22656 -1.8025,-68.81387 -44.9651,-129.97794 -109.1953,-154.73828 L 776.61328,86.882812 A 30.003,30.003 0 0 0 765,84.865234 Z m 18.2207,68.927736 419.3086,162.5332 a 30.003,30.003 0 0 0 0.051,0.0215 c 41.7756,16.10423 69.6245,55.56736 70.7969,100.32421 1.1723,44.75686 -24.5721,85.62533 -65.4473,103.89454 a 30.003,30.003 0 0 0 -0.07,0.0312 c -27.9643,12.58535 -59.8647,12.95495 -88.1133,1.02148 a 30.003,30.003 0 0 0 -0.8281,-0.33398 L 940.21875,451.98437 a 30.003,30.003 0 0 0 -38.94336,17.45313 l -67.19922,179.5 a 30.003,30.003 0 0 0 -0.29297,0.81836 c -20.10473,58.84312 -83.64486,89.40855 -142.16797,68.39062 -58.5231,-21.01792 -88.09598,-85.02388 -66.16992,-143.21289 a 30.003,30.003 0 0 0 0.0195,-0.0547 z" id="path20"/>
        <path style="baseline-shift:baseline;display:inline;overflow:visible;vector-effect:none;fill:#47a7d6;stroke-linecap:round;stroke-linejoin:round;paint-order:markers stroke fill;enable-background:accumulate;stop-color:#000000;stop-opacity:1" d="m 1369.5713,354.25491 a 229.97526,229.97526 0 0 0 -127.3001,-120.6 l -512.29989,-198.6 -192.7,514.5 a 229.37344,229.37344 0 0 0 5.3,175.2 c 52.1,116.2 188.5,168.2 304.7,116.1 a 229.29158,229.29158 0 0 0 123.8,-135.5 l 27,-72 71.69999,27.8 a 230.2819,230.2819 0 0 0 183.7,-2.1 c 116.2,-52.2 168.2,-188.6 116.1,-304.8 z m -149.4,193.7 a 140.20393,140.20393 0 0 1 -112.1,1.3 l -178.69999,-69.3 -67.2,179.5 a 140.69668,140.69668 0 1 1 -264.8,-95.1 l 168.4,-449.5 447.59999,173.5 a 140.626,140.626 0 0 1 6.8,259.6 z" id="path21"/>
    </g>
    <g id="path2" style="opacity:1" transform="translate(29.996894,0.59885457)">
        <path style="baseline-shift:baseline;display:inline;overflow:visible;vector-effect:none;fill:#ffffff;stroke-linecap:round;stroke-linejoin:round;paint-order:markers stroke fill;enable-background:accumulate;stop-color:#000000;stop-opacity:1" d="M 228.86133,-0.58984375 C 131.93879,0.21773152 39.031014,55.262373 -5.0527344,148.53516 -34.380012,210.58838 -37.995623,281.75 -15.111328,346.45703 L 166.9668,864.79687 a 30.003,30.003 0 0 0 38.57617,18.24415 L 721.69531,694.95898 c 64.58359,-23.28168 117.3435,-71.2147 146.69531,-133.27734 a 30.003,30.003 0 0 0 0.004,-0.008 c 61.3179,-129.73695 5.6534,-285.49418 -124.17196,-346.92755 -65.24055,-30.93001 -140.4434,-33.34547 -207.53516,-6.66797 l 0.82812,-0.3164 -43.79296,15.93164 -15.44727,-43.98047 0.27734,0.82813 C 456.62324,111.76493 407.07144,55.165406 341.79883,24.335937 l -0.0176,-0.0078 C 305.31499,7.0812704 266.78148,-0.90580095 228.86133,-0.58984375 Z M 238.7832,59.367187 c 26.02081,1.10806 52.27843,7.342653 77.35938,19.207032 a 30.003,30.003 0 0 0 0.0176,0.0078 c 50.24834,23.728681 88.34741,67.242421 105.22851,120.185551 a 30.003,30.003 0 0 0 0.27735,0.82812 l 25.5,72.60157 a 30.003,30.003 0 0 0 38.56054,18.25 l 72.30078,-26.29883 a 30.003,30.003 0 0 0 0.82813,-0.31641 c 51.6393,-20.53318 109.44962,-18.6754 159.66406,5.13086 a 30.003,30.003 0 0 0 0.0215,0.01 c 100.55932,47.57364 143.08606,166.60677 95.60742,267.0625 -22.5862,47.75337 -63.14443,84.59314 -112.84375,102.49609 a 30.003,30.003 0 0 0 -0.10547,0.0371 L 213.51758,816.27734 41.476562,326.51172 a 30.003,30.003 0 0 0 -0.02148,-0.0586 C 23.841554,276.64958 26.62277,221.93479 49.195312,174.17383 84.79488,98.85195 160.72079,56.043009 238.7832,59.367187 Z m 27.58789,25.904297 C 199.90072,82.604267 134.86467,119.06979 104.75781,182.7168 c -6.2e-4,0.001 -0.001,0.003 -0.002,0.004 -10e-4,0.003 -0.003,0.005 -0.004,0.008 -19.255939,40.67628 -21.613063,87.35872 -6.550778,129.76757 L 238.76562,712.89258 a 30.003,30.003 0 0 0 38.56641,18.25195 L 676.15039,585.97461 c 42.32986,-15.26875 76.91273,-46.70363 96.13867,-87.38867 C 802.28201,435.30722 790.49227,359.87292 742.61914,308.76367 694.7406,257.64865 620.22508,240.95744 555.11719,266.76562 l 0.7832,-0.29882 -99.38281,36.21093 -35.04102,-99.76562 0.26758,0.80273 C 407.33577,158.67589 374.84585,121.6104 332.08203,101.42773 310.84595,91.398745 288.52928,86.160612 266.37109,85.271484 Z m -2.74023,59.748046 c 14.38244,0.62962 28.91616,4.0911 42.83008,10.66211 a 30.003,30.003 0 0 0 0.008,0.004 c 27.74573,13.09303 48.78084,37.08954 58.12891,66.31054 a 30.003,30.003 0 0 0 0.26953,0.80078 l 45.09961,128.4004 a 30.003,30.003 0 0 0 38.57422,18.24414 l 127.9002,-46.5997 a 30.003,30.003 0 0 0 0.78515,-0.29883 c 42.36689,-16.79385 90.44613,-6.02319 121.60156,27.23828 31.15544,33.26147 38.76164,81.94162 19.23633,123.12109 a 30.003,30.003 0 0 0 -0.0176,0.0371 c -12.45572,26.36526 -34.82437,46.70164 -62.2539,56.59571 a 30.003,30.003 0 0 0 -0.084,0.0293 L 285.32422,664.38477 154.77734,292.51758 a 30.003,30.003 0 0 0 -0.0371,-0.10352 c -9.75882,-27.4766 -8.23191,-57.66816 4.2461,-84.02148 a 30.003,30.003 0 0 0 0.006,-0.0117 c 19.69563,-41.64559 61.49134,-65.25019 104.63867,-63.36133 z" id="path22"/>
        <path style="baseline-shift:baseline;display:inline;overflow:visible;vector-effect:none;fill:#fa68b7;stroke-linecap:round;stroke-linejoin:round;paint-order:markers stroke fill;enable-background:accumulate;stop-color:#000000;stop-opacity:1" d="m 731.37131,241.85491 a 230.11087,230.11087 0 0 0 -183.6,-5.9 l -72.3,26.3 -25.5,-72.6 a 230.15614,230.15614 0 0 0 -121,-138.2 c -115,-54.4000002 -252.499997,-5.2 -306.899997,109.9 a 230.17688,230.17688 0 0 0 -8.9,175.1 l 182.099997,518.4 516.2,-188.1 a 229.69736,229.69736 0 0 0 129.8,-117.9 c 54.4,-115.1 5.3,-252.5 -109.9,-307 z m 13.8,243.9 a 140.21006,140.21006 0 0 1 -79.2,72 l -398.9,145.2 -140.6,-400.5 a 140.17316,140.17316 0 0 1 5.4,-106.9 c 33.2,-70.2 117.1,-100.2 187.4,-67 a 140.57824,140.57824 0 0 1 73.9,84.3 l 45.1,128.4 127.9,-46.6 a 140.71541,140.71541 0 0 1 179,191.1 z" id="path23"/>
    </g>
    <path d="m 632.1682,769.95376 c 13.1,-14.3 25.3,-31.6 40.5,-44.5 a 140.42534,140.42534 0 0 1 -45.2,-160.5 l 22.6,-60.3 c -5.1,-0.5 -10.2,-1 -15.4,-1.4 -16,-1.4 -32.1,-2.8 -48.1,-4.3 l -19.2,51.1 a 229.868,229.868 0 0 0 45.7,236.6 c 6.6,-5.1 13.2,-10.3 19.1,-16.7 z" style="fill:#47a7d6" id="path3"/>
    <g id="g19" transform="translate(30.007157,29.893385)">
        <path style="baseline-shift:baseline;display:inline;overflow:visible;vector-effect:none;fill:#ffffff;stroke-linecap:round;stroke-linejoin:round;paint-order:markers stroke fill;enable-background:accumulate;stop-color:#000000" d="m 1483.5918,312.25977 0.2617,0.002 c -11.8347,-0.0769 -23.5275,2.62578 -34.1269,7.89062 a 40.004,40.004 0 0 0 -0.92,0.47266 c -18.216,9.64374 -33.0371,28.14013 -33.0371,53.23047 0,14.35106 7.026,28.2798 13.4239,35.75 5.3818,6.28387 9.4694,9.26763 12.0273,11.1543 l -45.8711,275.80078 c -2.9188,16.65799 -4.6783,25.95608 -5.7129,28.46484 -1.0385,2.5184 -0.083,2.56938 -9.3047,8.76367 l 1.4102,-0.90625 c -4.9802,3.05039 -12.8654,7.55879 -20.5586,17.51953 -7.6933,9.96074 -12.1094,24.79925 -12.1094,36.98047 0,15.07275 8.2013,32.88309 19.3789,42.23438 11.1776,9.35128 22.0459,12.08725 30.709,13.64453 17.3262,3.11457 31.2845,1.39844 34.4102,1.39844 h 276.9238 c 9.5795,0 20.5554,1.76082 37.3066,-1.92969 16.7513,-3.69052 35.9384,-17.31413 46.4746,-33.89453 a 40.004,40.004 0 0 0 0.2325,-0.3711 c 6.9776,-11.25141 13.6374,-25.47608 20.6484,-41.97265 3.5055,-8.24829 6.7941,-16.58927 9.4746,-24.71289 2.6805,-8.12363 5.5137,-13.91463 5.5137,-27.92188 0,-19.45377 -11.7511,-36.39217 -23.5938,-44.83008 -11.8426,-8.4379 -24.0413,-11.84375 -37.3984,-11.84375 -39.5179,0 -54.3534,24.68745 -61.8965,31.70508 -17.2847,16.07873 -22.6661,21.50299 -36.0273,25.21485 -15.3275,3.69838 -33.7105,4.95507 -52.9434,4.95507 -8.5043,0 -18.3569,-0.16661 -27.0976,-0.54101 l 41.2539,-259.60547 c 1.4374,-8.15362 2.6912,-16.38762 4.291,-22.60156 0.6626,-2.57384 1.5316,-4.40465 2.1328,-5.62891 2.9181,-2.06419 8.395,-6.28451 11.3535,-8.15625 a 40.004,40.004 0 0 0 1.0078,-0.66016 c 2.6969,-1.82223 8.6189,-4.71863 16.5215,-13.03515 7.9026,-8.31652 15.3477,-24.56116 15.3477,-38.69141 0,-20.05866 -15.6482,-42.92769 -30.8223,-50.49609 -15.1741,-7.56841 -26.9076,-7.38281 -35.7949,-7.38281 z m 97.1719,62.4414 c -0.057,0.0568 -0.098,0.11313 -0.1543,0.16992 -0.061,0.0621 -0.1088,0.0937 -0.1699,0.15625 z m -61.4903,17.5586 h 48.4356 c -4.5313,8.59929 -6.5596,16.7732 -8.4473,24.10546 -3.1397,12.1955 -4.6343,23.20267 -5.6719,29.05469 a 40.004,40.004 0 0 0 -0.1171,0.70508 l -44.5977,280.64062 a 40.004,40.004 0 0 0 -0.4961,6.27735 c 0,8.53868 0.8129,19.98296 6.7793,31.61719 H 1459 c 1.7309,-3.00631 3.3217,-6.04719 4.5957,-9.13672 6.997,-16.9677 7.9966,-30.55022 10.582,-45.31055 a 40.004,40.004 0 0 0 0.057,-0.33789 l 48.2129,-289.88086 a 40.004,40.004 0 0 0 0.5429,-6.56445 c 0,-6.41311 -1.3123,-13.93208 -3.7168,-21.16992 z m 118.3809,38.68164 c -0.039,0.04 -0.028,0.0366 -0.064,0.0742 -0.1265,0.12695 -0.1153,0.11144 -0.2578,0.25391 a 40.004,40.004 0 0 0 0.3223,-0.32812 z" id="path12"/>
        <path style="baseline-shift:baseline;display:inline;overflow:visible;vector-effect:none;fill:#ffffff;stroke-linecap:round;stroke-linejoin:round;paint-order:markers stroke fill;enable-background:accumulate;stop-color:#000000" d="m 2634.5,290.92578 c -88.8277,0 -174.3962,30.49417 -238.8145,94.8418 -61.1213,60.3128 -95.7246,143.68172 -95.7246,229.87109 0,77.35508 31.7719,142.80745 82.418,185.9375 50.6461,43.13005 118.2865,64.65937 190.2852,64.71875 a 40.004,40.004 0 0 0 0.033,0 c 183.5196,0 331.2636,-143.22418 331.2636,-326.7207 0,-76.55526 -30.9522,-141.50017 -80.8906,-184.38867 -49.9384,-42.8885 -116.906,-64.25977 -188.5703,-64.25977 z m 117.3652,111.14258 c 6.7516,4.2646 13.2283,8.77927 19.0821,13.80664 32.9401,28.28992 53.0136,67.66978 53.0136,123.69922 0,89.77948 -43.6715,164.92453 -112.0879,207.88672 13.4626,-17.71731 23.6706,-36.65621 31.9063,-55.00977 23.5969,-52.36545 37.9512,-117.00922 37.9512,-174.32226 0,-39.05149 -7.329,-80.48694 -29.8653,-116.06055 z m -253.7812,4.44726 c -13.172,16.76137 -23.8036,35.1445 -32.8379,53.89454 a 40.004,40.004 0 0 0 -0.1406,0.29492 c -24.9186,52.82024 -39.5332,115.95074 -39.5332,174.37304 0,41.03929 6.3208,83.66712 29.6523,120.04297 0.1758,0.27406 0.3785,0.53379 0.5567,0.80664 -7.6587,-4.661 -14.9595,-9.66158 -21.5333,-15.25976 -33.7115,-28.70865 -54.2871,-68.53191 -54.2871,-125.0293 0,-64.6371 26.4327,-128.08021 71.9688,-172.98437 a 40.004,40.004 0 0 0 0.1992,-0.19727 c 14.1589,-14.15897 29.5458,-26.07264 45.9551,-35.94141 z m 135.7832,11.84375 c 27.8878,0 39.1547,8.87709 50.207,26.11719 11.0523,17.24011 17.6563,45.36687 17.6563,73.65235 0,42.8185 -12.8922,101.54132 -30.9063,141.5 a 40.004,40.004 0 0 0 -0.029,0.0644 c -9.8223,21.89047 -21.718,41.12524 -36.3105,54.72461 a 40.004,40.004 0 0 0 -0.5723,0.54492 c -10.8576,10.52708 -41.113,22.47996 -57.6894,22.41992 a 40.004,40.004 0 0 0 -0.1446,-0.002 c -31.69,0 -42.88,-8.87238 -53.5136,-25.45117 -10.6337,-16.5788 -16.9922,-45.10123 -16.9922,-76.85157 0,-44.20568 12.6165,-99.30491 31.8125,-140.07031 11.7916,-24.44072 25.5474,-44.28384 40.7246,-56.98437 15.2049,-12.72375 31.0586,-19.66407 55.7578,-19.66407 z m 55.7324,354.03907 -0.5723,0.54492 c 0.1254,-0.11683 0.2345,-0.24232 0.3594,-0.35938 0.068,-0.0659 0.1448,-0.11953 0.2129,-0.18554 z m -113.6055,44.98047 c 0.028,10e-6 0.056,0.002 0.084,0.002 h -0.1445 c 0.02,7e-5 0.04,-0.002 0.061,-0.002 z" id="path14"/>
        <g id="path5" style="opacity:1">
            <path style="baseline-shift:baseline;display:inline;overflow:visible;vector-effect:none;fill:#ffffff;stroke-linecap:round;stroke-linejoin:round;paint-order:markers stroke fill;enable-background:accumulate;stop-color:#000000;stop-opacity:1" d="m 2088.2246,289.98047 c -89.1528,0 -175.0213,30.61021 -239.6601,95.20312 -61.2981,60.51027 -96.004,144.14078 -96.004,230.59766 0,77.6105 31.8727,143.26214 82.6797,186.5293 50.8071,43.26715 118.6691,64.87011 190.9121,64.92968 a 40.004,40.004 0 0 0 0.033,0 c 184.1427,0 332.375,-143.69775 332.375,-327.81445 0,-76.8083 -31.0499,-141.95223 -81.1464,-184.97656 -50.0966,-43.02433 -117.282,-64.46875 -189.1895,-64.46875 z m 117.375,110.96289 c 6.9775,4.37252 13.6606,9.01591 19.6914,14.19531 33.0983,28.42576 53.2695,68.00466 53.2695,124.28711 0,90.47983 -44.1719,166.15842 -113.2949,209.23828 13.7535,-17.95933 24.1503,-37.19931 32.5157,-55.84179 23.6764,-52.54172 38.082,-117.41967 38.082,-174.92383 0,-39.3716 -7.4021,-81.16419 -30.2637,-116.95508 z m -253.709,4.36719 c -13.4453,16.98325 -24.2504,35.66221 -33.4297,54.71289 a 40.004,40.004 0 0 0 -0.1406,0.29687 c -25.003,52.99897 -39.668,116.35445 -39.668,174.97266 0,41.1782 6.344,83.94301 29.7403,120.41992 0.3055,0.47629 0.6542,0.92968 0.9668,1.40234 -7.9293,-4.78148 -15.4676,-9.93505 -22.25,-15.71093 -33.8725,-28.84574 -54.5489,-68.8702 -54.5489,-125.62305 0,-64.92501 26.5494,-128.64893 72.2891,-173.75391 a 40.004,40.004 0 0 0 0.1992,-0.19726 c 14.4187,-14.41875 30.1015,-26.5292 46.8418,-36.51953 z m 135.6973,12.28515 c 28.0402,0 39.4102,8.9459 50.5273,26.28711 11.1172,17.34122 17.7481,45.60113 17.7481,74.01563 0,43.00964 -12.9435,101.9667 -31.0371,142.10156 a 40.004,40.004 0 0 0 -0.029,0.0644 c -9.8646,21.98474 -21.8148,41.31321 -36.4844,54.98438 a 40.004,40.004 0 0 0 -0.5723,0.54492 c -10.9366,10.60376 -41.3277,22.60731 -58.0156,22.54687 a 40.004,40.004 0 0 0 -0.1465,0 c -31.8525,10e-6 -43.1472,-8.93928 -53.8457,-25.61914 -10.6984,-16.67985 -17.0801,-45.33926 -17.0801,-77.22851 0,-44.40898 12.6715,-99.74553 31.9571,-140.69141 11.8401,-24.53622 25.6576,-44.46722 40.9121,-57.23242 15.2868,-12.79224 31.2393,-19.77344 56.0664,-19.77344 z m 55.8398,355.4336 -0.5722,0.54492 c 0.1253,-0.11682 0.2344,-0.24233 0.3593,-0.35938 0.068,-0.0659 0.1449,-0.11954 0.2129,-0.18554 z m -113.9336,45.10937 c 0.028,2e-5 0.056,0.002 0.084,0.002 h -0.1445 c 0.02,8e-5 0.04,-0.002 0.06,-0.002 z" id="path10"/>
            <path style="baseline-shift:baseline;display:inline;overflow:visible;vector-effect:none;stroke-linecap:round;stroke-linejoin:round;paint-order:markers stroke fill;enable-background:accumulate;stop-color:#000000;stop-opacity:1" d="m 1792.5611,615.78033 c 0,-75.7185 30.6475,-149.4221 84.2029,-202.23425 56.7355,-56.73595 131.182,-83.5661 211.4599,-83.5661 127.8946,0 230.3371,76.3548 230.3371,209.44555 0,163.1024 -128.5306,287.81525 -292.3755,287.81525 -128.5305,-0.106 -233.6244,-77.0971 -233.6244,-211.46045 z m 323.023,128.53065 c 20.2551,-18.87655 34.5725,-43.05565 45.7071,-67.8709 20.8924,-46.34315 34.5725,-108.2755 34.5725,-158.54245 0,-67.8709 -28.1034,-140.3019 -108.2756,-140.3019 -67.2354,0 -106.3674,44.3281 -133.0914,99.79145 -22.1632,46.97945 -35.8446,106.3666 -35.8446,157.906 0,73.06745 25.452,142.84725 110.927,142.84725 29.2695,0.106 65.1139,-13.57415 86.005,-33.82945 z" id="path11"/>
        </g>
        <path style="baseline-shift:baseline;display:inline;overflow:visible;vector-effect:none;stroke-linecap:round;stroke-linejoin:round;paint-order:markers stroke fill;enable-background:accumulate;stop-color:#000000" d="m 2339.961,615.639 c 0,-75.4306 30.531,-148.85396 83.8827,-201.4653 56.5198,-56.52022 130.6832,-83.24836 210.6559,-83.24836 127.4083,0 229.4612,76.06448 229.4612,208.64918 0,162.48224 -128.0418,286.7209 -291.2637,286.7209 C 2444.6555,826.18982 2339.961,749.49146 2339.961,615.639 Z m 321.795,128.04194 c 20.1781,-18.80478 34.441,-42.89194 45.5333,-67.61284 20.8129,-46.16694 34.441,-107.8638 34.441,-157.93962 0,-67.61284 -27.9965,-139.76844 -107.8639,-139.76844 -66.9796,0 -105.963,44.15956 -132.5853,99.41202 -22.0788,46.80082 -35.7083,105.96216 -35.7083,157.3056 0,72.78962 25.3552,142.3041 110.5053,142.3041 29.1581,0.1056 64.866,-13.52254 85.6779,-33.70082 z" id="path15"/>
        <path style="baseline-shift:baseline;display:inline;overflow:visible;vector-effect:none;stroke-linecap:round;stroke-linejoin:round;paint-order:markers stroke fill;enable-background:accumulate;stop-color:#000000" d="m 1548.3789,733.04283 c 0,13.55991 3.7163,20.39009 18.5821,23.50385 14.8657,2.51109 35.8584,2.51109 51.3268,2.51109 20.9927,0 42.6886,-1.20532 63.0787,-6.22751 22.9012,-6.22752 35.8584,-18.58211 53.1348,-34.65311 8.6381,-8.03551 21.5954,-20.99276 34.6531,-20.99276 9.8435,0 20.9927,6.22752 20.9927,16.67367 0,13.55992 -21.5954,60.56761 -29.6309,73.52486 -12.9572,20.3901 -27.2202,17.27634 -50.021,17.27634 h -276.9235 c -13.56,0 -44.4967,3.71642 -44.4967,-17.27634 0,-11.14926 5.5244,-15.46834 13.5599,-20.39009 26.6176,-17.87899 26.6176,-32.14201 32.142,-63.68137 l 48.2131,-289.8808 c 0,-12.95725 -5.5245,-16.07101 -15.4684,-22.90119 -5.5244,-4.31908 -11.7519,-8.63817 -11.7519,-16.67367 0,-7.43284 4.9217,-14.26302 11.7519,-17.879 a 35.606323,35.606323 0 0 1 16.071,-3.71642 h 132.8872 c 12.3546,0 26.6176,2.5111 26.6176,17.879 0,9.94394 -6.8302,13.55991 -14.263,18.5821 -4.9217,3.11376 -15.4683,9.84349 -19.7874,14.26302 -10.5466,10.5466 -13.5599,35.25578 -16.071,49.41835 z" id="path13"/>
        <g id="path7" style="opacity:1">
            <path style="baseline-shift:baseline;display:inline;overflow:visible;vector-effect:none;fill:#ffffff;stroke-linecap:round;stroke-linejoin:round;paint-order:markers stroke fill;enable-background:accumulate;stop-color:#000000;stop-opacity:1" d="m 2990.6621,313.36133 c -10.0711,0 -23.0783,0.0385 -39.2226,7.51562 -16.1444,7.47708 -34.5782,30.96861 -34.5782,53.98438 0,14.33333 7.0183,28.24843 13.4063,35.70703 5.7224,6.68152 10.1317,9.76046 12.5683,11.56641 l -45.1484,275.45507 c -1.3789,8.17533 -2.6346,16.68443 -4.293,23.10743 -0.7725,2.99227 -1.9088,5.12747 -2.4746,6.22656 -2.4907,1.7785 -7.3901,5.53471 -12.2636,9.21484 l 0.4101,-0.30469 c -3.6625,2.69296 -9.803,6.66391 -16.5351,15.28711 -6.7322,8.62321 -12.0704,22.86844 -12.0704,35.43946 0,12.06164 4.6998,26.10719 12.8379,35.64843 8.1381,9.54125 17.754,14.32172 25.5274,16.99805 15.5468,5.35267 26.8343,4.55274 33.6347,4.55274 h 118.8008 c 12.1348,0 25.2036,-1.75182 39.5606,-10.19336 14.357,-8.44155 29.3379,-29.15227 29.3379,-50.70508 0,-12.82713 -5.7021,-27.16262 -12.7891,-35.72266 -5.0423,-6.09042 -9.5444,-9.47081 -13.4883,-12.13086 l 9.377,-66.40429 c 52.9978,-2.90016 106.6547,-12.80139 157.0859,-34.87696 68.5522,-29.75971 137.8145,-90.67178 137.8145,-180.0664 0,-61.71509 -44.5758,-108.24181 -95.4532,-126.26954 -43.4256,-15.56665 -90.3632,-14.02929 -124.8457,-14.02929 z m 74.4297,75.0039 c -0.082,0.11872 -0.1354,0.22356 -0.2168,0.3418 -0.063,0.0936 -0.1326,0.17152 -0.1953,0.26563 z m -44.3438,4.9961 h 41.1641 c -11.0362,17.92478 -11.2499,30.5917 -13.8926,46.23633 a 40.004,40.004 0 0 0 -0.037,0.2207 l -22.7988,139.69922 a 40.004,40.004 0 0 0 3.9746,23.64648 40.004,40.004 0 0 0 -10.4043,20.9043 l -15.9004,112.59961 a 40.004,40.004 0 0 0 -0.3926,5.5918 c 0,6.73381 1.4471,14.30593 3.9161,21.5 h -43.4239 c 4.1142,-8.18615 6.0828,-16.02276 7.9004,-23.0625 3.2534,-12.60063 4.7398,-24.00587 5.7481,-29.97071 a 40.004,40.004 0 0 0 0.033,-0.19726 l 47.4004,-289.19922 a 40.004,40.004 0 0 0 0.5253,-6.46875 c 0,-6.42208 -1.3383,-14.1008 -3.8125,-21.5 z m 227.3536,4.98828 c 6.6595,1.18089 12.7169,2.58946 17.6484,4.35937 a 40.004,40.004 0 0 0 0.1836,0.0664 c 25.4734,9.00241 42.2266,27.64751 42.2266,50.88477 0,42.84241 -32.2002,77.54866 -76.1582,100.10351 21.0965,-23.97388 36.3593,-54.36613 36.3593,-90.90234 0,-23.9519 -7.5903,-46.6494 -20.2597,-64.51172 z m -116.8594,34.99805 c -0.054,0.0807 -0.01,0.0619 -0.055,0.13671 -0.1424,0.19916 -0.194,0.23696 -0.3574,0.47266 a 40.004,40.004 0 0 0 0.4121,-0.60937 z m 12.8183,0.0137 c 17.9869,0 30.7584,4.22702 36.1875,8.17187 5.4292,3.94486 8.1133,5.97912 8.1133,21.32813 0,18.46314 -20.0216,45.99871 -44.1953,61.19922 -9.3942,5.47874 -19.8311,9.76695 -31.0137,13.12109 l 13.754,-84.27734 c 1.1381,-6.72267 3.7081,-13.77764 5.08,-17.86719 1.995,-0.42234 5.9608,-1.67578 12.0742,-1.67578 z m -250.9863,292.14062 a 40.004,40.004 0 0 0 -0.7969,0.77344 c 0.071,-0.0713 0.048,-0.0644 0.1016,-0.12109 0.2837,-0.27044 0.3168,-0.29426 0.6953,-0.65235 z m 55.7715,57.34375 -0.7969,0.77344 c 0.1309,-0.12382 0.2263,-0.24729 0.3555,-0.37109 0.1557,-0.15397 0.2848,-0.24572 0.4414,-0.40235 z" id="path16"/>
            <path style="baseline-shift:baseline;display:inline;overflow:visible;vector-effect:none;stroke-linecap:round;stroke-linejoin:round;paint-order:markers stroke fill;enable-background:accumulate;stop-color:#000000;stop-opacity:1" d="m 3042.461,742.26038 c 0,11.7 5.5,16.6 15.3999,23.4 6.8001,4.3 12.3001,8.6 12.3001,17.2 0,15.4 -16,20.9 -28.8999,20.9 H 2922.461 c -12.3,0 -32,-0.6 -32,-17.2 0,-9.2 5.5,-13.5 12.3001,-18.5 4.8999,-3.7 13.5,-9.2 17.8001,-13.5 11.1001,-10.5 14.1999,-36.3 16.6001,-50.5 l 47.3999,-289.2 c 0,-13.5 -5.5,-16 -16,-23.4 -5.5,-4.3 -11.7,-8.6 -11.7,-16.6 0,-18.5 19.1,-21.5 33.8,-21.5 h 177.2 c 34.5,0 78.8,0 111.3999,11.7 38.1999,13.5 68.8999,46.1 68.8999,88.6 0,68.3 -54.1002,117.5 -113.8001,143.4 -54.8001,24 -115.6999,32.6 -176,32.6 z m 22.2,-156.3 c 35.1001,-2.5 70.1001,-9.9 100.3,-27.7 32.6002,-20.3 63.3999,-56 63.3999,-95.4 0,-50.5 -37.5,-69.5 -84.3,-69.5 -16,0 -36.3001,3.1 -46.1001,17.8 -4.3,6.2 -8,20.3 -10.5,35.1 z" id="path17"/>
        </g>
        <g id="path8" style="opacity:1">
            <path style="baseline-shift:baseline;display:inline;overflow:visible;vector-effect:none;fill:#ffffff;stroke-linecap:round;stroke-linejoin:round;paint-order:markers stroke fill;enable-background:accumulate;stop-color:#000000;stop-opacity:1" d="m 3736.4121,313.08984 c -7.7404,-0.004 -17.8801,0.59601 -30.6308,5.45899 -17.0011,6.48396 -37.5196,31.72884 -37.5196,54.91211 0,14.02956 7.4777,29.39534 15.0098,37.22851 1.098,1.14194 2.0791,1.97519 3.1035,2.91797 -1.1078,1.75329 -2.0969,3.38763 -3.4102,5.33399 -8.9313,13.23686 -22.1992,30.34042 -36.3632,47.44726 -12.0784,14.58784 -24.7027,29.01215 -36.3418,42.04297 -5.744,-10.28778 -11.5939,-20.9817 -17.1485,-31.80664 -7.934,-15.4621 -15.1603,-30.78959 -20.0156,-43.03516 -1.6294,-4.10963 -2.7643,-7.82995 -3.7051,-11.1582 4.4165,-2.57159 10.5957,-6.14064 17.6172,-14.01758 7.6828,-8.61879 14.1524,-23.76815 14.1524,-37.35351 0,-16.3746 -9.8008,-35.27936 -21.6133,-44.3125 -11.8125,-9.03315 -22.5244,-11.3207 -30.9629,-12.84766 a 40.004,40.004 0 0 0 -7.1231,-0.64062 h -157.5 a 40.004,40.004 0 0 0 -17.8886,4.22265 c -5.9639,2.98199 -14.5294,7.26461 -23.0508,16.9375 -8.5214,9.67289 -14.461,25.42234 -14.461,39.14063 0,14.28327 7.7388,32.15799 16.9258,41.11523 8.969,8.74458 15.3451,11.31683 18.7989,13.32031 0.7407,0.33557 0.6499,0.38896 3.3476,6.53711 a 40.004,40.004 0 0 0 0.3067,0.68164 l 54.1992,117.5 a 40.004,40.004 0 0 0 2.0801,3.92188 l 45.791,75.83203 -9.7207,56.42383 c -1.4063,7.58556 -2.9392,17.25206 -4.8379,26.10547 -0.7675,3.57842 -1.8709,6.99011 -2.8008,9.76953 -0.8274,0.24459 -1.2577,0.34619 -2.5527,0.75586 a 40.004,40.004 0 0 0 -1.9395,0.66797 c -6.3658,2.37908 -15.3236,5.64788 -25.5762,13.57421 -10.2525,7.92634 -23.2207,24.8438 -23.2207,45.39454 0,16.93254 10.2399,34.61126 20.7403,43.11328 10.5003,8.50201 19.9364,11.47774 27.6328,13.75 a 40.004,40.004 0 0 0 11.3261,1.63672 h 158.8008 c 10.8945,0 23.9973,-0.93191 38.8575,-9.78321 14.8601,-8.85129 28.2421,-30.68237 28.2421,-50.51562 0,-16.61109 -10.992,-36.21081 -22.041,-44.45899 -5.4149,-4.04231 -10.0834,-6.49912 -13.9414,-8.1582 l 14.1602,-95.60937 165.3379,-192.87696 c 7.1749,-7.74144 13.1784,-13.78916 18.2871,-17.33398 a 40.004,40.004 0 0 0 1.4511,-1.05469 c 2.9944,-2.28316 8.8796,-5.79134 16.3438,-14.00195 7.4642,-8.21062 15.4023,-23.89791 15.4023,-39.30664 0,-22.11518 -20.1351,-46.19585 -35.8906,-52.20118 -15.1157,-5.76147 -25.794,-5.0736 -32.6504,-5.00781 a 40.004,40.004 0 0 0 -0.959,-0.1914 h -67.0996 c -2.0549,0 -4.3691,-0.0689 -6.9492,-0.0703 z m -300.0683,80.16993 h 54.4824 c -2.496,6.8412 -4.0645,14.06256 -4.0645,20.80078 0,19.79168 5.5939,32.94244 11.9668,49.01562 6.3729,16.07318 14.5286,33.15741 23.207,50.07031 17.357,33.82581 36.6218,66.44299 47.2422,83.3711 a 40.004,40.004 0 0 0 16.8828,14.23633 40.004,40.004 0 0 0 -0.3671,1.24609 l -18.5,124.90039 a 40.004,40.004 0 0 0 -0.4317,5.85938 c 0,6.7992 1.5044,14.03209 3.9961,20.90039 h -46.9551 c 6.2198,-12.2738 7.7202,-21.86611 9.8692,-31.88672 2.5333,-11.81242 4.3316,-23.21295 5.3144,-28.4961 a 40.004,40.004 0 0 0 0.094,-0.52539 l 12.3008,-71.40039 a 40.004,40.004 0 0 0 -5.1778,-27.46679 l -52.3515,-86.69727 -53.2676,-115.48242 0.3066,0.68359 c -1.1772,-2.68284 -2.7272,-5.82443 -4.5468,-9.1289 z" id="path18"/>
            <path style="baseline-shift:baseline;display:inline;overflow:visible;vector-effect:none;stroke-linecap:round;stroke-linejoin:round;paint-order:markers stroke fill;enable-background:accumulate;stop-color:#000000;stop-opacity:1" d="m 3810.461,353.36038 c 12.3001,0 29.5,0.6 29.5,17.2 0,10.5 -8,15.4 -16,21.5 -9.8,6.8 -17.8,15.4 -25.1999,23.4 l -173.5,202.4 -18.5,124.9 c 0,28.9 38.1999,16.6 38.1999,40.6 0,16 -14.1999,20.3 -27.1001,20.3 h -158.8 c -10.5,-3.1 -19.7,-8 -19.7,-18.5 0,-11.7 12.8999,-17.8 22.8001,-21.5 9.8,-3.1 17.8,-5.5 24,-14.2 6.8,-11.1 11.1001,-40.6 13.5,-53.5 l 12.3,-71.4 -53.5,-88.6 -54.1999,-117.5 c -4.3001,-9.8 -8.6001,-17.8 -19.1001,-24.6 -9.2,-5.5 -16.6002,-8.6 -16.6002,-20.3 0,-11.1 6.8001,-16 15.4,-20.3 h 157.5 c 10.5,1.9 19.6999,6.2 19.6999,17.8 0,9.2 -6.1999,13.5 -13.5,17.8 -11.6999,6.8 -20.8999,11.1 -20.8999,25.2 0,32 56.6001,129.8 76.3,161.2 25.2,-25.8 129.8001,-140.3 129.8001,-168.6 0,-19.1 -24.6001,-16.6 -24.6001,-33.2 0,-19.7 19.6999,-20.3 35.1001,-20.3 h 67.1001 z" id="path19"/>
        </g>
    </g>
    <g id="path9" style="opacity:1" transform="translate(29.996894,0.59885457)">
        <path style="baseline-shift:baseline;display:inline;overflow:visible;vector-effect:none;fill:#ffffff;stroke-linecap:round;stroke-linejoin:round;paint-order:markers stroke fill;enable-background:accumulate;stop-color:#000000;stop-opacity:1" d="m 3123.7207,0.01757813 c -33.6885,-0.16792583 -67.776,0.79988178 -92.4746,5.04296877 a 35.0035,35.0035 0 0 0 -0.3555,0.0625 c -23.6357,4.3119109 -44.5904,15.8679571 -60.3379,32.2187501 A 35.0035,35.0035 0 0 0 2936.2715,5.9550781 h -74 a 35.0035,35.0035 0 0 0 -33.0586,25.2402339 c -0.2208,-0.222124 -0.4073,-0.469467 -0.6309,-0.689453 -16.8599,-16.58834 -40.0017,-25.0757527 -63.998,-26.9199215 -43.0644,-4.6286214 -117.8765,-4.00172209 -153.5352,1.5917969 a 35.0035,35.0035 0 0 0 -2.1992,0.4179687 c -16.3131,3.6401216 -36.7261,11.6348849 -52.2266,29.7187499 -15.5004,18.083865 -23.5507,43.809116 -23.5507,74.339847 0,0.90614 0.07,1.79329 0.086,2.69531 L 2496.381,25.859375 A 35.0035,35.0035 0 0 0 2464.172,4.5546875 h -107.5996 a 35.0035,35.0035 0 0 0 -32.2735,21.4570315 l -35.166,83.796871 c -0.2448,-5.22956 -0.6183,-10.453931 -1.1289,-15.666012 a 35.0035,35.0035 0 0 0 -0.033,-0.326172 c -1.499,-13.954445 -6.3062,-28.737585 -18.2559,-45.689453 -11.9496,-16.951868 -32.424,-34.272249 -60.7421,-41.0976561 a 35.0035,35.0035 0 0 0 -0.4493,-0.1054688 c -24.3057,-5.5202957 -56.2763,-5.5734828 -92.0898,-5.40625 -35.8136,0.1672328 -69.2324,1.2411375 -91.0879,5.0605469 a 35.0035,35.0035 0 0 0 -0.8184,0.1523437 c -47.7295,9.5174793 -78.4034,44.3027673 -85.3652,81.7226563 a 35.0035,35.0035 0 0 0 -0.023,0.121094 c -7.146,39.170531 -7.5856,101.197221 0.1172,139.568361 a 35.0035,35.0035 0 0 0 0.2031,0.94922 c 10.1831,44.3264 48.0669,71.18831 85.2207,80.01562 a 35.0035,35.0035 0 0 0 1.2031,0.26367 c 23.0503,4.6272 55.4298,4.73438 91.9512,4.73438 18.2607,0 36.4054,-0.33998 51.9394,-1.04883 15.5341,-0.70885 26.82,-1.18626 38.7207,-3.8418 a 35.0035,35.0035 0 0 0 0.2891,-0.0664 c 9.4971,-2.20419 18.2477,-5.61637 26.2734,-9.90235 a 35.0035,35.0035 0 0 0 23.3145,9.3086 h 79.3008 a 35.0035,35.0035 0 0 0 32.7773,-22.72657 l 7.4863,-19.99609 66.2266,0.75195 7.5586,19.57813 a 35.0035,35.0035 0 0 0 32.6504,22.39258 h 79.3008 a 35.0035,35.0035 0 0 0 22.0215,-8.45117 c 7.8519,3.60825 16.3145,6.30219 25.1035,8.00976 a 35.0035,35.0035 0 0 0 0.092,0.0176 c 43.1377,8.26041 132.3573,9.87916 180.4922,-0.10547 a 35.0035,35.0035 0 0 0 0.2421,-0.0508 c 15.1969,-3.2651 28.56,-10.31443 39.459,-19.30859 a 35.0035,35.0035 0 0 0 31.1895,19.88867 h 74 a 35.0035,35.0035 0 0 0 34.1601,-30.77735 c 15.4086,15.86693 36.1742,27.40142 60.3848,31.57813 47.5371,9.36492 132.7908,8.24829 177.8496,-1.49024 a 35.0035,35.0035 0 0 0 0.2285,-0.0508 c 50.4021,-11.24673 75.1292,-50.6234 81.5879,-78.71875 a 35.0035,35.0035 0 0 0 0.2051,-0.95312 c 7.6598,-38.15762 6.9339,-100.20977 0.2051,-140.458986 a 35.0035,35.0035 0 0 0 -0.4903,-2.40625 C 3280.0789,42.314301 3245.5389,13.449579 3207.123,5.3144531 a 35.0035,35.0035 0 0 0 -0.027,-0.00586 c -21.0792,-4.44638365 -49.6865,-5.12308975 -83.375,-5.29101557 z m -373.9805,57.63281287 1.8477,0.675781 c -0.6314,-0.250687 -0.9657,-0.330479 -1.5274,-0.541016 -0.1057,-0.03606 -0.2147,-0.09958 -0.3203,-0.134765 z m 432.8985,8 2.6367,1 c -0.9974,-0.424409 -1.6057,-0.593751 -2.459,-0.923829 -0.059,-0.01978 -0.1193,-0.05669 -0.1777,-0.07617 z m -1006.9571,2.367187 1.0567,0.333984 c -0.345,-0.114989 -0.5191,-0.145994 -0.8418,-0.25 -0.074,-0.02259 -0.1406,-0.06181 -0.2149,-0.08398 z m 13.3672,6.703125 c 1.1676,0.145203 3.2077,0.321088 3.7657,0.441406 10.4928,2.591831 15.5484,7.423235 19.6875,13.294922 0.5036,0.714407 0.8691,1.525317 1.3066,2.298828 h -9.5703 c -3.7824,-5.808316 -8.9072,-11.559074 -15.1895,-16.035156 z m 850.4746,0.271484 c -11.0561,9.01081 -20.3492,22.470824 -22.3105,36.513673 -3.7457,26.18769 -3.938,63.3624 0.055,89.35742 0.9647,7.30337 2.4823,17.0805 10.0625,27.62305 3.2029,4.45462 7.3674,8.00598 11.7578,11.03125 -16.1732,-4.03846 -24.4614,-14.83423 -26.7793,-25.26758 -3.345,-18.19825 -3.6945,-89.94622 -0.031,-113.42969 3.3818,-11.636744 13.2412,-21.907353 27.2461,-25.828123 z m -142.2519,0.962891 h 4 V 238.55469 h -4 z m 304.6738,1.320313 c 9.1335,4.834381 17.3233,13.52651 20.0762,23.419919 3.822,25.3516 3.1283,97.00212 0.1,113.1543 -1.6301,6.83419 -6.6558,20.71622 -28.3535,25.60937 -0.6604,0.14041 -2.3001,0.25489 -3.2383,0.38868 6.0211,-3.37582 12.606,-8.16248 17.8262,-15.25196 6.2324,-8.46432 8.7651,-17.89164 9.873,-24.79492 l -0.4472,2.29492 c 6.774,-29.46693 6.8304,-63.48084 0.371,-93.09961 -1.0768,-6.51683 -3.0409,-15.045734 -9.1523,-23.923824 -1.9493,-2.831686 -4.4131,-5.391656 -7.0547,-7.796875 z m -1172.8047,1.1875 c -9.5967,8.515135 -14.9903,21.317901 -16.4394,31.796879 l 0.4433,-2.52539 c -6.3299,29.59484 -5.7397,66.58602 -1.8242,93.08203 1.2814,12.19413 6.4689,25.83322 16.2188,34.95117 0.755,0.70613 1.5273,1.13113 2.291,1.76172 -12.1065,-4.83577 -19.2229,-12.2093 -22,-23.62891 -3.0364,-16.15276 -3.4547,-92.69307 0.1621,-112.68164 0.8839,-4.643504 7.801,-16.55852 21.1484,-22.755859 z m 579.211,4.445312 c -1.7157,3.303403 -2.7139,6.346734 -3.5313,9.3125 1.0245,-4.41354 2.2686,-7.409088 3.5313,-9.3125 z m 191.914,20.289067 0.4746,0.15429 c -0.069,-0.023 -0.1226,-0.028 -0.1914,-0.0508 -0.096,-0.0308 -0.1872,-0.0731 -0.2832,-0.10351 z m 319.0938,28.14453 c 11.1555,-0.0759 22.1542,0.0675 30.6914,0.40234 0.4375,13.25876 0.383,36.25283 -0.1074,47.67969 -7.7597,0.76062 -18.8261,1.30839 -30.0411,1.55078 -11.2669,0.24351 -22.8084,0.20302 -31.8828,-0.0508 -0.7918,-0.0222 -1.3518,-0.11258 -2.1484,-0.15235 -0.5782,-13.12482 -0.6345,-34.31892 -0.033,-48.5625 0.5846,-0.0293 0.866,-0.0637 1.4766,-0.0918 8.9098,-0.41004 20.5166,-0.69693 32.0449,-0.77539 z m -1001.0332,3.02539 c 9.7571,0.0715 18.7628,0.28072 26.2695,0.55664 a 35.0035,35.0035 0 0 0 17.0879,21.36719 35.0035,35.0035 0 0 0 -15.2481,24.31445 c -2.0127,0.14426 -3.6702,0.30988 -5.8828,0.39062 -8.6462,0.31553 -19.5053,0.48438 -30.2441,0.48438 -10.7388,0 -21.4271,-0.16949 -29.6895,-0.48242 -0.1663,-0.006 -0.2857,-0.0335 -0.4531,-0.041 -0.3094,-12.71295 -0.1221,-32.66607 0.4727,-46.24609 10.6301,-0.25271 23.835,-0.44521 37.6875,-0.34375 z m 633.2676,16.32812 1.1621,0.2793 c -0.3597,-0.0932 -0.3097,-0.0485 -0.6368,-0.13086 -0.1757,-0.0414 -0.3495,-0.10921 -0.5253,-0.14844 z m -105.7891,11.04492 c 0.2622,0.0407 0.6174,0.0712 0.8848,0.11133 0.097,0.0124 0.202,0.0411 0.2988,0.0527 z m 137.8711,9.89454 c 4.5132,1.97349 6.2126,3.96219 8.0117,6.93164 2.3166,3.82374 4.6836,11.29009 4.6836,23.88867 0,11.095 -2.1932,21.48335 -5.2266,27.11523 -1.7596,3.26694 -3.1751,5.33683 -5.7988,6.95508 0.49,-0.72486 1.0567,-1.42236 1.4824,-2.16797 7.3905,-12.94482 6.9434,-23.3803 6.9434,-29.30273 0,-7.93875 -1.0008,-18.5481 -7.7344,-29.9375 -0.6993,-1.1829 -1.5178,-2.33715 -2.3613,-3.48242 z m 374.2402,5.90039 c 1.1185,-0.23977 0.7739,0.67815 0.2305,0.79101 -0.3322,0.069 -1.7947,0.2257 -2.4688,0.33203 0.923,-0.53707 1.8117,-1.03158 2.2383,-1.12304 z m -821.7734,1.14648 a 35.0035,35.0035 0 0 0 3.0273,20.33008 35.0035,35.0035 0 0 0 -18.1758,19.27148 l -7.5918,20.27149 h -2.3867 z m 150.6484,3.50977 23.9668,56.36328 h -2.3808 l -7.4551,-19.30664 a 35.0035,35.0035 0 0 0 -18.4375,-19.23633 35.0035,35.0035 0 0 0 4.3066,-17.82031 z m 662.9551,0.84765 c 0,0.0251 0,0.0729 -0.01,0.0977 a 35.0035,35.0035 0 0 0 -0.8379,0.55078 c 0.3684,-0.31315 0.5012,-0.36463 0.8438,-0.64844 z m -941.4121,36.91602 h 11.2109 c -2.7161,11.08251 -8.0345,16.6569 -26.3711,20.94726 -0.105,0.0197 -3.0267,0.33723 -5.5097,0.60547 8.6995,-5.21596 15.9328,-12.60409 20.6699,-21.55273 z m -155.9512,28.45508 c 0.1929,0.0482 0.3054,0.0572 0.4942,0.10351 0.2459,0.053 0.6084,0.15364 0.8359,0.20117 z m 116.252,0.36523 -2.0684,0.34961 c 0.2962,-0.041 0.5723,-0.14577 0.8672,-0.19141 0.4404,-0.0823 0.7455,-0.0671 1.2012,-0.1582 z" id="path24"/>
        <path style="baseline-shift:baseline;display:inline;overflow:visible;vector-effect:none;stroke-linecap:round;stroke-linejoin:round;paint-order:markers stroke fill;enable-background:accumulate;stop-color:#000000;stop-opacity:1" d="m 3066.6713,214.45491 c -10.8,-2.7 -13.3999,-8.1 -14.8,-18.8 -2.7,-17.5 -2.7,-60.5 0,-79.3 1.3,-9.4 6.6999,-14.8 14.8,-17.5 9.3999,-2.7 95.5,-4 104.8999,0 8.1001,2.7 10.8,8.1 12.1001,16.1 4,17.5 4,61.9 0,79.3 -1.3,8.1 -4,12.1 -12.1001,16.1 -7.9998,6.8 -92.7999,6.8 -104.8999,4.1 z m 133.1999,-174.9 c -25.6001,-5.4 -123.6999,-6.7 -162.6999,0 -29.6001,5.4 -52.3999,26.9 -59.2,53.8 -5.3999,30.9 -5.3999,99.5 0,127.8 5.3999,25.6 26.8999,48.4 59.2,53.8 33.6001,6.7 133.1001,5.4 164.1001,-1.3 36.3,-8.1 51.1001,-35 55.1001,-52.4 5.3999,-26.9 5.3999,-95.5 0,-127.8 -6.8001,-28.3 -31.0003,-48.5 -56.5003,-53.9 z m -337.5999,1.4 h 74 v 232.6 h -74 z m -118.3,143.9 c 12.1001,2.7 14.8,12.1 14.8,20.2 0,8.1 -1.3,17.5 -14.8,18.8 -14.8,2.7 -64.5,2.7 -83.3999,0 -8.1001,-1.3 -17.5,-1.3 -20.2,-16.1 v -4 h -74 a 45.25524,45.25524 0 0 0 1.3001,10.8 c 2.6999,30.9 14.8,52.4 49.8,59.2 28.2,5.4 134.5,6.7 166.8,0 37.7,-8.1 47.1001,-41.7 47.1001,-71.3 0,-33.6 -12.1001,-56.5 -41.6999,-65.9 -8.1001,-2.7 -26.8999,-4 -35,-4 -6.7,0 -86.1001,-2.7 -103.5,-5.4 -10.8001,-1.3 -13.3999,-8.1 -13.3999,-17.5 0,-9.4 1.3,-16.1 14.8,-18.8 16.1,-2.7 79.3,-2.7 86.1,0 8.1001,2.7 10.8001,8.1 10.8001,14.8 v 5.4 h 74 c 0,-5.4 -1.3001,-9.4 -1.3001,-13.4 -4,-36.3 -24.1999,-56.5 -60.5,-59.2 -36.3,-4 -119.6999,-2.7 -145.1999,1.3 -24.2,5.4 -48.3999,20.2 -48.3999,69.9 0,40.3 18.8,60.5 51.1001,67.2 9.3999,1.3 36.3,2.7 40.3,2.7 9.1992,1.2 79.0993,3.9 84.4992,5.3 z m -291.8,-1.4 h -82 l 35,-92.8 h 12.1001 z m 16.1001,48.4 16.1001,41.7 h 79.3 l -99.5,-234 h -107.6001 l -98.2,234 h 79.3001 l 16.1,-43 114.4998,1.3 z m -422.2001,-34.9 c 1.3,13.4 8.1,16.1 14.7999,17.5 10.8001,2.7 87.3999,2.7 100.8999,0 9.3999,-1.3 16.1001,-8.1 17.5,-16.1 0,-4 1.3001,-10.8 1.3001,-13.4 h 76.6999 a 305.23156,305.23156 0 0 1 -1.3,30.9 c -4,28.2 -20.2,51.1 -55.1001,59.2 -24.2,5.4 -141.2,5.4 -168.1,0 -28.2,-6.7 -52.4,-24.2 -59.2,-53.8 -5.4,-26.9 -5.4,-96.8 0,-126.4 4,-21.5 24.2,-47.1 57.8001,-53.8 30.9,-5.4 139.9,-6.7 169.4,0 39,9.4 51.1001,44.4 52.3999,56.5 a 273.71267,273.71267 0 0 1 1.3,28.2 h -76.7 c 0,-5.4 1.3001,-20.2 -12.1001,-24.2 -8.1001,-2.7 -83.3999,-2.7 -102.1999,-1.3 -9.3999,1.3 -14.8001,5.4 -16.1,14.8 -3.9997,18.7 -3.9997,64.4 -1.2997,81.9 z" id="path25"/>
    </g>
</svg>
