<?xml version='1.0' encoding='utf-8'?>
<svg xmlns:xlink="http://www.w3.org/1999/xlink" xmlns="http://www.w3.org/2000/svg" width="530.9150989519027" height="300" viewBox="0 0 254.00003 143.52579" version="1.1" id="svg1" xml:space="preserve">
    <defs id="defs1">
        <linearGradient id="linearGradient11">
            <stop style="stop-color:#702b38;stop-opacity:1" offset="0" id="stop12"/>
            <stop style="stop-color:#f33e42;stop-opacity:1" offset="1" id="stop13"/>
        </linearGradient>
        <linearGradient id="linearGradient1">
            <stop style="stop-color:#f77c0b;stop-opacity:1" offset="0" id="stop1"/>
            <stop style="stop-color:#e7e53d;stop-opacity:1" offset="1" id="stop2"/>
        </linearGradient>
        <clipPath clipPathUnits="userSpaceOnUse" id="clipPath24">
            <path d="m 4277.8201,2462.8101 -169.8,1042.9 -2.97,18.09 16.14,8.78 141.84,76.73 33.71,18.21 4.26,-38.11 85.26,-771.28 88.61,877.59 1.29,13.05 11.24,6.59 148.29,87.58 46.89,27.64 -8.14,-53.74 -199.13,-1314.03 h -197.49" id="path24"/>
        </clipPath>
        <clipPath clipPathUnits="userSpaceOnUse" id="clipPath1">
            <path d="m 4277.8201,2462.8101 -169.8,1042.9 -2.97,18.09 16.14,8.78 141.84,76.73 33.71,18.21 4.26,-38.11 85.26,-771.28 88.61,877.59 1.29,13.05 11.24,6.59 148.29,87.58 46.89,27.64 -8.14,-53.74 -199.13,-1314.03 h -197.49" id="path1"/>
        </clipPath>
        <linearGradient xlink:href="#linearGradient1" id="linearGradient2" x1="16.573499" y1="147.3073" x2="47.835604" y2="147.3073" gradientUnits="userSpaceOnUse"/>
        <linearGradient xlink:href="#linearGradient11" id="linearGradient13" x1="-16.582773" y1="143.52863" x2="226.66527" y2="143.52863" gradientUnits="userSpaceOnUse"/>
    </defs>
    <g id="layer1" transform="translate(21.960417,-76.729168)">
        <path id="path3" d="m 201.99737,173.49805 c 0.17321,0 0.33726,-0.0684 0.46038,-0.19121 0,0 6.38422,-6.32495 8.38023,-8.40316 0.20497,-0.21414 0.21414,-0.54681 0.0318,-0.77929 -7.34554,-8.09766 2.82081,-14.77786 8.51253,-8.63988 0.25964,0.22331 0.64241,0.21872 0.88406,-0.0226 1.91382,-1.905 9.69715,-9.62413 11.59721,-11.51537 0.23249,-0.23248 0.23706,-0.60607 0,-0.83855 -1.90006,-1.89124 -9.68339,-9.60579 -11.59721,-11.51538 -0.24165,-0.2413 -0.62442,-0.2413 -0.88406,-0.0226 -5.69172,6.13797 -15.85807,-0.54222 -8.51253,-8.63989 0.18239,-0.23247 0.17322,-0.56056 -0.0318,-0.7747 -1.99601,-2.0828 -8.38023,-8.40775 -8.38023,-8.40775 -0.12312,-0.12276 -0.28717,-0.18662 -0.46038,-0.18662 H 8.0817844 c -0.1732148,0 -0.3372565,0.0639 -0.460375,0.18662 0,0 -6.3842185,6.32495 -8.38016637,8.40775 -0.20503356,0.21414 -0.21413523,0.54223 -0.0319617,0.7747 7.34567997,8.09767 -2.82070433,14.77786 -8.51227963,8.63989 -0.2597502,-0.21873 -0.6425845,-0.21873 -0.8840257,0.0226 -1.91396,1.90959 -9.69712,9.62414 -11.597428,11.51538 -0.23689,0.23248 -0.232339,0.60607 0,0.83855 1.900308,1.89124 9.683468,9.61037 11.597428,11.51537 0.2414412,0.2413 0.6242755,0.24589 0.8840257,0.0226 5.6915753,-6.13798 15.8579596,0.54222 8.51227963,8.63988 -0.18217356,0.23248 -0.17307189,0.56515 0.0319617,0.77929 1.99594787,2.07821 8.38016637,8.40316 8.38016637,8.40316 0.1231185,0.12277 0.2871602,0.19121 0.460375,0.19121 H 201.99737" style="fill:#706c7b;fill-opacity:1;fill-rule:nonzero;stroke:none;stroke-width:15;stroke-dasharray:none"/>
        <path id="path4" d="m 200.92246,169.38713 4.80236,-4.77802 c 0.18274,-0.18168 0.22895,-0.46179 0.10936,-0.69003 -0.88159,-1.68487 -3.94264,-8.68539 3.23004,-13.31913 4.99427,-3.02013 8.84025,-0.85161 10.03864,0.005 0.23566,0.16827 0.55527,0.14182 0.76059,-0.0624 l 6.62728,-6.59377 c 0.23284,-0.23142 0.23284,-0.60819 0,-0.83997 l -6.62728,-6.59376 c -0.20532,-0.20426 -0.52493,-0.23072 -0.76059,-0.0624 -1.19839,0.8562 -5.04437,3.02472 -10.03864,0.005 -7.17268,-4.63409 -4.11163,-11.63461 -3.23004,-13.31948 0.11959,-0.22824 0.0734,-0.508 -0.10936,-0.69003 l -4.80236,-4.77802 c -0.11113,-0.11042 -0.26141,-0.17251 -0.41804,-0.17251 H 9.5779158 c -0.1566334,0 -0.3065648,0.0621 -0.4176898,0.17251 l -4.8023647,4.77802 c -0.1827371,0.18203 -0.2289519,0.46179 -0.1093602,0.69003 0.8815916,1.68487 3.9426435,8.68539 -3.2300333,13.31948 -4.994521,3.01978 -8.8403641,0.85126 -10.0385382,-0.005 -0.2356556,-0.16827 -0.5555191,-0.14181 -0.7608358,0.0624 l -6.6272478,6.59376 c -0.232763,0.23178 -0.232763,0.60855 0,0.83997 l 6.6272478,6.59377 c 0.2053167,0.20426 0.5251802,0.23071 0.7608358,0.0624 1.1981741,-0.85619 5.0440172,-3.02472 10.0385382,-0.005 7.1726768,4.63374 4.1116249,11.63426 3.2300333,13.31913 -0.1195917,0.22824 -0.073377,0.50835 0.1093602,0.69003 l 4.8023647,4.77802 c 0.111125,0.11042 0.2610564,0.17251 0.4176898,0.17251 H 200.50442 c 0.15663,0 0.30691,-0.0621 0.41804,-0.17251" style="fill:url(#linearGradient13);fill-rule:nonzero;stroke:none;stroke-width:15;stroke-dasharray:none"/>
        <path id="path5" d="m 200.50477,170.43453 c 0.39017,0 0.75776,-0.1517 1.0347,-0.42686 l 4.80236,-4.77838 c 0.45861,-0.45614 0.56585,-1.14582 0.2674,-1.71591 -0.94297,-1.80234 -3.51895,-8.00382 2.91889,-12.17154 1.56069,-0.94156 3.13619,-1.41887 4.68348,-1.41887 2.19498,0 3.79588,0.97437 4.38255,1.39347 0.25048,0.17886 0.54504,0.2734 0.85196,0.2734 0.38982,0 0.75742,-0.15169 1.03435,-0.42756 l 6.62763,-6.59377 c 0.2787,-0.27728 0.43215,-0.64664 0.43215,-1.03999 0,-0.39335 -0.15345,-0.76271 -0.43215,-1.04034 l -6.62728,-6.59377 c -0.27728,-0.27587 -0.64488,-0.42757 -1.0347,-0.42757 -0.30692,0 -0.60148,0.0945 -0.85196,0.27341 -0.58667,0.4191 -2.18757,1.39347 -4.38255,1.39347 -1.54693,0 -3.12279,-0.47731 -4.68348,-1.41887 -6.43784,-4.16772 -3.86186,-10.3692 -2.91889,-12.17154 0.29881,-0.57009 0.19121,-1.25977 -0.2674,-1.71591 l -4.80236,-4.77803 c -0.27694,-0.27552 -0.64418,-0.42721 -1.0347,-0.42721 H 9.5779158 c -0.390525,0 -0.7581212,0.15169 -1.0346981,0.42721 L 3.740853,121.8274 c -0.4586102,0.45614 -0.5662084,1.14582 -0.2677584,1.71591 0.9433296,1.80234 3.5189583,8.00382 -2.91842288,12.17154 -1.56104162,0.94156 -3.13654802,1.41887 -4.68354832,1.41887 -2.195232,0 -3.7962072,-0.97437 -4.3825942,-1.39347 -0.2505075,-0.17886 -0.5451475,-0.27341 -0.8520287,-0.27341 -0.3898548,0 -0.7572375,0.1517 -1.0346265,0.42757 l -6.627248,6.59377 c -0.2788,0.27763 -0.432294,0.64699 -0.432294,1.04034 0,0.39335 0.153494,0.76271 0.432294,1.03999 l 6.627389,6.59377 c 0.277107,0.27587 0.6444897,0.42756 1.0344855,0.42756 0.3068812,0 0.6015212,-0.0945 0.8520287,-0.2734 0.586387,-0.4191 2.1873622,-1.39347 4.3825942,-1.39347 1.5471061,0 3.1227527,0.47731 4.68354832,1.41887 6.43773578,4.16772 3.86175248,10.3692 2.91877748,12.17154 -0.2988046,0.57009 -0.1912064,1.25977 0.2674038,1.71591 l 4.8023647,4.77838 c 0.2769314,0.27516 0.6441731,0.42686 1.0346981,0.42686 z M 9.5779158,117.49705 H 200.50477 c 0.15628,0 0.30656,0.0621 0.41769,0.17251 l 4.80236,4.77802 c 0.18274,0.18203 0.22895,0.46179 0.10936,0.69003 -0.88159,1.68487 -3.94264,8.68539 3.23004,13.31948 1.9124,1.15605 3.65583,1.55187 5.14738,1.55187 2.40347,0 4.15148,-1.02835 4.89126,-1.55681 0.10372,-0.0741 0.22366,-0.11042 0.34325,-0.11042 0.1517,0 0.30268,0.0586 0.41734,0.17286 l 6.62728,6.59377 c 0.23284,0.23178 0.23284,0.60854 0,0.83997 l -6.62728,6.59376 c -0.11466,0.1143 -0.26564,0.17287 -0.41734,0.17287 -0.11959,0 -0.23953,-0.0363 -0.34325,-0.11042 -0.73978,-0.52846 -2.48708,-1.55681 -4.89126,-1.55646 -1.4912,0 -3.23533,0.39582 -5.14738,1.55187 -7.17268,4.63374 -4.11163,11.63426 -3.23004,13.31913 0.11959,0.22824 0.0734,0.50835 -0.10936,0.69003 l -4.80236,4.77802 c -0.11113,0.11042 -0.26141,0.17251 -0.41769,0.17251 H 9.5779158 c -0.1566334,0 -0.3065648,-0.0621 -0.4176898,-0.17251 l -4.8023647,-4.77802 c -0.1827371,-0.18168 -0.2289519,-0.46179 -0.1093602,-0.69003 0.8815916,-1.68487 3.9426435,-8.68539 -3.2300333,-13.31913 -1.911985,-1.15605 -3.6561897,-1.55187 -5.1473444,-1.55187 -2.4041099,-2.6e-4 -4.1516304,1.028 -4.8911938,1.55646 -0.1037873,0.0741 -0.2239433,0.11042 -0.3434291,0.11042 -0.1518708,0 -0.302613,-0.0586 -0.4174067,-0.17287 l -6.6272478,-6.59376 c -0.232763,-0.23143 -0.232763,-0.60819 0,-0.83997 l 6.6272478,-6.59377 c 0.1147937,-0.1143 0.2655359,-0.17286 0.4174067,-0.17286 0.1194858,0 0.2396418,0.0363 0.3434291,0.11042 0.7394221,0.52846 2.4874702,1.55681 4.8911938,1.55681 1.4912975,0 3.23493607,-0.39582 5.1473444,-1.55187 7.1726768,-4.63409 4.1116249,-11.63461 3.2300333,-13.31948 -0.1195917,-0.22824 -0.073377,-0.508 0.1093602,-0.69003 l 4.8023647,-4.77802 c 0.111125,-0.11042 0.2610564,-0.17251 0.4176898,-0.17251" style="fill:#100f0d;fill-opacity:1;fill-rule:nonzero;stroke:none;stroke-width:15;stroke-dasharray:none"/>
        <path id="path6" d="M 201.99737,113.56111 H 8.0817844 c -0.1732148,0 -0.3372565,0.0639 -0.460375,0.18662 0,0 -6.3842185,6.32495 -8.38016637,8.40775 -0.20503356,0.21414 -0.21413523,0.54222 -0.0319617,0.7747 5.34437167,5.89104 1.41866142,11.03277 -3.30880763,11.03277 -1.77038,0 -3.652766,-0.72072 -5.203472,-2.39289 -0.126647,-0.10689 -0.2826454,-0.16157 -0.4371269,-0.16157 -0.1623131,0 -0.3231448,0.0603 -0.4468988,0.18415 -1.91396,1.90958 -9.69712,9.62413 -11.597428,11.51537 -0.23689,0.23248 -0.232339,0.60607 0,0.83855 1.900308,1.89124 9.683468,9.61037 11.597428,11.51537 0.124319,0.12418 0.2861028,0.18592 0.4491213,0.18592 0.1537759,0 0.3088217,-0.055 0.4349044,-0.16334 1.5504229,-1.67181 3.4333751,-2.39289 5.203472,-2.39289 4.72782095,0 8.6535338,5.14103 3.30880763,11.03277 -0.18217356,0.23248 -0.17307189,0.56515 0.0319617,0.77929 1.99594787,2.07821 8.38016637,8.40316 8.38016637,8.40316 0.1231185,0.12277 0.2871602,0.19121 0.460375,0.19121 H 201.99737 c 0.17321,0 0.33726,-0.0684 0.46038,-0.19121 0,0 6.38422,-6.32495 8.38023,-8.40316 0.20497,-0.21414 0.21414,-0.54681 0.0318,-0.77929 -5.34423,-5.89103 -1.41852,-11.03242 3.30906,-11.03277 1.77024,-2.6e-4 3.65266,0.72072 5.20347,2.39289 0.12594,0.1083 0.28116,0.16334 0.43462,0.16334 0.16334,0 0.32491,-0.0617 0.44944,-0.18592 1.91382,-1.905 9.69715,-9.62413 11.59721,-11.51537 0.23249,-0.23248 0.23706,-0.60607 0,-0.83855 -1.90006,-1.89124 -9.68339,-9.60579 -11.59721,-11.51537 -0.12383,-0.12383 -0.28469,-0.18415 -0.44697,-0.18415 -0.15452,0 -0.31044,0.0547 -0.43709,0.16157 -1.55046,1.67181 -3.43359,2.39289 -5.20347,2.39289 -4.72793,0 -8.65364,-5.14103 -3.30906,-11.03277 0.18239,-0.23248 0.17322,-0.56056 -0.0318,-0.7747 -1.99601,-2.0828 -8.38023,-8.40775 -8.38023,-8.40775 -0.12312,-0.12277 -0.28717,-0.18662 -0.46038,-0.18662 z m -0.0882,0.87489 c 0.66675,0.6611 6.08682,6.03673 8.11177,8.13223 -2.45216,2.81658 -3.21169,5.8741 -2.08139,8.42574 1.0347,2.33504 3.48368,3.84387 6.23923,3.84387 2.07856,0 4.06999,-0.8703 5.63844,-2.45745 1.21709,1.21285 4.09505,4.06859 6.71019,6.66291 1.87784,1.86338 3.6202,3.59234 4.51696,4.48381 -1.05479,1.04916 -3.30094,3.27872 -5.55519,5.51568 -2.30222,2.28494 -4.61292,4.57835 -5.6716,5.63139 -1.56881,-1.58715 -3.56024,-2.45745 -5.6388,-2.45745 -2.75555,2.6e-4 -5.20453,1.50918 -6.23888,3.84457 -1.1303,2.55235 -0.37041,5.61058 2.0828,8.42716 -2.02706,2.09373 -7.45807,7.48065 -8.11812,8.1347 H 8.1745658 c -0.6462898,-0.64064 -6.0900045,-6.03956 -8.11819445,-8.1347 2.45363995,-2.81693 3.21387785,-5.87552 2.08322335,-8.42786 -1.0346955,-2.33504 -3.48361,-3.84387 -6.239121,-3.84387 -2.0786381,0 -4.0700325,0.8703 -5.6387997,2.45745 -1.057098,-1.05128 -3.368463,-3.34539 -5.671855,-5.63139 -2.254744,-2.23802 -4.501797,-4.46793 -5.555015,-5.51533 0.89214,-0.88723 2.63659,-2.61831 4.517072,-4.48416 2.614401,-2.59397 5.491903,-5.449 6.7100803,-6.66291 1.5686252,1.58715 3.5600222,2.45745 5.6385174,2.45745 2.7552649,0 5.204071,-1.50883 6.2387691,-3.84422 1.1303,-2.55164 0.3707685,-5.60917 -2.08096645,-8.42539 C 2.0813863,120.47485 7.490176,115.1098 8.1699779,114.436 H 201.90918" style="fill:#100f0d;fill-opacity:1;fill-rule:nonzero;stroke:none;stroke-width:15;stroke-dasharray:none"/>
        <path id="path7" d="m -16.99313,144.12366 7.1454075,6.9342 h 0.8878713 c 5.8770313,-4.01673 11.7961837,-0.0423 14.0370273,5.28496 -0.7327186,-1.26824 -3.5231917,-1.62066 -3.1005648,0 -2.81858766,-4.86198 -8.9916686,-4.46758 -11.2747765,-1.39524 l -0.8455728,-0.16898 -11.056408,-11.01407 -0.126789,-0.67557 h 2.261906 l 0.85344,2.6e-4 c 0.425661,0 0.986931,-0.34607 1.153124,-0.56585 l 0.06534,1.6002" style="fill:#100f0d;fill-opacity:1;fill-rule:nonzero;stroke:none;stroke-width:15;stroke-dasharray:none"/>
        <path id="path8" d="m 201.19621,169.70357 1.20509,3.02331 -0.67663,0.38029 H 8.0510927 l -8.55489717,-8.57603 0.6342962,-0.67274 c 2.06131577,0 2.86459077,0.26423 3.76311577,-1.00436 l -0.1481667,1.71238 5.5036852,5.41902 H 199.7657 c 0.54257,0 1.04951,-0.0501 1.43051,-0.28187" style="fill:#100f0d;fill-opacity:1;fill-rule:nonzero;stroke:none;stroke-width:15;stroke-dasharray:none"/>
        <path id="path9" d="m 210.33563,163.95612 -0.0272,0.43286 -0.0275,0.43744 c -0.66076,-0.0413 -1.32574,-0.0684 -1.99108,-0.0776 -1.1744,-0.013 -1.36455,-0.0977 -1.94592,0.47837 0.11641,0.0399 0.26423,-1.71309 0.26423,-1.71309 0.1972,0.4392 0.88088,0.34784 1.69051,0.36441 v -0.005 c 0.67909,0.009 1.36278,0.0363 2.03694,0.0822" style="fill:#100f0d;fill-opacity:1;fill-rule:nonzero;stroke:none;stroke-width:15;stroke-dasharray:none"/>
        <path id="path10" d="m 219.94776,150.95202 c 0,0 0.42968,3.25226 0.14782,4.15431 l -0.94086,-0.21166 c -1.43122,-1.67323 -3.302,-2.45569 -5.66561,-2.24085 0,0 -0.88759,-1.49013 -2.31458,-2.44157 2.46239,-1.25977 5.31037,-0.91722 8.255,1.03575 l 0.51823,-0.29598" style="fill:#100f0d;fill-opacity:1;fill-rule:nonzero;stroke:none;stroke-width:15;stroke-dasharray:none"/>
        <path id="path11" d="m 228.21158,143.96596 c -0.60572,0 -0.84843,0.33585 -1.10349,0.60255 v -2.08033 c 0.30374,0.3108 0.47308,0.58561 1.10349,0.6029 h 3.08822 v 0.87488 h -3.08822" style="fill:#100f0d;fill-opacity:1;fill-rule:nonzero;stroke:none;stroke-width:15;stroke-dasharray:none"/>
        <path id="path12" d="m 219.23057,134.45472 c 0.048,-0.60007 0.0825,-1.37442 0.0825,-2.45145 h 0.43744 0.43744 c 0,1.10878 -0.0356,1.90747 -0.0854,2.52765 -0.0829,0.89994 0.007,1.03823 0.37818,1.36349 l -1.88666,-0.15381 c 0.58526,-0.39017 0.56409,-0.6858 0.63642,-1.28588" style="fill:#100f0d;fill-opacity:1;fill-rule:nonzero;stroke:none;stroke-width:15;stroke-dasharray:none"/>
        <path id="path13" d="m 210.41324,122.15548 -0.0138,0.87489 c -0.90664,-0.0138 -1.8729,0.009 -2.92559,0.0681 0,0 -0.0635,0 -0.15487,0.009 -0.20037,0.0229 -0.53763,0.0868 -0.64699,0.28716 l -0.0363,-0.2413 -0.13229,-0.87065 -0.0501,-0.31891 c 0.13229,0.15945 0.42404,0.29034 0.58314,0.28257 1.2259,-0.0776 2.33327,-0.10477 3.37679,-0.091" style="fill:#100f0d;fill-opacity:1;fill-rule:nonzero;stroke:none;stroke-width:15;stroke-dasharray:none"/>
        <path id="path14" d="m 201.60932,117.13369 -1.85914,-0.51047 c 0.13652,0 0.32385,-0.12806 0.50306,-0.28646 0.37218,-0.25894 0.64699,-0.59725 0.89746,-1.21214 0.1778,-0.36336 0.35772,-0.78528 0.44027,-1.07597 l 0.83855,0.25964 c -0.20037,0.629 -0.96132,2.04611 -0.96132,2.0507 -0.0868,0.20955 -0.1277,0.51505 0.14112,0.7747" style="fill:#100f0d;fill-opacity:1;fill-rule:nonzero;stroke:none;stroke-width:15;stroke-dasharray:none"/>
        <path id="path15" d="m 8.4596094,117.19119 c 0.2222499,-0.33831 0.03175,-1.84997 -0.866775,-2.34668 l 0.5750269,-0.57644 0.6935628,0.0797 c -0.1012481,1.04775 0.4967102,2.12443 1.1839209,2.29376 l -0.9514421,0.11607 -0.6342935,0.43356" style="fill:#100f0d;fill-opacity:1;fill-rule:nonzero;stroke:none;stroke-width:15;stroke-dasharray:none"/>
        <path id="path16" d="m 4.9646408,126.79415 -3.4402897,-3.44487 c -0.3372564,-0.3235 -0.97987642,-0.25964 -1.23966021,-0.0822 l -0.10925704,-0.21413 c -0.1641475,0 -0.30991439,0.005 -0.42389689,0.009 l -0.0454739,-0.87489 c 0.55135726,-0.0272 1.74067784,0.0138 2.75244444,0.073 h 0.00458 c 0.7609417,0 1.1528769,-0.29633 1.5765648,-0.68368 l -0.1368796,1.42628 1.0618629,3.7913" style="fill:#100f0d;fill-opacity:1;fill-rule:nonzero;stroke:none;stroke-width:15;stroke-dasharray:none"/>
        <path id="path17" d="m -10.257015,132.32747 c 0.416313,0.49213 0.5149848,2.7552 -0.14097,3.56694 l 1.3182246,-0.0282 c 0.028258,-0.64241 -0.06036,-2.73474 -0.1972029,-3.67947 l -0.9800517,0.14075" style="fill:#100f0d;fill-opacity:1;fill-rule:nonzero;stroke:none;stroke-width:15;stroke-dasharray:none"/>
        <path id="path18" d="m 42.671292,156.27085 c 0,0.61913 -0.784931,1.64924 -1.860198,1.64924 -1.057275,0 -1.860198,-0.96661 -1.860198,-1.64924 0,-0.56973 0,-7.43549 0,-7.43549 l 3.720396,-2.48038 c 0,0.29033 0,9.30169 0,9.91587 z M 41.033344,130.6225 c -6.6802,0 -7.546975,4.1275 -7.546975,4.6034 v 1.99742 l 4.589992,2.34668 c 0,0 2.64e-4,-3.23991 0,-3.80965 0,-0.68262 0.990952,-1.64923 2.295877,-1.64923 1.32715,0 2.296231,1.03011 2.296231,1.64923 0,0.61419 0,3.86398 0,4.15396 0,2.86914 -4.904668,3.87562 -6.849533,5.3273 -1.324682,0.98672 -2.734027,2.85397 -2.734027,5.03132 0,0.30303 0,9.13906 0,9.47102 0,1.28411 1.363485,2.81199 4.925483,2.81199 0.972609,0 3.106912,0 3.826579,-1.96638 l 0.836083,-0.002 -7.93e-4,1.96815 h 5.68325 c 0,0 0,-27.3431 0,-28.08182 0,-0.73872 -1.205442,-3.85163 -7.322257,-3.85163" style="fill:#71386c;fill-opacity:1;fill-rule:nonzero;stroke:none;stroke-width:15;stroke-dasharray:none"/>
        <path id="path19" d="m 51.950759,154.48721 -2.65e-4,2.08562 c 0,3.87597 2.332919,5.94007 5.693482,5.94007 1.17757,0 2.784475,0 4.391025,0 2.818693,0 5.482166,-2.07821 5.482166,-4.53143 0,-2.16958 0,-4.23933 0,-6.35917 0,-4.14584 -1.550458,-6.25863 -5.283554,-7.88317 -1.110896,-0.48331 -2.222146,-1.00718 -3.137252,-1.79529 -0.78246,-0.74365 -1.183217,-1.56457 -1.183217,-2.62537 v -3.45934 c 0,-1.0668 0.854075,-1.93146 1.907469,-1.93146 h 0.778229 c 1.053394,0 1.907469,0.86466 1.907469,1.93146 v 3.56905 l 4.574116,-2.34985 c 0,-2.99861 -1.048808,-5.06941 -3.070576,-5.83353 -3.254375,-1.23014 -6.5278,-1.01494 -9.674225,0.44626 -1.313392,0.60996 -2.060927,1.73673 -2.025298,3.27625 v 7.34589 c -0.0024,2.37561 1.017058,3.80929 3.211335,4.67607 0.600781,0.23742 1.241779,0.37183 1.8669,0.54434 2.834571,0.78352 4.404079,2.77706 4.461229,5.73863 v 4.07176 c 0,1.06645 -0.853723,1.93111 -1.907116,1.93111 h -0.77823 c -1.053394,0 -1.907117,-0.86466 -1.907117,-1.93111 v -5.69489 l -5.30648,2.8381" style="fill:#71386c;fill-opacity:1;fill-rule:nonzero;stroke:none;stroke-width:15;stroke-dasharray:none"/>
        <path id="path20" d="m 79.271631,159.27687 h 1.153231 v 3.27942 h -3.267427 c -4.477104,0 -4.826706,-3.24555 -4.826706,-4.73745 0,-0.28716 0,-23.69643 0,-23.69643 h -2.442281 v -3.28578 h 2.442281 v -3.63643 l 5.468408,-3.00284 v 6.63927 h 2.629252 v 3.28578 h -2.629252 v 23.40892 c 0,0.54963 0.04904,1.74554 1.472494,1.74554" style="fill:#71386c;fill-opacity:1;fill-rule:nonzero;stroke:none;stroke-width:15;stroke-dasharray:none"/>
        <path id="path21" d="m 89.168812,162.55629 h -5.685718 v -35.15712 l 5.68607,-3.20252 -2.65e-4,38.35964" style="fill:#71386c;fill-opacity:1;fill-rule:nonzero;stroke:none;stroke-width:15;stroke-dasharray:none"/>
        <path id="path22" d="m 103.60589,153.62114 v 3.51437 c 0,1.00683 -0.93133,2.14489 -2.08068,2.14489 h -1.08127 c -1.148995,0 -2.080683,-1.13806 -2.080683,-2.14489 v -9.4428 l 10.052053,0.001 v -13.20412 c 0,-0.69144 -0.84173,-3.85515 -7.32861,-3.85515 -5.939717,0 -7.110234,3.11538 -7.110234,3.8548 0,0.41416 0,13.20588 0,13.20588 l 0.0013,11.02149 c 0,1.22943 1.128535,3.85163 6.854474,3.85163 6.32531,0 7.14975,-3.67242 7.14975,-4.6034 v -1.88772 z m -5.246511,-17.6657 c 0,-1.00683 0.815975,-1.8228 1.822801,-1.8228 h 0.94721 c 1.00647,0 1.8228,0.81597 1.8228,1.8228 v 8.45855 h -4.592811 v -8.45855" style="fill:#71386c;fill-opacity:1;fill-rule:nonzero;stroke:none;stroke-width:15;stroke-dasharray:none"/>
        <path id="path23" d="m 4273.64,3586 -141.82,-76.71 245.68,-1508.92 269.67,1779.79 -148.21,-87.5 L 4385.73,2572.06 4273.64,3586" style="fill:#71386c;fill-opacity:1;fill-rule:nonzero;stroke:none;stroke-width:425.197;stroke-dasharray:none" transform="matrix(0.03527778,0,0,-0.03527778,-34.660417,256.4421)" clip-path="url(#clipPath24)"/>
        <path id="path25" d="m 4679.51,3828.05 -44.94,-26.54 -148.22,-87.49 -10.8,-6.38 -1.27,-12.48 -89.66,-887.36 -86.33,780.92 -4.05,36.62 -32.4,-17.53 -141.82,-76.7 -15.52,-8.39 2.84,-17.41 245.68,-1508.92 25.36,-155.75 23.64,156.02 269.68,1779.78 z m -32.34,-47.89 -269.67,-1779.79 -245.68,1508.92 141.82,76.71 112.09,-1013.94 113.23,1120.6 148.21,87.5" style="fill:#100f0d;fill-opacity:1;fill-rule:nonzero;stroke:none;stroke-width:425.197;stroke-dasharray:none" transform="matrix(0.03527778,0,0,-0.03527778,-34.660417,256.4421)" clip-path="url(#clipPath24)"/>
        <path id="path26" d="m 141.66885,156.27085 c 0,0.61913 -0.78493,1.64924 -1.8602,1.64924 -1.05692,0 -1.8602,-0.96661 -1.8602,-1.64924 2.7e-4,-0.56973 0,-7.43549 0,-7.43549 l 3.7204,-2.48038 c 0,0.29033 0,9.30169 0,9.91587 z m -1.6376,-25.64835 c -6.6802,0 -7.54733,4.1275 -7.54733,4.6034 v 1.99742 l 4.59035,2.34668 c 0,0 0,-3.23991 0,-3.80965 0,-0.68262 0.99095,-1.64923 2.29588,-1.64923 1.32715,0 2.29587,1.03011 2.29587,1.64923 0,0.61419 0,3.86398 0,4.15396 0,2.86914 -4.90431,3.87562 -6.84918,5.3273 -1.32503,0.98672 -2.73438,2.85397 -2.73438,5.03132 0,0.30303 0,9.13906 0,9.47102 0,1.28411 1.36349,2.81199 4.92584,2.81199 0.97226,0 3.10656,0 3.82623,-1.96638 l 0.83608,-0.002 -2.7e-4,1.96815 h 5.68325 c 0,0 0,-27.3431 0,-28.08182 0,-0.73872 -1.20579,-3.85163 -7.32225,-3.85163" style="fill:#71386c;fill-opacity:1;fill-rule:nonzero;stroke:none;stroke-width:15;stroke-dasharray:none"/>
        <path id="path27" d="m 160.03939,138.72051 c 0,0.40887 0,23.85272 0,23.85272 h 5.24934 c 0,0 2.6e-4,-27.68741 2.6e-4,-28.08217 0,-1.64888 -1.70885,-3.91795 -3.97792,-3.91795 -2.42323,0 -4.10492,1.93252 -4.98934,3.35421 0,-0.40852 0,-2.96122 0,-2.96122 l -5.47193,3.0152 v 28.59193 h 5.47158 c 0,0 2.7e-4,-22.55767 2.7e-4,-22.95208 0.0141,-1.5501 0.46531,-3.35421 1.90288,-3.35421 1.24001,0 1.81469,0.76094 1.81469,2.45357" style="fill:#71386c;fill-opacity:1;fill-rule:nonzero;stroke:none;stroke-width:15;stroke-dasharray:none"/>
        <path id="path28" d="m 175.14534,162.55629 h -5.473 V 130.6225 h 5.47335 l -2.6e-4,31.93379" style="fill:#71386c;fill-opacity:1;fill-rule:nonzero;stroke:none;stroke-width:15;stroke-dasharray:none"/>
        <path id="path29" d="m 172.36827,127.51558 -2.40982,-2.41017 2.40982,-2.40983 2.41018,2.40983 -2.41018,2.41017" style="fill:#71386c;fill-opacity:1;fill-rule:nonzero;stroke:none;stroke-width:15;stroke-dasharray:none"/>
        <path id="path30" d="m 188.2655,156.26909 c 0,0.61912 -0.78529,1.64888 -1.86055,1.64888 -1.05693,0 -1.8602,-0.96661 -1.8602,-1.64888 2.6e-4,-0.56974 0,-7.4355 0,-7.4355 l 3.72075,-2.48038 c 0,0.28998 0,9.30169 0,9.91588 z m -1.63795,-25.64836 c -6.6802,0 -7.54733,4.1275 -7.54733,4.60305 v 1.99743 l 4.59035,2.34703 c 0,0 0,-3.24027 0,-3.81 0,-0.68228 0.99095,-1.64889 2.29587,-1.64889 1.32715,0 2.29588,1.02976 2.29588,1.64889 0,0.61418 0,3.86397 0,4.15431 0,2.86914 -4.90431,3.87561 -6.84918,5.32729 -1.32503,0.98637 -2.73438,2.85398 -2.73438,5.03132 0,0.30304 0,9.13871 0,9.47067 0,1.28447 1.36349,2.81235 4.92584,2.81235 0.97225,0 3.10656,0 3.82622,-1.96674 l 0.83609,-0.002 -2.7e-4,1.9685 h 5.68325 c 0,0 0,-27.3431 0,-28.08182 0,-0.73906 -1.20544,-3.85162 -7.32225,-3.85162" style="fill:#71386c;fill-opacity:1;fill-rule:nonzero;stroke:none;stroke-width:15;stroke-dasharray:none"/>
        <path id="path31" d="m 39.825786,149.30384 1.970616,-1.31374 v 8.28075 c -0.01871,0.19403 -0.431799,0.774 -0.985308,0.774 -0.58561,0 -0.984602,-0.58103 -0.985308,-0.774 0,-0.47872 0,-5.4102 0,-6.96701 z m 1.207558,-19.55623 c -6.99276,0 -8.421864,4.32117 -8.421864,5.47829 v 1.99742 0.53517 l 0.476604,0.24377 4.589992,2.34703 1.273175,0.65087 v -1.42981 -3.8107 c 0.03422,-0.18662 0.57785,-0.77329 1.420987,-0.77329 0.835731,0 1.361371,0.59866 1.421341,0.79869 v 4.12926 c 0,1.4344 -2.10326,2.40595 -3.958518,3.2632 -0.963083,0.4452 -1.872898,0.86536 -2.539648,1.36313 -1.491192,1.11054 -3.085746,3.20005 -3.085746,5.73229 v 9.47102 c 0,1.83515 1.793875,3.68688 5.800725,3.68688 0.7874,0 2.58445,2.6e-4 3.787069,-1.17898 v 0.30374 l -2.65e-4,0.87524 h 0.875242 5.68325 0.874887 v -0.87489 -28.08181 c 0,-0.99837 -1.391002,-4.72652 -8.197144,-4.72652 z m -0.22225,28.17248 c 1.075267,0 1.860198,-1.03011 1.860198,-1.64924 0,-0.61418 0,-9.62554 0,-9.91587 l -3.720396,2.48038 c 0,0 0,6.86576 0,7.43549 0,0.68263 0.802923,1.64924 1.860198,1.64924 m 0.22225,-27.29759 c 6.116815,0 7.322257,3.11291 7.322257,3.85163 0,0.73871 0,28.08181 0,28.08181 h -5.68325 l 7.93e-4,-1.96815 -0.836083,0.002 c -0.719667,1.96638 -2.85397,1.96638 -3.826579,1.96638 -3.561998,0 -4.925838,-1.52788 -4.925838,-2.81199 0,-0.33197 0,-9.16799 0,-9.47103 0,-2.17734 1.4097,-4.04459 2.734382,-5.03131 1.944865,-1.45168 6.849533,-2.45816 6.849533,-5.3273 0,-0.28998 0,-3.53977 0,-4.15396 0,-0.61912 -0.969081,-1.64888 -2.296231,-1.64888 -1.304925,0 -2.295877,0.96626 -2.295877,1.64888 2.64e-4,0.56974 0,3.80965 0,3.80965 l -4.589992,-2.34668 v -1.99743 c 0,-0.4759 0.866775,-4.60339 7.546975,-4.60339" style="fill:#100f0d;fill-opacity:1;fill-rule:nonzero;stroke:none;stroke-width:15;stroke-dasharray:none"/>
        <path id="path32" d="m 59.726686,129.5684 c -1.922992,0 -3.8608,0.44732 -5.759805,1.32927 -1.675339,0.77787 -2.57457,2.23061 -2.531179,4.0901 l -2.64e-4,7.32543 c -0.0028,2.69205 1.228725,4.48804 3.764843,5.48993 0.487537,0.19261 0.980369,0.31961 1.456971,0.44238 0.166513,0.043 0.333023,0.0857 0.498123,0.13159 2.484966,0.6865 3.770135,2.33927 3.819525,4.91208 v 4.05482 c 0,0.58244 -0.462844,1.05622 -1.032227,1.05622 h -0.77823 c -0.569028,0 -1.032227,-0.47378 -1.032227,-1.05622 v -5.69489 -1.46015 l -1.287639,0.68863 -5.306481,2.83809 -0.46214,0.24695 v 0.52423 l -2.64e-4,2.08597 c 0,4.2037 2.516714,6.81531 6.568368,6.81531 l 1.861609,-2.6e-4 h 2.529416 c 3.386667,0 6.357054,-2.52624 6.357054,-5.40632 v -2.15829 -4.20124 c 0,-4.37303 -1.683102,-6.88939 -5.809192,-8.68503 -1.008591,-0.43886 -2.062691,-0.9271 -2.899127,-1.64218 -0.627591,-0.60149 -0.895701,-1.1938 -0.895701,-1.97626 v -3.45934 c 0,-0.58244 0.463195,-1.05657 1.032578,-1.05657 h 0.77823 c 0.569383,0 1.032579,0.47413 1.032579,1.05657 v 3.56905 1.43299 l 1.274588,-0.65476 4.574468,-2.34985 0.47484,-0.24413 v -0.5341 c 0,-3.40325 -1.291167,-5.7658 -3.636082,-6.65198 -1.505656,-0.56903 -3.050823,-0.8576 -4.59246,-0.85795 m 0,0.87488 c 1.423104,2.7e-4 2.855029,0.26177 4.283075,0.80152 2.021769,0.76411 3.070577,2.83492 3.070577,5.83353 l -4.574117,2.34985 v -3.56905 c 0,-1.0668 -0.854075,-1.93146 -1.907468,-1.93146 h -0.77823 c -1.053393,0 -1.907468,0.86466 -1.907468,1.93146 v 3.45934 c 0,1.0608 0.400756,1.88171 1.183216,2.62537 0.915107,0.7881 2.026357,1.31198 3.137252,1.79529 3.733096,1.62454 5.283555,3.73732 5.283555,7.88317 0,2.11984 0,4.18959 0,6.35917 0,2.45322 -2.663473,4.53143 -5.482167,4.53143 -1.60655,0 -3.213454,0 -4.391025,0 -3.360563,0 -5.693481,-2.0641 -5.693481,-5.94007 l 2.64e-4,-2.08562 5.306481,-2.8381 v 5.69489 c 0,1.06645 0.853723,1.93111 1.907117,1.93111 h 0.778229 c 1.053394,0 1.907117,-0.86466 1.907117,-1.93111 v -4.07176 c -0.05715,-2.96157 -1.626658,-4.95512 -4.46123,-5.73864 -0.62512,-0.17251 -1.266118,-0.30691 -1.8669,-0.54433 -2.194276,-0.86678 -3.213803,-2.30047 -3.211335,-4.67607 v -7.34589 c -0.03563,-1.53953 0.711907,-2.6663 2.025298,-3.27625 1.765652,-0.82021 3.571169,-1.24778 5.39115,-1.24778" style="fill:#100f0d;fill-opacity:1;fill-rule:nonzero;stroke:none;stroke-width:15;stroke-dasharray:none"/>
        <path id="path33" d="m 78.674027,122.71887 -1.296106,0.71155 -5.468409,3.0032 -0.453673,0.24906 v 0.51752 2.76155 h -1.567391 -0.875242 v 0.87488 3.28578 0.87489 h 0.875242 1.567391 v 22.82154 c 0,3.56659 2.078215,5.61234 5.701596,5.61234 h 3.267427 0.87489 v -0.87489 -3.27942 -0.87489 h -0.87489 -1.153231 c -0.392642,0 -0.597604,-0.0388 -0.597604,-0.87065 V 134.9973 h 1.754362 0.87489 v -0.87489 -3.28578 -0.87488 h -0.87489 -1.754362 v -5.76439 z m -0.87489,1.47849 v 6.63927 h 2.629252 v 3.28578 h -2.629252 v 23.40892 c 0,0.54963 0.04904,1.74554 1.472494,1.74554 h 1.153231 v 3.27942 h -3.267427 c -4.477104,0 -4.826706,-3.24555 -4.826706,-4.73745 0,-0.28716 0,-23.69643 0,-23.69643 h -2.442281 v -3.28578 h 2.442281 v -3.63643 l 5.468408,-3.00284" style="fill:#100f0d;fill-opacity:1;fill-rule:nonzero;stroke:none;stroke-width:15;stroke-dasharray:none"/>
        <path id="path34" d="m 90.044054,122.69946 -1.304219,0.73484 -5.686073,3.20252 -0.445558,0.25117 v 0.51118 35.15712 0.87489 h 0.87489 5.685718 0.874887 v -0.87489 l 2.65e-4,-38.35964 z m -0.87489,1.49719 -2.65e-4,38.35964 h -5.685805 v -35.15712 l 5.68607,-3.20252" style="fill:#100f0d;fill-opacity:1;fill-rule:nonzero;stroke:none;stroke-width:15;stroke-dasharray:none"/>
        <path id="path35" d="m 99.234266,143.5391 v -7.58366 c 0,-0.52246 0.425098,-0.94791 0.947914,-0.94791 h 0.94721 c 0.52246,0 0.94791,0.42545 0.94791,0.94791 v 7.58366 z m 1.852434,-13.77914 c -6.629751,0 -7.985121,3.73062 -7.985121,4.72969 v 13.20588 l 0.0013,11.02148 c 0,0.48366 0.216958,4.72652 7.729361,4.72652 6.34753,0 8.02464,-3.58352 8.02464,-5.47829 v -1.88771 -0.51223 l -0.44662,-0.25047 -4.37621,-2.4564 -1.30316,-0.73166 v 1.49437 3.51437 c 0,0.55986 -0.56762,1.27 -1.20579,1.27 h -1.08127 c -0.638175,0 -1.205793,-0.71014 -1.205793,-1.27 v -8.56791 l 9.177163,0.001 h 0.87489 v -0.87489 -13.20412 c 0,-0.0473 -0.0938,-4.73004 -8.20349,-4.73004 z m -2.727321,14.65403 h 4.592811 v -8.45855 c 0,-1.00683 -0.81633,-1.8228 -1.8228,-1.8228 h -0.94721 c -1.006826,0 -1.822801,0.81597 -1.822801,1.8228 v 8.45855 m 2.727321,-13.77914 c 6.48688,0 7.32861,3.16371 7.32861,3.85515 v 13.20412 l -10.052053,-0.001 v 9.4428 c 0,1.00683 0.931688,2.14489 2.080683,2.14489 h 1.08127 c 1.14935,0 2.08068,-1.13806 2.08068,-2.14489 v -3.51437 l 4.37621,2.45639 v 1.88771 c 0,0.93098 -0.82444,4.6034 -7.14975,4.6034 -5.725936,0 -6.854471,-2.6222 -6.854471,-3.85163 l -0.0013,-11.02148 c 0,0 0,-12.79172 0,-13.20589 0,-0.73942 1.170516,-3.8548 7.110231,-3.8548" style="fill:#100f0d;fill-opacity:1;fill-rule:nonzero;stroke:none;stroke-width:15;stroke-dasharray:none"/>
        <path id="path36" d="m 138.82369,149.30384 1.97027,-1.31374 v 8.28075 c -0.0187,0.19403 -0.43145,0.774 -0.98531,0.774 -0.58526,0 -0.98425,-0.58103 -0.98496,-0.774 0,-0.47872 0,-5.4102 0,-6.96701 z m 1.20756,-19.55623 c -6.99276,0 -8.42222,4.32117 -8.42222,5.47829 v 1.99742 0.53517 l 0.47661,0.24377 4.58999,2.34703 1.27318,0.65087 2.6e-4,-1.42981 v -3.8107 c 0.0342,-0.18662 0.5775,-0.77329 1.42099,-0.77329 0.83573,0 1.36102,0.59866 1.42099,0.79869 v 4.12926 c 0,1.4344 -2.10291,2.40595 -3.95817,3.2632 -0.96308,0.4452 -1.8729,0.86536 -2.53965,1.36313 -1.49119,1.11054 -3.08574,3.20005 -3.08574,5.73229 v 9.47102 c 0,1.83515 1.79352,3.68688 5.80072,3.68688 0.7874,0 2.5841,2.6e-4 3.78707,-1.17898 l -2.6e-4,0.30374 v 0.87524 h 0.87524 5.68325 0.87489 v -0.87489 -28.08181 c 0,-0.99837 -1.39136,-4.72652 -8.19715,-4.72652 z m -0.2226,28.17248 c 1.07527,0 1.8602,-1.03011 1.8602,-1.64924 0,-0.61418 0,-9.62554 0,-9.91587 l -3.7204,2.48038 c 0,0 2.7e-4,6.86576 0,7.43549 0,0.68263 0.80328,1.64924 1.8602,1.64924 m 0.2226,-27.29759 c 6.11646,0 7.32226,3.11291 7.32226,3.85163 0,0.73871 0,28.08181 0,28.08181 h -5.68325 l 2.6e-4,-1.96815 -0.83608,0.002 c -0.71967,1.96638 -2.85397,1.96638 -3.82623,1.96638 -3.56235,0 -4.92583,-1.52788 -4.92583,-2.81199 0,-0.33197 0,-9.16799 0,-9.47103 0,-2.17734 1.40934,-4.04459 2.73437,-5.03131 1.94487,-1.45168 6.84919,-2.45816 6.84919,-5.3273 0,-0.28998 0,-3.53977 0,-4.15396 0,-0.61912 -0.96873,-1.64888 -2.29588,-1.64888 -1.30493,0 -2.29588,0.96626 -2.29588,1.64888 0,0.56974 0,3.80965 0,3.80965 l -4.59034,-2.34668 v -1.99743 c 0,-0.4759 0.86712,-4.60339 7.54732,-4.60339" style="fill:#100f0d;fill-opacity:1;fill-rule:nonzero;stroke:none;stroke-width:15;stroke-dasharray:none"/>
        <path id="path37" d="m 157.19671,129.48479 -1.29716,0.71508 -5.47194,3.01519 -0.45261,0.24942 v 0.51682 28.59193 0.87489 h 0.87489 5.47158 0.87489 v -0.87489 l 2.6e-4,-22.95208 c 0.008,-0.91581 0.2346,-2.47932 1.028,-2.47932 0.44026,0 0.9398,0 0.9398,1.57868 v 23.85272 0.87489 h 0.87488 5.24934 0.87489 v -0.87489 l 2.6e-4,-28.08217 c 0,-2.17099 -2.16464,-4.79284 -4.85281,-4.79284 -1.72861,0 -3.0995,0.81104 -4.11444,1.7653 v -0.49742 z m 4.11445,1.08832 c 2.26907,0 3.97792,2.26907 3.97792,3.91795 0,0.39476 -2.6e-4,28.08217 -2.6e-4,28.08217 h -5.24934 c 0,0 0,-23.44385 0,-23.85272 0,-1.69263 -0.57467,-2.45357 -1.81468,-2.45357 -1.43757,0 -1.88878,1.80411 -1.90289,3.35421 0,0.39441 -2.6e-4,22.95208 -2.6e-4,22.95208 h -5.47158 V 133.9813 l 5.47193,-3.0152 c 0,0 0,2.5527 0,2.96122 0.88442,-1.42169 2.56611,-3.35421 4.98934,-3.35421" style="fill:#100f0d;fill-opacity:1;fill-rule:nonzero;stroke:none;stroke-width:15;stroke-dasharray:none"/>
        <path id="path38" d="m 176.02058,129.74761 h -7.22312 v 33.68357 h 7.22277 v -0.87489 l 2.6e-4,-31.93379 z m -0.87489,0.87489 -2.6e-4,31.93379 h -5.47309 V 130.6225 h 5.47335" style="fill:#100f0d;fill-opacity:1;fill-rule:nonzero;stroke:none;stroke-width:15;stroke-dasharray:none"/>
        <path id="path39" d="m 172.36827,121.45804 -0.61877,0.61877 -2.40982,2.41018 -0.61878,0.61842 0.61878,0.61877 2.40982,2.41018 0.61877,0.61842 0.61877,-0.61842 2.40983,-2.41018 0.61877,-0.61877 -0.61877,-0.61842 -2.40983,-2.41018 z m 0,1.23754 2.41018,2.40983 -2.41018,2.41017 -2.40982,-2.41017 2.40982,-2.40983" style="fill:#100f0d;fill-opacity:1;fill-rule:nonzero;stroke:none;stroke-width:15;stroke-dasharray:none"/>
        <path id="path40" d="m 185.41999,149.30173 1.97027,-1.31375 v 8.28111 c -0.0187,0.19367 -0.43145,0.77399 -0.98531,0.77399 -0.58526,0 -0.98425,-0.58102 -0.98496,-0.77399 0,-0.47907 0,-5.41055 0,-6.96736 z m 1.20756,-19.55588 c -6.99276,0 -8.42222,4.32082 -8.42222,5.47793 v 1.99743 0.53551 l 0.47661,0.24342 4.59034,2.34703 1.27282,0.65088 2.7e-4,-1.42981 v -3.81036 c 0.0342,-0.18697 0.57749,-0.77364 1.42098,-0.77364 0.83573,0 1.36102,0.59867 1.42099,0.79869 v 4.12962 c 0,1.43404 -2.10291,2.40594 -3.95816,3.26319 -0.96309,0.44486 -1.8729,0.86537 -2.53965,1.36278 -1.49119,1.11055 -3.08575,3.2004 -3.08575,5.73264 v 9.47067 c 0,1.83551 1.79352,3.68724 5.80073,3.68724 0.7874,0 2.58409,0 3.78707,-1.17899 l -2.7e-4,0.30375 v 0.87524 h 0.87524 5.68325 0.87489 v -0.87489 -28.08182 c 0,-0.99836 -1.39135,-4.72651 -8.19714,-4.72651 z m -0.2226,28.17212 c 1.07526,0 1.86055,-1.02976 1.86055,-1.64888 0,-0.61419 0,-9.6259 0,-9.91588 l -3.72075,2.48038 c 0,0 2.6e-4,6.86576 0,7.4355 0,0.68227 0.80327,1.64888 1.8602,1.64888 m 0.2226,-27.29724 c 6.11681,0 7.32226,3.11256 7.32226,3.85163 0,0.73872 0,28.08182 0,28.08182 h -5.68325 l 2.6e-4,-1.9685 -0.83608,0.002 c -0.71967,1.96674 -2.85398,1.96674 -3.82623,1.96674 -3.56235,0 -4.92584,-1.52789 -4.92584,-2.81235 0,-0.33196 0,-9.16764 0,-9.47067 0,-2.17734 1.40935,-4.04495 2.73438,-5.03132 1.94487,-1.45168 6.84919,-2.45815 6.84919,-5.3273 0,-0.29033 0,-3.54012 0,-4.15431 0,-0.61912 -0.96873,-1.64888 -2.29588,-1.64888 -1.30493,0 -2.29588,0.96661 -2.29588,1.64888 0,0.56974 0,3.81 0,3.81 l -4.59034,-2.34703 v -1.99742 c 0,-0.47555 0.86712,-4.60305 7.54732,-4.60305" style="fill:#100f0d;fill-opacity:1;fill-rule:nonzero;stroke:none;stroke-width:15;stroke-dasharray:none"/>
        <path id="path41" d="m 36.029192,171.06106 v 14.25716 c 0,0.96485 -0.784931,1.74978 -1.749779,1.74978 h -4.158544 c -0.964848,0 -1.749777,-0.78493 -1.749777,-1.74978 v -80.73989 c 0,-0.96485 0.784929,-1.74978 1.750129,-1.74978 h 4.158192 c 0.964848,0 1.749779,0.78493 1.749779,1.74978 v 12.24033 l 14.880519,7.70537 v -20.68371 c -0.931686,-1.30528 -4.90714,-6.869293 -6.420909,-8.891413 -0.827968,0.540453 -2.048933,1.31445 -3.387018,1.31445 -1.817865,0 -3.53695,-1.695805 -3.53695,-3.489325 0,-1.944865 1.638652,-3.358447 2.471208,-4.059415 L 32.204728,77.808492 c -1.775177,2.484967 -6.454775,9.033933 -7.831315,10.906125 0.832204,0.700968 2.470856,2.11455 2.470856,4.059415 0,1.79352 -1.719085,3.489325 -3.53695,3.489325 -1.338085,0 -2.55905,-0.773997 -3.387018,-1.31445 -1.513771,2.02212 -5.489223,7.586133 -6.420908,8.891413 v 82.39512 c 0.531283,0.72884 4.69406,6.43749 6.36411,8.73407 0.592666,-0.43991 1.781527,-1.12465 3.43676,-1.12465 2.17029,0 4.003675,1.87854 4.003675,4.1021 0,2.00589 -2.066219,4.11762 -2.572102,4.60445 1.126419,2.39219 5.600348,12.15531 7.472892,16.2426 l 7.472539,-16.2426 c -0.505883,-0.48683 -2.572104,-2.59856 -2.572104,-4.60445 0,-2.22356 1.833388,-4.1021 4.003675,-4.1021 1.655233,0 2.844096,0.68474 3.436763,1.12465 1.67005,-2.29658 5.832826,-8.00523 6.36411,-8.73407 v -21.95971 l -14.880519,6.78533" style="fill:#706c7b;fill-opacity:1;fill-rule:nonzero;stroke:none;stroke-width:15;stroke-dasharray:none"/>
        <path id="path42" d="m 34.279413,102.82855 h -4.158192 c -0.9652,0 -1.750129,0.78493 -1.750129,1.74978 v 80.73989 c 0,0.96485 0.784929,1.74978 1.749777,1.74978 h 4.158544 c 0.964848,0 1.749779,-0.78493 1.749779,-1.74978 v -14.25716 l 14.880519,-6.78533 v 21.95971 c -0.531284,0.72884 -4.69406,6.43749 -6.36411,8.73407 -0.592667,-0.43991 -1.78153,-1.12465 -3.436763,-1.12465 -2.170287,0 -4.003675,1.87854 -4.003675,4.1021 0,2.00589 2.066221,4.11762 2.572104,4.60445 l -7.472539,16.2426 c -1.872544,-4.08729 -6.346473,-13.85041 -7.472892,-16.2426 0.505883,-0.48683 2.572102,-2.59856 2.572102,-4.60445 0,-2.22356 -1.833385,-4.1021 -4.003675,-4.1021 -1.655233,0 -2.844094,0.68474 -3.43676,1.12465 -1.67005,-2.29658 -5.832827,-8.00523 -6.36411,-8.73407 v -82.39512 c 0.931685,-1.30528 4.907137,-6.869293 6.420908,-8.891413 0.827968,0.540453 2.048933,1.31445 3.387018,1.31445 1.817865,0 3.53695,-1.695805 3.53695,-3.489325 0,-1.944865 -1.638652,-3.358447 -2.470856,-4.059415 1.37654,-1.872192 6.056138,-8.421158 7.831315,-10.906125 l 7.831314,10.906125 c -0.832556,0.700968 -2.471208,2.11455 -2.471208,4.059415 0,1.79352 1.719085,3.489325 3.53695,3.489325 1.338085,0 2.55905,-0.773997 3.387018,-1.31445 1.513769,2.02212 5.489223,7.586133 6.420909,8.891413 v 20.68371 l -14.880519,-7.70537 v -12.24033 c 0,-0.96485 -0.784931,-1.74978 -1.749779,-1.74978 z M 51.7846,124.96289 v -21.21041 c 0,-0.12489 -0.03916,-0.2466 -0.112537,-0.34784 l -6.544734,-9.027233 c -0.245178,-0.337963 -0.712258,-0.42545 -1.06186,-0.19685 -0.751768,0.491418 -1.855258,1.20791 -2.963685,1.20791 -1.402292,0 -2.661708,-1.37795 -2.661708,-2.614435 0,-1.50354 1.37795,-2.77354 2.212268,-3.404307 0.33655,-0.254352 0.402519,-0.733425 0.156634,-1.076325 L 32.685917,76.97629 c -0.236362,-0.329496 -0.726371,-0.329496 -0.962731,0 l -8.12306,11.31711 c -0.245888,0.3429 -0.179917,0.821973 0.156633,1.076325 0.834319,0.630767 2.212621,1.900767 2.212621,3.404307 0,1.236485 -1.259769,2.614435 -2.662061,2.614435 -1.108426,0 -2.211916,-0.716492 -2.963685,-1.20791 -0.349604,-0.2286 -0.816681,-0.141113 -1.061863,0.19685 l -6.54473,9.027233 c -0.07302,0.10124 -0.112538,0.22295 -0.112538,0.34784 V 186.312 c 0,0.12523 0.03845,0.24588 0.112183,0.34713 0.734838,1.00965 4.87539,6.69819 6.475235,8.90164 0.257882,0.35489 0.757415,0.43392 1.103138,0.16404 0.624062,-0.48718 1.658054,-1.00506 2.985204,-1.00506 1.564217,0 3.128788,1.39524 3.128788,3.22721 0,1.2961 -1.2446,2.97709 -2.332921,4.0072 -0.244827,0.23178 -0.316088,0.58949 -0.175329,0.89606 l 7.869766,17.13935 c 0.162277,0.35384 0.665692,0.35384 0.827969,0 l 7.869767,-17.13935 c 0.140758,-0.30657 0.0695,-0.66428 -0.175332,-0.89606 -1.088318,-1.03011 -2.332918,-2.7111 -2.332918,-4.0072 0,-1.83197 1.564568,-3.22721 3.128785,-3.22721 1.327856,0 2.3622,0.51858 2.985913,1.00577 0.34572,0.26987 0.84596,0.18979 1.103841,-0.16475 l 6.472767,-8.90023 c 0.07373,-0.10125 0.113241,-0.22331 0.113241,-0.34819 v -22.48076 c 0,-0.42969 -0.443441,-0.7165 -0.835731,-0.54011 l -15.445316,6.9589 c -0.212725,0.0956 -0.34925,0.30691 -0.34925,0.5401 v 14.52774 c 0,0.48331 -0.391584,0.87489 -0.87489,0.87489 h -4.158544 c -0.482952,0 -0.874889,-0.39158 -0.874889,-0.87489 v -80.73989 c 0,-0.48295 0.391937,-0.87489 0.875241,-0.87489 h 4.158192 c 0.483306,0 0.87489,0.39194 0.87489,0.87489 v 12.41566 c 0,0.2219 0.123825,0.4251 0.320675,0.5267 l 15.445668,7.96889 c 0.394406,0.2032 0.863954,-0.0829 0.863954,-0.52669" style="fill:#100f0d;fill-opacity:1;fill-rule:nonzero;stroke:none;stroke-width:15;stroke-dasharray:none"/>
        <path id="path43" d="m 38.872228,173.05743 v 12.27843 c 0,2.51672 -2.040115,4.55683 -4.556832,4.55683 h -4.446762 c -2.516717,0 -4.557183,-2.04011 -4.557183,-4.55683 v -80.78399 c 0,-2.51672 2.040466,-4.556833 4.557183,-4.556833 h 4.446762 c 2.516717,0 4.556832,2.040113 4.556832,4.556833 v 10.4013 l 8.963376,4.73604 V 104.7974 l -4.315883,-6.021208 c -3.510137,1.227668 -6.5024,-0.476605 -7.841192,-2.499077 C 34.101613,93.8941 34.223676,91.080698 36.089163,88.395 L 32.204728,82.986917 28.319938,88.395 c 1.865842,2.685698 1.98755,5.4991 0.410633,7.882115 -1.338791,2.022472 -4.331052,3.726745 -7.841191,2.499077 l -4.315881,6.021208 v 80.4231 l 4.312002,6.06072 c 1.740604,-0.69603 3.457575,-0.61559 5.111043,0.13935 4.193823,1.91523 5.682192,7.45667 2.272594,11.7161 l 3.93559,8.49101 3.935235,-8.49101 c -3.409596,-4.25943 -1.921227,-9.80087 2.272596,-11.7161 1.653469,-0.75494 3.370437,-0.83538 5.111043,-0.13935 l 4.312002,-6.06072 v -16.34208 l -8.963376,4.17901" style="fill:url(#linearGradient2);fill-opacity:1;fill-rule:nonzero;stroke:none;stroke-width:15;stroke-dasharray:none"/>
        <path id="path44" d="m 34.315396,99.995037 h -4.446762 c -2.516717,0 -4.557183,2.040113 -4.557183,4.556833 v 80.78399 c 0,2.51672 2.040466,4.55683 4.557183,4.55683 h 4.446762 c 2.516717,0 4.556832,-2.04011 4.556832,-4.55683 v -12.27843 l 8.801451,-4.10351 c 0.0755,-0.0353 0.161925,0.0198 0.161925,0.10336 v 15.97378 c 0,0.12312 -0.03845,0.24306 -0.109712,0.3436 l -3.8608,5.42643 c -0.193323,0.27164 -0.539398,0.39582 -0.857604,0.29598 -1.563862,-0.4893 -3.10515,-0.35666 -4.594929,0.3235 -4.071408,1.85949 -5.593292,7.13669 -2.558346,11.34039 0.17004,0.23495 0.20955,0.54011 0.08749,0.80328 l -3.633611,7.84048 c -0.04092,0.0879 -0.166158,0.0879 -0.206729,0 l -3.633962,-7.84083 c -0.122063,-0.26318 -0.08255,-0.56762 0.08713,-0.80257 3.564819,-4.93748 0.843844,-11.35557 -4.911725,-11.97787 -0.762,-0.0825 -1.513065,0.0903 -2.245783,0.31504 -0.316794,0.097 -0.660752,-0.0268 -0.853017,-0.2974 l -3.8608,-5.42643 c -0.07126,-0.10054 -0.109712,-0.22048 -0.109712,-0.3436 V 104.9879 c 0,-0.12382 0.0388,-0.24447 0.11077,-0.34501 l 3.876675,-5.40844 c 0.188032,-0.262467 0.519642,-0.38735 0.830792,-0.301625 3.291769,0.906637 6.06425,-0.73025 7.338835,-2.65571 1.513065,-2.286355 1.462265,-4.968875 -0.192616,-7.55509 -0.127,-0.198615 -0.127352,-0.453318 0.01024,-0.644877 l 3.56376,-4.961466 c 0.04551,-0.06315 0.1397,-0.06315 0.185208,0 l 3.563763,4.961466 c 0.137584,0.191559 0.137229,0.446262 0.01024,0.644877 -1.654879,2.58586 -1.705679,5.268735 -0.192617,7.55509 1.27494,1.925812 4.048125,3.562702 7.3406,2.655356 0.310092,-0.08573 0.640646,0.03916 0.827971,0.300566 l 3.877733,5.409853 c 0.07197,0.10054 0.110771,0.22119 0.110771,0.34501 v 14.51222 c 0,0.0857 -0.09137,0.14076 -0.167217,0.10054 l -8.79616,-4.64749 v -10.4013 c 0,-2.51672 -2.040115,-4.556833 -4.556831,-4.556833 z m 14.395098,20.039193 v -15.32749 c 0,-0.12383 -0.03881,-0.24448 -0.110773,-0.34502 l -4.405842,-6.146799 c -0.19685,-0.274813 -0.550333,-0.395463 -0.87136,-0.289629 -3.883025,1.278466 -6.14186,-0.964494 -6.914091,-2.131132 -1.308807,-1.97767 -1.345494,-4.419951 0.434623,-6.96877 0.18697,-0.267406 0.176035,-0.626888 -0.0141,-0.892175 l -4.14302,-5.774973 c -0.236363,-0.329494 -0.726371,-0.329494 -0.962731,0 l -4.143024,5.774973 c -0.190145,0.265287 -0.201083,0.624769 -0.0141,0.892175 1.780117,2.548819 1.743782,4.9911 0.434623,6.96877 -0.772231,1.166638 -3.031066,3.409598 -6.914091,2.131132 -0.32103,-0.105834 -0.674513,0.01482 -0.871363,0.289629 l -4.405839,6.146799 c -0.07197,0.10054 -0.110773,0.22119 -0.110773,0.34502 v 80.60372 c 0,0.12312 0.0381,0.24306 0.109715,0.3436 l 4.403018,6.18843 c 0.204258,0.28752 0.577496,0.40217 0.90805,0.27905 4.575879,-1.70568 7.556852,2.08809 7.982302,4.34375 0.463198,1.94592 0.06103,4.1903 -1.528585,6.16515 -0.191913,0.23847 -0.243065,0.56021 -0.114655,0.83785 l 4.332817,9.3479 c 0.162983,0.35207 0.663575,0.35207 0.826913,0 l 4.332462,-9.3479 c 0.128413,-0.27764 0.07726,-0.59938 -0.114652,-0.83785 -1.589617,-1.97485 -1.991784,-4.21923 -1.528585,-6.16515 0.42545,-2.25566 3.40642,-6.04943 7.982301,-4.34375 0.330552,0.12312 0.703792,0.008 0.908402,-0.27905 l 4.402667,-6.18843 c 0.07162,-0.10054 0.109715,-0.22048 0.109715,-0.3436 V 168.5447 c 0,-0.4311 -0.445207,-0.71791 -0.837494,-0.5394 l -9.527823,4.33105 c -0.211667,0.096 -0.347485,0.30692 -0.347485,0.5394 v 12.46117 c 0,2.02529 -1.656646,3.68194 -3.681942,3.68194 h -4.447471 c -2.025295,0 -3.681942,-1.65665 -3.681942,-3.68194 v -80.78505 c 0,-2.03235 1.654175,-3.68194 3.681942,-3.68194 h 4.447471 c 2.027767,0 3.681942,1.64959 3.681942,3.68194 v 10.57381 c 0,0.22154 0.123825,0.42474 0.321027,0.52634 l 9.528175,4.9089 c 0.394406,0.2032 0.8636,-0.0832 0.8636,-0.52669" style="fill:#100f0d;fill-opacity:1;fill-rule:nonzero;stroke:none;stroke-width:15;stroke-dasharray:none"/>
        <path id="path45" d="m 28.444469,87.013169 c -0.651933,0.623713 -0.852664,1.172988 -2.533298,1.172988 l -1.775883,2.64e-4 -0.221896,0.49671 c 1.339496,1.04634 2.201686,2.51319 2.547409,3.784249 1.15217,0 2.367491,0.62371 2.927702,1.342318 0.08855,-1.787877 -0.221192,-3.608917 -1.490134,-5.337879 l 0.5461,-1.458737" style="fill:#100f0d;fill-opacity:1;fill-rule:nonzero;stroke:none;stroke-width:15;stroke-dasharray:none"/>
        <path id="path46" d="m 20.083636,97.179873 c 0.130175,0.559504 0.14605,0.994831 -0.240593,1.521177 l 1.626658,-0.660754 c -0.24765,-0.07796 -0.39088,-0.499886 -0.548571,-1.121831 -0.200377,-0.858308 -0.436737,-1.756833 -0.630767,-2.371373 l -0.834319,0.263173 c 0.189794,0.601485 0.428274,1.511652 0.627592,2.369608" style="fill:#100f0d;fill-opacity:1;fill-rule:nonzero;stroke:none;stroke-width:15;stroke-dasharray:none"/>
        <path id="path47" d="m 13.408728,103.63606 0.08643,1.09361 c 0,-0.3496 0.474134,-0.38841 0.638175,-0.32491 0.195792,0.0822 0.391584,0.16404 0.583142,0.25541 0.401108,0.19121 0.980368,0.68545 0.980368,1.0728 l 0.54963,-1.9872 c -0.359481,0.50024 -0.837496,0.38241 -1.215673,0.21837 -0.195792,-0.091 -0.394052,-0.18239 -0.599017,-0.26423 -0.419452,-0.19614 -0.310443,-0.73096 -0.152752,-0.95708 l -0.642408,0.66075 -0.227896,0.23248" style="fill:#100f0d;fill-opacity:1;fill-rule:nonzero;stroke:none;stroke-width:15;stroke-dasharray:none"/>
        <path id="path48" d="m 15.703901,183.57867 c 0,0.68369 -0.662517,2.00837 -2.494492,2.00837 l 0.02822,1.08514 6.539087,8.82262 c 0,0 4.284486,-3.10056 6.46924,0.45085 l 0.408517,0.88794 c 0.408868,-0.0843 2.33962,0.39476 2.945693,1.2827 0,0 0.324202,-5.82083 -5.947481,-6.9342 -0.940152,-0.003 -1.892652,0.14323 -2.861027,0.49354 -0.04233,-0.0423 -4.749445,-6.31402 -4.749445,-6.31402 l -0.338315,-1.78294" style="fill:#100f0d;fill-opacity:1;fill-rule:nonzero;stroke:none;stroke-width:15;stroke-dasharray:none"/>
        <path id="path49" d="m 32.531401,212.39286 v 6.34224 l -0.394407,0.6484 -7.948789,-16.79963 0.310091,-0.47907 c 2.427465,0 2.82928,0.58843 3.446992,0 l -0.149225,1.01459 4.03084,9.01982 0.704498,0.25365" style="fill:#100f0d;fill-opacity:1;fill-rule:nonzero;stroke:none;stroke-width:15;stroke-dasharray:none"/>
        <path id="path50" d="m 39.848011,202.99521 c -0.84314,0.0272 -2.181577,0.20249 -2.478969,0.28222 -0.205316,0.0639 -0.555979,0.44203 -0.629004,0.65193 -0.182385,-0.80221 -0.369004,-1.61783 -0.409927,-2.00977 0.05891,0.11395 0.359833,0.51964 0.993068,0.47378 h 0.0046 c 0.811387,-0.15028 1.640768,-0.2413 2.488141,-0.2734 l 0.0321,0.87524" style="fill:#100f0d;fill-opacity:1;fill-rule:nonzero;stroke:none;stroke-width:15;stroke-dasharray:none"/>
        <path id="path51" d="m 44.091927,191.38318 c 0,0 0.958144,3.22015 0.676275,4.12221 -1.425575,-0.9518 -3.496381,-1.3074 -5.200298,-1.04634 0.0314,-0.84561 -0.422978,-1.67005 -1.606901,-2.26201 2.069748,-0.73343 3.846689,-1.20792 5.612693,-0.51788 l 0.518231,-0.29598" style="fill:#100f0d;fill-opacity:1;fill-rule:nonzero;stroke:none;stroke-width:15;stroke-dasharray:none"/>
        <path id="path52" d="m 50.909359,185.16441 0.1905,0.98637 -0.815623,0.94191 c 0.48895,-0.69709 -1.594557,-1.4986 -1.905707,-1.10878 l 0.332317,-1.60902 c 0,0.81457 2.198513,1.45874 2.198513,0.78952" style="fill:#100f0d;fill-opacity:1;fill-rule:nonzero;stroke:none;stroke-width:15;stroke-dasharray:none"/>
        <path id="path53" d="m 48.414867,168.81563 -0.742598,-0.46284 3.034948,-4.54625 0.74295,0.46284 -3.0353,4.54625" style="fill:#100f0d;fill-opacity:1;fill-rule:nonzero;stroke:none;stroke-width:15;stroke-dasharray:none"/>
        <path id="path54" d="m 38.409029,173.23946 c -1.005768,-0.75565 -1.924401,-1.37689 -2.7305,-1.84608 l 0.439915,-0.75636 c 0.835732,0.48683 1.783292,1.12677 2.816225,1.90288 l -0.52564,0.69956" style="fill:#100f0d;fill-opacity:1;fill-rule:nonzero;stroke:none;stroke-width:15;stroke-dasharray:none"/>
        <path id="path55" d="m 28.479746,106.95923 c 0,0.47554 -0.317145,2.00836 -2.494491,1.26823 l -0.236361,-0.0423 v -3.63326 c 0,-2.26554 1.853494,-4.11939 4.119386,-4.11939 h 4.447471 c 2.265891,0 4.119385,1.85385 4.119385,4.11939 0,0 0,4.66937 0,4.18288 0,-0.48612 -0.590198,-1.1624 -1.351492,-1.1624 -0.760941,0 -1.491898,0.65511 -1.491898,1.1624 0,0.50765 0,-4.15536 0,-4.15536 0,-0.72496 -0.587727,-1.31234 -1.312333,-1.31234 h -4.16066 c -0.720019,0 -1.312334,0.58773 -1.312334,1.31234 v 2.37948 l -0.326673,2.7e-4" style="fill:#100f0d;fill-opacity:1;fill-rule:nonzero;stroke:none;stroke-width:15;stroke-dasharray:none"/>
        <path id="path56" d="m 38.577659,114.65437 -3.015898,1.8743 0.211315,0.60608 15.220949,7.8359 0.57785,-0.56374 -3.008841,-4.36175 -0.331258,0.23248 -9.611784,-4.90467 -0.04233,-0.7186" style="fill:#100f0d;fill-opacity:1;fill-rule:nonzero;stroke:none;stroke-width:15;stroke-dasharray:none"/>
        <path id="path57" d="m 51.007784,103.65687 -0.08643,1.09361 c 0,-0.3496 -0.473781,-0.3884 -0.638175,-0.32455 -0.195791,0.0818 -0.391583,0.16404 -0.583141,0.25506 -0.401109,0.19155 -0.995892,0.49071 -0.995892,0.87806 l -0.492477,-1.73002 c 0.1778,0.28222 0.795867,0.31997 1.174044,0.15592 0.195791,-0.091 0.394052,-0.18203 0.599016,-0.26422 0.419452,-0.1958 0.310444,-0.73096 0.152752,-0.95709 l 0.642409,0.66075 0.227896,0.23248" style="fill:#100f0d;fill-opacity:1;fill-rule:nonzero;stroke:none;stroke-width:15;stroke-dasharray:none"/>
        <path id="path58" d="m 44.328288,97.179873 c -0.130175,0.559504 -0.14605,0.994831 0.240596,1.521177 l -1.627013,-0.660754 c 0.248005,-0.07796 0.391231,-0.499886 0.548923,-1.121831 0.200377,-0.858308 0.43674,-1.756833 0.630767,-2.371373 l 0.834318,0.263173 c -0.189793,0.601485 -0.428625,1.511652 -0.627591,2.369608" style="fill:#100f0d;fill-opacity:1;fill-rule:nonzero;stroke:none;stroke-width:15;stroke-dasharray:none"/>
        <path id="path59" d="m 37.178542,88.171692 c -0.193323,0 -0.361598,-0.274815 -0.395464,-0.324557 l -0.215194,1.427692 c 0.0762,-0.122412 0.250119,-0.229304 0.512585,-0.229304 0.962025,7.94e-4 2.45604,0.01164 3.315759,0.100894 l 0.09066,-0.86995 c -0.871714,-0.09067 -2.326923,-0.104069 -3.30835,-0.104775" style="fill:#100f0d;fill-opacity:1;fill-rule:nonzero;stroke:none;stroke-width:15;stroke-dasharray:none"/>
        <path id="path60" d="m 32.642878,82.563232 h -0.87489 v -5.07365 h 0.87489 v 5.07365" style="fill:#100f0d;fill-opacity:1;fill-rule:nonzero;stroke:none;stroke-width:15;stroke-dasharray:none"/>
        <path id="path61" d="m 46.966361,153.20839 c 0,0.61877 -0.785284,1.64888 -1.86055,1.64888 -1.056923,0 -1.859844,-0.96661 -1.859844,-1.64888 0,-0.56974 0,-7.4355 0,-7.4355 l 3.720394,-2.48073 c 0,0.29034 0,9.30204 0,9.91623 z m -1.637948,-25.64836 c -6.6802,0 -7.547327,4.02097 -7.547327,5.13504 v 1.46544 l 4.590343,2.34667 c 0,0 0,-3.23991 0,-3.80964 0,-0.68263 0.990955,-1.64889 2.29588,-1.64889 1.32715,0 2.295877,1.02976 2.295877,1.64889 0,0.61418 0,3.86397 0,4.15396 0,2.86914 -4.904317,3.87561 -6.849182,5.32729 -1.325033,0.98672 -2.734378,2.85397 -2.734378,5.03167 0,0.30304 0,9.13871 0,9.47067 0,1.28447 1.363485,2.812 4.925835,2.812 0.972256,0 3.10656,0 3.826227,-1.96639 l 0.836438,-0.002 -7.94e-4,1.96815 h 5.68325 c 0,0 0,-27.34275 0,-28.08182 0,-0.73871 -1.205442,-3.85127 -7.322257,-3.85127" style="fill:#eadc38;fill-opacity:1;fill-rule:nonzero;stroke:none;stroke-width:15;stroke-dasharray:none"/>
        <path id="path62" d="m 55.877173,151.42439 v 2.08562 c 0,3.87597 2.332921,5.94043 5.693129,5.94043 1.177925,0 2.784475,-2.7e-4 4.391025,-2.7e-4 2.818694,0 5.482519,-2.07821 5.482519,-4.53143 0,-2.16958 0,-4.23933 0,-6.35917 -2.65e-4,-4.14584 -1.550459,-6.25863 -5.283552,-7.88317 -1.110898,-0.48331 -2.222148,-1.00718 -3.137255,-1.79529 -0.782812,-0.74365 -1.183216,-1.56421 -1.183216,-2.62537 v -3.45934 c 0,-1.06644 0.853723,-1.93145 1.907116,-1.93145 h 0.778582 c 1.053393,0 1.907116,0.86501 1.907116,1.93145 v 3.56906 l 4.574469,-2.34986 c 0,-2.99861 -1.04916,-5.06941 -3.070577,-5.83353 -3.254727,-1.23014 -6.528152,-1.01494 -9.674577,0.44626 -1.313391,0.60996 -2.060929,1.73708 -2.025298,3.27625 l 2.65e-4,7.34589 c -0.0024,2.37561 1.016706,3.8093 3.211338,4.67607 0.600778,0.23742 1.241777,0.37183 1.866545,0.54434 2.834923,0.78352 4.40408,2.77706 4.46123,5.73863 l 2.64e-4,4.07176 c 0,1.06645 -0.854075,1.93146 -1.907468,1.93146 h -0.77823 c -1.053042,0 -1.907117,-0.86501 -1.907117,-1.93146 v -5.69489 l -5.306483,2.8381" style="fill:#eadc38;fill-opacity:1;fill-rule:nonzero;stroke:none;stroke-width:15;stroke-dasharray:none"/>
        <path id="path63" d="m 83.211806,156.21406 h 1.153583 v 3.27942 h -3.267427 c -4.477102,0 -4.826706,-3.24556 -4.826706,-4.73745 0,-0.28717 0,-23.69644 0,-23.69644 h -2.442633 v -3.28542 h 2.442633 v -3.63643 l 5.468408,-3.0032 v 6.63963 h 2.629255 v 3.28542 h -2.629255 v 23.40892 c 0,0.54963 0.04868,1.74555 1.472142,1.74555" style="fill:#eadc38;fill-opacity:1;fill-rule:nonzero;stroke:none;stroke-width:15;stroke-dasharray:none"/>
        <path id="path64" d="m 93.117806,159.49348 h -5.685367 v -35.15713 l 5.685719,-3.20251 -2.65e-4,38.35964" style="fill:#eadc38;fill-opacity:1;fill-rule:nonzero;stroke:none;stroke-width:15;stroke-dasharray:none"/>
        <path id="path65" d="m 107.33299,150.54633 v 3.51437 c 0,1.00683 -0.93134,2.14489 -2.08069,2.14489 h -1.08126 c -1.149,0 -2.08068,-1.13806 -2.08068,-2.14489 v -9.4428 l 10.05205,0.001 v -13.20447 c 0,-0.69145 -0.84173,-3.8548 -7.32861,-3.8548 -5.939368,0 -7.110236,3.11538 -7.110236,3.8548 0,0.41381 0.0013,24.22736 0.0013,24.22736 0,1.22908 1.128538,3.85128 6.854476,3.85128 6.32531,0 7.14975,-3.67207 7.14975,-4.60305 v -1.88771 z m -5.24652,-17.6657 c 0,-1.00683 0.81598,-1.8228 1.82281,-1.8228 h 0.94721 c 1.00647,0 1.8228,0.81597 1.8228,1.8228 v 8.4582 h -4.59282 v -8.4582" style="fill:#eadc38;fill-opacity:1;fill-rule:nonzero;stroke:none;stroke-width:15;stroke-dasharray:none"/>
        <path id="path66" d="m 119.75641,126.87318 -5.0031,2.70615 8.6674,53.23135 9.51336,-62.78668 -5.22887,3.08645 -3.9945,39.53228 -3.95429,-35.76955" style="fill:#eadc38;fill-opacity:1;fill-rule:nonzero;stroke:none;stroke-width:15;stroke-dasharray:none"/>
        <path id="path67" d="m 145.05657,153.20839 c 0,0.61877 -0.78493,1.64888 -1.8602,1.64888 -1.05692,0 -1.86019,-0.96661 -1.86019,-1.64888 2.6e-4,-0.56974 0,-7.4355 0,-7.4355 l 3.72039,-2.48073 c 0,0.29034 0,9.30204 0,9.91623 z m -1.63759,-25.64836 c -6.6802,0 -7.54733,4.1275 -7.54733,4.60305 v 1.99743 l 4.58999,2.34667 c 0,0 2.6e-4,-3.23991 0,-3.80964 0,-0.68263 0.99131,-1.64889 2.29623,-1.64889 1.32715,0 2.29588,1.02976 2.29588,1.64889 0,0.61418 0,3.86397 0,4.15396 0,2.86914 -4.90467,3.87561 -6.84953,5.32729 -1.32469,0.98672 -2.73403,2.85397 -2.73403,5.03167 0,0.30304 0,9.13871 0,9.47067 0,1.28447 1.36348,2.812 4.92583,2.812 0.97226,0 3.10656,0 3.82623,-1.96639 l 0.83608,-0.002 -7.9e-4,1.96815 h 5.6836 c 0,0 0,-27.34275 0,-28.08182 0,-0.73871 -1.20579,-3.85127 -7.32225,-3.85127" style="fill:#eadc38;fill-opacity:1;fill-rule:nonzero;stroke:none;stroke-width:15;stroke-dasharray:none"/>
        <path id="path68" d="m 163.33046,135.64076 c 0,0.40887 2.6e-4,23.85272 2.6e-4,23.85272 h 5.24898 c 0,0 2.7e-4,-27.68741 2.7e-4,-28.08217 0,-1.64888 -1.70885,-3.91795 -3.97792,-3.91795 -2.42323,0 -4.10492,1.93287 -4.98934,3.35421 0,-0.40852 0,-2.96122 0,-2.96122 l -5.47158,3.01555 v 28.59158 h 5.47123 c 0,0 2.6e-4,-22.55767 2.6e-4,-22.95208 0.0145,-1.5501 0.46532,-3.35421 1.90289,-3.35421 1.24036,0 1.81469,0.76094 1.81469,2.45357" style="fill:#eadc38;fill-opacity:1;fill-rule:nonzero;stroke:none;stroke-width:15;stroke-dasharray:none"/>
        <path id="path69" d="m 178.42511,159.49348 h -5.47299 v -31.93345 h 5.47335 l -2.7e-4,31.93345" style="fill:#eadc38;fill-opacity:1;fill-rule:nonzero;stroke:none;stroke-width:15;stroke-dasharray:none"/>
        <path id="path70" d="m 175.64805,124.45277 -2.40983,-2.41018 2.40983,-2.40982 2.41018,2.40982 -2.41018,2.41018" style="fill:#eadc38;fill-opacity:1;fill-rule:nonzero;stroke:none;stroke-width:15;stroke-dasharray:none"/>
        <path id="path71" d="m 191.27011,153.20839 c 0,0.61877 -0.78494,1.64888 -1.8602,1.64888 -1.05728,0 -1.8602,-0.96661 -1.8602,-1.64888 2.6e-4,-0.56974 0,-7.4355 0,-7.4355 l 3.7204,-2.48073 c 0,0.29034 0,9.30204 0,9.91623 z m -1.6376,-25.64836 c -6.68055,0 -7.54733,4.1275 -7.54733,4.60305 v 1.99743 l 4.58999,2.34667 c 0,0 2.7e-4,-3.23991 0,-3.80964 0,-0.68263 0.99131,-1.64889 2.29588,-1.64889 1.32751,0 2.29623,1.02976 2.29623,1.64889 0,0.61418 0,3.86397 0,4.15396 0,2.86914 -4.90467,3.87561 -6.84953,5.32729 -1.32468,0.98672 -2.73403,2.85397 -2.73403,5.03167 0,0.30304 0,9.13871 0,9.47067 0,1.28447 1.36349,2.812 4.92584,2.812 0.97225,0 3.10656,0 3.82623,-1.96639 l 0.83608,-0.002 -8e-4,1.96815 h 5.68361 c 0,0 0,-27.34275 0,-28.08182 0,-0.73871 -1.2058,-3.85127 -7.32226,-3.85127" style="fill:#eae650;fill-opacity:1;fill-rule:nonzero;stroke:none;stroke-width:15;stroke-dasharray:none"/>
        <path id="path72" d="m 46.091119,144.92728 v 8.28111 c -0.01834,0.19367 -0.431448,0.77399 -0.985308,0.77399 -0.585259,0 -0.98425,-0.58137 -0.984957,-0.77434 0,-0.47872 0,-5.4102 0,-6.96701 z m -0.762706,-18.24249 c -6.661854,0 -8.422217,3.93136 -8.422217,6.01028 v 2.0006 l 6.339771,3.24168 2.65e-4,-5.24017 c 0.03422,-0.18697 0.577498,-0.77364 1.42099,-0.77364 0.835728,0 1.361368,0.59867 1.420987,0.79869 v 4.12927 c 0,1.43439 -2.102909,2.40594 -3.958167,3.26319 -0.963083,0.44521 -1.872895,0.86536 -2.539645,1.36313 -1.491192,1.11055 -3.085748,3.20005 -3.085748,5.73264 v 9.47067 c 0,1.83515 1.793523,3.68688 5.800725,3.68688 0.787399,0 2.584098,2.7e-4 3.787068,-1.17898 l -2.65e-4,1.17898 h 7.433382 v -28.9567 c 0,-0.99836 -1.391357,-4.72652 -8.197146,-4.72652 z m -0.222602,28.17248 c 1.075266,0 1.86055,-1.03011 1.86055,-1.64888 0,-0.61419 0,-9.62589 0,-9.91623 l -3.720394,2.48073 c 0,0 0,6.86576 0,7.4355 0,0.68227 0.802921,1.64888 1.859844,1.64888 z m 0.222602,-27.29724 c 6.116814,0 7.322256,3.11256 7.322256,3.85128 0,0.73907 0,28.08182 0,28.08182 h -5.68325 l 7.94e-4,-1.96815 -0.836438,0.002 c -0.719667,1.96638 -2.85397,1.96638 -3.826227,1.96638 -3.56235,0 -4.925835,-1.52753 -4.925835,-2.81199 0,-0.33196 0,-9.16764 0,-9.47067 0,-2.1777 1.409345,-4.04495 2.734379,-5.03167 1.944864,-1.45168 6.849181,-2.45816 6.849181,-5.3273 0,-0.28998 0,-3.53977 0,-4.15396 0,-0.61912 -0.968727,-1.64888 -2.295877,-1.64888 -1.304925,0 -2.295879,0.96626 -2.295879,1.64888 0,0.56974 0,3.80965 0,3.80965 l -4.590344,-2.34668 v -1.46543 c 0,-1.11408 0.867127,-5.13504 7.547327,-5.13504" style="fill:#100f0d;fill-opacity:1;fill-rule:nonzero;stroke:none;stroke-width:15;stroke-dasharray:none"/>
        <path id="path73" d="m 63.653102,126.50558 c -1.92264,0 -3.860448,0.44732 -5.75945,1.32927 -1.675696,0.77823 -2.574573,2.23061 -2.531533,4.0901 v 7.32543 c -0.0028,2.69205 1.22837,4.48804 3.764844,5.48993 0.487539,0.19262 0.980016,0.31962 1.456618,0.44238 0.166513,0.043 0.333023,0.0857 0.498123,0.13159 2.484967,0.68651 3.770135,2.33927 3.819877,4.91208 l -2.65e-4,4.05483 c 0,0.58243 -0.462843,1.05621 -1.032226,1.05621 h -0.77823 c -0.569029,0 -1.032227,-0.47378 -1.032227,-1.05621 v -7.15504 l -7.05626,3.77366 v 2.6102 c 0,4.2037 2.516717,6.81532 6.568017,6.81532 l 4.391025,-2.7e-4 c 3.386666,0 6.357408,-2.52624 6.357408,-5.40632 v -6.35917 c -2.65e-4,-4.37339 -1.683457,-6.88975 -5.809546,-8.68539 -1.008592,-0.43885 -2.062692,-0.9271 -2.898775,-1.64182 -0.627592,-0.60184 -0.895702,-1.1938 -0.895702,-1.97662 v -3.45934 c 0,-0.58243 0.463198,-1.05621 1.032227,-1.05621 h 0.778581 c 0.569032,0 1.032227,0.47378 1.032227,1.05621 v 5.00204 l 6.324248,-3.24873 v -0.53411 c 0,-3.40324 -1.291519,-5.7658 -3.636081,-6.65198 -1.506009,-0.56902 -3.051175,-0.8576 -4.592812,-0.85795 z m 0,0.87524 c 1.423104,0 2.855384,0.26141 4.283427,0.80116 2.021417,0.76412 3.070577,2.83492 3.070577,5.83353 l -4.574469,2.34986 v -3.56905 c 0,-1.06645 -0.853723,-1.93146 -1.907116,-1.93146 h -0.778582 c -1.053393,0 -1.907116,0.86501 -1.907116,1.93146 v 3.45933 c 0,1.06116 0.400404,1.88172 1.183216,2.62538 0.915107,0.7881 2.026357,1.31198 3.137255,1.79528 3.732741,1.62454 5.2832,3.73733 5.283552,7.88317 0,2.11985 0,4.18959 0,6.35918 0,2.45321 -2.663825,4.53143 -5.482519,4.53143 -1.60655,0 -3.2131,2.6e-4 -4.391025,2.6e-4 -3.360208,0 -5.693129,-2.06445 -5.693129,-5.94042 v -2.08562 l 5.306483,-2.8381 v 5.69489 c 0,1.06645 0.854075,1.93146 1.907117,1.93146 h 0.778229 c 1.053394,0 1.907469,-0.86501 1.907469,-1.93146 l -2.65e-4,-4.07176 c -0.05715,-2.96157 -1.626306,-4.95512 -4.461229,-5.73864 -0.624769,-0.17251 -1.265767,-0.30692 -1.866546,-0.54433 -2.194631,-0.86678 -3.213806,-2.30047 -3.211338,-4.67607 l -2.64e-4,-7.34589 c -0.03563,-1.53917 0.711906,-2.6663 2.025298,-3.27625 1.766004,-0.81986 3.571168,-1.24778 5.39115,-1.24742" style="fill:#100f0d;fill-opacity:1;fill-rule:nonzero;stroke:none;stroke-width:15;stroke-dasharray:none"/>
        <path id="path74" d="m 75.396369,123.61986 v 3.27907 h -2.442634 v 5.03555 h 2.442634 v 22.82155 c 0,3.56693 2.078212,5.61269 5.701593,5.61269 h 4.142317 v -5.02955 h -2.028473 c -0.392287,0 -0.597252,-0.0388 -0.597252,-0.87066 v -22.53403 h 2.629252 v -5.03555 h -2.629252 v -7.24288 z m 6.343295,-2.48532 v 6.63963 h 2.629255 v 3.28542 h -2.629255 v 23.40892 c 0,0.54963 0.04868,1.74555 1.472142,1.74555 h 1.153583 v 3.27942 h -3.267427 c -4.477102,0 -4.826706,-3.24556 -4.826706,-4.73745 0,-0.28717 0,-23.69644 0,-23.69644 h -2.442633 v -3.28542 h 2.442633 v -3.63643 l 5.468408,-3.0032" style="fill:#100f0d;fill-opacity:1;fill-rule:nonzero;stroke:none;stroke-width:15;stroke-dasharray:none"/>
        <path id="path75" d="m 86.557197,123.82518 2.65e-4,36.54354 h 7.435143 l 2.65e-4,-40.73207 z m 6.560961,-2.69134 -2.65e-4,38.35964 h -5.685367 v -35.15713 l 5.685719,-3.20251" style="fill:#100f0d;fill-opacity:1;fill-rule:nonzero;stroke:none;stroke-width:15;stroke-dasharray:none"/>
        <path id="path76" d="m 102.96136,132.88063 c 0,-0.52282 0.4251,-0.94791 0.94792,-0.94791 h 0.94721 c 0.52246,0 0.94791,0.42509 0.94791,0.94791 v 7.58331 h -2.84304 z m 1.85244,-6.19584 c -6.629753,0 -7.985126,3.73098 -7.985126,4.73005 l 0.0013,24.22736 c 0,0.48366 0.216958,4.72652 7.729366,4.72652 6.34753,0 8.02463,-3.58352 8.02463,-5.47829 v -2.39994 l -6.12598,-3.43853 v 5.00874 c 0,0.55986 -0.56762,1.27 -1.2058,1.27 h -1.08126 c -0.63818,0 -1.20579,-0.71014 -1.20579,-1.27 v -8.56791 l 10.05205,10e-4 v -14.07936 c 0,-0.0473 -0.0938,-4.73004 -8.2035,-4.73004 z m -2.72733,14.65404 h 4.59282 v -8.4582 c 0,-1.00683 -0.81633,-1.8228 -1.8228,-1.8228 h -0.94721 c -1.00683,0 -1.82281,0.81597 -1.82281,1.8228 z m 2.72733,-13.7788 c 6.48688,0 7.32861,3.16336 7.32861,3.85481 v 13.20447 l -10.05205,-0.001 v 9.4428 c 0,1.00683 0.93168,2.14489 2.08068,2.14489 h 1.08126 c 1.14935,0 2.08069,-1.13806 2.08069,-2.14489 v -3.51437 l 4.37621,2.45639 v 1.88771 c 0,0.93098 -0.82445,4.60305 -7.14975,4.60305 -5.725938,0 -6.854476,-2.6222 -6.854476,-3.85128 0,0 -0.0013,-23.81355 -0.0013,-24.22736 0,-0.73942 1.170869,-3.85481 7.110236,-3.85481" style="fill:#100f0d;fill-opacity:1;fill-rule:nonzero;stroke:none;stroke-width:15;stroke-dasharray:none"/>
        <path id="path77" d="m 126.87934,122.58199 -3.2078,31.7447 -3.18806,-28.84099 -6.6936,3.61985 9.66188,59.3404 10.62319,-70.11141 z m 6.05473,-2.55799 -9.51336,62.78668 -8.6674,-53.23135 5.0031,-2.70615 3.95429,35.76955 3.9945,-39.53228 5.22887,-3.08645" style="fill:#100f0d;fill-opacity:1;fill-rule:nonzero;stroke:none;stroke-width:15;stroke-dasharray:none"/>
        <path id="path78" d="m 142.21107,146.24103 1.97061,-1.31375 v 8.28111 c -0.0187,0.19367 -0.43145,0.77399 -0.98531,0.77399 -0.58525,0 -0.98425,-0.58137 -0.9853,-0.77434 2.6e-4,-0.47872 2.6e-4,-5.4102 0,-6.96701 z m 1.20791,-19.55624 c -6.99276,0 -8.42222,4.32118 -8.42222,5.47829 v 2.53259 l 6.33977,3.24168 2.6e-4,-1.42981 v -3.81036 c 0.0342,-0.18697 0.5775,-0.77364 1.42099,-0.77364 0.83573,0 1.36102,0.59867 1.42099,0.79869 v 4.12927 c 0,1.43439 -2.10291,2.40594 -3.95817,3.26319 -0.96343,0.44521 -1.87289,0.86536 -2.53964,1.36313 -1.49155,1.11055 -3.08575,3.20005 -3.08575,5.73264 v 9.47067 c 0,1.83515 1.79352,3.68688 5.80073,3.68688 0.78704,0 2.58409,2.7e-4 3.78706,-1.17898 l -2.6e-4,1.17898 h 7.43338 v -28.9567 c 0,-0.99836 -1.39135,-4.72652 -8.19714,-4.72652 z m -0.22261,28.17248 c 1.07527,0 1.8602,-1.03011 1.8602,-1.64888 0,-0.61419 0,-9.62589 0,-9.91623 l -3.72039,2.48073 c 0,0 2.6e-4,6.86576 0,7.4355 0,0.68227 0.80327,1.64888 1.86019,1.64888 m 0.22261,-27.29724 c 6.11646,0 7.32225,3.11256 7.32225,3.85128 0,0.73907 0,28.08182 0,28.08182 h -5.6836 l 7.9e-4,-1.96815 -0.83608,0.002 c -0.71967,1.96638 -2.85397,1.96638 -3.82623,1.96638 -3.56235,0 -4.92583,-1.52753 -4.92583,-2.81199 0,-0.33196 0,-9.16764 0,-9.47067 0,-2.1777 1.40934,-4.04495 2.73403,-5.03167 1.94486,-1.45168 6.84953,-2.45816 6.84953,-5.3273 0,-0.28998 0,-3.53977 0,-4.15396 0,-0.61912 -0.96873,-1.64888 -2.29588,-1.64888 -1.30492,0 -2.29623,0.96626 -2.29623,1.64888 2.6e-4,0.56974 0,3.80965 0,3.80965 l -4.58999,-2.34668 v -1.99742 c 0,-0.47555 0.86713,-4.60305 7.54733,-4.60305" style="fill:#100f0d;fill-opacity:1;fill-rule:nonzero;stroke:none;stroke-width:15;stroke-dasharray:none"/>
        <path id="path79" d="m 153.26642,130.38508 v 29.98364 h 7.221 l 2.7e-4,-23.82732 c 0.008,-0.91581 0.2346,-2.47932 1.02799,-2.47932 0.44062,0 0.9398,0 0.9398,1.57868 l 2.7e-4,24.72796 h 6.99875 l 2.7e-4,-28.95741 c 0,-2.17064 -2.16464,-4.79284 -4.85281,-4.79284 -1.72826,0 -3.09916,0.81104 -4.11445,1.76565 v -1.97908 z m 11.3358,-2.89172 c 2.26907,0 3.97792,2.26907 3.97792,3.91795 0,0.39476 -2.6e-4,28.08217 -2.6e-4,28.08217 h -5.24898 c 0,0 -2.7e-4,-23.44385 -2.7e-4,-23.85272 0,-1.69263 -0.57432,-2.45357 -1.81469,-2.45357 -1.43757,0 -1.88842,1.80411 -1.90288,3.35421 0,0.39441 -2.6e-4,22.95208 -2.6e-4,22.95208 h -5.4715 V 130.9019 l 5.47159,-3.01555 c 0,0 0,2.5527 0,2.96122 0.88441,-1.42134 2.5661,-3.35421 4.98933,-3.35421" style="fill:#100f0d;fill-opacity:1;fill-rule:nonzero;stroke:none;stroke-width:15;stroke-dasharray:none"/>
        <path id="path80" d="m 172.07723,126.68479 v 33.68393 H 179.3 l 2.7e-4,-33.68393 z m 6.34824,0.87524 -2.7e-4,31.93345 h -5.47308 v -31.93345 h 5.47335" style="fill:#100f0d;fill-opacity:1;fill-rule:nonzero;stroke:none;stroke-width:15;stroke-dasharray:none"/>
        <path id="path81" d="m 172.00068,122.04259 3.64737,3.64737 3.64737,-3.64737 -3.64737,-3.64702 z m 3.64737,-2.40982 2.41018,2.40982 -2.41018,2.41018 -2.40983,-2.41018 2.40983,-2.40982" style="fill:#100f0d;fill-opacity:1;fill-rule:nonzero;stroke:none;stroke-width:15;stroke-dasharray:none"/>
        <path id="path82" d="m 190.39522,144.92728 v 8.28111 c -0.0187,0.19367 -0.43145,0.77399 -0.98531,0.77399 -0.58526,0 -0.98425,-0.58137 -0.98531,-0.77434 2.6e-4,-0.47872 0,-5.4102 0,-6.96701 z m -0.76271,-18.24249 c -6.99276,0 -8.42222,4.32118 -8.42222,5.47829 v 1.99743 0.53516 l 0.47661,0.24377 4.58999,2.34703 1.27317,0.65088 v -5.24017 c 0.0342,-0.18697 0.57785,-0.77364 1.42135,-0.77364 0.83573,0 1.36101,0.59867 1.42098,0.79869 v 4.12927 c 0,1.43439 -2.1029,2.40594 -3.95852,3.26319 -0.96308,0.44521 -1.87254,0.86536 -2.53929,1.36313 -1.49154,1.11055 -3.08575,3.20005 -3.08575,5.73264 v 9.47067 c 0,1.83515 1.79353,3.68688 5.80073,3.68688 0.78705,0 2.5841,2.7e-4 3.78671,-1.17898 l -2.6e-4,1.17898 h 7.43373 v -28.9567 c 0,-0.99836 -1.39135,-4.72652 -8.19714,-4.72652 z m -0.2226,28.17248 c 1.07526,0 1.8602,-1.03011 1.8602,-1.64888 0,-0.61419 0,-9.62589 0,-9.91623 l -3.7204,2.48073 c 0,0 2.6e-4,6.86576 0,7.4355 0,0.68227 0.80292,1.64888 1.8602,1.64888 z m 0.2226,-27.29724 c 6.11646,0 7.32226,3.11256 7.32226,3.85128 0,0.73907 0,28.08182 0,28.08182 h -5.68361 l 8e-4,-1.96815 -0.83608,0.002 c -0.71967,1.96638 -2.85398,1.96638 -3.82623,1.96638 -3.56235,0 -4.92584,-1.52753 -4.92584,-2.81199 0,-0.33196 0,-9.16764 0,-9.47067 0,-2.1777 1.40935,-4.04495 2.73403,-5.03167 1.94486,-1.45168 6.84953,-2.45816 6.84953,-5.3273 0,-0.28998 0,-3.53977 0,-4.15396 0,-0.61912 -0.96872,-1.64888 -2.29587,-1.64888 -1.30493,0 -2.29624,0.96626 -2.29624,1.64888 2.7e-4,0.56974 0,3.80965 0,3.80965 l -4.58999,-2.34668 v -1.99742 c 0,-0.47555 0.86678,-4.60305 7.54733,-4.60305" style="fill:#100f0d;fill-opacity:1;fill-rule:nonzero;stroke:none;stroke-width:15;stroke-dasharray:none"/>
        <path id="path83" d="m 204.30418,145.29064 v -3.08257 h 0.75671 l 0.77894,2.46204 0.75318,-2.46204 h 0.74118 v 3.08257 h -0.46884 v -2.58727 l -0.79481,2.58727 h -0.46496 l -0.82832,-2.62537 v 2.62537 z m -1.86513,0 v -2.62537 h -0.99836 v -0.4572 h 2.51954 v 0.4572 h -1.00648 v 2.62537 h -0.5147" style="fill:#100f0d;fill-opacity:1;fill-rule:nonzero;stroke:none;stroke-width:15;stroke-dasharray:none"/>
    </g>
</svg>
