<?xml version='1.0' encoding='utf-8'?>
<svg xmlns="http://www.w3.org/2000/svg" width="600" height="114.28571428571429" viewBox="0 0 210 40" version="1.1" id="svg1014">
    <defs id="defs1011">
        <rect x="-170.09642" y="318.5501" width="978.90664" height="383.05889" id="rect3321"/>
        <rect x="-170.09642" y="318.55011" width="978.90662" height="383.0589" id="rect3321-3"/>
    </defs>
    <g id="layer1">
        <g id="g124785" transform="matrix(0.10492426,0,0,0.10492407,153.83001,3.7514469)">
            <path style="baseline-shift:baseline;display:inline;overflow:visible;vector-effect:none;fill:#ffffff;fill-rule:evenodd;stroke:none;stroke-width:12.6083;stroke-linecap:round;stroke-linejoin:round;stroke-dasharray:none;stroke-opacity:1;paint-order:markers stroke fill;enable-background:accumulate;stop-color:#000000" d="m 14.426999,19.967251 a 23.829116,23.829116 0 0 0 -26.008285,30.436381 l 0.856808,2.866492 0.315466,1.054201 a 23.829116,23.829116 0 0 0 0,5.24e-4 l 1.7011319,5.688542 a 23.829116,23.829116 0 0 0 5.719e-4,0.0021 l 0.3154656,1.054716 1.7027521,5.694737 a 23.829116,23.829116 0 0 0 0,5.34e-4 l 0.2763898,0.924954 0.038123,0.12714 1.702752,5.692164 0.3154657,1.055754 2.01736,6.746354 a 23.829116,23.829116 0 0 0 0.00105,0.0026 l 1.70170374,5.689582 0.31546565,1.0542 a 23.829116,23.829116 0 0 0 0,5.24e-4 l 1.70113181,5.687513 a 23.829116,23.829116 0 0 0 5.719e-4,0.0036 l 2.3332068,7.802107 a 23.829116,23.829116 0 0 0 0.00105,0.003 l 1.7011319,5.68854 a 23.829116,23.829116 0 0 0 5.718e-4,0.002 l 0.3154657,1.05316 2.0185036,6.74895 a 23.829116,23.829116 0 0 0 0.00105,0.003 l 1.7000835,5.6844 a 23.829116,23.829116 0 0 0 5.718e-4,0.004 l 2.3332068,7.80211 a 23.829116,23.829116 0 0 0 0.001,0.003 l 1.701704,5.68906 a 23.829116,23.829116 0 0 0 0,0.001 l 0.315466,1.05368 0.884447,2.95641 a 23.829116,23.829116 0 0 0 16.305,16.08894 l 9.614364,2.73627 3.701622,1.05368 h 10e-4 l 2.279454,0.64904 -0.169646,0.0581 a 23.829116,23.829116 0 0 0 -0.0026,5.2e-4 l -3.087656,1.05369 -4.041677,1.37872 a 23.829116,23.829116 0 0 0 -15.630037,17.68367 l -0.899696,4.31292 a 23.829116,23.829116 0 0 0 -0.0015,0.004 l -1.406634,6.74377 -0.221112,1.05627 a 23.829116,23.829116 0 0 0 0,0.002 l -1.187523,5.69061 -0.220159,1.05369 a 23.829116,23.829116 0 0 0 0,0.002 l -1.187523,5.69113 -0.220159,1.05368 a 23.829116,23.829116 0 0 0 0,0.002 l -1.187523,5.69062 a 23.829116,23.829116 0 0 0 -5.72e-4,0.001 l -0.219206,1.05316 -1.188095,5.69372 a 23.829116,23.829116 0 0 0 -4.77e-4,0.002 l -0.219205,1.05369 -1.187047,5.68906 a 23.829116,23.829116 0 0 0 -0.001,0.003 l -1.407682,6.74791 -0.220158,1.05367 a 23.829116,23.829116 0 0 0 0,0.002 l -4.078752,19.54692 a 23.829116,23.829116 0 0 0 38.991459,22.81826 l 22.39911,-19.54921 5.72e-4,-5.3e-4 1.207156,-1.05368 6.524135,-5.69423 1.207633,-1.05368 a 23.829116,23.829116 0 0 0 0.0016,-0.002 l 6.518989,-5.69008 0.001,-5.4e-4 1.207728,-1.0542 6.523087,-5.69319 0.001,-5.3e-4 1.207633,-1.0542 6.521565,-5.69164 5.7e-4,-5.3e-4 1.20715,-1.05368 6.52109,-5.69164 10e-4,-5.3e-4 1.20763,-1.0542 7.73186,-6.74791 a 23.829116,23.829116 0 0 0 0.003,-0.003 l 6.51737,-5.6875 a 23.829116,23.829116 0 0 0 0.003,-0.002 l 0.97356,-0.84957 0.97365,0.84957 a 23.829116,23.829116 0 0 0 0.003,0.002 l 6.51898,5.69009 a 23.829116,23.829116 0 0 0 0.001,0.001 l 1.20821,1.0542 6.52366,5.69371 1.20772,1.0542 a 23.829116,23.829116 0 0 0 0.001,5.2e-4 l 6.52099,5.69165 1.20716,1.05368 a 23.829116,23.829116 0 0 0 5.7e-4,5.3e-4 l 6.52156,5.69164 1.20764,1.0542 a 23.829116,23.829116 0 0 0 0.001,5.3e-4 l 6.52319,5.69319 1.20763,1.0542 a 23.829116,23.829116 0 0 0 0.001,5.3e-4 l 6.51794,5.68854 a 23.829116,23.829116 0 0 0 0.003,0.003 l 7.73187,6.7479 1.20715,1.05369 a 23.829116,23.829116 0 0 0 4.8e-4,5.2e-4 l 22.39921,19.54922 a 23.829116,23.829116 0 0 0 38.99136,-22.81826 l -4.07875,-19.54765 v -0.002 l -0.22016,-1.05368 -1.1881,-5.69475 -0.2192,-1.05316 a 23.829116,23.829116 0 0 0 -4.8e-4,-0.001 l -1.18704,-5.68752 a 23.829116,23.829116 0 0 0 0,-0.003 l -1.62785,-7.80209 a 23.829116,23.829116 0 0 0 -0.001,-0.003 l -1.18696,-5.68906 -0.22015,-1.05369 a 23.829116,23.829116 0 0 0 -4.8e-4,-0.002 l -1.18752,-5.69164 v -0.001 l -0.21921,-1.05213 -1.18857,-5.69526 -0.22016,-1.05471 -1.18752,-5.69009 v -0.001 l -0.22016,-1.0542 -0.90065,-4.31499 a 23.829116,23.829116 0 0 0 -15.63004,-17.68367 l -4.04158,-1.37873 -3.08766,-1.05368 a 23.829116,23.829116 0 0 0 -0.003,-5.3e-4 l -0.16965,-0.0581 2.27945,-0.64904 h 10e-4 l 3.70162,-1.05368 9.61437,-2.73627 a 23.829116,23.829116 0 0 0 16.305,-16.08894 l 0.88444,-2.9564 0.31547,-1.05369 a 23.829116,23.829116 0 0 0 0,-0.001 l 1.7017,-5.68906 a 23.829116,23.829116 0 0 0 0.001,-0.003 l 2.01746,-6.74686 0.31546,-1.05523 a 23.829116,23.829116 0 0 0 0,-5.4e-4 l 1.70228,-5.69061 4.8e-4,-0.001 0.31451,-1.05264 1.70275,-5.69475 0.31547,-1.05472 a 23.829116,23.829116 0 0 0 5.7e-4,-0.002 l 1.70065,-5.68699 a 23.829116,23.829116 0 0 0 0.001,-0.003 l 2.01793,-6.747905 0.31547,-1.0542 1.70218,-5.691125 v -5.25e-4 l 0.31546,-1.0542 1.70171,-5.689581 a 23.829116,23.829116 0 0 0 0.001,-0.0026 l 2.01745,-6.747394 0.31547,-1.054715 a 23.829116,23.829116 0 0 0 4.7e-4,-0.0021 l 1.69961,-5.68493 a 23.829116,23.829116 0 0 0 0.003,-0.0052 l 2.01745,-6.747394 0.31547,-1.054715 a 23.829116,23.829116 0 0 0 5.7e-4,-0.0021 l 1.70113,-5.688542 v -5.24e-4 l 0.31547,-1.054201 0.85776,-2.866491 a 23.829116,23.829116 0 0 0 -35.47682,-26.73523 h 2.64019 a 23.829116,23.829116 0 0 0 -8.78967,4.609533 l -1.24176,1.0542 a 23.829116,23.829116 0 0 0 -5.7e-4,5.25e-4 23.829116,23.829116 0 0 0 -0.85585,0.953947 l 0.0953,-0.304888 -7.17984,6.096266 a 23.829116,23.829116 0 0 0 -0.003,0.0026 l -6.70093,5.689571 a 23.829116,23.829116 0 0 0 -0.004,0.0027 l -7.94468,6.74584 -1.24185,1.0542 a 23.829116,23.829116 0 0 0 -4.8e-4,5.34e-4 l -6.70293,5.691125 a 23.829116,23.829116 0 0 0 -0.002,0.0016 l -1.24175,1.054725 -6.70351,5.691116 -1.24175,1.0542 a 23.829116,23.829116 0 0 0 -5.7e-4,5.34e-4 l -7.94468,6.745325 a 23.829116,23.829116 0 0 0 -0.003,0.0031 l -6.70036,5.689057 a 23.829116,23.829116 0 0 0 -0.004,0.0026 l -7.94478,6.74584 -1.24175,1.0542 a 23.829116,23.829116 0 0 0 -5.7e-4,5.34e-4 l -6.70293,5.691125 a 23.829116,23.829116 0 0 0 -0.002,0.0016 l -1.24175,1.054705 -7.94526,6.745326 a 23.829116,23.829116 0 0 0 -0.003,0.0031 l -6.70035,5.689062 a 23.829116,23.829116 0 0 0 -0.004,0.003 l -7.6274,6.4761 -6.3867,-5.42241 -1.24071,-1.05369 a 23.829116,23.829116 0 0 0 -0.002,-10e-4 l -6.70312,-5.691471 a 23.829116,23.829116 0 0 0 -0.002,-0.0026 l -7.94525,-6.745326 -1.24176,-1.054715 a 23.829116,23.829116 0 0 0 -0.002,-0.0016 l -6.700836,-5.689476 a 23.829116,23.829116 0 0 0 -0.0027,-0.0026 l -7.945255,-6.745325 -1.241753,-1.054716 a 23.829116,23.829116 0 0 0 -0.0021,-0.0016 l -6.70293,-5.691125 -0.001,-0.0011 -1.241276,-1.053686 -6.703979,-5.692154 -1.241276,-1.054201 a 23.829116,23.829116 0 0 0 -0.0016,-0.0011 l -6.70293,-5.691125 -1.2408,-1.053676 a 23.829116,23.829116 0 0 0 -0.0015,-0.0011 l -6.702931,-5.690611 -0.0016,-0.0021 -9.186531,-7.80004 a 23.829116,23.829116 0 0 0 -0.0036,-0.0026 L 39.23736,36.082907 a 23.829116,23.829116 0 0 0 -0.0027,-0.0026 l -7.179846,-6.096275 0.09531,0.304887 a 23.829116,23.829116 0 0 0 -0.855856,-0.953947 l -5.72e-4,-5.33e-4 -1.241752,-1.054201 a 23.829116,23.829116 0 0 0 -8.789579,-4.609457 h 2.64019 A 23.829116,23.829116 0 0 0 14.436339,19.967203 Z M 29.199178,30.416226 H 32.1799 l 0.367884,1.229899 a 23.829116,23.829116 0 0 0 -3.348606,-1.229899 z m 188.785892,0 h 2.98072 a 23.829116,23.829116 0 0 0 -3.3487,1.229899 z" id="path67"/>
            <path id="rect43-5" style="display:inline;fill:#ef5297;fill-opacity:1;fill-rule:evenodd;stroke:none;stroke-width:0.73869" d="m 42.505859,164.69922 4.431641,14.81836 h 13.021484 z m 860.494141,0 -17.45312,14.81836 h 13.02148 z" transform="scale(0.26458333)"/>
            <path id="rect43-5-3" style="display:inline;fill:#df62a5;fill-opacity:1;fill-rule:evenodd;stroke:none;stroke-width:1.08839" d="m 45.746094,175.5332 8.816406,29.48047 c 11.808587,0 23.617195,0 35.425781,0 L 55.265625,175.5332 Z m 844.494136,0 -34.72265,29.48047 c 11.80859,0 23.61719,0 35.42578,0 l 8.81641,-29.48047 z" transform="scale(0.26458333)"/>
            <path id="rect43-5-3-5" style="display:inline;fill:#cb73af;fill-opacity:1;fill-rule:evenodd;stroke:none;stroke-width:1.08839" d="m 53.371094,201.0293 8.818359,29.48828 H 120.02539 L 85.294922,201.0293 Z m 806.839846,0 -34.73047,29.48828 h 57.83594 l 8.81836,-29.48828 z" transform="scale(0.26458333)"/>
            <path id="rect43-5-3-5-6" style="display:inline;fill:#b976b2;fill-opacity:1;fill-rule:evenodd;stroke:none;stroke-width:1.08839" d="m 60.998047,226.53516 8.818359,29.48046 h 80.240234 l -34.7207,-29.48046 c -18.112614,0 -36.225281,0 -54.337893,0 z m 769.171873,0 -34.7207,29.48046 h 80.24023 l 8.81641,-29.48046 c -18.11196,0 -36.22398,0 -54.33594,0 z" transform="scale(0.26458333)"/>
            <path id="rect43-5-3-5-6-2" style="display:inline;fill:#9872b2;fill-opacity:1;fill-rule:evenodd;stroke:none;stroke-width:1.08839" d="m 68.625,252.03125 8.818359,29.48828 H 180.0957 l -34.73242,-29.48828 z m 731.51562,0 -34.73046,29.48828 H 868.0625 l 8.81836,-29.48828 z" transform="scale(0.26458333)"/>
            <path id="rect43-5-3-5-6-2-9" style="display:inline;fill:#816fb2;fill-opacity:1;fill-rule:evenodd;stroke:none;stroke-width:1.08839" d="m 76.251953,277.53516 8.816406,29.48046 H 210.12305 l -34.72071,-29.48046 z m 693.851567,0 -34.72266,29.48046 H 860.4375 l 8.81641,-29.48046 z" transform="scale(0.26458333)"/>
            <path id="rect43-5-3-5-6-2-9-1" style="display:inline;fill:#626fb4;fill-opacity:1;fill-rule:evenodd;stroke:none;stroke-width:1.08839" d="m 83.876953,303.03125 8.816406,29.48047 H 240.15234 l -34.7207,-29.48047 c -40.51819,0 -81.0365,0 -121.554687,0 z m 656.197267,0 -34.72266,29.48047 H 852.8125 l 8.81641,-29.48047 c -40.5182,0 -81.0365,0 -121.55469,0 z" transform="scale(0.26458333)"/>
            <path id="rect43-5-3-5-6-2-9-1-2" style="display:inline;fill:#4d73b8;fill-opacity:1;fill-rule:evenodd;stroke:none;stroke-width:1.08839" d="m 91.501953,328.5293 8.818357,29.48828 H 270.19336 L 235.46289,328.5293 Z m 618.541017,0 -34.73047,29.48828 h 169.87109 l 8.81836,-29.48828 z" transform="scale(0.26458333)"/>
            <path id="rect43-5-3-5-6-2-9-1-2-7" style="display:inline;fill:#4f82c3;fill-opacity:1;fill-rule:evenodd;stroke:none;stroke-width:1.08839" d="m 99.128906,354.0332 8.816404,29.48047 H 300.22266 L 265.5,354.0332 Z m 580.875004,0 -34.72071,29.48047 H 837.55859 L 846.375,354.0332 Z" transform="scale(0.26458333)"/>
            <path id="rect43-5-3-5-6-2-9-1-2-7-0" style="display:inline;fill:#519ad4;fill-opacity:1;fill-rule:evenodd;stroke:none;stroke-width:1.08839" d="m 106.75391,379.5293 8.82031,29.48828 H 330.25977 L 295.5293,379.5293 Z m 543.2207,0 -34.73047,29.48828 h 214.6875 L 838.75,379.5293 Z" transform="scale(0.26458333)"/>
            <path id="rect43-5-3-5-6-2-9-1-2-7-0-9" style="display:inline;fill:#4cade1;fill-opacity:1;fill-rule:evenodd;stroke:none;stroke-width:1.08839" d="m 114.38281,405.0332 8.81641,29.48047 H 360.28906 L 325.56641,405.0332 Z m 505.55469,0 -34.72266,29.48047 h 237.08985 l 8.81836,-29.48047 z" transform="scale(0.26458333)"/>
            <path id="rect43-5-3-5-6-2-9-1-2-7-0-9-3" style="display:inline;fill:#44c0ee;fill-opacity:1;fill-rule:evenodd;stroke:none;stroke-width:1.08839" d="m 122.00781,430.53125 8.81836,29.48828 h 259.50391 l -34.73242,-29.48828 z m 467.89844,0 -34.73047,29.48828 h 259.50195 l 8.81836,-29.48828 z" transform="scale(0.26458333)"/>
            <path id="rect43-5-3-5-6-2-9-1-2-7-0-9-3-6" style="display:inline;fill:#53c8ea;fill-opacity:1;fill-rule:evenodd;stroke:none;stroke-width:1.08839" d="m 129.63477,456.03516 8.8164,29.48046 h 281.90625 l -34.7207,-29.48046 z m 430.23242,0 -34.72071,29.48046 h 281.90625 l 8.81641,-29.48046 z" transform="scale(0.26458333)"/>
            <path id="rect43-5-3-5-6-2-9-1-2-7-0-9-3-6-0" style="display:inline;fill:#5cc9de;fill-opacity:1;fill-rule:evenodd;stroke:none;stroke-width:1.08839" d="m 137.25977,481.53125 4.5332,15.15625 50.32812,14.32422 h 241.61133 v -14.14063 l -18.0664,-15.33984 z m 392.57812,0 -18.06641,15.33984 v 14.14063 h 241.61133 l 50.32813,-14.32422 4.5332,-15.15625 z" transform="scale(0.26458333)"/>
            <path id="rect43-5-3-5-6-2-9-1-2-7-0-9-3-6-0-6" style="display:inline;fill:#61c6c4;fill-opacity:1;fill-rule:evenodd;stroke:none;stroke-width:1.08839" d="m 178.12891,507.0293 103.60351,29.48632 h 152 V 507.0293 Z m 333.64257,0 v 29.48632 h 152 L 767.375,507.0293 Z" transform="scale(0.26458333)"/>
            <path id="rect43-5-3-5-6-2-9-1-2-7-0-9-3-6-0-6-2" style="display:inline;fill:#6bc5a6;fill-opacity:1;fill-rule:evenodd;stroke:none;stroke-width:1.08839" d="m 267.73828,532.5332 87.88086,25.01172 v 4.46875 h 78.11328 V 532.5332 Z m 244.0332,0 v 29.48047 h 78.11329 v -4.46875 l 87.88085,-25.01172 z" transform="scale(0.26458333)"/>
            <path id="rect43-5-3-5-6-2-9-1-2-7-0-9-3-6-0-6-2-6" style="display:inline;fill:#74c58e;fill-opacity:1;fill-rule:evenodd;stroke:none;stroke-width:1.08839" d="m 355.61914,558.0293 v 29.48828 h 78.11328 V 558.0293 Z m 156.15234,0 v 29.48828 h 78.11329 V 558.0293 Z" transform="scale(0.26458333)"/>
            <path id="rect43-5-3-5-6-2-9-1-2-7-0-9-3-6-0-6-2-6-1" style="display:inline;fill:#82c566;fill-opacity:1;fill-rule:evenodd;stroke:none;stroke-width:1.08839" d="m 355.61914,583.5332 v 29.48047 h 78.11328 V 583.5332 Z m 156.15234,0 v 29.48047 h 78.11329 V 583.5332 Z" transform="scale(0.26458333)"/>
            <path id="rect43-5-3-5-6-2-9-1-2-7-0-9-3-6-0-6-2-6-1-8" style="display:inline;fill:#90c745;fill-opacity:1;fill-rule:evenodd;stroke:none;stroke-width:1.08839" d="m 355.61914,609.03125 v 24.94531 l -13.31641,4.54297 h 91.42969 v -29.48828 z m 156.15234,0 v 29.48828 h 91.42969 l -13.3164,-4.54297 v -24.94531 z" transform="scale(0.26458333)"/>
            <path id="rect43-5-3-5-6-2-9-1-2-7-0-9-3-6-0-6-2-6-1-8-7" style="display:inline;fill:#a2c63d;fill-opacity:1;fill-rule:evenodd;stroke:none;stroke-width:1.08839" d="m 353.98242,634.53516 -86.4082,29.48046 h 166.1582 v -29.48046 z m 157.78906,0 v 29.48046 h 166.15821 l -86.40821,-29.48046 z" transform="scale(0.26458333)"/>
            <path id="rect43-5-3-5-6-2-9-1-2-7-0-9-3-6-0-6-2-6-1-8-7-9" style="display:inline;fill:#bac43a;fill-opacity:1;fill-rule:evenodd;stroke:none;stroke-width:1.08839" d="m 279.25195,660.03125 -86.40625,29.48047 h 240.88672 v -29.48047 z m 232.51953,0 v 29.48047 h 240.88868 l -86.40821,-29.48047 z" transform="scale(0.26458333)"/>
            <path id="rect43-5-3-5-6-2-9-1-2-7-0-9-3-6-0-6-2-6-1-8-7-9-2" style="display:inline;fill:#cbc33d;fill-opacity:1;fill-rule:evenodd;stroke:none;stroke-width:1.08839" d="m 204.51758,685.5293 -26.94531,9.19336 -4.23438,20.29296 h 236.51758 l 23.87695,-20.83984 v -8.64648 z m 307.2539,0 v 8.64648 l 23.87696,20.83984 h 236.51953 l -4.23438,-20.29296 -26.94531,-9.19336 z" transform="scale(0.26458333)"/>
            <path id="rect43-5-3-5-6-2-9-1-2-7-0-9-3-6-0-6-2-6-1-8-7-9-2-0" style="display:inline;fill:#dec03e;fill-opacity:1;fill-rule:evenodd;stroke:none;stroke-width:1.08839" d="m 174.16797,711.0332 -6.15039,29.48047 h 212.62109 l 33.7793,-29.48047 z m 356.91797,0 33.77929,29.48047 h 212.62305 l -6.15234,-29.48047 z" transform="scale(0.26458333)"/>
            <path id="rect43-5-3-5-6-2-9-1-2-7-0-9-3-6-0-6-2-6-1-8-7-9-2-0-2" style="display:inline;fill:#f1bc3e;fill-opacity:1;fill-rule:evenodd;stroke:none;stroke-width:1.08839" d="m 168.84961,736.5293 -6.1543,29.48828 h 188.72266 l 33.78711,-29.48828 z m 391.44922,0 33.78711,29.48828 h 188.72461 l -6.1543,-29.48828 z" transform="scale(0.26458333)"/>
            <path id="rect43-5-3-5-6-2-9-1-2-7-0-9-3-6-0-6-2-6-1-8-7-9-2-0-2-3" style="display:inline;fill:#fbb441;fill-opacity:1;fill-rule:evenodd;stroke:none;stroke-width:1.08839" d="m 163.52734,762.0332 -6.15234,29.48047 h 164.83008 l 33.77734,-29.48047 z m 425.99414,0 33.77735,29.48047 h 164.83008 l -6.15039,-29.48047 z" transform="scale(0.26458333)"/>
            <path id="rect43-5-3-5-6-2-9-1-2-7-0-9-3-6-0-6-2-6-1-8-7-9-2-0-2-3-7" style="display:inline;fill:#f89841;fill-opacity:1;fill-rule:evenodd;stroke:none;stroke-width:1.08839" d="m 158.20703,787.53125 -6.15234,29.48047 h 140.93554 l 33.77735,-29.48047 z m 460.5293,0 33.77734,29.48047 h 140.93555 l -6.15039,-29.48047 z" transform="scale(0.26458333)"/>
            <path id="rect43-5-3-5-6-2-9-1-2-7-0-9-3-6-0-6-2-6-1-8-7-9-2-0-2-3-7-5" style="display:inline;fill:#f47c3e;fill-opacity:1;fill-rule:evenodd;stroke:none;stroke-width:1.08839" d="m 152.88672,813.02734 -6.15234,29.48828 h 117.0332 l 33.78711,-29.48828 z m 495.0625,0 33.78711,29.48828 h 117.03515 l -6.15234,-29.48828 z" transform="scale(0.26458333)"/>
            <path id="rect43-5-3-5-6-2-9-1-2-7-0-9-3-6-0-6-2-6-1-8-7-9-2-0-2-3-7-5-9" style="display:inline;fill:#f2653c;fill-opacity:1;fill-rule:evenodd;stroke:none;stroke-width:1.08839" d="m 147.56445,838.53125 -6.15039,29.48047 h 93.14063 l 33.77929,-29.48047 z m 529.60547,0 33.7793,29.48047 h 93.14258 l -6.15235,-29.48047 z" transform="scale(0.26458333)"/>
            <path id="rect43-5-3-5-6-2-9-1-2-7-0-9-3-6-0-6-2-6-1-8-7-9-2-0-2-3-7-5-9-2" style="display:inline;fill:#f0493a;fill-opacity:1;fill-rule:evenodd;stroke:none;stroke-width:1.08839" d="m 142.24414,864.0293 -6.15234,29.48632 h 69.24218 l 33.78516,-29.48632 z m 564.14063,0 33.78515,29.48632 h 69.24219 l -6.15234,-29.48632 z" transform="scale(0.26458333)"/>
            <path id="rect43-5-3-5-6-2-9-1-2-7-0-9-3-6-0-6-2-6-1-8-7-9-2-0-2-3-7-5-9-2-2" style="display:inline;fill:#ef3f39;fill-opacity:1;fill-rule:evenodd;stroke:none;stroke-width:1.86408" d="m 136.92188,889.5332 -16.24805,77.8711 89.22265,-77.8711 z m 598.68554,0 89.22266,77.8711 -16.24805,-77.8711 z" transform="scale(0.26458333)"/>
        </g>
        <g id="path6442" style="opacity:1">
            <path style="font-weight:600;font-size:40.3016px;line-height:1.25;font-family:Conthrax;baseline-shift:baseline;white-space:pre;display:inline;overflow:visible;vector-effect:none;fill:#ffffff;stroke-linecap:round;stroke-linejoin:round;paint-order:markers stroke fill;enable-background:accumulate;stop-color:#000000;stop-opacity:1" d="m 15.392578,13.115234 c -1.857845,0 -3.561261,0.313061 -4.830078,1.503907 -1.2688166,1.190845 -1.6621094,2.919626 -1.6621094,4.730468 v 2.759766 c 0,1.810843 0.3932921,3.539624 1.6621094,4.730469 1.268817,1.190845 2.972234,1.503906 4.830078,1.503906 h 7.234375 c 0.431425,0 1.135829,-0.126073 1.681641,-0.671875 0.210541,-0.210538 0.157253,-0.415604 0.259765,-0.648438 1.231344,0.977652 2.777295,1.320313 4.492188,1.320313 h 4.957031 c 1.864694,0 3.569583,-0.312158 4.837891,-1.505859 0.11293,0.313885 0.09161,0.619407 0.371093,0.880859 0.54847,0.513082 1.209202,0.625 1.640625,0.625 h 1.636719 c 0.431423,0 1.133875,-0.126065 1.679688,-0.671875 0.545812,-0.54581 0.671875,-1.250216 0.671875,-1.681641 v -0.251953 c 0.301488,0.641996 0.630984,1.285958 1.300781,1.81836 0.71884,0.571384 1.678504,0.787109 2.474609,0.787109 h 0.769532 c 0.796105,0 1.757722,-0.215725 2.476562,-0.787109 0.668505,-0.531375 0.997699,-1.173719 1.298828,-1.814454 v 0.248047 c 0,0.431425 0.126063,1.135831 0.671875,1.681641 0.545813,0.54581 1.250218,0.671875 1.681641,0.671875 h 1.636719 c 0.375359,0 0.930092,-0.182893 1.427734,-0.542969 0.497231,0.359133 1.052764,0.542969 1.427734,0.542969 h 1.634766 c 0.431424,0 1.135829,-0.126067 1.681641,-0.671875 0.545811,-0.545808 0.671875,-1.250213 0.671875,-1.681641 v -0.25 c 0.30135,0.641508 0.629531,1.284402 1.298828,1.816407 0.718839,0.571384 1.680456,0.787109 2.476562,0.787109 h 0.769531 c 0.796107,0 1.757723,-0.215725 2.476563,-0.787109 0.669298,-0.532005 0.997478,-1.174899 1.298828,-1.816407 v 0.25 c 0,0.431428 0.126063,1.135833 0.671875,1.681641 0.545812,0.545808 1.250217,0.671875 1.681641,0.671875 h 1.634765 c 0.215488,0 0.532872,-0.220445 0.820313,-0.3125 0.408366,0.213708 0.826333,0.3125 1.105469,0.3125 h 2.085937 c 0.262899,0 0.705428,-0.02485 1.191406,-0.292969 0.485978,-0.26812 0.819361,-0.726599 0.966797,-1.021484 l 0.515625,-0.962891 h 5.158203 l 0.570313,1.033203 -0.03711,-0.07031 c 0.123583,0.247163 0.423286,0.714255 0.933594,1.005859 0.510308,0.291604 0.966496,0.308594 1.22461,0.308594 h 2.037109 c 0.280567,0 0.697131,-0.100005 1.099609,-0.314453 0.289339,0.09338 0.60744,0.314453 0.824219,0.314453 H 96.5 c 0.431423,0 1.133875,-0.126065 1.679687,-0.671875 0.545813,-0.54581 0.673829,-1.250216 0.673829,-1.681641 v -3.140625 l 2.867184,3.751953 c 5e-4,6.64e-4 0.001,0.0013 0.002,0.002 0.371,0.491518 0.78406,1.016875 1.50976,1.376953 0.72668,0.360563 1.39047,0.363281 1.94531,0.363281 h 1.38086 c 0.65425,0 1.52361,-0.204163 2.24805,-0.794922 0.0254,0.02818 0.008,0.06054 0.0352,0.08789 0.55162,0.551612 1.28164,0.707031 1.77539,0.707031 h 7.50586 c 2.00781,0 3.80907,-0.397646 5.125,-1.626953 0.29978,-0.280054 0.41656,-0.672605 0.63281,-1.00586 0.22207,0.382067 0.35564,0.813773 0.69141,1.128907 1.26881,1.190844 2.97028,1.503906 4.82812,1.503906 h 7.05859 c 0.33917,0 0.83426,-0.213121 1.29102,-0.492188 0.4573,0.27999 0.95335,0.492188 1.29297,0.492188 h 1.73242 c 0.43142,0 1.13387,-0.126061 1.67969,-0.671875 0.54581,-0.545814 0.67187,-1.250222 0.67187,-1.681641 v -1.191406 h 2.18946 l 1.93554,2.546875 -0.0723,-0.101562 c 0.1144,0.17152 0.42378,0.579558 0.90625,0.828125 0.48247,0.248566 0.91382,0.271484 1.20703,0.271484 h 2.07031 c 0.81105,0 1.89424,-0.75228 2.15039,-1.539063 0.25588,-0.785917 0.21125,-1.422184 -0.42187,-2.162109 l -1.26368,-1.566406 c 0.14058,-0.142892 0.32908,-0.232973 0.44727,-0.396485 0.72071,-0.997046 0.94336,-2.17401 0.94336,-3.345703 v -0.916015 c 0,-1.388992 -0.34505,-2.831382 -1.39063,-3.876953 -1.04557,-1.045571 -2.52202,-1.425782 -4.05859,-1.425782 h -8.61523 c -0.36664,0 -0.86102,0.253728 -1.31836,0.523438 -0.48278,-0.32775 -1.01534,-0.523438 -1.37696,-0.523438 h -7.05859 c -1.85784,0 -3.55931,0.313062 -4.82812,1.503907 -0.33577,0.315134 -0.46934,0.74684 -0.69141,1.128906 -0.21625,-0.333254 -0.33303,-0.725806 -0.63281,-1.005859 -1.31593,-1.229308 -3.11719,-1.626954 -5.125,-1.626954 h -7.50586 c -0.41398,0 -0.98659,0.231597 -1.48828,0.591797 -0.50838,-0.395902 -1.10064,-0.591797 -1.48047,-0.591797 h -1.6836 c -0.43142,0 -1.13583,0.126077 -1.68164,0.671875 -0.5458,0.545799 -0.67187,1.248244 -0.67187,1.679688 v 3.128906 l -2.8457,-3.730469 c -0.34517,-0.463253 -0.73636,-0.987889 -1.460943,-1.361328 -0.724581,-0.373438 -1.407237,-0.388672 -2.003906,-0.388672 h -1.410156 c -0.740641,0 -1.786924,0.165391 -2.548828,0.978516 -0.761904,0.813125 -0.894531,1.801078 -0.894531,2.689453 v 3.892578 l -2.921875,-5.30664 c -0.355955,-0.647189 -0.812686,-1.266117 -1.5,-1.699219 -0.687315,-0.433103 -1.47944,-0.554688 -2.097657,-0.554688 h -0.945312 c -0.590847,0 -1.384157,0.160045 -2.023438,0.595704 -0.63928,0.435658 -1.062218,1.018489 -1.414062,1.658203 a 2.0002,2.0002 0 0 0 -0.0039,0.0059 L 78.6875,20.603516 v -3.820313 c 0,-0.767482 -0.0082,-1.652833 -0.724609,-2.544922 -0.716373,-0.892088 -1.857417,-1.123047 -2.685547,-1.123047 h -1.716797 c -0.620125,0 -1.450995,0.06858 -2.197266,0.595704 -0.74396,0.525495 -1.070962,1.205814 -1.33789,1.828125 v 0.002 l -0.0039,0.0039 -1.818359,4.199219 -1.820313,-4.199219 -0.0039,-0.0059 c -0.266949,-0.622346 -0.596756,-1.30718 -1.345703,-1.832032 -0.751264,-0.526476 -1.57938,-0.591797 -2.205078,-0.591797 h -1.748047 c -0.765902,0 -1.763778,0.248843 -2.486328,0.97461 -0.717053,-0.721035 -1.711017,-0.97461 -2.470703,-0.97461 H 54.40625 c -0.620125,0 -1.450995,0.06858 -2.197266,0.595704 -0.74396,0.525495 -1.070961,1.205814 -1.33789,1.828125 l -1.822266,4.205078 -1.820312,-4.199219 c -0.267377,-0.623877 -0.598346,-1.311415 -1.34961,-1.837891 -0.751264,-0.526476 -1.57938,-0.591797 -2.205078,-0.591797 h -1.748047 c -0.832395,0 -1.97175,0.224567 -2.695312,1.117188 -0.153328,0.189152 -0.173628,0.372723 -0.269532,0.560547 -0.04833,-0.04987 -0.0543,-0.123717 -0.105468,-0.171875 -1.268308,-1.193702 -2.973196,-1.50586 -4.837891,-1.50586 h -4.957031 c -1.714947,0 -3.260828,0.342585 -4.492188,1.320313 -0.102522,-0.233064 -0.04901,-0.437687 -0.259765,-0.648438 -0.545811,-0.545806 -1.250216,-0.671875 -1.681641,-0.671875 z m 103.228512,6.191407 c -0.18039,-0.178558 -0.043,-0.187061 -0.043,0.539062 v 1.765625 c 0,0.726126 -0.13744,0.717622 0.043,0.539063 0.1804,-0.178559 0.17123,-0.03711 -0.56054,-0.03711 h -3.47071 V 19.34375 h 3.47071 c 0.73177,0 0.74094,0.141449 0.56054,-0.03711 z m -89.46484,0.03711 h 4.763672 c 0.08217,0 0.06299,0.0047 0.121094,0.0078 0.0055,0.07254 0.01367,0.06181 0.01367,0.173829 v 2.40625 c 0,0.111589 -0.0083,0.101424 -0.01367,0.173828 -0.05811,0.0031 -0.0389,0.0078 -0.121094,0.0078 H 29.15625 c -0.08254,0 -0.06283,-0.0047 -0.121094,-0.0078 -0.0054,-0.07239 -0.01172,-0.0623 -0.01172,-0.173828 v -2.40625 c 0,-0.111959 0.0063,-0.101307 0.01172,-0.173829 0.05825,-0.0031 0.03858,-0.0078 0.121094,-0.0078 z m -13.667969,0.06445 h 7.080078 v 2.658203 h -7.080078 c -0.134988,0 -0.125286,-0.0056 -0.197265,-0.01172 0.0038,-0.01731 0.06445,0.173651 0.06445,-0.1875 v -2.277343 c 0,-0.111894 0.0063,-0.10089 0.01172,-0.173828 0.0584,-0.0031 0.03911,-0.0078 0.121093,-0.0078 z" id="path1"/>
            <path style="font-weight:600;font-size:40.3016px;line-height:1.25;font-family:Conthrax;baseline-shift:baseline;white-space:pre;display:inline;overflow:visible;vector-effect:none;fill:#222835;stroke-linecap:round;stroke-linejoin:round;paint-order:markers stroke fill;enable-background:accumulate;stop-color:#000000;stop-opacity:1" d="m 139.15466,15.114328 c -0.32084,0 -0.48125,0.16042 -0.48125,0.481254 v 10.395071 c 0,0.240625 0.12833,0.352917 0.36896,0.352917 h 1.73251 c 0.24063,0 0.35292,-0.112292 0.35292,-0.352917 v -3.192314 h 5.18149 l 2.5346,3.336688 c 0.0963,0.144378 0.17646,0.208543 0.44917,0.208543 h 2.06939 c 0.28875,0 0.30479,-0.288753 0.20854,-0.401044 l -2.74314,-3.400857 c 1.68439,-0.304793 2.39023,-1.379589 2.39023,-3.208355 v -0.91438 c 0,-2.165637 -0.99459,-3.304606 -3.44899,-3.304606 z m 1.97314,2.390225 c 0,-0.128333 0.0642,-0.192501 0.20854,-0.192501 h 5.93546 c 1.09084,0 1.49188,0.465212 1.49188,1.427716 v 0.673756 c 0,0.962508 -0.40104,1.427717 -1.49188,1.427717 h -6.144 z m -11.72652,-2.390225 c -3.24044,0 -4.4917,1.15501 -4.4917,4.235028 v 2.759187 c 0,3.080021 1.25126,4.235027 4.4917,4.235027 h 7.05838 c 0.24063,0 0.36896,-0.112292 0.36896,-0.352917 v -1.523968 c 0,-0.240629 -0.12833,-0.352921 -0.36896,-0.352921 h -7.01025 c -1.66835,0 -2.13356,-0.497295 -2.13356,-2.181682 v -0.272707 h 9.0636 c 0.24063,0 0.35292,-0.112296 0.35292,-0.352921 v -1.267302 c 0,-0.240625 -0.11229,-0.352917 -0.35292,-0.352917 h -9.0636 v -0.160419 c 0,-1.684387 0.46521,-2.181682 2.13356,-2.181682 h 7.01025 c 0.24063,0 0.36896,-0.112292 0.36896,-0.352917 v -1.523968 c 0,-0.240629 -0.12833,-0.352921 -0.36896,-0.352921 z m -18.78489,0 c -0.32084,0 -0.48126,0.16042 -0.48126,0.481254 v 10.266734 c 0,0.320839 0.16042,0.481254 0.48126,0.481254 h 7.50755 c 3.48106,0 4.90878,-1.395635 4.90878,-4.52378 v -2.181682 c 0,-3.128145 -1.42772,-4.52378 -4.90878,-4.52378 z m 1.97314,2.454394 c 0,-0.16042 0.0642,-0.224588 0.20854,-0.224588 h 5.2617 c 1.89293,0 2.51856,0.609591 2.51856,2.502517 v 1.764596 c 0,1.89293 -0.62563,2.502517 -2.51856,2.502517 h -5.2617 c -0.14438,0 -0.20854,-0.06417 -0.20854,-0.208542 z M 95.890058,15.114328 c -0.978549,0 -1.44376,0.368962 -1.44376,1.668346 v 9.207979 c 0,0.240625 0.128334,0.352917 0.368961,0.352917 h 1.684386 c 0.240627,0 0.352919,-0.112292 0.352919,-0.352917 v -8.373808 c 0,-0.112292 0.03208,-0.160415 0.128335,-0.160415 h 0.144375 c 0.09625,0 0.144377,0.03208 0.208543,0.112292 l 5.983583,7.828385 c 0.64167,0.850212 0.8823,0.946463 1.86085,0.946463 h 1.37959 c 0.97855,0 1.44376,-0.368958 1.44376,-1.668342 v -9.207979 c 0,-0.240629 -0.11229,-0.352921 -0.35292,-0.352921 h -1.68439 c -0.24062,0 -0.35292,0.112292 -0.35292,0.352921 v 8.373804 c 0,0.112292 -0.0481,0.160419 -0.12833,0.160419 h -0.14438 c -0.0962,0 -0.16041,-0.03208 -0.20854,-0.112292 l -5.96754,-7.828385 c -0.609588,-0.818134 -0.834173,-0.946467 -1.860846,-0.946467 z m -10.908385,0 c -0.673754,0 -1.155007,0.25667 -1.684386,1.219174 l -5.261702,9.64111 c -0.112293,0.208543 -0.06417,0.368958 0.208543,0.368958 h 2.085431 c 0.192501,0 0.288752,-0.04812 0.36896,-0.208543 l 1.106883,-2.069386 h 7.539634 l 1.138966,2.069386 c 0.08021,0.160419 0.160417,0.208543 0.368961,0.208543 h 2.037305 c 0.256668,0 0.304794,-0.160415 0.192501,-0.368958 l -5.309827,-9.64111 c -0.529379,-0.962504 -1.026674,-1.219174 -1.844804,-1.219174 z m 0.352919,2.390225 c 0.04812,-0.08021 0.09625,-0.112292 0.17646,-0.112292 h 0.09625 c 0.08021,0 0.128334,0.03208 0.17646,0.112292 l 2.550642,4.70024 h -5.51837 z M 61.079458,15.114328 c -1.138966,0 -1.427718,0.449172 -1.427718,1.668346 v 9.207979 c 0,0.240625 0.128334,0.352917 0.36896,0.352917 h 1.636262 c 0.240626,0 0.352919,-0.112292 0.352919,-0.352917 v -8.373808 c 0,-0.112292 0.03208,-0.160415 0.128334,-0.160415 h 0.144376 c 0.112292,0 0.176459,0.03208 0.208543,0.128333 l 3.240438,7.186716 c 0.529379,1.155005 0.978548,1.572091 2.053347,1.572091 h 0.770005 c 1.0748,0 1.523969,-0.417086 2.053348,-1.572091 l 3.240438,-7.186716 c 0.03208,-0.09625 0.09625,-0.128333 0.208543,-0.128333 h 0.144376 c 0.09625,0 0.128334,0.04812 0.128334,0.160415 v 8.373808 c 0,0.240625 0.112293,0.352917 0.352919,0.352917 h 1.636261 c 0.240627,0 0.368961,-0.112292 0.368961,-0.352917 v -9.207979 c 0,-1.219174 -0.288752,-1.668346 -1.411676,-1.668346 h -1.71647 c -0.946465,0 -1.2673,0.208543 -1.700428,1.219174 l -3.336689,7.700053 c -0.04812,0.112292 -0.112292,0.144378 -0.224585,0.144378 h -0.192501 c -0.112293,0 -0.17646,-0.03208 -0.224585,-0.144378 l -3.336689,-7.700053 c -0.433128,-1.010631 -0.753963,-1.219174 -1.71647,-1.219174 z m -19.153851,0 c -1.138966,0 -1.427717,0.449172 -1.427717,1.668346 v 9.207979 c 0,0.240625 0.128334,0.352917 0.36896,0.352917 h 1.636261 c 0.240627,0 0.352919,-0.112292 0.352919,-0.352917 v -8.373808 c 0,-0.112292 0.03208,-0.160415 0.128335,-0.160415 h 0.144375 c 0.112293,0 0.17646,0.03208 0.208544,0.128333 l 3.240438,7.186716 c 0.529378,1.155005 0.978548,1.572091 2.053347,1.572091 h 0.770005 c 1.074799,0 1.523969,-0.417086 2.053347,-1.572091 l 3.240439,-7.186716 c 0.03208,-0.09625 0.09625,-0.128333 0.208543,-0.128333 h 0.144376 c 0.09625,0 0.128334,0.04812 0.128334,0.160415 v 8.373808 c 0,0.240625 0.112292,0.352917 0.352919,0.352917 h 1.636261 c 0.240627,0 0.368961,-0.112292 0.368961,-0.352917 v -9.207979 c 0,-1.219174 -0.288752,-1.668346 -1.411676,-1.668346 h -1.71647 c -0.946465,0 -1.2673,0.208543 -1.700428,1.219174 l -3.336689,7.700053 c -0.04813,0.112292 -0.112293,0.144378 -0.224585,0.144378 h -0.192501 c -0.112293,0 -0.17646,-0.03208 -0.224585,-0.144378 l -3.336689,-7.700053 c -0.433128,-1.010631 -0.753964,-1.219174 -1.71647,-1.219174 z m -12.865481,0 c -3.240441,0 -4.491698,1.15501 -4.491698,4.235028 v 2.759187 c 0,3.080021 1.251257,4.235027 4.491698,4.235027 h 4.956906 c 3.256482,0 4.491697,-1.155006 4.491697,-4.235027 v -2.759187 c 0,-3.080018 -1.235215,-4.235028 -4.491697,-4.235028 z m -2.037308,4.411488 c 0,-1.684387 0.481254,-2.181682 2.133554,-2.181682 h 4.764409 c 1.652305,0 2.133555,0.497295 2.133555,2.181682 v 2.406266 c 0,1.684387 -0.48125,2.181682 -2.133555,2.181682 h -4.764409 c -1.6523,0 -2.133554,-0.497295 -2.133554,-2.181682 z M 15.392544,15.114328 c -3.240442,0 -4.491698,1.15501 -4.491698,4.235028 v 2.759187 c 0,3.080021 1.251256,4.235027 4.491698,4.235027 h 7.234839 c 0.240625,0 0.352921,-0.112292 0.352921,-0.352917 v -1.572095 c 0,-0.240625 -0.112296,-0.352917 -0.352921,-0.352917 h -7.138589 c -1.652304,0 -2.133558,-0.497295 -2.133558,-2.197723 v -2.277933 c 0,-1.700429 0.481254,-2.181683 2.133558,-2.181683 h 7.138589 c 0.240625,0 0.352921,-0.128333 0.352921,-0.368962 v -1.572091 c 0,-0.240629 -0.112296,-0.352921 -0.352921,-0.352921 z" id="path2"/>
        </g>
        <g id="path6405" style="opacity:1">
            <path style="font-weight:600;font-size:40.3016px;line-height:1.25;font-family:Conthrax;baseline-shift:baseline;white-space:pre;display:inline;overflow:visible;vector-effect:none;fill:#ffffff;stroke-linecap:round;stroke-linejoin:round;paint-order:markers stroke fill;enable-background:accumulate;stop-color:#000000;stop-opacity:1" d="m 183.09375,13.115234 c -0.43143,0 -1.09411,0.111925 -1.64258,0.625 -0.54846,0.513076 -0.72656,1.25068 -0.72656,1.726563 v 1.427734 c 0,0.475887 0.1781,1.215445 0.72656,1.728516 0.29806,0.278826 0.58292,0.25136 0.89258,0.339844 v 7.027343 c 0,0.431419 0.12606,1.135827 0.67187,1.681641 0.54582,0.545814 1.25023,0.671875 1.68165,0.671875 h 1.65234 c 0.43142,0 1.13387,-0.126061 1.67969,-0.671875 0.27198,-0.271978 0.23603,-0.540736 0.33593,-0.837891 0.002,0.0017 0.002,0.0042 0.004,0.0059 1.26882,1.190844 2.97224,1.503906 4.83008,1.503906 h 4.68359 c 1.37694,0 2.71916,-0.35588 3.66797,-1.304688 0.94881,-0.948807 1.25195,-2.24157 1.25195,-3.40625 v -1.171875 c 0,-1.144839 -0.25647,-2.41383 -1.18164,-3.380859 -0.12974,-0.135618 -0.31777,-0.176565 -0.46289,-0.289062 0.19337,-0.09841 0.36398,-0.03976 0.53907,-0.214844 0.54581,-0.545814 0.67187,-1.250222 0.67187,-1.681641 v -1.427734 c 0,-0.431416 -0.12606,-1.133869 -0.67187,-1.679688 -0.54582,-0.545818 -1.24827,-0.671875 -1.67969,-0.671875 h -6.81836 c -1.85785,0 -3.56126,0.313062 -4.83008,1.503907 -0.058,0.05446 -0.0647,0.138642 -0.11914,0.195312 -0.14293,-0.283451 -0.25885,-0.578348 -0.51172,-0.818359 -0.75676,-0.718284 -1.70961,-0.88086 -2.51172,-0.88086 z" id="path3"/>
            <path style="font-weight:600;font-size:40.3016px;line-height:1.25;font-family:Conthrax;baseline-shift:baseline;white-space:pre;display:inline;overflow:visible;vector-effect:none;fill:#222835;stroke-linecap:round;stroke-linejoin:round;paint-order:markers stroke fill;enable-background:accumulate;stop-color:#000000;stop-opacity:1" d="m 193.19916,15.114328 c -3.24044,0 -4.4917,1.15501 -4.4917,4.235028 v 2.759187 c 0,3.080021 1.25126,4.235027 4.4917,4.235027 h 4.6842 c 2.11751,0 2.9196,-1.010632 2.9196,-2.71106 v -1.171047 c 0,-1.716473 -0.73792,-2.711063 -2.80731,-2.711063 h -6.91401 v -0.304794 c 0,-1.700428 0.46522,-2.197723 2.11752,-2.197723 h 6.81775 c 0.24063,0 0.35292,-0.112292 0.35292,-0.352917 v -1.427717 c 0,-0.240629 -0.11229,-0.352921 -0.35292,-0.352921 z m 4.31523,6.400669 c 0.67376,0 0.93043,0.288752 0.93043,0.946466 v 0.850213 c 0,0.657714 -0.27271,0.962508 -0.94647,0.962508 h -4.29919 c -1.6523,0 -2.11752,-0.497296 -2.11752,-2.181683 v -0.577504 z m -14.42154,-6.400669 c -0.24062,0 -0.36896,0.112292 -0.36896,0.352921 v 1.427717 c 0,0.240625 0.12834,0.352917 0.36896,0.352917 h 0.91438 c 0.24063,0 0.33688,0.112296 0.33688,0.33688 v 8.40589 c 0,0.240625 0.11229,0.352917 0.35292,0.352917 h 1.6523 c 0.24063,0 0.35292,-0.112292 0.35292,-0.352917 v -9.512772 c 0,-0.930422 -0.41709,-1.363553 -1.47584,-1.363553 z" id="path4"/>
        </g>
    </g>
</svg>
