<?xml version="1.0" encoding="UTF-8" standalone="no"?>
<!-- Created with Inkscape (http://www.inkscape.org/) -->

<svg
   id="svg2"
   xml:space="preserve"
   height="167.1257"
   viewBox="0 0 648.31396 167.12573"
   width="648.314"
   version="1.1"
   sodipodi:docname="Descent-logo.svg"
   inkscape:version="1.1.2 (0a00cf5339, 2022-02-04)"
   xmlns:inkscape="http://www.inkscape.org/namespaces/inkscape"
   xmlns:sodipodi="http://sodipodi.sourceforge.net/DTD/sodipodi-0.dtd"
   xmlns:xlink="http://www.w3.org/1999/xlink"
   xmlns="http://www.w3.org/2000/svg"
   xmlns:svg="http://www.w3.org/2000/svg"
   xmlns:rdf="http://www.w3.org/1999/02/22-rdf-syntax-ns#"
   xmlns:cc="http://creativecommons.org/ns#"
   xmlns:dc="http://purl.org/dc/elements/1.1/"><sodipodi:namedview
     id="namedview15"
     pagecolor="#ffffff"
     bordercolor="#666666"
     borderopacity="1.0"
     inkscape:pageshadow="2"
     inkscape:pageopacity="0.0"
     inkscape:pagecheckerboard="0"
     showgrid="false"
     inkscape:zoom="1.398259"
     inkscape:cx="330.4109"
     inkscape:cy="59.359534"
     inkscape:window-width="1920"
     inkscape:window-height="1011"
     inkscape:window-x="0"
     inkscape:window-y="32"
     inkscape:window-maximized="1"
     inkscape:current-layer="g10" /><metadata
     id="metadata8"><rdf:RDF><cc:Work
         rdf:about=""><dc:format>image/svg+xml</dc:format><dc:type
           rdf:resource="http://purl.org/dc/dcmitype/StillImage" /></cc:Work></rdf:RDF></metadata><defs
     id="defs6"><linearGradient
       id="linearGradient4453"><stop
         id="stop4425"
         stop-color="#570000"
         offset="0" /><stop
         id="stop4427"
         stop-color="#f40c00"
         offset="1" /></linearGradient><linearGradient
       id="linearGradient4501"
       y2="234.2975"
       xlink:href="#linearGradient4453"
       gradientUnits="userSpaceOnUse"
       x2="878.9558"
       gradientTransform="translate(588.6664 297.8687)"
       y1="305.0082"
       x1="877.9851" /><linearGradient
       id="linearGradient4503"
       y2="245.7854"
       xlink:href="#linearGradient4453"
       gradientUnits="userSpaceOnUse"
       x2="1098.501"
       gradientTransform="matrix(.8 0 0 -.8 551.5433 700.0761)"
       y1="146.6666"
       x1="1098.233" /></defs><g
     id="g10"
     transform="matrix(1.25 0 0 -1.25 -1492.658 816.8205)"><g
       id="g4505"
       transform="translate(-4.845821 31.91384)"><path
         id="path4497"
         d="m1230.048 586.5673-10-53.25h54l18.75 17-33.5 36.25h-5.5l-4.25-22.5 14.25-15.25-24.5 0.25 6.75 37.5h-16zm71.5 0-7.5-53.25h61.75l-13.25 14h-28.5l5.5 39.25h-18zm23.375 0-1.625-14.5h22l-14.75 14.5h-5.625zm167.375 0 1.5-53.25h61.75l-15.5 12.75-29.7531-0.20313-1.4969 40.70313h-16.5zm29.25 0-5.9954-0.11093 0.6672-15.75 24.0782 0.11093-18.75 15.75zm34 0 4.5-53.25h18l-4 37.5-18.5 15.75zm45 0 4.5-38.875-24.25 18.875 1.75-18.875 17.75-14.375h26l-5.75 37.5-20 15.75zm20.75 0 5-15.75h70.25l-20 15.75h-55.25zm-248.5-1.5-15.5-13h58l-15 13h-27.5zm64.4312 0-15.5-13h58l-15 13h-27.5zm79.2969-18.38437c0.676-15.453 0.6765-15.35612 0.6765-15.97812 0-0.50701 24.3454 0 24.3454 0l-19.5266 15.97812h-5.4953zm-194.0438-0.81407-1.625-14.5h22l-14.75 14.5h-5.625zm44.2328 0 16.3329-17.30156h-27.25l14-15.25h26.75l18.75 17-16.0829 15.55156h-32.5zm55.0141 0v-20.55156l14.9094-12h32.5l18.4094 18.05156h-32.5l-14.75 14.5h-18.5688zm215.3188 0 6-39.05156 23.25-19-10 58.05156h-19.25z"
         fill="url(#linearGradient4501)" /><path
         id="path4499"
         d="m1625.514 586.5667 3.9844-12.55h62.9859l-15.9359 12.55zm15.2266-20.69844 5.5078-35.85156 18.8843-15.43281-8.8343 51.28437zm-203.511 19.19844-11.4828-9.63125h50.0953l-11.1125 9.63125zm-14.8297-19.19844v-17.18281l14.9094-12h32.5l14.975 14.68281h-29.7359l-14.75 14.5zm-49.6015 19.19844-11.6844-9.8h50.4922l-11.3078 9.8zm-3.0626-19.19844 15.9689-17.22656-3.4501 0.97656 0.7938-1.05156h-24.3126l11.0626-12.05h26.75l17.0422 15.45156-14.3751 13.9zm-68.1874 20.69844-7.05-50.05h58.2718l-10.2218 10.8h-28.5l0.214 1.6375-2.1265-1.71875 5.364 39.33125zm23.375 0-1.2656-11.3h18.3859l-11.4953 11.3zm-2.4406-20.69844-1.2657-11.3h18.386l-11.4953 11.3zm169.9062 20.69844 1.4094-50.05h57.8594l-11.6094 9.55-29.7531-0.20312-1.4969 40.70312zm29.1594 0-5.8594-0.10781 0.5312-12.55313 20.2891 0.0938-14.9609 12.56718zm-4.886-19.88438c0.3459-7.89891 0.5406-12.28069 0.5406-12.77812 0-0.37995 13.6677-0.18916 20.5204-0.0703l-15.7016 12.84844h-5.3594zm86.0547 18.17657 4.4837-37.17127-2.3866 2.29361 0.2342-2.28953-22.2063 17.28438 1.3063-14.08438 17.75-14.375h23.9094l-5.2594 34.3zm-45.1531-0.008 4.0844-48.33437h16.0594l-3.6594 34.3zm-327.5156 1.71563-9.3985-50.05h50.1985l18.75 17-30.5422 33.05h-5.2578l-4.25-22.5 14.25-15.25-24.5 0.25 0.4638 2.32836-3.6638-2.44299 6.1734 37.61456h-12.2234z"
         fill="url(#linearGradient4503)" /></g></g></svg>
