<?xml version='1.0' encoding='utf-8'?>
<svg xmlns="http://www.w3.org/2000/svg" version="1.1" id="svg1" width="600" height="196.9062746863467" viewBox="0 0 1086.0001 356.40039">
    <defs id="defs1"/>
    <g id="g1" transform="translate(16.39298,15.625131)">
        <path style="baseline-shift:baseline;display:inline;overflow:visible;vector-effect:none;fill:#ffffff;stroke-linecap:round;stroke-linejoin:round;paint-order:markers stroke fill;enable-background:accumulate;stop-color:#000000" d="M -1.3929798,-15.625131 A 15.0015,15.0015 0 0 0 -16.39298,-0.62513142 V 325.77525 a 15.0015,15.0015 0 0 0 15.0000002,15 H 1054.6071 a 15.0015,15.0015 0 0 0 15,-15 V -0.62513142 a 15.0015,15.0015 0 0 0 -15,-14.99999958 z m 14.9999998,30 H 1039.6071 V 310.77525 H 13.60702 Z" id="path39"/>
        <path id="path2" d="M 0,326.4 H 1056 V 0.00134149 H 0 Z" style="fill:#231f20;fill-opacity:1;fill-rule:nonzero;stroke:none;stroke-width:0.133333"/>
        <path id="path3" d="M 42.786932,259.8016 H 196.34693 V 237.4428 H 42.786932 Z" style="fill:#eb222c;fill-opacity:1;fill-rule:nonzero;stroke:none;stroke-width:0.133333"/>
        <path id="path4" d="m 205.94666,259.8016 h 153.56 v -22.3588 h -153.56 z" style="fill:#f3b913;fill-opacity:1;fill-rule:nonzero;stroke:none;stroke-width:0.133333"/>
        <path id="path5" d="M 369.10666,259.8016 H 522.66665 V 237.4428 H 369.10666 Z" style="fill:#eee016;fill-opacity:1;fill-rule:nonzero;stroke:none;stroke-width:0.133333"/>
        <path id="path6" d="m 532.26665,259.8016 h 153.56 v -22.3588 h -153.56 z" style="fill:#1bb069;fill-opacity:1;fill-rule:nonzero;stroke:none;stroke-width:0.133333"/>
        <path id="path7" d="M 695.42532,259.8016 H 848.98665 V 237.4428 H 695.42532 Z" style="fill:#0ab0ef;fill-opacity:1;fill-rule:nonzero;stroke:none;stroke-width:0.133333"/>
        <path id="path8" d="M 858.57331,259.8016 H 1012.1333 V 237.4428 H 858.57331 Z" style="fill:#ed51a0;fill-opacity:1;fill-rule:nonzero;stroke:none;stroke-width:0.133333"/>
        <path id="path9" d="m 42.786932,68.214673 v 22.36 H 55.586399 V 205.52134 H 42.786932 v 22.34693 H 77.986931 V 68.214673 H 42.786932" style="fill:#ffffff;fill-opacity:1;fill-rule:nonzero;stroke:none;stroke-width:0.133333"/>
        <path id="path10" d="m 84.386398,68.214673 v 22.36 h 22.387062 v 19.146667 h 22.4 V 68.214673 H 84.386398" style="fill:#ffffff;fill-opacity:1;fill-rule:nonzero;stroke:none;stroke-width:0.133333"/>
        <path id="path11" d="M 84.386398,157.628 H 116.3728 V 135.26814 H 84.386398 Z" style="fill:#ffffff;fill-opacity:1;fill-rule:nonzero;stroke:none;stroke-width:0.133333"/>
        <path id="path12" d="m 84.386398,205.52134 v 22.34693 h 44.787062 v -44.70693 h -22.4 v 22.36 H 84.386398" style="fill:#ffffff;fill-opacity:1;fill-rule:nonzero;stroke:none;stroke-width:0.133333"/>
        <path id="path13" d="m 369.10666,68.214673 v 22.36 h 12.8 V 205.52134 h -12.8 v 22.34693 h 35.18666 V 68.214673 h -35.18666" style="fill:#ffffff;fill-opacity:1;fill-rule:nonzero;stroke:none;stroke-width:0.133333"/>
        <path id="path14" d="m 410.69332,68.214673 v 22.36 h 22.4 v 19.146667 h 22.38667 V 68.214673 h -44.78667" style="fill:#ffffff;fill-opacity:1;fill-rule:nonzero;stroke:none;stroke-width:0.133333"/>
        <path id="path15" d="m 410.69332,157.628 h 32 v -22.35986 h -32 z" style="fill:#ffffff;fill-opacity:1;fill-rule:nonzero;stroke:none;stroke-width:0.133333"/>
        <path id="path16" d="m 410.69332,205.52134 v 22.34693 h 44.78667 v -44.70693 h -22.38667 v 22.36 h -22.4" style="fill:#ffffff;fill-opacity:1;fill-rule:nonzero;stroke:none;stroke-width:0.133333"/>
        <path id="path17" d="m 925.75864,68.214673 v 22.36 h 12.80134 V 205.52134 h -12.80134 v 22.34693 h 35.188 V 68.214673 h -35.188" style="fill:#ffffff;fill-opacity:1;fill-rule:nonzero;stroke:none;stroke-width:0.133333"/>
        <path id="path18" d="m 967.34664,68.214673 v 22.36 h 22.40134 v 19.146667 h 22.38532 V 68.214673 h -44.78666" style="fill:#ffffff;fill-opacity:1;fill-rule:nonzero;stroke:none;stroke-width:0.133333"/>
        <path id="path19" d="m 967.34664,157.628 h 32 v -22.35986 h -32 z" style="fill:#ffffff;fill-opacity:1;fill-rule:nonzero;stroke:none;stroke-width:0.133333"/>
        <path id="path20" d="m 967.34664,205.52134 v 22.34693 h 44.78666 v -44.70693 h -22.38532 v 22.36 h -22.40134" style="fill:#ffffff;fill-opacity:1;fill-rule:nonzero;stroke:none;stroke-width:0.133333"/>
        <path id="path21" d="m 138.77333,205.52134 v 22.34693 H 173.96 v -79.82693 l -22.4,-41.50667 v 98.98667 h -12.78667" style="fill:#ffffff;fill-opacity:1;fill-rule:nonzero;stroke:none;stroke-width:0.133333"/>
        <path id="path22" d="m 244.33333,90.574673 v -22.36 h -35.18667 v 79.826667 l 22.4,41.50666 V 90.574673 h 12.78667" style="fill:#ffffff;fill-opacity:1;fill-rule:nonzero;stroke:none;stroke-width:0.133333"/>
        <path id="path23" d="m 138.77333,68.214673 v 22.36 H 149.96 l 68.78666,137.293597 h 25.58667 V 205.52134 H 233.14666 L 164.36,68.214673 h -25.58667" style="fill:#ffffff;fill-opacity:1;fill-rule:nonzero;stroke:none;stroke-width:0.133333"/>
        <path id="path24" d="m 253.93333,68.214673 v 44.706667 h 22.4 V 90.574673 h 12.8 v -22.36 h -35.2" style="fill:#ffffff;fill-opacity:1;fill-rule:nonzero;stroke:none;stroke-width:0.133333"/>
        <path id="path25" d="m 324.31999,68.214673 v 22.36 h 12.8 v 22.346667 h 22.38667 V 68.214673 h -35.18667" style="fill:#ffffff;fill-opacity:1;fill-rule:nonzero;stroke:none;stroke-width:0.133333"/>
        <path id="path26" d="M 295.51999,68.214673 V 205.52134 h -12.78666 v 22.34693 h 47.98666 v -22.34693 h -12.8 V 68.214673 h -22.4" style="fill:#ffffff;fill-opacity:1;fill-rule:nonzero;stroke:none;stroke-width:0.133333"/>
        <path id="path27" d="M 791.39998,90.574673 V 205.52134 h -16 v 22.34693 h 51.18533 v -22.34693 h -16 V 90.574673 h 16 v -22.36 h -51.18533 v 22.36 h 16" style="fill:#ffffff;fill-opacity:1;fill-rule:nonzero;stroke:none;stroke-width:0.133333"/>
        <path id="path28" d="M 580.25199,90.574673 V 205.52134 h -12.79867 v 22.34693 h 47.98666 v -22.34693 h -12.8 V 68.214673 h -35.18666 v 22.36 h 12.79867" style="fill:#ffffff;fill-opacity:1;fill-rule:nonzero;stroke:none;stroke-width:0.133333"/>
        <path id="path29" d="M 682.62665,90.574673 V 205.52134 h -12.8 v 22.34693 h 35.18667 V 68.214673 h -35.18667 v 22.36 h 12.8" style="fill:#ffffff;fill-opacity:1;fill-rule:nonzero;stroke:none;stroke-width:0.133333"/>
        <path id="path30" d="M 477.87999,90.574673 V 205.52134 h -12.8 v 22.34693 h 35.18666 V 68.214673 h -35.18666 v 22.36 h 12.8" style="fill:#ffffff;fill-opacity:1;fill-rule:nonzero;stroke:none;stroke-width:0.133333"/>
        <path id="path31" d="m 893.77331,109.72134 h 22.3864 V 68.214006 h -22.3864 z" style="fill:#ffffff;fill-opacity:1;fill-rule:nonzero;stroke:none;stroke-width:0.133333"/>
        <path id="path32" d="m 836.18665,227.86827 h 22.3864 v -47.89373 h -22.3864 z" style="fill:#ffffff;fill-opacity:1;fill-rule:nonzero;stroke:none;stroke-width:0.133333"/>
        <path id="path33" d="m 740.21331,125.41467 -10.77333,9.85333 h -18.02533 v 22.36 h 25.59866 l 25.58667,-23.42666 V 91.641339 L 737.01331,68.214673 h -25.59866 v 22.36 h 18.02533 l 10.77333,9.839997 v 25" style="fill:#ffffff;fill-opacity:1;fill-rule:nonzero;stroke:none;stroke-width:0.133333"/>
        <path id="path34" d="m 637.83998,125.41467 -10.77333,9.85333 h -18.028 v 22.36 h 25.60133 l 25.58667,-23.42666 V 91.641339 L 634.63998,68.214673 h -25.60133 v 22.36 h 18.028 l 10.77333,9.839997 v 25" style="fill:#ffffff;fill-opacity:1;fill-rule:nonzero;stroke:none;stroke-width:0.133333"/>
        <path id="path35" d="m 535.46665,125.41467 -10.77333,9.85333 h -18.02667 v 22.36 h 25.6 l 25.58667,-23.42666 V 91.641339 L 532.26665,68.214673 h -25.6 v 22.36 h 18.02667 l 10.77333,9.839997 v 25" style="fill:#ffffff;fill-opacity:1;fill-rule:nonzero;stroke:none;stroke-width:0.133333"/>
        <path id="path36" d="m 858.57331,125.41467 v -25 l 10.77333,-9.839997 h 18.02534 v -22.36 h -25.59867 l -25.58666,23.426666 v 42.560001 l 25.58666,23.42666 h 21.22667 l 10.77333,9.84 v 28.20027 l -10.77333,9.85307 h -18.02667 v 22.34693 h 25.6 l 25.58667,-23.4256 v -45.748 L 890.57331,135.268 h -21.22667 l -10.77333,-9.85333" style="fill:#ffffff;fill-opacity:1;fill-rule:nonzero;stroke:none;stroke-width:0.133333"/>
        <path id="path37" d="m 532.26665,227.86827 h 25.58667 v -22.34693 h -9.90667 l -12.48,-41.50667 h -22.4 l 19.2,63.8536" style="fill:#ffffff;fill-opacity:1;fill-rule:nonzero;stroke:none;stroke-width:0.133333"/>
        <path id="path38" d="m 737.01331,227.86827 h 25.58667 v -22.34693 h -9.92 l -12.46667,-41.50667 h -22.40133 l 19.20133,63.8536" style="fill:#ffffff;fill-opacity:1;fill-rule:nonzero;stroke:none;stroke-width:0.133333"/>
    </g>
</svg>
