<?xml version='1.0' encoding='utf-8'?>
<svg xmlns="http://www.w3.org/2000/svg" xmlns:rdf="http://www.w3.org/1999/02/22-rdf-syntax-ns#" xmlns:cc="http://creativecommons.org/ns#" xmlns:dc="http://purl.org/dc/elements/1.1/" width="600" height="181.74760634203628" id="svg2" version="1.1" viewBox="0 0 328.56198 99.525589">
    <defs id="defs4"/>
    <metadata id="metadata7">
        <rdf:RDF>
            <cc:Work rdf:about="">
                <dc:format>image/svg+xml</dc:format>
                <dc:type rdf:resource="http://purl.org/dc/dcmitype/StillImage"/>
            </cc:Work>
        </rdf:RDF>
    </metadata>
    <g id="layer1" transform="translate(175.70956,-830.51225)">
        <g style="font-style:normal;font-variant:normal;font-weight:normal;font-stretch:normal;font-size:40px;line-height:125%;font-family:'MS Gothic';letter-spacing:0px;word-spacing:0px;fill:#000000;fill-opacity:1;stroke:#ffffff;stroke-width:7.97086;stroke-linecap:round;stroke-linejoin:round;stroke-dasharray:none;stroke-opacity:1;paint-order:markers stroke fill" id="text3217" transform="matrix(1,0,0,1.007324,0,-6.3475989)">
            <g id="path3017" style="opacity:1">
                <path style="font-size:80px;line-height:125%;font-family:'Runic MT Condensed';letter-spacing:6.55px;baseline-shift:baseline;display:inline;overflow:visible;vector-effect:none;fill:#ffffff;stroke:none;enable-background:accumulate;stop-color:#000000;stop-opacity:1" d="m -169.54883,831.24414 a 3.9858285,3.9858285 0 0 0 -3.98437,3.98438 v 0.66406 a 3.9858285,3.9858285 0 0 0 1.99218,3.1582 v 55.86719 a 3.9858285,3.9858285 0 0 0 -1.99218,3.16211 v 0.66406 a 3.9858285,3.9858285 0 0 0 3.98437,3.98633 h 9.41406 a 3.9858285,3.9858285 0 0 0 3.98633,-3.98633 v -0.66406 a 3.9858285,3.9858285 0 0 0 -1.99218,-2.2793 v -13.71289 a 3.9858285,3.9858285 0 0 0 2.02929,1.50195 h 0.66406 a 3.9858285,3.9858285 0 0 0 3.98633,-3.98632 v -20.83204 a 3.9858285,3.9858285 0 0 0 3.22657,-3.99414 l -1.67969,-19.88281 a 3.9858285,3.9858285 0 0 0 -3.97071,-3.65039 z m -0.33789,8.5625 a 3.9858285,3.9858285 0 0 0 0.14844,0.0684 c -0.0893,-0.004 -0.06,-0.007 -0.11914,-0.0137 z m 11.7461,11.92773 0.39648,1.26563 a 3.9858285,3.9858285 0 0 0 -0.39648,0.29102 z m -1.46094,42.39649 c -0.43562,-0.0589 -0.058,-0.18268 0.55078,0.55664 l 0.0449,0.125 a 3.9858285,3.9858285 0 0 0 -0.5957,-0.68164 z" id="path1"/>
                <path style="font-size:80px;line-height:125%;font-family:'Runic MT Condensed';letter-spacing:6.55px;baseline-shift:baseline;display:inline;overflow:visible;vector-effect:none;stroke:none;enable-background:accumulate;stop-color:#000000;stop-opacity:1" d="m -160.13438,898.74506 h -9.41407 v -0.66407 c 0.65104,-0.0781 1.31511,-0.36458 1.99219,-0.85937 v -60.50781 c -0.78125,-0.52077 -1.44531,-0.79421 -1.99219,-0.82032 v -0.66406 h 15.66407 l 1.67968,19.88281 h -0.70312 l -1.60156,-5.11718 c -0.6771,-2.16141 -1.44533,-4.27078 -2.30469,-6.32813 -0.85939,-2.05723 -1.52996,-3.29421 -2.01172,-3.71094 -0.48178,-0.4166 -1.07423,-0.62494 -1.77734,-0.625 h -1.52344 v 25.46875 h 1.21094 c 0.85936,4e-5 1.49087,-0.25387 1.89453,-0.76172 0.40363,-0.50777 0.91795,-1.7773 1.54297,-3.80859 l 1.36718,-4.45312 h 0.66407 v 23.82812 h -0.66407 l -1.875,-6.13281 c -0.67709,-2.23956 -1.15235,-3.56117 -1.42578,-3.96485 -0.27345,-0.40361 -0.77475,-0.60543 -1.5039,-0.60546 h -1.21094 v 28.32031 c 0.36457,0.44271 1.02863,0.72917 1.99219,0.85937 z" id="path2"/>
            </g>
            <g id="path3019" style="opacity:1">
                <path style="font-size:80px;line-height:125%;font-family:'Runic MT Condensed';letter-spacing:6.55px;baseline-shift:baseline;display:inline;overflow:visible;vector-effect:none;fill:#ffffff;stroke:none;enable-background:accumulate;stop-color:#000000;stop-opacity:1" d="m -143.85742,831.24414 a 3.9858285,3.9858285 0 0 0 -3.98633,3.98438 v 0.66406 a 3.9858285,3.9858285 0 0 0 1.91406,3.12109 v 56.8711 a 3.9858285,3.9858285 0 0 0 -1.91406,2.19531 v 0.66406 a 3.9858285,3.9858285 0 0 0 3.98633,3.98633 h 9.33594 a 3.9858285,3.9858285 0 0 0 3.98437,-3.98633 v -0.66406 a 3.9858285,3.9858285 0 0 0 -1.99219,-2.26563 v -56.76367 a 3.9858285,3.9858285 0 0 0 1.99219,-3.1582 v -0.66406 a 3.9858285,3.9858285 0 0 0 -3.98437,-3.98438 z m -0.66992,8.44727 a 3.9858285,3.9858285 0 0 0 0.36328,0.17578 c -0.19533,-0.0151 -0.40183,-0.14903 -0.31836,-0.0801 z m 10.51562,54.4375 c -0.16267,-0.021 0.0329,0.0128 0.16406,0.13086 l 0.0508,0.11328 a 3.9858285,3.9858285 0 0 0 -0.21485,-0.24414 z m -10.39062,0.004 a 3.9858285,3.9858285 0 0 0 -0.3086,0.35352 l 0.10157,-0.22656 c 0.082,-0.0738 0.28346,-0.1375 0.20703,-0.12696 z" id="path3"/>
                <path style="font-size:80px;line-height:125%;font-family:'Runic MT Condensed';letter-spacing:6.55px;baseline-shift:baseline;display:inline;overflow:visible;vector-effect:none;stroke:none;enable-background:accumulate;stop-color:#000000;stop-opacity:1" d="m -136.51407,836.71381 v 60.50781 c 0.52082,0.46875 1.18488,0.75521 1.99219,0.85937 v 0.66407 h -9.33594 v -0.66407 c 0.7552,-0.10416 1.39322,-0.39062 1.91406,-0.85937 v -60.50781 c -0.59896,-0.49473 -1.23698,-0.76817 -1.91406,-0.82032 v -0.66406 h 9.33594 v 0.66406 c -0.78126,0.0521 -1.44533,0.32559 -1.99219,0.82032 z" id="path4"/>
            </g>
            <g id="path3021" style="opacity:1">
                <path style="font-size:80px;line-height:125%;font-family:'Runic MT Condensed';letter-spacing:6.55px;baseline-shift:baseline;display:inline;overflow:visible;vector-effect:none;fill:#ffffff;stroke:none;enable-background:accumulate;stop-color:#000000;stop-opacity:1" d="m -125.98047,831.24414 a 3.9858285,3.9858285 0 0 0 -3.98437,3.98438 v 0.66406 a 3.9858285,3.9858285 0 0 0 1.99218,3.1582 v 55.87305 a 3.9858285,3.9858285 0 0 0 -1.99218,3.15625 v 0.66406 a 3.9858285,3.9858285 0 0 0 3.98437,3.98633 h 8.47656 a 3.9858285,3.9858285 0 0 0 3.36328,-2.48438 3.9858285,3.9858285 0 0 0 3.04297,2.48438 h 4.0625 a 3.9858285,3.9858285 0 0 0 3.98633,-3.98633 v -59.67383 a 3.9858285,3.9858285 0 0 0 2.03125,-3.17773 v -0.66406 a 3.9858285,3.9858285 0 0 0 -3.98633,-3.98438 h -8.51562 a 3.9858285,3.9858285 0 0 0 -3.07227,1.7832 3.9858285,3.9858285 0 0 0 -2.20117,-1.7832 z m -0.60742,8.42578 a 3.9858285,3.9858285 0 0 0 0.46094,0.20703 c -0.23501,-0.009 -0.49761,-0.1728 -0.41211,-0.10156 z m 12.85351,0.17969 a 3.9858285,3.9858285 0 0 0 0.0567,0.0254 c -0.0497,-0.002 -0.01,10e-4 -0.0527,-0.006 z m -12.39843,54.24805 a 3.9858285,3.9858285 0 0 0 -0.48633,0.21875 l 0.0684,-0.14649 c -0.15395,0.12932 0.0731,-0.059 0.41797,-0.0723 z m 8.7832,0 c 0.34452,0.0132 0.57183,0.20151 0.41797,0.0723 l 0.0723,0.14844 a 3.9858285,3.9858285 0 0 0 -0.49023,-0.2207 z" id="path5"/>
                <path style="font-size:80px;line-height:125%;font-family:'Runic MT Condensed';letter-spacing:6.55px;baseline-shift:baseline;display:inline;overflow:visible;vector-effect:none;stroke:none;enable-background:accumulate;stop-color:#000000;stop-opacity:1" d="m -109.88595,883.62787 -1.67969,-46.91406 c -0.65105,-0.52077 -1.30209,-0.79421 -1.95312,-0.82032 v -0.66406 h 8.51562 v 0.66406 c -0.9896,0.0782 -1.66668,0.35163 -2.03125,0.82032 v 62.03125 h -4.0625 l -5.66406,-27.77344 c -1.04167,-5.10414 -1.82292,-9.6484 -2.34375,-13.63281 l -2.46094,-18.98438 2.07032,58.86719 c 0.65103,0.54687 1.31509,0.83333 1.99218,0.85937 v 0.66407 h -8.47656 v -0.66407 c 0.67708,-0.026 1.34115,-0.3125 1.99219,-0.85937 v -60.50781 c -0.625,-0.52077 -1.28906,-0.79421 -1.99219,-0.82032 v -0.66406 h 7.1875 l 4.375,20.54688 c 0.80728,3.80212 1.56249,8.02086 2.26563,12.65625 z" id="path6"/>
            </g>
            <g id="path3023" style="opacity:1">
                <path style="font-size:80px;line-height:125%;font-family:'Runic MT Condensed';letter-spacing:6.55px;baseline-shift:baseline;display:inline;overflow:visible;vector-effect:none;fill:#ffffff;stroke:none;enable-background:accumulate;stop-color:#000000;stop-opacity:1" d="m -90.796875,830.77539 a 3.9858285,3.9858285 0 0 0 -3.974609,3.67969 l -4.777344,62.11523 a 3.9858285,3.9858285 0 0 0 -1.250002,1.50977 v 0.66406 a 3.9858285,3.9858285 0 0 0 3.98633,3.98633 h 6.71875 a 3.9858285,3.9858285 0 0 0 1.367188,-0.56641 3.9858285,3.9858285 0 0 0 1.367187,0.56641 h 8.242188 a 3.9858285,3.9858285 0 0 0 3.986328,-3.98633 v -0.66406 a 3.9858285,3.9858285 0 0 0 -1.634766,-2.98242 l -4.587891,-60.63868 a 3.9858285,3.9858285 0 0 0 -3.974609,-3.68359 z m -6.761719,63.39063 a 3.9858285,3.9858285 0 0 0 -1.86914,2.25781 l 0.341797,-1.13867 c 0.253885,-0.457 1.108983,-1.03946 1.527343,-1.11914 z m 8.921875,0.21289 c -0.01649,-0.0123 0.09847,0.0516 0.07227,0.0254 l 0.02148,0.0547 a 3.9858285,3.9858285 0 0 0 -0.173828,0.22657 3.9858285,3.9858285 0 0 0 -0.140625,-0.18164 c 0.12838,-0.0891 0.138207,-0.0866 0.220703,-0.125 z" id="path7"/>
                <path style="font-size:80px;line-height:125%;font-family:'Runic MT Condensed';letter-spacing:6.55px;baseline-shift:baseline;display:inline;overflow:visible;vector-effect:none;stroke:none;enable-background:accumulate;stop-color:#000000;stop-opacity:1" d="m -85.328133,834.76068 4.726563,62.46094 c 0.364566,0.52083 0.859357,0.80729 1.484375,0.85937 v 0.66407 h -8.242188 v -0.66407 c 0.703115,-0.18229 1.119781,-0.46875 1.25,-0.85937 l -0.46875,-12.77344 h -4.140625 l -0.664062,12.77344 c 0.468743,0.46875 0.89843,0.75521 1.289062,0.85937 v 0.66407 h -6.71875 v -0.66407 c 0.546874,-0.10416 0.95052,-0.39062 1.210938,-0.85937 l 4.804687,-62.46094 z m -1.484375,45.58594 -1.914062,-41.5625 -1.992188,41.5625 z" id="path8"/>
            </g>
            <g id="path3025" style="opacity:1">
                <path style="font-size:80px;line-height:125%;font-family:'Runic MT Condensed';letter-spacing:6.55px;baseline-shift:baseline;display:inline;overflow:visible;vector-effect:none;fill:#ffffff;stroke:none;enable-background:accumulate;stop-color:#000000;stop-opacity:1" d="m -71.003906,831.24414 a 3.9858285,3.9858285 0 0 0 -3.986328,3.98438 v 0.66406 a 3.9858285,3.9858285 0 0 0 1.992187,3.1582 v 56.70313 a 3.9858285,3.9858285 0 0 0 -1.992187,2.32617 v 0.66406 a 3.9858285,3.9858285 0 0 0 3.986328,3.98633 h 16.054687 a 3.9858285,3.9858285 0 0 0 3.978516,-3.76953 l 1.132812,-20.9375 a 3.9858285,3.9858285 0 0 0 -3.978515,-4.20117 h -0.507813 a 3.9858285,3.9858285 0 0 0 -3.873047,3.04296 l -1.08789,4.47071 c -0.109497,0.43793 -0.202563,0.51844 -0.3125,0.92968 v -43.25 a 3.9858285,3.9858285 0 0 0 1.914062,-3.12304 v -0.66406 a 3.9858285,3.9858285 0 0 0 -3.984375,-3.98438 z m 10.136719,8.33984 -0.03516,0.0781 c -0.0031,0.003 -0.380422,0.20598 -0.61914,0.21484 a 3.9858285,3.9858285 0 0 0 0.654297,-0.29297 z m -10.746094,0.0859 a 3.9858285,3.9858285 0 0 0 0.460937,0.20703 c -0.235023,-0.009 -0.497612,-0.1728 -0.412109,-0.10156 z" id="path9"/>
                <path style="font-size:80px;line-height:125%;font-family:'Runic MT Condensed';letter-spacing:6.55px;baseline-shift:baseline;display:inline;overflow:visible;vector-effect:none;stroke:none;enable-background:accumulate;stop-color:#000000;stop-opacity:1" d="m -61.668762,835.22943 v 0.66406 c -0.703135,0.0261 -1.341155,0.29955 -1.914063,0.82032 v 57.92968 h 1.757813 c 2.213529,10e-6 4.348944,-4.11457 6.40625,-12.34375 l 1.09375,-4.49218 h 0.507812 l -1.132812,20.9375 H -71.0047 v -0.66407 c 0.833332,-0.1302 1.497394,-0.41666 1.992188,-0.85937 v -60.50781 c -0.625003,-0.52077 -1.289064,-0.79421 -1.992188,-0.82032 v -0.66406 z" id="path10"/>
            </g>
        </g>
        <g style="font-style:normal;font-variant:normal;font-weight:normal;font-stretch:normal;font-size:40px;line-height:125%;font-family:'MS Gothic';letter-spacing:0px;word-spacing:0px;fill:#000000;fill-opacity:1;stroke:#ffffff;stroke-width:8;stroke-linecap:round;stroke-linejoin:round;stroke-dasharray:none;stroke-opacity:1;paint-order:markers stroke fill" id="text3221">
            <g id="path3028" style="opacity:1">
                <path style="font-size:80px;line-height:125%;font-family:'Runic MT Condensed';letter-spacing:5.35px;baseline-shift:baseline;display:inline;overflow:visible;vector-effect:none;fill:#ffffff;stroke:none;enable-background:accumulate;stop-color:#000000;stop-opacity:1" d="m -30.548828,830.99414 a 4.0004,4.0004 0 0 0 -4,4 v 0.66406 a 4.0004,4.0004 0 0 0 1.992187,3.16602 v 55.85156 a 4.0004,4.0004 0 0 0 -1.992187,3.16992 v 0.66407 a 4.0004,4.0004 0 0 0 4,4 h 9.414062 a 4.0004,4.0004 0 0 0 4,-4 v -0.66407 a 4.0004,4.0004 0 0 0 -1.992187,-2.27929 v -13.68946 a 4.0004,4.0004 0 0 0 2.015625,1.49219 h 0.664062 a 4.0004,4.0004 0 0 0 4,-4 v -20.82422 a 4.0004,4.0004 0 0 0 3.228516,-4.0039 l -1.679688,-19.88282 a 4.0004,4.0004 0 0 0 -3.986328,-3.66406 z m -0.347656,8.58789 a 4.0004,4.0004 0 0 0 0.158203,0.0723 c -0.09444,-0.005 -0.06583,-0.007 -0.126953,-0.0137 z m 11.769531,12.00977 0.365234,1.16797 a 4.0004,4.0004 0 0 0 -0.365234,0.27148 z m -1.472656,42.29101 c -0.433696,-0.0586 -0.05182,-0.18111 0.560547,0.5625 l 0.04883,0.13281 a 4.0004,4.0004 0 0 0 -0.609375,-0.69531 z" id="path11"/>
                <path style="font-size:80px;line-height:125%;font-family:'Runic MT Condensed';letter-spacing:5.35px;baseline-shift:baseline;display:inline;overflow:visible;vector-effect:none;stroke:none;enable-background:accumulate;stop-color:#000000;stop-opacity:1" d="m -21.134398,898.51068 h -9.414062 v -0.66406 c 0.65104,-0.0781 1.315102,-0.36458 1.992187,-0.85938 v -60.50781 c -0.781252,-0.52077 -1.445314,-0.79421 -1.992187,-0.82031 v -0.66406 h 15.664062 l 1.679688,19.88281 h -0.703125 l -1.601563,-5.11719 c -0.677098,-2.16141 -1.445327,-4.27078 -2.304687,-6.32812 -0.859388,-2.05724 -1.52996,-3.29422 -2.011719,-3.71094 -0.481782,-0.41661 -1.074229,-0.62494 -1.777344,-0.625 h -1.523437 v 25.46875 h 1.210937 c 0.859365,3e-5 1.490875,-0.25387 1.894532,-0.76172 0.403634,-0.50778 0.917956,-1.77731 1.542968,-3.80859 l 1.367188,-4.45313 h 0.664062 v 23.82813 h -0.664062 l -1.875,-6.13282 c -0.677095,-2.23955 -1.152355,-3.56117 -1.425781,-3.96484 -0.273449,-0.40362 -0.77475,-0.60544 -1.503907,-0.60547 h -1.210937 v 28.32031 c 0.364575,0.44271 1.028636,0.72917 1.992187,0.85938 z" id="path12"/>
            </g>
            <g id="path3030" style="opacity:1">
                <path style="font-size:80px;line-height:125%;font-family:'Runic MT Condensed';letter-spacing:5.35px;baseline-shift:baseline;display:inline;overflow:visible;vector-effect:none;fill:#ffffff;stroke:none;enable-background:accumulate;stop-color:#000000;stop-opacity:1" d="m -0.47265625,830.52539 a 4.0004,4.0004 0 0 0 -3.98828125,3.69336 l -4.7792969,62.11914 a 4.0004,4.0004 0 0 0 -1.2480466,1.50781 v 0.66407 a 4.0004,4.0004 0 0 0 3.9999998,4 h 6.71874995 a 4.0004,4.0004 0 0 0 1.36718745,-0.56641 4.0004,4.0004 0 0 0 1.3671876,0.56641 h 8.2421872 a 4.0004,4.0004 0 0 0 4,-4 v -0.66407 a 4.0004,4.0004 0 0 0 -1.632812,-2.98828 L 8.9863281,834.22461 a 4.0004,4.0004 0 0 0 -3.9902344,-3.69922 z m -6.76367185,63.39258 a 4.0004,4.0004 0 0 0 -1.8828125,2.27344 l 0.3457031,-1.14649 c 0.2557642,-0.46037 1.1152638,-1.0466 1.5371094,-1.12695 z M 1.6875,894.12891 c -0.016802,-0.0118 0.1137846,0.0591 0.083984,0.0293 l 0.015625,0.041 A 4.0004,4.0004 0 0 0 1.6074219,894.43164 4.0004,4.0004 0 0 0 1.46875,894.25195 c 0.1256193,-0.0857 0.1385411,-0.0861 0.21875,-0.12304 z" id="path13"/>
                <path style="font-size:80px;line-height:125%;font-family:'Runic MT Condensed';letter-spacing:5.35px;baseline-shift:baseline;display:inline;overflow:visible;vector-effect:none;stroke:none;enable-background:accumulate;stop-color:#000000;stop-opacity:1" d="m 4.9968548,834.52631 4.7265625,62.46093 c 0.3645657,0.52084 0.8593577,0.8073 1.4843747,0.85938 v 0.66406 H 2.9656048 v -0.66406 c 0.7031142,-0.18229 1.1197805,-0.46875 1.25,-0.85938 l -0.46875,-12.77343 h -4.14062502 l -0.66406248,12.77343 c 0.46874346,0.46875 0.89843053,0.75521 1.28906248,0.85938 v 0.66406 H -6.4875202 v -0.66406 c 0.5468738,-0.10417 0.9505192,-0.39063 1.2109375,-0.85938 l 4.80468748,-62.46093 z m -1.484375,45.58593 -1.9140625,-41.5625 -1.99218752,41.5625 z" id="path14"/>
            </g>
            <g id="path3032" style="opacity:1">
                <path style="font-size:80px;line-height:125%;font-family:'Runic MT Condensed';letter-spacing:5.35px;baseline-shift:baseline;display:inline;overflow:visible;vector-effect:none;fill:#ffffff;stroke:none;enable-background:accumulate;stop-color:#000000;stop-opacity:1" d="m 18.121094,830.99414 a 4.0004,4.0004 0 0 0 -4,4 v 0.66406 a 4.0004,4.0004 0 0 0 1.992187,3.16602 v 55.85547 a 4.0004,4.0004 0 0 0 -1.992187,3.16601 v 0.66407 a 4.0004,4.0004 0 0 0 4,4 h 8.476562 a 4.0004,4.0004 0 0 0 3.369141,-2.47852 4.0004,4.0004 0 0 0 3.037109,2.47852 h 4.0625 a 4.0004,4.0004 0 0 0 4,-4 v -59.66602 a 4.0004,4.0004 0 0 0 2.03125,-3.18555 v -0.66406 a 4.0004,4.0004 0 0 0 -4,-4 h -8.515625 a 4.0004,4.0004 0 0 0 -3.080078,1.77539 4.0004,4.0004 0 0 0 -2.193359,-1.77539 z m -0.619141,8.45117 a 4.0004,4.0004 0 0 0 0.470703,0.21094 c -0.238491,-0.009 -0.503448,-0.17311 -0.419922,-0.10352 z m 12.884766,0.19531 a 4.0004,4.0004 0 0 0 0.03516,0.0156 c -0.0308,-0.001 -0.005,-6.3e-4 -0.0332,-0.004 z m -12.419922,54.20899 a 4.0004,4.0004 0 0 0 -0.496094,0.22266 l 0.06836,-0.14844 c -0.152143,0.1278 0.07914,-0.0608 0.427735,-0.0742 z m 8.783203,0 c 0.348247,0.0134 0.579778,0.20194 0.427734,0.0742 l 0.07227,0.15039 a 4.0004,4.0004 0 0 0 -0.5,-0.22461 z" id="path15"/>
                <path style="font-size:80px;line-height:125%;font-family:'Runic MT Condensed';letter-spacing:5.35px;baseline-shift:baseline;display:inline;overflow:visible;vector-effect:none;stroke:none;enable-background:accumulate;stop-color:#000000;stop-opacity:1" d="m 34.214045,883.39349 -1.679688,-46.91406 c -0.651056,-0.52077 -1.302097,-0.79421 -1.953125,-0.82031 v -0.66406 h 8.515625 v 0.66406 c -0.989604,0.0782 -1.666687,0.35162 -2.03125,0.82031 v 62.03125 h -4.0625 l -5.664062,-27.77344 c -1.041676,-5.10413 -1.822925,-9.6484 -2.34375,-13.63281 l -2.460938,-18.98437 2.070313,58.86718 c 0.651033,0.54688 1.315095,0.83334 1.992187,0.85938 v 0.66406 h -8.476562 v -0.66406 c 0.677081,-0.026 1.341143,-0.3125 1.992187,-0.85938 v -60.50781 c -0.625002,-0.52077 -1.289064,-0.79421 -1.992187,-0.82031 v -0.66406 h 7.1875 l 4.375,20.54687 c 0.807278,3.80212 1.562485,8.02087 2.265625,12.65625 z" id="path16"/>
            </g>
            <g id="path3034" style="opacity:1">
                <path style="font-size:80px;line-height:125%;font-family:'Runic MT Condensed';letter-spacing:5.35px;baseline-shift:baseline;display:inline;overflow:visible;vector-effect:none;fill:#ffffff;stroke:none;enable-background:accumulate;stop-color:#000000;stop-opacity:1" d="m 47.455078,830.99414 a 4.0004,4.0004 0 0 0 -3.994141,3.79492 l -1.054687,20.39063 a 4.0004,4.0004 0 0 0 3.994141,4.20508 h 0.664062 a 4.0004,4.0004 0 0 0 2.953125,-2.42383 v 38.57422 a 4.0004,4.0004 0 0 0 -2.03125,2.31054 v 0.66407 a 4.0004,4.0004 0 0 0 4,4 h 9.414063 a 4.0004,4.0004 0 0 0 4,-4 v -0.66407 a 4.0004,4.0004 0 0 0 -1.992188,-2.29492 v -38.63867 a 4.0004,4.0004 0 0 0 3.109375,2.47266 h 0.664063 a 4.0004,4.0004 0 0 0 3.992187,-4.23633 l -1.210937,-20.39063 a 4.0004,4.0004 0 0 0 -3.992188,-3.76367 z" id="path17"/>
                <path style="font-size:80px;line-height:125%;font-family:'Runic MT Condensed';letter-spacing:5.35px;baseline-shift:baseline;display:inline;overflow:visible;vector-effect:none;stroke:none;enable-background:accumulate;stop-color:#000000;stop-opacity:1" d="m 54.017168,896.98724 v -58.32031 h -1.09375 c -0.390632,6e-5 -0.722663,0.11074 -0.996094,0.33203 -0.273443,0.22142 -0.677089,0.97011 -1.210937,2.2461 -0.533859,1.27609 -1.126306,3.19666 -1.777344,5.76171 -0.651044,2.56516 -1.276044,5.35812 -1.875,8.37891 h -0.664062 l 1.054687,-20.39062 h 18.515625 l 1.210938,20.39062 h -0.664063 c -1.796894,-7.76036 -3.079445,-12.48692 -3.847656,-14.17969 -0.768246,-1.69265 -1.569026,-2.539 -2.402344,-2.53906 h -0.859375 v 58.32031 c 0.598944,0.46875 1.263006,0.75521 1.992188,0.85938 v 0.66406 h -9.414063 v -0.66406 c 0.807284,-0.10417 1.484367,-0.39063 2.03125,-0.85938 z" id="path18"/>
            </g>
            <g id="path3036" style="opacity:1">
                <path style="font-size:80px;line-height:125%;font-family:'Runic MT Condensed';letter-spacing:5.35px;baseline-shift:baseline;display:inline;overflow:visible;vector-effect:none;fill:#ffffff;stroke:none;enable-background:accumulate;stop-color:#000000;stop-opacity:1" d="m 80.109375,830.52539 a 4.0004,4.0004 0 0 0 -3.988281,3.69336 l -4.779297,62.11914 a 4.0004,4.0004 0 0 0 -1.248047,1.50781 v 0.66407 a 4.0004,4.0004 0 0 0 4,4 h 6.71875 a 4.0004,4.0004 0 0 0 1.367187,-0.56641 4.0004,4.0004 0 0 0 1.367188,0.56641 h 8.242187 a 4.0004,4.0004 0 0 0 4,-4 v -0.66407 a 4.0004,4.0004 0 0 0 -1.634765,-2.99023 l -4.587891,-60.63086 a 4.0004,4.0004 0 0 0 -3.988281,-3.69922 z m -6.763672,63.39258 a 4.0004,4.0004 0 0 0 -1.882812,2.27344 l 0.345703,-1.14649 c 0.255766,-0.46037 1.115262,-1.0466 1.537109,-1.12695 z m 8.921875,0.21094 c -0.01681,-0.0118 0.113887,0.0592 0.08398,0.0293 l 0.01563,0.043 a 4.0004,4.0004 0 0 0 -0.177734,0.23047 4.0004,4.0004 0 0 0 -0.138672,-0.17969 c 0.124768,-0.0851 0.136729,-0.086 0.216797,-0.12304 z" id="path19"/>
                <path style="font-size:80px;line-height:125%;font-family:'Runic MT Condensed';letter-spacing:5.35px;baseline-shift:baseline;display:inline;overflow:visible;vector-effect:none;stroke:none;enable-background:accumulate;stop-color:#000000;stop-opacity:1" d="m 85.578112,834.52631 4.726562,62.46093 c 0.364566,0.52084 0.859357,0.8073 1.484375,0.85938 v 0.66406 h -8.242187 v -0.66406 c 0.703114,-0.18229 1.11978,-0.46875 1.25,-0.85938 l -0.46875,-12.77343 h -4.140625 l -0.664063,12.77343 c 0.468744,0.46875 0.898431,0.75521 1.289063,0.85938 v 0.66406 h -6.71875 v -0.66406 c 0.546873,-0.10417 0.950519,-0.39063 1.210937,-0.85938 l 4.804688,-62.46093 z m -1.484375,45.58593 -1.914063,-41.5625 -1.992187,41.5625 z" id="path20"/>
            </g>
            <g id="path3038" style="opacity:1">
                <path style="font-size:80px;line-height:125%;font-family:'Runic MT Condensed';letter-spacing:5.35px;baseline-shift:baseline;display:inline;overflow:visible;vector-effect:none;fill:#ffffff;stroke:none;enable-background:accumulate;stop-color:#000000;stop-opacity:1" d="m 106.98242,830.52539 c -3.76477,4e-5 -7.457254,2.11697 -9.347654,5.37109 -1.8904,3.25412 -2.503907,7.25207 -2.503907,12.14454 -10e-7,2.93734 0.310529,5.82882 0.933594,8.65429 0.595584,2.70098 1.250318,4.93699 2.080078,6.82422 0.781646,1.77791 2.065409,4.21274 3.941409,7.56836 a 4.0004,4.0004 0 0 0 0.008,0.0156 c 0.4957,0.87701 0.83557,1.63818 1.2168,2.43164 a 4.0004,4.0004 0 0 0 -1.39649,0.69336 l -5.82031,6.79687 a 4.0004,4.0004 0 0 0 -0.962891,2.60156 v 2.8125 c 0,4.59298 0.620121,8.40884 2.544922,11.51367 1.924802,3.10484 5.561999,5.0254 9.228519,5.0254 3.92195,0 7.74067,-2.12878 9.73828,-5.49219 1.9976,-3.36341 2.66014,-7.53895 2.66015,-12.64844 -2e-5,-3.63325 -0.37042,-6.99609 -1.1582,-10.08789 -0.85343,-3.34919 -2.6271,-7.10986 -5.2793,-11.68359 -0.82152,-1.41604 -0.98022,-2.05816 -1.5332,-3.18164 a 4.0004,4.0004 0 0 0 0.17188,-0.0488 l 5.89843,-4.57032 a 4.0004,4.0004 0 0 0 1.54883,-3.1621 v -2.53907 c -1e-5,-5.36623 -0.61237,-9.66904 -2.45703,-13.15039 -1.84466,-3.48134 -5.59731,-5.88863 -9.51172,-5.88867 z" id="path21"/>
                <path style="font-size:80px;line-height:125%;font-family:'Runic MT Condensed';letter-spacing:5.35px;baseline-shift:baseline;display:inline;overflow:visible;vector-effect:none;stroke:none;enable-background:accumulate;stop-color:#000000;stop-opacity:1" d="m 99.131227,883.62787 5.820313,-6.79688 0.50781,0.46875 c -0.59896,1.61461 -0.89844,4.362 -0.89844,8.24219 0,4.01043 0.14323,6.56251 0.42969,7.65625 0.28645,1.09376 0.93749,1.64063 1.95313,1.64063 1.95311,0 2.92967,-3.02083 2.92968,-9.0625 -1e-5,-3.41145 -0.29298,-6.28905 -0.8789,-8.63282 -0.58595,-2.34372 -1.72527,-5.01299 -3.41797,-8.00781 -1.84896,-3.30726 -3.10547,-5.71611 -3.76953,-7.22656 -0.66407,-1.51038 -1.27605,-3.53512 -1.835939,-6.07422 -0.559897,-2.53902 -0.839845,-5.13667 -0.839844,-7.79297 -10e-7,-9.01036 2.617183,-13.51556 7.851563,-13.51562 5.31249,6e-5 7.96873,5.01308 7.96875,15.03906 v 2.53906 l -5.89844,4.57031 -0.39062,-0.46875 c 0.59894,-2.0312 0.89842,-4.25776 0.89843,-6.67968 -1e-5,-3.51558 -0.13022,-6.19135 -0.39062,-8.02735 -0.26043,-1.83588 -0.93751,-2.75384 -2.03125,-2.7539 -1.71876,6e-5 -2.57813,2.66932 -2.57813,8.00781 0,4.71359 0.3125,8.09249 0.9375,10.13672 0.625,2.04431 1.92708,4.77217 3.90625,8.18359 2.55207,4.40107 4.17317,7.95576 4.86329,10.66406 0.69008,2.70836 1.03513,5.74221 1.03515,9.10157 -2e-5,9.42708 -2.79949,14.14062 -8.39844,14.14062 -5.18229,0 -7.773434,-4.17968 -7.773433,-12.53906 z" id="path22"/>
            </g>
            <g id="path3040" style="opacity:1">
                <path style="font-size:80px;line-height:125%;font-family:'Runic MT Condensed';letter-spacing:5.35px;baseline-shift:baseline;display:inline;overflow:visible;vector-effect:none;fill:#ffffff;stroke:none;enable-background:accumulate;stop-color:#000000;stop-opacity:1" d="m 122.13672,830.99414 a 4.0004,4.0004 0 0 0 -4,4 v 0.66406 a 4.0004,4.0004 0 0 0 2.36133,3.34766 l 5.06054,30.15039 v 26.45898 a 4.0004,4.0004 0 0 0 -1.91406,2.23047 v 0.66407 a 4.0004,4.0004 0 0 0 4,4 h 9.375 a 4.0004,4.0004 0 0 0 4,-4 v -0.66407 a 4.0004,4.0004 0 0 0 -2.03125,-2.33008 v -26.67773 l 4.76563,-29.83203 a 4.0004,4.0004 0 0 0 2.38281,-3.34766 v -0.66406 a 4.0004,4.0004 0 0 0 -4,-4 h -8.39844 a 4.0004,4.0004 0 0 0 -1.13281,0.46875 4.0004,4.0004 0 0 0 -1.13281,-0.46875 z m 4.46484,63.4043 a 4.0004,4.0004 0 0 0 -0.44922,0.52539 l 0.0156,-0.0566 c 0.19457,-0.3113 0.27988,-0.30866 0.43359,-0.46875 z" id="path23"/>
                <path style="font-size:80px;line-height:125%;font-family:'Runic MT Condensed';letter-spacing:5.35px;baseline-shift:baseline;display:inline;overflow:visible;vector-effect:none;stroke:none;enable-background:accumulate;stop-color:#000000;stop-opacity:1" d="m 134.98905,868.51068 v 28.47656 c 0.59894,0.46875 1.27602,0.75521 2.03125,0.85938 v 0.66406 h -9.375 v -0.66406 c 1.01561,-0.15625 1.65363,-0.44271 1.91406,-0.85938 v -28.16406 l -5.42969,-32.34375 c -0.0781,-0.44264 -0.74219,-0.71608 -1.99219,-0.82031 v -0.66406 h 9.33594 v 0.66406 c -0.96355,0.0521 -1.60157,0.32558 -1.91406,0.82031 l 3.47656,28.90625 2.69531,-28.90625 c -0.72918,-0.49473 -1.39324,-0.76817 -1.99218,-0.82031 v -0.66406 h 8.39843 v 0.66406 c -0.96356,0.0521 -1.64064,0.32558 -2.03125,0.82031 z" id="path24"/>
            </g>
        </g>
        <g id="rect3225" style="opacity:1">
            <path style="baseline-shift:baseline;display:inline;overflow:visible;vector-effect:none;fill:#ffffff;stroke-linecap:round;stroke-linejoin:round;paint-order:markers stroke fill;enable-background:accumulate;stop-color:#000000;stop-opacity:1" d="m -171.70898,900.8418 a 4.0004,4.0004 0 0 0 -4,4 v 2.47461 a 4.0004,4.0004 0 0 0 4,4 h 320.56054 a 4.0004,4.0004 0 0 0 4,-4 v -2.47461 a 4.0004,4.0004 0 0 0 -4,-4 z" id="path25"/>
            <path style="baseline-shift:baseline;display:inline;overflow:visible;vector-effect:none;stroke-linecap:round;stroke-linejoin:round;paint-order:markers stroke fill;enable-background:accumulate;stop-color:#000000;stop-opacity:1" d="m -171.70956,904.84143 h 320.56198 v 2.475 h -320.56198 z" id="path26"/>
        </g>
        <g style="font-style:normal;font-variant:normal;font-weight:normal;font-stretch:normal;font-size:40px;line-height:125%;font-family:'MS Gothic';letter-spacing:0px;word-spacing:0px;fill:#000000;fill-opacity:1;stroke:#ffffff;stroke-width:5;stroke-linecap:round;stroke-linejoin:round;stroke-dasharray:none;stroke-opacity:1;paint-order:markers stroke fill" id="text3227">
            <g id="path3044" style="opacity:1">
                <path style="font-size:8px;line-height:125%;font-family:Arial;baseline-shift:baseline;display:inline;overflow:visible;vector-effect:none;fill:#ffffff;stroke:none;enable-background:accumulate;stop-color:#000000;stop-opacity:1" d="m 143.88672,890.58398 c -0.92238,2e-5 -1.84185,0.25453 -2.63477,0.68164 -0.86978,0.46854 -1.61937,1.21158 -2.09961,2.07032 -0.45241,0.80897 -0.71484,1.75489 -0.71484,2.69726 0,0.93517 0.25853,1.87592 0.70508,2.67969 0.47384,0.85294 1.21008,1.59086 2.06445,2.06445 a 2.50025,2.50025 0 0 0 0.002,0 c 0.80489,0.44616 1.74427,0.70118 2.67774,0.70118 0.93347,0 1.87478,-0.25501 2.67969,-0.70118 0.85524,-0.47407 1.59176,-1.21326 2.06445,-2.06836 0.44402,-0.80326 0.70117,-1.74274 0.70117,-2.67578 0,-0.94026 -0.25909,-1.88488 -0.70898,-2.69336 -0.47909,-0.86092 -1.23094,-1.60522 -2.10157,-2.07422 -0.79289,-0.42709 -1.71238,-0.68162 -2.63476,-0.68164 z m -0.006,5.39649 c -9.5e-4,-5.3e-4 0.005,0.005 0.006,0.006 5.8e-4,-8.4e-4 0.007,-0.006 0.006,-0.006 -0.0416,0.0231 -0.0151,0.012 -0.004,0.008 0.007,0.009 0.0335,0.0351 0.041,0.041 -0.003,0.009 -0.0125,0.0323 0.008,-0.004 6.1e-4,-0.001 -0.005,0.006 -0.006,0.006 4.3e-4,2.6e-4 0.004,0.004 0.004,0.004 -0.0233,-0.0417 -0.012,-0.0136 -0.008,-0.002 -0.007,0.005 -0.0228,0.0212 -0.041,0.0391 -0.0175,-0.0171 -0.032,-0.0291 -0.043,-0.0391 0,1.2e-4 0.0192,-0.0444 -0.01,0.008 -2.6e-4,4.8e-4 0.005,-0.008 0.008,-0.01 2.3e-4,2e-4 0.002,-2.2e-4 0.002,0 0.0123,-0.0115 0.0341,-0.0344 0.041,-0.043 0.0112,0.004 0.0377,0.0153 -0.004,-0.008 z" id="path27"/>
                <path style="font-size:8px;line-height:125%;font-family:Arial;baseline-shift:baseline;display:inline;overflow:visible;vector-effect:none;stroke:none;enable-background:accumulate;stop-color:#000000;stop-opacity:1" d="m 143.88684,893.0849 c 0.49479,1e-5 0.97786,0.12696 1.44922,0.38086 0.47135,0.25391 0.83854,0.61719 1.10156,1.08984 0.26302,0.47266 0.39453,0.9655 0.39453,1.47852 0,0.50781 -0.12956,0.99609 -0.38867,1.46484 -0.25912,0.46875 -0.6224,0.83269 -1.08984,1.0918 -0.46745,0.25911 -0.95639,0.38867 -1.4668,0.38867 -0.51042,0 -0.99935,-0.12956 -1.4668,-0.38867 -0.46744,-0.25911 -0.83138,-0.62305 -1.09179,-1.0918 -0.26042,-0.46875 -0.39063,-0.95703 -0.39063,-1.46484 0,-0.51302 0.13216,-1.00586 0.39649,-1.47852 0.26432,-0.47265 0.63216,-0.83593 1.10351,-1.08984 0.47135,-0.2539 0.95443,-0.38085 1.44922,-0.38086 z m 0,0.48828 c -0.41406,10e-6 -0.81706,0.10613 -1.20898,0.31836 -0.39193,0.21224 -0.69857,0.51563 -0.91993,0.91016 -0.22135,0.39453 -0.33203,0.80534 -0.33203,1.23242 0,0.42448 0.10873,0.83138 0.32618,1.2207 0.21744,0.38933 0.52148,0.69271 0.9121,0.91016 0.39063,0.21745 0.79818,0.32617 1.22266,0.32617 0.42448,0 0.83203,-0.10872 1.22266,-0.32617 0.39062,-0.21745 0.694,-0.52083 0.91015,-0.91016 0.21614,-0.38932 0.32422,-0.79622 0.32422,-1.2207 0,-0.42708 -0.11003,-0.83789 -0.33008,-1.23242 -0.22005,-0.39453 -0.52669,-0.69792 -0.91992,-0.91016 -0.39323,-0.21223 -0.79557,-0.31835 -1.20703,-0.31836 z m 0.94531,2.9375 0.48047,0.14063 c -0.0781,0.32552 -0.24414,0.58528 -0.49804,0.77929 -0.25391,0.19401 -0.56186,0.29102 -0.92383,0.29102 -0.45834,0 -0.83073,-0.14844 -1.11719,-0.44531 -0.28646,-0.29688 -0.42969,-0.70833 -0.42969,-1.23438 0,-0.34375 0.0651,-0.64257 0.19531,-0.89648 0.13021,-0.25391 0.31576,-0.44531 0.55665,-0.57422 0.24088,-0.1289 0.51627,-0.19336 0.82617,-0.19336 0.34635,0 0.63411,0.0827 0.86328,0.24805 0.22916,0.16536 0.38541,0.38997 0.46875,0.67382 l -0.46485,0.11328 c -0.0781,-0.1927 -0.19336,-0.34049 -0.3457,-0.44335 -0.15235,-0.10287 -0.33138,-0.1543 -0.53711,-0.1543 -0.29948,0 -0.54622,0.10677 -0.74023,0.32031 -0.19401,0.21355 -0.29102,0.51954 -0.29102,0.91797 0,0.39844 0.0918,0.69987 0.27539,0.9043 0.18359,0.20443 0.42122,0.30664 0.71289,0.30664 0.23438,0 0.4401,-0.0677 0.61719,-0.20313 0.17708,-0.13541 0.29427,-0.31901 0.35156,-0.55078 z" id="path28"/>
            </g>
        </g>
        <g transform="scale(0.92696404,1.0787905)" style="font-style:normal;font-variant:normal;font-weight:normal;font-stretch:normal;font-size:31.1062px;line-height:125%;font-family:'MS Gothic';letter-spacing:0px;word-spacing:0px;fill:#000000;fill-opacity:1;stroke:#ffffff;stroke-width:5;stroke-linecap:round;stroke-linejoin:round;stroke-dasharray:none;stroke-opacity:1;paint-order:markers stroke fill" id="text3231">
            <g id="path3047" style="opacity:1">
                <path style="font-size:medium;line-height:125%;letter-spacing:-5.08px;baseline-shift:baseline;display:inline;overflow:visible;vector-effect:none;fill:#ffffff;stroke:none;enable-background:accumulate;stop-color:#000000;stop-opacity:1" d="m 33.416016,845.00391 a 2.50025,2.50025 0 0 0 -3.230469,0.84765 c 0.07032,-0.1067 0.523285,-0.54078 1.083984,-0.61133 l 0.03906,-0.006 c -4.227754,0.46543 -6.757934,0.66785 -7.095703,0.6875 a 2.50025,2.50025 0 0 0 -0.01953,-0.0195 c -0.426818,-0.23723 -1.027702,-0.73556 -2.378906,-0.3125 -0.675602,0.21154 -1.336577,0.83728 -1.603516,1.38477 -0.266938,0.54749 -0.287111,0.96695 -0.287109,1.28711 a 2.50025,2.50025 0 0 0 0.01953,0.31055 c 0.149761,1.19074 0.865206,2.07054 1.582032,2.65625 0.209179,0.19835 0.411707,0.38804 0.6875,0.57421 0.336388,0.22708 0.745025,0.56647 1.730468,0.56641 0.449467,2e-5 1.052286,-0.10165 1.619141,-0.4707 0.03383,-0.022 0.03565,-0.0661 0.06836,-0.0899 0.12531,-0.026 0.226838,-0.0508 0.460938,-0.0859 h 0.002 c 0.701293,-0.0964 0.725778,-0.0906 1.316406,-0.16993 -1.231955,1.4493 -2.835554,2.64619 -5.009765,3.58985 a 2.50025,2.50025 0 0 0 -1.28125,1.25976 c -0.219765,0.48393 -0.628169,1.37979 0.01953,2.59766 0.6477,1.21787 1.939212,1.45703 2.533203,1.45703 a 2.50025,2.50025 0 0 0 0.835937,-0.14258 c 4.721778,-1.67429 8.261118,-4.86115 10.3125,-9.13281 0.170109,-0.0722 0.27546,-0.007 0.460938,-0.13086 0.740249,-0.4947 1.261682,-1.62361 1.261719,-2.38086 -1.09e-4,-1.40054 -0.795507,-2.08941 -1.3125,-2.50195 -0.554845,-0.44315 -1.162735,-0.829 -1.814453,-1.16406 z m -12.607422,4.32421 c 0.315628,0.55238 0.79191,0.86361 1.271484,1.11524 -0.178792,-0.0651 -0.291344,-0.15795 -0.316406,-0.17188 z m 14.558593,0.82813 -0.08398,0.18555 c -0.0071,0.0141 -0.02192,0.0134 -0.0293,0.0273 0.03156,-0.0756 0.08265,-0.13668 0.113281,-0.21289 z m -8.84375,0.54883 -0.416015,0.67383 c -0.33409,0.33409 -0.199189,0.15651 -0.302735,0.20312 0.289053,-0.26586 0.512311,-0.55621 0.667969,-0.87109 0.013,-0.001 0.03768,-0.005 0.05078,-0.006 z m 7.640625,0.66211 c -0.02553,0.0114 -0.05622,0.065 -0.08008,0.0742 -0.355527,0.13712 -0.549789,0.13085 -0.642578,0.13086 0.188028,0 0.492167,-0.17003 0.722656,-0.20508 z" id="path29"/>
                <path style="font-size:medium;line-height:125%;letter-spacing:-5.08px;baseline-shift:baseline;display:inline;overflow:visible;vector-effect:none;stroke:none;enable-background:accumulate;stop-color:#000000;stop-opacity:1" d="m 31.885639,848.45685 c -0.860688,0.082 -2.914885,0.34636 -6.162597,0.79297 -0.802089,0.12012 -1.263351,0.2404 -1.38379,0.36084 -0.05697,0.17188 -0.188968,0.25782 -0.395996,0.25781 -0.170251,10e-6 -0.442711,-0.18391 -0.817382,-0.55176 -0.422529,-0.33886 -0.656741,-0.69074 -0.702637,-1.05566 -2e-6,-0.32161 0.185056,-0.37955 0.555176,-0.17383 0.13932,0.24382 0.440589,0.36573 0.903808,0.36572 0.694657,10e-6 3.261224,-0.24429 7.699707,-0.73291 0.266265,-0.0335 0.49657,-0.19774 0.690918,-0.49267 0.519193,0.26693 0.985013,0.56511 1.397461,0.89453 0.248033,0.19792 0.372057,0.3807 0.37207,0.54834 -1.3e-5,0.26758 -0.200209,0.40137 -0.600585,0.40136 -0.212579,10e-6 -0.344252,0.0508 -0.39502,0.15235 -1.690441,4.20573 -4.815112,7.11686 -9.374023,8.7334 -0.342777,0 -0.435225,-0.17383 -0.277344,-0.52149 4.314771,-1.87272 7.15982,-4.81103 8.535156,-8.81494 0.116525,-0.14875 0.101551,-0.20344 -0.04492,-0.16406 z" id="path30"/>
            </g>
            <g id="path3049" style="opacity:1">
                <path style="font-size:medium;line-height:125%;letter-spacing:-5.08px;baseline-shift:baseline;display:inline;overflow:visible;vector-effect:none;fill:#ffffff;stroke:none;enable-background:accumulate;stop-color:#000000;stop-opacity:1" d="m 41.851562,847.37695 c -0.07013,0.007 -0.09662,0.009 -0.166015,0.0156 a 2.50025,2.50025 0 0 0 -0.125,-0.004 c -0.101741,0.0585 0.01913,0.0169 0.02734,0.0137 -2.568027,0.25704 -4.619449,0.4634 -6.177735,0.61914 -0.212184,-0.12206 -0.423839,-0.25138 -0.814453,-0.33398 -0.488951,-0.1034 -1.292957,-0.0849 -1.972656,0.33008 -0.679699,0.41499 -1.024196,1.05585 -1.166016,1.49219 -0.14182,0.43633 -0.154299,0.74787 -0.154297,1.01757 a 2.50025,2.50025 0 0 0 0.01953,0.31055 c 0.139626,1.12104 0.858407,2.09956 1.613281,2.66602 a 2.50025,2.50025 0 0 0 0.04687,0.0332 c 0.435384,0.31127 0.51982,0.79297 2.095703,0.79297 0.178296,0 0.313345,-0.17182 0.496094,-0.20703 -0.200425,1.02324 -0.712163,1.8954 -2.244141,2.85156 a 2.50025,2.50025 0 0 0 -0.841797,0.86914 c -0.257235,0.44499 -0.823606,1.24047 -0.224609,2.62891 0.299498,0.69421 0.961497,1.21884 1.458984,1.42187 0.497487,0.20303 0.859129,0.2168 1.152344,0.2168 a 2.50025,2.50025 0 0 0 1.023437,-0.21875 c 2.989477,-1.33853 5.043373,-3.87058 5.791016,-6.90821 0.930275,-0.50849 1.863807,-1.00802 2.449219,-1.44921 0.215917,-0.0254 0.325575,0.046 0.625,-0.0684 0.760735,-0.29058 1.749934,-1.58626 1.75,-2.5293 -10e-5,-1.18088 -0.479042,-1.70471 -0.833985,-2.14844 a 2.50025,2.50025 0 0 0 -0.03125,-0.0391 c -0.427817,-0.51373 -0.902507,-0.89505 -1.433593,-1.25781 a 2.50025,2.50025 0 0 0 -2.482422,-0.0977 z m -9.333984,4.61133 c 0.263025,0.2655 0.605413,0.38515 0.927734,0.54492 -0.228594,-0.0677 -0.412176,-0.14399 -0.472656,-0.18164 z m 11.164063,1.59766 c -0.117814,0.027 -0.06967,0.0683 -0.236329,0.0684 l -0.269531,-0.0137 c 0.124325,0.0135 0.363177,-0.0619 0.50586,-0.0547 z" id="path31"/>
                <path style="font-size:medium;line-height:125%;letter-spacing:-5.08px;baseline-shift:baseline;display:inline;overflow:visible;vector-effect:none;stroke:none;enable-background:accumulate;stop-color:#000000;stop-opacity:1" d="m 34.653296,859.09552 c 2.579095,-1.6097 3.789055,-3.6792 3.629882,-6.2085 -0.576178,-0.30533 -0.61166,-0.53629 -0.106445,-0.69287 1.031242,-0.043 1.485668,0.13982 1.363281,0.54834 0.825186,-0.62369 1.584626,-1.28238 2.278321,-1.97607 0.294585,-0.14941 0.312814,-0.20491 0.05469,-0.16651 -3.907884,0.4476 -5.985031,0.77703 -6.231445,0.98829 -0.160486,0.16081 -0.348149,0.24121 -0.562989,0.24121 -0.124678,0 -0.33887,-0.10856 -0.642578,-0.32569 -0.375654,-0.28189 -0.586428,-0.60709 -0.632324,-0.97558 -3e-6,-0.40299 0.163409,-0.50276 0.490235,-0.29932 0.243486,0.24578 0.593908,0.34978 1.051269,0.31201 1.648106,-0.1647 3.899894,-0.38996 6.755371,-0.67578 0.170562,-0.0342 0.405425,-0.1372 0.70459,-0.30908 0.40461,0.27637 0.712227,0.54102 0.922852,0.79394 0.190091,0.23764 0.285143,0.43361 0.285156,0.5879 -1.3e-5,0.18587 -0.189629,0.2583 -0.568848,0.21728 -0.221366,10e-6 -0.464367,0.11345 -0.729004,0.34033 -0.529308,0.40691 -1.591156,1.02898 -3.185547,1.86621 -0.286792,2.90593 -1.83806,4.98926 -4.653808,6.25 -0.347334,0 -0.421553,-0.17204 -0.222656,-0.51611 z" id="path32"/>
            </g>
            <g id="path3051" style="opacity:1">
                <path style="font-size:medium;line-height:125%;letter-spacing:-5.08px;baseline-shift:baseline;display:inline;overflow:visible;vector-effect:none;fill:#ffffff;stroke:none;enable-background:accumulate;stop-color:#000000;stop-opacity:1" d="m 52.607422,843.50781 a 2.50025,2.50025 0 0 0 -0.710938,0.0566 c -0.238613,0.0544 -0.49816,0.11968 -0.859375,0.3086 -0.361214,0.18892 -0.949142,0.54847 -1.287109,1.41992 -0.176224,0.45439 -0.178479,0.94579 -0.101563,1.38867 -1.759179,1.92274 -4.172599,3.86284 -7.611328,5.73242 a 2.50025,2.50025 0 0 0 -0.810547,0.70508 c -0.167451,0.22514 -0.347427,0.48097 -0.501953,0.92188 -0.154525,0.4409 -0.291133,1.2054 0.06055,2.01171 0.35168,0.80632 1.097333,1.29011 1.585938,1.46485 0.488605,0.17474 0.824817,0.18165 1.117187,0.18164 a 2.50025,2.50025 0 0 0 0.878906,-0.1582 c 0.990588,-0.37137 1.980911,-0.89849 2.97461,-1.46875 0,0.17201 -10e-7,0.33092 0,0.5039 2e-6,-0.0702 -0.0064,0.0929 -0.08203,0.3711 a 2.50025,2.50025 0 0 0 -0.0098,0.0371 c -0.267552,1.04737 0.07345,2.40492 0.724609,3.19922 a 2.50025,2.50025 0 0 0 0.01172,0.0137 c 0.441705,0.53017 0.977867,1.36328 2.578125,1.36328 0.846465,0 2.027448,-0.66225 2.466797,-1.40821 0.439349,-0.74596 0.451163,-1.31938 0.451172,-1.80078 -8e-6,-1.93818 -5e-6,-3.85285 0,-5.76172 0.07206,-0.0971 0.143434,-0.11308 0.210937,-0.23632 0.173555,-0.31686 0.149863,-0.76875 0.173828,-1.19336 0.378583,-0.33827 0.802216,-0.65623 1.136719,-1.01563 0.262086,-0.0614 0.423045,0.0398 0.734375,-0.14648 0.837965,-0.50134 1.35934,-1.70736 1.359375,-2.43164 -1.03e-4,-1.64564 -0.827283,-2.16759 -1.390625,-2.66016 l 0.375,0.41211 c -0.811877,-1.11665 -2.228083,-1.73269 -3.474609,-1.81055 z m 0.697265,2.16602 c -0.05556,0.0168 -0.09929,0.0354 -0.152343,0.0547 0.0078,-0.005 0.01166,-0.0168 0.01953,-0.0215 0.0766,-0.0458 0.06382,1.7e-4 0.132812,-0.0332 z m 1.238282,3.15429 -0.0625,0.0762 c 0.0062,-0.007 0.0095,-0.0238 0.01563,-0.0312 0.01264,-0.0161 0.03429,-0.0288 0.04687,-0.0449 z m 0.927734,0.89844 -0.337891,0.32617 c -0.0045,0.004 -0.03576,0.01 -0.04102,0.0137 0.110535,-0.12058 0.273411,-0.21677 0.378906,-0.33985 z m -0.880859,0.5 c -0.186553,0.0783 -0.254699,0.18162 -0.5625,0.18164 l -0.123047,-0.008 c -0.004,-0.0151 -0.01347,-0.0184 -0.01758,-0.0332 0.178446,0.0176 0.478926,-0.12501 0.703125,-0.14063 z m -2.498047,7.98438 c -7.58e-4,0.003 0.0028,0.009 0.002,0.0117 l -0.0098,0.0371 c 0.0043,-0.0159 0.0036,-0.033 0.0078,-0.0488 z" id="path33"/>
                <path style="font-size:medium;line-height:125%;letter-spacing:-5.08px;baseline-shift:baseline;display:inline;overflow:visible;vector-effect:none;stroke:none;enable-background:accumulate;stop-color:#000000;stop-opacity:1" d="m 50.981499,851.43048 c -9e-6,2.28614 -9e-6,4.59343 0,6.92188 -9e-6,0.472 -0.139007,0.708 -0.416992,0.708 -0.180998,0 -0.399911,-0.15413 -0.656739,-0.4624 -0.248705,-0.30338 -0.327156,-0.63476 -0.235351,-0.99414 0.112297,-0.41276 0.168449,-0.75553 0.168457,-1.02832 -8e-6,-1.79752 -8e-6,-3.54296 0,-5.23633 -2.237636,1.82488 -4.354984,3.11166 -6.352051,3.86035 -0.463217,10e-6 -0.548829,-0.19628 -0.256836,-0.58886 4.195307,-2.28092 7.309073,-4.72167 9.341309,-7.32227 0.139312,-0.16438 0.190256,-0.32339 0.152832,-0.47705 -0.02605,-0.0775 -0.179861,-0.18667 -0.461426,-0.32764 -0.308604,-0.22199 -0.246429,-0.38231 0.186523,-0.48095 0.72525,0.0453 1.261707,0.30697 1.609375,0.78515 0.35741,0.31251 0.53612,0.57228 0.536133,0.7793 -1.3e-5,0.26759 -0.189628,0.38103 -0.568848,0.34033 -0.143241,1e-5 -0.295259,0.0643 -0.456054,0.19287 -0.740245,0.86362 -1.665049,1.68849 -2.774414,2.47461 0.898753,0.34506 0.960114,0.63022 0.184082,0.85547 z" id="path34"/>
            </g>
            <g id="path3053" style="opacity:1">
                <path style="font-weight:bold;font-size:16px;line-height:125%;font-family:'MS Mincho';letter-spacing:-3.46px;baseline-shift:baseline;display:inline;overflow:visible;vector-effect:none;fill:#ffffff;stroke:none;enable-background:accumulate;stop-color:#000000;stop-opacity:1" d="m 60.720703,843.45117 c -0.515128,-0.0419 -1.053817,5.1e-4 -1.59375,0.17188 a 2.50025,2.50025 0 0 0 -0.244141,0.0918 c -0.263493,0.11507 -0.588959,0.27935 -0.945312,0.65039 -0.356353,0.37104 -0.710085,1.03766 -0.746094,1.71094 -0.03318,0.62042 0.121086,1.04832 0.306641,1.39649 -0.39371,0.0229 -1.055452,0.0822 -1.31836,0.0898 -0.40942,-0.38218 -1.026489,-0.89449 -2.326171,-0.64453 -0.752945,0.14481 -1.404163,0.67961 -1.708985,1.11914 -0.304821,0.43953 -0.400582,0.78932 -0.466797,1.07812 a 2.50025,2.50025 0 0 0 -0.05078,0.31446 c -0.182477,1.85263 0.836397,2.81169 1.759766,3.63476 0.482456,0.47096 1.301946,0.95899 2.246093,0.95899 0.533158,0 1.082376,-0.22345 1.56836,-0.52539 0.101408,-0.0221 0.238998,-0.0536 0.515625,-0.0957 0.03548,-0.005 0.132164,-0.014 0.169922,-0.0195 -0.381979,1.1158 -1.010412,2.06826 -2.169922,2.88281 a 2.50025,2.50025 0 0 0 -0.91211,1.18946 c -0.184793,0.50789 -0.442277,1.53339 0.275391,2.59179 0.717668,1.05841 1.821293,1.20704 2.375,1.20704 a 2.50025,2.50025 0 0 0 1.140625,-0.27539 c 3.13434,-1.6086 5.080996,-4.52432 5.664063,-7.96094 0.902816,0.0133 1.932305,-0.0349 2.65039,0.0625 l -0.06836,-0.01 c 0.431917,0.0709 0.867846,0.17025 1.662109,-0.0586 0.397132,-0.11442 0.932107,-0.36466 1.363281,-0.87891 0.431175,-0.51425 0.632779,-1.22878 0.632813,-1.74609 -4.2e-5,-0.847 -0.397853,-1.61964 -0.808594,-2.08985 -0.390228,-0.44672 -0.790734,-0.70262 -1.191406,-0.92578 -0.586035,-0.35554 -1.228434,-0.61253 -1.886719,-0.75195 a 2.50025,2.50025 0 0 0 -1.707031,0.6543 l -0.0039,0.0703 c 0.0029,-0.023 -0.014,-0.0396 -0.01172,-0.0625 a 2.50025,2.50025 0 0 0 -0.0078,0.002 c 5.23e-4,-0.007 0.0034,-0.0148 0.0039,-0.0215 0.10844,-1.18963 -0.620638,-2.22707 -1.167969,-2.66016 -0.553565,-0.43802 -1.046518,-0.63178 -1.583984,-0.82226 -0.434666,-0.1626 -0.911405,-0.28721 -1.414063,-0.32813 z m -6.625,6.37695 c -0.08382,0.12499 -0.154655,0.13578 -0.242187,0.31055 l 0.15625,-0.26562 c 0.01183,-0.0177 0.07097,-0.0263 0.08594,-0.0449 z m -1.583984,0.93946 c 0.187093,0.33957 0.563014,0.65868 0.935547,0.96094 -0.286565,-0.13465 -0.421361,-0.31035 -0.460938,-0.34766 z m 5.460937,2.05273 c -0.002,0.008 -0.0019,0.0189 -0.0039,0.0274 -0.325088,0.40216 -0.588894,0.56103 -0.712891,0.60156 0.289042,-0.18793 0.526806,-0.40201 0.716797,-0.62891 z" id="path35"/>
                <path style="font-weight:bold;font-size:16px;line-height:125%;font-family:'MS Mincho';letter-spacing:-3.46px;baseline-shift:baseline;display:inline;overflow:visible;vector-effect:none;stroke:none;enable-background:accumulate;stop-color:#000000;stop-opacity:1" d="m 61.993786,850.4715 c 0.163402,3.88444 -1.34978,6.64518 -4.539551,8.28222 -0.307621,0 -0.407719,-0.14762 -0.300293,-0.44287 2.588861,-1.81868 3.804191,-4.4082 3.645996,-7.76855 -3.041346,0.28028 -4.611494,0.51921 -4.710449,0.71679 -0.117191,0.17579 -0.269371,0.26368 -0.456543,0.26368 -0.175784,0 -0.346519,-0.0828 -0.512207,-0.24854 -0.712892,-0.63378 -1.048015,-1.16715 -1.005371,-1.6001 0.08366,-0.3649 0.279133,-0.40249 0.586426,-0.11279 0.200519,0.36394 0.47005,0.54591 0.808593,0.5459 0.946611,10e-6 2.707189,-0.11702 5.281739,-0.35108 -8e-6,-0.92805 -8e-6,-1.75975 0,-2.49511 -8e-6,-0.36783 -0.311531,-0.62499 -0.934571,-0.77149 -0.234707,-0.21255 -0.226081,-0.37385 0.02588,-0.48388 0.39485,-0.12532 0.860832,-0.0858 1.39795,0.11865 0.801748,0.28321 1.182282,0.58432 1.141601,0.90332 -9e-6,0.21876 -0.103362,0.32813 -0.310059,0.32812 -0.07944,0.0397 -0.119149,0.19191 -0.11914,0.45655 -9e-6,0.61296 -9e-6,1.23503 0,1.86621 2.437163,10e-6 3.804512,-0.20426 4.102051,-0.6128 0.424465,0.0899 0.805975,0.24041 1.144531,0.45167 0.505844,0.27605 0.758774,0.5656 0.758789,0.86865 -1.5e-5,0.22689 -0.250829,0.29916 -0.752441,0.21679 -1.501966,-0.20376 -3.252941,-0.24755 -5.252931,-0.13134 z" id="path36"/>
            </g>
            <g id="path3055" style="opacity:1">
                <path style="font-weight:bold;font-size:16px;line-height:125%;font-family:'MS Mincho';letter-spacing:-3.46px;baseline-shift:baseline;display:inline;overflow:visible;vector-effect:none;fill:#ffffff;stroke:none;enable-background:accumulate;stop-color:#000000;stop-opacity:1" d="m 72.449219,844.91016 a 2.50025,2.50025 0 0 0 -1.453125,0.46679 c -0.308511,0.22048 -0.652016,0.69936 -0.910157,1.26953 -0.244936,-0.0167 -0.48967,-0.087 -0.730468,-0.0723 a 2.50025,2.50025 0 0 0 -1.189453,0.38672 c -0.461018,0.29337 -1.369556,0.9707 -1.376954,2.37109 -0.0034,0.63756 0.215523,1.09352 0.464844,1.46875 -0.532626,1.89386 -1.402746,3.53208 -2.847656,4.94727 a 2.50025,2.50025 0 0 0 -0.644531,1.06445 c -0.170961,0.56671 -0.312352,1.8689 0.660156,2.83789 0.972508,0.96899 1.944533,0.84171 2.46875,0.77344 a 2.50025,2.50025 0 0 0 1.230469,-0.51953 c 1.037509,-0.82284 1.820777,-1.85062 2.611328,-2.86914 0.02966,0.0346 0.05276,0.21246 0.07422,0.24609 0.12564,0.19691 0.221248,0.31226 0.318359,0.42773 0.194221,0.23095 0.392382,0.43732 0.640625,0.68555 0.463176,0.4632 0.966775,1.14258 2.443359,1.14258 0.660502,0 1.699948,-0.37628 2.25,-1.0918 0.06951,-0.0904 0.02153,-0.14737 0.07617,-0.23633 0.191643,-0.11869 0.416857,-0.25787 0.810547,-0.47656 a 2.50025,2.50025 0 0 0 0.144531,-0.0859 c 2.296241,-1.48581 4.18132,-3.13944 5.607422,-5.00781 a 2.50025,2.50025 0 0 0 0.490235,-1.17578 c 0.0843,-0.61086 -0.0224,-1.93862 -1.101563,-2.7207 -1.079159,-0.78208 -1.994713,-0.54734 -2.515625,-0.41211 a 2.50025,2.50025 0 0 0 -1.177734,0.68945 c -0.589498,0.61566 -1.221428,1.11246 -1.84961,1.61914 10e-7,-0.28429 -10e-7,-0.58805 0,-0.86914 0.234519,-0.40568 0.490211,-0.81152 0.490235,-1.34375 -9.2e-5,-1.5947 -0.980163,-2.25301 -1.558594,-2.63867 a 2.50025,2.50025 0 0 0 -0.126953,-0.0801 c -1.024689,-0.59812 -2.15878,-0.79686 -3.298828,-0.79687 z m 0.875,1.86328 a 2.50025,2.50025 0 0 0 -0.478516,0.77343 c -0.01831,-0.0126 -0.03876,-0.0427 -0.05664,-0.0547 -0.007,-0.005 -0.0164,-0.005 -0.02344,-0.01 0.240549,-0.39715 0.507749,-0.68356 0.558594,-0.70898 z m -3.41211,0.38086 0.04102,0.0156 c -3.39e-4,0.001 -0.0016,0.002 -0.002,0.004 -0.01135,-0.002 -0.02785,-0.0177 -0.03906,-0.0195 z m 0.1875,1.71289 c 0.04658,0.095 0.05247,0.24801 0.105469,0.33008 a 2.50025,2.50025 0 0 0 -0.642578,0.65234 c 0.0866,-0.34936 0.28569,-0.65787 0.537109,-0.98242 z m 4.271485,8.51953 a 2.50025,2.50025 0 0 0 0.298828,0.0215 c -0.06224,0.0654 -0.128572,0.18568 -0.183594,0.22657 -0.343255,0.25505 -0.491475,0.25958 -0.515625,0.26562 a 2.50025,2.50025 0 0 0 0.400391,-0.51367 z" id="path37"/>
                <path style="font-weight:bold;font-size:16px;line-height:125%;font-family:'MS Mincho';letter-spacing:-3.46px;baseline-shift:baseline;display:inline;overflow:visible;vector-effect:none;stroke:none;enable-background:accumulate;stop-color:#000000;stop-opacity:1" d="m 73.534275,856.62628 c -0.440763,-0.44075 -0.66114,-0.7028 -0.661133,-0.78613 -7e-6,-0.16113 0.163404,-0.28255 0.490235,-0.36426 -8e-6,-0.49251 -8e-6,-2.63199 0,-6.41846 -0.03875,-0.3509 -0.104989,-0.60432 -0.198731,-0.76025 -0.07227,-0.10806 -0.297696,-0.20002 -0.676269,-0.27588 -0.274421,-0.22915 -0.287279,-0.43261 -0.03857,-0.61035 0.837558,1e-5 1.516756,0.15203 2.037598,0.45605 0.296866,0.19793 0.445303,0.38397 0.445313,0.55811 -10e-6,0.2256 -0.163421,0.42009 -0.490235,0.5835 -9e-6,1.98047 -9e-6,4.04216 0,6.18505 2.263335,-1.04068 4.315254,-2.52213 6.155762,-4.44433 0.389958,-0.10123 0.560857,0.0226 0.512695,0.37158 -1.211277,1.58692 -2.871106,3.0625 -4.979492,4.42676 -1.04428,0.58008 -1.566415,0.92269 -1.566406,1.02783 -9e-6,0.30827 -0.118499,0.4624 -0.355469,0.4624 -0.17579,0 -0.400887,-0.1372 -0.675293,-0.41162 z m -2.190918,-6.08398 c -0.763677,3.0166 -2.355309,5.48437 -4.774902,7.40332 -0.372397,0.0485 -0.509929,-0.0885 -0.412598,-0.41114 1.994138,-1.95312 3.273434,-4.30061 3.837891,-7.04248 0.04036,-0.39973 0.0358,-0.62222 -0.01367,-0.66748 -0.09994,-0.10025 -0.258468,-0.16828 -0.475586,-0.2041 -0.287113,-0.18293 -0.286137,-0.36636 0.0029,-0.55029 0.718419,-0.0439 1.344884,0.11882 1.879394,0.48828 0.321283,0.2142 0.481927,0.42888 0.481934,0.64404 -7e-6,0.22657 -0.175137,0.33986 -0.525391,0.33985 z" id="path38"/>
            </g>
            <g id="path3057" style="opacity:1">
                <path style="font-weight:bold;font-size:16px;line-height:125%;font-family:'MS Mincho';letter-spacing:-3.46px;baseline-shift:baseline;display:inline;overflow:visible;vector-effect:none;fill:#ffffff;stroke:none;enable-background:accumulate;stop-color:#000000;stop-opacity:1" d="m 91.412109,845.00391 a 2.50025,2.50025 0 0 0 -3.230468,0.84765 c 0.07032,-0.1067 0.523285,-0.54078 1.083984,-0.61133 l 0.03906,-0.006 c -4.227753,0.46543 -6.757934,0.66785 -7.095703,0.6875 a 2.50025,2.50025 0 0 0 -0.01953,-0.0195 c -0.426818,-0.23723 -1.027703,-0.73556 -2.378906,-0.3125 -0.675602,0.21154 -1.336577,0.83728 -1.603516,1.38477 -0.266939,0.54749 -0.287111,0.96695 -0.287109,1.28711 a 2.50025,2.50025 0 0 0 0.01953,0.31055 c 0.14976,1.19074 0.865206,2.07054 1.582031,2.65625 0.20918,0.19835 0.411707,0.38804 0.6875,0.57421 0.336389,0.22708 0.745031,0.56647 1.730469,0.56641 0.449468,2e-5 1.052287,-0.10165 1.619141,-0.4707 0.03383,-0.022 0.03565,-0.0661 0.06836,-0.0899 0.125309,-0.026 0.226838,-0.0508 0.460938,-0.0859 h 0.002 c 0.701292,-0.0964 0.725777,-0.0906 1.316406,-0.16993 -1.231955,1.4493 -2.835554,2.64619 -5.009766,3.58985 a 2.50025,2.50025 0 0 0 -1.28125,1.25976 c -0.219764,0.48393 -0.628168,1.37979 0.01953,2.59766 0.647699,1.21787 1.941165,1.45703 2.535156,1.45703 a 2.50025,2.50025 0 0 0 0.833984,-0.14258 c 4.721778,-1.67429 8.261118,-4.86115 10.3125,-9.13281 0.170109,-0.0722 0.27546,-0.007 0.460938,-0.13086 0.740249,-0.4947 1.261679,-1.62362 1.261718,-2.38086 -1.16e-4,-1.40053 -0.795507,-2.08941 -1.3125,-2.50195 -0.554844,-0.44315 -1.162734,-0.829 -1.814453,-1.16406 z m -12.607422,4.32421 c 0.315629,0.55238 0.791911,0.86361 1.271485,1.11524 -0.178792,-0.0651 -0.291344,-0.15795 -0.316406,-0.17188 z m 14.558594,0.82813 -0.08398,0.18555 c -0.0071,0.0141 -0.02192,0.0134 -0.0293,0.0273 0.03156,-0.0756 0.08265,-0.13668 0.113281,-0.21289 z m -8.84375,0.54883 -0.416015,0.67383 c -0.334094,0.3341 -0.199189,0.15651 -0.302735,0.20312 0.289053,-0.26586 0.51231,-0.55621 0.667969,-0.87109 0.013,-0.001 0.03767,-0.005 0.05078,-0.006 z m 7.640625,0.66211 c -0.02553,0.0114 -0.05622,0.065 -0.08008,0.0742 -0.355527,0.13712 -0.549789,0.13085 -0.642578,0.13086 0.188028,0 0.492166,-0.17003 0.722656,-0.20508 z" id="path39"/>
                <path style="font-weight:bold;font-size:16px;line-height:125%;font-family:'MS Mincho';letter-spacing:-3.46px;baseline-shift:baseline;display:inline;overflow:visible;vector-effect:none;stroke:none;enable-background:accumulate;stop-color:#000000;stop-opacity:1" d="m 89.881889,848.45685 c -0.860688,0.082 -2.914885,0.34636 -6.162597,0.79297 -0.802088,0.12012 -1.263351,0.2404 -1.383789,0.36084 -0.05697,0.17188 -0.188969,0.25782 -0.395996,0.25781 -0.170252,10e-6 -0.442712,-0.18391 -0.817383,-0.55176 -0.422529,-0.33886 -0.656741,-0.69074 -0.702637,-1.05566 -2e-6,-0.32161 0.185056,-0.37955 0.555176,-0.17383 0.13932,0.24382 0.440589,0.36573 0.903808,0.36572 0.694657,10e-6 3.261224,-0.24429 7.699707,-0.73291 0.266265,-0.0335 0.49657,-0.19774 0.690918,-0.49267 0.519193,0.26693 0.985013,0.56511 1.397461,0.89453 0.248033,0.19792 0.372057,0.3807 0.372071,0.54834 -1.4e-5,0.26758 -0.200209,0.40137 -0.600586,0.40136 -0.212579,10e-6 -0.344252,0.0508 -0.39502,0.15235 -1.690441,4.20573 -4.815112,7.11686 -9.374023,8.7334 -0.342777,0 -0.435225,-0.17383 -0.277344,-0.52149 4.314771,-1.87272 7.15982,-4.81103 8.535156,-8.81494 0.116525,-0.14875 0.101551,-0.20344 -0.04492,-0.16406 z" id="path40"/>
            </g>
            <g id="path3059" style="opacity:1">
                <path style="font-weight:bold;font-size:16px;line-height:125%;font-family:'MS Mincho';letter-spacing:-3.46px;baseline-shift:baseline;display:inline;overflow:visible;vector-effect:none;fill:#ffffff;stroke:none;enable-background:accumulate;stop-color:#000000;stop-opacity:1" d="m 101.46875,847.37695 c -0.0702,0.007 -0.0965,0.0106 -0.16602,0.0176 a 2.50025,2.50025 0 0 0 -0.12695,-0.006 c -0.11052,0.0635 0.003,0.0239 0.0293,0.0156 -2.568724,0.2571 -4.621281,0.46143 -6.179689,0.61718 -0.21214,-0.12201 -0.422048,-0.25141 -0.8125,-0.33398 -0.488951,-0.1034 -1.292957,-0.0849 -1.972657,0.33008 -0.6797,0.415 -1.026149,1.05585 -1.167968,1.49219 -0.14182,0.43633 -0.152346,0.74787 -0.152344,1.01757 a 2.50025,2.50025 0 0 0 0.01953,0.31055 c 0.139627,1.12104 0.858408,2.09956 1.613281,2.66602 a 2.50025,2.50025 0 0 0 0.04492,0.0332 c 0.435387,0.31127 0.521774,0.79297 2.097656,0.79297 0.177699,0 0.312004,-0.17205 0.494141,-0.20703 -0.200424,1.02324 -0.712163,1.8954 -2.244141,2.85156 a 2.50025,2.50025 0 0 0 -0.535156,1.39648 l -0.304687,-0.52734 c -0.257231,0.44498 -0.823597,1.24047 -0.22461,2.62891 0.299494,0.69422 0.959542,1.21884 1.457032,1.42187 0.49749,0.20303 0.861082,0.2168 1.154296,0.2168 a 2.50025,2.50025 0 0 0 1.021485,-0.21875 c 2.989476,-1.33853 5.045328,-3.87058 5.792968,-6.90821 0.93028,-0.50849 1.86382,-1.00803 2.44922,-1.44921 0.21546,-0.0256 0.32455,0.0457 0.62305,-0.0684 0.76073,-0.29058 1.74995,-1.58624 1.75,-2.5293 -8e-5,-1.1809 -0.47709,-1.7047 -0.83203,-2.14844 a 2.50025,2.50025 0 0 0 -0.0312,-0.0391 c -0.4278,-0.51368 -0.9025,-0.89505 -1.4336,-1.25781 a 2.50025,2.50025 0 0 0 -2.48437,-0.0977 z m -9.333984,4.61133 c 0.263284,0.26577 0.60506,0.3851 0.927734,0.54492 -0.229963,-0.0679 -0.412002,-0.14388 -0.472656,-0.18164 z m 11.164064,1.59766 c -0.11821,0.0272 -0.0707,0.0683 -0.23828,0.0684 l -0.26953,-0.0137 c 0.1248,0.0135 0.36448,-0.0618 0.50781,-0.0547 z" id="path41"/>
                <path style="font-weight:bold;font-size:16px;line-height:125%;font-family:'MS Mincho';letter-spacing:-3.46px;baseline-shift:baseline;display:inline;overflow:visible;vector-effect:none;stroke:none;enable-background:accumulate;stop-color:#000000;stop-opacity:1" d="m 94.26955,859.09552 c 2.579096,-1.6097 3.789055,-3.6792 3.629883,-6.2085 -0.576178,-0.30533 -0.61166,-0.53629 -0.106445,-0.69287 1.031242,-0.043 1.485668,0.13982 1.363281,0.54834 0.825186,-0.62369 1.584621,-1.28238 2.278321,-1.97607 0.29458,-0.14941 0.31281,-0.20491 0.0547,-0.16651 -3.907888,0.4476 -5.985034,0.77703 -6.231448,0.98829 -0.160487,0.16081 -0.348149,0.24121 -0.562989,0.24121 -0.124678,0 -0.338871,-0.10856 -0.642578,-0.32569 -0.375654,-0.28189 -0.586428,-0.60709 -0.632324,-0.97558 -3e-6,-0.40299 0.163408,-0.50276 0.490234,-0.29932 0.243486,0.24578 0.593909,0.34978 1.05127,0.31201 1.648106,-0.1647 3.899894,-0.38996 6.755375,-0.67578 0.17056,-0.0342 0.40542,-0.1372 0.70459,-0.30908 0.40461,0.27637 0.71222,0.54102 0.92285,0.79394 0.19009,0.23764 0.28514,0.43361 0.28515,0.5879 -1e-5,0.18587 -0.18963,0.2583 -0.56884,0.21728 -0.22137,10e-6 -0.46437,0.11345 -0.72901,0.34033 -0.52931,0.40691 -1.59115,1.02898 -3.185545,1.86621 -0.286792,2.90593 -1.83806,4.98926 -4.653808,6.25 -0.347335,0 -0.421553,-0.17204 -0.222657,-0.51611 z" id="path42"/>
            </g>
            <g id="path3061" style="opacity:1">
                <path style="font-weight:bold;font-size:16px;line-height:125%;font-family:'MS Mincho';letter-spacing:-3.46px;baseline-shift:baseline;display:inline;overflow:visible;vector-effect:none;fill:#ffffff;stroke:none;enable-background:accumulate;stop-color:#000000;stop-opacity:1" d="m 106.51758,844.92773 c -0.26528,-0.0271 -0.56618,-0.0549 -1.04688,0.0508 -0.4807,0.10572 -1.31998,0.47164 -1.78515,1.32226 -0.46518,0.85063 -0.32607,1.69662 -0.17774,2.14258 0.14834,0.44596 0.31576,0.68746 0.46875,0.90039 a 2.50025,2.50025 0 0 0 0.56055,0.5625 c 0.36028,0.26187 0.60728,0.47642 0.70312,0.57227 l -0.0742,-0.0801 c 0.29326,0.31999 0.2911,0.52967 0.18554,0.10742 l -0.01,-0.043 c 0.11965,0.51671 0.28696,1.07026 0.76953,1.66992 0.17846,0.22177 0.47675,0.41003 0.76562,0.59375 -0.403,-0.14945 -0.9006,-0.25837 -1.74023,0.0293 -0.59956,0.20541 -1.22562,0.75232 -1.50977,1.29492 -0.23855,0.45553 -0.25519,0.80768 -0.26953,1.12305 -0.1668,1.67768 0.8313,3.09302 1.89453,3.9414 l -0.35937,-0.35156 c 0.26267,0.31435 0.52508,0.60145 0.9043,0.89063 0.37921,0.28917 0.91569,0.67968 1.89843,0.67968 0.64196,0 1.57582,-0.48123 2.19727,-1.16992 3.84206,-2.1929 7.26312,-4.8894 10.16992,-8.13281 a 2.50025,2.50025 0 0 0 0.52539,-0.92578 c 0.0888,-0.2857 0.18179,-0.62237 0.15625,-1.14258 -0.0255,-0.52021 -0.27036,-1.34127 -0.89258,-1.90234 -0.62221,-0.56107 -1.35698,-0.69537 -1.82422,-0.70118 -0.46723,-0.006 -0.7771,0.0774 -1.05078,0.16016 a 2.50025,2.50025 0 0 0 -1.00976,0.5918 c -1.45769,1.4027 -2.8681,2.39695 -4.28321,3.4414 0.0265,-0.17949 0.0918,-0.37926 0.0918,-0.53515 -3e-5,-1.30912 -0.63467,-2.26997 -1.30664,-3.00977 a 2.50025,2.50025 0 0 0 -0.008,-0.01 c -0.94269,-1.02817 -2.1169,-1.559 -3.46094,-1.97266 a 2.50025,2.50025 0 0 0 -0.48242,-0.0977 z m 1.62109,3.51758 c -0.035,0.0887 -0.0171,0.16381 -0.0664,0.25391 -0.31455,0.57519 -0.77097,0.84004 -1.15039,0.99805 0.0497,-0.25796 0.067,-0.55236 0.4082,-0.88672 0.32318,-0.31675 0.56713,-0.31617 0.80859,-0.36524 z m -0.64648,4.58008 c 0.15796,0.0608 0.31604,0.0902 0.47851,0.125 -0.0613,0.0346 -0.16796,0.10365 -0.22461,0.13477 a 2.50025,2.50025 0 0 0 -0.2539,-0.25977 z m -1.4043,3.26758 a 2.50025,2.50025 0 0 0 -0.30078,0.39258 c 0.003,-0.0129 0.0203,-0.0735 0.0684,-0.17188 a 2.50025,2.50025 0 0 1 0.002,-0.002 c 0.0453,-0.0905 0.16408,-0.1366 0.23047,-0.21875 z" id="path43"/>
                <path style="font-weight:bold;font-size:16px;line-height:125%;font-family:'MS Mincho';letter-spacing:-3.46px;baseline-shift:baseline;display:inline;overflow:visible;vector-effect:none;stroke:none;enable-background:accumulate;stop-color:#000000;stop-opacity:1" d="m 106.36863,855.19611 c 0.26887,0.65202 0.58837,0.97803 0.95849,0.97802 0.45573,10e-6 1.75227,-0.68554 3.88965,-2.05664 2.14713,-1.3776 4.30809,-3.11278 6.48291,-5.20556 0.47134,-0.14257 0.63817,0.008 0.50049,0.45117 -2.84474,3.17416 -6.17351,5.81592 -9.98633,7.92529 -0.0322,0.12956 -0.0724,0.24235 -0.1206,0.33838 -0.069,0.13867 -0.20183,0.20801 -0.39844,0.20801 -0.21387,0 -0.50863,-0.22477 -0.88428,-0.67432 -0.75065,-0.59896 -1.08513,-1.18961 -1.00342,-1.77197 0,-0.29329 0.18717,-0.35742 0.56153,-0.19238 z m 2.90771,-5.17774 c -1e-5,0.5127 -0.26156,0.76905 -0.78467,0.76904 -0.3392,10e-6 -0.57731,-0.29589 -0.71435,-0.88769 -0.0804,-0.32161 -0.33676,-0.71825 -0.76905,-1.18994 -0.23958,-0.23958 -0.57324,-0.5148 -1.00097,-0.82569 -0.25586,-0.3561 -0.17042,-0.51235 0.25635,-0.46875 1.10318,0.33953 1.88801,0.76369 2.35449,1.27247 0.43879,0.48308 0.65819,0.9266 0.6582,1.33056 z" id="path44"/>
            </g>
            <g id="path3063" style="opacity:1">
                <path style="font-size:medium;line-height:125%;letter-spacing:-5.27px;baseline-shift:baseline;display:inline;overflow:visible;vector-effect:none;fill:#ffffff;stroke:none;enable-background:accumulate;stop-color:#000000;stop-opacity:1" d="m 121.76953,843.57812 a 2.50025,2.50025 0 0 0 -1.29492,0.5 c -0.42849,0.3255 -1.13695,1.01419 -1.16992,2.19336 -0.0144,0.51371 0.15281,0.92032 0.34179,1.28321 -0.64567,1.41654 -1.58703,2.79655 -3.1621,4.14258 a 2.50025,2.50025 0 0 0 -0.66211,0.89062 c -0.22504,0.50946 -0.59349,1.55982 0.14453,2.72266 0.35685,0.56226 0.81209,0.86544 1.25,1.04492 a 2.50025,2.50025 0 0 0 -0.82617,0.91992 c -0.23711,0.52723 -0.59911,1.65768 0.17968,2.81055 0.7788,1.15286 1.8859,1.22851 2.44922,1.22851 a 2.50025,2.50025 0 0 0 1.01172,-0.21289 c 2.2969,-1.01666 4.26162,-2.60101 6.02344,-4.46094 0.16963,0.0298 0.19328,0.14063 0.40039,0.14063 0.70537,0 1.67355,-0.38584 2.20508,-0.99805 0.53152,-0.6122 0.67675,-1.22193 0.74414,-1.69726 a 2.50025,2.50025 0 0 0 0.0117,-0.10157 c 0.0441,-0.44085 -0.16903,-0.85591 -0.3125,-1.28125 0.41992,-0.66803 0.86817,-1.33551 1.19335,-2.00781 0.17437,-0.12149 0.34358,-0.11989 0.50391,-0.30078 0.48458,-0.5467 0.71677,-1.33199 0.7168,-1.9082 -9e-5,-1.51193 -0.90953,-2.19006 -1.49219,-2.58203 -0.48663,-0.35883 -1.01195,-0.67271 -1.63281,-0.87305 a 2.50025,2.50025 0 0 0 -1.6582,0.45703 c -0.17862,0.0166 -0.34429,0.0252 -0.52149,0.041 -0.17399,-0.25194 -0.35871,-0.49965 -0.52539,-0.65235 -0.43728,-0.4006 -0.84474,-0.62853 -1.28711,-0.84961 a 2.50025,2.50025 0 0 0 -0.008,-0.004 c -0.85833,-0.42524 -1.78071,-0.51892 -2.62305,-0.44532 z m 0.85352,0.61719 0.87304,0.43164 c 0.0334,0.0256 0.10363,0.13267 0.15235,0.17969 -0.35217,-0.20798 -0.73178,-0.53214 -1.02539,-0.61133 z m 5.55664,2.23047 c -0.0865,0.0173 -0.11312,0.0789 -0.19336,0.10156 -0.008,-0.003 -0.0156,-0.009 -0.0234,-0.0117 0.0254,-0.008 0.0779,-0.0571 0.0996,-0.0625 z m 2.29492,3.9707 -0.0332,0.0703 c -0.002,0.004 -0.038,0.0485 -0.043,0.0586 0.0203,-0.0431 0.0563,-0.0857 0.0762,-0.12891 z m -0.2207,0.32422 c -0.1133,0.14908 -0.36254,0.26682 -0.70118,0.41797 0.22635,-0.0769 0.45811,-0.25525 0.70118,-0.41797 z" id="path45"/>
                <path style="font-size:medium;line-height:125%;letter-spacing:-5.27px;baseline-shift:baseline;display:inline;overflow:visible;vector-effect:none;stroke:none;enable-background:accumulate;stop-color:#000000;stop-opacity:1" d="m 124.69036,852.98712 c -0.84408,-0.74023 -1.92936,-1.24869 -3.25585,-1.52539 -0.85971,0.94955 -1.86296,1.82781 -3.00977,2.63477 -0.35775,0 -0.46322,-0.16618 -0.31641,-0.49854 2.23405,-1.90917 3.71305,-4.01659 4.43702,-6.32226 0.12271,-0.30826 -0.0682,-0.53043 -0.57276,-0.66651 -0.2308,-0.1774 -0.22575,-0.35757 0.0151,-0.54053 0.51041,-0.0446 0.94205,0.0205 1.29492,0.19532 0.63639,0.31804 0.95458,0.60955 0.95459,0.87451 -1e-5,0.22657 -0.1185,0.33985 -0.35547,0.33984 -0.0492,10e-6 -0.10027,0.0532 -0.15332,0.15967 -0.1224,0.24513 -0.25912,0.45541 -0.41016,0.63086 1.21289,-0.0791 2.45947,-0.17854 3.73975,-0.29834 0.16666,-0.13345 0.35529,-0.31998 0.56592,-0.55957 0.3037,0.098 0.62352,0.27296 0.95947,0.5249 0.28905,0.19272 0.43358,0.37631 0.43359,0.55078 -1e-5,0.20281 -0.11557,0.33318 -0.34667,0.39112 -0.17059,0.0342 -0.32586,0.19125 -0.46583,0.47119 -0.49122,1.06413 -1.13949,2.15251 -1.94482,3.26513 0.49022,0.30502 0.71321,0.67888 0.66895,1.12159 -0.0515,0.36328 -0.20916,0.54492 -0.47315,0.54492 -0.21648,0 -0.5184,-0.22477 -0.90576,-0.67432 -1.81218,2.34766 -3.9891,4.08399 -6.53076,5.20899 -0.38607,0 -0.50196,-0.17155 -0.34766,-0.51465 2.77343,-1.63151 4.77978,-3.40267 6.01904,-5.31348 z m 0.61084,-0.91894 c 0.7041,-1.04101 1.28027,-2.111 1.72852,-3.20996 0.0745,-0.0944 0.0793,-0.14583 0.0142,-0.1543 -1.32488,0.0817 -2.52979,0.16342 -3.61475,0.24512 -0.21094,-0.0508 -0.31185,-0.11197 -0.30273,-0.1836 -0.45671,0.92384 -0.92383,1.63119 -1.40137,2.12207 1.51985,0.22071 2.71191,0.61427 3.57617,1.18067 z" id="path46"/>
            </g>
            <g id="path3065" style="opacity:1">
                <path style="font-size:medium;line-height:125%;letter-spacing:-1.49px;baseline-shift:baseline;display:inline;overflow:visible;vector-effect:none;fill:#ffffff;stroke:none;enable-background:accumulate;stop-color:#000000;stop-opacity:1" d="m 139.06836,842.70508 c -0.29556,1e-5 -0.67636,0.0175 -1.18164,0.24023 -0.29018,0.12792 -0.52459,0.51797 -0.80274,0.82031 a 2.50025,2.50025 0 0 0 -0.92968,0.0664 c -0.4495,0.19536 -1.14361,0.59398 -1.5293,1.50781 -0.0679,0.16094 -0.0291,0.32005 -0.0606,0.48438 -1.14182,-0.76933 -2.46764,-1.15819 -3.85351,-1.1582 a 2.50025,2.50025 0 0 0 -0.69727,0.0996 c -0.55554,0.16148 -1.6791,0.70268 -1.99805,2.01368 -0.12262,0.50404 -0.0316,0.86923 0.0527,1.22851 -0.2531,0.0745 -0.52878,0.15285 -0.90234,0.4336 -0.43095,0.32386 -0.97331,1.04042 -1.06055,1.85156 -0.17447,1.62228 0.68683,2.16698 1.07422,2.5 a 2.50025,2.50025 0 0 0 0.97265,0.51562 c 0.54293,0.14812 0.71159,0.31102 0.75,0.35547 l -0.14843,-0.18945 c 0.0462,0.0652 0.12043,0.1238 0.16796,0.1875 -0.35586,0.25191 -0.78767,0.41528 -0.96289,0.73828 -0.29729,0.54805 -0.31916,0.96891 -0.32226,1.29883 -0.05,1.11281 0.31761,2.42304 1.18555,3.29883 a 2.50025,2.50025 0 0 0 0.006,0.008 c 0.3946,0.39522 0.83627,0.71406 1.30274,0.98047 a 2.50025,2.50025 0 0 0 0.0254,0.0137 c 0.24117,0.13394 0.4597,0.24889 0.71289,0.35742 0.25319,0.10853 0.42115,0.28321 1.26172,0.2832 1.12892,10e-6 2.31009,-0.955 2.68945,-1.70507 -0.33183,0.65562 -0.40034,0.5437 -0.34765,0.5 0.0535,-0.0444 0.21849,-0.16893 0.45312,-0.32813 a 2.50025,2.50025 0 0 0 0.008,-0.006 c 3.7225,-2.54665 6.71195,-5.20008 8.94336,-8.02344 a 2.50025,2.50025 0 0 0 0.52149,-1.25781 c 0.0372,-0.31549 0.0589,-0.70707 -0.0918,-1.22851 -0.064,-0.22157 -0.34129,-0.42369 -0.49609,-0.66407 0.13216,-0.3763 0.18357,-0.746 0.18359,-1.03515 -6e-5,-1.03958 -0.52771,-2.05109 -1.15039,-2.67383 -1.03906,-1.03897 -2.12599,-1.26396 -3.34766,-1.47656 a 2.50025,2.50025 0 0 0 -0.42773,-0.0371 z m 1.94726,2.15039 c 0.0467,0 0.20383,0.11215 0.28321,0.125 0.0406,0.17672 -0.0519,0.5024 -0.10742,0.79883 -0.21295,-0.26246 -0.41516,-0.53749 -0.65821,-0.71875 0.15638,-0.0351 0.39719,-0.20508 0.48242,-0.20508 z m -1.71875,1.35351 c 0.0393,0.005 0.0319,0.0171 0.0684,0.0234 0.0279,0.32984 0.0168,0.69622 -0.13281,1.05078 -0.0205,0.0485 -0.0462,0.0276 -0.0684,0.0723 -0.0766,-0.16365 -0.16991,-0.25394 -0.16992,-0.46289 1e-5,-0.13043 0.21931,-0.43672 0.30273,-0.6836 z m -6.4414,1.08594 c 0.0148,0.21916 0.0885,0.37436 0.0176,0.66602 -0.0973,0.39997 -0.32262,0.61398 -0.52735,0.84961 -0.18296,-0.10006 -0.34489,-0.23512 -0.53711,-0.31641 0.0886,-0.32437 0.1113,-0.65262 0.44922,-0.95117 0.2625,-0.23192 0.38662,-0.1858 0.59766,-0.24805 z m 4.50976,0.26367 a 2.50025,2.50025 0 0 0 0.25586,0.26758 c 0.31947,0.18623 0.48178,0.3405 0.51368,0.37695 l -0.19727,-0.25781 c 0.0888,0.13309 0.20556,0.24777 0.30273,0.375 -0.0231,0.011 -0.0752,0.0896 -0.0937,0.0977 l -0.79492,0.0547 c -0.0861,-0.17402 -0.19531,-0.24913 -0.19531,-0.41602 0,-0.075 0.16909,-0.33339 0.20898,-0.49805 z m -0.90429,2.00977 c 0.10555,0.14365 0.21378,0.29173 0.34375,0.43359 -0.33438,0.29084 -0.6112,0.60312 -0.96485,0.88672 0.33055,-0.42745 0.5334,-0.86781 0.6211,-1.32031 z m -5.62696,1.02148 c 0.064,0.0869 0.14413,0.17497 0.21875,0.26172 0.002,0.002 0.004,0.005 0.006,0.008 -0.0915,0.70305 -0.55666,1.33057 -0.88867,1.58008 -0.14663,0.1102 -0.17939,0.094 -0.27734,0.14063 -0.0646,-0.16055 -0.15234,-0.21859 -0.15235,-0.41602 3e-5,-0.42587 0.25963,-1.04863 0.56055,-1.34961 0.1397,-0.13969 0.33966,-0.13306 0.5332,-0.22461 z" id="path47"/>
                <path style="font-size:medium;line-height:125%;letter-spacing:-1.49px;baseline-shift:baseline;display:inline;overflow:visible;vector-effect:none;stroke:none;enable-background:accumulate;stop-color:#000000;stop-opacity:1" d="m 141.4941,846.89337 c -2e-5,0.30828 -0.15936,0.46241 -0.47803,0.4624 -0.21648,10e-6 -0.38022,-0.0555 -0.49121,-0.1665 -0.17384,-0.17382 -0.34327,-0.38443 -0.5083,-0.63184 -0.27117,-0.30988 -0.65024,-0.60675 -1.13721,-0.89062 -0.16082,-0.30793 -0.098,-0.4619 0.18848,-0.46191 0.98957,0.17221 1.65884,0.43279 2.00781,0.78173 0.27896,0.27899 0.41844,0.58123 0.41846,0.90674 z m -2.46729,0.11572 c 0.41926,0.27964 0.6289,0.62908 0.62891,1.04834 -1e-5,0.39031 -0.17986,0.58546 -0.53955,0.58545 -0.22983,10e-6 -0.52996,-0.28824 -0.90039,-0.86474 -0.18523,-0.27766 -0.60288,-0.68082 -1.25293,-1.20948 -0.10874,-0.19465 -0.0462,-0.34276 0.1875,-0.44433 0.62759,0.17449 1.25308,0.46941 1.87646,0.88476 z m -4.94726,1.96778 c -1e-5,0.38998 -0.22071,0.58497 -0.66211,0.58496 -0.22983,10e-6 -0.49138,-0.229 -0.78467,-0.68701 -0.40756,-0.57454 -1.09229,-0.96223 -2.0542,-1.16309 -0.22396,-0.2731 -0.17969,-0.45507 0.13281,-0.5459 1.32259,10e-6 2.28532,0.30145 2.88819,0.9043 0.31998,0.32 0.47997,0.62224 0.47998,0.90674 z m -1.83838,3.18652 c -1e-5,0.16342 -0.0578,0.3029 -0.17334,0.41846 -0.11101,0.11101 -0.25359,0.16651 -0.42774,0.1665 -0.22428,1e-5 -0.50618,-0.23974 -0.8457,-0.71924 -0.44499,-0.51496 -1.10661,-0.89224 -1.98486,-1.13183 -0.31088,-0.26725 -0.29134,-0.44889 0.0586,-0.54492 1.28125,0 2.27913,0.33496 2.99365,1.00488 0.25293,0.25294 0.37939,0.52165 0.3794,0.80615 z m 1.28027,4.87451 c -0.54981,0.37305 -0.86019,0.63054 -0.93115,0.77246 -0.11036,0.22038 -0.26368,0.33057 -0.45996,0.33057 -0.11557,0 -0.36882,-0.10856 -0.75977,-0.32568 -0.30664,-0.17513 -0.56429,-0.36719 -0.77295,-0.57618 -0.35905,-0.3623 -0.51823,-0.85139 -0.47753,-1.46728 -1e-5,-0.30371 0.18912,-0.34863 0.56738,-0.13477 0.18782,0.56218 0.44417,0.84327 0.76904,0.84327 0.33658,0 0.79866,-0.15674 1.38623,-0.47022 3.37011,-2.03027 6.20067,-4.31347 8.4917,-6.84961 0.43325,-0.14485 0.62694,-0.0226 0.58106,0.3667 -2.02834,2.56641 -4.82635,5.06999 -8.39405,7.51074 z" id="path48"/>
            </g>
            <g id="path3067" style="opacity:1">
                <path style="font-size:medium;line-height:125%;letter-spacing:-1.49px;baseline-shift:baseline;display:inline;overflow:visible;vector-effect:none;fill:#ffffff;stroke:none;enable-background:accumulate;stop-color:#000000;stop-opacity:1" d="m 142.18359,847.97656 c -0.99801,0.14873 -1.59687,0.75588 -1.91211,1.17774 a 2.50025,2.50025 0 0 0 -0.48437,1.23828 c -0.0964,0.92985 0.12113,1.86155 0.50391,2.63867 a 2.50025,2.50025 0 0 0 0.006,0.0137 c 0.30322,0.6072 0.68582,1.06083 1.11329,1.48828 0.18749,0.1875 0.36204,0.35474 0.61718,0.54492 0.25514,0.19019 0.43706,0.59975 1.70313,0.59961 0.60558,4e-5 1.08709,-0.17922 1.49414,-0.41015 0.10582,-0.009 0.15357,-0.0148 0.30859,-0.0234 a 2.50025,2.50025 0 0 0 0.0156,0 c 1.28784,-0.0805 2.49105,-0.14185 3.60742,-0.18164 l -0.0176,0.002 c 1.37417,-0.0394 2.9434,-0.0402 4.70117,0 a 2.50025,2.50025 0 0 0 0.0937,-0.0371 l -0.0371,0.0371 c 0.337,0 0.70814,0.0293 1.11329,0.0918 a 2.50025,2.50025 0 0 0 0.1582,0.0176 c 0.54413,0.049 1.35835,0.13177 2.30469,-0.64258 0.84749,-0.69346 1.00384,-1.85273 0.92773,-2.58398 -0.0714,-0.57723 -0.22069,-0.95245 -0.31836,-1.11329 -0.12046,-0.19836 -0.21082,-0.30749 -0.29687,-0.41211 -0.17212,-0.20923 -0.33169,-0.37269 -0.52344,-0.56445 -0.70524,-0.70519 -1.81957,-1.20896 -2.86914,-1.20898 -0.47781,3e-5 -0.93283,0.13772 -1.33594,0.33203 0.0548,0.0127 0.11962,0.03 0.13281,0.0273 0.0369,-0.008 -0.0593,0.006 -0.19336,0.0195 -9.3e-4,7e-5 -0.009,0.002 -0.01,0.002 -5.2e-4,2.6e-4 -0.001,-2.7e-4 -0.002,0 -0.31502,0.16217 -0.6027,0.35156 -0.8125,0.55468 0.38042,-0.37279 0.59175,-0.50165 0.73438,-0.55273 -0.39371,0.0269 -1.65151,0.0718 -3.6543,0.11133 -1.78619,0.0349 -3.19093,0.0492 -4.40625,0.0527 a 2.50025,2.50025 0 0 0 -0.31836,-0.47851 c -0.43813,-0.39835 -1.34573,-0.88897 -2.34375,-0.74024 z m 13.43164,2.21875 0.15821,0.0195 c -0.0587,-0.009 -0.11532,-0.005 -0.17383,-0.0137 10e-4,1.2e-4 0.0147,-0.006 0.0156,-0.006 z" id="path49"/>
                <path style="font-size:medium;line-height:125%;letter-spacing:-1.49px;baseline-shift:baseline;display:inline;overflow:visible;vector-effect:none;stroke:none;enable-background:accumulate;stop-color:#000000;stop-opacity:1" d="m 153.89717,852.56476 c -1.79201,-0.041 -3.40203,-0.041 -4.83008,0 -1.14193,0.0407 -2.36654,0.10189 -3.67383,0.18359 -0.68685,0.0384 -1.05778,0.0851 -1.11279,0.14014 -0.19271,0.19271 -0.37614,0.28907 -0.55029,0.28906 -0.0938,10e-6 -0.27784,-0.1372 -0.55225,-0.41162 -0.30144,-0.30143 -0.51644,-0.58089 -0.64502,-0.83838 -0.21517,-0.43684 -0.30127,-0.86246 -0.2583,-1.27685 0.17903,-0.23958 0.36914,-0.2679 0.57031,-0.085 0.19434,0.54493 0.39193,0.86769 0.59277,0.96827 0.22233,0.11101 0.52409,0.16651 0.90528,0.1665 1.30533,10e-6 2.95816,-0.0195 4.95849,-0.0586 2.07812,-0.041 3.38183,-0.0819 3.91114,-0.12256 0.40265,-0.0368 0.63231,-0.0835 0.68896,-0.14014 0.15396,-0.15331 0.3177,-0.22997 0.49121,-0.22998 0.41763,10e-6 0.78482,0.15837 1.10157,0.4751 0.31997,0.31999 0.47996,0.51449 0.47998,0.58349 0.0817,0.36036 -0.11265,0.51938 -0.58301,0.47706 -0.51922,-0.0801 -1.01727,-0.12012 -1.49414,-0.12012 z" id="path50"/>
            </g>
        </g>
    </g>
</svg>
