<?xml version='1.0' encoding='utf-8'?>
<svg xmlns="http://www.w3.org/2000/svg" version="1.0" width="600" height="162.45847176079735" viewBox="0 0 1204 326" preserveAspectRatio="xMidYMid meet" id="svg10">
    <defs id="defs10"/>
    <g id="path1" style="fill:#000000;stroke:#ffffff;stroke-width:30;stroke-linecap:round;stroke-linejoin:round;stroke-dasharray:none;stroke-opacity:1;paint-order:markers stroke fill">
        <path style="baseline-shift:baseline;display:inline;overflow:visible;vector-effect:none;fill:#ffffff;stroke:none;enable-background:accumulate;stop-color:#000000;stop-opacity:1" d="m 594.42578,254.02344 c -162.83406,-0.0105 -325.09906,0.91222 -433.71094,2.97851 -29.50656,0.55109 -56.36035,1.22867 -76.833981,1.91992 -10.237593,0.34566 -18.873942,0.69348 -25.511718,1.03711 -6.579148,0.34061 -10.403306,0.51026 -14.244141,1.125 -1.120693,0.13942 -1.700175,0.0976 -4.068359,0.76368 -0.628152,0.17666 -1.36916,0.31937 -3.095704,1.21875 -0.863271,0.44969 -2.032628,1.04082 -3.714843,2.71679 -1.682215,1.67598 -4.274154,5.20722 -4.425782,10.21094 -0.151627,5.00372 2.497966,9.17885 4.363282,11.05859 1.865316,1.87975 3.184435,2.49447 4.138672,2.95899 1.908472,0.92903 2.69444,1.03116 3.367187,1.18945 2.690988,0.63318 3.297623,0.53257 4.880859,0.66211 1.582213,0.12945 3.522224,0.25589 6.009766,0.4082 38.853386,2.49071 156.062542,4.62852 309.316402,5.62891 h 0.006 c 330.63662,2.30089 720.64822,-0.337 801.05272,-5.63086 l 0.031,-0.002 c 2.3742,-0.15164 4.2328,-0.27929 5.7578,-0.41016 1.5333,-0.13158 2.0276,0.0198 4.9356,-0.71875 0.727,-0.18463 1.5891,-0.28321 3.7441,-1.4668 1.0775,-0.59179 2.628,-1.41688 4.5528,-3.82812 1.9247,-2.41124 3.8873,-7.55197 3.0371,-12.13281 -1.7005,-9.16168 -6.5588,-9.97409 -8.1309,-10.75977 -1.5721,-0.78568 -2.2879,-0.93857 -2.8906,-1.10742 -2.3517,-0.65885 -2.9405,-0.62311 -4.1152,-0.78125 -8.2877,-1.24869 -22.6479,-1.78811 -45.9649,-2.50195 -23.3629,-0.71525 -54.4667,-1.35244 -91.4141,-1.91016 -73.8947,-1.11545 -171.13855,-1.9061 -276.01554,-2.3125 -52.43849,-0.2032 -106.77862,-0.31097 -161.05664,-0.31445 z" id="path11"/>
        <path style="baseline-shift:baseline;display:inline;overflow:visible;vector-effect:none;stroke:none;enable-background:accumulate;stop-color:#000000;stop-opacity:1" d="m 361,282.9 c -153.2,-1 -271.1,-3.2 -308.5,-5.6 -9.8,-0.6 -10.5,-0.8 -6.1,-1.4 7.4,-1.2 55.7,-2.8 114.6,-3.9 289.1,-5.5 960.8,-2.9 1005.7,3.9 4.3,0.6 3.7,0.8 -5.7,1.4 -77.4,5.1 -469.5,7.9 -800,5.6 z" id="path12"/>
    </g>
    <path style="baseline-shift:baseline;display:inline;overflow:visible;vector-effect:none;fill:#ffffff;stroke:none;stroke-width:30;stroke-linecap:round;stroke-linejoin:round;stroke-dasharray:none;stroke-opacity:1;paint-order:markers stroke fill;enable-background:accumulate;stop-color:#000000" d="M 34,40 A 15.0015,15.0015 0 0 0 19,55 v 99 99 a 15.0015,15.0015 0 0 0 15,15 h 26.800781 26.898438 a 15.0015,15.0015 0 0 0 14.998051,-14.74023 l 0.59961,-34.6543 v -0.0469 c 0.45384,-22.36421 0.67773,-56.70126 0.67773,-87.4082 0,-30.72341 -0.13509,-56.589262 -0.70313,-65.867187 l 0.008,0.115234 -0.60157,-11.201171 A 15.0015,15.0015 0 0 0 87.699219,40 H 60.800781 Z m 15,30 h 11.800781 12.556641 c 0.314983,7.083523 0.617187,31.95038 0.617187,61.15039 0,30.57659 -0.226209,64.90905 -0.671875,86.8457 a 15.0015,15.0015 0 0 0 0,0.0449 L 72.957031,238 H 60.800781 49 v -84 z" id="path13"/>
    <path style="baseline-shift:baseline;display:inline;overflow:visible;vector-effect:none;fill:#ffffff;stroke:none;stroke-width:30;stroke-linecap:round;stroke-linejoin:round;stroke-dasharray:none;stroke-opacity:1;paint-order:markers stroke fill;enable-background:accumulate;stop-color:#000000" d="M 97.199219,40 A 15.0015,15.0015 0 0 0 82.203125,54.722656 L 81.501953,92.521484 C 81.097114,113.4806 80.998002,146.32324 81.302734,166.13086 a 15.0015,15.0015 0 0 0 0,0.0234 l 0.59961,35.40039 a 15.0015,15.0015 0 0 0 4.371093,10.33203 l 25.798833,25.89844 a 15.0015,15.0015 0 0 0 0.0215,0.0215 L 137.8926,263.6074 A 15.0015,15.0015 0 0 0 148.5,268 H 198.19922 248 a 15.0015,15.0015 0 0 0 15,-15 V 179.80078 106.5 A 15.0015,15.0015 0 0 0 258.60742,95.892578 L 232.90625,70.193359 207.10742,44.392578 A 15.0015,15.0015 0 0 0 196.5,40 h -49.59961 z m 14.724611,30 h 34.97656 43.38672 L 211.69336,91.40625 233,112.71289 V 179.80078 238 h -34.80078 -43.48633 l -21.38672,-21.38672 -21.53125,-21.61523 -0.49804,-29.35157 0.002,0.0234 c -0.29522,-19.18926 -0.19578,-52.13875 0.19922,-72.580076 a 15.0015,15.0015 0 0 0 0,-0.01172 z m 48.35351,24.859375 c -1.65974,-0.0042 -3.60044,0.12329 -6.21289,0.648437 -5.22489,1.050296 -12.99954,7.575648 -14.94531,13.085938 C 135.2276,119.61434 137,126.9655 137,146.19922 V 178.5 a 15.0015,15.0015 0 0 0 4.39258,10.60742 l 9.70117,9.69922 9.79883,9.80078 A 15.0015,15.0015 0 0 0 171.5,213 H 182.19922 193 a 15.0015,15.0015 0 0 0 15,-15 V 163.80078 129.5 a 15.0015,15.0015 0 0 0 -4.39258,-10.60742 l -9.70117,-9.69922 -9.79883,-9.800782 A 15.0015,15.0015 0 0 0 173.5,95 h -8.69922 c -1.4844,0 -2.86369,-0.136397 -4.52344,-0.140625 z m 7.24219,30.373045 5.17383,5.17383 L 178,135.71289 V 163.80078 183 h -0.28711 L 172.30664,177.59375 167,172.28711 v -26.08789 c 0,-9.24158 0.30433,-16.15025 0.51953,-20.9668 z" id="path15"/>
    <path style="baseline-shift:baseline;display:inline;overflow:visible;vector-effect:none;fill:#000000;stroke:none;stroke-width:30;stroke-linecap:round;stroke-linejoin:round;stroke-dasharray:none;stroke-opacity:1;paint-order:markers stroke fill;enable-background:accumulate;stop-color:#000000" d="M 34,154 V 55 h 26.8 26.9 l 0.6,11.2 c 0.9,14.7 0.9,107.8 0,152.1 L 87.7,253 H 60.8 34 Z" id="path14"/>
    <path style="baseline-shift:baseline;display:inline;overflow:visible;vector-effect:none;fill:#ffffff;stroke:none;stroke-width:30;stroke-linecap:round;stroke-linejoin:round;stroke-dasharray:none;stroke-opacity:1;paint-order:markers stroke fill;enable-background:accumulate;stop-color:#000000" d="m 256,40 a 15.0015,15.0015 0 0 0 -15,15 v 99 99 a 15.0015,15.0015 0 0 0 15,15 h 27.5 27.5 a 15.0015,15.0015 0 0 0 15,-15 V 181.5 125 h 0.28711 l 5.30664,5.30664 L 337,135.71289 V 191.19922 253 a 15.0015,15.0015 0 0 0 15,15 h 27.5 27.5 a 15.0015,15.0015 0 0 0 15,-15 V 179.80078 106.5 A 15.0015,15.0015 0 0 0 417.60742,95.892578 L 391.90625,70.193359 366.10742,44.392578 A 15.0015,15.0015 0 0 0 355.5,40 h -49.69922 z m 15,30 h 34.80078 43.48633 L 370.69336,91.40625 392,112.71289 V 179.80078 238 H 379.5 367 V 191.19922 129.5 a 15.0015,15.0015 0 0 0 -4.39258,-10.60742 l -9.80078,-9.79883 -9.69922,-9.701172 A 15.0015,15.0015 0 0 0 332.5,95 H 321.69922 311 a 15.0015,15.0015 0 0 0 -15,15 V 181.5 238 H 283.5 271 v -84 z" id="path17"/>
    <path style="baseline-shift:baseline;display:inline;overflow:visible;vector-effect:none;fill:#000000;stroke:none;stroke-width:30;stroke-linecap:round;stroke-linejoin:round;stroke-dasharray:none;stroke-opacity:1;paint-order:markers stroke fill;enable-background:accumulate;stop-color:#000000" d="M 122.7,227.2 96.9,201.3 96.3,165.9 C 96,146.4 96.1,113.5 96.5,92.8 L 97.2,55 h 49.7 49.6 l 25.8,25.8 25.7,25.7 V 179.8 253 H 198.2 148.5 Z M 193,163.8 v -34.3 l -9.7,-9.7 -9.8,-9.8 h -8.7 c -13.7,0 -12.8,-2.5 -12.8,36.2 v 32.3 l 9.7,9.7 9.8,9.8 h 10.7 10.8 z" id="path16"/>
    <path style="baseline-shift:baseline;display:inline;overflow:visible;vector-effect:none;fill:#ffffff;stroke:none;stroke-width:30;stroke-linecap:round;stroke-linejoin:round;stroke-dasharray:none;stroke-opacity:1;paint-order:markers stroke fill;enable-background:accumulate;stop-color:#000000" d="m 551,40 a 15.0015,15.0015 0 0 0 -15,15 v 99 99 a 15.0015,15.0015 0 0 0 15,15 h 27.5 27.5 a 15.0015,15.0015 0 0 0 15,-15 V 181.5 125 h 29 44 a 15.0015,15.0015 0 0 0 15,-15 V 82.5 55 A 15.0015,15.0015 0 0 0 694,40 h -71.5 z m 15,30 H 622.5 679 V 82.5 95 h -29 -44 a 15.0015,15.0015 0 0 0 -15,15 V 181.5 238 H 578.5 566 v -84 z" id="path19"/>
    <path style="baseline-shift:baseline;display:inline;overflow:visible;vector-effect:none;fill:#ffffff;stroke:none;stroke-width:30;stroke-linecap:round;stroke-linejoin:round;stroke-dasharray:none;stroke-opacity:1;paint-order:markers stroke fill;enable-background:accumulate;stop-color:#000000" d="m 611,112 a 15.0015,15.0015 0 0 0 -15,15 v 27 27 a 15.0015,15.0015 0 0 0 15,15 H 650.30078 689.5 a 15.0015,15.0015 0 0 0 15,-15.16602 l -0.30078,-27 -0.30078,-27 A 15.0015,15.0015 0 0 0 688.90039,112 H 650 Z m 15,30 h 24 24.06641 l 0.13476,12.16602 L 674.33203,166 H 650.30078 626 v -12 z" id="path21"/>
    <path style="baseline-shift:baseline;display:inline;overflow:visible;vector-effect:none;fill:#ffffff;stroke:none;stroke-width:30;stroke-linecap:round;stroke-linejoin:round;stroke-dasharray:none;stroke-opacity:1;paint-order:markers stroke fill;enable-background:accumulate;stop-color:#000000" d="M 702,40 A 15.0015,15.0015 0 0 0 687,55 V 128.19922 201.5 a 15.0015,15.0015 0 0 0 4.39258,10.60742 l 25.70117,25.69922 25.79883,25.80078 A 15.0015,15.0015 0 0 0 753.5,268 H 803.19922 853 a 15.0015,15.0015 0 0 0 15,-15 V 154 55 A 15.0015,15.0015 0 0 0 853,40 H 825.5 798 a 15.0015,15.0015 0 0 0 -15,15 v 71.40039 56.53516 L 777.74805,177.83789 772,172.25586 V 116.80078 55 A 15.0015,15.0015 0 0 0 757,40 h -27.5 z m 15,30 h 12.5 12.5 v 46.80078 61.79883 a 15.0015,15.0015 0 0 0 4.55078,10.76172 l 10.30078,10 a 15.0015,15.0015 0 0 0 0.002,0.002 l 10.19921,9.90039 a 15.0015,15.0015 0 0 0 10.88477,4.23047 l 10.29883,-0.30078 a 15.0015,15.0015 0 0 0 0.004,0 l 10.20118,-0.30078 A 15.0015,15.0015 0 0 0 813,197.90039 v -71.5 V 70 h 12.5 12.5 v 84 84 H 803.19922 759.71289 L 738.30664,216.59375 717,195.28711 v -67.08789 z" id="path23"/>
    <path style="baseline-shift:baseline;display:inline;overflow:visible;vector-effect:none;fill:#000000;stroke:none;stroke-width:30;stroke-linecap:round;stroke-linejoin:round;stroke-dasharray:none;stroke-opacity:1;paint-order:markers stroke fill;enable-background:accumulate;stop-color:#000000" d="M 551,154 V 55 H 622.5 694 V 82.5 110 H 650 606 V 181.5 253 H 578.5 551 Z" id="path20"/>
    <path style="baseline-shift:baseline;display:inline;overflow:visible;vector-effect:none;fill:#000000;stroke:none;stroke-width:30;stroke-linecap:round;stroke-linejoin:round;stroke-dasharray:none;stroke-opacity:1;paint-order:markers stroke fill;enable-background:accumulate;stop-color:#000000" d="m 611,154 v -27 h 39 38.9 l 0.3,27 0.3,27 H 650.3 611 Z" id="path22"/>
    <path style="baseline-shift:baseline;display:inline;overflow:visible;vector-effect:none;fill:#ffffff;stroke:none;stroke-width:30;stroke-linecap:round;stroke-linejoin:round;stroke-dasharray:none;stroke-opacity:1;paint-order:markers stroke fill;enable-background:accumulate;stop-color:#000000" d="m 862.30078,40 a 15.0015,15.0015 0 0 0 -14.9668,13.982422 l -0.69921,10.300781 a 15.0015,15.0015 0 0 0 -0.0137,0.228516 c -0.24413,4.6385 -0.32084,16.078703 -0.43359,34.068359 C 846.07475,116.56973 846,139.91998 846,164.30078 a 15.0015,15.0015 0 0 0 0,0.0156 l 0.0996,88.70117 a 15.0015,15.0015 0 0 0 15,14.98242 H 888.5 916 a 15.0015,15.0015 0 0 0 15,-15 v -33.69922 c 0,-8.639 0.0744,-16.65528 0.17383,-23.17187 0.53864,0.0189 0.87179,0.0384 1.46484,0.0605 l 6.0918,0.25391 5.76367,5.76367 L 950,207.71289 V 227.19922 253 a 15.0015,15.0015 0 0 0 15,15 h 27.5 27.5 a 15.0015,15.0015 0 0 0 15,-15 V 215.69922 178.5 a 15.0015,15.0015 0 0 0 -4.3926,-10.60742 l -11.5,-11.5 c -0.8953,-0.89536 -1.4289,-1.51356 -2.2617,-2.3711 0.8598,-0.90055 1.4165,-1.55605 2.3438,-2.49804 l 11.4628,-11.5625 A 15.0015,15.0015 0 0 0 1035,129.40039 V 92.199219 55 A 15.0015,15.0015 0 0 0 1020,40 H 941.09961 Z M 876.5332,70 H 941.09961 1005 v 22.199219 31.025391 l -7.15234,7.21484 a 15.0015,15.0015 0 0 0 -0.0371,0.0371 c -3.31918,3.37187 -6.33185,6.58918 -8.68946,9.27149 -1.1788,1.34115 -2.17666,2.51534 -3.12304,3.75195 -0.47319,0.6183 -0.92299,1.21386 -1.52735,2.19336 -0.60435,0.9795 -2.4707,0.18125 -2.4707,8.40625 0,8.225 1.89596,7.48244 2.51172,8.46875 0.61576,0.98631 1.073,1.58189 1.55078,2.19726 0.95555,1.23076 1.95542,2.39013 3.13672,3.7129 2.36259,2.64553 5.375,5.81054 8.69336,9.1289 L 1005,184.71289 V 215.69922 238 H 992.5 980 V 227.19922 201.5 a 15.0015,15.0015 0 0 0 -4.39258,-10.60742 l -9.90039,-9.89844 -9.90039,-9.90039 a 15.0015,15.0015 0 0 0 -9.98242,-4.38086 l -12,-0.5 a 15.0015,15.0015 0 0 0 -0.0644,-0.002 c -2.93894,-0.10987 -3.09736,-0.15568 -4.44336,-0.25586 -0.7745,-0.60304 -1.49468,-1.22355 -2.4961,-1.75196 -5.97433,-3.15241 -13.60947,-1.13455 -16.94336,1.25391 -6.66778,4.77692 -7.25868,9.11029 -8.0625,13.81836 a 15.0015,15.0015 0 0 0 -0.0488,0.29883 c -0.4803,3.20204 -0.30431,3.5368 -0.3789,5.82422 -0.0746,2.28742 -0.14014,5.22494 -0.19727,8.67773 C 901.07521,200.98176 901,209.92014 901,219.30078 V 238 H 888.5 876.08398 L 876,164.30078 v -0.006 -0.0117 c 4e-5,-24.31213 0.0753,-47.60813 0.1875,-65.513669 C 876.28631,83.003119 876.45213,73.493307 876.5332,70 Z m 71.47461,24.902344 -15.40039,0.300781 -15.40039,0.298828 a 15.0015,15.0015 0 0 0 -14.70312,14.634767 l -0.29883,12.40039 a 15.0015,15.0015 0 0 0 -0.004,0.14648 c -0.052,3.58754 -0.0532,6.98021 0.002,9.75196 0.0276,1.38587 0.0663,2.59886 0.13868,3.75976 0.0362,0.58045 0.0756,1.13481 0.16211,1.85352 0.0864,0.71751 -0.15215,1.06753 0.94921,4.00781 0.002,0.005 1.1e-4,0.005 0.002,0.01 0.99711,2.74258 2.53915,7.94107 10.7207,10.36523 4.13452,1.22504 9.08761,0.29583 12.00586,-1.31055 2.91825,-1.60637 4.38641,-3.39605 5.42773,-4.83789 1.23353,-1.70795 2.00381,-3.15298 2.58985,-4.50195 4.75131,-0.0257 10.08171,-0.082 9.5,-0.082 l -1.15039,-0.043 c 4.79526,0.36887 6.41362,-0.80872 7.67187,-1.37891 1.25826,-0.57018 1.95397,-1.02383 2.5625,-1.42578 1.21707,-0.80389 1.98698,-1.44292 2.77539,-2.11133 1.57682,-1.33681 3.03689,-2.74301 4.49414,-4.23046 1.45726,-1.48746 2.83842,-2.98436 4.13868,-4.57618 0.65012,-0.7959 1.26896,-1.57479 2.02343,-2.74414 0.75448,-1.16935 2.78516,-0.77952 2.78516,-8.99023 0,-8.225 -1.91567,-7.51956 -2.55078,-8.52344 -0.63511,-1.00388 -1.10973,-1.60643 -1.5957,-2.21094 -0.97196,-1.20901 -1.94333,-2.26754 -3.04688,-3.37109 a 15.0015,15.0015 0 0 0 -0.1875,-0.18555 l -2.90039,-2.798825 a 15.0015,15.0015 0 0 0 -10.71094,-4.207031 z m -7.00195,14.023436 c 0.25721,-0.39865 0.16511,-0.23065 -0.0488,0.0312 -0.22205,0.27184 -0.77972,0.85421 -1.21094,1.32813 0.51277,-1.17938 1.11472,-1.13458 1.25977,-1.35938 z m -35.17188,22.24024 -0.008,0.13476 c -0.0276,0.45988 -0.21839,0.47447 0.008,-0.13476 z m 29.93946,1.93164 -0.49805,8.64062 -1.06836,0.0195 c 1.38199,-3.19432 1.38802,-5.6871 1.56641,-8.66015 z m 74.30856,13.65039 c 0.2444,0.16196 0.7334,0.31159 1.1875,1.39062 -0.5408,-0.61677 -0.9405,-1.08698 -1.1875,-1.39062 z m 1.2207,13.22265 c -0.4568,1.13646 -0.9601,1.2565 -1.1953,1.42188 0.2389,-0.29935 0.6617,-0.80221 1.1953,-1.42188 z m -105.15426,22.56641 c 0.24765,0.9906 0.97703,2.52322 1.83984,4.04297 -1.14218,-1.63366 -1.60526,-3.12858 -1.8125,-3.93164 z" id="path25"/>
    <path style="baseline-shift:baseline;display:inline;overflow:visible;vector-effect:none;fill:#000000;stroke:none;stroke-width:30;stroke-linecap:round;stroke-linejoin:round;stroke-dasharray:none;stroke-opacity:1;paint-order:markers stroke fill;enable-background:accumulate;stop-color:#000000" d="M 727.7,227.2 702,201.5 V 128.2 55 h 27.5 27.5 v 61.8 61.8 l 10.3,10 10.2,9.9 10.3,-0.3 10.2,-0.3 V 126.4 55 h 27.5 27.5 v 99 99 h -49.8 -49.7 z" id="path24"/>
    <path style="baseline-shift:baseline;display:inline;overflow:visible;vector-effect:none;fill:#ffffff;stroke:none;stroke-width:30;stroke-linecap:round;stroke-linejoin:round;stroke-dasharray:none;stroke-opacity:1;paint-order:markers stroke fill;enable-background:accumulate;stop-color:#000000" d="m 1029.3008,40 a 15.0015,15.0015 0 0 0 -14.9766,14.160156 l -0.6015,10.699219 0.01,-0.150391 c -1.0193,15.40313 -0.9349,51.982196 -0.025,83.917966 l 0.5977,24.63672 A 15.0015,15.0015 0 0 0 1024.0098,186.5 15.0015,15.0015 0 0 0 1018,198 v 27.5 27.5 a 15.0015,15.0015 0 0 0 15,15 h 47.1992 47.3008 a 15.0015,15.0015 0 0 0 10.6074,-4.39258 l 25.6992,-25.70117 25.8008,-25.79883 A 15.0015,15.0015 0 0 0 1194,201.5 V 128.30078 55 a 15.0015,15.0015 0 0 0 -15,-15 h -26.9004 -26.7988 a 15.0015,15.0015 0 0 0 -15,14.78125 l -0.5,34.300781 a 15.0015,15.0015 0 0 0 0,0.0293 c -0.1002,7.935703 -0.2197,9.711588 -0.3223,14.388669 H 1102 c -1.1031,0 -1.773,-0.0256 -2.8184,-0.0312 -0.1026,-5.124526 -0.2046,-10.62379 -0.2832,-17.343747 a 15.0015,15.0015 0 0 0 0,-0.01758 L 1098.498,54.808594 A 15.0015,15.0015 0 0 0 1083.5,40 h -27.0996 z m 14.3066,30 h 12.793 12.291 l 0.209,16.492187 c 0.1004,8.580943 0.2272,16.462033 0.3672,22.316403 0.07,2.92949 0.1424,5.3359 0.2246,7.1836 0.041,0.92385 0.08,1.6807 0.1465,2.49219 0.033,0.40574 0.062,0.78778 0.1699,1.51367 0.054,0.36294 0.1074,0.78132 0.3379,1.67578 0.2304,0.89446 -1.2181,1.76823 3.9473,6.93359 5.543,5.54302 6.3338,3.81508 7.2636,4.03711 0.9298,0.22203 1.3924,0.27574 1.8164,0.33203 0.848,0.11259 1.4115,0.15287 2.045,0.19531 1.2669,0.0849 2.6631,0.13871 4.3359,0.18555 3.3455,0.0937 7.6878,0.14258 12.4453,0.14258 h 3.8242 l -1.0683,-7.3418 a 15.0015,15.0015 0 0 0 0.041,0.26368 l 0.9004,5.49999 a 15.0015,15.0015 0 0 0 27.4746,5.60352 l 1.9004,-3 -0.1914,0.29492 c 1.0426,-1.56394 2.5284,-4.63638 3.1679,-7.25195 0.6395,-2.61557 0.8559,-4.91228 1.045,-7.82031 0.3776,-5.81045 0.505,-14.38204 0.705,-30.228519 v -0.0293 L 1140.082,70 H 1152.0996 1164 v 58.30078 66.98633 L 1142.5938,216.69336 1121.2871,238 H 1080.1992 1048 V 225.5 213 h 21.3008 36.2988 a 15.0015,15.0015 0 0 0 10.7949,-4.58398 l 5.5,-5.70118 a 15.0015,15.0015 0 0 0 0.041,-0.043 c 5.6397,-5.89144 8.7568,-8.76235 11.8165,-13.58203 1.5298,-2.40983 3.1208,-6.03003 3.3808,-9.86718 0.2599,-3.83473 -0.6373,-6.68915 -1.1328,-8.25196 -0.5072,-1.60583 -0.9472,-2.96227 -2.1309,-5.07226 -0.5931,-1.05736 -0.9029,-2.30548 -4.0117,-4.83399 -1.5544,-1.26425 -4.3234,-3.33389 -9.3281,-3.43359 -4.8406,-0.0964 -9.9666,3.10996 -12.1543,5.79101 4.0187,-5.82005 6.2152,-4.69905 7.1992,-5.0039 1.0803,-0.33468 1.4777,-0.3749 1.7715,-0.42383 0.5875,-0.0978 0.5863,-0.0786 0.4863,-0.0703 -0.1999,0.0165 -0.9973,0.065 -2.0566,0.10351 -2.1186,0.0771 -5.4246,0.14256 -9.4961,0.18555 -8.1429,0.086 -19.4316,0.0877 -31.7578,-0.0117 a 15.0015,15.0015 0 0 0 -0.022,0 l -30.5566,-0.20508 -0.2481,-10.16015 a 15.0015,15.0015 0 0 0 0,-0.0625 C 1042.8472,118.06516 1042.9322,83.612506 1043.6074,70 Z m 89.3555,110.41797 -0.8633,1.28125 c -0.064,0.086 -0.1961,0.1801 -0.2676,0.26758 0.391,-0.56682 0.7039,-0.83715 1.1309,-1.54883 z" id="path27"/>
    <path style="baseline-shift:baseline;display:inline;overflow:visible;vector-effect:none;fill:#000000;stroke:none;stroke-width:30;stroke-linecap:round;stroke-linejoin:round;stroke-dasharray:none;stroke-opacity:1;paint-order:markers stroke fill;enable-background:accumulate;stop-color:#000000" d="M 1033,225.5 V 198 h 36.3 36.3 l 5.5,-5.7 c 11.2,-11.7 11.9,-12.7 10.6,-16.8 -0.6,-1.9 -1.3,-3.2 -1.6,-2.8 -0.3,0.5 -20.9,0.7 -45.7,0.5 l -45.1,-0.3 -0.6,-24.7 c -0.9,-31.6 -0.9,-68.9 0,-82.5 l 0.6,-10.7 h 27.1 27.1 l 0.4,31.3 c 0.2,17.1 0.5,31.4 0.8,31.7 0.3,0.3 8,0.5 17.3,0.5 h 16.8 l 0.8,5.5 0.9,5.5 1.9,-3 c 1.8,-2.7 2,-5.5 2.4,-37.2 l 0.5,-34.3 h 26.8 26.9 v 73.3 73.2 l -25.8,25.8 -25.7,25.7 h -47.3 -47.2 z" id="path28"/>
    <path style="baseline-shift:baseline;display:inline;overflow:visible;vector-effect:none;fill:#000000;stroke:none;stroke-width:30;stroke-linecap:round;stroke-linejoin:round;stroke-dasharray:none;stroke-opacity:1;paint-order:markers stroke fill;enable-background:accumulate;stop-color:#000000" d="m 861,164.3 c 0,-48.7 0.3,-93.3 0.6,-99 L 862.3,55 h 78.8 78.9 v 37.2 37.2 l -11.5,11.6 c -6.3,6.4 -11.5,12.3 -11.5,13.1 0,0.8 5.2,6.6 11.5,12.9 l 11.5,11.5 V 215.7 253 H 992.5 965 v -25.8 -25.7 l -9.9,-9.9 -9.9,-9.9 -12,-0.5 c -10.7,-0.4 -12.1,-0.7 -12.5,-2.3 -0.8,-3.1 -3.4,-1.2 -4.1,2.9 -0.3,2 -0.6,18.9 -0.6,37.5 V 253 h -27.5 -27.4 z m 59.8,-32.1 0.3,-5.2 10.7,-0.2 c 5.9,0 11.2,-0.1 11.9,-0.1 1.3,0.1 10.3,-9.1 10.3,-10.5 0,-0.4 -1.3,-2 -2.8,-3.5 l -2.9,-2.8 -15.4,0.3 -15.4,0.3 -0.3,12.4 c -0.1,6.9 0,13.1 0.3,13.9 1.1,3 3,0.4 3.3,-4.6 z" id="path26"/>
    <path style="baseline-shift:baseline;display:inline;overflow:visible;vector-effect:none;fill:#ffffff;stroke:none;stroke-width:30;stroke-linecap:round;stroke-linejoin:round;stroke-dasharray:none;stroke-opacity:1;paint-order:markers stroke fill;enable-background:accumulate;stop-color:#000000" d="m 421.49609,37.939453 c -2.01091,0.06777 -4.34529,0.553624 -6.77539,1.898438 -4.8602,2.689627 -7.07816,7.828329 -7.57812,10.578125 a 15.0015,15.0015 0 0 0 -0.24219,2.683593 c 0,-2.45 0.11652,-1.823301 0.125,-1.880859 0.008,-0.05756 -0.008,0.05276 -0.0352,0.208984 -0.0536,0.312441 -0.14804,0.838672 -0.24804,1.388672 l 0.0898,-0.458984 c -1.38375,6.457521 0.24869,8.685177 1.21289,10.539062 a 15.0015,15.0015 0 0 0 1.26563,16.69336 l 0.90039,1.009765 c 0.51452,5.442913 2.55643,6.54539 3.38086,7.542969 0.94023,1.137705 1.53079,1.64587 2.0664,2.119141 1.07124,0.946541 1.88947,1.542524 2.78907,2.185547 1.79918,1.286046 3.78715,2.564526 5.89257,3.851562 2.10543,1.287037 4.27011,2.540948 6.32227,3.630859 0.67448,0.358223 1.2008,0.670313 1.75391,0.992193 -1.22537,2.05125 -2.14609,4.46699 -2.6875,7.04296 -0.57758,0.63722 -1.15034,1.31616 -3.25391,3.34961 a 15.0015,15.0015 0 0 0 -0.084,0.082 c -6.12815,6.01674 -10.69808,11.85261 -13.95507,18.49414 -10e-4,0.003 -0.003,0.005 -0.004,0.008 C 409.01057,136.85374 407.5,143.82354 407.5,155 a 15.0015,15.0015 0 0 0 0,0.13867 c 0.10161,10.97402 1.21342,17.12359 4.82031,26.39844 l -0.0547,-0.14063 c 0.70719,1.87404 1.28631,3.61282 1.81641,5.22461 -0.53178,0.81755 -1.14912,1.60958 -1.61328,2.48633 -0.91789,1.73379 -2.46875,1.71719 -2.46875,8.99219 0,5.2 0.93767,5.5377 1.4043,6.67383 0.46662,1.13612 0.90836,2.01363 1.38672,2.91406 0.9567,1.80085 2.04773,3.59471 3.29687,5.43555 l -0.13477,-0.20313 c 0.60988,0.93087 1.06521,1.70117 1.47657,2.39844 C 417.21711,214.66025 417,213.77408 417,211 c 0,5.0875 4.00031,11.63818 8.24219,13.97461 4.24187,2.33643 7.59386,2.24803 10.34179,1.87891 1.02421,-0.13758 2.03265,-0.41305 3.03711,-0.69141 1.25719,3.85953 3.33329,6.0846 4.42383,7.40234 a 15.0015,15.0015 0 0 0 0.24805,0.29297 c 1.1102,1.27347 2.10695,2.39488 3.70898,3.75391 1.30338,1.10567 2.71471,3.86057 8.48438,4.17187 3.82113,2.35545 8.28713,3.2168 11.11328,3.2168 0.47301,0 1.06306,-0.24389 1.57812,-0.30469 0.6752,0.25962 1.4626,0.71459 2.01954,0.83789 2.62705,0.58164 3.93448,0.4668 4.90234,0.4668 1.29657,0 2.64832,-0.1166 4.20312,-0.41797 0.0309,0.006 0.0889,0.041 0.11914,0.0469 2.51439,0.49301 3.61834,0.37109 4.47852,0.37109 0.96786,0 2.21571,0.11103 4.78516,-0.4375 0.47942,-0.10235 1.20998,-0.52224 1.79882,-0.73242 1.99982,0.12369 3.09057,-0.0224 3.81446,-0.11524 1.64142,-0.17586 4.58579,-1.28582 7.45508,-2.94726 6.28616,0.0271 9.16621,-3.15642 10.70703,-4.61328 1.80552,-1.70715 2.74714,-3.0427 3.74414,-4.48243 0.95091,-1.35269 2.53087,-3.71273 3.48828,-6.89648 0.98829,0.31014 1.92395,0.6308 3.26562,0.87305 3.81609,0.68901 11.45292,-0.90326 15.25196,-5.49805 1.96927,-2.38175 2.88152,-4.53998 3.33593,-6.44141 -0.19083,0.25717 -0.36528,-0.0581 -0.33203,-0.12304 0.0441,-0.0862 0.24302,-0.37796 0.40821,-0.63086 0.24338,-1.40037 0.37695,-2.76232 0.37695,-3.75586 0,2.47347 -0.17964,3.15723 -0.3457,3.70703 0.088,-0.13296 0.13814,-0.23473 0.21484,-0.33398 A 15.0015,15.0015 0 0 0 542,213.40039 c 2.59,-3.45333 5.50533,-7.88939 5.82031,-14.41406 0.23301,-4.82668 -1.49444,-9.29152 -3.59179,-12.69727 0.46449,-1.28783 0.87205,-2.47521 1.43554,-3.91211 l -0.0684,0.17188 C 549.36128,173.28756 550.5,167.18264 550.5,155 c 0,-5.98475 0.0526,-9.64231 -0.62305,-13.89258 -0.67568,-4.25026 -2.28676,-8.00209 -3.7207,-11.0293 a 15.0015,15.0015 0 0 0 -0.0684,-0.14062 c -3.21278,-6.60406 -7.66611,-11.71472 -12.70312,-16.83984 -5.03702,-5.12513 -10.05175,-9.65581 -16.60352,-12.97657 -8.21388,-4.172957 -16.52688,-7.018949 -26.07227,-7.787106 -2.69499,-3.350293 -6.59577,-6.576962 -11.14453,-8.039062 -3.38047,-1.08658 -6.48638,-1.253727 -9.45703,-1.076172 l 2.29883,4.269531 0.0508,0.09375 c -0.79787,-1.507095 -1.71902,-2.939588 -2.7168,-4.3125 -2.20223,0.159205 -4.36178,0.434997 -6.39453,0.886719 l 0.0684,-0.01367 5.97852,-1.300781 c -1.41596,-1.889543 -3.00994,-3.621827 -4.72266,-5.21875 0.66887,-2.192162 1.22119,-4.597648 1.32422,-8.306641 A 15.0015,15.0015 0 0 0 466,68.900391 c 0,-9.257143 -2.43992,-10.775811 -5.75781,-14.859375 a 15.0015,15.0015 0 0 0 -0.25391,-0.302735 L 457.58789,50.9375 a 15.0015,15.0015 0 0 0 -11.05664,-4.580078 c -0.45942,-0.644102 -1.4198,-1.58277 -3.67383,-3.125 -1.12044,-0.76662 -2.76318,-1.806902 -5.67383,-2.367188 -1.59821,-0.307648 -3.67372,-0.25798 -5.76367,0.144532 -0.77356,-0.707905 -1.84449,-1.52071 -5.09375,-2.460938 -1.13178,-0.327501 -2.81917,-0.677145 -4.83008,-0.609375 z m 44.14063,50.535156 0.0625,0.103516 c -0.007,-0.01165 -0.0163,-0.01961 -0.0234,-0.03125 -0.0125,-0.02002 -0.0266,-0.05223 -0.0391,-0.07227 z m -42.30469,4.103516 c 0.0434,0.03985 0.19183,0.158288 0.22461,0.189453 0.17863,0.169825 0.11344,0.240314 -0.22461,-0.189453 z m 43.45508,17.707035 c 0.0153,0.0276 0.0432,0.0717 0.0586,0.0996 3e-4,5.3e-4 -0.004,-0.004 -0.004,-0.004 z m -37.45899,2.36132 c 0.0193,0.54691 -0.0686,1.09289 0.004,1.63672 l -0.0566,-0.49023 c -0.0375,-0.37476 0.0356,-0.76187 0.0527,-1.14649 z m 39.45704,1.02735 c 1.0849,1.61653 2.57454,3.35959 5.26953,5.15625 4.7816,3.18773 9.55747,3.16992 11.8457,3.16992 -0.8963,0 14.69294,3.54577 17.30469,4.87305 a 15.0015,15.0015 0 0 0 0.0137,0.006 c 0.74823,0.37924 5.2335,3.64817 8.77148,7.24804 3.51956,3.58113 6.68146,8.06993 7.09571,8.90039 1.12241,2.3659 1.0664,2.18896 1.16211,2.79102 0.0743,0.46738 0.13988,3.63122 0.1875,6.86914 -2.82366,0.4293 -4.89983,1.23344 -6.44727,2.05273 3.81365,-2.04403 1.72028,-0.70379 0.31055,-0.46289 -1.44096,0.24624 -3.52374,0.51009 -5.47071,0.67578 h 0.0117 c -8.58724,0.72423 -15.93254,3.38146 -23.56054,8.4668 a 15.0015,15.0015 0 0 0 -0.20313,0.13672 c -2.21883,1.53205 -4.2643,3.03911 -6.09375,4.48633 -1.81825,-1.46697 -3.92437,-3.05214 -6.17969,-4.63086 a 15.0015,15.0015 0 0 0 -0.0371,-0.0254 c -7.13006,-4.96004 -14.62212,-7.60747 -23.37695,-8.42188 l 0.10352,0.01 c -2.1946,-0.21946 -4.41598,-0.5171 -5.91602,-0.77344 -0.47457,-0.0811 -0.65697,-0.1236 -0.92578,-0.17969 0.17525,0.0635 0.66933,0.34319 1.02344,0.52539 -0.30531,-0.16706 -0.90255,-0.38969 -1.2793,-0.57617 -0.0564,-0.0124 -0.25667,-0.0486 -0.28125,-0.0547 -0.028,-0.007 0.0646,-0.0139 0.0586,-0.0449 -0.59141,-0.28316 -0.88017,-0.50979 -1.90039,-0.85742 -0.65248,-0.22233 -1.68067,-0.49094 -2.86328,-0.70703 -0.23308,-4.99119 -0.6648,-3.8764 1.94727,-9.17969 a 15.0015,15.0015 0 0 0 0.0137,-0.0254 c 1.7415,-3.55265 3.1703,-5.51764 8.03125,-10.29101 0.004,-0.003 0.004,-0.004 0.008,-0.008 3.12009,-3.01614 5.31614,-5.14527 7.49024,-8.06054 1.31653,-1.76536 2.68246,-4.59041 3.51562,-7.66211 1.28903,-0.65534 2.66071,-1.32859 4.60156,-2.85938 a 15.0015,15.0015 0 0 0 2.16993,0.23633 z m 40.54882,54.89062 c 0.15416,0.0583 0.26372,0.30067 0.17969,0.62891 -0.1897,0.68958 -0.23432,0.62326 -0.38476,1.17187 -0.25341,-1.27644 -0.0484,-1.89653 0.20507,-1.80078 z m -37.77929,8.16602 c -0.0219,0.0526 -0.0276,0.10747 -0.0488,0.16015 -0.0565,0.1467 -0.0924,0.18707 -0.15039,0.3418 z m 70.66992,6.75586 c 0.10673,0.0496 0.2047,0.10303 0.36133,0.5 -0.12202,-0.157 -0.23973,-0.35095 -0.36133,-0.5 z m -126.56836,0.70312 c 0.0474,-0.10274 -0.11075,0.14937 0.004,0.002 -0.14249,0.1832 -0.22322,0.37107 -0.35938,0.55273 0.1624,-0.48781 0.33102,-0.5017 0.35547,-0.55469 z m 127.23242,5.94336 c -0.0879,0.63425 -0.18224,0.59935 -0.13476,0.42774 0.0179,-0.0646 0.10255,-0.31969 0.13476,-0.42774 z m -11.29883,7.95703 c 0.86448,0.42156 0.77613,0.63498 0.2168,0.125 l 0.5,0.47852 c -0.18225,-0.18225 -0.51109,-0.40944 -0.7168,-0.60352 z m -52.41992,1.7793 c 2.03113,1.55379 4.12174,2.86067 6.35547,3.95898 0.27732,0.13821 0.62822,0.19419 0.91406,0.32422 0.0181,0.36681 -0.021,0.57831 -0.0645,0.77149 -0.0769,0.0872 -0.0858,0.15973 -1.00781,0.77148 -0.57994,0.38477 -1.30872,1.01092 -3.73047,1.7461 -0.76113,0.23105 -2.07305,0.39302 -3.5625,0.44726 -0.70189,-0.15559 -1.49491,-0.282 -2.00586,-0.47265 -6.79476,-2.53536 -4.41244,-3.05281 -3.61133,-1.89258 l -0.10547,-0.15625 c -0.0319,-0.0476 -0.48491,-0.22471 -0.52539,-1.32813 0.27828,-0.12834 0.61141,-0.18656 0.88281,-0.32226 a 15.0015,15.0015 0 0 0 0.25977,-0.13282 c 2.17961,-1.1434 4.19342,-2.221 6.20117,-3.71484 z m -56.92773,4.18359 c -0.22918,0.55532 -0.47626,0.85516 -0.69922,1.49219 l 0.28711,-0.75586 c 0.12269,-0.29797 0.28303,-0.4612 0.41211,-0.73633 z M 486.36914,205 c -0.13559,0.51022 -0.35136,0.46083 -0.37695,0.39062 0.16509,-0.16951 0.308,-0.32059 0.37695,-0.39062 z m 28.26172,0.0195 -0.10352,0.041 c 0.0249,-0.009 0.0474,-0.0239 0.0723,-0.0332 0.01,-0.004 0.0215,-0.004 0.0312,-0.008 z m -75.26758,6.48438 c 0.0861,-0.10888 0.13231,0.008 0.01,0.35156 a 15.0015,15.0015 0 0 0 -0.10352,0.30078 c -0.0373,0.11185 -0.10021,0.31472 -0.14258,0.43164 0.029,-0.59437 0.14736,-0.9714 0.23633,-1.08398 z m 10.07422,4.9375 c -1.14922,2.97299 -1.99279,4.15151 -2.5293,4.39257 0.95524,-1.21281 1.79959,-2.68153 2.5293,-4.39257 z m 41.06055,6.04687 c 2.46577,4.10496 1.81608,5.67977 1.7832,6.45899 -0.0339,0.80343 -0.0952,0.90266 -0.1582,1.12304 -0.0154,0.0539 -0.1719,0.33522 -0.18946,0.4043 0.11368,-3.0215 -0.28581,-6.00737 -1.43554,-7.98633 z m -5.17383,0.0664 c 7.5e-4,0.001 10e-4,0.003 0.002,0.004 -0.005,0.0653 -0.003,0.13796 -0.008,0.20313 1.1e-4,-0.002 -0.004,-0.0256 -0.004,-0.0273 z m 0.7793,1.07812 c 1.21589,2.02238 0.3332,1.84884 0.0918,0.40039 l 0.0684,0.45117 c -0.0392,-0.28876 -0.11634,-0.56696 -0.16015,-0.85156 z m 18.83398,0.98438 C 506.48391,227.73766 505,227.40166 505,226 c 0,-0.45998 -0.0532,-0.92977 -0.0625,-1.38281 z m -8.97461,0.9707 C 496.98733,227.97202 496,228.16006 496,227 c 0,-0.44696 -0.0352,-0.95474 -0.0371,-1.41211 z m -52.57227,1.30273 c 0.003,0.014 0.005,0.0309 0.008,0.0449 l -0.008,-0.0371 c 8.5e-4,0.004 -8.1e-4,-0.0114 0,-0.008 z" id="path29"/>
    <path style="baseline-shift:baseline;display:inline;overflow:visible;vector-effect:none;fill:#000000;stroke:none;stroke-width:30;stroke-linecap:round;stroke-linejoin:round;stroke-dasharray:none;stroke-opacity:1;paint-order:markers stroke fill;enable-background:accumulate;stop-color:#000000" d="m 471.4,226.5 c -0.8,-5.9 -3.4,-6.2 -3.4,-0.5 0,2.8 -0.4,4 -1.4,4 -3.3,0 -4.5,-1.4 -5.2,-5.6 -0.3,-2.4 -1,-4.7 -1.5,-5 -1.8,-1.1 -2.7,0.7 -1.9,4.1 1,4.3 0,4.4 -3.4,0.5 -2.4,-2.9 -2.4,-3.2 -1.1,-7.1 1,-2.8 1.2,-4.7 0.5,-5.9 -1.1,-2.1 -6.9,-5 -10,-5 -2.8,0 -7.6,2.5 -8.3,4.5 -0.7,1.7 -3.7,2.1 -3.7,0.5 0,-0.6 -1.6,-3.4 -3.5,-6.3 -1.9,-2.8 -3.5,-5.8 -3.5,-6.6 0,-0.8 1.1,-2.9 2.5,-4.7 1.4,-1.8 2.5,-4.2 2.5,-5.4 0,-1.2 -1.7,-6.6 -3.7,-11.9 -3.5,-9 -3.7,-10.3 -3.8,-21.1 0,-11.1 0.1,-11.8 3.4,-18.5 2.5,-5.1 5.5,-9 11,-14.4 6,-5.8 7.5,-7.8 7.3,-9.8 -0.4,-3 2,-5.8 7.1,-8.4 4.3,-2.2 4.4,-3 1.6,-7.5 -2.2,-3.6 -6.8,-6.9 -11.4,-8 -2.9,-0.7 -16.5,-9 -16.5,-10.1 0,-0.3 1.1,0.2 2.5,1.1 1.4,0.9 3.6,2.3 5,3.2 4.8,3.1 3.5,0.7 -1.8,-3.4 -2.9,-2.3 -6.4,-5.3 -7.7,-6.8 l -2.5,-2.8 3.5,2.4 c 1.9,1.3 5.3,3.8 7.5,5.5 4.5,3.6 8.5,5.9 9.1,5.2 0.2,-0.2 -4.1,-6 -9.5,-12.8 -6.9,-8.5 -9.9,-13 -9.6,-14.4 0.2,-1.1 0.4,-2.2 0.4,-2.4 0.2,-1.1 4.3,3.6 11.4,13.2 4.3,5.9 8.1,10.6 8.3,10.4 0.3,-0.2 -1.1,-3.7 -3,-7.8 -1.9,-4.1 -3.7,-9 -4,-10.9 -0.6,-3.4 -0.6,-3.4 1.9,1.3 1.4,2.6 2.9,4.7 3.3,4.7 0.5,0 1.9,2.5 3.1,5.5 2.3,5.6 4.4,8.3 3.4,4.4 -0.3,-1.2 -0.1,-2.4 0.6,-2.8 0.8,-0.5 0.8,-2.1 0.2,-5.5 l -0.9,-4.9 2.4,2.8 c 1.3,1.6 2.4,4 2.4,5.4 -0.1,3.6 -3.4,13.4 -4.3,12.5 -0.4,-0.4 -0.7,-0.3 -0.7,0.2 0.1,0.5 2.4,2.5 5.3,4.4 3.5,2.4 6.1,5.2 7.9,8.6 l 2.8,5.2 4.6,-1 c 7.2,-1.6 10.7,-0.4 13.3,4.2 2,3.6 2.6,4 6,4 5.4,0 18,3.4 24.1,6.5 7.3,3.7 19,15.6 22.6,23 2.7,5.7 2.9,6.7 2.9,18.5 0,12.1 -0.1,12.8 -3.8,21.9 -2,5.1 -3.7,10.1 -3.7,11.1 0,1 1.1,3.2 2.5,4.8 3.3,3.9 3.1,6.8 -0.5,11.6 -1.7,2.2 -3,4.8 -3,5.8 0,2.6 -1.9,2.2 -5.3,-0.9 -2.3,-2.3 -3.7,-2.8 -7.7,-2.8 -4.1,0 -5.5,0.5 -7.7,2.7 -2.6,2.7 -2.7,2.9 -1.5,7.4 1.1,4.1 1,4.8 -0.9,7.5 -2.7,3.9 -3.9,3.7 -3.6,-0.7 0.2,-4.5 -2,-5.8 -2.8,-1.7 -1.4,6.7 -2,7.8 -4.8,8.1 -2.6,0.3 -2.7,0.1 -2.7,-3.8 0,-5.6 -2.4,-4.9 -2.8,0.8 -0.3,3.9 -0.5,4.2 -3.3,4.2 -2.7,0 -2.9,-0.2 -2.9,-4 0,-2.7 -0.4,-4 -1.4,-4 -1.4,0 -3,5.5 -2,7.1 0.3,0.5 -0.8,0.9 -2.5,0.9 -2.8,0 -3,-0.3 -3.7,-4.5 z m 6,-20 c 1.7,-1.3 2.3,-1.3 4.4,0.1 5,3.3 7.1,-3.5 3,-9.6 -2.9,-4.2 -4.8,-4.9 -4.8,-1.8 -0.1,2.2 -0.1,2.2 -1.2,0.3 -0.6,-1.1 -1.2,-2.2 -1.4,-2.4 -0.2,-0.2 -1.4,1 -2.8,2.5 -5.8,6.7 -3.5,15.6 2.8,10.9 z M 466,190.3 c 6.1,-3.2 8,-5.5 6.5,-7.9 -0.6,-0.9 -4.3,-3.9 -8.3,-6.7 -6.9,-4.8 -7.6,-5 -16.2,-5.8 -5,-0.5 -9.9,-1.3 -10.9,-1.9 -2.8,-1.5 -3.1,-1.3 -3.1,1.8 0,8.7 7,18.6 15.1,21.5 6.6,2.3 10.9,2 16.9,-1 z m 43.3,0.7 c 7.8,-2.9 12,-8.1 14.7,-17.9 1.4,-5.2 0.4,-6.9 -3,-5.1 -1.3,0.7 -6.2,1.5 -10.9,1.9 -8.3,0.7 -9,1 -16.5,6 -4.2,2.9 -7.9,5.8 -8.2,6.6 -1,2.4 1.5,5.3 6.8,7.9 6.2,3.1 10,3.3 17.1,0.6 z m -82,-130.4 c -1,-1.3 -1.9,-2.3 -2.1,-2.1 -0.5,0.5 2.2,4.5 3.1,4.5 0.4,0 0,-1.1 -1,-2.4 z" id="path30"/>
    <path style="baseline-shift:baseline;display:inline;overflow:visible;vector-effect:none;fill:#000000;stroke:none;stroke-width:30;stroke-linecap:round;stroke-linejoin:round;stroke-dasharray:none;stroke-opacity:1;paint-order:markers stroke fill;enable-background:accumulate;stop-color:#000000" d="M 256,154 V 55 h 49.8 49.7 l 25.8,25.8 25.7,25.7 V 179.8 253 H 379.5 352 v -61.8 -61.7 l -9.8,-9.8 -9.7,-9.7 H 321.7 311 V 181.5 253 H 283.5 256 Z" id="path18"/>
</svg>
