<?xml version='1.0' encoding='utf-8'?>
<svg xmlns:xlink="http://www.w3.org/1999/xlink" xmlns="http://www.w3.org/2000/svg" xmlns:rdf="http://www.w3.org/1999/02/22-rdf-syntax-ns#" xmlns:cc="http://creativecommons.org/ns#" xmlns:dc="http://purl.org/dc/elements/1.1/" viewBox="0 0 462.14102 147.82563" version="1.1" id="svg27547" height="191.9227685090581" width="600" xml:space="preserve">
    <defs id="defs27549">
        <linearGradient id="linearGradient43">
            <stop style="stop-color:#262b2f;stop-opacity:1" offset="0" id="stop43"/>
            <stop style="stop-color:#262c2f;stop-opacity:1" offset="0.24962941" id="stop45"/>
            <stop style="stop-color:#282f34;stop-opacity:1" offset="0.39728731" id="stop46"/>
            <stop style="stop-color:#363b3d;stop-opacity:1" offset="0.45676085" id="stop56"/>
            <stop style="stop-color:#383e41;stop-opacity:1" offset="0.46185219" id="stop57"/>
            <stop style="stop-color:#58646e;stop-opacity:1" offset="0.46439785" id="stop58"/>
            <stop style="stop-color:#789cb5;stop-opacity:1" offset="0.46694353" id="stop47"/>
            <stop style="stop-color:#a9b3bb;stop-opacity:1" offset="0.47696865" id="stop59"/>
            <stop style="stop-color:#b8c0c8;stop-opacity:1" offset="0.48198122" id="stop60"/>
            <stop style="stop-color:#eaedf0;stop-opacity:1" offset="0.48699376" id="stop48"/>
            <stop style="stop-color:#b2bbc5;stop-opacity:1" offset="0.49394411" id="stop61"/>
            <stop style="stop-color:#a9b2bc;stop-opacity:1" offset="0.4974193" id="stop62"/>
            <stop style="stop-color:#90aac4;stop-opacity:1" offset="0.50089449" id="stop49"/>
            <stop style="stop-color:#575f66;stop-opacity:1" offset="0.51433015" id="stop53"/>
            <stop style="stop-color:#393f45;stop-opacity:1" offset="0.52104795" id="stop54"/>
            <stop style="stop-color:#2a2f34;stop-opacity:1" offset="0.52440691" id="stop55"/>
            <stop style="stop-color:#23292d;stop-opacity:1" offset="0.59963936" id="stop50"/>
            <stop style="stop-color:#262b2f;stop-opacity:1" offset="0.68806821" id="stop52"/>
            <stop style="stop-color:#1b1f23;stop-opacity:1" offset="1" id="stop44"/>
        </linearGradient>
        <linearGradient id="linearGradient87">
            <stop style="stop-color:#5d6c76;stop-opacity:1" offset="0" id="stop87"/>
            <stop style="stop-color:#2e3a45;stop-opacity:1" offset="1" id="stop88"/>
        </linearGradient>
        <linearGradient id="linearGradient82">
            <stop style="stop-color:#bdd6ed;stop-opacity:1" offset="0" id="stop82"/>
            <stop style="stop-color:#265da2;stop-opacity:1" offset="1" id="stop83"/>
        </linearGradient>
        <linearGradient id="linearGradient79">
            <stop style="stop-color:#c5c6c7;stop-opacity:1" offset="0" id="stop79"/>
            <stop style="stop-color:#4b545b;stop-opacity:1" offset="1" id="stop80"/>
        </linearGradient>
        <linearGradient id="linearGradient77">
            <stop style="stop-color:#767b7f;stop-opacity:1" offset="0" id="stop77"/>
            <stop style="stop-color:#d3d5d6;stop-opacity:1" offset="1" id="stop78"/>
        </linearGradient>
        <linearGradient id="linearGradient38">
            <stop style="stop-color:#000000;stop-opacity:1" offset="0" id="stop38"/>
            <stop style="stop-color:#9ab3c5;stop-opacity:1" offset="1" id="stop39"/>
        </linearGradient>
        <linearGradient xlink:href="#linearGradient38" id="linearGradient39" x1="290.28113" y1="-30.700783" x2="310.05261" y2="-16.685211" gradientUnits="userSpaceOnUse" spreadMethod="reflect" gradientTransform="matrix(0.79504016,0,0,0.79504016,59.358103,-7.4634263)"/>
        <linearGradient xlink:href="#linearGradient77" id="linearGradient78" x1="295.74756" y1="-37.45591" x2="308.61557" y2="-28.489262" gradientUnits="userSpaceOnUse" gradientTransform="translate(-37.370435,147.158)"/>
        <linearGradient xlink:href="#linearGradient79" id="linearGradient80" x1="295.74756" y1="-37.45591" x2="295.78271" y2="-30.762779" gradientUnits="userSpaceOnUse" spreadMethod="reflect" gradientTransform="translate(-37.370435,147.158)"/>
        <radialGradient xlink:href="#linearGradient82" id="radialGradient83" cx="285.22202" cy="-21.177809" fx="285.22202" fy="-21.177809" r="1.8877156" gradientUnits="userSpaceOnUse" gradientTransform="matrix(1.4415264,0,0,1.4415264,-150.42516,150.30474)"/>
        <linearGradient xlink:href="#linearGradient87" id="linearGradient88" x1="293.36383" y1="-33.15823" x2="323.9635" y2="-60.261768" gradientUnits="userSpaceOnUse" spreadMethod="reflect"/>
        <linearGradient xlink:href="#linearGradient43" id="linearGradient44" x1="250.47627" y1="47.702507" x2="250.47627" y2="491.8432" gradientUnits="userSpaceOnUse" gradientTransform="translate(-20.140468,-165.17081)"/>
    </defs>
    <metadata id="metadata27552">
        <rdf:RDF>
            <cc:Work rdf:about="">
                <dc:format>image/svg+xml</dc:format>
                <dc:type rdf:resource="http://purl.org/dc/dcmitype/StillImage"/>
            </cc:Work>
        </rdf:RDF>
    </metadata>
    <path style="font-size:96px;font-family:CƏLAL;baseline-shift:baseline;display:inline;overflow:visible;vector-effect:none;fill:#ffffff;fill-rule:evenodd;stroke-linecap:round;stroke-linejoin:round;paint-order:markers stroke fill;enable-background:accumulate;stop-color:#000000" d="m 347.99998,60.684888 c -6.05805,0 -11.53894,0.72986 -16.4414,2.61133 -0.001,5e-4 -0.003,10e-4 -0.004,0.002 a 5.0005,5.0005 0 0 0 -0.0254,0.01 c -2.64237,1.02362 -5.04545,2.43646 -7.27539,4.07227 -1.40421,-3.16746 -4.57888,-5.42933 -8.22266,-5.42969 h -21.51552 c -4.84126,0 -9.54635,0.94408 -13.77539,3.05859 a 5.0005,5.0005 0 0 0 -0.0352,0.0195 c -3.9406,1.99245 -7.37162,4.82061 -10.01953,8.33594 -2.49386,3.31081 -4.34146,7.07631 -5.55664,11.12695 -1.20173,4.00577 -1.78516,8.19311 -1.78516,12.47461 0,4.234192 0.58794,8.394052 1.78516,12.384772 1.21533,4.05113 3.06346,7.81508 5.55664,11.125 2.6479,3.51531 6.07893,6.3435 10.01953,8.33594 a 5.0005,5.0005 0 0 0 0.0352,0.0176 c 4.22904,2.11451 8.93413,3.05859 13.77539,3.05859 h 21.51562 c 3.62225,-3.6e-4 6.7726,-2.24097 8.18946,-5.37891 2.23733,1.65705 4.65079,3.08564 7.30859,4.11524 a 5.0005,5.0005 0 0 0 0.0254,0.01 c 10e-4,5e-4 0.003,10e-4 0.004,0.002 4.90245,1.88147 10.38335,2.61132 16.4414,2.61132 5.99973,0 11.44666,-0.73406 16.33008,-2.60546 8.4e-4,-3.2e-4 0.001,-0.002 0.002,-0.002 h 0.004 c 3.50737,-1.33594 6.73246,-3.2038 9.45703,-5.64258 0.98799,3.89145 4.39976,6.89021 8.56641,6.89063 h 9.70312 c 4.9109,-4.9e-4 8.99951,-4.08715 9,-8.99805 a 5.0005,5.0005 0 0 0 0,-0.002 V 88.013478 h 2.76539 v 34.875002 a 5.0005,5.0005 0 0 0 0,0.002 c 4.9e-4,4.9109 4.08911,8.99756 9,8.99805 h 9.79687 c 4.9109,-4.9e-4 8.99951,-4.08715 9,-8.99805 a 5.0005,5.0005 0 0 0 0,-0.002 V 88.013478 h 0.75 c 1.3251,0 2.05314,0.38545 1.48243,0.0937 a 5.0005,5.0005 0 0 0 0.0586,0.0293 c 0.0285,0.0141 0.0573,0.0272 0.0859,0.041 0.35827,0.17516 0.036,-0.005 -0.0899,-0.18164 a 5.0005,5.0005 0 0 0 0.01,0.0156 c 0.0289,0.0401 0.0584,0.0795 0.0879,0.11914 0.0327,0.044 0.0229,0.0684 0.0215,0.0605 2.6e-4,1.3e-4 -2.5e-4,0.002 0,0.002 -0.002,-0.01 0.001,-0.0506 0.0274,0.0781 0.0108,0.0534 0.0215,0.10701 0.0332,0.16016 a 5.0005,5.0005 0 0 0 0.008,0.0312 c 0.17269,0.75982 0.24415,1.43228 0.24414,2.08203 v 32.343752 c 5e-4,4.91089 4.08911,8.99951 9,9 h 9.79688 c 4.91089,-4.9e-4 8.99951,-4.08911 9,-9 V 88.341438 c 0,-7.55883 -2.21529,-14.84746 -7.69922,-19.79687 -5.2276,-4.74541 -12.24325,-6.59375 -19.62891,-6.59375 h -52.45312 c -4.18639,4.2e-4 -7.61012,3.0284 -8.57813,6.94726 -2.72529,-2.4199 -5.94624,-4.27019 -9.44726,-5.60351 -4.8838,-1.87208 -10.33283,-2.60938 -16.33399,-2.60938 z m -316.82811,1.26563 c -4.84126,0 -9.54635,0.94407 -13.775391,3.05859 a 5.0005,5.0005 0 0 0 -0.03125,0.0176 c -0.0013,6.7e-4 -0.0026,0.001 -0.0039,0.002 -3.940595,1.99244 -7.3716238,4.8206 -10.0195317,8.33594 -2.493866,3.31082 -4.341454,7.07633 -5.556641,11.12695 C 0.5834252,88.497378 0,92.684718 0,96.966208 c 0,4.234182 0.5879377,8.394042 1.7851563,12.384772 1.215334,4.05112 3.063458,7.81508 5.556641,11.125 0.8201107,1.08876 1.8405879,1.98294 2.8027337,2.93555 -2.5063937,1.61056 -4.2848407,4.29218 -4.2851557,7.44531 v 7.96875 a 5.0005,5.0005 0 0 0 0,0.002 c 4.91e-4,4.9109 4.0891049,8.99756 9.0000007,8.99805 h 30.140625 c 3.949683,0 7.853541,-0.5493 11.445312,-2.39453 2.948552,-1.48632 5.636782,-3.65707 7.552735,-6.58008 1.589322,-2.39671 2.686945,-5.10073 3.18164,-7.95898 0.144803,-0.83664 0.136691,-1.65085 0.226563,-2.47852 4.38304,2.42579 9.482976,3.47461 14.765625,3.47461 h 32.343744 c 1.56541,-1.6e-4 2.97317,-0.52491 4.26563,-1.25 1.29245,0.72509 2.70021,1.24984 4.26562,1.25 h 9.70312 c 4.91089,-5e-4 8.99951,-4.08911 9,-9 V 88.013138 h 2.76563 v 34.875002 c 4.9e-4,4.91089 4.08911,8.99951 9,9 h 9.79687 c 4.9109,-4.9e-4 8.99951,-4.08911 9,-9 V 88.013138 h 0.75 c 1.3251,0 2.05314,0.38545 1.48243,0.0937 a 5.0005,5.0005 0 0 0 0.0586,0.0293 c 0.0285,0.0141 0.0573,0.0272 0.0859,0.041 0.35827,0.17516 0.036,-0.005 -0.0899,-0.18164 a 5.0005,5.0005 0 0 0 0.01,0.0156 c 0.0289,0.0401 0.0584,0.0795 0.0879,0.11914 0.0327,0.044 0.0229,0.0684 0.0215,0.0605 2.6e-4,1.3e-4 -2.5e-4,0.002 0,0.002 -0.002,-0.01 0.001,-0.0505 0.0273,0.0781 0.0108,0.0534 0.0215,0.10701 0.0332,0.16016 a 5.0005,5.0005 0 0 0 0.008,0.0293 c 0.17268,0.7598 0.24414,1.43421 0.24414,2.08399 v 32.343752 c 5e-4,4.91089 4.08911,8.99951 9,9 h 9.79655 c 4.26638,-4.3e-4 7.7413,-3.14393 8.625,-7.17383 1.82029,1.5869 3.79274,2.99644 5.9707,4.09766 a 5.0005,5.0005 0 0 0 0.0352,0.0176 c 4.22904,2.11452 8.93413,3.05859 13.77539,3.05859 h 21.51562 c 4.9109,-4.9e-4 8.99951,-4.08715 9,-8.99805 a 5.0005,5.0005 0 0 0 0,-0.002 v -7.96875 c -3.2e-4,-3.27598 -1.90312,-6.06415 -4.57226,-7.63867 2.02,-1.66051 3.40011,-4.07003 3.40039,-6.84375 a 5.0005,5.0005 0 0 0 0,-0.002 v -7.875002 c -2.5e-4,-2.47697 -1.04786,-4.73559 -2.70898,-6.375 2.28078,-1.64459 3.88056,-4.19017 3.88085,-7.16992 a 5.0005,5.0005 0 0 0 0,-0.002 v -8.0625 c -4.9e-4,-4.9109 -4.0891,-8.99951 -9,-9 H 222.2344 c -4.84126,0 -9.54635,0.94603 -13.77539,3.06055 a 5.0005,5.0005 0 0 0 -0.0352,0.0176 c -3.79271,1.91767 -7.07499,4.64687 -9.67968,7.98047 -1.00334,-1.61381 -2.15206,-3.14424 -3.61524,-4.46484 -5.2276,-4.74542 -12.24324,-6.59375 -19.62891,-6.59375 h -52.45312 c -3.52961,3.5e-4 -6.57362,2.15276 -8.04102,5.16406 -0.10303,-0.0827 -0.17232,-0.19452 -0.27734,-0.27539 -2.33939,-1.83041 -5.03448,-3.21131 -7.97266,-3.94531 -2.16689,-0.5676 -4.36295,-0.94336 -6.63085,-0.94336 H 66.89062 c -1.484764,1.5e-4 -2.834012,0.46583 -4.078125,1.12305 -1.244113,-0.65722 -2.593361,-1.1229 -4.078125,-1.12305 z m 300.5664,1.2832 c -0.009,0.003 -0.0186,0.005 -0.0274,0.008 a 5.0005,5.0005 0 0 0 -0.12304,0.0449 z m 29.57421,7.47266 c 9.8e-4,3.3e-4 0.003,-3.4e-4 0.004,0 l 0.1543,0.0566 0.0137,0.004 c -0.001,-4.4e-4 -0.003,4.3e-4 -0.004,0 a 5.0005,5.0005 0 0 0 -0.01,-0.004 5.0005,5.0005 0 0 0 -0.15821,-0.0566 z m -240.36523,3.77148 0.0117,0.0234 c -0.002,-0.004 -0.006,-0.008 -0.008,-0.0117 -0.002,-0.004 -0.002,-0.008 -0.004,-0.0117 z m 68.22852,2.96485 0.0352,0.0488 c -0.005,-0.007 -0.0123,-0.0122 -0.0176,-0.0195 -0.007,-0.009 -0.0108,-0.02 -0.0176,-0.0293 z m 259.3125,0 0.0351,0.0488 c -0.005,-0.007 -0.0123,-0.0122 -0.0176,-0.0195 -0.007,-0.009 -0.0107,-0.02 -0.0176,-0.0293 z m -79.9375,0.65234 0.0195,0.0254 c -0.004,-0.005 -0.01,-0.008 -0.0137,-0.0137 -0.003,-0.004 -0.003,-0.008 -0.006,-0.0117 z m -41.1543,0.006 c -0.003,0.004 -0.003,0.008 -0.006,0.0117 -0.004,0.005 -0.01,0.008 -0.0137,0.0137 z m -144.68164,4.05273 c 0.004,0.005 0.008,0.009 0.0117,0.0137 l 0.01,0.0156 c -0.002,-0.003 -0.007,-0.006 -0.01,-0.01 -0.001,-0.002 -7.8e-4,-0.004 -0.002,-0.006 a 5.0005,5.0005 0 0 0 -0.01,-0.0137 z m 259.32422,0.0156 0.01,0.0137 c -0.002,-0.003 -0.007,-0.006 -0.01,-0.01 -6.8e-4,-9.2e-4 6.8e-4,-0.003 0,-0.004 z m 9.61718,2.34961 0.0176,0.0801 c -0.003,-0.0141 -0.0107,-0.0269 -0.0137,-0.041 -0.003,-0.0128 -10e-4,-0.0263 -0.004,-0.0391 z m -103.65625,2.13476 c 2.35325,0 3.80737,0.4424 4.22461,0.64454 2.8e-4,1.3e-4 0.002,-1.4e-4 0.002,0 a 5.0005,5.0005 0 0 0 0.0449,0.0234 c 1.02317,0.48935 1.32557,0.79839 1.67187,1.28321 0.0105,0.0148 0.0206,0.0302 0.0312,0.0449 a 5.0005,5.0005 0 0 0 0.0137,0.0176 c 0.43485,0.59792 0.77519,1.29322 1.02929,2.56054 4e-4,0.002 0.002,0.002 0.002,0.004 0.004,0.0226 0.007,0.0458 0.0117,0.0684 a 5.0005,5.0005 0 0 0 0.0156,0.0684 c 0.34784,1.6087 0.54687,3.46949 0.54687,5.59765 0,2.12899 -0.19925,4.012972 -0.55273,5.669932 a 5.0005,5.0005 0 0 0 -0.002,0.01 c -0.008,0.0366 -0.0142,0.0727 -0.0215,0.10938 -0.25413,1.26483 -0.59846,1.96352 -1.03125,2.55859 a 5.0005,5.0005 0 0 0 0,0.002 c -0.33549,0.4613 -0.6648,0.79664 -1.71484,1.29883 a 5.0005,5.0005 0 0 0 -0.0449,0.0215 c -0.41272,0.20028 -1.86953,0.64257 -4.22657,0.64257 -2.3774,0 -3.86124,-0.43166 -4.34375,-0.6582 -0.99558,-0.48764 -1.34161,-0.82371 -1.6914,-1.30469 -0.44174,-0.60739 -0.80379,-1.36252 -1.08203,-2.63672 -0.33224,-1.68391 -0.52344,-3.577652 -0.52344,-5.712892 0,-2.14002 0.18958,-4.01703 0.51758,-5.65429 0.27784,-1.27985 0.64182,-2.02894 1.08789,-2.64258 2.8e-4,-3.9e-4 -2.8e-4,-0.002 0,-0.002 a 5.0005,5.0005 0 0 0 0.0469,-0.0625 c 0.36192,-0.5067 0.67788,-0.81563 1.64453,-1.28907 0.48577,-0.22811 1.96853,-0.66211 4.34375,-0.66211 z m 24.64649,0.94922 0.0137,0.0645 c -0.002,-0.008 -0.006,-0.0153 -0.008,-0.0234 -0.003,-0.0134 -0.003,-0.0276 -0.006,-0.041 z m -338.38085,0.41005 h 5.671875 V 105.91927 H 34.26562 c -1.696989,0 -2.494174,-0.31109 -2.771484,-0.45899 -0.76311,-0.42561 -1.034761,-0.695 -1.361329,-1.17578 -0.445072,-0.65524 -0.807874,-1.45509 -1.089843,-2.63867 -0.325561,-1.54881 -0.496094,-3.092112 -0.496094,-4.679692 0,-1.59846 0.168037,-3.09962 0.486328,-4.5625 0.284699,-1.20824 0.661949,-2.05249 1.142578,-2.77343 0.338114,-0.50717 0.583126,-0.74987 1.320313,-1.16016 0.276933,-0.14736 1.073599,-0.45703 2.769531,-0.45703 z m 263.34374,0 h 14.97656 c -0.46266,2.89817 -0.77344,5.86041 -0.77344,8.95312 0,3.092482 0.31085,6.055172 0.77344,8.953132 h -14.97656 c -1.69699,0 -2.49417,-0.31108 -2.77148,-0.45899 -0.76311,-0.42561 -1.03474,-0.69497 -1.36133,-1.17578 -0.44508,-0.65526 -0.80787,-1.45508 -1.08985,-2.63867 -0.32556,-1.54881 -0.49609,-3.092112 -0.49609,-4.679692 0,-1.59846 0.16803,-3.09964 0.48633,-4.5625 0.28469,-1.20822 0.66194,-2.05248 1.14258,-2.77343 0.33812,-0.50718 0.58312,-0.74987 1.32031,-1.16016 0.27693,-0.14736 1.0736,-0.45703 2.76953,-0.45703 z m -102.78125,1.9043 a 5.0005,5.0005 0 0 0 4.94141,0.25976 c -0.41912,2.20014 -0.70704,4.44663 -0.70704,6.78906 0,2.4629 0.32897,4.838302 0.8086,7.167972 a 5.0005,5.0005 0 0 0 -5.04297,0.35742 z m -90.11914,0.45507 a 5.0005,5.0005 0 0 0 -0.45898,0.27149 5.0005,5.0005 0 0 0 -0.27344,0.16211 c 0.0112,-0.0142 0.01,-0.0332 0.0215,-0.0469 a 5.0005,5.0005 0 0 0 0.25196,-0.11523 5.0005,5.0005 0 0 0 0.0195,-0.0664 c 0.1434,-0.0885 0.28058,-0.20359 0.43945,-0.20508 z m -0.99023,0.51563 v 0.0723 a 5.0005,5.0005 0 0 0 -1.04493,8.20704 5.0005,5.0005 0 0 0 -1.95507,-0.81055 H 88.117182 a 5.0005,5.0005 0 0 0 -0.0293,-5.96875 h 12.367178 a 5.0005,5.0005 0 0 0 3.26368,-1.5 z m 108.52148,0.56836 a 5.0005,5.0005 0 0 0 3.89844,2.10351 h 25.43945 v 5.875 h -25.78516 a 5.0005,5.0005 0 0 0 -3.73047,1.916022 c -0.0254,-0.1761 -0.0919,-0.34036 -0.11328,-0.51758 a 5.0005,5.0005 0 0 0 0.11524,-8.677732 c 0.0391,-0.24147 0.12959,-0.46074 0.17578,-0.69922 z m -1.24414,0.0254 c 0.27545,0.0135 0.52508,0.2022 0.70703,0.44531 a 5.0005,5.0005 0 0 0 -0.70703,-0.44531 z m 170.36328,0.72266 v 9.527342 a 5.0005,5.0005 0 0 0 -5.47656,-0.26953 c 0.13247,-1.467362 0.25781,-2.939622 0.25781,-4.496102 0,-1.55564 -0.12546,-3.02585 -0.25781,-4.49218 a 5.0005,5.0005 0 0 0 5.47656,-0.26953 z m -312.603506,2.4707 c -0.07784,0.0691 -0.130901,0.16709 -0.207031,0.23828 a 5.0005,5.0005 0 0 0 -0.568359,0.63281 c -3.5e-4,5e-4 0.722982,-0.82451 0.722656,-0.82422 -3.26e-4,3e-4 0.200149,-0.17906 0.03906,-0.0352 z m 35.652336,5.519522 a 5.0005,5.0005 0 0 0 0.30078,0.17773 c -0.10162,-9.5e-4 -0.18342,-0.0917 -0.28125,-0.13086 a 5.0005,5.0005 0 0 0 -0.0195,-0.0469 z m 107.18164,0.85156 c -0.18796,0.23867 -0.4406,0.42109 -0.7168,0.42774 a 5.0005,5.0005 0 0 0 0.7168,-0.42774 z m -151.85546,1.04492 a 5.0005,5.0005 0 0 0 4.703125,0.48243 c -0.332697,1.47268 -0.5625,3.00958 -0.5625,4.6582 0,1.63992 0.227775,3.16869 0.558594,4.63086 a 5.0005,5.0005 0 0 0 -4.699219,0.48242 z m 305.08983,2.61914 c -2.7e-4,0.001 2.8e-4,0.003 0,0.004 l -0.002,0.008 c 7.9e-4,-0.004 10e-4,-0.008 0.002,-0.0117 z m 7.83594,1.59766 -0.0117,0.0547 c 0.002,-0.0109 0.004,-0.0223 0.006,-0.0332 10e-4,-0.007 0.004,-0.0142 0.006,-0.0215 z m -267.96094,7.58203 a 5.0005,5.0005 0 0 0 -0.2832,0.17188 5.0005,5.0005 0 0 0 0.0215,-0.0488 c 0.0914,-0.035 0.16687,-0.12123 0.26171,-0.12305 z m -55.771471,0.0137 a 5.0005,5.0005 0 0 0 -0.300781,0.17774 5.0005,5.0005 0 0 0 0.01953,-0.0469 c 0.09783,-0.0391 0.179631,-0.1299 0.28125,-0.13086 z m 53.785151,1.18946 a 5.0005,5.0005 0 0 0 -1.36914,6.79492 H 88.347651 a 5.0005,5.0005 0 0 0 0.0293,-5.96875 h 12.341789 a 5.0005,5.0005 0 0 0 1.99414,-0.82617 z m -55.814448,0.0137 a 5.0005,5.0005 0 0 0 1.039063,8.21094 v 2.33593 c 0,1.13612 -0.860986,2.74486 -1.474609,3.11524 a 5.0005,5.0005 0 0 0 -0.03516,0.0234 c -1.051304,0.6467 -2.467629,1.00538 -4.357422,1.0332 a 5.0005,5.0005 0 0 0 -3.365234,8 h -22.8457 v -5.96875 h 14.958984 0.04883 a 5.0005,5.0005 0 0 0 3.271485,-8.07422 5.0005,5.0005 0 0 0 3.265625,-7.86328 h 7.533203 a 5.0005,5.0005 0 0 0 1.960937,-0.8125 z m 181.505848,0.8125 h 14.3457 v 5.96875 h -14.35742 a 5.0005,5.0005 0 0 0 0.0117,-5.96875 z m 72.34375,0 h 14.2832 v 5.96875 h -14.30078 a 5.0005,5.0005 0 0 0 0.0176,-5.96875 z m 75.6211,6.41406 -0.0195,0.0234 c 0.002,-0.003 0.003,-0.007 0.006,-0.01 0.004,-0.005 0.01,-0.009 0.0137,-0.0137 z m -328.173823,1.13672 a 5.0005,5.0005 0 0 0 0.732422,0.43359 c -0.287379,-0.003 -0.541151,-0.1918 -0.732422,-0.43359 z" id="path17"/>
    <g id="path80-4" transform="translate(-45.706676,162.99918)" style="stroke:#ffffff;stroke-width:10;stroke-linecap:round;stroke-linejoin:round;stroke-dasharray:none;stroke-opacity:1;paint-order:markers stroke fill">
        <g id="path84" style="opacity:1">
            <path style="baseline-shift:baseline;display:inline;overflow:visible;vector-effect:none;fill:#ffffff;fill-rule:evenodd;stroke:none;enable-background:accumulate;stop-color:#000000;stop-opacity:1" d="m 304.97461,-59.144531 c -6.29167,2e-6 -11.54183,4.315444 -13.21875,10.050781 -0.94873,0.606436 -1.97461,1.387106 -2.95508,2.472656 -6.9e-4,7.64e-4 -10e-4,0.0012 -0.002,0.002 -0.0732,0.0806 -0.14522,0.162376 -0.21485,0.246094 a 5.0005,5.0005 0 0 0 -0.0293,0.03516 c -1.39099,1.704298 -2.18989,3.672252 -1.9043,6.294922 0.25149,2.309254 1.40748,4.031626 2.45508,5.089844 0.48458,0.489498 0.61439,0.492137 0.95898,0.716797 1.66581,2.160543 4.24146,3.736319 7.31055,3.736328 1.46713,3e-6 2.81182,-0.389312 4.00781,-0.988281 1.32355,0.495018 2.78483,0.83203 4.39258,0.832031 4.76442,-10e-7 8.80964,-2.559057 11.2832,-6.171875 0.98282,-0.48673 1.96105,-0.930003 2.98438,-1.636719 a 5.0005,5.0005 0 0 0 0.0488,-0.0332 c -7.4e-4,5.16e-4 0.0143,-0.01217 0.0137,-0.01172 -0.098,0.07033 1.10814,-0.660855 2.20117,-1.761718 1.4614,-1.471849 2.94347,-3.734486 2.73633,-7.072266 v -0.002 c -0.0321,-0.520551 -0.11868,-1.036419 -0.25781,-1.539063 a 5.0005,5.0005 0 0 0 -0.002,-0.0078 c -0.98929,-3.553456 -3.37291,-5.208509 -5.70898,-6.056641 -1.63936,-0.595179 -3.1752,-0.673741 -3.35547,-0.691406 a 5.0005,5.0005 0 0 0 -0.0254,-0.002 c -0.0676,-0.0063 -0.13534,-0.01119 -0.20313,-0.01563 -0.45401,-0.03054 -0.98566,0.04068 -1.46679,0.04297 -2.40043,-2.108331 -5.53814,-3.529296 -9.04883,-3.529297 z m -0.40234,12.929687 2.30859,1.34375 c -0.11016,-0.356999 -0.006,-0.189687 -0.006,0.314453 0,0.436695 -0.66292,1.09961 -1.09961,1.09961 -0.39974,0 -0.7122,-0.184875 -0.63477,-0.132813 l -1.03906,-0.93164 c -0.0546,-0.065 -0.22656,-0.397234 -0.22656,-0.722657 0,-0.02573 -1e-5,-0.01411 0,-0.03906 z" id="path18"/>
            <path style="baseline-shift:baseline;display:inline;overflow:visible;vector-effect:none;fill:url(#linearGradient88);fill-rule:evenodd;stroke:none;enable-background:accumulate;stop-color:#000000;stop-opacity:1" d="m 304.97461,-54.144531 c -4.66966,2e-6 -8.44164,3.699021 -8.77539,8.289062 -1.14454,0.56918 -2.51434,1.284282 -3.68945,2.585938 a 2.50025,2.50025 0 0 0 -0.082,0.09375 c -0.53557,0.656201 -0.90846,1.65676 -0.80664,2.591797 0.10183,0.935036 0.57126,1.642707 1.03711,2.113281 0.29912,0.302153 0.61821,0.459221 0.93164,0.652344 0.75413,1.352094 2.15052,2.318354 3.78516,2.318359 1.4093,3e-6 2.61893,-0.735931 3.42578,-1.792969 0.0393,-0.0063 0.0741,-0.01306 0.11328,-0.01953 1.42035,0.961178 3.03134,1.656249 4.86133,1.65625 3.46786,-10e-7 6.42265,-2.071283 7.88867,-4.992187 1.2047,-0.534547 2.39584,-1.14152 3.53711,-1.929688 a 2.50025,2.50025 0 0 0 0.0156,-0.01172 c 0.30913,-0.21718 0.903,-0.562494 1.54101,-1.205078 0.63802,-0.642584 1.38284,-1.843972 1.29492,-3.242187 a 2.50025,2.50025 0 0 0 -0.0859,-0.513672 c -0.39776,-1.428713 -1.6768,-2.364184 -2.59961,-2.699219 -0.92282,-0.335035 -1.67332,-0.368651 -2.13672,-0.414062 a 2.50025,2.50025 0 0 0 -0.0762,-0.0059 c -0.86117,-0.05793 -1.86866,-0.03914 -2.92188,0.08789 -0.24038,-0.257446 -0.52215,-0.446047 -0.79101,-0.673828 -1.62944,-1.752225 -3.90667,-2.888671 -6.4668,-2.888672 z m 0.80078,5.6875 c 0.82048,0 1.53197,0.30035 2.1543,0.71875 0.56817,0.676234 0.94531,1.523887 0.94531,2.49414 0,0.02925 -0.015,0.05295 -0.0156,0.08203 -2.00599,0.632799 -4.13033,1.155531 -6.33007,1.689453 -0.001,3.02e-4 -0.003,-3.02e-4 -0.004,0 -0.14883,0.03369 -0.27486,0.04386 -0.42187,0.07617 -0.11466,-0.371574 -0.22852,-0.74659 -0.22852,-1.160157 0,-2.183716 1.71667,-3.900389 3.90039,-3.90039 z m -10.41797,3.824219 c -0.007,0.0034 -0.0206,0.01609 -0.0273,0.01953 -0.0199,0.01123 -0.0387,0.01798 -0.0586,0.0293 z m -0.0137,7.460937 c 0.10884,0.02294 0.1878,0.0025 0.29492,0.02148 0.0558,0.003 0.0973,0.02973 0.1543,0.03125 z" id="path19"/>
        </g>
    </g>
    <g id="path9198" style="opacity:1" transform="translate(4.6762839,5.0000382)">
        <path style="baseline-shift:baseline;display:inline;overflow:visible;vector-effect:none;fill:#ffffff;fill-rule:evenodd;stroke-linecap:round;stroke-linejoin:round;paint-order:markers stroke fill;enable-background:accumulate;stop-color:#000000;stop-opacity:1" d="m 321.5957,33.054687 c -5.50997,0 -11.05859,4.720935 -11.05859,11.027344 0,6.306534 5.54862,11.027344 11.05859,11.027344 5.50546,0 11.04297,-4.720487 11.04297,-11.027344 0,-6.306732 -5.53751,-11.027344 -11.04297,-11.027344 z" id="path1"/>
        <path style="baseline-shift:baseline;display:inline;overflow:visible;vector-effect:none;fill:#ff0000;fill-rule:evenodd;stroke-linecap:round;stroke-linejoin:round;paint-order:markers stroke fill;enable-background:accumulate;stop-color:#000000;stop-opacity:1" d="m 320.59151,44.591536 h 0.65369 l 1.49859,2.726126 h 1.64238 l -1.65828,-2.837065 c 0.86112,-0.06504 1.56254,-0.493984 1.56254,-1.690458 0,-1.482314 -0.98869,-1.96112 -2.66253,-1.96112 h -2.4233 v 6.488643 h 1.38691 z m 0,-1.099991 v -1.562536 h 0.97279 c 0.52615,0 1.24344,0.05059 1.24344,0.718391 0,0.716945 -0.36642,0.844145 -0.98869,0.844145 z m 7.04694,0.590107 c 0,-3.810217 -2.85368,-6.02646 -6.04235,-6.02646 -3.20495,0 -6.05826,2.216243 -6.05826,6.02646 0,3.810578 2.85331,6.026821 6.05826,6.026821 3.18867,0 6.04235,-2.216243 6.04235,-6.026821 z m -1.73743,0 c 0,2.773826 -1.97738,4.639908 -4.30492,4.639908 v 0 c -2.3915,0 -4.32083,-1.850182 -4.32083,-4.624008 0,-2.773827 1.92934,-4.623646 4.32083,-4.623646 2.32754,0 4.30492,1.849819 4.30492,4.623646 z" id="path2"/>
    </g>
    <path style="baseline-shift:baseline;display:inline;overflow:visible;vector-effect:none;fill:#ffffff;stroke-linecap:round;stroke-linejoin:round;paint-order:markers stroke fill;enable-background:accumulate;stop-color:#000000" d="m 157.32082,3.8216574e-5 c -8.70231,0 -15.58876,5.216847283426 -17.8125,12.099609783426 -1.79746,5.563369 -0.68598,11.878041 2.90234,17.349609 -4.9015,6.36744 -5.88945,13.773957 -3.2832,19.623047 3.08309,6.919243 10.3836,11.370493 18.56836,11.197265 l -0.10742,0.002 h 43.95508 a 5.0005,5.0005 0 0 0 5,-5 V 42.501991 a 5.0005,5.0005 0 0 0 -5,-5 h -14.83789 a 5.0005,5.0005 0 0 0 0.21289,-0.511719 V 24.087929 a 5.0005,5.0005 0 0 0 -1.3086,-3.158203 5.0005,5.0005 0 0 0 1.3086,-3.160157 V 5.0000382 a 5.0005,5.0005 0 0 0 -5,-4.999999983426 z m 0,9.999999783426 h 19.59766 v 2.769531 h -13.01172 a 5.0005,5.0005 0 0 0 -0.28711,0.0078 c -4.52018,0.260401 -8.43577,3.982027 -8.33984,8.412109 0.048,2.215041 1.18505,4.521035 3.02734,5.953125 1.84229,1.43209 4.15632,1.99571 6.51758,1.943359 l -0.11133,0.002 h 12.20508 v 2.902343 h -13.41407 l 0.1504,0.002 c -4.28539,-0.129173 -8.34913,3.517019 -8.53907,7.410157 -0.18994,3.893137 3.37702,7.946989 7.67774,8.095703 a 5.0005,5.0005 0 0 0 0.17187,0.0039 h 33.57813 v 2.769531 H 157.5884 a 5.0005,5.0005 0 0 0 -0.10547,0.002 c -4.44994,0.09418 -7.90175,-2.311409 -9.2207,-5.271484 -1.31896,-2.960074 -1.2526,-6.747034 3.98828,-11.601563 a 5.0005,5.0005 0 0 0 0.18555,-7.154296 c -3.71668,-3.82079 -4.3803,-8.075621 -3.41211,-11.072266 0.96818,-2.996776 3.15427,-5.173959 8.29687,-5.173959 z" id="path9"/>
    <path style="baseline-shift:baseline;display:inline;overflow:visible;vector-effect:none;fill:#ffffff;stroke-linecap:round;stroke-linejoin:round;paint-order:markers stroke fill;enable-background:accumulate;stop-color:#000000" d="m 186.48879,0.13480382 a 5.0005,5.0005 0 0 0 -5,4.99999998 V 39.275429 a 5.0005,5.0005 0 0 0 5,5 h 14.78516 a 5.0005,5.0005 0 0 0 4.09765,-2.822266 h 1.65625 v 13.818359 a 5.0005,5.0005 0 0 0 5,5 h 85.49414 a 5.0005,5.0005 0 0 0 0.21094,-0.0039 c 2.71622,-0.114405 5.29174,0.407787 8.99023,-0.564453 a 5.0005,5.0005 0 0 0 0.0918,-0.02344 c 5.05647,-1.433021 9.73575,-4.475621 12.7207,-9.111328 2.98496,-4.635706 3.97194,-10.878705 1.98633,-17.332031 a 5.0005,5.0005 0 0 0 -0.0117,-0.04102 c -2.25827,-7.122228 -7.92746,-11.294915 -13.46093,-11.771484 -2.76674,-0.238285 -5.52647,0.342475 -7.8711,1.884766 -2.34463,1.542291 -4.21134,4.264148 -4.53711,7.382812 a 5.0005,5.0005 0 0 0 -0.0117,0.121094 c -0.22412,2.80502 0.65451,5.16574 1.25,6.515625 0.0364,0.08245 0.005,0.0031 0.0371,0.07813 -0.36212,0.06861 -0.14232,0.0957 -0.87304,0.0957 h -64.13867 c -0.17076,-1.580122 -0.58124,-3.122423 -1.35938,-4.447266 4.43375,-5.51846 5.80284,-12.632795 3.75977,-18.888671 C 231.74029,6.3122394 223.71219,0.21409532 212.87163,0.13480582 a 5.0005,5.0005 0 0 0 -0.0371,0 z m 5,10.00000018 h 21.30859 c 7.43975,0.05442 10.76968,3.363483 12.00196,7.136718 1.23228,3.773236 0.19811,8.366322 -4.21875,11.691407 a 5.0005,5.0005 0 0 0 0.125,8.080078 c 0.94795,0.668766 1.25855,1.037788 1.29101,1.08789 0.0325,0.0501 0.0859,-0.05566 0.0859,0.742188 v 3.628906 a 5.0005,5.0005 0 0 0 5,5 h 68.96094 c 3.02154,0 5.64156,-0.459943 7.9082,-2.046875 2.26664,-1.586931 3.54297,-4.5267 3.54297,-6.851562 0,-2.71073 -1.05436,-4.375621 -1.4668,-5.310547 -0.3895,-0.88293 -0.43621,-1.100278 -0.40625,-1.589844 -0.0133,0.01301 -0.0654,0.03667 0.0527,-0.04102 0.19683,-0.129478 0.77294,-0.339522 1.51757,-0.27539 1.4859,0.127972 3.53798,0.931681 4.7754,4.808593 1.23159,4.019216 0.60831,6.709954 -0.83985,8.958985 -1.44175,2.23907 -4.00368,4.02195 -6.98828,4.880859 -1.382,0.354293 -3.12836,0.09624 -6.7168,0.236328 H 217.02785 V 40.082069 c 0,-1.785899 -0.39864,-3.940582 -1.97265,-5.800781 -1.26962,-1.500453 -3.22323,-2.250869 -5.15235,-2.550781 V 28.4141 h 2.125 c 4.49052,0 8.41499,-4.041925 8.27344,-8.146484 -0.0708,-2.052279 -1.01024,-4.17513 -2.74414,-5.623046 -1.7339,-1.447918 -4.10706,-2.044167 -6.34766,-1.857422 l 0.41407,-0.01758 h -10.34961 a 5.0005,5.0005 0 0 0 -5,4.999999 v 16.50586 h -4.78516 z" id="path3"/>
    <path style="baseline-shift:baseline;display:inline;overflow:visible;vector-effect:none;fill:#ffffff;stroke-linecap:round;stroke-linejoin:round;paint-order:markers stroke fill;enable-background:accumulate;stop-color:#000000" d="m 73.713393,3.8216574e-5 a 5.0005,5.0005 0 0 0 -5,4.999999983426 V 17.769569 55.271522 a 5.0005,5.0005 0 0 0 5,5 h 14.25 a 5.0005,5.0005 0 0 0 5,-5 V 17.769569 5.0000382 a 5.0005,5.0005 0 0 0 -5,-4.999999983426 z m 5,9.999999783426 h 4.25 v 7.769531 32.501953 h -4.25 V 17.769569 Z" id="path5"/>
    <path style="baseline-shift:baseline;display:inline;overflow:visible;vector-effect:none;fill:#ffffff;stroke-linecap:round;stroke-linejoin:round;paint-order:markers stroke fill;enable-background:accumulate;stop-color:#000000" d="M 115.7466,3.8216574e-5 C 105.7559,0.07788722 98.159183,4.5339763 93.490737,10.156288 88.822291,15.7786 86.76807,22.274443 86.594253,27.691444 a 5.0005,5.0005 0 0 0 0,0.03125 c -0.220346,8.592688 1.414821,16.744886 6.441406,22.9375 5.026585,6.192614 13.282121,9.685441 23.863291,9.611328 h 23.48632 a 5.0005,5.0005 0 0 0 5,-5 V 23.281288 a 5.0005,5.0005 0 0 0 -1.14257,-2.755859 5.0005,5.0005 0 0 0 1.14257,-2.75586 V 5.0000382 a 5.0005,5.0005 0 0 0 -5,-4.999999983426 h -24.5996 a 5.0005,5.0005 0 0 0 -0.0391,0 z M 115.8247,10.000038 h 19.56054 v 2.769531 h -15.29687 l 0.12695,0.0019 c -6.44515,-0.164495 -11.82571,2.062652 -15.29883,5.654297 -3.47312,3.591646 -5.017582,8.243996 -5.017582,12.650391 0,4.093449 1.422642,8.31597 4.544922,11.488281 3.12229,3.172311 7.84385,5.021231 13.30079,4.9375 h 7.98828 a 5.0005,5.0005 0 0 0 5,-5 v -6.318359 a 5.0005,5.0005 0 0 0 -5,-5 h -6.15625 v -2.902341 h 15.80859 v 21.990284 h -18.52145 a 5.0005,5.0005 0 0 0 -0.0352,0 c -8.50785,0.05959 -13.09129,-2.294572 -16.02926,-5.914062 -2.934847,-3.615652 -4.388256,-9.234328 -4.208984,-16.357422 0.09636,-2.917797 1.536249,-7.772861 4.593754,-11.455078 3.06076,-3.686141 7.42608,-6.488705 14.64063,-6.544922 z" id="path7"/>
    <path style="baseline-shift:baseline;display:inline;overflow:visible;vector-effect:none;fill:#ff0000;stroke-linecap:round;stroke-linejoin:round;paint-order:markers stroke fill;enable-background:accumulate;stop-color:#000000" d="M 181.91885,5.0000382 V 17.76954 h -18.0118 c -4.70457,0.271023 -5.2405,6.451785 0.80656,6.317719 h 17.20524 v 12.903569 h -18.41508 c -4.43572,-0.133705 -4.43572,5.376366 -0.53771,5.511155 h 38.577 v 12.769503 h -43.95372 c -12.63471,0.267409 -21.50619,-13.710855 -8.7367,-25.539006 -9.6762,-9.947254 -5.37671,-24.7324418 8.4682,-24.7324418 z" id="path10"/>
    <path style="baseline-shift:baseline;display:inline;overflow:visible;vector-effect:none;fill:#ff0000;stroke-linecap:round;stroke-linejoin:round;paint-order:markers stroke fill;enable-background:accumulate;stop-color:#000000" d="M 211.62438,17.76954 H 201.2742 V 39.275729 H 186.48865 V 5.1341042 h 26.34557 c 18.28031,0.133705 22.71605,18.8180048 10.75311,27.8239068 2.28706,1.613488 3.49473,2.957399 3.49473,5.914437 v 3.629535 h 68.96117 c 4.83938,0 6.45179,-1.747554 6.45179,-3.89839 0,-2.285263 -2.15011,-4.032094 -1.88161,-7.392414 0.67393,-6.451784 12.63506,-7.527202 16.12983,3.494747 3.22587,10.48424 -3.22591,17.876654 -11.29082,20.162278 -2.55412,0.671413 -4.70458,0.267409 -7.93049,0.403282 H 212.02766 V 40.081931 c 0,-2.015685 -0.94099,-3.629174 -3.49511,-3.629174 h -3.62881 V 23.414761 h 7.12392 c 4.43538,0 4.43538,-6.048502 -0.40328,-5.645221 z" id="path4"/>
    <path style="baseline-shift:baseline;display:inline;overflow:visible;vector-effect:none;fill:#ff0000;stroke-linecap:round;stroke-linejoin:round;paint-order:markers stroke fill;enable-background:accumulate;stop-color:#000000" d="M 140.38445,5.0000382 V 17.76954 h -20.29669 c -10.61902,-0.271022 -15.18883,6.855066 -15.18883,13.306851 0,5.914437 4.0321,11.559658 12.76949,11.425592 h 8.06491 V 36.184264 H 114.5766 V 23.280696 h 25.80785 v 31.99079 H 116.86368 C 97.774623,55.40519 91.188412,43.577401 91.591694,27.85086 91.859103,19.517094 98.581187,5.1341042 115.78644,5.0000382 Z" id="path8"/>
    <path style="baseline-shift:baseline;display:inline;overflow:visible;vector-effect:none;fill:#ffffff;stroke-linecap:round;stroke-linejoin:round;paint-order:markers stroke fill;enable-background:accumulate;stop-color:#000000" d="m 32.314956,3.8216574e-5 a 5.0005,5.0005 0 0 0 -5,4.999999983426 V 17.769569 a 5.0005,5.0005 0 0 0 5,5 h 6.425781 v 32.501953 a 5.0005,5.0005 0 0 0 5,5 h 14.785156 a 5.0005,5.0005 0 0 0 5,-5 V 22.769569 h 6.291016 a 5.0005,5.0005 0 0 0 5,-5 V 5.0000382 a 5.0005,5.0005 0 0 0 -5,-4.999999983426 z m 5,9.999999783426 h 27.501953 v 2.769531 h -6.291016 a 5.0005,5.0005 0 0 0 -5,5 V 50.271522 H 48.740737 V 17.769569 a 5.0005,5.0005 0 0 0 -5,-5 h -6.425781 z" id="path11"/>
    <path style="baseline-shift:baseline;display:inline;overflow:visible;vector-effect:none;fill:#ff0000;stroke-linecap:round;stroke-linejoin:round;paint-order:markers stroke fill;enable-background:accumulate;stop-color:#000000" d="M 73.714317,5.0000382 H 87.962534 V 17.76954 55.271486 H 73.714317 V 17.76954 Z" id="path6"/>
    <path style="baseline-shift:baseline;display:inline;overflow:visible;vector-effect:none;fill:#ffffff;stroke-linecap:round;stroke-linejoin:round;paint-order:markers stroke fill;enable-background:accumulate;stop-color:#000000" d="m 37.557143,14.11332 c -5.186168,-10e-7 -9.705078,4.350335 -9.705078,9.705077 0,5.360645 4.168976,9.837891 9.705078,9.837891 5.52145,0 9.837891,-4.477246 9.837891,-9.837891 0,-5.354742 -4.648922,-9.705078 -9.837891,-9.705077 z m 0,9.542968 c 0.427867,0 0.294922,-0.0903 0.294922,0.162109 0,-0.02162 -0.216989,0.294922 -0.294922,0.294922 0.187426,0 -0.162109,-0.316545 -0.162109,-0.294922 0,-0.25241 0.01705,-0.162109 0.162109,-0.162109 z" id="path13"/>
    <path style="baseline-shift:baseline;display:inline;overflow:visible;vector-effect:none;fill:#ff0000;stroke-linecap:round;stroke-linejoin:round;paint-order:markers stroke fill;enable-background:accumulate;stop-color:#000000" d="m 37.557006,19.11309 c 2.688197,0 4.838657,2.01677 4.838657,4.704953 0,2.554117 -2.15046,4.839019 -4.838657,4.839019 -2.554118,0 -4.704578,-2.284902 -4.704578,-4.839019 0,-2.688183 2.15046,-4.704953 4.704578,-4.704953 z" id="path14"/>
    <path style="baseline-shift:baseline;display:inline;overflow:visible;vector-effect:none;fill:#ffffff;stroke-linecap:round;stroke-linejoin:round;paint-order:markers stroke fill;enable-background:accumulate;stop-color:#000000" d="m 64.439956,14.11332 c -5.186168,-10e-7 -9.705078,4.3503 -9.705078,9.705077 0,5.360682 4.168975,9.837891 9.705078,9.837891 5.521451,0 9.83789,-4.477209 9.83789,-9.837891 0,-5.354777 -4.648923,-9.705077 -9.83789,-9.705077 z m 0,9.542968 c 0.427866,0 0.294922,-0.09034 0.294922,0.162109 0,-0.02159 -0.21699,0.294922 -0.294922,0.294922 0.187371,0 -0.16211,-0.31651 -0.16211,-0.294922 0,-0.252447 0.017,-0.162109 0.16211,-0.162109 z" id="path15"/>
    <path style="baseline-shift:baseline;display:inline;overflow:visible;vector-effect:none;fill:#ff0000;stroke-linecap:round;stroke-linejoin:round;paint-order:markers stroke fill;enable-background:accumulate;stop-color:#000000" d="M 32.314719,5.0000382 H 69.816303 V 17.76954 H 58.525486 V 55.271486 H 43.739936 V 17.76954 H 32.314719 Z" id="path12"/>
    <path style="baseline-shift:baseline;display:inline;overflow:visible;vector-effect:none;fill:#ff0000;stroke-linecap:round;stroke-linejoin:round;paint-order:markers stroke fill;enable-background:accumulate;stop-color:#000000" d="m 64.439937,19.11309 c 2.688169,0 4.838657,2.01677 4.838657,4.704953 0,2.554117 -2.150488,4.839019 -4.838657,4.839019 -2.554118,0 -4.704606,-2.284902 -4.704606,-4.839019 0,-2.688183 2.150488,-4.704953 4.704606,-4.704953 z" id="path16"/>
    <path style="font-size:96px;font-family:CƏLAL;baseline-shift:baseline;display:inline;overflow:visible;fill:#5d6c76;fill-rule:evenodd;stroke-width:0.5;stroke-linecap:round;stroke-linejoin:round;stroke-dasharray:none;paint-order:markers stroke fill;enable-background:accumulate;stop-color:#000000" d="m 347.67629,65.927893 c -5.64975,0 -10.52015,0.694785 -14.65234,2.28125 a 4.0004,4.0004 0 0 0 -0.0117,0.0039 c -3.96967,1.537799 -7.34452,3.783775 -9.88867,6.751952 -2.48198,2.89564 -4.23158,6.38096 -5.24024,10.27148 a 4.0004,4.0004 0 0 0 -0.008,0.0254 c -0.9356,3.70777 -1.38672,7.69505 -1.38672,11.94727 0,4.252215 0.45112,8.239495 1.38672,11.947265 a 4.0004,4.0004 0 0 0 0.0117,0.043 c 1.01133,3.82858 2.76124,7.28086 5.22071,10.1875 2.54262,3.00493 5.92489,5.27679 9.90429,6.81836 a 4.0004,4.0004 0 0 0 0.0117,0.004 c 4.13218,1.58647 9.00258,2.28125 14.65233,2.28125 5.58632,0 10.42451,-0.6967 14.54688,-2.27734 l 0.004,-0.002 c 4.03783,-1.53719 7.4526,-3.80868 9.98047,-6.83789 2.45661,-2.90741 4.19039,-6.36306 5.16797,-10.1914 0.29499,-1.12844 0.4569,-2.33203 0.66015,-3.51172 v 17.46093 a 4.0004,4.0004 0 0 0 4,4 h 9.70313 a 4.0004,4.0004 0 0 0 4,-4 V 83.256095 h 12.76562 V 123.1311 a 4.0004,4.0004 0 0 0 4,4 h 9.79688 a 4.0004,4.0004 0 0 0 4,-4 V 83.256095 h 5.75 c 1.89808,0 3.14276,0.32627 3.75781,0.64063 a 4.0004,4.0004 0 0 0 0.0645,0.0312 c 0.91689,0.44826 1.43134,0.91169 1.7832,1.4043 a 4.0004,4.0004 0 0 0 0.043,0.0586 c 0.46577,0.627 0.76216,1.28298 0.93359,2.12109 a 4.0004,4.0004 0 0 0 0.0176,0.084 c 0.25009,1.1004 0.36914,2.15774 0.36914,3.1914 v 32.343755 a 4.0004,4.0004 0 0 0 4,4 h 9.79687 a 4.0004,4.0004 0 0 0 4,-4 V 88.584195 c 0,-6.616 -1.87706,-12.32424 -6.05273,-16.08984 -4.05708,-3.687061 -9.70385,-5.300784 -16.27539,-5.300784 h -52.45313 a 4.0004,4.0004 0 0 0 -4,4 v 17.556644 c -0.20272,-1.17681 -0.36419,-2.37616 -0.6582,-3.50196 -0.97499,-3.88659 -2.7083,-7.37274 -5.18555,-10.26758 -2.5298,-2.993057 -5.93622,-5.23975 -9.96484,-6.773432 -4.12319,-1.581666 -8.96275,-2.279297 -14.55078,-2.279297 z M 30.848164,67.193518 c -4.195975,0 -8.101126,0.812281 -11.539063,2.53125 a 4.0004,4.0004 0 0 0 -0.01563,0.0078 c -3.288861,1.662903 -6.102475,3.990297 -8.281249,6.882817 -2.1137728,2.80621 -3.7015471,6.02078 -4.7617191,9.55469 -1.054548,3.51516 -1.574219,7.20995 -1.574219,11.03906 0,3.773225 0.52178,7.439135 1.574219,10.947265 1.060172,3.53391 2.6479483,6.74652 4.7617191,9.55274 2.178773,2.8925 4.992394,5.2199 8.281249,6.88281 a 4.0004,4.0004 0 0 0 0.01563,0.008 c 3.351406,1.6757 7.158402,2.46007 11.234376,2.5 H 14.535664 a 4.0004,4.0004 0 0 0 -4,4 v 7.96875 a 4.0004,4.0004 0 0 0 4,4 h 30.140625 c 3.48893,0 6.542924,-0.4894 9.175781,-1.8457 2.305056,-1.15799 4.28283,-2.79067 5.648438,-4.87891 1.222084,-1.83914 2.055526,-3.90067 2.429687,-6.0625 0.314317,-1.81605 0.480469,-3.5556 0.480469,-5.22851 v -8.51172 c 0.971001,2.17103 2.278129,4.12548 4.068359,5.67578 a 4.0004,4.0004 0 0 0 0.01563,0.0137 c 3.950639,3.38627 9.272338,4.90039 15.353516,4.90039 h 32.343761 a 4.0004,4.0004 0 0 0 4,-4 V 86.568725 c 0,-3.58718 -0.56525,-6.7866 -2,-9.53125 -1.24099,-2.40305 -2.84154,-4.4622 -4.84766,-6.003906 -1.84843,-1.450245 -3.92981,-2.50661 -6.1504,-3.056848 -1.88867,-0.496486 -3.66733,-0.783203 -5.392582,-0.783203 H 66.566914 a 4.0004,4.0004 0 0 0 -4,4 v 8.062497 a 4.0004,4.0004 0 0 0 4,4 h 29.578125 c 1.875,0 2.409933,0.34871 3.005859,1.13086 0.39936,0.52417 0.74495,1.71643 0.980472,3.24414 H 81.848164 c -6.096504,0 -11.444029,1.56377 -15.388672,5.0254 a 4.0004,4.0004 0 0 0 -0.01563,0.0137 c -1.772644,1.57162 -3.067869,3.53531 -4.033203,5.70898 V 71.193518 a 4.0004,4.0004 0 0 0 -4,-4 z m 91.875006,0 a 4.0004,4.0004 0 0 0 -4,4 v 51.937502 a 4.0004,4.0004 0 0 0 4,4 h 9.70313 a 4.0004,4.0004 0 0 0 3.99999,-4 V 83.256015 h 12.76563 v 39.875005 a 4.0004,4.0004 0 0 0 4,4 h 9.79687 a 4.0004,4.0004 0 0 0 4,-4 V 83.256015 h 5.75 c 1.89808,0 3.14276,0.32627 3.75781,0.64063 a 4.0004,4.0004 0 0 0 0.0645,0.0312 c 0.9169,0.44826 1.43135,0.91169 1.78321,1.4043 a 4.0004,4.0004 0 0 0 0.043,0.0586 c 0.46576,0.627 0.76216,1.28298 0.93359,2.12109 a 4.0004,4.0004 0 0 0 0.0176,0.084 c 0.25009,1.1004 0.36913,2.15774 0.36913,3.1914 v 32.343755 a 4.0004,4.0004 0 0 0 4,4 h 9.79687 a 4.0004,4.0004 0 0 0 4,-4 v -14.48825 c 1.05746,3.33417 2.55836,6.39535 4.57033,9.06641 2.17877,2.8925 4.99239,5.2199 8.28125,6.88281 a 4.0004,4.0004 0 0 0 0.0156,0.008 c 3.43794,1.71897 7.34308,2.53125 11.53906,2.53125 h 21.51563 a 4.0004,4.0004 0 0 0 4,-4 v -7.96875 a 4.0004,4.0004 0 0 0 -4,-4 h -18.42188 c -2.00069,0 -3.52448,-0.31077 -4.65234,-0.78515 -1.2143,-0.55699 -2.13367,-1.24652 -2.89062,-2.1211 -0.80572,-0.96742 -1.45232,-2.08393 -1.95704,-3.41796 -0.0179,-0.0515 -0.0177,-0.10852 -0.0352,-0.16016 h 26.78514 a 4.0004,4.0004 0 0 0 4,-4 v -7.875005 a 4.0004,4.0004 0 0 0 -4,-4 h -26.43944 c 0.46356,-1.07235 1.00979,-2.00002 1.73242,-2.76172 0.75774,-0.7987 1.69101,-1.45205 2.93163,-1.98047 a 4.0004,4.0004 0 0 0 0.0566,-0.0234 c 1.05108,-0.46714 2.51481,-0.78125 4.46875,-0.78125 h 18.42188 a 4.0004,4.0004 0 0 0 4,-4 v -8.062497 a 4.0004,4.0004 0 0 0 -4,-4 h -21.51563 c -4.19597,0 -8.10111,0.812281 -11.53906,2.53125 a 4.0004,4.0004 0 0 0 -0.0156,0.0078 c -3.28886,1.662904 -6.10248,3.990307 -8.28125,6.882817 -2.10931,2.8003 -3.69374,6.00808 -4.7539,9.5332 -0.42341,-5.55616 -2.22591,-10.36883 -5.86915,-13.65429 -4.05707,-3.687067 -9.70384,-5.30079 -16.27539,-5.30079 z m 171.46874,0 c -4.19597,0 -8.10111,0.812281 -11.53906,2.53125 a 4.0004,4.0004 0 0 0 -0.0156,0.0078 c -3.28886,1.662904 -6.10248,3.990307 -8.28125,6.882817 -2.11377,2.80621 -3.70155,6.02078 -4.76171,9.55469 -1.05455,3.51516 -1.57423,7.20995 -1.57423,11.03906 0,3.773225 0.52179,7.439135 1.57423,10.947265 1.06016,3.53391 2.64794,6.74652 4.76171,9.55274 2.17877,2.8925 4.99239,5.2199 8.28125,6.88281 a 4.0004,4.0004 0 0 0 0.0156,0.008 c 3.43795,1.71897 7.34309,2.53125 11.53906,2.53125 h 21.51563 a 4.0004,4.0004 0 0 0 4,-4 v -7.96875 a 4.0004,4.0004 0 0 0 -4,-4 h -18.42188 c -2.31955,0 -3.98424,-0.42485 -5.16601,-1.0625 -1.36898,-0.7561 -2.34546,-1.64765 -3.10352,-2.76367 -0.82124,-1.20906 -1.43588,-2.62768 -1.83789,-4.3457 -0.40466,-1.90082 -0.61133,-3.821615 -0.61133,-5.781255 0,-1.9628 0.20648,-3.84704 0.60743,-5.67383 0.40289,-1.72853 1.02382,-3.17929 1.86132,-4.43555 0.76268,-1.14401 1.73174,-2.03631 3.08985,-2.78515 1.18145,-0.63606 2.84407,-1.0586 5.16015,-1.0586 h 18.42188 a 4.0004,4.0004 0 0 0 4,-4 v -8.0625 a 4.0004,4.0004 0 0 0 -4,-4 z m 51.53125,6.869147 c -2.93896,0.17507 -5.67077,0.64825 -8.02343,1.77343 a 4.0004,4.0004 0 0 0 -0.0195,0.01 c -2.64267,1.28247 -4.90421,3.11947 -6.56055,5.43359 -1.60356,2.20974 -2.69403,4.78818 -3.29297,7.59571 a 4.0004,4.0004 0 0 0 -0.008,0.0391 c -0.52868,2.60819 -0.7832,5.37486 -0.78321,8.29492 0,2.920065 0.25484,5.699975 0.78125,8.332035 a 4.0004,4.0004 0 0 0 0.01,0.0488 c 0.60028,2.81382 1.69326,5.40025 3.30273,7.61328 1.66035,2.28298 3.91766,4.09326 6.55079,5.37109 a 4.0004,4.0004 0 0 0 0.0195,0.01 c 2.35053,1.12417 5.0798,1.59584 8.01562,1.77148 -3.9805,-0.1586 -7.3666,-0.674 -9.8125,-1.61132 l -0.004,-0.002 c -2.9558,-1.14571 -5.10397,-2.6543 -6.68555,-4.52344 -1.66127,-1.96331 -2.84489,-4.25625 -3.58398,-7.04296 -0.74825,-2.97408 -1.14062,-6.29063 -1.14062,-9.966805 0,-3.67766 0.39177,-6.99572 1.14062,-9.9707 0.74146,-2.85652 1.92656,-5.15097 3.56836,-7.06641 1.58006,-1.84339 3.73563,-3.34661 6.70118,-4.49609 10e-4,-5.8e-4 0.002,-10e-4 0.004,-0.002 2.44758,-0.93797 5.83604,-1.45323 9.82031,-1.61132 z m 3.89454,0 c 3.93604,0.15845 7.29715,0.67351 9.75,1.61523 a 4.0004,4.0004 0 0 0 0.0117,0.004 c 3.02778,1.15216 5.17799,2.65315 6.70898,4.46679 a 4.0004,4.0004 0 0 0 0.0195,0.0234 c 1.63653,1.90929 2.80363,4.19105 3.51563,7.03906 a 4.0004,4.0004 0 0 0 0.0117,0.043 c 0.77688,2.96879 1.18164,6.28029 1.18164,9.95508 0,3.674785 -0.40476,6.988245 -1.18164,9.957035 a 4.0004,4.0004 0 0 0 -0.008,0.0254 c -0.70925,2.78444 -1.87606,5.0666 -3.53515,7.02734 a 4.0004,4.0004 0 0 0 -0.0195,0.0234 c -1.53288,1.83946 -3.67523,3.34565 -6.69336,4.49414 a 4.0004,4.0004 0 0 0 -0.0117,0.004 c -2.45286,0.94172 -5.81397,1.45678 -9.75,1.61523 2.91411,-0.17546 5.62135,-0.64911 7.95312,-1.77929 2.6596,-1.2743 4.93851,-3.08097 6.60547,-5.37305 1.61409,-2.21937 2.6905,-4.81836 3.25781,-7.63867 0.56162,-2.64174 0.83594,-5.42878 0.83594,-8.355475 0,-2.92386 -0.2729,-5.69636 -0.83594,-8.3125 -0.56661,-2.8144 -1.64283,-5.40503 -3.25195,-7.62109 -1.66253,-2.32053 -3.94445,-4.15379 -6.61133,-5.43164 -2.33177,-1.13018 -5.03901,-1.60579 -7.95312,-1.78125 z m -318.769536,1.13085 h 23.5625 V 125.0529 c 0,1.13958 -0.115098,2.43129 -0.363281,3.86523 -0.186947,1.08014 -0.56939,2.04159 -1.214844,3.00977 a 4.0004,4.0004 0 0 0 -0.02148,0.0332 c -0.503287,0.77171 -1.261882,1.47177 -2.564454,2.12305 a 4.0004,4.0004 0 0 0 -0.04883,0.0254 c -0.987607,0.51083 -2.831774,0.95898 -5.521484,0.95898 h -2.855469 c 2.492823,-0.0367 4.866028,-0.52276 6.902344,-1.77539 2.499146,-1.50845 3.890625,-4.6011 3.890625,-7.39648 v -2.76563 a 4.0004,4.0004 0 0 0 -3.962891,-3.98437 4.0004,4.0004 0 0 0 3.962891,-3.98438 V 79.256025 a 4.0004,4.0004 0 0 0 -4,-4 H 33.941914 c -3.30139,0 -6.350103,0.60631 -8.980469,2.0293 a 4.0004,4.0004 0 0 0 -0.02539,0.0137 c -2.386268,1.31245 -4.415071,3.13531 -5.90039,5.36328 -1.409462,2.1142 -2.408606,4.50637 -3.005859,7.08204 a 4.0004,4.0004 0 0 0 -0.0098,0.041 c -0.53272,2.415 -0.796875,4.89605 -0.796875,7.42383 0,2.52778 0.265346,5.031905 0.792969,7.494145 a 4.0004,4.0004 0 0 0 0.01367,0.0664 c 0.598214,2.57979 1.601817,4.96668 3.02539,7.0625 1.488547,2.19146 3.509546,3.98483 5.880859,5.28906 a 4.0004,4.0004 0 0 0 0.02539,0.0117 c 2.54478,1.37668 5.493925,1.95969 8.671875,1.99804 h -2.78512 c -3.17569,0 -5.767501,-0.59421 -7.953125,-1.68554 -2.269295,-1.14896 -4.047891,-2.63141 -5.492188,-4.54883 -1.511229,-2.00629 -2.673453,-4.32297 -3.488281,-7.03906 -0.822561,-2.74187 -1.238281,-5.60917 -1.238281,-8.648445 0,-3.10839 0.417829,-6.0054 1.238281,-8.74023 0.814828,-2.7161 1.977054,-5.03474 3.488281,-7.04102 1.444296,-1.91743 3.222899,-3.39988 5.492188,-4.54883 2.185624,-1.09133 4.777436,-1.68555 7.953125,-1.68555 z m 39.71875,0 h 29.234374 c 0.825972,0 1.974762,0.15099 3.384772,0.52344 a 4.0004,4.0004 0 0 0 0.0684,0.0176 c 1.06922,0.26226 2.09255,0.7565 3.16602,1.60156 a 4.0004,4.0004 0 0 0 0.043,0.0332 c 0.91911,0.704 1.81019,1.76167 2.62695,3.3457 a 4.0004,4.0004 0 0 0 0.0117,0.0215 c 0.62357,1.19046 1.08984,3.11143 1.08984,5.83203 v 32.562505 h -5.72071 a 4.0004,4.0004 0 0 0 3.92384,-3.96878 V 99.599765 a 4.0004,4.0004 0 0 0 -3.9629,-3.98437 4.0004,4.0004 0 0 0 3.9629,-3.98438 v -1.54687 c 0,-4.11731 -0.72679,-7.7177 -2.88086,-10.54492 -2.15408,-2.82723 -5.744152,-4.28321 -9.369151,-4.28321 H 70.566914 Z m 56.156256,0 h 48.45312 c 5.2989,0 8.71003,1.2296 10.90235,3.22461 a 4.0004,4.0004 0 0 0 0.0137,0.0137 c 2.13315,1.92193 3.4121,4.95861 3.4121,10.15234 v 30.546875 h -1.79687 V 90.787285 c 0,-1.64083 -0.19531,-3.28896 -0.56444,-4.92578 -0.39197,-1.88137 -1.17746,-3.66679 -2.31446,-5.20703 -1.19952,-1.66722 -2.84663,-2.96868 -4.71289,-3.88867 -2.19234,-1.11517 -4.65847,-1.50977 -7.37695,-1.50977 h -9.75 a 4.0004,4.0004 0 0 0 -4,4 v 39.875005 h -1.79687 V 79.256035 a 4.0004,4.0004 0 0 0 -4,-4 h -20.76563 a 4.0004,4.0004 0 0 0 -4,4 v 39.875005 h -1.70313 z m 95.18749,0 h 17.51563 v 0.0625 h -14.42188 c -2.78573,0 -5.37403,0.43824 -7.69139,1.4629 -2.12093,0.90825 -4.02367,2.18616 -5.57032,3.8164 -1.51887,1.60098 -2.70632,3.49998 -3.53515,5.5918 a 4.0004,4.0004 0 0 0 -0.0234,0.0606 c -0.73295,1.94236 -1.24408,3.97227 -1.53319,6.06835 a 4.0004,4.0004 0 0 0 3.77734,4.4629 4.0004,4.0004 0 0 0 -3.88867,4.351565 c 0.218,2.21634 0.69456,4.37891 1.42578,6.46289 a 4.0004,4.0004 0 0 0 0.0273,0.0801 c 0.80191,2.13846 1.92365,4.09913 3.35156,5.80468 a 4.0004,4.0004 0 0 0 0.0352,0.041 c 1.54541,1.79601 3.49183,3.22178 5.68946,4.2207 a 4.0004,4.0004 0 0 0 0.0781,0.0352 c 2.26051,0.96879 4.78399,1.37814 7.48438,1.41601 h -2.72071 c -3.17569,0 -5.7675,-0.59421 -7.95312,-1.68554 -2.26929,-1.14896 -4.04789,-2.6314 -5.49219,-4.54883 -1.51123,-2.00629 -2.67345,-4.32297 -3.48828,-7.03906 -0.82256,-2.74187 -1.23828,-5.60917 -1.23828,-8.648445 0,-3.10839 0.41783,-6.0054 1.23828,-8.74023 0.81483,-2.7161 1.97706,-5.03474 3.48828,-7.04102 1.4443,-1.91743 3.2229,-3.39988 5.49219,-4.54883 2.18562,-1.09133 4.77744,-1.68555 7.95312,-1.68555 z m 72.28125,0 h 17.51563 v 0.0625 h -14.42188 c -3.30139,0 -6.3501,0.60631 -8.98046,2.0293 a 4.0004,4.0004 0 0 0 -0.0254,0.0137 c -2.38628,1.31245 -4.41508,3.13531 -5.9004,5.36328 -1.40946,2.1142 -2.4086,4.50637 -3.00585,7.08204 a 4.0004,4.0004 0 0 0 -0.01,0.041 c -0.53272,2.415 -0.79688,4.89605 -0.79688,7.42383 0,2.52778 0.26535,5.031905 0.79297,7.494145 a 4.0004,4.0004 0 0 0 0.0137,0.0664 c 0.59821,2.57979 1.60181,4.96668 3.02539,7.0625 1.48854,2.19146 3.50953,3.98483 5.88086,5.28906 a 4.0004,4.0004 0 0 0 0.0254,0.0117 c 2.54477,1.37668 5.49392,1.95969 8.67187,1.99804 h -2.78516 c -3.17569,0 -5.7675,-0.59421 -7.95313,-1.68554 -2.26929,-1.14896 -4.04789,-2.6314 -5.49219,-4.54883 -1.51123,-2.00629 -2.67345,-4.32297 -3.48827,-7.03906 -0.82256,-2.74187 -1.23829,-5.60917 -1.23829,-8.648445 0,-3.10839 0.41784,-6.0054 1.23829,-8.74023 0.81482,-2.7161 1.97706,-5.03474 3.48827,-7.04102 1.4443,-1.91743 3.22291,-3.39988 5.49219,-4.54883 2.18563,-1.09133 4.77745,-1.68555 7.95313,-1.68555 z m 91.84375,0 h 48.45313 c 5.2989,0 8.71003,1.2296 10.90234,3.22461 a 4.0004,4.0004 0 0 0 0.0137,0.0137 c 2.13314,1.92193 3.4121,4.95861 3.4121,10.15234 v 30.546875 h -1.79689 V 90.787285 c 0,-1.64083 -0.19532,-3.28896 -0.56445,-4.92578 -0.39197,-1.88137 -1.17745,-3.66679 -2.31446,-5.20703 -1.19952,-1.66722 -2.84663,-2.96868 -4.71289,-3.88867 -2.19234,-1.11517 -4.65847,-1.50977 -7.37695,-1.50977 h -9.75 a 4.0004,4.0004 0 0 0 -4,4 v 39.875005 h -1.79688 V 79.256035 a 4.0004,4.0004 0 0 0 -4,-4 h -20.76562 a 4.0004,4.0004 0 0 0 -4,4 v 39.875005 h -1.70313 z m -38.35937,6.70313 c 2.89741,0 5.01962,0.47167 6.41016,1.14648 a 4.0004,4.0004 0 0 0 0.0195,0.01 c 1.63316,0.78108 2.74832,1.72148 3.58203,2.88867 a 4.0004,4.0004 0 0 0 0.0195,0.0273 c 0.8812,1.21164 1.51909,2.66773 1.89062,4.52539 a 4.0004,4.0004 0 0 0 0.0117,0.0605 c 0.43237,1.99966 0.66017,4.21486 0.66017,6.6543 0,2.43944 -0.2272,4.674245 -0.66211,6.712895 a 4.0004,4.0004 0 0 0 -0.01,0.0488 c -0.37153,1.85765 -1.00942,3.3157 -1.89062,4.52734 -0.83033,1.14171 -1.95423,2.08128 -3.60156,2.86914 a 4.0004,4.0004 0 0 0 -0.0195,0.01 c -1.39054,0.67482 -3.51276,1.14453 -6.41017,1.14453 -2.92835,0 -5.08535,-0.4699 -6.51562,-1.15234 -1.60938,-0.7833 -2.72526,-1.71988 -3.5625,-2.8711 -0.88637,-1.21876 -1.5392,-2.69144 -1.93946,-4.55273 -0.40807,-2.0492 -0.62304,-4.290605 -0.62304,-6.736335 0,-2.44779 0.2146,-4.67336 0.6211,-6.68555 0.40016,-1.86345 1.05431,-3.33493 1.9414,-4.55468 a 4.0004,4.0004 0 0 0 0.0215,-0.0273 c 0.84043,-1.17661 1.94589,-2.1142 3.541,-2.89062 1.43027,-0.68244 3.58727,-1.1543 6.51563,-1.1543 z M 33.941914,83.256015 H 44.613789 V 111.16227 H 33.941914 c -2.31955,0 -3.984246,-0.42485 -5.166016,-1.0625 -1.368975,-0.7561 -2.345463,-1.64765 -3.103515,-2.76367 -0.821249,-1.20906 -1.435887,-2.62768 -1.837891,-4.3457 -0.40466,-1.90082 -0.611328,-3.821615 -0.611328,-5.781255 0,-1.9628 0.206481,-3.84704 0.607422,-5.67383 0.402897,-1.72853 1.023825,-3.17929 1.861328,-4.43555 0.762677,-1.14401 1.731737,-2.03631 3.089844,-2.78515 1.181451,-0.63606 2.844072,-1.0586 5.160156,-1.0586 z m 47.90625,12.375 h 2.496094 c -3.658979,0.0332 -6.933477,0.68463 -9.423828,2.9043 -2.474535,2.205565 -3.494141,5.538785 -3.494141,8.939455 0,3.37104 1.090138,6.71369 3.611328,8.85938 2.5497,2.16996 5.828307,2.76472 9.566406,2.79687 h -2.755859 c -4.788545,0 -7.964495,-1.10872 -10.138672,-2.96875 -2.040204,-1.771 -3.158203,-4.28516 -3.158203,-8.6875 0,-4.4069 1.125243,-6.97657 3.199219,-8.816405 6.94e-4,-6.2e-4 0.0013,-0.001 0.002,-0.002 2.179836,-1.90575 5.327653,-3.0254 10.095703,-3.0254 z m 2.765625,7.968755 h 15.781251 v 7.5625 H 84.895039 c -2.881173,0 -4.356684,-0.65196 -4.673828,-0.92187 -0.41631,-0.35431 -0.794922,-0.88666 -0.794922,-2.76563 0,-1.97432 0.417894,-2.60986 0.818359,-2.96679 0.31973,-0.28498 1.644783,-0.90821 4.369141,-0.90821 z" id="path36"/>
    <path style="font-size:96px;font-family:CƏLAL;baseline-shift:baseline;display:inline;overflow:visible;fill:#d3d4d7;fill-opacity:1;fill-rule:evenodd;stroke-width:0.5;stroke-linecap:round;stroke-linejoin:round;stroke-dasharray:none;paint-order:markers stroke fill;enable-background:accumulate;stop-color:#000000" d="m 32.986305,114.61151 q -4.21875,0 -7.078125,-1.54687 -2.8125,-1.54688 -4.5,-4.03125 -1.6875,-2.48438 -2.4375,-5.71875 -0.703125,-3.28125 -0.703125,-6.656255 0,-3.375 0.703125,-6.5625 0.75,-3.23438 2.4375,-5.76563 1.6875,-2.53125 4.5,-4.07812 2.859375,-1.54688 7.078125,-1.54688 H 47.65818 v 35.906255 z m -3.09375,7.96875 H 47.65818 v 2.76563 q 0,2.8125 -1.96875,3.98437 -1.96875,1.21875 -5.109375,1.21875 h -27 v 7.96875 H 43.72068 q 4.640625,0 7.359375,-1.40625 2.71875,-1.35937 4.125,-3.51562 1.40625,-2.10938 1.828125,-4.54688 0.421875,-2.4375 0.421875,-4.54687 V 70.64275 h -27.5625 q -5.53125,0 -9.75,2.109385 -4.171875,2.10937 -6.890625,5.71875 -2.71875,3.60937 -4.1249998,8.29687 -1.4062503,4.6875 -1.4062503,9.89063 0,5.109375 1.4062503,9.796875 1.4062498,4.6875 4.1249998,8.29688 2.71875,3.60937 6.890625,5.71875 4.21875,2.10937 9.75,2.10937 z m 35.71875,-51.93751 v 8.062505 H 95.18943 q 8.25,0 8.25,10.82813 v 1.54687 H 80.892555 q -8.15625,0 -12.75,4.03125 -4.546875,4.03125 -4.546875,11.812505 0,7.78125 4.546875,11.71875 4.59375,3.9375 12.75,3.9375 H 113.23631 V 86.017755 q 0,-4.73437 -1.54687,-7.6875 -1.54688,-3 -3.75,-4.6875 -2.20313,-1.734375 -4.68751,-2.343755 -2.48437,-0.65625 -4.406252,-0.65625 z m 37.828125,28.406255 v 15.562505 h -19.5 q -5.0625,0 -7.265625,-1.875 -2.203125,-1.875 -2.203125,-5.8125 0,-4.03125 2.15625,-5.95312 2.15625,-1.921885 7.03125,-1.921885 z M 174.22068,70.64275 h -52.45312 v 51.93751 h 9.70313 V 78.705255 h 20.76562 v 43.875005 h 9.79687 V 78.705255 h 9.75 q 3.46875,0 5.57813,1.07813 2.10937,1.03125 3.28125,2.67187 1.21875,1.64063 1.64062,3.70313 0.46875,2.0625 0.46875,4.07812 v 32.343755 h 9.79688 V 88.033385 q 0,-8.85938 -4.73438,-13.125 -4.6875,-4.265635 -13.59375,-4.265635 z m 35.4375,21.609385 q 0.375,-2.71875 1.3125,-5.20313 0.98438,-2.48437 2.71875,-4.3125 1.73438,-1.82812 4.26563,-2.90625 2.53125,-1.125 6.09375,-1.125 h 18.42187 V 70.64275 h -21.51562 q -5.53125,0 -9.75,2.109385 -4.17188,2.10937 -6.89063,5.71875 -2.71875,3.60937 -4.125,8.29687 -1.40625,4.6875 -1.40625,9.89063 0,5.109375 1.40625,9.796875 1.40625,4.6875 4.125,8.29688 2.71875,3.60937 6.89063,5.71875 4.21875,2.10937 9.75,2.10937 h 21.51562 v -7.96875 h -18.42187 q -3.65625,0 -6.28125,-1.125 -2.57813,-1.17187 -4.3125,-3.1875 -1.6875,-2.01562 -2.67188,-4.64062 -0.9375,-2.67188 -1.21875,-5.53125 h 31.73438 V 92.252135 Z M 314.75193,78.705255 V 70.64275 h -21.51562 q -5.53125,0 -9.75,2.109385 -4.17188,2.10937 -6.89063,5.71875 -2.71875,3.60937 -4.125,8.29687 -1.40625,4.6875 -1.40625,9.89063 0,5.109375 1.40625,9.796875 1.40625,4.6875 4.125,8.29688 2.71875,3.60937 6.89063,5.71875 4.21875,2.10937 9.75,2.10937 h 21.51562 v -7.96875 h -18.42187 q -4.21875,0 -7.07813,-1.54687 -2.8125,-1.54688 -4.5,-4.03125 -1.6875,-2.48438 -2.4375,-5.71875 -0.70312,-3.28125 -0.70312,-6.656255 0,-3.375 0.70312,-6.5625 0.75,-3.23438 2.4375,-5.76563 1.6875,-2.53125 4.5,-4.07812 2.85938,-1.54688 7.07813,-1.54688 z m 31.96875,45.234385 q 7.875,0 13.125,-2.01563 5.29688,-2.01562 8.34375,-5.67187 3.09375,-3.65625 4.35938,-8.625 1.3125,-5.01563 1.3125,-10.968755 0,-5.95313 -1.3125,-10.96875 -1.26563,-5.0625 -4.35938,-8.67188 -3.04687,-3.60937 -8.34375,-5.625005 -5.25,-2.01562 -13.125,-2.01562 -7.96875,0 -13.21875,2.01562 -5.20312,2.015635 -8.29687,5.625005 -3.09375,3.60938 -4.40625,8.67188 -1.26563,5.01562 -1.26563,10.96875 0,5.953125 1.26563,10.968755 1.3125,4.96875 4.40625,8.625 3.09375,3.65625 8.29687,5.67187 5.25,2.01563 13.21875,2.01563 z m 16.59375,-27.281255 q 0,4.031255 -0.75,7.546875 -0.70312,3.51563 -2.57812,6.09375 -1.875,2.57813 -5.10938,4.125 -3.1875,1.54688 -8.15625,1.54688 -5.01562,0 -8.25,-1.54688 -3.1875,-1.54687 -5.0625,-4.125 -1.875,-2.57812 -2.625,-6.09375 -0.70312,-3.51562 -0.70312,-7.546875 0,-4.03125 0.70312,-7.5 0.75,-3.51563 2.625,-6.09375 1.875,-2.625 5.0625,-4.17188 3.23438,-1.54687 8.25,-1.54687 4.96875,0 8.15625,1.54687 3.23438,1.54688 5.10938,4.17188 1.875,2.57812 2.57812,6.09375 0.75,3.46875 0.75,7.5 z M 433.53318,70.64275 h -52.45312 v 51.93751 h 9.70312 V 78.705255 h 20.76563 v 43.875005 h 9.79687 V 78.705255 h 9.75 q 3.46875,0 5.57813,1.07813 2.10937,1.03125 3.28125,2.67187 1.21875,1.64063 1.64062,3.70313 0.46875,2.0625 0.46875,4.07812 v 32.343755 h 9.79688 V 88.033385 q 0,-8.85938 -4.73438,-13.125 -4.6875,-4.265635 -13.59375,-4.265635 z" id="path35"/>
    <path style="font-size:96px;font-family:CƏLAL;baseline-shift:baseline;display:inline;overflow:visible;fill:url(#linearGradient44);fill-rule:evenodd;stroke-width:0.5;stroke-linecap:round;stroke-linejoin:round;stroke-dasharray:none;paint-order:markers stroke fill;enable-background:accumulate;stop-color:#000000" d="m 33.531165,115.26602 q -4.21875,0 -7.078125,-1.54687 -2.8125,-1.54688 -4.5,-4.03125 -1.6875,-2.48438 -2.4375,-5.71875 -0.703125,-3.28125 -0.703125,-6.65625 0,-3.375 0.703125,-6.5625 0.75,-3.23438 2.4375,-5.76563 1.6875,-2.53125 4.5,-4.07812 2.859375,-1.54688 7.078125,-1.54688 H 48.20304 v 35.90625 z m -3.09375,7.96875 H 48.20304 v 2.76563 q 0,2.8125 -1.96875,3.98437 -1.96875,1.21875 -5.109375,1.21875 H 14.124914 v 7.96875 H 44.26554 q 4.640625,0 7.359375,-1.40625 2.71875,-1.35937 4.125,-3.51562 1.40625,-2.10938 1.828125,-4.54688 0.421875,-2.4375 0.421875,-4.54687 V 71.29726 h -27.5625 q -5.53125,0 -9.75,2.10939 -4.171875,2.10937 -6.890625,5.71875 -2.71875,3.60937 -4.1249998,8.29687 -1.4062502,4.6875 -1.4062502,9.89063 0,5.10937 1.4062502,9.79687 1.4062498,4.6875 4.1249998,8.29688 2.71875,3.60937 6.890625,5.71875 4.21875,2.10937 9.75,2.10937 z m 35.71875,-51.93751 v 8.06251 h 29.578127 q 8.249998,0 8.249998,10.82813 v 1.54687 H 81.437412 q -8.156247,0 -12.749997,4.03125 -4.546875,4.03125 -4.546875,11.8125 0,7.78125 4.546875,11.71875 4.59375,3.9375 12.749997,3.9375 h 32.343758 v -36.5625 q 0,-4.73437 -1.54687,-7.6875 -1.54688,-3 -3.75,-4.6875 -2.20313,-1.73438 -4.68751,-2.34376 -2.48438,-0.65625 -4.406252,-0.65625 z m 37.828125,28.40626 v 15.5625 H 84.484292 q -5.062502,0 -7.265627,-1.875 -2.203125,-1.875 -2.203125,-5.8125 0,-4.03125 2.15625,-5.95312 2.15625,-1.92188 7.031252,-1.92188 z m 70.78125,-28.40626 h -52.45312 v 51.93751 h 9.70313 v -43.875 h 20.76562 v 43.875 h 9.79687 v -43.875 h 9.75 q 3.46875,0 5.57813,1.07813 2.10937,1.03125 3.28125,2.67187 1.21875,1.64063 1.64062,3.70313 0.46875,2.0625 0.46875,4.07812 v 32.34375 h 9.79688 V 88.6879 q 0,-8.85938 -4.73438,-13.125 -4.6875,-4.26564 -13.59375,-4.26564 z m 35.4375,21.60939 q 0.375,-2.71875 1.3125,-5.20313 0.98438,-2.48437 2.71875,-4.3125 1.73438,-1.82812 4.26563,-2.90625 2.53125,-1.125 6.09375,-1.125 h 18.42187 v -8.06251 h -21.51562 q -5.53125,0 -9.75,2.10939 -4.17188,2.10937 -6.89063,5.71875 -2.71875,3.60937 -4.125,8.29687 -1.40625,4.6875 -1.40625,9.89063 0,5.10937 1.40625,9.79687 1.40625,4.6875 4.125,8.29688 2.71875,3.60937 6.89063,5.71875 4.21875,2.10937 9.75,2.10937 h 21.51562 v -7.96875 h -18.42187 q -3.65625,0 -6.28125,-1.125 -2.57813,-1.17187 -4.3125,-3.1875 -1.6875,-2.01562 -2.67188,-4.64062 -0.9375,-2.67188 -1.21875,-5.53125 h 31.73438 v -7.875 z M 315.29679,79.35977 v -8.06251 h -21.51562 q -5.53125,0 -9.75,2.10939 -4.17188,2.10937 -6.89063,5.71875 -2.71875,3.60937 -4.125,8.29687 -1.40625,4.6875 -1.40625,9.89063 0,5.10937 1.40625,9.79687 1.40625,4.6875 4.125,8.29688 2.71875,3.60937 6.89063,5.71875 4.21875,2.10937 9.75,2.10937 h 21.51562 v -7.96875 h -18.42187 q -4.21875,0 -7.07813,-1.54687 -2.8125,-1.54688 -4.5,-4.03125 -1.6875,-2.48438 -2.4375,-5.71875 -0.70312,-3.28125 -0.70312,-6.65625 0,-3.375 0.70312,-6.5625 0.75,-3.23438 2.4375,-5.76563 1.6875,-2.53125 4.5,-4.07812 2.85938,-1.54688 7.07813,-1.54688 z m 31.96875,45.23438 q 7.875,0 13.125,-2.01563 5.29688,-2.01562 8.34375,-5.67187 3.09375,-3.65625 4.35938,-8.625 1.3125,-5.01563 1.3125,-10.96875 0,-5.95313 -1.3125,-10.96875 -1.26563,-5.0625 -4.35938,-8.67188 -3.04687,-3.60937 -8.34375,-5.62501 -5.25,-2.01562 -13.125,-2.01562 -7.96875,0 -13.21875,2.01562 -5.20312,2.01564 -8.29687,5.62501 -3.09375,3.60938 -4.40625,8.67188 -1.26563,5.01562 -1.26563,10.96875 0,5.95312 1.26563,10.96875 1.3125,4.96875 4.40625,8.625 3.09375,3.65625 8.29687,5.67187 5.25,2.01563 13.21875,2.01563 z M 363.85929,97.3129 q 0,4.03125 -0.75,7.54687 -0.70312,3.51563 -2.57812,6.09375 -1.875,2.57813 -5.10938,4.125 -3.1875,1.54688 -8.15625,1.54688 -5.01562,0 -8.25,-1.54688 -3.1875,-1.54687 -5.0625,-4.125 -1.875,-2.57812 -2.625,-6.09375 -0.70312,-3.51562 -0.70312,-7.54687 0,-4.03125 0.70312,-7.5 0.75,-3.51563 2.625,-6.09375 1.875,-2.625 5.0625,-4.17188 3.23438,-1.54687 8.25,-1.54687 4.96875,0 8.15625,1.54687 3.23438,1.54688 5.10938,4.17188 1.875,2.57812 2.57812,6.09375 0.75,3.46875 0.75,7.5 z m 70.21875,-26.01564 h -52.45312 v 51.93751 h 9.70312 v -43.875 h 20.76563 v 43.875 h 9.79687 v -43.875 h 9.75 q 3.46875,0 5.57813,1.07813 2.10937,1.03125 3.28125,2.67187 1.21875,1.64063 1.64062,3.70313 0.46875,2.0625 0.46875,4.07812 v 32.34375 h 9.79688 V 88.6879 q 0,-8.85938 -4.73438,-13.125 -4.6875,-4.26564 -13.59375,-4.26564 z" id="path35-9"/>
    <circle style="fill:#9fa2a6;fill-opacity:1;fill-rule:evenodd;stroke:none;stroke-width:0.5;stroke-linecap:round;stroke-linejoin:round;stroke-dasharray:none;stroke-opacity:1;paint-order:markers stroke fill" id="path38-8" cx="258.6384" cy="117.25063" r="6.4003525"/>
    <g id="path38" style="stroke-width:0.5;stroke-dasharray:none" transform="translate(-37.370435,147.158)">
        <path style="baseline-shift:baseline;display:inline;overflow:visible;fill:#353d42;fill-rule:evenodd;stroke-width:0.5;stroke-linecap:round;stroke-linejoin:round;stroke-dasharray:none;paint-order:markers stroke fill;enable-background:accumulate;stop-color:#000000;stop-opacity:1" d="m 296.80859,-36.414062 c -3.96448,0 -7.19531,3.230823 -7.19531,7.195312 0,3.964489 3.23083,7.195312 7.19531,7.195313 3.96449,0 7.19532,-3.230824 7.19532,-7.195313 0,-3.964489 -3.23083,-7.195312 -7.19532,-7.195312 z m 0,1.589843 c 3.10515,0 5.60547,2.500323 5.60547,5.605469 0,3.105146 -2.50032,5.605469 -5.60547,5.605469 -3.10514,0 -5.60547,-2.500323 -5.60547,-5.605469 0,-3.105146 2.50033,-5.605469 5.60547,-5.605469 z" id="path89"/>
        <path style="baseline-shift:baseline;display:inline;overflow:visible;fill:url(#linearGradient39);fill-rule:evenodd;stroke-width:0.5;stroke-linecap:round;stroke-linejoin:round;stroke-dasharray:none;paint-order:markers stroke fill;enable-background:accumulate;stop-color:#000000;stop-opacity:1" d="m 303.20931,-29.218699 a 6.4003525,6.4003525 0 0 1 -6.40035,6.400353 6.4003525,6.4003525 0 0 1 -6.40035,-6.400353 6.4003525,6.4003525 0 0 1 6.40035,-6.400352 6.4003525,6.4003525 0 0 1 6.40035,6.400352 z" id="path90"/>
    </g>
    <path style="fill:url(#linearGradient80);fill-opacity:1;stroke:url(#linearGradient78);stroke-width:0.5;stroke-dasharray:none;stroke-opacity:1" d="m 252.21228,123.06599 c 0.19479,-0.005 0.72044,-0.0388 0.86706,-0.0555 0.27328,-0.0311 0.44675,-0.0521 0.52019,-0.0633 0.0441,-0.007 0.14017,-0.0212 0.21343,-0.0322 0.31759,-0.0477 0.97063,-0.17 1.54734,-0.2897 0.0514,-0.0107 0.13524,-0.0275 0.18675,-0.0375 0.0515,-0.01 0.16532,-0.0327 0.25341,-0.0505 0.0879,-0.0178 0.23211,-0.0463 0.32016,-0.0632 0.0879,-0.017 0.23512,-0.0458 0.3268,-0.0642 0.0917,-0.0184 0.24777,-0.0493 0.34683,-0.0687 0.1983,-0.0389 0.58985,-0.11986 0.6736,-0.13935 0.0292,-0.007 0.11047,-0.0241 0.18009,-0.0384 0.0698,-0.0143 0.20177,-0.043 0.29348,-0.0638 0.0917,-0.0208 0.21774,-0.0491 0.28014,-0.063 0.0623,-0.0139 0.17934,-0.04 0.26009,-0.058 0.17553,-0.0393 1.137,-0.26866 1.30721,-0.3119 0.13196,-0.0335 0.38433,-0.0972 0.54027,-0.13632 0.13907,-0.0349 0.80592,-0.20918 0.88703,-0.23182 0.0727,-0.0202 0.60923,-0.16858 0.76035,-0.21014 0.13962,-0.0384 0.30783,-0.086 0.42013,-0.11876 0.0552,-0.0161 0.17953,-0.0524 0.27681,-0.0806 0.41215,-0.1199 0.54758,-0.16074 0.86372,-0.26037 0.48709,-0.15353 0.89802,-0.2916 1.22053,-0.4101 0.099,-0.0364 0.20706,-0.0761 0.24008,-0.0882 0.0331,-0.0121 0.15912,-0.0603 0.28011,-0.10701 0.19396,-0.0749 0.25943,-0.1009 0.36683,-0.14573 0.0146,-0.006 0.1048,-0.0433 0.2001,-0.0825 0.40936,-0.16853 1.18051,-0.52198 1.44727,-0.66338 0.048,-0.0253 0.13178,-0.069 0.18677,-0.0971 0.40232,-0.20562 0.80003,-0.43757 1.45396,-0.84801 0.77693,-0.48765 1.13552,-0.73926 1.47736,-1.03666 0.62249,-0.54158 0.90401,-1.07414 0.81108,-1.53425 -0.045,-0.22222 -0.1398,-0.40099 -0.30237,-0.56943 -0.0757,-0.0783 -0.24373,-0.20623 -0.35371,-0.26914 -0.17607,-0.10067 -0.48064,-0.21854 -0.73866,-0.28584 -0.47329,-0.12346 -1.48984,-0.22266 -2.2831,-0.22279 -0.34338,-5e-5 -0.9111,0.0246 -1.14501,0.0497 -0.0624,0.007 -0.14946,0.0156 -0.19343,0.0197 -0.10116,0.01 -0.52513,0.0665 -0.61362,0.0825 -0.36332,0.0657 -0.36473,0.0661 -0.44361,0.12188 -0.0435,0.0308 -0.0966,0.1124 -0.0966,0.14868 0,0.0107 0.0468,0.072 0.10388,0.13631 0.0571,0.0643 0.12668,0.14964 0.15475,0.18959 0.0616,0.088 0.0511,0.0869 0.3551,0.0352 0.56404,-0.096 0.98462,-0.14896 1.52069,-0.19142 0.25539,-0.0202 1.00459,-0.0203 1.21384,-1.2e-4 0.39073,0.0377 0.67305,0.083 0.95372,0.15322 0.14016,0.035 0.32997,0.0906 0.38685,0.11322 0.0146,0.006 0.0805,0.0319 0.14672,0.0578 0.35461,0.13938 0.47008,0.22021 0.55836,0.39091 0.10462,0.2025 0.0656,0.4107 -0.12048,0.64064 -0.0593,0.0733 -0.28578,0.27876 -0.41799,0.37917 -0.0403,0.0306 -0.13379,0.10168 -0.20757,0.15785 -0.43665,0.33228 -1.20693,0.82037 -1.72317,1.0919 -0.0425,0.0222 -0.0977,0.0517 -0.12339,0.0656 -0.41808,0.22556 -1.33112,0.6511 -1.78076,0.82995 -0.10809,0.043 -0.20019,0.0811 -0.32219,0.13336 -0.023,0.01 -0.0454,0.018 -0.0495,0.018 -0.007,0 -0.10792,0.041 -0.18846,0.0763 -0.10097,0.0442 -0.96374,0.36212 -1.23386,0.45462 -0.0771,0.0264 -0.2091,0.0716 -0.29347,0.1005 -0.33937,0.11624 -1.09485,0.35709 -1.42731,0.45504 -0.099,0.0292 -0.22508,0.0663 -0.28009,0.0825 -0.055,0.0162 -0.16313,0.0475 -0.24013,0.0696 -0.0771,0.0221 -0.16715,0.0485 -0.20008,0.0586 -0.0329,0.0102 -0.11993,0.0346 -0.1934,0.0544 -0.23062,0.0621 -0.46431,0.12564 -0.53356,0.14509 -0.0768,0.0216 -0.59558,0.15754 -0.74982,0.19653 -0.23769,0.0601 -1.03688,0.25547 -1.67121,0.40859 -0.18709,0.0452 -0.43621,0.1056 -0.5536,0.13432 -0.77115,0.18866 -1.60727,0.38631 -1.97416,0.46667 -0.066,0.0145 -0.14418,0.0316 -0.17334,0.0382 -0.0292,0.007 -0.0955,0.0208 -0.14673,0.0317 -0.0513,0.0109 -0.11738,0.0255 -0.14672,0.0324 -0.11137,0.0262 -0.94384,0.18945 -1.12715,0.22103 -0.40885,0.0704 -0.56163,0.0953 -0.81368,0.13227 -0.20353,0.0299 -0.62603,0.0816 -0.92705,0.11353 -0.45161,0.0479 -1.14393,0.0704 -1.59718,0.0519 -0.60612,-0.0247 -1.13319,-0.068 -1.49084,-0.12248 -0.55341,-0.0843 -0.96059,-0.28386 -1.05217,-0.51568 -0.0357,-0.0904 -0.0353,-0.1442 9.6e-4,-0.24825 0.10063,-0.27911 0.4592,-0.61233 1.08332,-1.00631 0.63645,-0.40176 1.65874,-0.92503 2.91117,-1.49008 l 0.25667,-0.1158 -0.007,-0.0547 c -0.004,-0.0306 0.004,-0.13484 0.0206,-0.23598 0.0164,-0.0997 0.0246,-0.19176 0.0204,-0.20461 -0.0146,-0.0448 -0.13724,-0.0447 -0.27326,9e-5 -0.0186,0.006 -0.0963,0.0289 -0.17334,0.0508 -0.0771,0.0219 -0.16695,0.0486 -0.2001,0.0594 -0.13687,0.0446 -0.2518,0.0838 -0.33344,0.1138 -0.048,0.0175 -0.11065,0.0404 -0.14017,0.0509 -0.0647,0.0232 -0.0885,0.0324 -0.16933,0.0659 -0.0345,0.0143 -0.0656,0.026 -0.0698,0.026 -0.002,0 -0.0446,0.0163 -0.0908,0.0362 -0.0459,0.0199 -0.11647,0.0494 -0.15711,0.0654 -0.11264,0.0448 -0.74778,0.35128 -0.92213,0.44492 -0.58042,0.31174 -1.40544,0.85145 -1.88574,1.2336 -0.45473,0.36178 -0.69873,0.69898 -0.7733,1.06853 -0.0859,0.42659 0.13088,0.81256 0.59965,1.06653 0.36336,0.1969 0.77762,0.3171 1.52756,0.44322 0.18209,0.0306 0.54515,0.0706 0.86702,0.0954 0.23863,0.0184 1.09459,0.0322 1.43392,0.0231 z" id="path73"/>
    <circle style="fill:url(#radialGradient83);fill-rule:evenodd;stroke:#989fa5;stroke-width:0.720763;stroke-linecap:round;stroke-linejoin:round;stroke-dasharray:none;stroke-opacity:1;paint-order:markers stroke fill" id="path80" cx="261.15509" cy="120.3716" r="2.7211919"/>
</svg>
