<?xml version="1.0" encoding="UTF-8" standalone="no"?>
<!DOCTYPE svg PUBLIC "-//W3C//DTD SVG 1.1//EN" "http://www.w3.org/Graphics/SVG/1.1/DTD/svg11.dtd">
<svg xmlns="http://www.w3.org/2000/svg" version="1.1" viewBox="0 0 1920 784">
<g stroke-width="2.00" fill="none" stroke-linecap="butt">
<path stroke="#81a3c9" vector-effect="non-scaling-stroke" d="
  M 1122.25 173.50
  L 1122.25 283.46
  A 0.50 0.50 0.0 0 1 1121.75 283.96
  Q 1077.74 284.05 1033.73 283.98
  Q 1022.35 283.96 1017.05 282.49
  C 1003.43 278.73 992.42 267.60 988.71 254.01
  Q 987.26 248.69 987.25 237.34
  Q 987.23 176.57 987.27 115.80
  Q 987.27 106.41 988.64 101.46
  C 992.45 87.72 1003.54 76.65 1017.23 72.93
  Q 1022.50 71.49 1033.40 71.50
  Q 1098.15 71.51 1162.77 71.50
  A 0.49 0.48 -90.0 0 0 1163.25 71.01
  L 1163.25 30.78
  A 0.51 0.51 0.0 0 0 1162.74 30.27
  Q 1097.78 30.22 1032.82 30.27
  Q 1019.56 30.28 1012.89 31.41
  C 978.21 37.29 951.96 64.79 946.16 98.82
  Q 944.95 105.91 944.96 118.75
  Q 945.02 178.47 945.01 238.19
  Q 945.01 251.07 946.34 258.10
  C 953.84 297.70 987.71 325.14 1027.99 325.20
  Q 1111.75 325.31 1195.40 325.19
  A 0.69 0.68 -80.5 0 0 1196.05 324.72
  Q 1237.71 203.64 1279.49 82.60
  Q 1282.14 74.93 1284.76 71.60
  C 1296.19 57.08 1318.87 61.67 1324.72 79.01
  Q 1359.21 181.32 1393.59 283.58
  A 0.32 0.31 -9.7 0 1 1393.29 284.00
  L 1285.25 284.00
  A 0.50 0.50 0.0 0 0 1284.75 284.50
  L 1284.75 324.75
  A 0.50 0.50 0.0 0 0 1285.25 325.25
  L 1450.23 325.25
  A 0.39 0.39 0.0 0 0 1450.60 324.73
  Q 1409.27 201.94 1367.77 79.20
  Q 1363.31 65.99 1360.41 60.63
  C 1336.20 15.85 1271.66 12.13 1245.42 56.47
  Q 1241.99 62.27 1237.94 74.18
  Q 1200.36 184.57 1162.64 295.01
  A 0.20 0.20 0.0 0 1 1162.25 294.95
  L 1162.25 132.50
  A 0.50 0.50 0.0 0 0 1161.75 132.00
  L 1047.25 132.00
  A 0.50 0.50 0.0 0 0 1046.75 132.50
  L 1046.75 172.50
  A 0.50 0.50 0.0 0 0 1047.25 173.00
  L 1121.75 173.00
  A 0.50 0.50 0.0 0 1 1122.25 173.50"
/>
<path stroke="#81a3c9" vector-effect="non-scaling-stroke" d="
  M 541.37 31.34
  C 498.87 37.73 466.12 71.19 460.33 113.77
  C 452.37 172.28 496.87 222.66 555.51 223.30
  Q 571.71 223.48 587.92 223.51
  C 596.87 223.53 596.50 233.75 589.22 233.75
  Q 524.51 233.74 459.77 233.77
  A 0.52 0.52 0.0 0 0 459.25 234.29
  L 459.25 274.22
  A 0.51 0.51 0.0 0 0 459.76 274.73
  Q 523.24 274.78 586.71 274.74
  Q 596.73 274.73 602.04 273.36
  C 629.48 266.29 644.35 235.89 632.87 210.02
  C 625.28 192.92 608.32 182.27 589.50 182.27
  Q 575.85 182.27 562.21 182.23
  Q 550.75 182.19 545.03 180.91
  C 516.67 174.53 496.34 145.34 502.64 116.17
  C 507.19 95.15 523.27 77.88 544.52 72.90
  Q 550.51 71.50 563.10 71.50
  Q 625.00 71.50 686.77 71.50
  A 0.49 0.48 -90.0 0 0 687.25 71.01
  L 687.25 30.79
  A 0.51 0.51 0.0 0 0 686.74 30.28
  Q 624.00 30.20 561.32 30.28
  Q 548.32 30.30 541.37 31.34"
/>
<path stroke="#81a3c9" vector-effect="non-scaling-stroke" d="
  M 778.18 282.60
  C 764.31 278.85 753.15 267.53 749.45 253.68
  Q 748.03 248.35 748.02 237.56
  Q 747.97 178.40 748.02 119.25
  Q 748.03 107.03 749.51 101.51
  C 753.29 87.49 764.93 76.10 779.20 72.64
  Q 783.93 71.49 793.90 71.49
  Q 861.43 71.52 928.99 71.48
  A 0.51 0.51 0.0 0 0 929.50 70.97
  L 929.50 30.78
  A 0.51 0.51 0.0 0 0 928.99 30.27
  Q 861.90 30.23 794.80 30.25
  Q 781.82 30.26 774.88 31.47
  C 741.51 37.28 714.75 63.18 708.36 96.67
  Q 707.03 103.64 707.02 116.56
  Q 706.98 178.04 707.00 239.54
  Q 707.01 251.39 708.32 258.25
  C 715.90 297.77 749.76 325.23 790.01 325.25
  Q 859.48 325.28 928.99 325.23
  A 0.51 0.51 0.0 0 0 929.50 324.72
  L 929.50 284.50
  A 0.51 0.51 0.0 0 0 928.99 283.99
  Q 861.04 284.02 793.07 283.98
  Q 783.29 283.98 778.18 282.60"
/>
<path stroke="#81a3c9" vector-effect="non-scaling-stroke" d="
  M 1283.75 239.80
  L 1283.75 274.25
  A 0.50 0.50 0.0 0 0 1284.25 274.75
  L 1380.18 274.75
  A 0.22 0.22 0.0 0 0 1380.39 274.46
  Q 1347.97 178.11 1315.30 81.86
  C 1312.30 73.04 1303.31 69.27 1295.35 74.90
  Q 1290.88 78.06 1290.20 80.03
  Q 1248.37 201.73 1206.28 324.52
  A 0.55 0.55 0.0 0 0 1206.80 325.25
  L 1254.01 325.25
  A 0.75 0.75 0.0 0 0 1254.72 324.74
  L 1283.42 239.75
  A 0.17 0.17 0.0 0 1 1283.75 239.80"
/>
<path stroke="#81a3c9" vector-effect="non-scaling-stroke" d="
  M 544.57 82.05
  C 516.31 89.37 501.56 120.92 514.69 147.24
  C 523.17 164.25 539.21 173.17 558.45 173.05
  C 571.77 172.97 588.04 171.93 599.66 174.26
  C 636.99 181.76 657.07 223.12 637.01 256.67
  C 625.48 275.96 607.24 284.07 584.95 284.04
  Q 522.28 283.95 459.69 284.02
  A 0.44 0.44 0.0 0 0 459.25 284.46
  L 459.25 324.79
  A 0.45 0.45 0.0 0 0 459.70 325.24
  Q 521.98 325.28 584.17 325.23
  Q 597.27 325.22 604.13 324.22
  C 675.88 313.80 711.40 231.26 669.28 172.40
  C 651.93 148.15 622.55 131.94 592.50 131.99
  Q 575.12 132.02 557.74 131.98
  C 550.26 131.96 549.36 122.74 558.66 122.75
  Q 622.79 122.76 686.77 122.75
  A 0.49 0.48 -90.0 0 0 687.25 122.26
  L 687.25 81.04
  A 0.51 0.51 0.0 0 0 686.74 80.53
  Q 625.20 80.46 563.72 80.53
  Q 550.39 80.55 544.57 82.05"
/>
<path stroke="#81a3c9" vector-effect="non-scaling-stroke" d="
  M 779.41 81.86
  C 766.00 85.77 757.33 98.13 757.30 112.00
  Q 757.24 142.45 757.26 172.80
  A 0.45 0.45 0.0 0 0 757.71 173.25
  L 899.50 173.25
  A 0.50 0.50 0.0 0 0 900.00 172.75
  L 900.00 132.50
  A 0.50 0.50 0.0 0 0 899.50 132.00
  L 799.43 132.00
  A 0.98 0.98 0.0 0 1 798.48 130.80
  C 799.96 124.48 803.98 122.76 810.37 122.76
  Q 869.16 122.75 927.99 122.74
  A 0.52 0.51 90.0 0 0 928.50 122.22
  L 928.50 81.01
  A 0.50 0.49 90.0 0 0 928.01 80.51
  Q 861.67 80.47 795.35 80.53
  Q 783.95 80.54 779.41 81.86"
/>
<path stroke="#81a3c9" vector-effect="non-scaling-stroke" d="
  M 1070.75 224.00
  L 1070.75 232.21
  A 0.52 0.51 -0.6 0 1 1070.24 232.72
  Q 1059.79 232.81 1049.35 232.72
  C 1040.13 232.64 1037.50 228.71 1037.50 219.58
  Q 1037.51 176.98 1037.49 134.39
  C 1037.49 124.76 1040.66 121.74 1050.58 121.74
  Q 1106.77 121.77 1162.99 121.73
  A 0.51 0.51 0.0 0 0 1163.50 121.22
  L 1163.50 81.00
  A 0.51 0.51 0.0 0 0 1162.99 80.49
  Q 1097.92 80.52 1032.86 80.48
  Q 1023.28 80.48 1018.30 81.84
  Q 1001.21 86.53 996.57 103.59
  Q 995.20 108.63 995.21 118.56
  Q 995.31 178.66 995.22 238.75
  C 995.19 255.23 1001.11 268.86 1017.88 273.49
  Q 1023.47 275.03 1037.30 275.02
  Q 1074.37 275.00 1111.50 274.97
  A 0.50 0.50 0.0 0 0 1112.00 274.47
  L 1112.00 182.75
  A 0.50 0.50 0.0 0 0 1111.50 182.25
  L 1047.25 182.25
  A 0.50 0.50 0.0 0 0 1046.75 182.75
  L 1046.75 223.00
  A 0.50 0.50 0.0 0 0 1047.25 223.50
  L 1070.25 223.50
  A 0.50 0.50 0.0 0 1 1070.75 224.00"
/>
<path stroke="#81a3c9" vector-effect="non-scaling-stroke" d="
  M 758.80 254.52
  C 763.09 267.77 775.34 275.98 789.26 275.98
  Q 859.22 276.02 929.02 275.99
  A 0.48 0.48 0.0 0 0 929.50 275.51
  L 929.50 235.28
  A 0.52 0.51 0.0 0 0 928.98 234.77
  Q 870.75 234.73 812.51 234.76
  C 805.28 234.76 801.09 233.24 798.57 226.49
  Q 797.83 224.50 799.95 224.50
  L 899.50 224.50
  A 0.50 0.50 0.0 0 0 900.00 224.00
  L 900.00 183.75
  A 0.50 0.50 0.0 0 0 899.50 183.25
  L 757.75 183.25
  A 0.49 0.48 -90.0 0 0 757.27 183.74
  Q 757.20 211.72 757.28 239.67
  Q 757.31 249.90 758.80 254.52"
/>
<path stroke="#81a3c9" vector-effect="non-scaling-stroke" d="
  M 1287.37 227.91
  A 0.34 0.34 0.0 0 0 1287.69 228.36
  L 1314.68 228.64
  A 0.34 0.34 0.0 0 0 1315.01 228.20
  L 1301.93 188.08
  A 0.34 0.34 0.0 0 0 1301.29 188.08
  L 1287.37 227.91"
/>
</g>
<g fill="#ffffff">
<path d="
  M 952.90 35.88
  Q 979.83 11.12 1015.51 6.79
  Q 1022.16 5.98 1035.48 5.99
  Q 1110.74 6.02 1185.75 5.99
  A 0.75 0.75 0.0 0 1 1186.50 6.74
  L 1186.50 151.67
  A 0.26 0.26 0.0 0 0 1187.00 151.75
  Q 1201.22 109.24 1215.51 67.25
  Q 1219.74 54.82 1222.98 48.74
  C 1257.57 -16.30 1352.54 -14.34 1384.19 52.02
  Q 1386.68 57.24 1391.19 70.72
  Q 1437.69 209.75 1484.22 348.80
  A 0.34 0.34 0.0 0 1 1483.90 349.25
  Q 1259.22 349.25 1034.50 349.25
  Q 1021.29 349.25 1014.55 348.35
  Q 980.60 343.82 955.21 319.76
  A 0.27 0.27 0.0 0 0 954.75 319.96
  L 954.75 348.65
  A 0.57 0.56 -90.0 0 1 954.19 349.22
  Q 869.69 349.28 785.26 349.24
  Q 778.42 349.24 769.13 347.36
  C 736.73 340.79 710.47 320.46 694.73 291.41
  A 0.31 0.30 48.0 0 0 694.21 291.38
  Q 690.74 296.35 687.19 300.95
  C 661.99 333.59 628.22 349.29 587.26 349.27
  Q 511.52 349.23 435.71 349.26
  A 0.46 0.46 0.0 0 1 435.25 348.80
  L 435.25 209.00
  A 0.50 0.50 0.0 0 1 435.75 208.50
  L 466.78 208.50
  A 0.31 0.31 0.0 0 0 467.01 207.99
  C 400.04 134.69 445.92 16.83 543.84 6.69
  Q 550.08 6.04 563.81 6.03
  Q 637.27 5.96 710.74 6.02
  A 0.52 0.52 0.0 0 1 711.26 6.54
  L 711.24 38.77
  A 0.28 0.28 0.0 0 0 711.72 38.97
  Q 738.91 11.29 776.84 6.79
  Q 783.37 6.01 796.81 6.01
  Q 874.40 5.99 952.00 6.00
  A 0.50 0.50 0.0 0 1 952.50 6.50
  L 952.50 35.71
  Q 952.50 36.25 952.90 35.88
  Z
  M 1122.25 173.50
  L 1122.25 283.46
  A 0.50 0.50 0.0 0 1 1121.75 283.96
  Q 1077.74 284.05 1033.73 283.98
  Q 1022.35 283.96 1017.05 282.49
  C 1003.43 278.73 992.42 267.60 988.71 254.01
  Q 987.26 248.69 987.25 237.34
  Q 987.23 176.57 987.27 115.80
  Q 987.27 106.41 988.64 101.46
  C 992.45 87.72 1003.54 76.65 1017.23 72.93
  Q 1022.50 71.49 1033.40 71.50
  Q 1098.15 71.51 1162.77 71.50
  A 0.49 0.48 -90.0 0 0 1163.25 71.01
  L 1163.25 30.78
  A 0.51 0.51 0.0 0 0 1162.74 30.27
  Q 1097.78 30.22 1032.82 30.27
  Q 1019.56 30.28 1012.89 31.41
  C 978.21 37.29 951.96 64.79 946.16 98.82
  Q 944.95 105.91 944.96 118.75
  Q 945.02 178.47 945.01 238.19
  Q 945.01 251.07 946.34 258.10
  C 953.84 297.70 987.71 325.14 1027.99 325.20
  Q 1111.75 325.31 1195.40 325.19
  A 0.69 0.68 -80.5 0 0 1196.05 324.72
  Q 1237.71 203.64 1279.49 82.60
  Q 1282.14 74.93 1284.76 71.60
  C 1296.19 57.08 1318.87 61.67 1324.72 79.01
  Q 1359.21 181.32 1393.59 283.58
  A 0.32 0.31 -9.7 0 1 1393.29 284.00
  L 1285.25 284.00
  A 0.50 0.50 0.0 0 0 1284.75 284.50
  L 1284.75 324.75
  A 0.50 0.50 0.0 0 0 1285.25 325.25
  L 1450.23 325.25
  A 0.39 0.39 0.0 0 0 1450.60 324.73
  Q 1409.27 201.94 1367.77 79.20
  Q 1363.31 65.99 1360.41 60.63
  C 1336.20 15.85 1271.66 12.13 1245.42 56.47
  Q 1241.99 62.27 1237.94 74.18
  Q 1200.36 184.57 1162.64 295.01
  A 0.20 0.20 0.0 0 1 1162.25 294.95
  L 1162.25 132.50
  A 0.50 0.50 0.0 0 0 1161.75 132.00
  L 1047.25 132.00
  A 0.50 0.50 0.0 0 0 1046.75 132.50
  L 1046.75 172.50
  A 0.50 0.50 0.0 0 0 1047.25 173.00
  L 1121.75 173.00
  A 0.50 0.50 0.0 0 1 1122.25 173.50
  Z
  M 541.37 31.34
  C 498.87 37.73 466.12 71.19 460.33 113.77
  C 452.37 172.28 496.87 222.66 555.51 223.30
  Q 571.71 223.48 587.92 223.51
  C 596.87 223.53 596.50 233.75 589.22 233.75
  Q 524.51 233.74 459.77 233.77
  A 0.52 0.52 0.0 0 0 459.25 234.29
  L 459.25 274.22
  A 0.51 0.51 0.0 0 0 459.76 274.73
  Q 523.24 274.78 586.71 274.74
  Q 596.73 274.73 602.04 273.36
  C 629.48 266.29 644.35 235.89 632.87 210.02
  C 625.28 192.92 608.32 182.27 589.50 182.27
  Q 575.85 182.27 562.21 182.23
  Q 550.75 182.19 545.03 180.91
  C 516.67 174.53 496.34 145.34 502.64 116.17
  C 507.19 95.15 523.27 77.88 544.52 72.90
  Q 550.51 71.50 563.10 71.50
  Q 625.00 71.50 686.77 71.50
  A 0.49 0.48 -90.0 0 0 687.25 71.01
  L 687.25 30.79
  A 0.51 0.51 0.0 0 0 686.74 30.28
  Q 624.00 30.20 561.32 30.28
  Q 548.32 30.30 541.37 31.34
  Z
  M 778.18 282.60
  C 764.31 278.85 753.15 267.53 749.45 253.68
  Q 748.03 248.35 748.02 237.56
  Q 747.97 178.40 748.02 119.25
  Q 748.03 107.03 749.51 101.51
  C 753.29 87.49 764.93 76.10 779.20 72.64
  Q 783.93 71.49 793.90 71.49
  Q 861.43 71.52 928.99 71.48
  A 0.51 0.51 0.0 0 0 929.50 70.97
  L 929.50 30.78
  A 0.51 0.51 0.0 0 0 928.99 30.27
  Q 861.90 30.23 794.80 30.25
  Q 781.82 30.26 774.88 31.47
  C 741.51 37.28 714.75 63.18 708.36 96.67
  Q 707.03 103.64 707.02 116.56
  Q 706.98 178.04 707.00 239.54
  Q 707.01 251.39 708.32 258.25
  C 715.90 297.77 749.76 325.23 790.01 325.25
  Q 859.48 325.28 928.99 325.23
  A 0.51 0.51 0.0 0 0 929.50 324.72
  L 929.50 284.50
  A 0.51 0.51 0.0 0 0 928.99 283.99
  Q 861.04 284.02 793.07 283.98
  Q 783.29 283.98 778.18 282.60
  Z
  M 1283.75 239.80
  L 1283.75 274.25
  A 0.50 0.50 0.0 0 0 1284.25 274.75
  L 1380.18 274.75
  A 0.22 0.22 0.0 0 0 1380.39 274.46
  Q 1347.97 178.11 1315.30 81.86
  C 1312.30 73.04 1303.31 69.27 1295.35 74.90
  Q 1290.88 78.06 1290.20 80.03
  Q 1248.37 201.73 1206.28 324.52
  A 0.55 0.55 0.0 0 0 1206.80 325.25
  L 1254.01 325.25
  A 0.75 0.75 0.0 0 0 1254.72 324.74
  L 1283.42 239.75
  A 0.17 0.17 0.0 0 1 1283.75 239.80
  Z
  M 544.57 82.05
  C 516.31 89.37 501.56 120.92 514.69 147.24
  C 523.17 164.25 539.21 173.17 558.45 173.05
  C 571.77 172.97 588.04 171.93 599.66 174.26
  C 636.99 181.76 657.07 223.12 637.01 256.67
  C 625.48 275.96 607.24 284.07 584.95 284.04
  Q 522.28 283.95 459.69 284.02
  A 0.44 0.44 0.0 0 0 459.25 284.46
  L 459.25 324.79
  A 0.45 0.45 0.0 0 0 459.70 325.24
  Q 521.98 325.28 584.17 325.23
  Q 597.27 325.22 604.13 324.22
  C 675.88 313.80 711.40 231.26 669.28 172.40
  C 651.93 148.15 622.55 131.94 592.50 131.99
  Q 575.12 132.02 557.74 131.98
  C 550.26 131.96 549.36 122.74 558.66 122.75
  Q 622.79 122.76 686.77 122.75
  A 0.49 0.48 -90.0 0 0 687.25 122.26
  L 687.25 81.04
  A 0.51 0.51 0.0 0 0 686.74 80.53
  Q 625.20 80.46 563.72 80.53
  Q 550.39 80.55 544.57 82.05
  Z
  M 779.41 81.86
  C 766.00 85.77 757.33 98.13 757.30 112.00
  Q 757.24 142.45 757.26 172.80
  A 0.45 0.45 0.0 0 0 757.71 173.25
  L 899.50 173.25
  A 0.50 0.50 0.0 0 0 900.00 172.75
  L 900.00 132.50
  A 0.50 0.50 0.0 0 0 899.50 132.00
  L 799.43 132.00
  A 0.98 0.98 0.0 0 1 798.48 130.80
  C 799.96 124.48 803.98 122.76 810.37 122.76
  Q 869.16 122.75 927.99 122.74
  A 0.52 0.51 90.0 0 0 928.50 122.22
  L 928.50 81.01
  A 0.50 0.49 90.0 0 0 928.01 80.51
  Q 861.67 80.47 795.35 80.53
  Q 783.95 80.54 779.41 81.86
  Z
  M 1070.75 224.00
  L 1070.75 232.21
  A 0.52 0.51 -0.6 0 1 1070.24 232.72
  Q 1059.79 232.81 1049.35 232.72
  C 1040.13 232.64 1037.50 228.71 1037.50 219.58
  Q 1037.51 176.98 1037.49 134.39
  C 1037.49 124.76 1040.66 121.74 1050.58 121.74
  Q 1106.77 121.77 1162.99 121.73
  A 0.51 0.51 0.0 0 0 1163.50 121.22
  L 1163.50 81.00
  A 0.51 0.51 0.0 0 0 1162.99 80.49
  Q 1097.92 80.52 1032.86 80.48
  Q 1023.28 80.48 1018.30 81.84
  Q 1001.21 86.53 996.57 103.59
  Q 995.20 108.63 995.21 118.56
  Q 995.31 178.66 995.22 238.75
  C 995.19 255.23 1001.11 268.86 1017.88 273.49
  Q 1023.47 275.03 1037.30 275.02
  Q 1074.37 275.00 1111.50 274.97
  A 0.50 0.50 0.0 0 0 1112.00 274.47
  L 1112.00 182.75
  A 0.50 0.50 0.0 0 0 1111.50 182.25
  L 1047.25 182.25
  A 0.50 0.50 0.0 0 0 1046.75 182.75
  L 1046.75 223.00
  A 0.50 0.50 0.0 0 0 1047.25 223.50
  L 1070.25 223.50
  A 0.50 0.50 0.0 0 1 1070.75 224.00
  Z
  M 758.80 254.52
  C 763.09 267.77 775.34 275.98 789.26 275.98
  Q 859.22 276.02 929.02 275.99
  A 0.48 0.48 0.0 0 0 929.50 275.51
  L 929.50 235.28
  A 0.52 0.51 0.0 0 0 928.98 234.77
  Q 870.75 234.73 812.51 234.76
  C 805.28 234.76 801.09 233.24 798.57 226.49
  Q 797.83 224.50 799.95 224.50
  L 899.50 224.50
  A 0.50 0.50 0.0 0 0 900.00 224.00
  L 900.00 183.75
  A 0.50 0.50 0.0 0 0 899.50 183.25
  L 757.75 183.25
  A 0.49 0.48 -90.0 0 0 757.27 183.74
  Q 757.20 211.72 757.28 239.67
  Q 757.31 249.90 758.80 254.52
  Z"
/>
<path d="
  M 1287.37 227.91
  L 1301.29 188.08
  A 0.34 0.34 0.0 0 1 1301.93 188.08
  L 1315.01 228.20
  A 0.34 0.34 0.0 0 1 1314.68 228.64
  L 1287.69 228.36
  A 0.34 0.34 0.0 0 1 1287.37 227.91
  Z"
/>
<path d="
  M 95.00 625.47
  L 95.00 773.53
  A 0.47 0.47 0.0 0 1 94.53 774.00
  L 0.72 774.00
  A 0.47 0.47 0.0 0 1 0.25 773.53
  L 0.25 410.72
  A 0.47 0.47 0.0 0 1 0.72 410.25
  L 94.53 410.25
  A 0.47 0.47 0.0 0 1 95.00 410.72
  L 95.00 550.03
  A 0.47 0.47 0.0 0 0 95.47 550.50
  L 230.78 550.50
  A 0.47 0.47 0.0 0 0 231.25 550.03
  L 231.25 410.72
  A 0.47 0.47 0.0 0 1 231.72 410.25
  L 325.53 410.25
  A 0.47 0.47 0.0 0 1 326.00 410.72
  L 326.00 773.53
  A 0.47 0.47 0.0 0 1 325.53 774.00
  L 231.72 774.00
  A 0.47 0.47 0.0 0 1 231.25 773.53
  L 231.25 625.47
  A 0.47 0.47 0.0 0 0 230.78 625.00
  L 95.47 625.00
  A 0.47 0.47 0.0 0 0 95.00 625.47
  Z"
/>
<rect x="387.26" y="410.26" width="94.74" height="363.74" rx="0.43"/>
<path d="
  M 639.60 559.47
  Q 696.18 485.00 752.97 410.65
  A 1.00 1.00 0.0 0 1 753.77 410.25
  L 870.25 410.25
  A 0.28 0.28 0.0 0 1 870.46 410.71
  L 726.55 581.96
  A 0.73 0.73 0.0 0 0 726.54 582.89
  L 883.49 773.50
  A 0.30 0.30 0.0 0 1 883.26 774.00
  L 761.51 774.00
  A 1.07 1.07 0.0 0 1 760.67 773.59
  L 638.99 616.29
  A 0.42 0.41 -64.1 0 0 638.25 616.55
  L 638.25 773.50
  A 0.50 0.50 0.0 0 1 637.75 774.00
  L 544.00 774.00
  A 0.50 0.50 0.0 0 1 543.50 773.50
  L 543.50 410.75
  A 0.50 0.50 0.0 0 1 544.00 410.25
  L 637.75 410.25
  A 0.50 0.50 0.0 0 1 638.25 410.75
  L 638.25 559.54
  A 0.42 0.41 -2.0 0 0 638.70 559.95
  C 638.99 559.93 639.41 559.72 639.60 559.47
  Z"
/>
<path d="
  M 985.99 774.00
  L 886.54 774.00
  A 0.54 0.54 0.0 0 1 886.03 773.27
  L 1025.51 410.60
  A 0.54 0.54 0.0 0 1 1026.01 410.25
  L 1128.82 410.25
  A 0.54 0.54 0.0 0 1 1129.32 410.60
  L 1265.89 773.27
  A 0.54 0.54 0.0 0 1 1265.39 774.00
  L 1165.43 774.00
  A 0.54 0.54 0.0 0 1 1164.92 773.64
  L 1077.45 523.10
  A 0.54 0.54 0.0 0 0 1076.43 523.10
  L 986.50 773.64
  A 0.54 0.54 0.0 0 1 985.99 774.00
  Z"
/>
<path d="
  M 1390.74 634.32
  A 0.40 0.40 0.0 0 0 1390.00 634.54
  L 1390.00 773.50
  A 0.50 0.50 0.0 0 1 1389.50 774.00
  L 1295.75 774.00
  A 0.50 0.50 0.0 0 1 1295.25 773.50
  L 1295.25 410.70
  A 0.45 0.45 0.0 0 1 1295.70 410.25
  Q 1369.30 410.24 1443.00 410.25
  Q 1456.22 410.26 1473.25 413.45
  C 1523.04 422.77 1556.63 454.80 1562.09 506.19
  C 1567.90 560.91 1542.36 613.96 1484.30 624.76
  A 0.48 0.48 0.0 0 0 1484.00 625.53
  L 1597.80 773.73
  A 0.17 0.17 0.0 0 1 1597.67 774.00
  L 1480.40 774.00
  A 0.94 0.91 -16.0 0 1 1479.62 773.58
  L 1390.74 634.32
  Z
  M 1464.25 533.21
  C 1468.65 487.39 1424.62 480.67 1390.55 482.93
  A 0.59 0.59 0.0 0 0 1390.00 483.52
  L 1390.00 572.24
  A 0.61 0.60 -88.5 0 0 1390.57 572.85
  C 1419.93 574.41 1460.59 571.31 1464.25 533.21
  Z"
/>
<path d="
  M 1642.93 745.82
  C 1607.83 714.15 1602.00 670.19 1601.91 625.19
  Q 1601.70 517.97 1601.78 410.76
  A 0.51 0.50 -90.0 0 1 1602.28 410.25
  L 1696.02 410.25
  A 0.49 0.49 0.0 0 1 1696.51 410.74
  Q 1696.47 509.01 1696.53 607.44
  C 1696.54 625.06 1697.77 644.83 1703.46 662.48
  C 1714.36 696.30 1747.40 705.30 1779.18 698.44
  C 1803.28 693.23 1815.58 675.13 1820.56 652.24
  Q 1824.45 634.39 1824.46 618.68
  Q 1824.52 514.73 1824.51 410.77
  A 0.52 0.52 0.0 0 1 1825.03 410.25
  L 1919.01 410.25
  A 0.48 0.48 0.0 0 1 1919.49 410.73
  Q 1919.54 515.91 1919.46 621.25
  C 1919.43 672.86 1912.28 723.76 1866.71 755.22
  C 1825.50 783.65 1765.78 788.38 1717.49 779.80
  C 1690.26 774.95 1663.64 764.50 1642.93 745.82
  Z"
/>
</g>
<g fill="#034693">
<path d="
  M 1121.75 173.00
  L 1047.25 173.00
  A 0.50 0.50 0.0 0 1 1046.75 172.50
  L 1046.75 132.50
  A 0.50 0.50 0.0 0 1 1047.25 132.00
  L 1161.75 132.00
  A 0.50 0.50 0.0 0 1 1162.25 132.50
  L 1162.25 294.95
  A 0.20 0.20 0.0 0 0 1162.64 295.01
  Q 1200.36 184.57 1237.94 74.18
  Q 1241.99 62.27 1245.42 56.47
  C 1271.66 12.13 1336.20 15.85 1360.41 60.63
  Q 1363.31 65.99 1367.77 79.20
  Q 1409.27 201.94 1450.60 324.73
  A 0.39 0.39 0.0 0 1 1450.23 325.25
  L 1285.25 325.25
  A 0.50 0.50 0.0 0 1 1284.75 324.75
  L 1284.75 284.50
  A 0.50 0.50 0.0 0 1 1285.25 284.00
  L 1393.29 284.00
  A 0.32 0.31 -9.7 0 0 1393.59 283.58
  Q 1359.21 181.32 1324.72 79.01
  C 1318.87 61.67 1296.19 57.08 1284.76 71.60
  Q 1282.14 74.93 1279.49 82.60
  Q 1237.71 203.64 1196.05 324.72
  A 0.69 0.68 -80.5 0 1 1195.40 325.19
  Q 1111.75 325.31 1027.99 325.20
  C 987.71 325.14 953.84 297.70 946.34 258.10
  Q 945.01 251.07 945.01 238.19
  Q 945.02 178.47 944.96 118.75
  Q 944.95 105.91 946.16 98.82
  C 951.96 64.79 978.21 37.29 1012.89 31.41
  Q 1019.56 30.28 1032.82 30.27
  Q 1097.78 30.22 1162.74 30.27
  A 0.51 0.51 0.0 0 1 1163.25 30.78
  L 1163.25 71.01
  A 0.49 0.48 -90.0 0 1 1162.77 71.50
  Q 1098.15 71.51 1033.40 71.50
  Q 1022.50 71.49 1017.23 72.93
  C 1003.54 76.65 992.45 87.72 988.64 101.46
  Q 987.27 106.41 987.27 115.80
  Q 987.23 176.57 987.25 237.34
  Q 987.26 248.69 988.71 254.01
  C 992.42 267.60 1003.43 278.73 1017.05 282.49
  Q 1022.35 283.96 1033.73 283.98
  Q 1077.74 284.05 1121.75 283.96
  A 0.50 0.50 0.0 0 0 1122.25 283.46
  L 1122.25 173.50
  A 0.50 0.50 0.0 0 0 1121.75 173.00
  Z"
/>
<path d="
  M 460.33 113.77
  C 466.12 71.19 498.87 37.73 541.37 31.34
  Q 548.32 30.30 561.32 30.28
  Q 624.00 30.20 686.74 30.28
  A 0.51 0.51 0.0 0 1 687.25 30.79
  L 687.25 71.01
  A 0.49 0.48 -90.0 0 1 686.77 71.50
  Q 625.00 71.50 563.10 71.50
  Q 550.51 71.50 544.52 72.90
  C 523.27 77.88 507.19 95.15 502.64 116.17
  C 496.34 145.34 516.67 174.53 545.03 180.91
  Q 550.75 182.19 562.21 182.23
  Q 575.85 182.27 589.50 182.27
  C 608.32 182.27 625.28 192.92 632.87 210.02
  C 644.35 235.89 629.48 266.29 602.04 273.36
  Q 596.73 274.73 586.71 274.74
  Q 523.24 274.78 459.76 274.73
  A 0.51 0.51 0.0 0 1 459.25 274.22
  L 459.25 234.29
  A 0.52 0.52 0.0 0 1 459.77 233.77
  Q 524.51 233.74 589.22 233.75
  C 596.50 233.75 596.87 223.53 587.92 223.51
  Q 571.71 223.48 555.51 223.30
  C 496.87 222.66 452.37 172.28 460.33 113.77
  Z"
/>
<path d="
  M 749.45 253.68
  C 753.15 267.53 764.31 278.85 778.18 282.60
  Q 783.29 283.98 793.07 283.98
  Q 861.04 284.02 928.99 283.99
  A 0.51 0.51 0.0 0 1 929.50 284.50
  L 929.50 324.72
  A 0.51 0.51 0.0 0 1 928.99 325.23
  Q 859.48 325.28 790.01 325.25
  C 749.76 325.23 715.90 297.77 708.32 258.25
  Q 707.01 251.39 707.00 239.54
  Q 706.98 178.04 707.02 116.56
  Q 707.03 103.64 708.36 96.67
  C 714.75 63.18 741.51 37.28 774.88 31.47
  Q 781.82 30.26 794.80 30.25
  Q 861.90 30.23 928.99 30.27
  A 0.51 0.51 0.0 0 1 929.50 30.78
  L 929.50 70.97
  A 0.51 0.51 0.0 0 1 928.99 71.48
  Q 861.43 71.52 793.90 71.49
  Q 783.93 71.49 779.20 72.64
  C 764.93 76.10 753.29 87.49 749.51 101.51
  Q 748.03 107.03 748.02 119.25
  Q 747.97 178.40 748.02 237.56
  Q 748.03 248.35 749.45 253.68
  Z"
/>
<path d="
  M 1283.75 239.80
  A 0.17 0.17 0.0 0 0 1283.42 239.75
  L 1254.72 324.74
  A 0.75 0.75 0.0 0 1 1254.01 325.25
  L 1206.80 325.25
  A 0.55 0.55 0.0 0 1 1206.28 324.52
  Q 1248.37 201.73 1290.20 80.03
  Q 1290.88 78.06 1295.35 74.90
  C 1303.31 69.27 1312.30 73.04 1315.30 81.86
  Q 1347.97 178.11 1380.39 274.46
  A 0.22 0.22 0.0 0 1 1380.18 274.75
  L 1284.25 274.75
  A 0.50 0.50 0.0 0 1 1283.75 274.25
  L 1283.75 239.80
  Z
  M 1287.37 227.91
  A 0.34 0.34 0.0 0 0 1287.69 228.36
  L 1314.68 228.64
  A 0.34 0.34 0.0 0 0 1315.01 228.20
  L 1301.93 188.08
  A 0.34 0.34 0.0 0 0 1301.29 188.08
  L 1287.37 227.91
  Z"
/>
<path d="
  M 514.69 147.24
  C 501.56 120.92 516.31 89.37 544.57 82.05
  Q 550.39 80.55 563.72 80.53
  Q 625.20 80.46 686.74 80.53
  A 0.51 0.51 0.0 0 1 687.25 81.04
  L 687.25 122.26
  A 0.49 0.48 -90.0 0 1 686.77 122.75
  Q 622.79 122.76 558.66 122.75
  C 549.36 122.74 550.26 131.96 557.74 131.98
  Q 575.12 132.02 592.50 131.99
  C 622.55 131.94 651.93 148.15 669.28 172.40
  C 711.40 231.26 675.88 313.80 604.13 324.22
  Q 597.27 325.22 584.17 325.23
  Q 521.98 325.28 459.70 325.24
  A 0.45 0.45 0.0 0 1 459.25 324.79
  L 459.25 284.46
  A 0.44 0.44 0.0 0 1 459.69 284.02
  Q 522.28 283.95 584.95 284.04
  C 607.24 284.07 625.48 275.96 637.01 256.67
  C 657.07 223.12 636.99 181.76 599.66 174.26
  C 588.04 171.93 571.77 172.97 558.45 173.05
  C 539.21 173.17 523.17 164.25 514.69 147.24
  Z"
/>
<path d="
  M 757.30 112.00
  C 757.33 98.13 766.00 85.77 779.41 81.86
  Q 783.95 80.54 795.35 80.53
  Q 861.67 80.47 928.01 80.51
  A 0.50 0.49 90.0 0 1 928.50 81.01
  L 928.50 122.22
  A 0.52 0.51 90.0 0 1 927.99 122.74
  Q 869.16 122.75 810.37 122.76
  C 803.98 122.76 799.96 124.48 798.48 130.80
  A 0.98 0.98 0.0 0 0 799.43 132.00
  L 899.50 132.00
  A 0.50 0.50 0.0 0 1 900.00 132.50
  L 900.00 172.75
  A 0.50 0.50 0.0 0 1 899.50 173.25
  L 757.71 173.25
  A 0.45 0.45 0.0 0 1 757.26 172.80
  Q 757.24 142.45 757.30 112.00
  Z"
/>
<path d="
  M 1070.25 223.50
  L 1047.25 223.50
  A 0.50 0.50 0.0 0 1 1046.75 223.00
  L 1046.75 182.75
  A 0.50 0.50 0.0 0 1 1047.25 182.25
  L 1111.50 182.25
  A 0.50 0.50 0.0 0 1 1112.00 182.75
  L 1112.00 274.47
  A 0.50 0.50 0.0 0 1 1111.50 274.97
  Q 1074.37 275.00 1037.30 275.02
  Q 1023.47 275.03 1017.88 273.49
  C 1001.11 268.86 995.19 255.23 995.22 238.75
  Q 995.31 178.66 995.21 118.56
  Q 995.20 108.63 996.57 103.59
  Q 1001.21 86.53 1018.30 81.84
  Q 1023.28 80.48 1032.86 80.48
  Q 1097.92 80.52 1162.99 80.49
  A 0.51 0.51 0.0 0 1 1163.50 81.00
  L 1163.50 121.22
  A 0.51 0.51 0.0 0 1 1162.99 121.73
  Q 1106.77 121.77 1050.58 121.74
  C 1040.66 121.74 1037.49 124.76 1037.49 134.39
  Q 1037.51 176.98 1037.50 219.58
  C 1037.50 228.71 1040.13 232.64 1049.35 232.72
  Q 1059.79 232.81 1070.24 232.72
  A 0.52 0.51 -0.6 0 0 1070.75 232.21
  L 1070.75 224.00
  A 0.50 0.50 0.0 0 0 1070.25 223.50
  Z"
/>
<path d="
  M 789.26 275.98
  C 775.34 275.98 763.09 267.77 758.80 254.52
  Q 757.31 249.90 757.28 239.67
  Q 757.20 211.72 757.27 183.74
  A 0.49 0.48 -90.0 0 1 757.75 183.25
  L 899.50 183.25
  A 0.50 0.50 0.0 0 1 900.00 183.75
  L 900.00 224.00
  A 0.50 0.50 0.0 0 1 899.50 224.50
  L 799.95 224.50
  Q 797.83 224.50 798.57 226.49
  C 801.09 233.24 805.28 234.76 812.51 234.76
  Q 870.75 234.73 928.98 234.77
  A 0.52 0.51 -0.0 0 1 929.50 235.28
  L 929.50 275.51
  A 0.48 0.48 0.0 0 1 929.02 275.99
  Q 859.22 276.02 789.26 275.98
  Z"
/>
</g>
</svg>
