<?xml version='1.0' encoding='utf-8'?>
<svg xmlns:xlink="http://www.w3.org/1999/xlink" xmlns="http://www.w3.org/2000/svg" id="Layer_2" data-name="Layer 2" viewBox="0 0 1555.7338 658.62076" version="1.1" xml:space="preserve" width="600" height="254.01032528763437">
    <defs id="defs1">
        <linearGradient id="linearGradient59">
            <stop style="stop-color:#ffe900;stop-opacity:1" offset="0" id="stop59"/>
            <stop style="stop-color:#e26302;stop-opacity:1" offset="1" id="stop60"/>
        </linearGradient>
        <linearGradient id="linearGradient57">
            <stop style="stop-color:#ffe900;stop-opacity:1" offset="0.37566558" id="stop57"/>
            <stop style="stop-color:#cd6516;stop-opacity:1" offset="1" id="stop58"/>
        </linearGradient>
        <linearGradient id="linearGradient55">
            <stop style="stop-color:#ffe900;stop-opacity:1" offset="0" id="stop55"/>
            <stop style="stop-color:#ee940e;stop-opacity:1" offset="1" id="stop56"/>
        </linearGradient>
        <linearGradient id="linearGradient51">
            <stop style="stop-color:#ffe900;stop-opacity:1" offset="0" id="stop51"/>
            <stop style="stop-color:#ee940e;stop-opacity:1" offset="1" id="stop52"/>
        </linearGradient>
        <linearGradient id="linearGradient48">
            <stop style="stop-color:#ffe900;stop-opacity:1" offset="0.44764772" id="stop48"/>
            <stop style="stop-color:#e15d02;stop-opacity:1" offset="1" id="stop49"/>
        </linearGradient>
        <linearGradient id="linearGradient45">
            <stop style="stop-color:#072a86;stop-opacity:1" offset="0" id="stop46"/>
            <stop style="stop-color:#121e7d;stop-opacity:1" offset="1" id="stop47"/>
        </linearGradient>
        <linearGradient id="linearGradient44">
            <stop style="stop-color:#032e89;stop-opacity:1" offset="0" id="stop44"/>
            <stop style="stop-color:#191778;stop-opacity:1" offset="1" id="stop45"/>
        </linearGradient>
        <linearGradient id="linearGradient41">
            <stop style="stop-color:#feef39;stop-opacity:1" offset="0" id="stop42"/>
            <stop style="stop-color:#ea8004;stop-opacity:1" offset="1" id="stop43"/>
        </linearGradient>
        <linearGradient id="linearGradient33">
            <stop style="stop-color:#797979;stop-opacity:1" offset="0" id="stop33"/>
            <stop style="stop-color:#adadad;stop-opacity:1" offset="0.34252581" id="stop35"/>
            <stop style="stop-color:#e5e5e5;stop-opacity:1" offset="0.51213104" id="stop38"/>
            <stop style="stop-color:#cacaca;stop-opacity:1" offset="0.52778924" id="stop41"/>
            <stop style="stop-color:#cdcdcd;stop-opacity:1" offset="0.58030248" id="stop40"/>
            <stop style="stop-color:#d4d4d4;stop-opacity:1" offset="0.67260957" id="stop39"/>
            <stop style="stop-color:#e1e1e1;stop-opacity:1" offset="0.76207465" id="stop36"/>
            <stop style="stop-color:#7f7f7f;stop-opacity:1" offset="0.92134488" id="stop37"/>
            <stop style="stop-color:#646665;stop-opacity:1" offset="1" id="stop34"/>
        </linearGradient>
        <linearGradient id="linearGradient31">
            <stop style="stop-color:#ffe900;stop-opacity:1" offset="0" id="stop31"/>
            <stop style="stop-color:#f8b501;stop-opacity:1" offset="1" id="stop32"/>
        </linearGradient>
        <linearGradient id="linearGradient29">
            <stop style="stop-color:#fff101;stop-opacity:1" offset="0" id="stop29"/>
            <stop style="stop-color:#fbc400;stop-opacity:1" offset="1" id="stop30"/>
        </linearGradient>
        <linearGradient id="linearGradient27">
            <stop style="stop-color:#fff003;stop-opacity:1" offset="0" id="stop27"/>
            <stop style="stop-color:#fac000;stop-opacity:1" offset="1" id="stop28"/>
        </linearGradient>
        <linearGradient id="linearGradient25">
            <stop style="stop-color:#ffe204;stop-opacity:1" offset="0" id="stop25"/>
            <stop style="stop-color:#f9c500;stop-opacity:1" offset="1" id="stop26"/>
        </linearGradient>
        <linearGradient id="linearGradient23">
            <stop style="stop-color:#feef02;stop-opacity:1" offset="0" id="stop23"/>
            <stop style="stop-color:#fac000;stop-opacity:1" offset="1" id="stop24"/>
        </linearGradient>
        <style id="style1">
      .cls-1 {
        fill: #022e85;
      }

      .cls-2 {
        fill: #fdca01;
      }
    </style>
        <linearGradient xlink:href="#linearGradient23" id="linearGradient24" x1="299.12863" y1="58.588253" x2="333.39279" y2="548.58881" gradientUnits="userSpaceOnUse" gradientTransform="translate(21.847776,24.098284)"/>
        <linearGradient xlink:href="#linearGradient25" id="linearGradient26" x1="517.23022" y1="319.10004" x2="571.55688" y2="468.36127" gradientUnits="userSpaceOnUse" gradientTransform="matrix(0.73264462,0,-0.04614264,0.86796756,194.65675,78.14445)"/>
        <linearGradient xlink:href="#linearGradient29" id="linearGradient30" x1="984.80255" y1="115.85527" x2="918.41809" y2="428.16956" gradientUnits="userSpaceOnUse" gradientTransform="translate(21.847776,24.098284)"/>
        <linearGradient xlink:href="#linearGradient31" id="linearGradient32" x1="1283.7063" y1="163.34608" x2="1220.293" y2="522.98053" gradientUnits="userSpaceOnUse" gradientTransform="translate(21.847776,24.098284)"/>
        <linearGradient xlink:href="#linearGradient33" id="linearGradient34" x1="787.12842" y1="595.85876" x2="762.81171" y2="1388.986" gradientUnits="userSpaceOnUse" spreadMethod="reflect" gradientTransform="translate(105.83307,-761.22272)"/>
        <linearGradient xlink:href="#linearGradient41" id="linearGradient43" x1="-314.40182" y1="7.692431" x2="-482.40109" y2="469.26666" gradientUnits="userSpaceOnUse" gradientTransform="translate(736.63622,86.852306)"/>
        <radialGradient xlink:href="#linearGradient44" id="radialGradient45" cx="774.60962" cy="328.2413" fx="774.60962" fy="328.2413" r="722.96478" gradientTransform="matrix(1,0,0,0.37965804,2.7121553e-8,203.62185)" gradientUnits="userSpaceOnUse"/>
        <linearGradient xlink:href="#linearGradient45" id="linearGradient47" x1="621.37201" y1="342.15729" x2="517.41785" y2="502.23267" gradientUnits="userSpaceOnUse" gradientTransform="translate(0.3902569,10.121342)"/>
        <linearGradient xlink:href="#linearGradient48" id="linearGradient49" x1="334.72458" y1="811.59918" x2="393.41138" y2="913.24774" gradientUnits="userSpaceOnUse" gradientTransform="translate(250.20459,-623.23689)"/>
        <linearGradient xlink:href="#linearGradient51" id="linearGradient52" x1="690.48712" y1="789.90155" x2="746.59937" y2="900.02789" gradientUnits="userSpaceOnUse" gradientTransform="translate(-141.8171,-425.31432)"/>
        <linearGradient xlink:href="#linearGradient27" id="linearGradient54" gradientUnits="userSpaceOnUse" gradientTransform="translate(-129.01646,486.40066)" x1="751.1687" y1="203.59476" x2="760.29535" y2="464.94815"/>
        <linearGradient xlink:href="#linearGradient55" id="linearGradient56" x1="588.34131" y1="695.15149" x2="665.09247" y2="946.19336" gradientUnits="userSpaceOnUse"/>
        <linearGradient xlink:href="#linearGradient57" id="linearGradient58" x1="933.06854" y1="133.93559" x2="1013.9396" y2="458.2916" gradientUnits="userSpaceOnUse"/>
        <linearGradient xlink:href="#linearGradient59" id="linearGradient60" x1="1175.8818" y1="204.29358" x2="1371.7275" y2="530.23566" gradientUnits="userSpaceOnUse"/>
    </defs>
    <path style="baseline-shift:baseline;display:inline;overflow:visible;vector-effect:none;fill:url(#linearGradient34);stroke-linecap:round;stroke-linejoin:round;paint-order:markers stroke fill;enable-background:accumulate;stop-color:#000000" d="m 542.74655,0.00521847 a 25.0025,25.0025 0 0 0 -0.008,0.002 C 503.64185,-0.36576213 461.85395,13.712607 422.8655,42.860727 l -37.9375,28.35938 c -1.27399,-1.50671 -2.52045,-3.02362 -3.88867,-4.49414 -25.16742,-27.04915 -63.72158,-43.77539 -108.63086,-43.77539 -46.38423,0 -87.53155,17.97082 -119.01953,42.43359 C 122.19952,89.615007 97.69415,121.2883 88.09011,158.808 a 25.0025,25.0025 0 0 0 -0.006,0.01 L 4.9356729,483.77698 c -12.0823005,47.2208 -1.575541,94.4741 27.0644541,127.127 28.09402,32.0306 69.304113,47.7168 111.146483,47.7168 63.01792,0 128.93876,-31.4649 165.125,-90.4824 21.65684,23.8053 51.53719,46.0691 91.73828,50.9062 33.51637,4.0378 66.74611,-1.6434 95.93165,-15.3281 41.0172,16.082 89.47328,10.9656 130.36328,-14.3281 30.73715,14.4172 65.07737,16.1826 95.77539,8.2539 20.89634,-5.3972 40.70394,-14.9184 58.125,-28.041 14.39346,9.4115 30.25133,15.8508 46.60547,18.8437 31.70391,5.802 63.81994,0.8859 91.84765,-12.7676 26.94483,3.2745 56.19776,1.6237 85.98437,-5.5136 1.0084,3.1794 2.1411,6.3583 3.4375,9.5234 19.0959,46.6199 69.7549,78.9121 133.0274,78.9121 117.7387,0 198.3414,-68.7575 248.2989,-148.6758 l 136.3477,-218.1133 a 25.0025,25.0025 0 0 0 0,-0.01 c 3.2024,-5.1168 19.1177,-26.7668 26.5235,-55.72268 v -0.01 c 4.0424,-15.7482 3.4219,-27.7212 3.4219,-33.2989 0,-82.0542 -76.1334,-139.805473 -153.916,-130.193333 -35.6744,4.40776 -66.0027,20.054392 -89.1407,40.699233 -32.6797,-24.923183 -77.2009,-34.500433 -121.1308,-23.414083 a 25.0025,25.0025 0 0 0 -0.016,0.008 c -23.4517,5.918312 -43.6768,16.179683 -60.1524,29.187483 -12.9313,-6.5849 -28.2564,-12.43415 -45.7344,-16.26756 -5.633,-23.916313 -17.7247,-45.939803 -35.8164,-62.912113 C 1016.246,8.4050185 965.96217,-2.994722 916.4452,10.866457 865.75987,25.050037 818.41216,66.990227 801.78114,131.9856 a 25.0025,25.0025 0 0 0 -0.002,0 c -8.4e-4,0 -10e-4,0.01 -0.002,0.01 l -0.87304,3.4121 c -19.18594,-5.4102 -45.10449,-8.9585 -73.98633,-2.4473 -12.30303,-11.5153 -28.58291,-21.7113 -48.3711,-28.20699 C 668.86739,67.256387 643.8789,34.624707 608.4412,16.060047 588.65291,5.6935985 566.20002,0.22640847 542.74003,0.00145847 Z M 542.27194,50.001307 c 16.04593,0.15474 30.51898,3.82748 42.97266,10.35156 25.9812,13.61071 43.2842,39.176882 47.01367,67.709033 a 25.0025,25.0025 0 0 0 19.91602,21.2792 c 19.11556,3.7992 33.90956,13.1882 42.48242,21.8633 1.70899,1.7294 3.33078,3.5909 5.01172,5.668 a 25.0025,25.0025 0 0 0 27.72265,7.8594 c 27.36788,-9.6172 52.18887,-4.3894 67.875,1.2832 a 25.0025,25.0025 0 0 0 19.53907,-1.0781 c 5.32769,-2.6216 10.38798,-4.6279 14.70898,-6.0567 a 25.0025,25.0025 0 0 0 16.36914,-17.5371 l 4.33789,-16.9453 a 25.0025,25.0025 0 0 0 0.004,-0.01 c 12.33219,-48.210441 45.4951,-75.801423 79.70117,-85.373063 a 25.0025,25.0025 0 0 0 0.004,-0.002 c 34.33303,-9.61077 65.94927,-1.16517 85.66017,17.32617 13.3435,12.51797 21.7388,30.330033 23.4023,50.124993 a 25.0025,25.0025 0 0 0 22.0039,22.7363 c 25.7314,3.0136 45.7758,12.2887 60.0899,21.5293 a 25.0025,25.0025 0 0 0 31.6231,-3.7207 c 11.9451,-12.4851 28.7515,-23.047 51.0488,-28.6699 0,-3e-4 0,0 0,0 36.0387,-9.091 71.1409,3.1297 90.7246,26.1582 a 25.0025,25.0025 0 0 0 38.4766,-0.4668 c 16.7008,-20.6315 42.8848,-37.8714 74.959,-41.834 50.0549,-6.1856 97.7832,29.5411 97.7832,80.5723 0,8.6254 0.6767,11.0181 -1.8535,20.8711 a 25.0025,25.0025 0 0 0 -0.01,0.029 c -4.6987,18.38948 -14.2339,31.62928 -20.4863,41.62498 a 25.0025,25.0025 0 0 0 -3.8047,13.2578 v -7.166 l -132.5469,212.0332 c -44.3613,70.9661 -107.0907,125.1797 -205.9004,125.1797 -46.658,0 -76.3683,-22.5008 -86.7578,-47.8652 -3.1762,-7.7541 -4.9405,-15.8058 -5.6387,-24.2344 a 25.0025,25.0025 0 0 0 -33.2266,-21.5137 c -34.63336,12.2093 -69.15017,14.8344 -97.24217,10.2598 a 25.0025,25.0025 0 0 0 -16.26758,2.8828 c -19.76669,11.1107 -43.22256,15.3312 -66.16406,11.1328 -13.68309,-2.5041 -27.89219,-9.4408 -39.43164,-20.1797 a 25.0025,25.0025 0 0 0 -34.60743,0.5215 c -14.52947,14.3634 -32.84553,24.6312 -52.19531,29.6289 -23.48069,6.0647 -50.37283,3.2544 -71.32422,-10.1152 a 25.0025,25.0025 0 0 0 -28.66797,1.2402 c -33.13328,25.4248 -74.16914,28.3997 -102.91015,13.4942 a 25.0025,25.0025 0 0 0 -23.78711,0.416 c -22.49547,12.6819 -49.6003,18.4251 -76.89649,15.1367 a 25.0025,25.0025 0 0 0 -0.004,0 c -26.68855,-3.2101 -45.93681,-17.7358 -63.26758,-37.6309 a 25.0025,25.0025 0 0 0 -0.002,0 l -21.82422,-25.0507 a 25.0025,25.0025 0 0 0 -42.53516,8.4218 c -20.48629,60.6553 -79.83718,93.4766 -135.21094,93.4766 -29.43078,0 -56.160763,-10.8521 -73.556643,-30.6856 -16.84992,-19.2108 -24.61961,-48.9156 -16.21484,-81.7636 L 131.70343,190.0144 h -19.40625 a 25.0025,25.0025 0 0 0 24.22867,-18.8024 c 6.15752,-24.0628 23.05977,-47.326 47.53906,-66.3438 24.18357,-18.788033 54.95505,-31.917973 88.34375,-31.917973 32.59933,0 57.19763,11.89758 72.02539,27.833983 5.03764,5.41429 9.08348,11.33379 12.44727,17.72269 a 25.0025,25.0025 0 0 0 37.08984,8.3769 l 58.83203,-43.976543 c 31.48478,-23.53831 62.71462,-33.16078 89.46289,-32.9043 a 25.0025,25.0025 0 0 0 0.006,-0.002 z" id="path33"/>
    <path style="baseline-shift:baseline;display:inline;overflow:visible;opacity:1;vector-effect:none;fill:#ffffff;stroke-linecap:round;stroke-linejoin:round;paint-order:markers stroke fill;enable-background:accumulate;stop-color:#000000;stop-opacity:1" d="M 539.37296,24.104423 C 506.44936,23.788726 469.93898,35.639158 434.70108,61.98333 l -58.83203,43.97656 C 371.60912,97.868949 366.30147,90.053271 359.60342,82.854423 339.60583,61.361646 308.0296,47.049736 269.2753,47.049736 c -39.88647,0 -75.84587,15.550375 -103.68164,37.175781 -27.83578,21.625403 -48.54203,49.095223 -56.42188,79.888673 a 30.003,30.003 0 0 0 -0.002,0 L 26.021391,489.07317 a 30.003,30.003 0 0 0 0,0.002 c -10.243529,40.0344 -1.104331,78.51337 21.640625,104.44532 22.744956,25.93194 56.714974,39.20117 92.351564,39.20117 65.25743,0 134.65364,-38.69897 158.89648,-110.47657 l 21.82422,25.05079 c 19.60027,22.50036 44.69207,41.88676 79.13282,46.02929 32.6484,3.93318 65.02487,-2.87989 92.16406,-18.17968 38.28337,19.85437 89.39333,15.02869 129.63867,-15.85352 27.57106,17.5938 61.39657,20.89868 91.02539,13.24609 23.63688,-6.10498 45.78644,-18.52433 63.51953,-36.05468 15.02103,13.9789 33.38584,23.071 51.96289,26.4707 28.80799,5.27201 58.15009,-0.0115 82.91407,-13.93164 32.69791,5.32476 71.14812,2.18811 109.57229,-11.35742 0.8785,10.60518 3.1598,21.2508 7.4179,31.64648 14.7427,35.99213 54.9274,63.38867 109.8926,63.38867 108.2742,0 179.9402,-61.4855 227.0996,-136.92773 v 0 l 136.3477,-218.11328 v -0.006 c 4.7237,-7.55175 17.4597,-25.00756 23.5117,-48.69336 3.2878,-12.80314 2.6387,-19.98773 2.6387,-27.08985 0,-66.54273 -61.9308,-113.281696 -125.8496,-105.382801 -39.1164,4.832581 -70.8841,25.665131 -91.3242,50.916011 -26.1653,-30.76783 -71.0249,-45.52516 -115.8965,-34.20117 h 0.01 c -26.6648,6.72425 -47.7731,19.71167 -63,35.62695 -16.8794,-10.89668 -40.5941,-21.82478 -70.7405,-25.35537 -2.1481,-25.561411 -13.0766,-49.251378 -31.2109,-66.263678 C 1002.9316,32.228617 961.98155,22.305941 920.05655,34.041923 877.6087,45.919789 837.3511,80.688574 822.871,137.29583 v -0.006 l -4.33984,16.95508 c -5.40337,1.78669 -11.49218,4.21003 -17.89649,7.36132 -19.08319,-6.90102 -50.19174,-13.47373 -84.66601,-1.35937 -2.03243,-2.51145 -4.2111,-5.03143 -6.66406,-7.51367 C 697.15012,140.43376 678.16416,128.74242 653.91397,123.92278 649.14555,87.442277 627.02846,54.762493 593.7128,37.309501 577.59104,28.863835 559.12711,24.293841 539.37296,24.104423 Z m -1.38477,59.330078 c 10.85219,0.192233 20.14043,2.968479 27.88086,7.023438 20.64114,10.813221 32.13317,32.962541 28.43359,56.666021 a 30.003,30.003 0 0 0 31.70508,34.55468 c 23.29718,-1.60645 33.21122,5.73216 40.61914,13.22851 7.40793,7.49636 9.5,13.80664 9.5,13.80664 a 30.003,30.003 0 0 0 45.05469,15.42579 c 40.18372,-26.73144 64.5,-4.67578 64.5,-4.67579 a 30.003,30.003 0 0 0 34.00391,0.16602 c 9.77451,-6.65391 28.91992,-11.28906 28.91992,-11.28906 a 30.003,30.003 0 0 0 23.66211,-22.07031 l 8.73047,-34.09961 a 30.003,30.003 0 0 0 0,-0.006 c 9.77943,-38.23091 30.19984,-53.340521 55.23046,-60.343751 a 30.003,30.003 0 0 0 0.004,-0.002 c 24.735,-6.924018 41.53123,-0.930835 52.27734,9.150391 10.74614,10.08123 16.17074,25.01213 11.24024,44.28516 a 30.003,30.003 0 0 0 31.4297,37.34179 c 62.0884,-4.91002 82.6796,27.73047 82.6796,27.73047 a 30.003,30.003 0 0 0 51.5254,-6.08594 c 1.8179,-4.19827 22.3712,-27.45875 43.795,-32.86133 a 30.003,30.003 0 0 0 0.01,-0.002 c 37.3193,-9.41806 59.8029,6.44874 63.8301,32.90625 a 30.003,30.003 0 0 0 0,0.0117 l 1.7911,11.73046 a 30.003,30.003 0 0 0 55.0957,11.375 l 22.039,-35.25976 a 30.003,30.003 0 0 0 0.018,-0.0566 c 7.8181,-12.461 34.7834,-33.29142 57.1211,-36.05078 32.7011,-4.0411 58.4902,15.51868 58.4902,45.83593 0,2.85149 -1.7117,15.90449 -0.7539,12.17969 a 30.003,30.003 0 0 0 -0.014,0.0488 c -2.5687,10.06016 -9.8605,21.51541 -16.2578,31.74414 a 30.003,30.003 0 0 0 0,0.006 l -136.3496,218.11914 a 30.003,30.003 0 0 0 0,0.002 c -41.2806,66.03777 -89.2949,108.73047 -176.2207,108.73047 -37.9549,0 -48.6294,-12.11798 -54.3692,-26.13086 -5.7398,-14.01287 -2.5222,-35.41329 6.0313,-47.96679 a 30.003,30.003 0 0 0 -41.8476,-41.57227 c -46.4644,32.11061 -104.9947,38.58741 -135.4473,31.13867 a 30.003,30.003 0 0 0 -24.67579,4.81055 c -12.61755,9.10061 -32.76178,13.86761 -48.6875,10.95312 -15.92571,-2.91448 -27.13398,-9.82344 -33.63671,-29.38476 a 30.003,30.003 0 0 0 -55.85938,-2.77149 c -9.16926,20.52952 -30.29173,37.11509 -51.79102,42.66797 -21.49928,5.55288 -39.94652,2.0129 -53.88476,-14.61523 a 30.003,30.003 0 0 0 -45.76953,-0.25391 c -27.86037,32.50011 -73.56734,28.19283 -86.03906,17.17383 a 30.003,30.003 0 0 0 -38.5918,-0.95508 c -16.26943,13.00152 -42.35225,20.85552 -66.36328,17.96289 a 30.003,30.003 0 0 0 -0.008,-0.002 c -19.45605,-2.33906 -24.84199,-7.25086 -41.06054,-25.86914 a 30.003,30.003 0 0 0 0,-0.002 l -58.90039,-67.60938 a 30.003,30.003 0 0 0 -51.6836,12.27149 l -11.03125,43.12109 c -12.91957,50.45997 -60.22653,77.05469 -104.3457,77.05469 -20.79342,0 -37.5166,-7.67312 -47.24414,-18.76367 -9.727283,-11.09026 -14.836788,-25.71535 -8.621096,-50.00977 v -0.002 L 167.29874,178.98723 c 3.30015,-12.89655 16.18124,-32.67681 35.10547,-47.3789 18.92422,-14.70209 42.89756,-24.55859 66.87109,-24.55859 25.1057,0 37.84299,7.47856 46.40039,16.67578 8.5574,9.19722 12.80029,22.0659 13.05664,33.19531 a 30.003,30.003 0 0 0 47.95313,23.33789 l 93.9414,-70.21875 a 30.003,30.003 0 0 0 0,-0.002 c 26.84335,-20.068329 49.27435,-26.923903 67.36133,-26.603516 z" id="path10"/>
    <path style="baseline-shift:baseline;display:inline;overflow:visible;opacity:1;vector-effect:none;fill:url(#radialGradient45);stroke-linecap:round;stroke-linejoin:round;paint-order:markers stroke fill;enable-background:accumulate;stop-color:#000000;stop-opacity:1" d="m 1326.5044,176.24067 -22.04,35.26 -1.79,-11.73 c -6.67,-43.82 -50.07,-70.29 -100.83,-57.48 -32.16,8.11 -56.72,33.24 -63.99,50.03 0,0 -34.18,-45.55 -109.04,-39.63 14.82,-57.930001 -34.01,-108.419997 -100.66996,-89.759997 -33.74,9.44 -64.08,34.379996 -76.21,81.799997 l -8.73,34.1 c 0,0 -23.11,4.23 -40.4,16 0,0 -44.86,-31.18 -98.24,4.33 0,0 -17.39,-51.77 -80.62,-47.41 11.3,-72.399997 -71.95,-139.999997 -171.28,-65.739997 l -93.94,70.219997 c -0.82,-35.6 -25.59,-79.179997 -89.45,-79.179997 -63.86,0 -119.86,50.809997 -131.04,94.499997 l -83.150002,324.96 c -16.46,64.33 28.5,106.21 84.930002,106.21 56.43,0 116.8,-34.73 133.41,-99.62 l 11.03,-43.12 58.9,67.61 c 17.91,20.56 33.15,32.71 60.1,35.95 32.29,3.89 65.48,-5.77 88.68,-24.31 28.76,25.41 90.55,24.35 128.68,-20.13 43.63,52.05 129.36,24.69 156.06,-35.09 19.59,58.93 88.84,61.79 128.34,33.3 41.21,10.08 105.69996,1.67 159.62996,-35.6 -28.59,41.96 -19.79,120.99 73.13,120.99 97.6,0 157.44,-52.09 201.66,-122.83 l 136.35,-218.12 c 5.56,-8.89 15.58,-23.35 19.89,-40.23 1.17,-4.55 1.7,-14.67 1.7,-19.65 0,-48.43 -43.86,-81.58 -92.17,-75.61 -34,4.2 -65.38,28.32 -78.91,49.96 z" id="path11"/>
    <path class="cls-2" d="m 1156.4145,473.69743 c 3.82,0 8.52,1.14 12.97,0.83 13.13,-0.91 32.49,-11.25 28.19,-36.48 l -29.13,-191.07 c -5.68,-37.26 25.03,-58.38 49.99,-62.87 26.99,-4.86 40.97,7.99 44.3,29.85 l 17.77,116.67 80.07,-128.09 c 10.59,-16.95 28.85,-31.35 52.88,-32.73 38.68,-2.21999 53.31,32.34 35.41,60.96 l -144.12,230.55 c -52.43,83.88 -105.05,103.5 -169.68,103.5 -51.3,0 -49.84,-37.2 -34.3,-59.54 12.02,-17.28 32.07,-31.61 55.63,-31.57 z" id="path2" style="fill:url(#linearGradient32);stroke:url(#linearGradient60);stroke-width:15;stroke-linecap:round;stroke-linejoin:round;stroke-dasharray:none;stroke-opacity:1;paint-order:markers stroke fill"/>
    <g id="path3" class="cls-2" style="opacity:1">
        <path style="baseline-shift:baseline;display:inline;overflow:visible;vector-effect:none;fill:url(#linearGradient58);stroke-linecap:round;stroke-linejoin:round;paint-order:markers stroke fill;enable-background:accumulate;stop-color:#000000;stop-opacity:1" d="m 955.86133,92.001953 c -2.10169,-0.05142 -4.26614,-5.19e-4 -6.49024,0.154297 -28.31671,1.971785 -56.62585,24.98085 -63.84375,53.0957 l -77.16015,300.48047 c -4.32711,16.83266 -1.51483,31.54857 7.09765,41.35156 8.61281,9.80337 22.07675,14.02165 36.50782,13.01563 16.9833,-1.18302 32.60559,-7.81698 46.42187,-20.9375 27.02558,12.26049 63.72297,9.57644 102.10747,-3.94141 43.8624,-15.43441 84.3711,-46.49003 111.1015,-92.96289 v 0 c 25.9182,-45.04085 35.0834,-90.41465 25.0879,-126.1875 a 7.50075,7.50075 0 0 0 0,-0.0137 c -11.8498,-42.35715 -47.3081,-70.65665 -95.7442,-71.21875 -17.4169,-0.20301 -39.5049,3.28871 -58.78709,10.45508 l 13.1543,-51.2207 c 3.45748,-13.47002 1.91216,-27.26154 -6.11329,-37.46485 -7.02226,-8.92789 -18.62997,-14.245505 -33.34179,-14.605467 z m -5.44922,15.117187 c 14.38725,-1.00147 22.47795,3.01252 27,8.76172 4.52205,5.7492 5.96747,14.36289 3.375,24.46289 l -16.98047,66.11914 a 7.50075,7.50075 0 0 0 10.7793,8.49023 c 18.4176,-9.77205 47.02976,-15.33854 66.18746,-15.11523 42.8939,0.49778 71.1705,23.46666 81.4668,60.23438 a 7.50075,7.50075 0 0 0 0,0.006 c 8.45,30.20222 0.8573,72.1335 -23.6367,114.69922 -24.9091,43.30631 -62.4213,71.98906 -103.07812,86.29493 a 7.50075,7.50075 0 0 0 -0.002,0.002 c -38.41974,13.53027 -73.82392,14.3688 -95.09766,2.59961 a 7.50075,7.50075 0 0 0 -9.10156,1.43359 c -12.60607,13.44525 -25.08978,18.96153 -40.39062,20.02735 -10.95894,0.76397 -19.30008,-2.37704 -24.19727,-7.95118 -4.89719,-5.57413 -7.30008,-14.2522 -3.83789,-27.71875 a 7.50075,7.50075 0 0 0 0.002,-0.002 l 77.15821,-300.48047 c 5.18211,-20.18514 30.13408,-40.45506 50.35742,-41.86328 z m 35.95508,160.49414 c -0.75444,-0.0632 -1.59033,-0.0439 -2.5293,0.0918 a 7.50075,7.50075 0 0 0 -0.004,0 c -3.78277,0.54939 -5.52045,2.40177 -7.05859,3.98828 -1.53814,1.58651 -2.79721,3.32279 -4.04492,5.24023 -2.49543,3.8349 -4.85417,8.39793 -7.00391,12.89453 -3.1268,6.54035 -5.26087,11.7293 -6.4707,14.73829 -2.9743,1.23597 -8.06434,3.39499 -14.46484,6.51171 -4.41461,2.1497 -8.88462,4.49074 -12.62305,6.92383 -1.86922,1.21655 -3.55511,2.42982 -5.10352,3.91407 -1.54841,1.48424 -3.46094,3.10459 -3.94726,7.09375 a 7.50075,7.50075 0 0 0 -0.002,0.004 c -0.81101,6.68612 2.53321,9.50346 5.30274,12.79297 2.76953,3.28951 6.172,6.48292 9.55469,9.43555 4.18505,3.65298 7.71903,6.4041 10.30078,8.35937 -0.1039,3.44691 -0.19414,8.40722 0.0488,14.61133 0.18708,4.77717 0.55109,9.66335 1.41992,14.01367 0.43441,2.17516 0.96083,4.21265 1.93945,6.29492 0.97863,2.08228 2.49568,4.7785 6.24414,6.13672 a 7.50075,7.50075 0 0 0 0.006,0.002 c 3.83159,1.38446 5.7539,0.42472 7.67773,-0.15821 1.92384,-0.58292 3.75456,-1.38308 5.70508,-2.33203 3.90105,-1.8979 8.19036,-4.41979 12.30469,-6.98047 6.68168,-4.15854 10.66401,-7.00224 12.75391,-8.46289 3.13026,0.79275 8.07157,1.99173 14.50977,3.14063 4.6431,0.82857 9.4593,1.51377 13.877,1.62304 2.2088,0.0546 4.3105,-0.0107 6.5078,-0.45117 2.1972,-0.44049 4.8744,-1.1162 7.2187,-4.01953 a 7.50075,7.50075 0 0 0 0,-0.002 c 2.2573,-2.79737 2.3024,-4.85332 2.5273,-6.84961 0.2249,-1.99629 0.22,-4.00417 0.125,-6.1582 -0.1898,-4.30808 -0.7973,-9.15331 -1.5097,-13.83008 -1.1693,-7.67542 -2.2235,-12.4378 -2.7168,-14.77539 1.3744,-1.96939 4.4584,-6.32103 8.7734,-13.16016 2.5959,-4.11442 5.1511,-8.36891 7.0762,-12.15234 0.9625,-1.89172 1.7727,-3.63736 2.3828,-5.4668 0.6101,-1.82944 1.9974,-3.51957 0.1094,-7.97461 a 7.50075,7.50075 0 0 0 0,-0.004 c -1.6164,-3.80735 -4.2506,-4.92957 -6.2773,-5.80078 -2.0267,-0.8712 -4.0312,-1.3648 -6.1934,-1.7832 -4.3244,-0.8368 -9.2448,-1.25093 -14.0586,-1.50195 -6.3782,-0.33261 -11.443,-0.3326 -14.8828,-0.29883 -1.9515,-2.58006 -4.7337,-6.18006 -8.4121,-10.48828 -2.9038,-3.40106 -6.00315,-6.80917 -9.09183,-9.57813 -1.54434,-1.38448 -3.06096,-2.61842 -4.84375,-3.66992 -1.33709,-0.78863 -2.86363,-1.72254 -5.12695,-1.91211 z m -2.49414,14.83399 c 0.0181,0.0107 0.091,0.0734 0.11132,0.0859 -0.32213,-0.0987 -0.31755,-0.20757 -0.11132,-0.0859 z m 2.16406,1.6914 c 0.12434,0.1074 0.16021,0.1091 0.28906,0.22461 2.19131,1.96448 5.02915,5.0277 7.69531,8.15039 5.33233,6.24539 10.05082,12.70313 10.05082,12.70313 a 7.50075,7.50075 0 0 0 6.2519,3.07812 c 0,0 8.7416,-0.2188 17.6192,0.24414 4.1488,0.21635 8.1718,0.63374 11.207,1.16797 -1.5394,2.97626 -3.7803,6.7767 -6.1504,10.5332 -4.9282,7.81117 -10.1289,15.19727 -10.1289,15.19727 l 0.8164,-0.9707 a 7.50075,7.50075 0 0 0 -2.0254,6.89453 c 0,0 1.8055,8.31221 3.1406,17.07617 0.6676,4.38198 1.2059,8.88401 1.3536,12.23437 0.034,0.77758 -0.014,1.15069 -0.022,1.77149 -0.4045,0.0122 -0.5252,0.0627 -1.0059,0.0508 -3.0486,-0.0754 -7.3775,-0.63935 -11.6094,-1.39453 -8.4637,-1.51036 -16.57223,-3.69336 -16.57223,-3.69336 a 7.50075,7.50075 0 0 0 -6.29102,1.12109 c 0,0 -7.21657,5.10463 -14.96289,9.92578 -3.87316,2.41058 -7.89183,4.74486 -10.94141,6.22852 -0.15014,0.073 -0.19827,0.0758 -0.34375,0.14453 -0.54606,-2.91854 -0.934,-7.02226 -1.09765,-11.20117 -0.34084,-8.70317 0.0723,-17.31055 0.0723,-17.31055 a 7.50075,7.50075 0 0 0 -3.0957,-6.44531 c 0,0 -6.33654,-4.59049 -12.45117,-9.92773 -3.05732,-2.66863 -6.04414,-5.54107 -7.94336,-7.79688 -0.30584,-0.36326 -0.28658,-0.5265 -0.48633,-0.86523 0.37447,-0.26905 0.48952,-0.40971 0.94336,-0.70508 2.79408,-1.81848 6.89741,-4.00821 11.00781,-6.00977 8.2208,-4.00311 16.47266,-7.32812 16.47266,-7.32812 a 7.50075,7.50075 0 0 0 4.19336,-4.2461 c 0,0 3.24829,-8.35157 7.23633,-16.69336 1.99401,-4.17089 4.1912,-8.3359 6.04296,-11.18164 0.30333,-0.46614 0.45681,-0.59187 0.73438,-0.97656 z m 54.67969,21.54492 c 0.073,-0.3073 0.3016,-0.11168 0.1992,0.19532 -0.013,0.0379 -0.078,0.16795 -0.094,0.21093 0,-0.0663 -0.1161,-0.36197 -0.1055,-0.40625 z m -103.22657,27.02735 c -0.18373,0.30288 -0.28077,0.25928 -0.0449,0.0332 0.007,-0.006 0.0379,-0.0265 0.0449,-0.0332 z" id="path58"/>
        <path style="baseline-shift:baseline;display:inline;overflow:visible;vector-effect:none;fill:url(#linearGradient30);stroke-linecap:round;stroke-linejoin:round;paint-order:markers stroke fill;enable-background:accumulate;stop-color:#000000;stop-opacity:1" d="m 1129.4613,258.05743 c 9.23,32.99 0.85,76.65 -24.36,120.46 -25.82,44.89 -64.83,74.76 -107.0901,89.63 -39.63997,13.96 -76.89,15.55 -101.22,2.09 -13.67,14.58 -28.4,21.2 -45.34,22.38 -25.39,1.77 -43.61,-14.72 -35.82,-45.02 l 77.16,-300.47999 c 6.2,-24.15 32.83,-45.79001 57.10003,-47.480011 32.18002,-2.24 44.20997,19.000001 38.16002,42.570011 l -16.98002,66.11999 c 20.10997,-10.67 49.20007,-16.23 69.79007,-15.99 45.67,0.53 77.54,26.17 88.61,65.74 z m -100.46,81.7 c 0,0 21.13,-29.98 19.35,-34.18 -2.42,-5.7 -38.2201,-4.78 -38.2201,-4.78 0,0 -19.34,-26.52 -25.21995,-25.67 -6.61,0.96 -19.88002,35.15 -19.88002,35.15 0,0 -33.73003,13.57 -34.47003,19.64 -0.86,7.09 25.33003,26.03 25.33003,26.03 0,0 -1.73,35.37 4.59,37.66 5.12,1.85 34.50997,-18.96 34.50997,-18.96 0,0 33.3401,9.01 37.6601,3.66 3.72,-4.61 -3.66,-38.54 -3.66,-38.54 z" id="path59"/>
    </g>
    <path class="cls-1" d="m 870.20837,180.42379 c 40.61,-9.65 79.74,22.78999 75.55,69.01999 -2.65,29.28 -18.67,53.31 -51.39,66.88 -21.98,9.12 -56.37,22.38 -73.55,33.95 l 49.38,-169.84999 z" id="path4" style="fill:#022e85;stroke:none"/>
    <path class="cls-2" d="m 488.22094,434.35718 -104.92,-120.44 168.12,-125.66 c 39.01,-29.16 43.73,-71.89 8.35,-89.030001 -25.91,-12.550005 -57.39,0.22 -81.97,18.590001 l -183.98,137.52 22.91,-89.52001 c 6.86,-26.79999 -15.99,-49.67999 -49.02,-48.22999 -43.07,1.89 -81.41,29.95 -91.76,70.39 l -81.23,317.44 c -21.290009,83.22 117.68,68.12 137.97,-11.2 l 19.09,-74.61 c 4.99,-19.52 29.84,-25.41 43.07,-10.22 l 85.91,98.62 c 10.38,11.92 23.02,16.16 43.84,14.71 51.05,-3.55 89.45,-58.7 63.62,-88.35 z" id="path6" style="fill:url(#linearGradient24)"/>
    <g id="path6-0" class="cls-2" style="opacity:1">
        <path style="baseline-shift:baseline;display:inline;overflow:visible;vector-effect:none;fill:url(#linearGradient43);stroke-linecap:round;stroke-linejoin:round;paint-order:markers stroke fill;enable-background:accumulate;stop-color:#000000;stop-opacity:1" d="m 539.85497,86.914806 c -7.58973,-0.309362 -15.27124,0.764122 -22.77344,2.837891 -15.0044,4.147538 -29.48357,12.239923 -42.14843,21.705073 l -172.62891,129.03712 19.39648,-75.79298 c 3.84548,-15.02312 -0.76697,-29.49695 -10.8789,-39.50195 -10.11194,-10.005 -25.48648,-15.74064 -43.20313,-14.96289 -45.10556,1.97933 -85.43712,31.3694 -96.38476,74.14453 a 5.0005,5.0005 0 0 0 0,0.002 L 90.00341,501.82305 c -5.63722,22.03519 -0.52726,39.20144 11.27539,49.51758 11.80265,10.31614 29.18318,13.78396 47.43359,12.05078 36.50029,-3.4663 78.14316,-28.04878 88.94922,-70.28906 v -0.002 l 19.08984,-74.60938 c 4.06325,-15.89472 23.68211,-20.54475 34.45508,-8.17578 a 5.0005,5.0005 0 0 0 0,0.002 l 85.91016,98.61914 c 11.31454,12.9932 26.32318,17.92075 47.95703,16.41407 27.22599,-1.89329 50.76339,-17.34085 64.36914,-36.47852 6.80288,-9.56883 11.16722,-20.12742 12.02344,-30.63867 0.85584,-10.50673 -1.98404,-21.04198 -9.3418,-29.49414 a 5.0005,5.0005 0 0 0 -0.008,-0.0215 L 390.73564,312.34257 554.54033,189.90703 c 20.36562,-15.22331 32.23797,-34.23841 34.05273,-52.5332 1.81476,-18.2948 -7.27993,-35.68314 -26.51562,-45.001956 -7.1342,-3.455714 -14.63274,-5.147706 -22.22247,-5.457068 z m -0.48047,9.96875 c 6.36808,0.251888 12.52314,1.668956 18.34375,4.488284 16.14431,7.82118 22.37657,20.36846 20.92383,35.01367 -1.45274,14.64521 -11.44351,31.57503 -30.08789,45.51172 L 380.4331,307.55739 a 5.0005,5.0005 0 0 0 -0.7754,7.28906 l 104.91407,120.43164 a 5.0005,5.0005 0 0 0 0.006,0.0176 c 5.55018,6.371 7.59628,13.84563 6.92187,22.125 -0.67441,8.27937 -4.25741,17.28759 -10.20703,25.65625 -11.89925,16.73733 -33.0881,30.64016 -56.91211,32.29687 -20.00615,1.39332 -30.2772,-2.15905 -39.72266,-13.00586 l -85.91015,-98.61914 c -15.68703,-18.01103 -45.76685,-10.87965 -51.6836,12.26563 l -19.08984,74.60742 a 5.0005,5.0005 0 0 0 0,0.002 c -9.48468,37.0786 -47.47285,59.70386 -80.20703,62.8125 -16.36709,1.55433 -31.00578,-1.84551 -39.90625,-9.625 -8.90047,-7.77948 -13.17771,-19.93495 -8.16992,-39.50976 l 81.23047,-317.43945 c 9.75235,-38.10487 46.10033,-64.8341 87.13476,-66.63477 15.31336,-0.67225 27.87686,4.30758 35.73242,12.08007 7.85557,7.7725 11.23914,18.1372 8.22461,29.91407 a 5.0005,5.0005 0 0 0 0,0.002 l -22.91015,89.51952 a 5.0005,5.0005 0 0 0 7.83789,5.24415 L 480.92138,119.46754 c 11.91513,-8.90485 25.46612,-16.38371 38.82422,-20.076171 6.67904,-1.846232 13.26082,-2.759701 19.6289,-2.507813 z" id="path43"/>
    </g>
    <path class="cls-1" d="m 599.05096,332.47134 c 30.1,0 36.98,25.79 33.21,40.49 l -29.48,114.82 c -4.85,18.9 -28.25,42.19 -57.73,44.24 -1.5,0.1 -2.94,0.15 -4.33,0.15 -31.03,0 -36.91,-25.03 -33.48,-38.37 l 28.79,-112.11 c 5.59,-21.77 27.91,-46.92 59.11,-49.09 1.35,-0.09 2.65,-0.14 3.92,-0.14 m 0,-32 c -2.01,0 -4.08,0.07 -6.14,0.22 -46.21,3.22 -79.19,39.18 -87.89,73.05 l -28.79,112.11 c -4.73,18.41 -0.43,39.17 11.21,54.18 12.08,15.57 31,24.15 53.27,24.15 2.14,0 4.34,-0.08 6.55,-0.23 20.1,-1.4 40.12,-9.61 56.35,-23.13 15.24,-12.68 25.95,-28.69 30.15,-45.07 l 29.48,-114.82 c 4.91,-19.12 0.48,-40.66 -11.57,-56.19 -12.13,-15.64 -30.82,-24.26 -52.63,-24.26 v 0 z" id="path8" style="fill:url(#linearGradient47);stroke:none;paint-order:markers stroke fill"/>
    <g id="g53" transform="translate(-3.8829629,2.5505409)">
        <path style="baseline-shift:baseline;display:inline;overflow:visible;vector-effect:none;fill:url(#linearGradient52);stroke-linecap:round;stroke-linejoin:round;paint-order:stroke fill markers;enable-background:accumulate;stop-color:#000000" d="m 603.56181,311.59193 c -1.41826,0 -2.86086,0.0607 -4.31446,0.18164 -32.67063,2.68637 -55.93599,31.29323 -63.28711,58.52734 l -26.26562,97.30664 0.002,-0.002 c -2.99694,11.08087 -3.33143,26.92011 5.06641,40.88086 5.17871,8.61189 16.57274,19.22266 35.35742,19.22266 h 0.008 c 1.49473,0 3.03872,-0.0607 4.60938,-0.19141 14.33643,-1.17905 28.39653,-8.01045 40.01562,-18.90039 10.60309,-9.93833 18.56001,-22.52609 22.04297,-35.42383 a 7.50075,7.50075 0 0 0 0,-0.002 l 26.89649,-99.66016 c 3.88425,-14.40352 2.09158,-30.4296 -5.2461,-42.6289 h 0.002 c -5.17466,-8.60414 -16.44751,-19.31055 -34.88671,-19.31055 z m 0,15 c 13.02057,0 18.60315,6.34097 22.03125,12.04102 4.71168,7.83344 6.39451,20.69333 3.61718,30.99218 l 0.002,-0.002 -26.89649,99.66016 c -2.59244,9.60006 -9.16214,20.27332 -17.82031,28.38867 -9.47721,8.88246 -20.62917,14.04453 -30.98828,14.89648 a 7.50075,7.50075 0 0 0 -0.008,0.002 c -1.13472,0.0946 -2.27484,0.13867 -3.3711,0.13867 h -0.008 c -13.53873,0 -19.1335,-6.34783 -22.50391,-11.95313 a 7.50075,7.50075 0 0 0 0,-0.002 c -5.56338,-9.24869 -5.49634,-21.63453 -3.4414,-29.23242 a 7.50075,7.50075 0 0 0 0.002,-0.004 l 26.26563,-97.30859 c 5.91352,-21.90818 25.83407,-45.49905 50.04101,-47.48633 a 7.50075,7.50075 0 0 0 0.008,0 c 1.04847,-0.0873 2.08551,-0.13086 3.07032,-0.13086 z" id="path52"/>
        <path class="cls-2" d="m 548.69178,520.4484 c -16.16214,0 -24.65691,-8.48003 -28.9313,-15.58872 -6.98061,-11.60471 -6.77981,-25.71785 -4.25387,-35.05723 l 26.26588,-97.30779 c 6.63261,-24.57223 28.22647,-50.672 56.66731,-53.00686 1.25103,-0.10413 2.49197,-0.15621 3.6935,-0.15621 15.72989,0 24.15642,8.52344 28.4578,15.67553 6.02468,10.01637 7.76254,24.45928 4.43175,36.81047 l -26.89647,99.66007 c -3.0377,11.2489 -10.30109,22.87959 -19.93172,31.90646 -10.54815,9.88621 -23.15343,15.88387 -35.5012,16.89934 -1.35406,0.1129 -2.69758,0.16494 -3.99434,0.16494 v 0 z" id="path7" style="fill:url(#linearGradient26);stroke-width:0.79744"/>
    </g>
    <g id="g54" transform="translate(-0.55190736,4.4348706)">
        <path style="baseline-shift:baseline;display:inline;overflow:visible;vector-effect:none;fill:url(#linearGradient49);paint-order:markers stroke fill;enable-background:accumulate;stop-color:#000000" d="m 632.64404,182.44084 c -2.00203,-0.0472 -4.04325,8e-5 -6.11523,0.14454 -33.49837,2.33579 -63.90776,27.88205 -71.63281,57.95703 -3.82889,14.90651 -1.58313,29.58186 6.93359,40.16992 8.51672,10.58805 22.89863,16.28807 40.30078,15.07617 19.18612,-1.33546 35.59101,-9.95211 47.79102,-20.50586 12.19939,-10.55321 20.43213,-22.77374 23.2832,-33.87891 v -0.002 c 4.52267,-17.61437 2.16994,-33.30291 -6.67969,-44.13867 -7.7437,-9.48163 -19.86662,-14.49183 -33.88086,-14.82227 z m -5.07226,15.10938 c 13.11418,-0.91433 22.10393,2.79732 27.33398,9.20117 5.23006,6.40385 7.47621,16.48506 3.76953,30.91992 v 0.002 c -1.65933,6.46439 -8.35086,17.42687 -18.56836,26.26562 -10.21749,8.83875 -23.72369,15.82218 -39.01757,16.88672 -13.75785,0.9581 -22.46899,-3.17118 -27.57227,-9.51563 -5.10328,-6.34444 -7.00291,-15.70362 -4.0918,-27.0371 5.75495,-22.40503 31.98486,-44.89845 58.14649,-46.72266 z" id="path49"/>
        <path class="cls-2" d="m 602.65174,287.88905 c 34.48,-2.4 59.82,-31.2 64.33,-48.77 8.23,-32.05 -9.2,-51.54 -38.89,-49.47 -29.83,2.08 -58.15,26.1 -64.89,52.34 -6.74,26.24 8.29,48.07 39.45,45.9 z" id="path9" style="fill:#ffe900;fill-opacity:1"/>
    </g>
    <g id="path5-9" class="cls-2" style="opacity:1" transform="translate(156.94651,-462.8785)">
        <path style="baseline-shift:baseline;display:inline;overflow:visible;vector-effect:none;fill:url(#linearGradient56);stroke-linecap:round;stroke-linejoin:round;paint-order:markers stroke fill;enable-background:accumulate;stop-color:#000000;stop-opacity:1" d="m 723.5625,668.29492 c -2.40679,-0.10283 -4.89604,-0.0693 -7.46289,0.10938 -21.34772,1.48734 -46.12892,11.59038 -69.60938,29.78711 -6.18963,-13.57917 -21.49543,-23.43532 -40.96875,-22.08594 a 7.50075,7.50075 0 0 0 -0.004,0 c -31.31179,2.18454 -58.86622,24.14585 -65.58203,50.27344 a 7.50075,7.50075 0 0 0 0,0.002 l -49.23047,191.7207 c -4.26009,16.59568 -2.43557,31.26708 5.83008,41.42188 8.26564,10.15479 21.99799,14.51719 37.73437,13.42578 a 7.50075,7.50075 0 0 0 0.002,0 c 31.23017,-2.17569 58.51101,-25.74961 65.29493,-52.14844 a 7.50075,7.50075 0 0 0 0.0176,-0.0293 l 17.90821,-69.74414 c 9.64124,-31.75772 28.91983,-56.86789 68.92968,-73.38867 a 7.50075,7.50075 0 0 0 0.004,0 c 3.21946,-1.33109 18.21749,-5.15552 33.19531,-11.93164 14.97711,-6.7758 31.35209,-17.00667 39.65235,-34.06836 l 0.002,-0.002 c 7.19119,-14.78221 7.87639,-31.17451 0.42578,-43.99414 -6.51962,-11.21777 -19.29116,-18.62783 -36.13867,-19.34766 z m -0.58203,14.94141 c 12.79487,0.36565 19.90501,5.32425 23.75195,11.94336 4.3965,7.56469 4.50048,18.6993 -0.94726,29.89648 -5.85012,12.02685 -18.90353,20.88151 -32.34571,26.96289 -13.44218,6.08138 -25.85359,8.88742 -32.74414,11.73633 -43.56116,17.9877 -66.91668,47.77639 -77.58203,82.9668 a 7.50075,7.50075 0 0 0 -0.0879,0.30859 l -17.96484,69.97461 a 7.50075,7.50075 0 0 0 -0.0156,0.0273 c -4.74466,18.49273 -27.93324,39.26691 -51.81445,40.93164 -12.52362,0.86859 -20.56119,-2.40393 -25.06055,-7.93164 -4.49935,-5.5277 -6.43546,-14.58638 -2.93555,-28.2207 l 49.23047,-191.71875 v -0.002 c 4.60497,-17.91101 27.50778,-37.32581 52.09375,-39.04297 18.67586,-1.29412 27.93973,9.68574 27.96094,20.55273 a 7.50075,7.50075 0 0 0 12.4707,5.60352 c 24.0851,-21.30457 50.46268,-32.48378 70.15039,-33.85547 2.0669,-0.14385 4.01201,-0.18505 5.83985,-0.13281 z" id="path56"/>
        <path style="baseline-shift:baseline;display:inline;overflow:visible;vector-effect:none;fill:url(#linearGradient54);stroke-linecap:round;stroke-linejoin:round;paint-order:markers stroke fill;enable-background:accumulate;stop-color:#000000;stop-opacity:1" d="m 592.3202,918.90679 17.97,-69.99 c 10.15,-33.49 31.47,-60.95 73.27,-78.20996 10.11,-4.18 54.82,-13.26 68.97001,-42.35 12.64,-25.98 1.16,-55.05 -35.91001,-52.47 -21.96,1.53 -49.48,13.5 -74.6,35.72 -0.03,-15.37 -13.9,-29.55 -35.98,-28.02 -27.95,1.95 -53.18,22.64 -58.84,44.66 l -49.23,191.71996 c -7.76,30.23 7.52,47.46 35.78,45.5 27.56,-1.92 52.8,-24.0999 58.56,-46.55 z" id="path57"/>
    </g>
</svg>
