<?xml version='1.0' encoding='utf-8'?>
<svg xmlns="http://www.w3.org/2000/svg" version="1.1" id="Layer_1" x="0px" y="0px" width="600" height="177.5966744890896" viewBox="0 0 506.3691 149.88245" enable-background="new 0 0 999.999 156.487" xml:space="preserve">
    <defs id="defs12">
	
	
	
	
	
	
	
	
	
	
	
	
	
</defs>
    <path d="m 505.14111,54.804516 -29.578,-35.302 c -0.778,-0.943 -1.879,-1.564 -3.082,-1.737 l -52.237,-8.0040004 c -1.172,-0.189 -2.359,0.22 -3.177,1.0930004 l -13.287,14.097 v -6.942 c 0,-1.101 -0.756,-2.06 -1.841,-2.312 l -59.754,-13.5790004 c -0.959,-0.22 -1.888,0.48 -1.935,1.47 l -0.99,19.2940004 -36.584,-21.6440004 c -1.046,-0.61300002 -2.287,-0.84100002 -3.498,-0.64500002 l -63.607,10.69300042 c -1.077,0.188 -1.871,1.124 -1.871,2.217 v 8.059 c 0,1.266 0.063,2.516 0.205,3.774 l 3.49,32.731 -15.489,-44.257 c -0.377,-1.077 -1.367,-1.855 -2.508,-1.958 l -57.167,-5.1190004 c -1.093,-0.102 -2.101,0.613 -2.359,1.667 l -10.929,42.4180004 -8.885,-37.92 c -0.252,-1.093 -1.179,-1.927 -2.312,-2.061 l -36.858,-4.3790004 c -1.141,-0.125 -2.226,0.457 -2.721,1.479 l -8.036,16.2590004 -6.604,-18.0830004 c -0.409,-1.085 -1.384,-1.863 -2.531,-1.997 l -34.673,-4.09700002 c -1.101,-0.142 -2.154,0.503 -2.532,1.54100002 L 0,123.19214 57.04811,145.32352 c 0.95,0.369 2.005,-0.181 2.265,-1.156 l 12.076,-44.155 12.572,21.662 c 0.447,0.785 1.557,0.849 2.099,0.134 l 14.797,-19.665 4.852,44.383 c 0.118,1.016 1.062,1.723 2.06,1.519 l 37.605,-7.549 35.271,5.669 c 1.038,0.173 2.013,-0.534 2.178,-1.564 l 3.499,-21.889 13.854,-2.052 5.048,23.839 c 0.235,1.021 1.226,1.682 2.265,1.478 l 38.431,-7.909 0.598,5.59 c 0.11,1.038 1.038,1.801 2.092,1.706 l 43.015,-3.954 c 1.062,-0.103 1.848,-1.008 1.816,-2.067 l -0.314,-9.271 10.222,15.654 c 0.605,0.919 1.776,1.266 2.768,0.833 l 27.565,-12.124 v 7.879 c 0,1.037 0.864,1.863 1.91,1.823 l 41.317,-1.47 c 1.116,-0.032 2.06,-0.817 2.296,-1.919 l 6.494,-29.782 10.063,24.011 c 0.456,1.094 1.407,1.927 2.563,2.218 l 48.205,12.532 c 1.187,0.308 2.429,0.149 3.514,-0.408 l 45.563,-24.043 c 1.061,-0.558 1.8,-1.581 1.98,-2.76 l 8.483,-52.553004 c 0.188,-1.227 0.299,-2.492 0.299,-3.75 v -8.059 c -10e-4,-1.227 -0.434,-2.414 -1.228,-3.35" id="path1"/>
    <path fill="#50b848" d="m 439.30111,93.456516 -17.124,-17.793 12.345,-21.103 23.375,6.667 1.233,21.197 z m 56.044,-35.593 -24.987,-29.83 c -0.628,-0.747 -1.51,-1.25 -2.469,-1.399 l -44.541,-6.817 c -0.927,-0.142 -1.887,0.189 -2.539,0.881 l -23.445,24.9 -8.153,37.409 13.61,32.479004 c 0.377,0.881 1.132,1.54 2.06,1.784 l 40.837,10.614 c 0.943,0.236 1.949,0.126 2.814,-0.329 l 38.809,-20.474 c 0.842,-0.448 1.439,-1.267 1.589,-2.202 l 7.154,-44.359004 c 0.149,-0.951 -0.11,-1.926 -0.739,-2.657" id="path3"/>
    <path fill="#00a0dc" d="m 391.05811,22.938516 -40.351,-9.167 c -0.77,-0.181 -1.51,0.385 -1.557,1.179 l -4.309,84.513 6.511,5.692004 c 0.896,0.786 1.32,1.958 1.147,3.129 l -0.708,4.608 c -0.18,1.162 -0.943,2.161 -2.028,2.634 l -5.865,2.578 -0.142,2.917 c -0.047,0.803 0.614,1.479 1.432,1.455 l 24.404,-0.873 c 0.889,-0.031 1.651,-0.669 1.84,-1.526 l 20.772,-95.315004 c 0.19,-0.825 -0.329,-1.636 -1.146,-1.824" id="path4"/>
    <path fill="#ffcb05" d="m 302.22811,67.588516 -20.238,3.279 -1.14,-32.582 23.784,6.581 z m 37.896,40.335004 -27.879,-24.396004 17.045,-10.686 c 0.818,-0.503 1.384,-1.345 1.565,-2.296 l 6.564,-36.088 c 0.173,-0.889 -0.244,-1.801 -1.022,-2.257 l -35.884,-21.229 c -0.85,-0.495 -1.84,-0.676 -2.807,-0.519 l -52.136,8.767 c -0.85,0.149 -1.432,0.92 -1.337,1.753 l 8.68,81.430004 7.18,20.537 22.132,-2.028 c 0.834,-0.078 1.479,-0.802 1.463,-1.659 l -1.125,-32.368004 1.234,-0.26 23.297,35.679004 c 0.479,0.724 1.423,1.007 2.226,0.66 l 30.553,-13.444 c 0.645,-0.276 0.779,-1.141 0.251,-1.596" id="path5"/>
    <path fill="#50b848" d="m 182.24711,76.213516 4.694,-29.318 9.914,0.794 6.243,29.263 z m 64.944,38.534004 -32.329,-92.406004 c -0.314,-0.865 -1.101,-1.486 -2.014,-1.565 l -43.825,-3.916 c -0.872,-0.086 -1.683,0.479 -1.894,1.329 l -13.524,52.521 12.101,51.625004 7.453,1.187 c 0.834,0.142 1.604,-0.425 1.738,-1.25 l 3.152,-19.751 29.531,-4.378004 5.048,23.705004 c 0.165,0.825 0.976,1.352 1.793,1.179 l 31.787,-6.533 c 0.787,-0.167 1.25,-0.984 0.983,-1.747" id="path6"/>
    <path fill="#ee3124" d="m 132.26711,21.161516 c -0.212,-0.889 -0.952,-1.549 -1.848,-1.651 l -24.382,-2.901 c -0.904,-0.102 -1.769,0.37 -2.178,1.188 l -15.033,30.451 -12.336,-33.769 c -0.314,-0.873 -1.109,-1.494 -2.021,-1.596 l -22.235,-2.634 c -0.888,-0.103 -1.729,0.417 -2.028,1.242 l -35.09,94.490004 c -0.291,0.779 0.106,1.659 0.893,1.942 l 34.991,13.17 c 0.764,0.291 1.612,-0.142 1.816,-0.929 l 15.396,-56.333004 16.967,29.224 c 0.369,0.621 1.242,0.676 1.675,0.103 l 20.826,-27.66 6.361,58.253004 c 0.087,0.802 0.856,1.36 1.659,1.194 l 37.566,-7.532 c 0.81,-0.165 1.321,-0.967 1.132,-1.776 z" id="path7"/>
</svg>
