<?xml version="1.0" encoding="UTF-8" standalone="no"?>
<svg
   version="1.1"
   viewBox="0 0 984 177"
   id="svg176"
   sodipodi:docname="nesj.svg"
   inkscape:version="1.1.2 (0a00cf5339, 2022-02-04)"
   xmlns:inkscape="http://www.inkscape.org/namespaces/inkscape"
   xmlns:sodipodi="http://sodipodi.sourceforge.net/DTD/sodipodi-0.dtd"
   xmlns="http://www.w3.org/2000/svg"
   xmlns:svg="http://www.w3.org/2000/svg">
  <defs
     id="defs180" />
  <sodipodi:namedview
     id="namedview178"
     pagecolor="#ffffff"
     bordercolor="#666666"
     borderopacity="1.0"
     inkscape:pageshadow="2"
     inkscape:pageopacity="0.0"
     inkscape:pagecheckerboard="0"
     showgrid="false"
     inkscape:zoom="1.3028455"
     inkscape:cx="326.20905"
     inkscape:cy="88.268331"
     inkscape:window-width="1920"
     inkscape:window-height="1011"
     inkscape:window-x="1920"
     inkscape:window-y="32"
     inkscape:window-maximized="1"
     inkscape:current-layer="svg176" />
  <g
     fill="#ffffff"
     id="g98">
    <path
       d="   M 105.06 0.00   L 107.81 0.00   C 116.43 1.51 122.40 3.63 129.56 8.71   A 0.60 0.60 0.0 0 0 130.33 8.65   C 135.83 3.35 141.44 2.59 147.99 0.72   C 152.50 -0.56 164.31 3.34 167.63 6.68   A 0.45 0.44 41.7 0 0 168.28 6.65   C 171.35 2.89 182.83 0.64 187.81 0.00   L 189.31 0.00   Q 203.58 1.63 214.27 10.87   A 0.42 0.42 0.0 0 0 214.90 10.77   C 218.54 4.73 225.53 1.54 232.47 1.52   Q 248.46 1.48 264.46 1.50   C 273.61 1.51 281.72 4.52 285.32 13.08   Q 285.51 13.53 285.74 13.09   C 291.25 2.44 302.22 0.26 313.28 1.78   Q 316.13 2.17 318.69 1.82   Q 330.80 0.18 340.76 3.22   C 348.82 5.68 352.66 17.07 355.54 24.30   A 0.47 0.47 0.0 0 0 356.42 24.29   C 358.55 18.61 361.28 11.21 365.39 7.29   C 372.23 0.75 382.30 1.30 391.21 1.56   C 409.58 2.08 428.05 1.63 446.43 1.56   C 452.33 1.53 459.34 4.30 462.87 9.23   A 0.51 0.51 0.0 0 0 463.70 9.23   C 470.38 -0.23 487.37 0.41 497.14 2.60   C 502.06 3.70 505.25 6.13 507.97 10.11   A 0.53 0.52 -32.7 0 0 508.68 10.26   C 528.16 -1.66 554.42 -0.68 572.56 14.25   A 0.58 0.57 -46.2 0 0 573.31 14.23   C 581.33 6.97 591.00 4.05 601.39 2.26   C 612.74 0.30 625.35 3.87 635.52 8.85   A 0.47 0.47 0.0 0 0 636.15 8.61   Q 636.62 7.41 637.61 6.59   C 645.38 0.10 662.10 0.09 671.51 3.23   C 679.68 5.97 683.61 16.80 686.63 25.00   Q 686.80 25.46 686.98 25.00   C 691.82 11.90 696.51 1.50 711.27 1.56   Q 734.82 1.64 748.15 1.51   C 755.95 1.42 762.26 3.05 769.27 5.50   A 1.17 1.14 41.2 0 0 770.18 5.45   C 777.67 1.74 796.42 0.03 803.36 5.72   A 0.58 0.58 0.0 0 0 804.11 5.71   C 807.15 3.11 815.12 2.24 819.10 2.24   C 852.94 2.30 886.91 2.80 920.74 2.27   C 932.42 2.09 941.20 1.63 949.63 3.41   C 970.14 7.77 979.91 21.27 983.47 41.26   Q 984.20 45.35 983.01 49.71   C 980.88 57.57 979.55 63.75 973.49 70.64   A 0.71 0.69 51.3 0 0 973.41 71.45   Q 976.36 76.59 979.31 81.68   C 981.41 85.30 982.06 89.06 983.39 93.02   A 1.33 1.30 51.0 0 1 983.29 94.05   Q 980.82 98.51 982.67 103.22   A 1.63 1.60 -50.5 0 1 982.75 104.15   C 981.26 111.22 979.99 116.61 973.19 120.19   C 963.95 125.03 956.22 129.00 946.27 129.00   Q 848.54 129.00 750.82 129.00   A 0.50 0.50 0.0 0 0 750.32 129.53   C 750.68 135.28 750.50 142.24 749.88 147.13   C 748.35 159.14 739.44 169.14 727.94 172.42   Q 723.32 173.74 711.45 173.75   C 698.79 173.76 680.24 177.02 674.85 161.46   A 0.69 0.68 -9.5 0 0 674.20 161.00   L 664.58 161.00   A 0.73 0.73 0.0 0 0 663.90 161.47   C 660.08 171.79 650.16 173.98 640.00 173.94   Q 605.13 173.78 570.25 173.79   Q 567.79 173.79 559.97 170.94   A 1.56 1.54 47.1 0 0 559.00 170.90   C 553.27 172.48 548.05 173.77 541.89 173.75   Q 508.95 173.65 476.00 173.81   C 466.17 173.86 456.50 171.73 452.63 161.46   A 0.70 0.70 0.0 0 0 451.97 161.00   L 417.75 161.00   A 1.22 1.20 20.0 0 0 416.83 161.42   C 404.99 175.23 390.27 173.83 373.64 173.74   C 370.70 173.73 368.08 173.06 365.24 172.48   A 1.84 1.75 39.9 0 0 364.29 172.54   Q 360.96 173.70 359.50 173.54   Q 339.16 171.28 318.82 169.17   Q 316.58 168.93 309.51 167.15   A 0.98 0.94 -57.0 0 0 308.64 167.35   C 300.54 174.36 290.94 173.73 280.49 173.50   C 277.43 173.43 274.80 172.58 271.74 171.97   C 267.90 171.20 262.82 173.74 258.52 173.74   Q 248.76 173.74 239.00 173.69   C 220.28 173.60 214.33 160.46 218.04 143.79   A 1.08 1.06 33.4 0 0 217.85 142.91   C 212.21 135.30 211.26 126.60 213.47 117.49   Q 213.59 117.00 213.46 116.52   Q 211.03 107.88 213.29 99.52   Q 213.81 97.59 213.23 95.97   A 1.09 1.06 87.5 0 0 212.52 95.30   L 208.76 94.19   A 0.58 0.58 0.0 0 0 208.07 94.52   C 202.38 107.97 191.99 114.58 177.86 116.92   C 170.54 118.13 162.14 115.40 155.43 112.61   A 0.47 0.46 -69.6 0 0 154.81 112.90   Q 148.28 133.15 141.61 153.32   Q 139.25 160.46 136.65 164.04   C 120.12 186.81 84.82 176.57 82.61 148.61   C 81.92 139.95 87.35 126.64 90.32 118.47   A 0.97 0.97 0.0 0 0 89.55 117.18   Q 81.16 115.97 73.46 112.47   A 0.42 0.42 0.0 0 0 72.88 112.72   Q 66.08 133.61 59.20 154.46   Q 57.15 160.67 54.70 164.01   C 47.45 173.91 33.99 179.36 21.53 175.24   C 8.22 170.84 0.59 159.62 0.19 145.47   Q 0.12 142.83 2.67 135.10   Q 21.03 79.44 39.37 23.78   C 44.13 9.31 52.15 3.07 67.05 0.67   C 71.82 -0.10 82.02 3.33 85.78 6.41   A 0.59 0.58 43.7 0 0 86.54 6.40   C 90.88 2.62 99.51 1.04 105.06 0.00   Z   M 125.41 37.19   A 19.11 19.11 0.0 0 0 106.30 18.08   A 19.11 19.11 0.0 0 0 87.19 37.19   A 19.11 19.11 0.0 0 0 106.30 56.30   A 19.11 19.11 0.0 0 0 125.41 37.19   Z   M 207.36 37.18   A 19.12 19.12 0.0 0 0 188.24 18.06   A 19.12 19.12 0.0 0 0 169.12 37.18   A 19.12 19.12 0.0 0 0 188.24 56.30   A 19.12 19.12 0.0 0 0 207.36 37.18   Z   M 80.1342 34.4369   A 12.04 12.04 0.0 0 0 72.4570 19.2388   L 72.1150 19.1263   A 12.04 12.04 0.0 0 0 56.9169 26.8035   L 18.7058 143.0231   A 12.04 12.04 0.0 0 0 26.3830 158.2212   L 26.7250 158.3337   A 12.04 12.04 0.0 0 0 41.9231 150.6565   L 80.1342 34.4369   Z   M 162.1139 34.4833   A 12.06 12.06 0.0 0 0 154.4240 19.2599   L 154.0631 19.1412   A 12.06 12.06 0.0 0 0 138.8396 26.8311   L 100.6661 142.9367   A 12.06 12.06 0.0 0 0 108.3560 158.1601   L 108.7169 158.2788   A 12.06 12.06 0.0 0 0 123.9404 150.5889   L 162.1139 34.4833   Z   M 244.09 63.25   L 268.50 63.25   A 0.50 0.50 0.0 0 0 269.00 62.75   L 269.00 49.75   A 0.50 0.50 0.0 0 0 268.50 49.25   L 244.00 49.25   A 0.50 0.50 0.0 0 1 243.50 48.75   L 243.50 33.65   A 0.66 0.66 0.0 0 1 244.16 32.99   L 268.46 33.00   A 0.47 0.47 0.0 0 0 268.93 32.54   L 269.20 19.72   A 0.44 0.44 0.0 0 0 268.76 19.27   Q 255.82 19.16 242.94 19.43   C 239.79 19.49 234.74 18.91 230.55 19.59   A 0.66 0.65 -4.7 0 0 230.00 20.23   L 230.00 91.87   A 0.63 0.63 0.0 0 0 230.63 92.50   L 242.98 92.50   A 0.56 0.55 0.0 0 0 243.54 91.95   L 243.50 63.84   A 0.59 0.59 0.0 0 1 244.09 63.25   Z   M 302.97 19.23   A 0.37 0.37 0.0 0 0 302.67 19.39   L 251.47 91.92   A 0.37 0.37 0.0 0 0 251.77 92.50   L 266.59 92.50   A 0.37 0.37 0.0 0 0 266.90 92.34   L 274.40 81.16   A 0.37 0.37 0.0 0 1 274.71 81.00   L 299.88 81.00   A 0.37 0.37 0.0 0 1 300.25 81.37   L 300.25 92.14   A 0.37 0.37 0.0 0 0 300.62 92.51   L 313.13 92.49   A 0.37 0.37 0.0 0 0 313.50 92.12   L 313.50 19.66   A 0.37 0.37 0.0 0 0 313.13 19.29   L 302.97 19.23   Z   M 332.62 57.20   Q 334.02 59.06 335.75 63.01   Q 342.10 77.54 348.58 92.04   A 0.79 0.78 77.6 0 0 349.29 92.50   L 362.17 92.50   A 0.84 0.82 12.0 0 0 362.93 92.02   L 379.11 56.85   Q 379.75 55.47 379.75 56.99   L 379.75 92.00   A 0.50 0.50 0.0 0 0 380.25 92.50   L 393.00 92.50   A 0.50 0.50 0.0 0 0 393.50 92.00   L 393.50 19.89   A 0.61 0.60 -0.0 0 0 392.89 19.29   L 378.41 19.32   A 0.91 0.89 -77.8 0 0 377.59 19.86   L 356.17 67.74   A 0.31 0.31 0.0 0 1 355.60 67.74   L 334.23 19.67   A 0.75 0.75 0.0 0 0 333.53 19.22   L 319.36 19.33   A 0.63 0.63 0.0 0 0 318.73 19.96   L 318.76 91.88   A 0.62 0.62 0.0 0 0 319.38 92.50   L 332.02 92.50   A 0.51 0.51 0.0 0 0 332.53 91.98   L 332.42 57.26   Q 332.42 56.94 332.62 57.20   Z   M 412.00 19.79   A 0.48 0.48 0.0 0 0 411.52 19.31   L 398.22 19.31   A 0.48 0.48 0.0 0 0 397.74 19.79   L 397.74 92.01   A 0.48 0.48 0.0 0 0 398.22 92.49   L 411.52 92.49   A 0.48 0.48 0.0 0 0 412.00 92.01   L 412.00 19.79   Z   M 430.66 79.25   A 0.41 0.41 0.0 0 1 430.25 78.84   L 430.25 19.72   A 0.41 0.41 0.0 0 0 429.84 19.31   L 416.20 19.32   A 0.41 0.41 0.0 0 0 415.79 19.73   L 415.73 92.09   A 0.41 0.41 0.0 0 0 416.14 92.50   L 448.13 92.50   A 0.41 0.41 0.0 0 0 448.54 92.09   L 448.49 79.66   A 0.41 0.41 0.0 0 0 448.08 79.25   L 430.66 79.25   Z   M 493.04 19.26   L 478.67 19.28   A 0.98 0.98 0.0 0 0 477.79 19.83   L 463.92 48.49   A 0.41 0.41 0.0 0 1 463.18 48.49   L 448.87 19.68   A 0.87 0.86 76.5 0 0 448.10 19.20   L 433.60 19.36   A 0.51 0.50 -13.8 0 0 433.15 20.09   Q 444.30 42.20 455.52 64.30   Q 456.52 66.28 456.51 68.49   Q 456.47 80.23 456.53 91.99   A 0.51 0.51 0.0 0 0 457.04 92.50   L 469.44 92.50   A 0.87 0.86 -1.3 0 0 470.31 91.60   Q 469.78 79.62 470.21 68.07   Q 470.30 65.58 471.44 63.31   Q 482.48 41.43 493.42 19.90   A 0.44 0.43 -76.4 0 0 493.04 19.26   Z   M 709.96 56.94   A 0.31 0.31 0.0 0 1 710.55 57.07   L 710.47 92.19   A 0.31 0.31 0.0 0 0 710.78 92.50   L 723.94 92.50   A 0.31 0.31 0.0 0 0 724.25 92.19   L 724.25 19.59   A 0.31 0.31 0.0 0 0 723.94 19.28   L 708.88 19.26   A 0.31 0.31 0.0 0 0 708.60 19.44   L 687.01 67.78   A 0.31 0.31 0.0 0 1 686.45 67.78   L 665.11 19.46   A 0.31 0.31 0.0 0 0 664.83 19.28   L 649.81 19.24   A 0.31 0.31 0.0 0 0 649.50 19.55   L 649.50 92.19   A 0.31 0.31 0.0 0 0 649.81 92.50   L 662.94 92.50   A 0.31 0.31 0.0 0 0 663.25 92.19   L 663.25 57.02   A 0.31 0.31 0.0 0 1 663.84 56.89   L 679.63 92.32   A 0.31 0.31 0.0 0 0 679.91 92.50   L 693.42 92.50   A 0.31 0.31 0.0 0 0 693.70 92.32   L 709.96 56.94   Z   M 743.24 67.52   C 748.20 67.06 753.72 67.66 757.99 66.54   C 777.21 61.54 782.00 36.17 766.25 24.37   C 756.29 16.90 738.80 19.11 729.49 19.51   A 0.51 0.51 0.0 0 0 729.00 20.02   L 729.00 92.00   A 0.50 0.50 0.0 0 0 729.50 92.50   L 742.26 92.50   A 0.51 0.51 0.0 0 0 742.77 91.99   L 742.74 68.07   A 0.56 0.55 -2.9 0 1 743.24 67.52   Z   M 645.41 56.72   A 37.40 37.40 0.0 0 0 608.01 19.32   A 37.40 37.40 0.0 0 0 570.61 56.72   A 37.40 37.40 0.0 0 0 608.01 94.12   A 37.40 37.40 0.0 0 0 645.41 56.72   Z   M 507.23 35.96   Q 499.64 47.24 500.76 59.84   C 504.08 96.81 552.82 106.27 570.90 74.21   A 0.30 0.30 0.0 0 0 570.64 73.76   L 554.95 73.75   A 1.39 1.37 -63.2 0 0 554.12 74.03   C 541.65 83.70 525.30 81.27 517.73 67.53   C 512.86 58.66 514.87 46.87 522.34 39.82   C 531.12 31.52 544.40 31.56 553.71 39.21   A 1.36 1.36 0.0 0 0 554.55 39.50   L 570.44 39.49   A 0.30 0.29 -14.7 0 0 570.70 39.05   C 557.20 14.93 522.93 12.67 507.23 35.96   Z   M 827.80 20.80   A 0.81 0.81 0.0 0 0 826.99 19.99   L 814.30 20.01   A 0.56 0.56 0.0 0 0 813.74 20.57   Q 813.77 45.29 813.74 70.07   C 813.72 84.04 793.71 83.85 793.74 69.74   Q 793.79 45.19 793.70 20.56   A 0.56 0.56 0.0 0 0 793.14 20.00   L 780.11 20.01   A 0.38 0.38 0.0 0 0 779.73 20.39   Q 779.80 44.59 779.71 68.74   C 779.59 97.52 817.88 104.13 826.55 78.17   Q 828.05 73.67 828.04 63.69   Q 828.02 42.51 827.80 20.80   Z   M 841.70 34.37   Q 842.11 43.93 842.01 53.49   C 841.87 67.39 842.15 79.32 841.93 92.41   A 1.07 1.06 -89.7 0 0 843.00 93.50   L 855.34 93.49   A 0.40 0.40 0.0 0 0 855.74 93.09   L 855.77 35.43   A 1.73 1.73 0.0 0 1 857.56 33.70   L 867.60 34.03   A 0.87 0.87 0.0 0 0 868.50 33.16   L 868.50 20.62   A 0.63 0.62 0.0 0 0 867.87 20.00   L 830.57 20.00   A 0.68 0.68 0.0 0 0 829.89 20.67   L 829.71 31.94   A 1.94 1.93 -90.0 0 0 831.68 33.92   L 841.05 33.76   A 0.64 0.64 0.0 0 1 841.70 34.37   Z   M 871.78 20.74   C 871.53 44.57 871.56 68.61 872.18 92.65   A 0.87 0.87 0.0 0 0 873.05 93.50   L 909.64 93.50   A 0.58 0.58 0.0 0 0 910.22 92.92   L 910.25 80.45   A 0.62 0.62 0.0 0 0 909.64 79.82   L 886.11 79.72   A 0.62 0.61 0.5 0 1 885.50 79.11   L 885.50 65.11   A 0.64 0.64 0.0 0 1 886.14 64.47   L 909.47 64.56   A 0.78 0.78 0.0 0 0 910.25 63.78   L 910.25 51.63   A 0.63 0.63 0.0 0 0 909.62 51.00   L 886.25 51.00   A 0.75 0.75 0.0 0 1 885.50 50.25   L 885.50 34.00   A 0.50 0.50 0.0 0 1 886.00 33.50   L 909.50 33.50   A 0.75 0.75 0.0 0 0 910.25 32.75   L 910.25 20.75   A 0.75 0.75 0.0 0 0 909.50 20.00   L 872.52 20.01   A 0.74 0.74 0.0 0 0 871.78 20.74   Z   M 927.45 56.25   A 0.71 0.71 0.0 0 1 928.78 55.89   L 950.44 92.96   A 1.10 1.09 74.5 0 0 951.38 93.50   L 965.01 93.50   Q 965.71 93.50 965.36 92.90   L 950.32 67.15   A 0.58 0.58 0.0 0 1 950.58 66.33   C 975.30 55.41 967.69 20.21 940.74 20.05   Q 927.40 19.98 914.06 20.01   A 0.31 0.31 0.0 0 0 913.75 20.32   L 913.75 92.87   A 0.63 0.63 0.0 0 0 914.38 93.50   L 926.89 93.50   A 0.64 0.64 0.0 0 0 927.53 92.86   L 927.45 56.25   Z   M 111.17 80.49   A 19.12 19.12 0.0 0 0 92.05 61.37   A 19.12 19.12 0.0 0 0 72.93 80.49   A 19.12 19.12 0.0 0 0 92.05 99.61   A 19.12 19.12 0.0 0 0 111.17 80.49   Z   M 193.09 80.50   A 19.12 19.12 0.0 0 0 173.97 61.38   A 19.12 19.12 0.0 0 0 154.85 80.50   A 19.12 19.12 0.0 0 0 173.97 99.62   A 19.12 19.12 0.0 0 0 193.09 80.50   Z   M 964.50 104.21   C 719.85 104.54 475.19 104.34 230.54 104.24   A 0.54 0.54 0.0 0 0 230.00 104.78   L 230.00 110.72   A 0.53 0.53 0.0 0 0 230.53 111.25   Q 589.10 111.25 947.67 111.25   C 953.19 111.25 959.87 107.21 964.57 104.47   Q 965.01 104.21 964.50 104.21   Z   M 267.90 131.40   Q 268.72 135.39 267.34 139.33   C 264.89 146.28 260.17 147.54 252.90 147.50   Q 244.10 147.45 235.24 147.57   A 0.56 0.56 0.0 0 0 234.69 148.15   L 235.01 155.21   A 0.66 0.65 89.5 0 0 235.64 155.84   Q 247.21 156.19 258.79 155.87   C 264.80 155.70 269.70 152.22 272.62 147.28   C 276.49 140.72 276.18 129.45 275.77 121.35   A 0.37 0.36 88.3 0 0 275.41 121.00   L 230.75 121.00   A 0.50 0.50 0.0 0 0 230.25 121.50   L 230.32 130.41   A 0.59 0.59 0.0 0 0 230.91 131.00   L 267.41 131.00   A 0.50 0.50 0.0 0 1 267.90 131.40   Z   M 371.2318 121.7729   A 0.79 0.79 0.0 0 0 370.4404 120.9842   L 363.8204 120.9958   A 0.79 0.79 0.0 0 0 363.0318 121.7872   L 363.0682 142.6271   A 0.79 0.79 0.0 0 0 363.8596 143.4158   L 370.4796 143.4042   A 0.79 0.79 0.0 0 0 371.2682 142.6128   L 371.2318 121.7729   Z   M 400.72 132.74   C 400.66 138.66 397.06 147.56 390.01 147.52   Q 380.25 147.46 370.52 147.53   A 0.55 0.55 0.0 0 0 369.97 148.06   L 369.68 155.22   A 0.67 0.66 -88.3 0 0 370.32 155.91   Q 380.92 156.24 391.65 155.78   C 398.35 155.50 403.43 151.63 405.90 145.60   C 408.35 139.62 407.33 128.92 407.49 121.62   A 0.59 0.59 0.0 0 0 406.89 121.01   L 401.45 121.12   A 0.70 0.70 0.0 0 0 400.76 121.82   Q 400.78 127.32 400.72 132.74   Z   M 505.89 131.12   A 0.61 0.61 0.0 0 1 506.50 131.73   L 506.50 146.89   A 0.61 0.61 0.0 0 1 505.89 147.50   L 469.86 147.50   A 0.61 0.61 0.0 0 0 469.25 148.11   L 469.25 155.39   A 0.61 0.61 0.0 0 0 469.86 156.00   L 513.38 156.00   A 0.61 0.61 0.0 0 0 513.99 155.39   L 514.02 121.61   A 0.61 0.61 0.0 0 0 513.41 121.00   L 471.10 121.00   A 0.61 0.61 0.0 0 0 470.49 121.61   L 470.54 130.45   A 0.61 0.61 0.0 0 0 471.15 131.06   L 505.89 131.12   Z   M 543.2157 121.8041   A 0.85 0.85 0.0 0 0 542.3627 120.9571   L 517.7429 121.0430   A 0.85 0.85 0.0 0 0 516.8958 121.8960   L 516.9243 130.0559   A 0.85 0.85 0.0 0 0 517.7773 130.9029   L 542.3971 130.8170   A 0.85 0.85 0.0 0 0 543.2442 129.9640   L 543.2157 121.8041   Z   M 517.57 155.76   Q 532.03 156.21 544.94 155.87   C 552.21 155.67 557.61 152.06 560.31 145.47   C 562.75 139.52 561.77 128.99 561.73 121.62   A 0.59 0.59 0.0 0 0 561.14 121.04   L 555.85 121.04   A 0.58 0.58 0.0 0 0 555.27 121.62   C 555.33 132.51 556.38 147.71 541.98 147.55   Q 529.67 147.40 517.29 147.57   A 0.55 0.54 -0.5 0 0 516.75 148.11   L 516.75 154.92   A 0.84 0.84 0.0 0 0 517.57 155.76   Z   M 571.31 140.31   C 583.66 140.22 596.09 140.56 608.43 139.97   A 0.62 0.62 0.0 0 0 609.02 139.34   L 608.94 133.38   A 0.68 0.68 0.0 0 0 608.19 132.71   L 605.83 132.95   A 0.51 0.51 0.0 0 1 605.32 132.68   C 605.14 132.33 605.26 132.10 605.53 131.80   C 611.43 125.11 601.26 118.08 596.78 124.31   Q 593.78 128.48 597.71 132.15   A 0.31 0.31 0.0 0 1 597.59 132.67   C 595.19 133.47 595.71 130.51 593.30 130.48   Q 582.22 130.36 571.05 130.44   A 0.54 0.54 0.0 0 1 570.50 129.90   L 570.50 121.79   A 0.48 0.47 -89.4 0 0 570.04 121.31   L 564.52 121.10   A 0.47 0.46 1.2 0 0 564.03 121.56   Q 563.94 133.45 564.04 145.27   C 564.10 150.99 566.07 156.04 572.75 156.02   Q 590.29 155.97 607.88 156.01   A 0.62 0.62 0.0 0 0 608.50 155.39   L 608.50 148.16   A 0.64 0.64 0.0 0 0 607.87 147.52   Q 593.18 147.45 578.50 147.53   C 573.62 147.56 570.61 146.07 570.78 140.82   A 0.53 0.53 0.0 0 1 571.31 140.31   Z   M 722.96 144.71   A 0.61 0.61 0.0 0 1 723.19 145.89   Q 719.03 147.55 714.74 147.52   Q 703.31 147.45 691.79 147.56   A 0.55 0.55 0.0 0 0 691.25 148.11   L 691.25 155.46   A 0.53 0.52 0.6 0 0 691.77 155.98   Q 704.80 156.03 717.80 155.98   C 727.80 155.95 732.49 150.71 732.52 140.85   Q 732.56 131.31 732.38 121.76   A 0.55 0.55 0.0 0 0 731.83 121.22   L 694.51 121.27   A 0.47 0.46 -0.6 0 0 694.04 121.74   C 694.14 127.73 693.64 129.97 688.46 133.24   A 0.83 0.83 0.0 0 0 688.07 133.96   L 688.31 142.69   A 0.43 0.43 0.0 0 0 688.81 143.10   C 694.62 142.20 698.05 137.60 699.76 132.31   A 0.71 0.71 0.0 0 1 700.42 131.83   Q 711.00 131.61 721.56 131.69   Q 724.85 131.72 725.06 134.37   A 0.82 0.81 87.7 0 1 724.25 135.25   L 701.41 135.25   A 0.59 0.59 0.0 0 0 700.82 135.84   L 700.72 144.15   A 0.67 0.66 -0.0 0 0 701.40 144.82   L 722.96 144.71   Z   M 361.5444 126.6493   A 0.26 0.26 0.0 0 0 361.3140 126.3627   L 317.1936 121.5697   A 0.26 0.26 0.0 0 0 316.9071 121.8001   L 315.9956 130.1907   A 0.26 0.26 0.0 0 0 316.2260 130.4773   L 360.3464 135.2703   A 0.26 0.26 0.0 0 0 360.6329 135.0399   L 361.5444 126.6493   Z   M 307.19 139.06   A 0.49 0.49 0.0 0 1 306.97 139.99   L 293.82 140.01   A 1.27 1.26 2.0 0 0 292.57 141.17   L 292.23 145.80   A 1.84 1.83 2.2 0 1 290.40 147.49   L 278.37 147.50   A 0.63 0.62 90.0 0 0 277.75 148.13   L 277.75 155.11   A 0.63 0.63 0.0 0 0 278.37 155.74   Q 285.02 155.75 291.73 155.76   C 295.96 155.77 298.45 153.68 298.65 149.53   A 1.40 1.40 0.0 0 1 300.12 148.20   C 315.01 148.98 315.27 142.50 314.38 129.58   A 0.62 0.62 0.0 0 0 313.76 129.00   L 278.32 129.00   A 0.69 0.69 0.0 0 0 277.63 129.67   L 277.45 136.81   A 1.20 1.19 0.5 0 0 278.66 138.03   Q 290.90 137.92 303.00 138.05   Q 305.21 138.07 307.19 139.06   Z   M 632.77 139.50   A 0.55 0.55 0.0 0 1 633.32 140.04   L 633.43 146.94   A 0.55 0.55 0.0 0 1 632.88 147.50   L 611.10 147.50   A 0.55 0.55 0.0 0 0 610.55 148.05   L 610.48 155.27   A 0.55 0.55 0.0 0 0 611.03 155.82   L 646.68 155.93   A 0.55 0.55 0.0 0 0 647.23 155.38   L 647.26 148.07   A 0.55 0.55 0.0 0 0 646.71 147.52   L 640.55 147.49   A 0.55 0.55 0.0 0 1 640.00 146.94   L 640.00 130.88   A 0.55 0.55 0.0 0 0 639.45 130.33   L 614.42 130.50   A 0.55 0.55 0.0 0 0 613.87 131.06   L 614.00 138.96   A 0.55 0.55 0.0 0 0 614.55 139.50   L 632.77 139.50   Z   M 361.4868 136.7461   A 0.26 0.26 0.0 0 0 361.2564 136.4596   L 317.1956 131.6731   A 0.26 0.26 0.0 0 0 316.9091 131.9035   L 315.9932 140.3339   A 0.26 0.26 0.0 0 0 316.2236 140.6204   L 360.2844 145.4069   A 0.26 0.26 0.0 0 0 360.5709 145.1765   L 361.4868 136.7461   Z   M 453.01 135.09   A 0.59 0.59 0.0 0 0 452.42 134.50   L 410.84 134.50   A 0.59 0.59 0.0 0 0 410.25 135.09   L 410.25 142.67   A 0.59 0.59 0.0 0 0 410.84 143.26   L 452.42 143.26   A 0.59 0.59 0.0 0 0 453.01 142.67   L 453.01 135.09   Z   M 685.75 135.32   A 0.82 0.82 0.0 0 0 684.93 134.50   L 643.33 134.50   A 0.82 0.82 0.0 0 0 642.51 135.32   L 642.51 142.44   A 0.82 0.82 0.0 0 0 643.33 143.26   L 684.93 143.26   A 0.82 0.82 0.0 0 0 685.75 142.44   L 685.75 135.32   Z   M 361.5015 147.1663   A 0.27 0.27 0.0 0 0 361.2617 146.8692   L 317.2125 142.1617   A 0.27 0.27 0.0 0 0 316.9154 142.4015   L 316.0185 150.7937   A 0.27 0.27 0.0 0 0 316.2583 151.0908   L 360.3075 155.7983   A 0.27 0.27 0.0 0 0 360.6046 155.5585   L 361.5015 147.1663   Z"
       id="path86" />
    <circle
       cx="608.02"
       cy="56.73"
       r="23.56"
       id="circle88" />
    <path
       d="   M 756.63 34.71   C 763.31 38.39 763.80 48.87 755.86 52.44   C 752.73 53.85 747.17 53.29 743.52 53.21   A 0.45 0.45 0.0 0 1 743.08 52.76   L 742.78 34.17   A 0.65 0.65 0.0 0 1 743.43 33.51   C 747.65 33.51 753.11 32.78 756.63 34.71   Z"
       id="path90" />
    <path
       d="   M 942.25 33.99   C 953.92 34.02 955.55 53.60 941.00 53.73   Q 934.64 53.79 928.20 53.74   A 0.71 0.71 0.0 0 1 927.50 53.03   L 927.50 34.53   A 0.50 0.50 0.0 0 1 927.99 34.03   Q 935.16 33.98 942.25 33.99   Z"
       id="path92" />
    <path
       d="   M 300.26 46.83   L 300.24 67.01   A 0.33 0.33 0.0 0 1 299.91 67.34   L 285.33 67.22   A 0.33 0.33 0.0 0 1 285.07 66.69   L 299.66 46.63   A 0.33 0.33 0.0 0 1 300.26 46.83   Z"
       id="path94" />
    <circle
       cx="601.54"
       cy="127.63"
       r="3.00"
       id="circle96" />
  </g>
  <g
     fill="#ea2c27"
     id="g160">
    <path
       d="   M 243.50 63.84   L 243.54 91.95   A 0.56 0.55 -0.0 0 1 242.98 92.50   L 230.63 92.50   A 0.63 0.63 0.0 0 1 230.00 91.87   L 230.00 20.23   A 0.66 0.65 -4.7 0 1 230.55 19.59   C 234.74 18.91 239.79 19.49 242.94 19.43   Q 255.82 19.16 268.76 19.27   A 0.44 0.44 0.0 0 1 269.20 19.72   L 268.93 32.54   A 0.47 0.47 0.0 0 1 268.46 33.00   L 244.16 32.99   A 0.66 0.66 0.0 0 0 243.50 33.65   L 243.50 48.75   A 0.50 0.50 0.0 0 0 244.00 49.25   L 268.50 49.25   A 0.50 0.50 0.0 0 1 269.00 49.75   L 269.00 62.75   A 0.50 0.50 0.0 0 1 268.50 63.25   L 244.09 63.25   A 0.59 0.59 0.0 0 0 243.50 63.84   Z"
       id="path100" />
    <path
       d="   M 302.97 19.23   L 313.13 19.29   A 0.37 0.37 0.0 0 1 313.50 19.66   L 313.50 92.12   A 0.37 0.37 0.0 0 1 313.13 92.49   L 300.62 92.51   A 0.37 0.37 0.0 0 1 300.25 92.14   L 300.25 81.37   A 0.37 0.37 0.0 0 0 299.88 81.00   L 274.71 81.00   A 0.37 0.37 0.0 0 0 274.40 81.16   L 266.90 92.34   A 0.37 0.37 0.0 0 1 266.59 92.50   L 251.77 92.50   A 0.37 0.37 0.0 0 1 251.47 91.92   L 302.67 19.39   A 0.37 0.37 0.0 0 1 302.97 19.23   Z   M 300.26 46.83   A 0.33 0.33 0.0 0 0 299.66 46.63   L 285.07 66.69   A 0.33 0.33 0.0 0 0 285.33 67.22   L 299.91 67.34   A 0.33 0.33 0.0 0 0 300.24 67.01   L 300.26 46.83   Z"
       id="path102" />
    <path
       d="   M 332.42 57.26   L 332.53 91.98   A 0.51 0.51 0.0 0 1 332.02 92.50   L 319.38 92.50   A 0.62 0.62 0.0 0 1 318.76 91.88   L 318.73 19.96   A 0.63 0.63 0.0 0 1 319.36 19.33   L 333.53 19.22   A 0.75 0.75 0.0 0 1 334.23 19.67   L 355.60 67.74   A 0.31 0.31 0.0 0 0 356.17 67.74   L 377.59 19.86   A 0.91 0.89 -77.8 0 1 378.41 19.32   L 392.89 19.29   A 0.61 0.60 -0.0 0 1 393.50 19.89   L 393.50 92.00   A 0.50 0.50 0.0 0 1 393.00 92.50   L 380.25 92.50   A 0.50 0.50 0.0 0 1 379.75 92.00   L 379.75 56.99   Q 379.75 55.47 379.11 56.85   L 362.93 92.02   A 0.84 0.82 12.0 0 1 362.17 92.50   L 349.29 92.50   A 0.79 0.78 77.6 0 1 348.58 92.04   Q 342.10 77.54 335.75 63.01   Q 334.02 59.06 332.62 57.20   Q 332.42 56.94 332.42 57.26   Z"
       id="path104" />
    <rect
       x="397.74"
       y="19.31"
       width="14.26"
       height="73.18"
       rx="0.48"
       id="rect106" />
    <path
       d="   M 430.66 79.25   L 448.08 79.25   A 0.41 0.41 0.0 0 1 448.49 79.66   L 448.54 92.09   A 0.41 0.41 0.0 0 1 448.13 92.50   L 416.14 92.50   A 0.41 0.41 0.0 0 1 415.73 92.09   L 415.79 19.73   A 0.41 0.41 0.0 0 1 416.20 19.32   L 429.84 19.31   A 0.41 0.41 0.0 0 1 430.25 19.72   L 430.25 78.84   A 0.41 0.41 0.0 0 0 430.66 79.25   Z"
       id="path108" />
    <path
       d="   M 493.04 19.26   A 0.44 0.43 -76.4 0 1 493.42 19.90   Q 482.48 41.43 471.44 63.31   Q 470.30 65.58 470.21 68.07   Q 469.78 79.62 470.31 91.60   A 0.87 0.86 -1.3 0 1 469.44 92.50   L 457.04 92.50   A 0.51 0.51 0.0 0 1 456.53 91.99   Q 456.47 80.23 456.51 68.49   Q 456.52 66.28 455.52 64.30   Q 444.30 42.20 433.15 20.09   A 0.51 0.50 -13.8 0 1 433.60 19.36   L 448.10 19.20   A 0.87 0.86 76.5 0 1 448.87 19.68   L 463.18 48.49   A 0.41 0.41 0.0 0 0 463.92 48.49   L 477.79 19.83   A 0.98 0.98 0.0 0 1 478.67 19.28   L 493.04 19.26   Z"
       id="path110" />
    <path
       d="   M 709.96 56.94   L 693.70 92.32   A 0.31 0.31 0.0 0 1 693.42 92.50   L 679.91 92.50   A 0.31 0.31 0.0 0 1 679.63 92.32   L 663.84 56.89   A 0.31 0.31 0.0 0 0 663.25 57.02   L 663.25 92.19   A 0.31 0.31 0.0 0 1 662.94 92.50   L 649.81 92.50   A 0.31 0.31 0.0 0 1 649.50 92.19   L 649.50 19.55   A 0.31 0.31 0.0 0 1 649.81 19.24   L 664.83 19.28   A 0.31 0.31 0.0 0 1 665.11 19.46   L 686.45 67.78   A 0.31 0.31 0.0 0 0 687.01 67.78   L 708.60 19.44   A 0.31 0.31 0.0 0 1 708.88 19.26   L 723.94 19.28   A 0.31 0.31 0.0 0 1 724.25 19.59   L 724.25 92.19   A 0.31 0.31 0.0 0 1 723.94 92.50   L 710.78 92.50   A 0.31 0.31 0.0 0 1 710.47 92.19   L 710.55 57.07   A 0.31 0.31 0.0 0 0 709.96 56.94   Z"
       id="path112" />
    <path
       d="   M 742.74 68.07   L 742.77 91.99   A 0.51 0.51 0.0 0 1 742.26 92.50   L 729.50 92.50   A 0.50 0.50 0.0 0 1 729.00 92.00   L 729.00 20.02   A 0.51 0.51 0.0 0 1 729.49 19.51   C 738.80 19.11 756.29 16.90 766.25 24.37   C 782.00 36.17 777.21 61.54 757.99 66.54   C 753.72 67.66 748.20 67.06 743.24 67.52   A 0.56 0.55 -2.9 0 0 742.74 68.07   Z   M 755.86 52.44   C 763.80 48.87 763.31 38.39 756.63 34.71   C 753.11 32.78 747.65 33.51 743.43 33.51   A 0.65 0.65 0.0 0 0 742.78 34.17   L 743.08 52.76   A 0.45 0.45 0.0 0 0 743.52 53.21   C 747.17 53.29 752.73 53.85 755.86 52.44   Z"
       id="path114" />
    <path
       d="   M 645.41 56.72   A 37.40 37.40 0.0 0 1 608.01 94.12   A 37.40 37.40 0.0 0 1 570.61 56.72   A 37.40 37.40 0.0 0 1 608.01 19.32   A 37.40 37.40 0.0 0 1 645.41 56.72   Z   M 631.58 56.73   A 23.56 23.56 0.0 0 0 608.02 33.17   A 23.56 23.56 0.0 0 0 584.46 56.73   A 23.56 23.56 0.0 0 0 608.02 80.29   A 23.56 23.56 0.0 0 0 631.58 56.73   Z"
       id="path116" />
    <path
       d="   M 507.23 35.96   C 522.93 12.67 557.20 14.93 570.70 39.05   A 0.30 0.29 -14.7 0 1 570.44 39.49   L 554.55 39.50   A 1.36 1.36 0.0 0 1 553.71 39.21   C 544.40 31.56 531.12 31.52 522.34 39.82   C 514.87 46.87 512.86 58.66 517.73 67.53   C 525.30 81.27 541.65 83.70 554.12 74.03   A 1.39 1.37 -63.2 0 1 554.95 73.75   L 570.64 73.76   A 0.30 0.30 0.0 0 1 570.90 74.21   C 552.82 106.27 504.08 96.81 500.76 59.84   Q 499.64 47.24 507.23 35.96   Z"
       id="path118" />
    <path
       d="   M 827.80 20.80   Q 828.02 42.51 828.04 63.69   Q 828.05 73.67 826.55 78.17   C 817.88 104.13 779.59 97.52 779.71 68.74   Q 779.80 44.59 779.73 20.39   A 0.38 0.38 0.0 0 1 780.11 20.01   L 793.14 20.00   A 0.56 0.56 0.0 0 1 793.70 20.56   Q 793.79 45.19 793.74 69.74   C 793.71 83.85 813.72 84.04 813.74 70.07   Q 813.77 45.29 813.74 20.57   A 0.56 0.56 0.0 0 1 814.30 20.01   L 826.99 19.99   A 0.81 0.81 0.0 0 1 827.80 20.80   Z"
       id="path120" />
    <path
       d="   M 841.05 33.76   L 831.68 33.92   A 1.94 1.93 -90.0 0 1 829.71 31.94   L 829.89 20.67   A 0.68 0.68 0.0 0 1 830.57 20.00   L 867.87 20.00   A 0.63 0.62 0.0 0 1 868.50 20.62   L 868.50 33.16   A 0.87 0.87 0.0 0 1 867.60 34.03   L 857.56 33.70   A 1.73 1.73 0.0 0 0 855.77 35.43   L 855.74 93.09   A 0.40 0.40 0.0 0 1 855.34 93.49   L 843.00 93.50   A 1.07 1.06 -89.7 0 1 841.93 92.41   C 842.15 79.32 841.87 67.39 842.01 53.49   Q 842.11 43.93 841.70 34.37   A 0.64 0.64 0.0 0 0 841.05 33.76   Z"
       id="path122" />
    <path
       d="   M 872.18 92.65   C 871.56 68.61 871.53 44.57 871.78 20.74   A 0.74 0.74 0.0 0 1 872.52 20.01   L 909.50 20.00   A 0.75 0.75 0.0 0 1 910.25 20.75   L 910.25 32.75   A 0.75 0.75 0.0 0 1 909.50 33.50   L 886.00 33.50   A 0.50 0.50 0.0 0 0 885.50 34.00   L 885.50 50.25   A 0.75 0.75 0.0 0 0 886.25 51.00   L 909.62 51.00   A 0.63 0.63 0.0 0 1 910.25 51.63   L 910.25 63.78   A 0.78 0.78 0.0 0 1 909.47 64.56   L 886.14 64.47   A 0.64 0.64 0.0 0 0 885.50 65.11   L 885.50 79.11   A 0.62 0.61 0.5 0 0 886.11 79.72   L 909.64 79.82   A 0.62 0.62 0.0 0 1 910.25 80.45   L 910.22 92.92   A 0.58 0.58 0.0 0 1 909.64 93.50   L 873.05 93.50   A 0.87 0.87 0.0 0 1 872.18 92.65   Z"
       id="path124" />
    <path
       d="   M 927.45 56.25   L 927.53 92.86   A 0.64 0.64 0.0 0 1 926.89 93.50   L 914.38 93.50   A 0.63 0.63 0.0 0 1 913.75 92.87   L 913.75 20.32   A 0.31 0.31 0.0 0 1 914.06 20.01   Q 927.40 19.98 940.74 20.05   C 967.69 20.21 975.30 55.41 950.58 66.33   A 0.58 0.58 0.0 0 0 950.32 67.15   L 965.36 92.90   Q 965.71 93.50 965.01 93.50   L 951.38 93.50   A 1.10 1.09 74.5 0 1 950.44 92.96   L 928.78 55.89   A 0.71 0.71 0.0 0 0 927.45 56.25   Z   M 941.00 53.73   C 955.55 53.60 953.92 34.02 942.25 33.99   Q 935.16 33.98 927.99 34.03   A 0.50 0.50 0.0 0 0 927.50 34.53   L 927.50 53.03   A 0.71 0.71 0.0 0 0 928.20 53.74   Q 934.64 53.79 941.00 53.73   Z"
       id="path126" />
    <path
       d="   M 230.54 104.24   C 475.19 104.34 719.85 104.54 964.50 104.21   Q 965.01 104.21 964.57 104.47   C 959.87 107.21 953.19 111.25 947.67 111.25   Q 589.10 111.25 230.53 111.25   A 0.53 0.53 0.0 0 1 230.00 110.72   L 230.00 104.78   A 0.54 0.54 0.0 0 1 230.54 104.24   Z"
       id="path128" />
    <path
       d="   M 267.41 131.00   L 230.91 131.00   A 0.59 0.59 0.0 0 1 230.32 130.41   L 230.25 121.50   A 0.50 0.50 0.0 0 1 230.75 121.00   L 275.41 121.00   A 0.37 0.36 88.3 0 1 275.77 121.35   C 276.18 129.45 276.49 140.72 272.62 147.28   C 269.70 152.22 264.80 155.70 258.79 155.87   Q 247.21 156.19 235.64 155.84   A 0.66 0.65 89.5 0 1 235.01 155.21   L 234.69 148.15   A 0.56 0.56 0.0 0 1 235.24 147.57   Q 244.10 147.45 252.90 147.50   C 260.17 147.54 264.89 146.28 267.34 139.33   Q 268.72 135.39 267.90 131.40   A 0.50 0.50 0.0 0 0 267.41 131.00   Z"
       id="path130" />
    <rect
       x="-4.10"
       y="-11.21"
       transform="translate(367.15,132.20) rotate(-0.1)"
       width="8.20"
       height="22.42"
       rx="0.79"
       id="rect132" />
    <path
       d="   M 400.72 132.74   Q 400.78 127.32 400.76 121.82   A 0.70 0.70 0.0 0 1 401.45 121.12   L 406.89 121.01   A 0.59 0.59 0.0 0 1 407.49 121.62   C 407.33 128.92 408.35 139.62 405.90 145.60   C 403.43 151.63 398.35 155.50 391.65 155.78   Q 380.92 156.24 370.32 155.91   A 0.67 0.66 -88.3 0 1 369.68 155.22   L 369.97 148.06   A 0.55 0.55 0.0 0 1 370.52 147.53   Q 380.25 147.46 390.01 147.52   C 397.06 147.56 400.66 138.66 400.72 132.74   Z"
       id="path134" />
    <path
       d="   M 505.89 131.12   L 471.15 131.06   A 0.61 0.61 0.0 0 1 470.54 130.45   L 470.49 121.61   A 0.61 0.61 0.0 0 1 471.10 121.00   L 513.41 121.00   A 0.61 0.61 0.0 0 1 514.02 121.61   L 513.99 155.39   A 0.61 0.61 0.0 0 1 513.38 156.00   L 469.86 156.00   A 0.61 0.61 0.0 0 1 469.25 155.39   L 469.25 148.11   A 0.61 0.61 0.0 0 1 469.86 147.50   L 505.89 147.50   A 0.61 0.61 0.0 0 0 506.50 146.89   L 506.50 131.73   A 0.61 0.61 0.0 0 0 505.89 131.12   Z"
       id="path136" />
    <rect
       x="-13.16"
       y="-4.93"
       transform="translate(530.07,125.93) rotate(-0.2)"
       width="26.32"
       height="9.86"
       rx="0.85"
       id="rect138" />
    <path
       d="   M 517.57 155.76   A 0.84 0.84 0.0 0 1 516.75 154.92   L 516.75 148.11   A 0.55 0.54 -0.5 0 1 517.29 147.57   Q 529.67 147.40 541.98 147.55   C 556.38 147.71 555.33 132.51 555.27 121.62   A 0.58 0.58 0.0 0 1 555.85 121.04   L 561.14 121.04   A 0.59 0.59 0.0 0 1 561.73 121.62   C 561.77 128.99 562.75 139.52 560.31 145.47   C 557.61 152.06 552.21 155.67 544.94 155.87   Q 532.03 156.21 517.57 155.76   Z"
       id="path140" />
    <path
       d="   M 570.78 140.82   C 570.61 146.07 573.62 147.56 578.50 147.53   Q 593.18 147.45 607.87 147.52   A 0.64 0.64 0.0 0 1 608.50 148.16   L 608.50 155.39   A 0.62 0.62 0.0 0 1 607.88 156.01   Q 590.29 155.97 572.75 156.02   C 566.07 156.04 564.10 150.99 564.04 145.27   Q 563.94 133.45 564.03 121.56   A 0.47 0.46 1.2 0 1 564.52 121.10   L 570.04 121.31   A 0.48 0.47 -89.4 0 1 570.50 121.79   L 570.50 129.90   A 0.54 0.54 0.0 0 0 571.05 130.44   Q 582.22 130.36 593.30 130.48   C 595.71 130.51 595.19 133.47 597.59 132.67   A 0.31 0.31 0.0 0 0 597.71 132.15   Q 593.78 128.48 596.78 124.31   C 601.26 118.08 611.43 125.11 605.53 131.80   C 605.26 132.10 605.14 132.33 605.32 132.68   A 0.51 0.51 0.0 0 0 605.83 132.95   L 608.19 132.71   A 0.68 0.68 0.0 0 1 608.94 133.38   L 609.02 139.34   A 0.62 0.62 0.0 0 1 608.43 139.97   C 596.09 140.56 583.66 140.22 571.31 140.31   A 0.53 0.53 0.0 0 0 570.78 140.82   Z   M 604.54 127.63   A 3.00 3.00 0.0 0 0 601.54 124.63   A 3.00 3.00 0.0 0 0 598.54 127.63   A 3.00 3.00 0.0 0 0 601.54 130.63   A 3.00 3.00 0.0 0 0 604.54 127.63   Z"
       id="path142" />
    <path
       d="   M 722.96 144.71   L 701.40 144.82   A 0.67 0.66 -0.0 0 1 700.72 144.15   L 700.82 135.84   A 0.59 0.59 0.0 0 1 701.41 135.25   L 724.25 135.25   A 0.82 0.81 87.7 0 0 725.06 134.37   Q 724.85 131.72 721.56 131.69   Q 711.00 131.61 700.42 131.83   A 0.71 0.71 0.0 0 0 699.76 132.31   C 698.05 137.60 694.62 142.20 688.81 143.10   A 0.43 0.43 0.0 0 1 688.31 142.69   L 688.07 133.96   A 0.83 0.83 0.0 0 1 688.46 133.24   C 693.64 129.97 694.14 127.73 694.04 121.74   A 0.47 0.46 -0.6 0 1 694.51 121.27   L 731.83 121.22   A 0.55 0.55 0.0 0 1 732.38 121.76   Q 732.56 131.31 732.52 140.85   C 732.49 150.71 727.80 155.95 717.80 155.98   Q 704.80 156.03 691.77 155.98   A 0.53 0.52 0.6 0 1 691.25 155.46   L 691.25 148.11   A 0.55 0.55 0.0 0 1 691.79 147.56   Q 703.31 147.45 714.74 147.52   Q 719.03 147.55 723.19 145.89   A 0.61 0.61 0.0 0 0 722.96 144.71   Z"
       id="path144" />
    <rect
       x="-22.45"
       y="-4.48"
       transform="translate(338.77,128.42) rotate(6.2)"
       width="44.90"
       height="8.96"
       rx="0.26"
       id="rect146" />
    <path
       d="   M 307.19 139.06   Q 305.21 138.07 303.00 138.05   Q 290.90 137.92 278.66 138.03   A 1.20 1.19 0.5 0 1 277.45 136.81   L 277.63 129.67   A 0.69 0.69 0.0 0 1 278.32 129.00   L 313.76 129.00   A 0.62 0.62 0.0 0 1 314.38 129.58   C 315.27 142.50 315.01 148.98 300.12 148.20   A 1.40 1.40 0.0 0 0 298.65 149.53   C 298.45 153.68 295.96 155.77 291.73 155.76   Q 285.02 155.75 278.37 155.74   A 0.63 0.63 0.0 0 1 277.75 155.11   L 277.75 148.13   A 0.63 0.62 -90.0 0 1 278.37 147.50   L 290.40 147.49   A 1.84 1.83 2.2 0 0 292.23 145.80   L 292.57 141.17   A 1.27 1.26 2.0 0 1 293.82 140.01   L 306.97 139.99   A 0.49 0.49 0.0 0 0 307.19 139.06   Z"
       id="path148" />
    <path
       d="   M 632.77 139.50   L 614.55 139.50   A 0.55 0.55 0.0 0 1 614.00 138.96   L 613.87 131.06   A 0.55 0.55 0.0 0 1 614.42 130.50   L 639.45 130.33   A 0.55 0.55 0.0 0 1 640.00 130.88   L 640.00 146.94   A 0.55 0.55 0.0 0 0 640.55 147.49   L 646.71 147.52   A 0.55 0.55 0.0 0 1 647.26 148.07   L 647.23 155.38   A 0.55 0.55 0.0 0 1 646.68 155.93   L 611.03 155.82   A 0.55 0.55 0.0 0 1 610.48 155.27   L 610.55 148.05   A 0.55 0.55 0.0 0 1 611.10 147.50   L 632.88 147.50   A 0.55 0.55 0.0 0 0 633.43 146.94   L 633.32 140.04   A 0.55 0.55 0.0 0 0 632.77 139.50   Z"
       id="path150" />
    <rect
       x="-22.42"
       y="-4.50"
       transform="translate(338.74,138.54) rotate(6.2)"
       width="44.84"
       height="9.00"
       rx="0.26"
       id="rect152" />
    <rect
       x="410.25"
       y="134.50"
       width="42.76"
       height="8.76"
       rx="0.59"
       id="rect154" />
    <rect
       x="642.51"
       y="134.50"
       width="43.24"
       height="8.76"
       rx="0.82"
       id="rect156" />
    <rect
       x="-22.42"
       y="-4.49"
       transform="translate(338.76,148.98) rotate(6.1)"
       width="44.84"
       height="8.98"
       rx="0.27"
       id="rect158" />
  </g>
  <g
     fill="#000000"
     id="g174">
    <circle
       cx="106.30"
       cy="37.19"
       r="19.11"
       id="circle162" />
    <circle
       cx="188.24"
       cy="37.18"
       r="19.12"
       id="circle164" />
    <rect
       x="-12.22"
       y="-73.21"
       transform="translate(49.42,88.73) rotate(18.2)"
       width="24.44"
       height="146.42"
       rx="12.04"
       id="rect166" />
    <rect
       x="-12.25"
       y="-73.17"
       transform="translate(131.39,88.71) rotate(18.2)"
       width="24.50"
       height="146.34"
       rx="12.06"
       id="rect168" />
    <circle
       cx="92.05"
       cy="80.49"
       r="19.12"
       id="circle170" />
    <circle
       cx="173.97"
       cy="80.50"
       r="19.12"
       id="circle172" />
  </g>
</svg>
