<?xml version='1.0' encoding='utf-8'?>
<svg xmlns="http://www.w3.org/2000/svg" version="1.1" viewBox="0 0 2634.4062 1123.5745" id="svg3" width="600" height="255.90005823703268">
    <defs id="defs3">
        <rect x="1231.2153" y="-979.10931" width="1547.8135" height="193.47668" id="rect8"/>
        <rect x="1330.8851" y="-996.69806" width="1207.7635" height="234.5172" id="rect4"/>
    </defs>
    <g fill="#ff0000" id="g3" transform="matrix(0.20941049,0,0,0.20941049,536.68128,40.013658)" style="stroke:#ffffff;stroke-width:382.025;stroke-linecap:round;stroke-linejoin:round;stroke-dasharray:none;stroke-opacity:1;paint-order:markers stroke fill">
        <g id="path32" style="opacity:1">
            <path style="baseline-shift:baseline;display:inline;overflow:visible;vector-effect:none;fill:#ffffff;stroke:none;enable-background:accumulate;stop-color:#000000;stop-opacity:1" d="m 2340.3984,-191.07812 c -91.1092,0 -168.756,54.45096 -203.7988,97.402339 -35.0428,42.951375 -49.3418,89.6953123 -49.3418,89.6953122 a 191.0316,191.0316 0 0 0 -4.9844,18.8476568 L 1861.4004,1064.0293 C 1774.5086,971.77986 1639.5377,828.58207 1468.1582,647.47266 1343.6329,515.87752 1216.2952,381.66917 1114.1914,274.84961 1012.0876,168.03004 946.07076,98.339072 905.81641,60.964844 a 191.0316,191.0316 0 0 0 -0.006,-0.0059 C 847.67375,6.9864104 792.90985,-38.551309 734.11133,-74.378906 704.71207,-92.292705 675.20701,-108.80637 630.80859,-120.35352 c -44.39841,-11.54714 -126.86405,-20.62096 -201.1582,38.984379 a 191.0316,191.0316 0 0 0 -23.98242,22.935547 L -71.101562,484.38477 c -39.004148,40.90344 -74.001958,104.52629 -74.001958,173.33984 0,151.60805 97.846229,203.11979 130.050786,215.99414 13.1518639,10.35683 30.590048,24.17262 49.847656,39.72461 17.894274,14.45099 36.254967,29.55106 49.84375,41.18164 0.213141,0.18243 0.418573,0.40189 0.632812,0.58789 -1.939118,6.56523 11.751396,45.43501 9.88086,86.68751 -2.560881,56.4772 -12.726563,105.3828 -12.726563,105.3828 a 191.0316,191.0316 0 0 0 -1.351562,6.8945 l -266.669919,1506.7032 0.33789,-1.8555 c -3.45436,18.454 -5.76953,37.4694 -5.76953,58.7891 0,33.1301 5.32223,74.7442 30.73632,118.1464 25.41409,43.4023 74.063967,79.789 115.433598,93.3321 82.739263,27.0862 139.167969,-2.2344 139.167969,-2.2344 a 191.0316,191.0316 0 0 0 7.765623,-3.0117 l 613.33789,-253.3242 a 191.0316,191.0316 0 0 0 17.55469,-8.3184 c 10.13973,-5.4531 32.24947,-10.6115 70.56836,-52.0547 38.31889,-41.4432 56.7207,-115.2157 56.7207,-148.7793 0,-75.0061 -26.61365,-104.6234 -41.53515,-125.6367 -14.92151,-21.0134 -27.04729,-32.901 -37.48438,-42.8848 -12.89243,-12.3324 -23.02598,-20.5364 -30.31055,-26.1718 -7.56939,-6.6699 -175.3561,-154.5426 -207.71093,-183.2579 -0.0375,-0.8789 -0.10547,-1.0332 -0.10547,-2.2187 0,-15.1789 2.82617,-27.3496 2.82617,-27.3496 a 191.0316,191.0316 0 0 0 2.92383,-11.3731 l 99.7207,-444.1875 1051.64067,1169.7696 c 59.0536,69.5922 126.4986,134.3359 244.0312,134.3359 73.3732,0 142.2273,-40.8666 177.3027,-78.9961 35.0755,-38.1295 49.6401,-72.4346 60.1485,-100.5859 14.7782,-39.5899 20.5089,-73.5465 22.75,-90.791 L 2600.5293,757.49219 c 5.7581,-15.63505 13.6135,-23.21874 14.9062,-24.38086 l 340.5333,-209.55078 -4.9883,2.96484 c 55.4225,-31.82541 130.5898,-105.81936 130.5898,-207.61523 0,-117.77248 -67.5646,-164.66767 -99.4531,-188.90235 -20.2019,-15.35304 -38.4331,-25.37685 -49.7442,-31.078123 L 2511.6953,-137.69531 c -50.2832,-31.37695 -107.9163,-53.38281 -171.2969,-53.38281 z m 82.6172,441.81445 129.2364,72.69336 -143.1719,88.10351 a 191.0316,191.0316 0 0 0 -6.6797,4.30469 c 0,0 -6.7776,4.66265 -16.8106,12.66797 z m -1823.78123,49.3457 c 14.75679,12.29167 30.28532,25.65129 46.65625,40.84961 4.50639,4.18469 90.85797,91.92426 192.14063,197.88477 101.28758,105.96565 228.35585,239.88942 352.64255,371.23242 246.8443,260.85867 480.7084,509.40537 483.9785,512.88087 6.8626,8.1649 26.5079,31.2263 56.0821,60.043 17.6822,17.2292 37.6221,35.7309 65.0019,55.0253 27.3799,19.2944 55.8224,51.0977 147.0723,51.0977 24.3991,0 60.7659,-8.8081 96.7617,-24.5703 L 1866.8281,2382.1641 797.87305,1193.1367 c -5.99253,-6.6658 -22.00751,-28.069 -51.71875,-55.498 -29.71124,-27.4291 -83.41705,-73.5196 -175.48243,-73.5196 -26.8811,0 -62.0117,10.4063 -95.85937,26.7989 0.78822,-10.2972 1.48061,-20.8613 1.97266,-31.7129 4.19768,-92.57498 17.60835,-213.60814 -87.11914,-340.17385 l -0.004,-0.006 c -29.26421,-35.36691 -38.27966,-38.9431 -56.61328,-54.63477 -9.89216,-8.46665 -20.37802,-17.20515 -31.00196,-25.95117 z M 2755.9531,437.60547 a 191.0316,191.0316 0 0 0 8.0938,4.08984 c 0,0 -3.1069,-0.96043 -8.0938,-4.08984 z M 169.67969,537.51758 c 0,0 28.17933,0.54416 48.05664,33.26953 -9.08876,-7.13986 -17.93946,-14.06641 -17.93946,-14.06641 A 191.0316,191.0316 0 0 0 169.67969,537.51758 Z M 2004.5137,1215.8984 c 10.5798,4.87 11.4102,9.9132 11.2812,9.8223 -0.1767,-0.1245 -5.3213,-4.4727 -11.2812,-9.8223 z M 554.9707,2323.0723 c 0.73929,-0.2512 0.7739,-0.016 0.49219,0.3867 l -4.31055,1.7812 c 1.70795,-1.1166 3.09917,-1.9236 3.81836,-2.1679 z m -295.98437,17.9082 c 5.02008,5.1385 10.22036,10.2244 15.75,15.1992 a 191.0316,191.0316 0 0 0 0.006,0 c 8.07249,7.262 40.68507,35.9791 64.16406,56.7207 l -99.95703,41.2832 z m 1742.75387,189.8906 c 4.631,2.4931 4.2687,3.2687 0,0 z m -2029.314419,33.3984 -2.820312,1.166 c 1.145095,-0.4972 1.220572,-0.5696 2.820312,-1.166 z m 543.753909,3.8985 a 191.0316,191.0316 0 0 0 0.28515,0.2285 c 0,0 1.53407,1.5097 0.70313,0.7148 -0.0876,-0.084 -0.71629,-0.7111 -0.98828,-0.9433 z" id="path1"/>
            <path style="baseline-shift:baseline;display:inline;overflow:visible;vector-effect:none;stroke:none;enable-background:accumulate;stop-color:#000000;stop-opacity:1" d="m 2340.3991,-0.06512329 c -53.846,0 -71.21,54.28184329 -71.21,54.28184329 L 2002.5179,1320.9143 c -12.624,57.253 -18.93,77.1698 -59.71,77.1698 -40.783,0 -126.9561,-103.835 -126.9561,-103.835 0,0 -950.49497,-1010.20152 -1040.00097,-1093.30352 C 671.31083,103.89358 579.59516,43.219299 549.18216,67.619299 L 69.160913,614.14047 c -17.1611,16.269 -23.251656,30.94103 -23.251656,43.58403 0,30.98 36.588947,49.74903 36.588947,49.74903 0,0 139.484866,108.53128 160.000866,133.32628 80.365,97.12 26.66525,346.66699 26.66525,346.66699 L 2.4931088,2694.1704 c -1.75376005,9.369 -2.50890314,17.1633 -2.50890314,23.6433 0,40.273 29.17415934,29.6872 29.17415934,29.6872 L 642.49657,2494.1763 c 19.7789,-10.637 26.74919,-14.4994 26.74919,-32.6064 0,-18.107 -40.08649,-47.3987 -40.08649,-47.3987 0,0 -204.01066,-179.6111 -226.66866,-199.9941 -40.006,-35.992 -50.39258,-88.596 -50.39258,-132.776 0,-44.747 10.39003,-80.5647 10.39003,-80.5647 l 146.6729,-653.3314 c 15.669,-69.797 28.64009,-92.3724 61.51009,-92.3724 32.87,0 61.18348,39.0441 85.15348,65.7071 L 1842.5264,2640.8398 c 43.935,52.215 76.9671,70.7436 101.7271,70.7436 60.531,0 71.6017,-110.7368 71.6017,-110.7368 L 2415.8527,707.54814 c 26.424,-88.222 93.3331,-133.33561 93.3331,-133.33561 l 346.6763,-213.33137 c 25.7213,-14.77 34.6956,-29.1225 34.6956,-41.9705 0,-29.717 -48.0329,-51.36256 -48.0329,-51.36256 L 2415.8527,27.551464 c -30.756,-20.2306998 -55.5876,-27.61658729 -75.4536,-27.61658729 z" id="path2"/>
        </g>
        <g id="path3" style="opacity:1">
            <path style="baseline-shift:baseline;display:inline;overflow:visible;vector-effect:none;fill:#ffffff;stroke:none;enable-background:accumulate;stop-color:#000000;stop-opacity:1" d="m 2340.3984,-191.07812 c -91.1092,0 -168.756,54.45096 -203.7988,97.402339 -35.0428,42.951375 -49.3418,89.6953123 -49.3418,89.6953122 a 191.0316,191.0316 0 0 0 -4.9844,18.8476568 L 1861.4004,1064.0293 C 1774.5086,971.77986 1639.5377,828.58207 1468.1582,647.47266 1343.6329,515.87752 1216.2952,381.66917 1114.1914,274.84961 1012.0876,168.03004 946.07076,98.339072 905.81641,60.964844 a 191.0316,191.0316 0 0 0 -0.006,-0.0059 C 847.67375,6.9864104 792.90985,-38.551309 734.11133,-74.378906 704.71207,-92.292705 675.20701,-108.80637 630.80859,-120.35352 c -44.39841,-11.54714 -126.86405,-20.62096 -201.1582,38.984379 a 191.0316,191.0316 0 0 0 -23.98242,22.935547 L -71.101562,484.38477 c -39.004148,40.90344 -74.001958,104.52629 -74.001958,173.33984 0,151.60805 97.846229,203.11979 130.050786,215.99414 13.1518639,10.35683 30.590048,24.17262 49.847656,39.72461 17.894274,14.45099 36.254967,29.55106 49.84375,41.18164 0.213141,0.18243 0.418573,0.40189 0.632812,0.58789 -1.939118,6.56523 11.751396,45.43501 9.88086,86.68751 -2.560881,56.4772 -12.726563,105.3828 -12.726563,105.3828 a 191.0316,191.0316 0 0 0 -1.351562,6.8945 l -266.669919,1506.7032 0.33789,-1.8555 c -3.45436,18.454 -5.76953,37.4694 -5.76953,58.7891 0,33.1301 5.32223,74.7442 30.73632,118.1464 25.41409,43.4023 74.063967,79.789 115.433598,93.3321 82.739263,27.0862 139.167969,-2.2344 139.167969,-2.2344 a 191.0316,191.0316 0 0 0 7.765623,-3.0117 l 613.33789,-253.3242 a 191.0316,191.0316 0 0 0 17.55469,-8.3184 c 10.13973,-5.4531 32.24947,-10.6115 70.56836,-52.0547 38.31889,-41.4432 56.7207,-115.2157 56.7207,-148.7793 0,-75.0061 -26.61365,-104.6234 -41.53515,-125.6367 -14.92151,-21.0134 -27.04729,-32.901 -37.48438,-42.8848 -12.89243,-12.3324 -23.02598,-20.5364 -30.31055,-26.1718 -7.56939,-6.6699 -175.3561,-154.5426 -207.71093,-183.2579 -0.0375,-0.8789 -0.10547,-1.0332 -0.10547,-2.2187 0,-15.1789 2.82617,-27.3496 2.82617,-27.3496 a 191.0316,191.0316 0 0 0 2.92383,-11.3731 l 99.7207,-444.1875 1051.64067,1169.7696 c 59.0536,69.5922 126.4986,134.3359 244.0312,134.3359 73.3732,0 142.2273,-40.8666 177.3027,-78.9961 35.0755,-38.1295 49.6401,-72.4346 60.1485,-100.5859 14.7782,-39.5899 20.5089,-73.5465 22.75,-90.791 L 2600.5293,757.49219 c 5.7581,-15.63505 13.6135,-23.21874 14.9062,-24.38086 l 333.2227,-205.05274 c -34.9272,183.02956 -111.0054,545.38111 -134.9121,658.80661 -44.6353,5.1852 -83.4277,12.5803 -128.8438,33.711 -26.5824,12.3679 -58.5544,29.7872 -89.5703,70.4785 -31.0158,40.6913 -50.4643,113.9556 -38.2558,170.293 24.417,112.6748 86.1159,134.6877 123.9648,155.0058 16.2381,8.717 31.9594,15.5937 47.6133,21.2891 -29.4125,154.2364 -165.9785,775.1855 -165.9785,775.1855 l 0.9765,-4.166 c 0,0 18.3961,23.1115 -44.6523,28.6797 -65.391,5.7756 -120.7537,17.4603 -176.2344,48.9609 -55.4807,31.5006 -123.8672,99.0379 -123.8672,200.5918 0,86.5 48.0429,145.3081 91.4102,177.3692 43.3673,32.061 90.8645,47.6953 145.4902,47.6953 h 2106.6504 c 11.4943,0.2888 63.8439,0.5271 126.9453,-18.5059 71.0539,-21.4316 189.0568,-90.4245 219.3516,-223.414 a 191.0316,191.0316 0 0 0 0.5898,-2.6758 l 120.6016,-566.8613 c 123.0406,339.9122 361.7353,561.4555 597.418,683.707 335.7051,174.1344 642.0878,181.0527 708.4492,181.0527 76.5376,0 392.2358,22.4423 639.3047,-175.1699 a 191.0316,191.0316 0 0 0 0,-0 c 41.0948,-32.8702 35.843,-37.0074 40.9688,-44.3964 5.1258,-7.3891 8.4001,-12.7062 11.7695,-18.25 6.7389,-11.0878 13.1913,-22.4722 20.6992,-36.0235 15.0158,-27.1026 33.606,-62.0225 55.1504,-103.166 43.0889,-82.287 97.5492,-188.7609 151.2676,-294.625 107.4368,-211.7281 211.7441,-420.7461 211.7441,-420.7461 l -3.0703,5.8926 c 0,0 9.7281,-17.7188 18.3926,-39.9629 8.6645,-22.2441 24.8216,-47.8746 19.5566,-117.2832 -2.6324,-34.7043 -16.2648,-90.195 -62.2675,-135.0664 -46.0028,-44.8714 -110.2143,-59.7596 -151.4649,-59.1797 -82.5012,1.1599 -117.8411,26.4756 -166.8281,54.4707 -430.4394,245.9718 -710.9862,252.601 -871.2363,182.5762 -160.2506,-70.0251 -252.4935,-230.3864 -270.2618,-458.2559 -7.1306,-91.4421 9.1283,-417.2439 363.2735,-635.96678 a 191.0316,191.0316 0 0 0 0,0 c 152.4165,-94.13528 259.168,-143.79879 292.9024,-153.55469 4.2677,5.08113 9.8622,12.27483 17.3691,24.47461 a 191.0316,191.0316 0 0 0 0,0.002 c 145.3854,236.26052 249.582,350.09179 249.582,350.09179 a 191.0316,191.0316 0 0 0 7.4766,7.58985 c -7.5467,-7.24567 1.6853,7.70324 37.1836,39.21484 35.4983,31.5116 110.161,65.83202 174.9629,65.83202 56.6822,0 88.0939,-13.24144 112.4609,-21.15233 113.1927,-36.74846 182.9222,-47.10057 271.8516,-96.66602 44.4646,-24.78272 107.8127,-78.66493 129.4726,-157.2832 20.7846,-75.44103 3.1309,-135.08302 -13.9082,-179.11133 l -186.0742,-531.685545 7.8652,30.183594 c 0,0 -8.4968,-35.133086 -17.4883,-53.7167971 -8.9914,-18.5837119 -21.2931,-36.9193109 -35.9785,-53.3144529 -29.3706,-32.790284 -66.8407,-57.291579 -109.8008,-75.671879 -85.92,-36.7606 -197.1602,-55.40039 -384.8828,-55.40039 -251.5515,0 -688.9415,109.722184 -1119.7812,382.53907 -161.5479,102.29557 -319.5107,231.67402 -453.6035,388.8496 22.8539,-106.83896 41.1928,-196.74923 52.1601,-269.66406 9.2471,-61.47796 16.5496,-109.84854 8.1387,-174.41797 -4.2055,-32.28471 -11.5849,-73.157377 -46.7012,-120.042965 -35.1163,-46.885588 -108.7217,-84.380856 -164.3808,-87.046875 a 191.0316,191.0316 0 0 0 -9.1387,-0.21875 H 2992.7676 c -4.163,-0.255336 -30.4825,-1.500266 -68.1113,6.236328 -20.4579,4.20618 -47.1074,9.166851 -85.9434,35.246094 -14.9502,10.039368 -32.103,26.9165312 -47.5723,48.068359 L 2511.6953,-137.69531 c -50.2832,-31.37695 -107.9163,-53.38281 -171.2969,-53.38281 z m 4555.4043,383.04296 c 102.5412,0 167.0147,8.9287 202.1153,16.125 l 130.957,374.19532 c -20.0516,6.66956 -43.2441,14.29437 -68.7109,22.6582 -30.1757,-36.84887 -91.2386,-117.08105 -181.7227,-264.12305 l -0,-0.004 c -33.1652,-53.89724 -73.568,-105.58997 -130.2208,-145.17188 19.3889,-2.33191 35.8648,-3.67969 47.584,-3.67969 z m -4472.7871,58.77149 129.2364,72.69336 -143.1719,88.10351 a 191.0316,191.0316 0 0 0 -6.6797,4.30469 c 0,0 -6.7776,4.66265 -16.8106,12.66797 z m -1823.78123,49.3457 c 14.75679,12.29167 30.28532,25.65129 46.65625,40.84961 4.50639,4.18469 90.85797,91.92426 192.14063,197.88477 101.28758,105.96565 228.35585,239.88942 352.64255,371.23242 246.8443,260.85867 480.7084,509.40537 483.9785,512.88087 6.8626,8.1649 26.5079,31.2263 56.0821,60.043 17.6822,17.2292 37.6221,35.7309 65.0019,55.0253 27.3799,19.2944 55.8224,51.0977 147.0723,51.0977 24.3991,0 60.7659,-8.8081 96.7617,-24.5703 L 1866.8281,2382.1641 797.87305,1193.1367 c -5.99253,-6.6658 -22.00751,-28.069 -51.71875,-55.498 -29.71124,-27.4291 -83.41705,-73.5196 -175.48243,-73.5196 -26.8811,0 -62.0117,10.4063 -95.85937,26.7989 0.78822,-10.2972 1.48061,-20.8613 1.97266,-31.7129 4.19768,-92.57498 17.60835,-213.60814 -87.11914,-340.17385 l -0.004,-0.006 c -29.26421,-35.36691 -38.27966,-38.9431 -56.61328,-54.63477 -9.89216,-8.46665 -20.37802,-17.20515 -31.00196,-25.95117 z m 2741.26173,11.88086 h 464.4336 a 191.0316,191.0316 0 0 0 -2.6856,9.64258 l -160.0019,760.00193 a 191.0316,191.0316 0 0 0 0,0 c -11.7448,55.7911 -19.6358,103.6121 -17.8652,158.1777 1.3567,41.8125 10.2364,97.5318 44.0664,148.1817 -12.9488,8.6684 -24.602,18.0663 -34.3594,28.1914 -71.4883,74.1816 -84.6406,156.3125 -84.6406,156.3125 a 191.0316,191.0316 0 0 0 -0.082,0.3671 l -186.6758,840.0079 c -8.7456,39.355 -5.3522,79.6648 4.9727,117.0878 h -445.1016 c 8.1647,-18.4187 12.0625,-30.0273 12.0625,-30.0273 a 191.0316,191.0316 0 0 0 0.9766,-4.166 c 0,0 147.1063,-654.3251 175.2832,-823.3867 a 191.0316,191.0316 0 0 0 0,-0 c 12.3217,-73.9406 1.7216,-149.1416 -24.6992,-211.0352 53.229,-52.5579 78.5508,-105.1836 78.5508,-105.1836 a 191.0316,191.0316 0 0 0 11.2422,-35.4707 c 0,0 128.9974,-604.20091 161.4472,-794.21679 12.4185,-72.71788 18.3184,-145.08309 3.0762,-214.48242 z m 1615.7402,0 h 30.7989 c -1.8119,9.88661 -3.635,19.83746 -5.7286,30.68555 -8.3926,-10.68754 -16.7564,-20.94885 -25.0703,-30.68555 z M 2755.9531,437.60547 a 191.0316,191.0316 0 0 0 8.0938,4.08984 c 0,0 -3.1069,-0.96043 -8.0938,-4.08984 z m 1399.4219,61.02344 h 449.5293 c 9.5584,8.04801 22.9528,20.52059 41.9199,40.38281 52.5138,54.99194 127.0673,157.42634 186.9063,346.29883 a 191.0316,191.0316 0 0 0 0,0.002 c 11.3949,35.9654 18.1855,80.94446 91.332,131.6816 28.6588,19.8789 73.0526,34.6568 115.8301,35.8887 -62.0584,164.8305 -97.5859,347.8521 -96.0977,549.4785 a 191.0316,191.0316 0 0 0 0,0.01 c 0.3447,46.459 2.7182,91.3612 6.5684,135.0664 -49.4693,-37.4553 -143.5083,-52.6649 -199.8535,-32.918 -116.0836,40.683 -129.6905,96.6611 -166.6602,159.0254 a 191.0316,191.0316 0 0 0 -0,0 c -7.0705,11.9277 -19.3964,31.4473 -35.2793,55.3184 28.162,-87.0188 47.9611,-200.4889 81.1367,-391.9746 45.7798,-264.2355 89.5466,-432.0418 99.5508,-563.91604 2.501,-32.96855 8.6255,-62.58129 -11.0821,-123.28321 -9.8538,-30.35095 -31.2839,-75.80457 -81.2851,-109.94922 -50.0012,-34.14464 -116.7126,-39.42503 -156.8008,-31.48632 -80.1764,15.8774 -100.9938,44.77587 -127.8945,68.22265 -26.9007,23.44679 -51.1573,48.84414 -79.0723,79.73047 a 191.0316,191.0316 0 0 0 -0,0.002 c -83.8827,92.81373 -167.141,153.94892 -232.5546,193.01952 z M 169.67969,537.51758 c 0,0 28.17933,0.54416 48.05664,33.26953 -9.08876,-7.13986 -17.93946,-14.06641 -17.93946,-14.06641 a 191.0316,191.0316 0 0 0 -30.11718,-19.20312 z m 5658.82621,83.93945 c -209.2508,265.71169 -241.9246,559.39547 -229.8438,714.31637 25.4318,326.1506 186.0863,642.2507 498.1621,778.6192 227.1519,99.2591 506.8756,95.9169 831.4043,-21.2637 -5.0923,10.0506 -8.8213,17.5484 -13.9375,27.6309 -53.3386,105.1156 -107.407,210.7985 -149.0254,290.2773 -20.8092,39.7394 -38.6171,73.1053 -50.8828,95.2442 -0.052,0.093 -0.058,0.099 -0.1094,0.1914 -98.1433,55.6406 -311.5487,76.7656 -378.4687,76.7656 3.2614,0 -286.1343,-10.3313 -532.543,-138.1465 -246.4074,-127.8146 -472.6946,-339.2294 -476.4531,-845.5508 v -0.01 c 0,-7e-4 0,-0 0,-0 -3.2851,-445.4185 212.6722,-754.55557 501.6973,-978.07617 z m 1435.5878,61.11914 a 191.0316,191.0316 0 0 0 0.7618,2.03906 c 1.3502,3.40774 0.3633,2.6051 -0.7618,-2.03906 z m -2367.3593,60.30664 c -0.3514,1.63366 -0.6356,2.93807 -0.9883,4.57813 -1.8559,8.61565 -20.9891,19.09126 0.9883,-4.57813 z m 294.2422,6.10938 c 0.9036,1.47699 1.8836,2.96631 2.5625,4.29297 -0.2542,0.38879 -0.4962,0.78867 -0.75,1.17773 -0.6003,-1.83517 -1.2088,-3.64536 -1.8125,-5.4707 z m -842.5782,176.69726 c 0.4685,0.36918 1.2775,3.77715 0.9278,8.38672 -0.01,0.0729 -0.031,0.22917 -0.037,0.30274 -1.3837,-6.47986 -1.3291,-9.03494 -0.8907,-8.68946 z m 258.1739,127.35745 c 2.8552,-0.8769 2.6742,2.7328 -9.1993,8.0078 2.1005,-1.9898 5.4879,-5.4219 6.8301,-6.5918 0.8583,-0.7481 1.69,-1.2074 2.3692,-1.416 z m -2602.0586,162.8515 c 10.5798,4.87 11.4102,9.9132 11.2812,9.8223 -0.1767,-0.1245 -5.3213,-4.4727 -11.2812,-9.8223 z m 2270.8535,127.2012 c -6.8818,37.9366 -13.8977,77.1165 -21.0801,118.5723 -3.799,21.9275 -7.5968,42.5762 -11.3809,62.6406 -38.0285,-37.0592 -78.3127,-69.137 -120.1875,-96.9824 41.6289,-19.1068 93.936,-46.3784 152.6485,-84.2305 z M 2779.1855,1652.084 c 4.1947,0.9385 8.3186,2.0109 12.5762,2.8594 -4.8939,-0.9757 -8.9319,-1.9194 -12.5762,-2.8594 z m 1143.0215,4.0019 c 0,0 1.4148,3.6826 -2.4824,11.1719 z m 3203.7344,44.1895 a 191.0316,191.0316 0 0 0 -1.0527,2.0215 c 0,0 -3.3365,6.6628 -3.4825,6.9551 1.7042,-7.397 4.0719,-8.1873 4.5352,-8.9766 z m -3221.8457,37.3047 c 85.1033,46.2258 136.5869,103.9652 202.8164,258.5801 8.9934,20.996 -3.5408,60.9647 99.125,123.0175 42.8133,25.8771 124.8516,30.8953 182.252,12.6582 -10.2978,11.8445 -20.7344,23.6058 -31.3789,35.0899 -108.6961,117.2691 -238.8661,189.6797 -274.418,189.6797 h -315.9629 z m 544,85.5195 c 28.6551,24.5461 12.692,28.9704 9.9824,22.6445 a 191.0316,191.0316 0 0 0 0,-0 c -3.2725,-7.6398 -6.6026,-15.1827 -9.9824,-22.6426 z m 2882.0332,82.5977 c 2.4977,-0.3626 0.8789,0.5437 -5.6914,1.5332 2.4672,-0.8033 4.5479,-1.3672 5.6914,-1.5332 z M 4935.209,2036.7578 c 1.387,0.1622 -1.7173,3.7126 -13.002,9.7246 6.2316,-6.8522 11.6736,-9.8799 13.002,-9.7246 z M 554.9707,2323.0723 c 0.73929,-0.2512 0.7739,-0.016 0.49219,0.3867 l -4.31055,1.7812 c 1.70795,-1.1166 3.09917,-1.9236 3.81836,-2.1679 z m -295.98437,17.9082 c 5.02008,5.1385 10.22036,10.2244 15.75,15.1992 a 191.0316,191.0316 0 0 0 0.006,0 c 8.07249,7.262 40.68507,35.9791 64.16406,56.7207 l -99.95703,41.2832 z m 4292.14257,174.2422 -3.1309,14.7128 h -12.3027 c 5.1832,-4.8842 10.346,-9.7782 15.4336,-14.7128 z m 2157.2148,1.6328 c -2.13,3.7247 -4.8921,8.6572 -5.9882,10.4883 0.6685,-1.6647 -0.305,-3.4129 5.9882,-10.4883 z m -4706.6035,14.0156 c 4.631,2.4931 4.2687,3.2687 0,0 z m -2029.314419,33.3984 -2.820312,1.166 c 1.145095,-0.4972 1.220572,-0.5696 2.820312,-1.166 z m 543.753909,3.8985 a 191.0316,191.0316 0 0 0 0.28515,0.2285 c 0,0 1.53407,1.5097 0.70313,0.7148 -0.0876,-0.084 -0.71629,-0.7111 -0.98828,-0.9433 z" id="path4"/>
            <path style="baseline-shift:baseline;display:inline;overflow:visible;vector-effect:none;stroke:none;enable-background:accumulate;stop-color:#000000;stop-opacity:1" d="m 2340.3991,-0.06512329 c -53.846,0 -71.21,54.28184329 -71.21,54.28184329 L 2002.5179,1320.9143 c -12.624,57.253 -18.93,77.1698 -59.71,77.1698 -40.783,0 -126.9561,-103.835 -126.9561,-103.835 0,0 -950.49497,-1010.20152 -1040.00097,-1093.30352 C 671.31083,103.89358 579.59516,43.219299 549.18216,67.619299 L 69.160913,614.14047 c -17.1611,16.269 -23.251656,30.94103 -23.251656,43.58403 0,30.98 36.588947,49.74903 36.588947,49.74903 0,0 139.484866,108.53128 160.000866,133.32628 80.365,97.12 26.66525,346.66699 26.66525,346.66699 L 2.4931088,2694.1704 c -1.75376005,9.369 -2.50890314,17.1633 -2.50890314,23.6433 0,40.273 29.17415934,29.6872 29.17415934,29.6872 L 642.49657,2494.1763 c 19.7789,-10.637 26.74919,-14.4994 26.74919,-32.6064 0,-18.107 -40.08649,-47.3987 -40.08649,-47.3987 0,0 -204.01066,-179.6111 -226.66866,-199.9941 -40.006,-35.992 -50.39258,-88.596 -50.39258,-132.776 0,-44.747 10.39003,-80.5647 10.39003,-80.5647 l 146.6729,-653.3314 c 15.669,-69.797 28.64009,-92.3724 61.51009,-92.3724 32.87,0 61.18348,39.0441 85.15348,65.7071 L 1842.5264,2640.8398 c 43.935,52.215 76.9671,70.7436 101.7271,70.7436 60.531,0 71.6017,-110.7368 71.6017,-110.7368 L 2415.8527,707.54814 c 26.424,-88.222 93.3331,-133.33561 93.3331,-133.33561 l 346.6763,-213.33137 c 25.7213,-14.77 34.6956,-29.1225 34.6956,-41.9705 0,-29.717 -48.0329,-51.36256 -48.0329,-51.36256 L 2415.8527,27.551464 c -30.756,-20.2306998 -55.5876,-27.61658729 -75.4536,-27.61658729 z m 4555.4032,1.01661872 c -358.11,0 -1768.8002,407.74931457 -1760.0002,1599.99930457 8.4483,1138.8 1136.9018,1173.2993 1200.0018,1173.2993 74.537,0 354.7658,-1.171 519.9958,-133.3263 23.544,-18.832 440.0001,-853.3348 440.0001,-853.3348 0,0 67.5332,-124.3033 -79.9958,-39.9933 -920.91,526.25 -1383.5078,127.3479 -1426.7078,-426.6721 -11.853,-152 29.9133,-551.82224 453.3373,-813.33224 334.98,-206.89 458.0664,-253.9808 573.3264,-66.6678 139.01,225.9 226.6686,320.00173 226.6686,320.00173 22.889,21.976 35.0279,51.81957 79.8559,51.81957 15.175,0 32.3167,-4.94632 53.4797,-11.81702 236.15,-76.667 309.2013,-79.33845 266.6713,-186.67545 L 7255.7972,80.956591 c 0,0 -13.9949,-80.00509557 -359.9949,-80.00509557 z M 2989.1977,120.94981 c 0,0 -52.146,-1.42654 -52.146,22.86926 0,13.299 18.8202,34.9468 78.8112,70.4638 l -0.065,0.009 c 120.68,69.866 163.7456,101.92918 133.3356,279.99918 -29.339,171.8 -160.0008,786.66705 -160.0008,786.66705 0,0 -35.7816,83.5821 -133.3356,93.3331 -174.7,17.461 -115.1883,75.701 -26.6653,93.333 34.925,6.9561 113.5301,52.1299 93.3331,173.3289 -22.47,134.82 -173.3289,813.3322 -173.3289,813.3322 0,0 -38.8433,157.9189 -213.3313,173.3289 -95.417,8.4276 -125.8929,37.929 -125.8929,59.281 0,17.99 21.8988,34.052 45.8878,34.052 H 4562.504 c 0,0 137.9509,3.4632 160.0009,-93.333 l 133.3263,-626.6662 c 0,0 9.1392,-235.3625 -106.6704,-40.0025 -67.167,113.31 -383.0387,586.6729 -666.6687,586.6729 h -466.6746 c 0,0 -82.4898,-22.1351 -66.6678,-93.3331 l 186.6754,-840.0068 c 0,0 33.2402,-148.1958 186.6662,-79.9958 154.36,68.614 266.2642,167.8295 360.0042,386.6695 25.179,58.783 65.6019,118.188 160.0009,-426.672 93.37,-538.92007 174.9717,-743.09588 -26.6653,-519.99588 -199.4,220.62998 -402.65,294.21448 -440,306.66448 -140.25,46.751 -187.1229,32.1574 -146.6729,-159.9916 l 160.0009,-760.00176 c 0,0 18.6313,-53.33984 119.9983,-53.33984 h 546.6704 c 0,0 224.3749,91.94114 359.9949,520.00514 22.601,71.335 53.5498,20.99845 66.6678,-40.00255 98.794,-459.42 149.7351,-663.32871 80.0051,-666.66871 z" id="path5"/>
        </g>
    </g>
    <g id="g32" transform="translate(0,-53.807723)">
        <path style="font-size:medium;font-family:'CS Quigley Demo';baseline-shift:baseline;display:inline;overflow:visible;vector-effect:none;fill:#ffffff;fill-rule:nonzero;stroke:none;stroke-width:85.8597;stroke-linecap:butt;stroke-linejoin:miter;paint-order:markers stroke fill;enable-background:accumulate;stop-color:#000000" d="m 403.95291,794.37611 c -53.17783,0 -101.47216,19.2451 -134.21509,54.7106 -3.08517,3.3416 -5.87991,6.9168 -8.66971,10.4936 -5.82968,-9.4205 -12.69398,-18.0799 -20.84466,-25.4939 -27.25305,-24.7899 -63.91635,-35.5892 -102.09293,-35.5892 H 42.93001 A 42.934301,42.934301 0 0 0 0,841.42721 v 288.49049 a 42.934301,42.934301 0 0 0 42.93001,42.93 h 78.30111 a 42.934301,42.934301 0 0 0 42.93,-42.93 v -59.318 c 23.89699,-2.7233 46.09138,-10.3749 64.61718,-23.1546 7.91393,28.8365 21.78161,54.8833 41.91128,75.899 33.32335,34.7904 82.08647,53.6247 136.55842,53.6247 22.36181,0 43.71735,-3.1209 63.17516,-12.5142 a 42.934301,42.934301 0 0 0 24.26533,-38.6581 v -49.3401 h 98.0223 a 42.934301,42.934301 0 0 0 42.93001,-42.93 V 1000.524 A 42.934301,42.934301 0 0 0 592.71079,957.59391 H 484.24533 a 42.934301,42.934301 0 0 0 -42.93001,42.93009 v 19.9474 a 42.934301,42.934301 0 0 0 -9.41197,2.1464 c -1.10888,0.5786 -6.89498,2.549 -16.41301,2.549 -15.18047,0 -19.27277,-3.0115 -22.12333,-6.1125 -2.85055,-3.101 -7.47926,-11.3657 -7.47926,-31.73629 0,-22.4095 5.09536,-32.2562 7.96974,-35.5766 2.87459,-3.3205 5.5457,-5.5675 18.74839,-5.5675 7.82185,0 14.06752,1.9704 15.17641,2.549 a 42.934301,42.934301 0 0 0 62.78513,-38.0585 v -65.116 a 42.934301,42.934301 0 0 0 -24.26554,-38.6623 c -19.4576,-9.3933 -40.63412,-12.51 -62.34897,-12.51 z m -318.0929,89.9811 h 0.98095 a 42.934301,42.934301 0 0 0 -0.98095,0.981 z" id="path15"/>
        <path style="font-size:medium;font-family:'CS Quigley Demo';baseline-shift:baseline;display:inline;overflow:visible;vector-effect:none;fill:#28220b;fill-rule:nonzero;stroke:none;stroke-width:85.8597;stroke-linecap:butt;stroke-linejoin:miter;paint-order:markers stroke fill;enable-background:accumulate;stop-color:#000000" d="M 484.24726,1000.5221 H 592.7125 v 33.0024 H 484.24726 Z" id="path30"/>
        <path style="font-size:medium;font-family:'CS Quigley Demo';baseline-shift:baseline;display:inline;overflow:visible;vector-effect:none;fill:#28220b;fill-rule:nonzero;stroke:none;stroke-width:85.8597;stroke-linecap:butt;stroke-linejoin:miter;paint-order:markers stroke fill;enable-background:accumulate;stop-color:#000000" d="m 263.82916,987.73161 c 0,87.37119 53.16451,146.30559 143.42056,146.30559 18.54577,0 32.55812,-2.4728 44.50983,-8.2425 v -65.1164 c -9.47894,4.9456 -21.84278,7.4183 -36.26728,7.4183 -46.57046,0 -72.53453,-26.3762 -72.53453,-80.77699 0,-57.6979 25.96407,-84.0742 69.64965,-84.0742 13.1881,0 25.55193,2.4728 35.03089,7.4184 v -65.1162 c -11.95172,-5.7699 -25.96408,-8.2426 -43.68558,-8.2426 -86.95903,0 -140.12354,58.9342 -140.12354,150.4266 z" id="path29"/>
        <path style="font-size:medium;font-family:'CS Quigley Demo';baseline-shift:baseline;display:inline;overflow:visible;vector-effect:none;fill:#28220b;fill-rule:nonzero;stroke:none;stroke-width:85.8597;stroke-linecap:butt;stroke-linejoin:miter;paint-order:markers stroke fill;enable-background:accumulate;stop-color:#000000" d="m 42.92872,1129.9158 h 78.30433 V 908.60311 h 14.83661 c 15.24874,0 24.72769,9.479 24.72769,29.2611 0,19.7821 -9.47895,29.2611 -24.72769,29.2611 h -6.59405 v 61.81929 h 14.42448 c 61.40709,0 95.20159,-35.85529 95.20159,-92.31689 0,-61.8192 -40.38855,-95.2015 -100.97138,-95.2015 H 42.92872 Z" id="path16"/>
        <path style="font-size:medium;font-family:'Jungle Adventurer';baseline-shift:baseline;display:inline;overflow:visible;vector-effect:none;fill:#ffffff;fill-rule:nonzero;stroke:none;stroke-width:85.8597;stroke-linecap:butt;stroke-linejoin:miter;paint-order:markers stroke fill;enable-background:accumulate;stop-color:#000000" d="m 742.25296,796.97541 a 42.934301,42.934301 0 0 0 -21.46907,7.7307 l -7.00554,4.9428 0.43594,-0.3018 c -5.23445,3.5987 -11.55567,8.2149 -19.43161,14.1199 -8.64825,6.4098 -17.71164,13.8388 -27.43507,22.3832 0,0 0,0 -0.0215,0.011 -10.88812,9.5348 -21.31324,20.5264 -31.5645,32.9522 a 42.934301,42.934301 0 0 0 -0.0708,0.088 c -9.99218,12.178 -19.17727,25.106 -27.54819,38.7208 -9.61116,15.3301 -17.11212,32.2512 -22.73101,50.4302 -5.90652,19.1089 -8.9215,38.90709 -8.9215,58.83589 0,28.4383 6.42147,55.9912 20.27434,79.7391 a 42.934301,42.934301 0 0 0 0.43618,0.7296 c 13.33383,21.8526 32.0803,40.0073 54.40026,52.1238 17.17715,10.0189 36.60083,15.8658 56.5929,17.717 a 42.934301,42.934301 0 0 0 3.95773,0.1844 c 21.40404,0 40.79574,-2.3157 59.55701,-11.2734 21.36304,-8.6401 40.29711,-23.0126 54.39615,-41.3033 0.30869,-0.4006 0.52242,-0.8619 0.82597,-1.2661 26.34485,30.2747 64.02262,49.5224 103.07391,47.5961 22.52125,-0.8724 44.94648,-7.925 63.46434,-20.8446 a 42.934301,42.934301 0 0 0 0.16308,-0.113 c 14.26632,-10.0514 26.32552,-22.9971 35.71072,-37.6937 2.2827,3.1857 4.5682,6.3704 7.0808,9.3993 a 42.934301,42.934301 0 0 0 0.3396,0.4067 c 26.3892,31.0252 64.6432,50.7993 104.2521,48.8455 22.5213,-0.8725 44.9464,-7.9252 63.4643,-20.8446 a 42.934301,42.934301 0 0 0 0.1588,-0.1132 c 14.2654,-10.0505 26.3301,-22.9941 35.715,-37.6895 2.2818,3.1841 4.5655,6.3678 7.0766,9.3952 a 42.934301,42.934301 0 0 0 0.3438,0.4066 c 26.3902,31.0263 64.6417,50.801 104.2521,48.8455 22.5213,-0.8724 44.9422,-7.925 63.4601,-20.8445 a 42.934301,42.934301 0 0 0 0.1631,-0.1131 c 17.4437,-12.29 31.8175,-28.7629 41.7015,-47.6842 8.7949,-16.6052 15.4113,-34.2922 19.7882,-52.7193 4.6006,-18.5003 7.073,-37.5066 7.3994,-56.77739 a 42.934301,42.934301 0 0 0 0,-0.2264 c 0.3147,-26.7454 -2.6442,-51.946 -9.5,-75.3789 -6.3884,-22.7591 -15.7787,-43.2887 -29.7324,-60.5256 -12.1902,-15.0586 -26.5879,-27.8064 -43.0766,-37.0942 -16.6088,-9.5086 -35.6506,-15.0546 -54.8448,-15.4909 a 42.934301,42.934301 0 0 0 -0.1181,0 c -20.7958,-0.4159 -41.8402,4.7474 -59.9468,15.0633 -16.7152,9.4118 -31.2291,22.6773 -42.1502,38.4525 -1.7097,2.4694 -3.0706,5.2282 -4.6703,7.7895 -2.0178,-2.942 -3.9576,-5.94 -6.2047,-8.716 -12.1945,-15.0635 -26.5982,-27.8141 -43.0936,-37.1026 -16.6043,-9.5018 -35.6414,-15.0463 -54.8281,-15.4825 a 42.934301,42.934301 0 0 0 -0.1138,0 c -20.7901,-0.4158 -41.8309,4.7488 -59.9343,15.0591 -16.7199,9.4122 -31.2391,22.678 -42.1629,38.4567 -1.7094,2.4692 -3.0705,5.2284 -4.6703,7.7895 -2.0175,-2.942 -3.9572,-5.94 -6.2047,-8.716 -12.1902,-15.0585 -26.58799,-27.8065 -43.07658,-37.0942 -16.60875,-9.5087 -35.65064,-15.0546 -54.84481,-15.4908 a 42.934301,42.934301 0 0 0 -0.11809,0 c -20.79575,-0.4159 -41.84025,4.7473 -59.94682,15.0632 -16.71519,9.4119 -31.22898,22.6773 -42.15039,38.4525 -2.75891,3.9852 -5.05886,8.3508 -7.53354,12.5729 a 42.934301,42.934301 0 0 0 -0.59545,-1.8738 l -33.38387,-51.927 a 42.934301,42.934301 0 0 0 -39.40009,-19.5868 z m 310.71024,120.1202 0.1588,0.5617 c -0.025,-0.092 -0.062,-0.1764 -0.088,-0.2683 -0.028,-0.096 -0.043,-0.1974 -0.071,-0.2934 z m 211.0067,0 0.1632,0.5617 c -0.033,-0.1118 -0.073,-0.2153 -0.1056,-0.327 -0.023,-0.077 -0.036,-0.158 -0.058,-0.2347 z m -477.59201,37.1948 c 0,0.031 0,0.061 0,0.092 0,0.011 0,0.022 0,0.034 z m 211.01104,0 c 0,0.017 0,0.034 0,0.051 0,0.025 -0.0207,0.05 -0.0207,0.076 z m 211.01097,0 c 0,0.017 0,0.034 0,0.051 0,0.025 -0.022,0.05 -0.022,0.076 z m -213.97503,49.44499 c 0,0.042 0,0.083 0,0.1258 6.9e-4,0.014 -6.9e-4,0.031 0,0.047 z m 211.01113,0 c 0,0.042 0,0.083 0,0.1258 6e-4,0.014 -7e-4,0.031 0,0.047 z m -215.6059,30.206 -0.0582,0.3522 c 0.0214,-0.07 0.0214,-0.1427 0.0253,-0.2138 0,-0.048 0.0253,-0.09 0.0337,-0.1384 z m 211.0068,0 -0.058,0.3522 c 0.021,-0.07 0.021,-0.1427 0.025,-0.2138 0,-0.048 0.025,-0.09 0.034,-0.1384 z m 211.011,0 -0.058,0.3522 c 0.021,-0.07 0.021,-0.1427 0.025,-0.2138 0,-0.048 0.025,-0.09 0.034,-0.1384 z m -703.07519,1.5973 -1.69788,2.3017 -0.33958,-0.4989 c 0.32348,-0.3893 0.19103,-0.4099 0.62033,-0.8384 0.29343,-0.2935 0.98461,-0.6251 1.41713,-0.9644 z m 80.68243,12.4766 c 0,0.022 0.0215,0.044 0.0215,0.067 l -0.45697,3.79 c 0.18883,-1.0419 0.19534,-2.1691 0.35627,-3.2282 0.0215,-0.2094 0.069,-0.4193 0.0837,-0.6287 z m 265.74686,1.5176 -0.1311,0.5409 c 0.025,-0.099 0.035,-0.2024 0.058,-0.3019 0.021,-0.081 0.052,-0.1577 0.071,-0.239 z m 211.0108,0 -0.1309,0.5409 c 0.025,-0.099 0.035,-0.2024 0.058,-0.3019 0.021,-0.081 0.051,-0.1577 0.071,-0.239 z m -230.7864,52.8198 -0.1502,0.2894 c 0.025,-0.048 0.041,-0.1024 0.067,-0.151 0.025,-0.047 0.058,-0.09 0.083,-0.1381 z m 211.011,0 -0.1546,0.2894 c 0.021,-0.039 0.035,-0.082 0.054,-0.1216 0.03,-0.058 0.071,-0.1098 0.1003,-0.1675 z m -566.14789,3.9158 c 0.68452,0.44 1.44202,0.7294 2.14242,1.1403 0.54908,0.2996 1.0125,0.7082 1.5721,0.9935 z" id="path17"/>
        <path style="font-size:medium;font-family:'Jungle Adventurer';baseline-shift:baseline;display:inline;overflow:visible;vector-effect:none;fill:#28220b;fill-rule:nonzero;stroke:none;stroke-width:85.8597;stroke-linecap:butt;stroke-linejoin:miter;paint-order:markers stroke fill;enable-background:accumulate;stop-color:#000000" d="m 745.54118,839.77771 33.3824,51.9282 q -3.29704,2.0605 -9.47896,5.7698 -6.18193,3.7091 -21.84279,16.485 -15.24874,12.3639 -26.78832,26.3763 22.66704,2.0606 40.80067,11.1274 21.84279,11.5396 35.03088,32.1461 16.89728,26.78829 13.60024,66.76469 -2.88491,28.4368 -18.13362,48.2189 -15.2488,19.7822 -37.91581,28.4368 -14.83661,7.4184 -42.03707,7.4184 -22.2549,-2.0607 -39.56428,-12.3639 -23.90343,-12.776 -38.74004,-37.0915 -14.42448,-24.7277 -14.42448,-58.11 0,-23.4913 7.00617,-46.15829 7.00618,-22.6672 18.13364,-40.3886 11.12746,-18.1337 24.31555,-34.2067 13.60023,-16.4851 26.78832,-28.0247 13.60024,-11.9517 24.72769,-20.1943 11.53959,-8.6546 18.13363,-13.1881 z m -60.58281,163.61489 q -2.47278,14.8366 -2.47278,23.4913 0,32.5581 21.01853,43.2734 5.7698,3.7091 13.60023,3.7091 8.65469,0 12.36384,-1.2363 4.5334,-2.0606 8.24256,-5.7698 3.70915,-3.7092 6.18193,-9.479 2.47276,-6.1819 2.88489,-13.1881 3.29702,-18.1336 -3.70915,-29.6732 -3.70916,-4.9456 -11.12746,-9.891 -9.47894,-4.94549 -17.30938,-4.94549 -18.13364,-2.0607 -29.67321,3.70909 z m 243.15557,124.8747 q -39.15222,2.0607 -69.64965,-33.7944 -30.08537,-36.2673 -32.146,-92.3167 -0.82428,-20.19429 2.47277,-41.21289 3.29704,-21.4307 10.71533,-42.037 7.83043,-20.6064 18.9579,-36.6794 11.12747,-16.073 28.02467,-25.5519 17.30942,-9.8911 37.9158,-9.479 18.13362,0.4121 34.61884,9.8911 16.8972,9.4789 30.90957,26.7883 14.01233,17.3094 21.84273,45.3341 8.2425,28.0247 7.8304,63.0556 -0.4121,24.31559 -6.1819,47.39479 -5.3576,22.667 -16.07294,42.8613 -10.30319,19.7821 -28.43689,32.5581 -17.7214,12.3638 -40.80063,13.188 z m -7.41828,-215.54279 q -8.65471,2.0605 -15.2488,18.5456 -6.18194,16.073 -8.24257,38.328 -1.64848,22.2549 -0.41214,44.50979 1.64856,21.8427 8.24257,37.0915 7.00623,15.2488 18.1337,15.2488 17.72148,0 24.31549,-39.5643 7.00622,-39.97649 -1.23634,-78.30429 -8.24257,-38.7402 -25.55191,-35.8551 z M 1139.123,1128.2673 q -39.1521,2.0607 -69.6497,-33.7944 -30.0853,-36.2673 -32.146,-92.3167 -0.8242,-20.19429 2.4728,-41.21289 3.2971,-21.4307 10.7154,-42.037 7.8304,-20.6064 18.9578,-36.6794 11.1276,-16.073 28.0248,-25.5519 17.3094,-9.8911 37.9158,-9.479 18.1337,0.4121 34.6188,9.8911 16.8972,9.4789 30.9095,26.7883 14.0124,17.3094 21.8428,45.3341 8.2426,28.0247 7.8304,63.0556 -0.412,24.31559 -6.1819,47.39479 -5.3576,22.667 -16.0729,42.8613 -10.3032,19.7821 -28.4369,32.5581 -17.7215,12.3638 -40.8007,13.188 z m -7.4183,-215.54279 q -8.6547,2.0605 -15.2487,18.5456 -6.1819,16.073 -8.2425,38.328 -1.6486,22.2549 -0.4122,44.50979 1.6485,21.8427 8.2426,37.0915 7.0061,15.2488 18.1335,15.2488 17.7216,0 24.3156,-39.5643 7.0062,-39.97649 -1.2363,-78.30429 -8.2426,-38.7402 -25.552,-35.8551 z m 218.4274,215.54279 q -39.1521,2.0607 -69.6495,-33.7944 -30.0855,-36.2673 -32.146,-92.3167 -0.8244,-20.19429 2.4728,-41.21289 3.2969,-21.4307 10.7153,-42.037 7.8303,-20.6064 18.9579,-36.6794 11.1274,-16.073 28.0247,-25.5519 17.3093,-9.8911 37.9157,-9.479 18.1337,0.4121 34.6188,9.8911 16.8972,9.4789 30.9095,26.7883 14.0125,17.3094 21.8428,45.3341 8.2427,28.0247 7.8304,63.0556 -0.412,24.31559 -6.1818,47.39479 -5.3577,22.667 -16.073,42.8613 -10.3032,19.7821 -28.4368,32.5581 -17.7216,12.3638 -40.8008,13.188 z m -7.4182,-215.54279 q -8.6548,2.0605 -15.2487,18.5456 -6.182,16.073 -8.2426,38.328 -1.6486,22.2549 -0.4121,44.50979 1.6484,21.8427 8.2425,37.0915 7.0061,15.2488 18.1336,15.2488 17.7215,0 24.3156,-39.5643 7.0062,-39.97649 -1.2364,-78.30429 -8.2426,-38.7402 -25.5519,-35.8551 z" id="path18"/>
        <path style="font-size:medium;font-family:Alba;baseline-shift:baseline;display:inline;overflow:visible;vector-effect:none;fill:#ffffff;fill-rule:nonzero;stroke:none;stroke-width:85.8597;stroke-linecap:butt;stroke-linejoin:miter;paint-order:markers stroke fill;enable-background:accumulate;stop-color:#000000" d="m 1709.1131,880.92371 c -32.6318,0 -65.0248,13.0349 -88.0526,36.0629 -22.8849,22.8847 -35.6522,55.1824 -35.6522,87.64179 v 22.6681 c 0,-3.5088 -2e-4,-0.4936 -0.021,0.2138 -0.022,0.7075 -0.041,1.7698 -0.075,3.1695 -0.036,1.4727 -0.1035,4.325 -0.1588,6.5443 -12.1121,3.0938 -24.0677,8.9709 -32.9229,17.826 a 42.934301,42.934301 0 0 0 -0.809,0.8301 c -12.7038,13.4097 -19.1803,32.8932 -19.1803,49.7217 0,16.8285 6.4765,36.3078 19.1803,49.7174 a 42.934301,42.934301 0 0 0 1.6434,1.6393 c 13.4096,12.7038 32.8889,19.1843 49.7174,19.1843 32.4085,0 64.6286,-13.1542 87.3484,-36.197 22.7744,-22.8419 35.9625,-54.693 36.3564,-86.9879 a 42.934301,42.934301 0 0 0 0,-0.1508 l 0.285,-32.9564 c 12.0321,-3.2322 24.022,-9.382 33.3003,-18.6602 13.0966,-13.09669 19.9932,-32.87599 19.9932,-49.72579 0,-17.1335 -7.2708,-37.3573 -20.8694,-50.5057 -13.211,-12.9442 -32.9633,-20.0354 -50.0865,-20.0354 z m -2.1297,55.7377 c -0.5333,0.037 -1.1014,0.2021 -1.6393,0.2516 0.021,-0.011 0.3759,-0.1479 0.3228,-0.1426 z" id="path19"/>
        <path style="font-size:medium;font-family:Alba;baseline-shift:baseline;display:inline;overflow:visible;vector-effect:none;fill:#28220b;fill-rule:nonzero;stroke:none;stroke-width:85.8597;stroke-linecap:butt;stroke-linejoin:miter;paint-order:markers stroke fill;enable-background:accumulate;stop-color:#000000" d="m 1690.9812,987.31961 q -7.0062,7.0062 -7.0062,17.30939 l -0.4121,47.8068 q -0.4121,33.7945 -23.9035,57.2858 -23.0791,23.4913 -56.8736,23.4913 -12.3639,0 -20.1944,-7.4182 -7.4182,-7.8305 -7.4182,-20.1944 0,-12.3639 7.4182,-20.1942 7.8305,-7.8305 20.1944,-7.8305 10.7154,0 17.7215,-7.0061 7.4183,-7.4184 7.4183,-18.1337 0,-3.7091 0,-8.2426 0.4121,-16.4851 0.4121,-16.8972 v -22.667 q 0,-34.20669 23.0792,-57.28589 23.4913,-23.4912 57.6979,-23.4912 12.3639,0 20.1943,7.8304 7.8304,7.4183 7.8304,19.7821 0,11.9517 -7.4183,19.37 -7.4183,7.4184 -19.7821,8.6547 -11.9518,0.8243 -18.9579,7.8305 z" id="path20"/>
        <path style="font-size:medium;font-family:Alba;baseline-shift:baseline;display:inline;overflow:visible;vector-effect:none;fill:#ffffff;fill-rule:nonzero;stroke:none;stroke-width:85.8597;stroke-linecap:butt;stroke-linejoin:miter;paint-order:markers stroke fill;enable-background:accumulate;stop-color:#000000" d="m 2152.1517,792.72841 c -19.8638,0 -40.9235,9.1242 -54.6729,22.8737 -13.7617,13.7615 -22.4629,34.8193 -22.4629,54.262 0,3.7097 0.5791,7.4684 1.1739,11.2146 -0.4974,-0.012 -1.0241,-0.1551 -1.5175,-0.1551 -34.7524,0 -68.908,13.5994 -93.5826,37.8823 a 42.934301,42.934301 0 0 0 -0.2431,0.2433 c -24.4606,24.4603 -38.1255,58.6583 -38.1255,93.41039 v 93.5531 c 0,16.8286 6.4804,36.3078 19.1843,49.7175 a 42.934301,42.934301 0 0 0 1.6393,1.6434 c 13.4095,12.7039 32.8929,19.1801 49.7215,19.1801 16.8285,0 36.3079,-6.4762 49.7177,-19.1801 a 42.934301,42.934301 0 0 0 0.83,-0.8092 c 9.9241,-9.9242 16.45,-23.7043 19.0837,-37.2828 2.4521,13.1152 8.4341,26.4641 17.893,36.4486 a 42.934301,42.934301 0 0 0 1.6435,1.6434 c 13.4097,12.7039 32.889,19.1801 49.7176,19.1801 16.8286,0 36.3076,-6.4762 49.7174,-19.1801 a 42.934301,42.934301 0 0 0 0.8341,-0.8092 c 13.209,-13.2087 20.4044,-33.2462 20.4044,-50.5517 V 951.46461 c 0,-11.3946 -2.6427,-24.491 -9.0262,-36.3773 9.2839,-13.0326 15.2058,-29.4221 15.2058,-45.2232 0,-19.5727 -9.1102,-40.5675 -22.9364,-54.1991 -13.6316,-13.8265 -34.6265,-22.9366 -54.1991,-22.9366 z m 0,68.4114 c 0.7593,0 5.2713,1.9318 5.4164,2.0711 l 1.2369,1.2366 c 0.1395,0.1452 2.0709,4.6571 2.0709,5.4166 0,0.7596 -2.1098,5.8787 -2.6832,6.4522 -0.021,0.012 -4.8607,2.2723 -6.041,2.2723 -1.034,0 -4.8494,-1.7744 -6.1881,-2.5365 -0.7622,-1.3388 -2.5364,-5.1539 -2.5364,-6.188 0,-1.1804 2.2604,-6.0293 2.2723,-6.0411 0.5733,-0.5734 5.6925,-2.6832 6.4522,-2.6832 z m -74.5239,161.10909 c 0,-3e-4 -0.021,0 0,0 h -0.054 c 0.021,0 0.044,-0.011 0.062,-0.011 z" id="path23"/>
        <path style="font-size:medium;font-family:'Polea Extra Bold DEMO';baseline-shift:baseline;display:inline;overflow:visible;vector-effect:none;fill:#ffffff;fill-rule:nonzero;stroke:none;stroke-width:85.8597;stroke-linecap:butt;stroke-linejoin:miter;paint-order:markers stroke fill;enable-background:accumulate;stop-color:#000000" d="m 1850.0609,892.05031 c -78.2919,0 -142.6626,64.3706 -142.6626,142.66249 0,41.609 20.1425,77.0686 46.418,101.7283 26.2758,24.6597 59.3978,40.9387 96.2446,40.9387 h 38.3312 c 36.7798,0 66.0089,-30.5635 66.0089,-66.42 0,-3.9515 -0.5042,-7.8172 -1.2158,-11.6171 a 42.934301,42.934301 0 0 0 35.0903,-30.0595 c 3.3555,-12.0801 4.4523,-23.7273 4.4523,-34.5704 0,-78.29189 -64.3747,-142.66249 -142.6669,-142.66249 z" id="path21"/>
        <path style="font-size:medium;font-family:'Polea Extra Bold DEMO';baseline-shift:baseline;display:inline;overflow:visible;vector-effect:none;fill:#28220b;fill-rule:nonzero;stroke:none;stroke-width:85.8597;stroke-linecap:butt;stroke-linejoin:miter;paint-order:markers stroke fill;enable-background:accumulate;stop-color:#000000" d="m 1888.3901,1134.4493 c 12.776,0 23.0791,-10.7153 23.0791,-23.4914 0,-13.188 -10.3031,-23.4912 -23.0791,-23.4912 h -38.3278 c -29.2612,0 -52.7525,-23.9035 -52.7525,-52.7524 0,-29.2611 23.4913,-53.16449 52.7525,-53.16449 20.6063,0 38.74,11.9516 47.3946,29.67319 h -53.1644 c -13.1881,0 -23.4914,10.3032 -23.4914,23.4913 0,12.776 10.3033,23.0791 23.4914,23.0791 h 102.6198 c 2.0606,-7.4182 2.8849,-15.2486 2.8849,-23.0791 0,-55.22519 -44.5099,-99.73499 -99.7349,-99.73499 -55.2252,0 -99.7351,44.5098 -99.7351,99.73499 0,54.813 54.4009,99.735 99.7351,99.735 z" id="path22"/>
        <path style="font-size:medium;font-family:'Polea Extra Bold DEMO';baseline-shift:baseline;display:inline;overflow:visible;vector-effect:none;fill:#ffffff;fill-rule:nonzero;stroke:none;stroke-width:85.8597;stroke-linecap:butt;stroke-linejoin:miter;paint-order:markers stroke fill;enable-background:accumulate;stop-color:#000000" d="m 2293.9254,892.05031 c -78.2921,0 -142.6667,64.3706 -142.6667,142.66249 0,41.609 20.1424,77.0686 46.4181,101.7283 26.2756,24.6597 59.4015,40.9387 96.2486,40.9387 h 38.3269 c 36.7798,0 66.0089,-30.5635 66.0089,-66.42 0,-3.9515 -0.5042,-7.8172 -1.2157,-11.6171 a 42.934301,42.934301 0 0 0 35.0944,-30.0595 c 3.3556,-12.0801 4.4481,-23.7273 4.4481,-34.5704 0,-78.29189 -64.3704,-142.66249 -142.6626,-142.66249 z" id="path25"/>
        <path style="font-size:medium;font-family:Alba;baseline-shift:baseline;display:inline;overflow:visible;vector-effect:none;fill:#28220b;fill-rule:nonzero;stroke:none;stroke-width:85.8597;stroke-linecap:butt;stroke-linejoin:miter;paint-order:markers stroke fill;enable-background:accumulate;stop-color:#000000" d="m 2041.2895,1012.4594 v 93.553 q 0,12.3639 -7.8305,20.1943 -7.8304,7.4183 -20.1943,7.4183 -12.3638,0 -20.1942,-7.4183 -7.4184,-7.8304 -7.4184,-20.1943 v -93.553 q 0,-37.50359 25.5519,-63.05559 25.9641,-25.5519 63.4678,-25.5519 11.9517,0 19.7821,7.8304 7.8304,7.8303 7.8304,19.7821 0,25.5519 -28.4367,28.0247 -14.0125,1.2365 -23.4914,10.3032 -9.0667,8.6547 -9.0667,22.66709 z m 138.8868,93.553 q 0,12.3639 -7.8304,20.1943 -7.8304,7.4183 -20.1942,7.4183 -12.3639,0 -20.1944,-7.4183 -7.4183,-7.8304 -7.4183,-20.1943 V 951.46441 q 0,-12.3638 7.4183,-19.7821 7.8305,-7.8304 20.1944,-7.8304 28.0246,0 28.0246,27.6125 z m -28.0246,-270.35599 q -14.0124,0 -24.3155,10.3032 -9.8912,9.8911 -9.8912,23.9035 0,14.0123 9.8912,24.3155 10.3031,9.8911 24.3155,9.8911 14.0123,0 23.9033,-9.8911 10.3033,-10.3032 10.3033,-24.3155 0,-14.0124 -10.3033,-23.9035 -9.891,-10.3032 -23.9033,-10.3032 z" id="path24"/>
        <path style="font-size:medium;font-family:'Polea Extra Bold DEMO';baseline-shift:baseline;display:inline;overflow:visible;vector-effect:none;fill:#28220b;fill-rule:nonzero;stroke:none;stroke-width:85.8597;stroke-linecap:butt;stroke-linejoin:miter;paint-order:markers stroke fill;enable-background:accumulate;stop-color:#000000" d="m 2332.2518,1134.4493 c 12.776,0 23.0792,-10.7153 23.0792,-23.4914 0,-13.188 -10.3032,-23.4912 -23.0792,-23.4912 h -38.3279 c -29.2611,0 -52.7523,-23.9035 -52.7523,-52.7524 0,-29.2611 23.4912,-53.16449 52.7523,-53.16449 20.6064,0 38.7401,11.9516 47.3948,29.67319 h -53.1646 c -13.1881,0 -23.4913,10.3032 -23.4913,23.4913 0,12.776 10.3032,23.0791 23.4913,23.0791 h 102.6199 c 2.0607,-7.4182 2.8849,-15.2486 2.8849,-23.0791 0,-55.22519 -44.5098,-99.73499 -99.735,-99.73499 -55.2251,0 -99.735,44.5098 -99.735,99.73499 0,54.813 54.4009,99.735 99.735,99.735 z" id="path26"/>
        <path style="font-size:medium;font-family:Alba;baseline-shift:baseline;display:inline;overflow:visible;vector-effect:none;fill:#ffffff;fill-rule:nonzero;stroke:none;stroke-width:85.8597;stroke-linecap:butt;stroke-linejoin:miter;paint-order:markers stroke fill;enable-background:accumulate;stop-color:#000000" d="m 2563.4537,880.92371 c -32.6317,0 -65.0246,13.0349 -88.0527,36.0629 -22.8846,22.8847 -35.652,55.1824 -35.652,87.64179 v 22.6681 c 0,-3.5088 -2e-4,-0.4936 -0.021,0.2138 -0.021,0.7075 -0.041,1.7698 -0.075,3.1695 -0.037,1.4727 -0.1056,4.325 -0.1588,6.5443 -12.1123,3.0938 -24.0678,8.9709 -32.9228,17.826 a 42.934301,42.934301 0 0 0 -0.8093,0.8301 c -12.7038,13.4097 -19.18,32.8932 -19.18,49.7217 0,16.8285 6.4762,36.3078 19.18,49.7174 a 42.934301,42.934301 0 0 0 1.6435,1.6393 c 13.4098,12.7038 32.8888,19.1843 49.7174,19.1843 32.4195,0 64.6483,-13.1608 87.3694,-36.2181 22.7615,-22.8403 35.9416,-54.6817 36.3353,-86.9668 a 42.934301,42.934301 0 0 0 0,-0.1508 l 0.285,-32.9564 c 12.032,-3.2322 24.022,-9.382 33.3002,-18.6602 13.0968,-13.09669 19.9934,-32.87599 19.9934,-49.72579 0,-17.1335 -7.2708,-37.3573 -20.8696,-50.5057 -13.2108,-12.9442 -32.9632,-20.0354 -50.0864,-20.0354 z m -2.1297,55.7377 c -0.5332,0.037 -1.1011,0.2021 -1.6392,0.2516 0.021,-0.011 0.3757,-0.1479 0.3228,-0.1426 z" id="path27"/>
        <path style="font-size:medium;font-family:Alba;baseline-shift:baseline;display:inline;overflow:visible;vector-effect:none;fill:#28220b;fill-rule:nonzero;stroke:none;stroke-width:85.8597;stroke-linecap:butt;stroke-linejoin:miter;paint-order:markers stroke fill;enable-background:accumulate;stop-color:#000000" d="m 2545.3218,987.31961 q -7.0062,7.0062 -7.0062,17.30939 l -0.412,47.8068 q -0.4122,33.7945 -23.9035,57.2858 -23.0792,23.4913 -56.8736,23.4913 -12.3639,0 -20.1944,-7.4182 -7.4182,-7.8305 -7.4182,-20.1944 0,-12.3639 7.4182,-20.1942 7.8305,-7.8305 20.1944,-7.8305 10.7153,0 17.7214,-7.0061 7.4183,-7.4184 7.4183,-18.1337 0,-3.7091 0,-8.2426 0.4122,-16.4851 0.4122,-16.8972 v -22.667 q 0,-34.20669 23.0792,-57.28589 23.4912,-23.4912 57.6978,-23.4912 12.3639,0 20.1943,7.8304 7.8305,7.4183 7.8305,19.7821 0,11.9517 -7.4183,19.37 -7.4183,7.4184 -19.7822,8.6547 -11.9517,0.8243 -18.9579,7.8305 z" id="path28"/>
    </g>
</svg>
