<?xml version="1.0" encoding="UTF-8" standalone="no"?>
<svg
   version="1.2"
   width="545"
   height="82"
   viewBox="14.968 80.666 545 82"
   xml:space="preserve"
   id="svg40"
   sodipodi:docname="pce-cd-w.svg"
   inkscape:version="1.1.2 (0a00cf5339, 2022-02-04)"
   xmlns:inkscape="http://www.inkscape.org/namespaces/inkscape"
   xmlns:sodipodi="http://sodipodi.sourceforge.net/DTD/sodipodi-0.dtd"
   xmlns="http://www.w3.org/2000/svg"
   xmlns:svg="http://www.w3.org/2000/svg"><defs
   id="defs44" /><sodipodi:namedview
   id="namedview42"
   pagecolor="#ffffff"
   bordercolor="#666666"
   borderopacity="1.0"
   inkscape:pageshadow="2"
   inkscape:pageopacity="0.0"
   inkscape:pagecheckerboard="0"
   showgrid="false"
   inkscape:zoom="3.8761703"
   inkscape:cx="41.277856"
   inkscape:cy="2.8378526"
   inkscape:window-width="1920"
   inkscape:window-height="1011"
   inkscape:window-x="1920"
   inkscape:window-y="32"
   inkscape:window-maximized="1"
   inkscape:current-layer="svg40" />
    
    
    
    <path
   fill="#F9F9F9"
   d="M210.313 141.697h-35.514c-11.838 0-19.73-7.958-19.73-15.784s7.892-15.784 19.73-15.784h35.514v-7.893h-35.514c-15.784 0-27.622 10.26-27.622 23.677 0 13.416 11.838 23.676 27.622 23.676h35.514v-7.892z"
   id="path12" />
    <path
   fill="#020202"
   d="M210.313 151.123h-35.514c-8.224 0-15.491-2.674-20.73-7.178-5.239-4.496-8.432-10.865-8.426-18.032-.006-7.168 3.187-13.537 8.426-18.033 5.24-4.504 12.507-7.179 20.73-7.179h37.049v10.962h-37.049c-5.574.001-10.14 1.869-13.304 4.586-3.167 2.723-4.896 6.275-4.891 9.664-.005 3.388 1.724 6.94 4.891 9.663 3.165 2.718 7.73 4.585 13.304 4.586h35.514v1.535-1.535h1.535v10.961h-1.535zm-54.244-40.916c-4.625 3.988-7.352 9.457-7.358 15.706.006 6.249 2.733 11.718 7.358 15.706 4.626 3.979 11.169 6.435 18.729 6.435h33.98v-4.822h-33.98c-12.514-.001-21.219-8.433-21.264-17.318.045-8.886 8.75-17.317 21.264-17.318h33.98v-4.823l-33.98-.001c-7.56-.001-14.103 2.457-18.729 6.435z"
   id="path14" />
    <path
   fill="#F9F9F9"
   d="M418.575 102.236h-23.676c-15.785 0-27.622 10.26-27.622 23.677 0 13.416 11.837 23.676 27.622 23.676h23.676c15.784 0 27.621-10.26 27.621-23.676 0-13.417-11.837-23.677-27.621-23.677zm0 39.461h-23.676c-11.838 0-19.73-7.958-19.73-15.784s7.893-15.784 19.73-15.784h23.676c11.838 0 19.729 7.958 19.729 15.784s-7.891 15.784-19.729 15.784z"
   id="path16" />
    <path
   fill="#020202"
   d="M394.899 151.123c-8.224 0-15.492-2.673-20.729-7.178-5.241-4.496-8.433-10.865-8.427-18.032-.006-7.168 3.186-13.537 8.427-18.033 5.237-4.504 12.506-7.178 20.729-7.178h23.676v3.069h-23.676c-7.563 0-14.104 2.457-18.73 6.435-4.625 3.989-7.352 9.457-7.357 15.707.006 6.249 2.732 11.718 7.357 15.706 4.626 3.979 11.168 6.436 18.73 6.436h23.676c7.56 0 14.104-2.457 18.729-6.436 4.625-3.988 7.353-9.457 7.358-15.706-.006-6.25-2.733-11.718-7.358-15.707-4.626-3.978-11.17-6.435-18.729-6.435v-3.069c8.223 0 15.491 2.674 20.73 7.178 5.239 4.496 8.431 10.865 8.426 18.033.005 7.167-3.187 13.536-8.426 18.032-5.239 4.505-12.508 7.178-20.73 7.178h-23.676zm0-7.892c-12.514-.001-21.221-8.434-21.266-17.318.045-8.886 8.752-17.317 21.266-17.319h23.676c12.514.002 21.219 8.434 21.264 17.319-.045 8.885-8.75 17.317-21.264 17.318v-3.069c5.573-.001 10.14-1.868 13.303-4.586 3.168-2.722 4.897-6.275 4.893-9.663.005-3.389-1.725-6.941-4.893-9.664-3.163-2.717-7.729-4.585-13.303-4.586h-23.676c-5.575.001-10.141 1.869-13.305 4.586-3.167 2.723-4.896 6.275-4.892 9.664-.005 3.388 1.725 6.941 4.892 9.663 3.164 2.718 7.729 4.585 13.305 4.586h23.676v3.069h-23.676z"
   id="path18" />
    <path
   fill="#F9F9F9"
   d="M253.72 102.236h-35.515v47.353h35.515c15.784 0 27.621-10.26 27.621-23.676 0-13.417-11.837-23.677-27.621-23.677zm0 39.461h-27.622v-31.568h27.622c11.838 0 19.729 7.958 19.729 15.784s-7.891 15.784-19.729 15.784z"
   id="path20" />
    <path
   fill="#020202"
   d="M230.931 151.123h-14.26v-50.422h37.047V103.771h-24.464l-9.515-.001v44.283l11.192.001h22.788c7.561-.001 14.104-2.457 18.73-6.436 4.626-3.988 7.353-9.457 7.357-15.706-.004-6.249-2.73-11.718-7.357-15.706-4.625-3.979-11.169-6.436-18.73-6.437V100.701c8.224-.001 15.493 2.674 20.729 7.178 5.242 4.496 8.434 10.865 8.428 18.033.006 7.167-3.186 13.536-8.428 18.032-5.237 4.504-12.506 7.178-20.729 7.178l-22.788.001zm-4.833-7.892h-1.535v-34.637h29.156c12.516.001 21.22 8.433 21.265 17.318-.045 8.886-8.749 17.317-21.265 17.318v-3.069c5.574-.001 10.142-1.868 13.304-4.586 3.167-2.723 4.896-6.275 4.892-9.663.004-3.389-1.725-6.941-4.892-9.664-3.163-2.717-7.73-4.585-13.304-4.586h-26.087v28.499h26.087v3.069l-27.621.001z"
   id="path22" />
    <path
   fill="#F9F9F9"
   d="M352.369 125.913c3.946 0 7.893-5.7 7.893-9.646 0-7.892-3.946-14.03-11.839-14.03h-47.352v47.353h7.893v-19.73h35.514c3.946 0 7.892 3.947 7.892 7.893v11.838h7.893v-11.838c0-7.893-7.894-11.84-7.894-11.84zm-7.891-3.946h-35.514v-11.838h35.514c3.945 0 7.892 2.192 7.892 6.138-.001 3.946-3.947 5.7-7.892 5.7z"
   id="path24" />
    <path
   fill="#020202"
   d="M350.836 151.123v-1.534c-.002 0-.002-7.893 0-11.838.01-1.452-.768-3.1-2.018-4.341-1.241-1.249-2.889-2.028-4.341-2.018h-33.979v19.73h-10.962V100.7h48.887c4.344-.02 7.854 1.758 10.089 4.646 2.245 2.88 3.281 6.725 3.284 10.92-.021 2.476-1.142 5.081-2.786 7.24-.887 1.135-1.942 2.173-3.152 2.898.491.396 1.016.854 1.544 1.382 2.143 2.137 4.395 5.479 4.395 9.964v13.372h-10.961v.001zm7.891-3.068.001-10.304c-.001-3.198-1.487-5.653-3.162-7.448-1.666-1.781-3.488-2.812-3.829-2.989l-.053-.028.686-1.373-.686 1.373.686-2.907c1.202.042 2.908-1.025 4.211-2.745 1.314-1.678 2.168-3.895 2.147-5.366.002-3.696-.934-6.866-2.635-9.028-1.71-2.154-4.12-3.447-7.67-3.468h-45.816v44.284h4.822v-19.73h37.049c2.493.011 4.792 1.206 6.511 2.915 1.711 1.719 2.904 4.019 2.915 6.512v10.304h4.823v-.002zm-34.965-24.553h-16.333v-14.908h37.049c2.255.005 4.506.608 6.309 1.87 1.799 1.238 3.134 3.295 3.117 5.803.028 2.512-1.362 4.521-3.182 5.629-1.822 1.138-4.047 1.6-6.244 1.606v-3.069c1.748.005 3.471-.409 4.608-1.135 1.14-.755 1.724-1.597 1.75-3.031-.017-1.438-.655-2.449-1.815-3.293-1.158-.823-2.852-1.315-4.543-1.311H310.498v8.77H344.478v3.069h-20.716z"
   id="path26" />
    <path
   fill="#F9F9F9"
   d="M289.892 129.858a3.946 3.946 0 1 1 0-7.891h2.959a3.946 3.946 0 0 1 0 7.891h-2.959z"
   id="path28" />
    <path
   fill="#020202"
   d="M289.891 131.393v-3.068l2.96-.001a2.413 2.413 0 0 0 2.411-2.41 2.414 2.414 0 0 0-2.411-2.412l-2.96.001a2.414 2.414 0 0 0-2.411 2.411 2.413 2.413 0 0 0 2.411 2.41v3.069a5.478 5.478 0 0 1-5.479-5.479 5.479 5.479 0 0 1 5.479-5.48h2.96a5.48 5.48 0 1 1 0 10.959h-2.96z"
   id="path30" />
    <path
   fill="#F9F9F9"
   d="M481.712 110.129v39.46h7.892v-39.46h7.893c3.945 0 11.837 0 11.837 7.892v31.568h7.893v-35.514c0-7.893-7.893-11.839-15.784-11.839h-31.568c-7.893 0-15.784 3.946-15.784 11.839v35.514h7.892v-31.568c0-7.892 7.893-7.892 11.839-7.892h7.89z"
   id="path32" />
    <path
   fill="#020202"
   d="M507.798 151.123V118.021c-.004-1.723-.413-2.84-1.003-3.664-.594-.82-1.429-1.397-2.471-1.816-2.078-.843-4.871-.887-6.828-.876l-6.358-.001v39.46h-10.961v-39.459h-6.358c-1.473-.003-3.402.007-5.16.382-1.775.376-3.263 1.088-4.139 2.311-.591.824-.999 1.941-1.005 3.664V151.124h-10.961v-37.048c-.02-4.483 2.326-7.994 5.616-10.157 3.291-2.185 7.504-3.211 11.703-3.216h31.568c4.198.005 8.41 1.031 11.702 3.216 3.29 2.163 5.637 5.674 5.616 10.157v37.048h-10.961v-.001zm7.893-3.068v-33.979c-.022-3.41-1.621-5.817-4.25-7.603-2.628-1.761-6.308-2.706-10-2.702h-31.568c-3.694-.004-7.374.941-10.001 2.702-2.63 1.785-4.229 4.192-4.249 7.603v33.979h4.823c-.002-5.372-.002-23.355 0-30.034-.006-2.224.572-4.065 1.584-5.46 1.011-1.399 2.395-2.302 3.82-2.87 2.855-1.129 5.981-1.086 7.968-1.096h7.892v1.534-1.534h1.535v39.46h4.822v-39.46h9.429c1.484.001 3.624-.009 5.797.448 2.155.457 4.46 1.411 5.989 3.518 1.013 1.395 1.591 3.236 1.585 5.46v30.034h4.824z"
   id="path34" />
    <path
   fill="#F9F9F9"
   d="M537.763 108.902h2.937c5.259 0 9.062-2.685 9.062-8.726 0-3.883-2.46-8.39-7.766-8.39h-16.397v6.04h11.896c1.696 0 3.598.281 3.598 2.35 0 1.958-1.512 2.685-3.262 2.685h-4.916c-8.827 0-9.896 6.299-9.896 11.219v3.884h26.305v-6.479H531.82c-.002-3.02 3.354-2.583 5.943-2.583z"
   id="path36" />
    <path
   fill="#020202"
   d="M522.139 118.84v-4.76c.005-2.52.255-5.478 1.772-7.919 1.514-2.459 4.391-4.201 9-4.176h4.918c.758.003 1.399-.169 1.777-.445.369-.283.588-.607.606-1.363-.039-.757-.219-.902-.664-1.159-.46-.229-1.257-.317-2.056-.313H524.72V90.91h17.273c2.904-.01 5.146 1.271 6.559 3.071 1.422 1.8 2.082 4.071 2.085 6.195.008 3.196-1.03 5.675-2.854 7.284-1.82 1.611-4.313 2.318-7.085 2.318H537.636c-.564-.003-1.142-.022-1.691-.022-1.02-.007-1.956.084-2.486.343-.275.153-.466.278-.587.508h17.327v8.232h-28.06v.001zm3.258-11.749c-1.224 1.938-1.51 4.59-1.504 6.989v3.007h24.554v-4.726H530.94v-.877c-.043-1.423.749-2.54 1.778-2.975 1.007-.459 2.133-.5 3.227-.507.634 0 1.255.022 1.817.022h2.937c2.488 0 4.524-.635 5.921-1.877 1.393-1.242 2.256-3.128 2.263-5.972.005-1.76-.567-3.681-1.702-5.106-1.143-1.424-2.787-2.396-5.186-2.406h-15.521v4.287h11.019c.896.005 1.896.057 2.813.483.929.401 1.698 1.431 1.661 2.742.017 1.202-.518 2.221-1.34 2.79-.815.576-1.806.768-2.798.772h-4.918c-4.217.027-6.287 1.434-7.514 3.354zm12.366 1.811v-.877.877z"
   id="path38" />
<g
   fill="#d40000"
   id="g52"
   transform="matrix(0.18611386,0,0,0.18611386,5.7322858,92.65247)"><path
     d="m 355.72,51.16 q 9.95,-20.35 29.9,-28.3 c 10.66,-4.24 26.94,-6.27 39.95,-8.72 3.84,-0.72 7.79,-1.31 11.57,-0.98 14.63,1.27 26.2,13.28 25.39,28.34 q -0.31,5.68 -2.56,16.15 -0.1,0.44 -0.54,0.53 l -44.49,8.44 a 1.04,1.03 -89.8 0 1 -1.21,-1.22 l 1.75,-8.74 a 0.89,0.89 0 0 0 -1.05,-1.05 l -15.61,3.09 a 1.45,1.45 0 0 0 -1.15,1.16 l -1.29,6.79 a 0.79,0.79 0 0 0 0.78,0.94 q 57.49,-0.33 114.46,7.38 0.51,0.07 0.98,-0.13 Q 529.84,67.49 547,60 c 2.78,-1.22 5.11,1.89 2.49,3.97 q -8.59,6.81 -17.31,13.61 a 0.4,0.4 0 0 0 0.18,0.71 c 42.2,6.87 145.22,30.11 156.56,81.04 9.53,42.84 -55.62,71.49 -86.18,81.93 -53.97,18.44 -110.61,27.48 -167.19,30.69 q -14.74,0.84 -29.5,1.74 -0.5,0.03 -0.82,0.43 -14.04,17.27 -34.38,24.57 c -11,3.93 -26.79,6.15 -39.9,8.6 -10.64,1.99 -13.69,-4.04 -12.04,-13.49 q 2.61,-14.94 4.86,-29.93 c 0.23,-1.51 1.04,-2.82 1.66,-4.19 a 0.29,0.28 5.9 0 0 -0.32,-0.39 q -84.58,16.21 -169.1,32.23 c -7.67,1.46 -12.21,-3.74 -11.09,-10.94 q 3.27,-20.93 6.77,-41.77 a 0.69,0.69 0 0 0 -0.42,-0.76 C 125.58,227.57 84.57,205.58 86.13,172.3 88.75,116.3 204.51,88.81 245.86,81.01 A 1.22,1.21 -1 0 0 246.84,80 l 5.21,-32.41 q 0.07,-0.46 0.5,-0.64 c 0.91,-0.38 2.99,-0.46 3.63,-0.59 q 31.45,-6.07 62.93,-11.97 c 16.14,-3.02 29.07,0.68 36.31,16.77 a 0.17,0.17 0 0 0 0.3,0 z m 32.25,61.87 c -2.48,0.35 -3.45,-1.92 -3.1,-4 q 4.05,-23.5 7.79,-47.07 c 0.57,-3.61 0.97,-6.76 4.6,-7.46 q 9.87,-1.88 19.74,-3.78 c 5.39,-1.04 2.59,7.73 2.18,10 a 0.48,0.48 0 0 0 0.56,0.55 l 35.78,-6.81 a 1.03,1.02 -2 0 0 0.83,-0.88 c 0.66,-5.24 2.06,-11.54 1.56,-16.17 -1.1,-10.11 -9.56,-18.2 -19.37,-19.82 q -4.1,-0.68 -12,0.79 -23.26,4.32 -29.97,5.72 c -20.25,4.21 -36.75,19.75 -40.1,40.39 q -4.18,25.8 -8.3,51.6 c -1.43,8.93 -1.47,15.62 4.15,22.1 10.61,12.23 22.53,7.98 36.3,5.64 q 2.11,-0.35 3.77,-1.64 15.6,-12.07 30.85,-23.9 0.75,-0.58 0.48,-1.49 l -5.68,-19.31 a 1.04,1.03 75 0 0 -1.23,-0.72 l -3.18,0.78 q -0.66,0.16 -0.66,0.83 c -0.01,5.47 -0.35,10.04 -6.47,11.35 q -9.21,1.97 -18.53,3.3 z m -21.46,133.95 q 1.64,-0.32 0.48,0.89 c -9.22,9.66 -21.47,10.29 -33.87,12.59 -4.89,0.91 -4.55,3.03 -5.26,7.14 q -2.52,14.73 -4.81,29.53 c -1.01,6.56 2.69,6.68 7.78,5.73 q 13.57,-2.53 27.11,-5.17 c 30.58,-5.95 53.26,-28.86 57.94,-59.88 q 0.03,-0.22 0.25,-0.26 l 58.23,-11.05 a 0.95,0.95 0 0 0 0.75,-0.77 l 8.21,-50.66 q 0.1,-0.59 0.69,-0.69 l 9.44,-1.56 q 0.74,-0.12 0.62,0.63 l -8.06,50.21 q -0.09,0.56 0.47,0.45 l 42.48,-8.05 a 1.24,1.23 -0.7 0 0 0.99,-1.01 l 0.95,-5.6 q 0.09,-0.53 0.55,-0.26 8.43,4.78 18.61,2.86 30.48,-5.73 60.94,-11.68 c 2.52,-0.49 3.45,-2.02 3.81,-4.36 q 3.01,-19.23 6.29,-38.41 0.11,-0.62 -0.48,-0.81 l -0.26,-0.09 q -0.55,-0.18 -0.35,-0.71 2.56,-6.98 4.01,-17.74 2.03,-15.18 -9.8,-23.17 -7.84,-5.29 -16.23,-4.16 -8.31,1.12 -38.67,7.41 c -10.99,2.28 -18.72,6.41 -25.42,14.87 a 0.57,0.57 0 0 1 -0.81,0.09 c -8.7,-7.18 -15.6,-7.08 -27.22,-4.88 q -19.8,3.75 -39.66,7.55 a 0.76,0.75 76.7 0 0 -0.58,0.95 l 3.29,11.2 a 0.78,0.78 0 0 0 0.9,0.55 q 20.62,-4.01 41.52,-7.98 c 9.52,-1.81 16.64,1.68 14.68,13.09 q -3.24,18.85 -8.1,50.55 -0.08,0.54 -0.61,0.64 l -13.51,2.6 q -1.32,0.25 -1.11,-1.08 l 7.39,-46.1 q 0.07,-0.47 -0.11,-0.9 -1.21,-2.93 -3.98,-2.49 -8.47,1.34 -34.24,6.67 -0.49,0.1 -0.57,0.6 l -8.09,50.29 q -0.1,0.66 -0.76,0.79 l -14.07,2.81 q -0.57,0.11 -0.47,-0.46 l 9.48,-58.99 q 0.11,-0.68 -0.41,-1.13 l -16.11,-14.03 q -0.36,-0.32 -0.79,-0.13 l -43.99,18.98 q -1.29,0.55 0.09,0.29 l 17.92,-3.45 a 0.42,0.42 0 0 1 0.5,0.47 q -5.5,34.63 -11.14,69.42 -2.31,14.3 -4.22,19.52 c -6.97,19.07 -24.19,32.39 -44.02,36.34 q -8.02,1.59 -16.2,2.92 -0.57,0.09 -0.48,-0.47 l 2.46,-14.62 a 0.77,0.75 -89.9 0 1 0.62,-0.63 c 5.89,-0.98 12.46,-1.92 17.71,-3.84 q 25.77,-9.41 29.1,-38.1 0.07,-0.61 -0.54,-0.5 -17.62,3.07 -35.16,6.59 c -7.04,1.42 -13.3,1.85 -16.13,-5.48 q -0.89,-2.3 -0.34,-5.78 2.91,-18.51 5.92,-37.01 c 0.93,-5.76 5.33,-10.91 10.34,-14.87 q 12.87,-10.15 25.85,-20.02 a 0.24,0.24 0 0 0 -0.19,-0.43 c -16.35,3 -31.39,4 -42.59,18.45 q -0.36,0.46 -0.79,0.07 -9.4,-8.5 -21.17,-6.25 -20.34,3.89 -40.15,7.59 -1,0.19 -0.84,-0.81 l 5.57,-34.63 q 0.09,-0.54 0.58,-0.79 0.87,-0.44 1.88,-0.62 c 12.56,-2.29 27.96,-4.08 38.64,-8.95 q 20.59,-9.39 27.28,-31.3 c 2.51,-8.23 3.7,-20.42 5.28,-30.34 2.02,-12.62 -4.19,-23.64 -16.69,-26.87 -5.65,-1.47 -10.69,-0.48 -16.62,0.64 q -30.86,5.85 -61.88,11.78 a 0.6,0.59 -1.4 0 0 -0.48,0.5 l -12.51,77.59 a 0.98,0.97 -0.9 0 1 -0.78,0.8 q -33.84,6.44 -66.85,12.77 c -2.96,0.57 -4.42,1.44 -4.91,4.44 q -10.58,65.46 -21.05,130.94 c -0.46,2.87 -1.63,6.08 0.18,8.34 q 1.43,1.8 3.78,1.35 61.28,-11.63 122.44,-23.29 a 0.51,0.5 89.3 0 0 0.39,-0.41 l 8.21,-50.85 q 0.08,-0.48 0.55,-0.57 l 9.68,-1.9 a 0.49,0.49 0 0 1 0.58,0.56 l -8.09,50.32 a 0.51,0.5 89.2 0 0 0.59,0.58 l 42.52,-8.1 q 0.54,-0.1 0.64,-0.64 l 1.09,-5.86 q 0.12,-0.63 0.68,-0.32 c 10.94,6.12 22.14,2.19 33.29,0.02 z m 93.08,-118.87 74.16,-57.37 a 0.11,0.11 0 0 0 -0.11,-0.19 l -86.92,37.56 q -0.47,0.2 -0.86,-0.14 L 418.59,84.25 a 0.21,0.21 0 0 0 -0.34,0.22 l 9.95,33.97 q 0.13,0.42 -0.22,0.69 l -73.87,57.11 a 0.19,0.19 0 0 0 0.19,0.32 l 86.46,-37.39 q 0.47,-0.2 0.86,0.13 l 27.02,23.56 q 0.82,0.71 0.51,-0.33 l -9.84,-33.54 q -0.16,-0.54 0.28,-0.88 z M 397.75,77.49 c 31.73,0.08 61.36,1.62 94.51,5 q 6.63,0.67 12.58,-3.68 0.49,-0.35 -0.11,-0.43 -52.87,-6.66 -106.19,-6.53 -0.62,0 -0.7,0.61 l -0.57,4.48 q -0.07,0.55 0.48,0.55 z m 281,84.17 c 7.07,35.13 -52.24,60.65 -76.8,69.33 -59.01,20.84 -123.66,29.86 -186.05,32.15 q -0.88,0.03 -1.31,0.79 l -2.57,4.55 q -0.35,0.61 0.35,0.58 31.44,-1.32 65.12,-5.09 c 48.35,-5.4 97.25,-15.4 142.08,-33.88 21.33,-8.8 46.73,-22.68 59.36,-42.14 23.5,-36.2 -20.94,-64.71 -47.65,-76.72 C 598.41,96.44 561.09,87.11 526.21,81.62 q -0.48,-0.07 -0.87,0.22 l -4.9,3.6 a 0.57,0.57 0 0 0 0.25,1.02 c 40.98,6.02 83.61,16.48 120.42,35.86 14.85,7.81 34.17,22.08 37.64,39.34 z m -578.06,27.8 c -15.03,-25.17 11.52,-48.04 30.38,-59.14 33.28,-19.6 73.14,-31.07 111.02,-38.44 a 0.99,0.98 88.8 0 0 0.79,-0.83 l 0.64,-4.53 q 0.08,-0.56 -0.47,-0.45 -40.52,7.52 -80.31,22.65 c -25.82,9.81 -75.07,34.07 -72.16,68.23 2.35,27.57 37,45.77 59.19,55.81 a 0.49,0.48 -73.9 0 0 0.68,-0.38 l 0.62,-4.76 q 0.07,-0.53 -0.42,-0.74 c -18.12,-7.64 -39.47,-19.84 -49.96,-37.42 z M 435.45,93.22 a 0.31,0.31 0 0 0 -0.14,0.54 l 12.19,10.53 a 0.31,0.31 0 0 0 0.51,-0.19 l 2.14,-13.18 a 0.31,0.31 0 0 0 -0.36,-0.35 z m -39.28,84.74 c -11.43,2.05 -22.83,4.29 -34.24,6.45 q -2.71,0.51 -4.3,1.69 -0.45,0.33 -0.54,0.88 -2.25,13.94 -4.57,27.92 c -0.71,4.32 0.93,6.03 5.31,5.18 q 14.91,-2.92 29.86,-5.64 1.48,-0.27 2.9,-0.89 0.48,-0.21 0.56,-0.72 l 5.49,-34.42 q 0.08,-0.55 -0.47,-0.45 z"
     id="path36-3" /><path
     d="m 288.81,75.07 c 7.11,-0.86 14.44,-2.68 21.52,-4.03 4.3,-0.82 4.38,1.61 3.88,4.93 q -1.49,9.91 -3.16,19.79 c -0.41,2.39 -1.66,3.77 -4.16,4.29 q -11.46,2.41 -23,4.49 -0.54,0.1 -0.46,-0.45 l 4.47,-28.16 a 1.05,1.04 1.5 0 1 0.91,-0.86 z"
     id="path38-6" /><path
     d="m 551.69,172.32 c -0.28,2.73 -3.32,11.42 3.23,10.21 q 24.32,-4.52 48.76,-9.25 0.87,-0.17 0.74,0.7 l -2.12,14.26 q -0.08,0.53 -0.61,0.63 -26.68,5.13 -53.28,10.14 -4.67,0.88 -7.39,0.04 c -7.19,-2.22 -7.24,-8.24 -6.09,-14.99 q 1.97,-11.56 4.89,-30.49 2.01,-12.99 12.27,-18.94 4.03,-2.33 13.42,-4.18 13.8,-2.72 27.63,-5.27 c 7.25,-1.33 12.59,-2.53 16.56,3.84 2.3,3.69 0.41,10.53 -0.38,14.7 -2.19,11.54 -9.71,19.19 -21.5,21.46 q -17.81,3.42 -35.74,6.71 a 0.5,0.49 87.6 0 0 -0.39,0.43 z m 38.06,-31.12 c -9.77,1.12 -20.87,3.73 -30.96,5.8 -3.89,0.79 -4.18,5.33 -4.24,8.71 q -0.01,0.51 0.49,0.41 17.47,-3.33 34.93,-6.71 c 6.39,-1.24 4.83,-8.79 -0.22,-8.21 z"
     id="path40" /><path
     d="m 237.19,243.52 -2.36,14.94 a 0.34,0.34 0 0 1 -0.27,0.28 l -69.32,13.24 a 0.34,0.34 0 0 1 -0.4,-0.39 l 18.77,-117.13 a 0.34,0.34 0 0 1 0.27,-0.28 l 58.85,-11.13 a 0.34,0.34 0 0 1 0.4,0.39 l -2.6,14.95 a 0.34,0.34 0 0 1 -0.27,0.27 l -43.59,8.41 a 0.34,0.34 0 0 0 -0.27,0.28 l -5.42,33.89 a 0.34,0.34 0 0 0 0.4,0.39 l 32.63,-6.28 a 0.34,0.34 0 0 1 0.4,0.39 l -2.29,14.98 a 0.34,0.34 0 0 1 -0.28,0.29 l -33.3,6.42 a 0.34,0.34 0 0 0 -0.27,0.28 l -5.65,35.21 a 0.34,0.34 0 0 0 0.4,0.39 l 53.78,-10.18 a 0.34,0.34 0 0 1 0.39,0.39 z"
     id="path42" /><path
     d="m 418.23,223 10.65,-66.16 a 0.56,0.56 0 0 1 0.44,-0.46 l 14.13,-2.78 a 0.56,0.56 0 0 1 0.66,0.63 l -10.74,66.3 a 0.56,0.56 0 0 1 -0.45,0.46 l -14.04,2.65 A 0.56,0.56 0 0 1 418.23,223 Z"
     id="path44" /><path
     d="m 207.38,184.78 1.04,-6.39 a 0.36,0.36 0 0 1 0.29,-0.3 l 39.98,-7.59 a 0.36,0.36 0 0 1 0.42,0.41 l -9.3,58.01 a 0.36,0.36 0 0 1 -0.29,0.3 l -39.92,7.64 a 0.36,0.36 0 0 1 -0.43,-0.4 l 1.12,-7.68 a 0.36,0.36 0 0 1 0.29,-0.3 l 33.24,-6.3 a 0.36,0.36 0 0 0 0.29,-0.3 l 6.88,-42.58 a 0.36,0.36 0 0 0 -0.43,-0.41 l -32.75,6.3 a 0.36,0.36 0 0 1 -0.43,-0.41 z"
     id="path46" /><path
     d="m 272.87,201.98 -8.18,50.39 q -0.11,0.67 -0.79,0.8 l -13.78,2.58 q -0.78,0.15 -0.66,-0.64 l 10.6,-65.95 q 0.07,-0.44 0.52,-0.53 27.37,-5.52 54.83,-10.64 c 6.88,-1.28 13.68,3.63 12.5,11 q -4.23,26.52 -8.37,52.92 -0.11,0.64 -0.74,0.77 l -14.03,2.83 q -0.6,0.12 -0.51,-0.49 3.33,-21.72 6.91,-43.33 c 0.47,-2.85 1.11,-7.64 -3.74,-6.8 q -17,2.95 -33.91,6.41 -0.56,0.12 -0.65,0.68 z"
     id="path48" /><path
     d="m 378.79,202.64 -10.33,2.01 a 0.35,0.35 0 0 1 -0.41,-0.41 l 1.51,-7.75 a 0.35,0.35 0 0 1 0.28,-0.27 l 9.86,-1.82 a 0.35,0.35 0 0 1 0.41,0.39 l -1.04,7.55 a 0.35,0.35 0 0 1 -0.28,0.3 z"
     id="path50" /></g><g
   fill="#ffffff"
   id="g72"
   transform="matrix(0.18611386,0,0,0.18611386,5.7322858,92.65247)"><path
     d="m 384.87,109.03 c -0.35,2.08 0.62,4.35 3.1,4 q 9.32,-1.33 18.53,-3.3 c 6.12,-1.31 6.46,-5.88 6.47,-11.35 q 0,-0.67 0.66,-0.83 l 3.18,-0.78 a 1.04,1.03 75 0 1 1.23,0.72 l 5.68,19.31 q 0.27,0.91 -0.48,1.49 -15.25,11.83 -30.85,23.9 -1.66,1.29 -3.77,1.64 c -13.77,2.34 -25.69,6.59 -36.3,-5.64 -5.62,-6.48 -5.58,-13.17 -4.15,-22.1 q 4.12,-25.8 8.3,-51.6 c 3.35,-20.64 19.85,-36.18 40.1,-40.39 q 6.71,-1.4 29.97,-5.72 7.9,-1.47 12,-0.79 c 9.81,1.62 18.27,9.71 19.37,19.82 0.5,4.63 -0.9,10.93 -1.56,16.17 a 1.03,1.02 -2 0 1 -0.83,0.88 l -35.78,6.81 a 0.48,0.48 0 0 1 -0.56,-0.55 c 0.41,-2.27 3.21,-11.04 -2.18,-10 q -9.87,1.9 -19.74,3.78 c -3.63,0.7 -4.03,3.85 -4.6,7.46 q -3.74,23.57 -7.79,47.07 z"
     id="path54" /><path
     d="m 366.51,246.98 c -11.15,2.17 -22.35,6.1 -33.29,-0.02 q -0.56,-0.31 -0.68,0.32 l -1.09,5.86 q -0.1,0.54 -0.64,0.64 l -42.52,8.1 a 0.51,0.5 89.2 0 1 -0.59,-0.58 l 8.09,-50.32 a 0.49,0.49 0 0 0 -0.58,-0.56 l -9.68,1.9 q -0.47,0.09 -0.55,0.57 l -8.21,50.85 a 0.51,0.5 89.3 0 1 -0.39,0.41 q -61.16,11.66 -122.44,23.29 -2.35,0.45 -3.78,-1.35 c -1.81,-2.26 -0.64,-5.47 -0.18,-8.34 q 10.47,-65.48 21.05,-130.94 c 0.49,-3 1.95,-3.87 4.91,-4.44 q 33.01,-6.33 66.85,-12.77 a 0.98,0.97 -0.9 0 0 0.78,-0.8 l 12.51,-77.59 a 0.6,0.59 -1.4 0 1 0.48,-0.5 q 31.02,-5.93 61.88,-11.78 c 5.93,-1.12 10.97,-2.11 16.62,-0.64 12.5,3.23 18.71,14.25 16.69,26.87 -1.58,9.92 -2.77,22.11 -5.28,30.34 q -6.69,21.91 -27.28,31.3 c -10.68,4.87 -26.08,6.66 -38.64,8.95 q -1.01,0.18 -1.88,0.62 -0.49,0.25 -0.58,0.79 l -5.57,34.63 q -0.16,1 0.84,0.81 19.81,-3.7 40.15,-7.59 11.77,-2.25 21.17,6.25 0.43,0.39 0.79,-0.07 c 11.2,-14.45 26.24,-15.45 42.59,-18.45 a 0.24,0.24 0 0 1 0.19,0.43 q -12.98,9.87 -25.85,20.02 c -5.01,3.96 -9.41,9.11 -10.34,14.87 q -3.01,18.5 -5.92,37.01 -0.55,3.48 0.34,5.78 c 2.83,7.33 9.09,6.9 16.13,5.48 q 17.54,-3.52 35.16,-6.59 0.61,-0.11 0.54,0.5 -3.33,28.69 -29.1,38.1 c -5.25,1.92 -11.82,2.86 -17.71,3.84 a 0.77,0.75 -89.9 0 0 -0.62,0.63 l -2.46,14.62 q -0.09,0.56 0.48,0.47 8.18,-1.33 16.2,-2.92 c 19.83,-3.95 37.05,-17.27 44.02,-36.34 q 1.91,-5.22 4.22,-19.52 5.64,-34.79 11.14,-69.42 a 0.42,0.42 0 0 0 -0.5,-0.47 l -17.92,3.45 q -1.38,0.26 -0.09,-0.29 l 43.99,-18.98 q 0.43,-0.19 0.79,0.13 l 16.11,14.03 q 0.52,0.45 0.41,1.13 l -9.48,58.99 q -0.1,0.57 0.47,0.46 l 14.07,-2.81 q 0.66,-0.13 0.76,-0.79 l 8.09,-50.29 q 0.08,-0.5 0.57,-0.6 25.77,-5.33 34.24,-6.67 2.77,-0.44 3.98,2.49 0.18,0.43 0.11,0.9 l -7.39,46.1 q -0.21,1.33 1.11,1.08 l 13.51,-2.6 q 0.53,-0.1 0.61,-0.64 4.86,-31.7 8.1,-50.55 c 1.96,-11.41 -5.16,-14.9 -14.68,-13.09 q -20.9,3.97 -41.52,7.98 a 0.78,0.78 0 0 1 -0.9,-0.55 l -3.29,-11.2 a 0.76,0.75 76.7 0 1 0.58,-0.95 q 19.86,-3.8 39.66,-7.55 c 11.62,-2.2 18.52,-2.3 27.22,4.88 a 0.57,0.57 0 0 0 0.81,-0.09 c 6.7,-8.46 14.43,-12.59 25.42,-14.87 q 30.36,-6.29 38.67,-7.41 8.39,-1.13 16.23,4.16 11.83,7.99 9.8,23.17 -1.45,10.76 -4.01,17.74 -0.2,0.53 0.35,0.71 l 0.26,0.09 q 0.59,0.19 0.48,0.81 -3.28,19.18 -6.29,38.41 c -0.36,2.34 -1.29,3.87 -3.81,4.36 q -30.46,5.95 -60.94,11.68 -10.18,1.92 -18.61,-2.86 -0.46,-0.27 -0.55,0.26 l -0.95,5.6 a 1.24,1.23 -0.7 0 1 -0.99,1.01 l -42.48,8.05 q -0.56,0.11 -0.47,-0.45 l 8.06,-50.21 q 0.12,-0.75 -0.62,-0.63 l -9.44,1.56 q -0.59,0.1 -0.69,0.69 l -8.21,50.66 a 0.95,0.95 0 0 1 -0.75,0.77 l -58.23,11.05 q -0.22,0.04 -0.25,0.26 c -4.68,31.02 -27.36,53.93 -57.94,59.88 q -13.54,2.64 -27.11,5.17 c -5.09,0.95 -8.79,0.83 -7.78,-5.73 q 2.29,-14.8 4.81,-29.53 c 0.71,-4.11 0.37,-6.23 5.26,-7.14 12.4,-2.3 24.65,-2.93 33.87,-12.59 q 1.16,-1.21 -0.48,-0.89 z M 310.33,71.04 c -7.08,1.35 -14.41,3.17 -21.52,4.03 a 1.05,1.04 1.5 0 0 -0.91,0.86 l -4.47,28.16 q -0.08,0.55 0.46,0.45 11.54,-2.08 23,-4.49 c 2.5,-0.52 3.75,-1.9 4.16,-4.29 q 1.67,-9.88 3.16,-19.79 c 0.5,-3.32 0.42,-5.75 -3.88,-4.93 z m 241.36,101.28 a 0.5,0.49 87.6 0 1 0.39,-0.43 q 17.93,-3.29 35.74,-6.71 c 11.79,-2.27 19.31,-9.92 21.5,-21.46 0.79,-4.17 2.68,-11.01 0.38,-14.7 -3.97,-6.37 -9.31,-5.17 -16.56,-3.84 q -13.83,2.55 -27.63,5.27 -9.39,1.85 -13.42,4.18 -10.26,5.95 -12.27,18.94 -2.92,18.93 -4.89,30.49 c -1.15,6.75 -1.1,12.77 6.09,14.99 q 2.72,0.84 7.39,-0.04 26.6,-5.01 53.28,-10.14 0.53,-0.1 0.61,-0.63 l 2.12,-14.26 q 0.13,-0.87 -0.74,-0.7 -24.44,4.73 -48.76,9.25 c -6.55,1.21 -3.51,-7.48 -3.23,-10.21 z m -314.5,71.2 a 0.34,0.34 0 0 0 -0.39,-0.39 l -53.78,10.18 a 0.34,0.34 0 0 1 -0.4,-0.39 l 5.65,-35.21 a 0.34,0.34 0 0 1 0.27,-0.28 l 33.3,-6.42 a 0.34,0.34 0 0 0 0.28,-0.29 l 2.29,-14.98 a 0.34,0.34 0 0 0 -0.4,-0.39 l -32.63,6.28 a 0.34,0.34 0 0 1 -0.4,-0.39 l 5.42,-33.89 a 0.34,0.34 0 0 1 0.27,-0.28 l 43.59,-8.41 a 0.34,0.34 0 0 0 0.27,-0.27 l 2.6,-14.95 a 0.34,0.34 0 0 0 -0.4,-0.39 l -58.85,11.13 a 0.34,0.34 0 0 0 -0.27,0.28 l -18.77,117.13 a 0.34,0.34 0 0 0 0.4,0.39 l 69.32,-13.24 a 0.34,0.34 0 0 0 0.27,-0.28 z M 418.23,223 a 0.56,0.56 0 0 0 0.65,0.64 l 14.04,-2.65 a 0.56,0.56 0 0 0 0.45,-0.46 l 10.74,-66.3 a 0.56,0.56 0 0 0 -0.66,-0.63 l -14.13,2.78 a 0.56,0.56 0 0 0 -0.44,0.46 z M 207.38,184.78 a 0.36,0.36 0 0 0 0.43,0.41 l 32.75,-6.3 a 0.36,0.36 0 0 1 0.43,0.41 l -6.88,42.58 a 0.36,0.36 0 0 1 -0.29,0.3 l -33.24,6.3 a 0.36,0.36 0 0 0 -0.29,0.3 l -1.12,7.68 a 0.36,0.36 0 0 0 0.43,0.4 l 39.92,-7.64 a 0.36,0.36 0 0 0 0.29,-0.3 l 9.3,-58.01 a 0.36,0.36 0 0 0 -0.42,-0.41 l -39.98,7.59 a 0.36,0.36 0 0 0 -0.29,0.3 z m 66.14,16.52 q 16.91,-3.46 33.91,-6.41 c 4.85,-0.84 4.21,3.95 3.74,6.8 q -3.58,21.61 -6.91,43.33 -0.09,0.61 0.51,0.49 l 14.03,-2.83 q 0.63,-0.13 0.74,-0.77 4.14,-26.4 8.37,-52.92 c 1.18,-7.37 -5.62,-12.28 -12.5,-11 q -27.46,5.12 -54.83,10.64 -0.45,0.09 -0.52,0.53 l -10.6,65.95 q -0.12,0.79 0.66,0.64 l 13.78,-2.58 q 0.68,-0.13 0.79,-0.8 l 8.18,-50.39 q 0.09,-0.56 0.65,-0.68 z"
     id="path56" /><path
     d="m 459.31,128.99 9.84,33.54 q 0.31,1.04 -0.51,0.33 L 441.62,139.3 q -0.39,-0.33 -0.86,-0.13 l -86.46,37.39 a 0.19,0.19 0 0 1 -0.19,-0.32 l 73.87,-57.11 q 0.35,-0.27 0.22,-0.69 l -9.95,-33.97 a 0.21,0.21 0 0 1 0.34,-0.22 l 27.27,23.72 q 0.39,0.34 0.86,0.14 l 86.92,-37.56 a 0.11,0.11 0 0 1 0.11,0.19 l -74.16,57.37 q -0.44,0.34 -0.28,0.88 z"
     id="path58" /><path
     d="m 492.26,82.49 c -33.15,-3.38 -62.78,-4.92 -94.51,-5 q -0.55,0 -0.48,-0.55 l 0.57,-4.48 q 0.08,-0.61 0.7,-0.61 53.32,-0.13 106.19,6.53 0.6,0.08 0.11,0.43 -5.95,4.35 -12.58,3.68 z"
     id="path60" /><path
     d="M 678.75,161.66 C 675.28,144.4 655.96,130.13 641.11,122.32 604.3,102.94 561.67,92.48 520.69,86.46 a 0.57,0.57 0 0 1 -0.25,-1.02 l 4.9,-3.6 q 0.39,-0.29 0.87,-0.22 c 34.88,5.49 72.2,14.82 105.07,29.61 26.71,12.01 71.15,40.52 47.65,76.72 -12.63,19.46 -38.03,33.34 -59.36,42.14 -44.83,18.48 -93.73,28.48 -142.08,33.88 q -33.68,3.77 -65.12,5.09 -0.7,0.03 -0.35,-0.58 l 2.57,-4.55 q 0.43,-0.76 1.31,-0.79 c 62.39,-2.29 127.04,-11.31 186.05,-32.15 24.56,-8.68 83.87,-34.2 76.8,-69.33 z"
     id="path62" /><path
     d="m 131.07,130.32 c -18.86,11.1 -45.41,33.97 -30.38,59.14 10.49,17.58 31.84,29.78 49.96,37.42 q 0.49,0.21 0.42,0.74 l -0.62,4.76 a 0.49,0.48 -73.9 0 1 -0.68,0.38 c -22.19,-10.04 -56.84,-28.24 -59.19,-55.81 -2.91,-34.16 46.34,-58.42 72.16,-68.23 q 39.79,-15.13 80.31,-22.65 0.55,-0.11 0.47,0.45 l -0.64,4.53 a 0.99,0.98 88.8 0 1 -0.79,0.83 c -37.88,7.37 -77.74,18.84 -111.02,38.44 z"
     id="path64" /><path
     d="m 435.45,93.22 14.34,-2.65 a 0.31,0.31 0 0 1 0.36,0.35 l -2.14,13.18 a 0.31,0.31 0 0 1 -0.51,0.19 L 435.31,93.76 a 0.31,0.31 0 0 1 0.14,-0.54 z"
     id="path66" /><path
     d="m 558.79,147 c 10.09,-2.07 21.19,-4.68 30.96,-5.8 5.05,-0.58 6.61,6.97 0.22,8.21 q -17.46,3.38 -34.93,6.71 -0.5,0.1 -0.49,-0.41 c 0.06,-3.38 0.35,-7.92 4.24,-8.71 z"
     id="path68" /><path
     d="m 361.93,184.41 c 11.41,-2.16 22.81,-4.4 34.24,-6.45 q 0.55,-0.1 0.47,0.45 l -5.49,34.42 q -0.08,0.51 -0.56,0.72 -1.42,0.62 -2.9,0.89 -14.95,2.72 -29.86,5.64 c -4.38,0.85 -6.02,-0.86 -5.31,-5.18 q 2.32,-13.98 4.57,-27.92 0.09,-0.55 0.54,-0.88 1.59,-1.18 4.3,-1.69 z m 16.86,18.23 a 0.35,0.35 0 0 0 0.28,-0.3 l 1.04,-7.55 a 0.35,0.35 0 0 0 -0.41,-0.39 l -9.86,1.82 a 0.35,0.35 0 0 0 -0.28,0.27 l -1.51,7.75 a 0.35,0.35 0 0 0 0.41,0.41 z"
     id="path70" /></g></svg>
