<?xml version='1.0' encoding='utf-8'?>
<svg xmlns="http://www.w3.org/2000/svg" id="Layer_1" viewBox="0 0 269.5 98.8" width="600" height="220.08" version="1.1">
    <defs id="defs20">
        <linearGradient id="linearGradient20" gradientUnits="userSpaceOnUse" x1="426.75101" y1="-632.71002" x2="416.733" y2="-614.04199" gradientTransform="matrix(1,0,0,-1,-413.451,-579.186)">
            <stop offset="0" stop-color="#0070b6" id="stop1-3"/>
            <stop offset="1" stop-color="#1d2c5e" id="stop2-6"/>
        </linearGradient>
        <linearGradient id="linearGradient21" gradientUnits="userSpaceOnUse" x1="548.92603" y1="-594.57202" x2="561.64099" y2="-580.948" gradientTransform="matrix(1,0,0,-1,-413.451,-579.186)">
            <stop offset="0" stop-color="#0070b6" id="stop3-7"/>
            <stop offset="1" stop-color="#1d2c5e" id="stop4-5"/>
        </linearGradient>
        <linearGradient id="linearGradient22" gradientUnits="userSpaceOnUse" x1="493.453" y1="-617.28601" x2="491.93701" y2="-604.54797" gradientTransform="matrix(1,0,0,-1,-413.451,-579.186)">
            <stop offset="0" stop-color="#0070b6" id="stop5-3"/>
            <stop offset="1" stop-color="#1d2c5e" id="stop6-5"/>
        </linearGradient>
        <linearGradient id="linearGradient23" gradientUnits="userSpaceOnUse" x1="632.34698" y1="-614.83398" x2="631.742" y2="-603.336" gradientTransform="matrix(1,0,0,-1,-413.451,-579.186)">
            <stop offset="0" stop-color="#125d9e" id="stop7-6"/>
            <stop offset="1" stop-color="#1d2c5e" id="stop8-2"/>
        </linearGradient>
        <linearGradient id="linearGradient24" gradientUnits="userSpaceOnUse" x1="589.91199" y1="-598.26099" x2="576.56799" y2="-619.48901" gradientTransform="matrix(1,0,0,-1,-413.451,-579.186)">
            <stop offset="0" stop-color="#125d9e" id="stop9-9"/>
            <stop offset="1" stop-color="#1d2c5e" id="stop10-1"/>
        </linearGradient>
        <linearGradient id="linearGradient25" gradientUnits="userSpaceOnUse" x1="471.82101" y1="-632.30902" x2="480.91901" y2="-650.20203" gradientTransform="matrix(1,0,0,-1,-413.451,-579.186)">
            <stop offset="0" stop-color="#105fa1" id="stop11-2"/>
            <stop offset="1" stop-color="#1d2c5e" id="stop12-7"/>
        </linearGradient>
        <linearGradient id="linearGradient26" gradientUnits="userSpaceOnUse" x1="437.492" y1="-626.20203" x2="448.022" y2="-650.612" gradientTransform="matrix(1,0,0,-1,-413.451,-579.186)">
            <stop offset="0" stop-color="#105fa1" id="stop13-0"/>
            <stop offset="1" stop-color="#1d2c5e" id="stop14-9"/>
        </linearGradient>
        <linearGradient id="linearGradient27" gradientUnits="userSpaceOnUse" x1="639.70599" y1="2062.77" x2="655.63501" y2="2062.77" gradientTransform="translate(-569.451,-2006.686)">
            <stop offset="0" stop-color="#3c5aa6" id="stop15-3"/>
            <stop offset=".933" stop-color="#2b73b9" id="stop16-6"/>
            <stop offset="1" stop-color="#2a75bb" id="stop17-0"/>
        </linearGradient>
        <linearGradient id="path196_1_" gradientUnits="userSpaceOnUse" x1="578.62799" y1="2056.2571" x2="844.37097" y2="2056.2571" gradientTransform="translate(-569.451,-2006.686)">
            <stop offset="0" stop-color="#3c5aa6" id="stop18"/>
            <stop offset=".933" stop-color="#2b73b9" id="stop19"/>
            <stop offset="1" stop-color="#2a75bb" id="stop20"/>
        </linearGradient>
    </defs>
    <style id="style1">.st0{fill:url(#polygon16_1_)}.st1{fill:#0071b9}.st2{fill:url(#polygon25_1_)}.st3{fill:#1d2c5e}.st4{fill:url(#polygon36_1_)}.st5{fill:url(#polygon43_1_)}.st6{fill:#312370}.st7{fill:#21386e}.st8{fill:url(#polygon56_1_)}.st9{fill:url(#path69_1_)}.st10{fill:url(#polygon78_1_)}.st11{fill:#ffcb05}.st12{fill:#7d7f68}.st13{fill:#c7a008}.st14{fill:#3c5aa6}.st15{fill:#3567b0}.st16{fill:#1e2d5f}.st17{fill:#3466af}.st18{fill:url(#path183_1_)}.st19{fill:url(#path196_1_)}</style>
    <linearGradient id="polygon16_1_" gradientUnits="userSpaceOnUse" x1="426.751" y1="-632.71" x2="416.733" y2="-614.042" gradientTransform="matrix(1,0,0,-1,-412.912,-578.9967)">
        <stop offset="0" stop-color="#0070b6" id="stop1"/>
        <stop offset="1" stop-color="#1d2c5e" id="stop2"/>
    </linearGradient>
    <linearGradient id="polygon25_1_" gradientUnits="userSpaceOnUse" x1="548.926" y1="-594.572" x2="561.641" y2="-580.948" gradientTransform="matrix(1,0,0,-1,-412.912,-578.9967)">
        <stop offset="0" stop-color="#0070b6" id="stop3"/>
        <stop offset="1" stop-color="#1d2c5e" id="stop4"/>
    </linearGradient>
    <linearGradient id="polygon36_1_" gradientUnits="userSpaceOnUse" x1="493.453" y1="-617.286" x2="491.937" y2="-604.548" gradientTransform="matrix(1,0,0,-1,-412.912,-578.9967)">
        <stop offset="0" stop-color="#0070b6" id="stop5"/>
        <stop offset="1" stop-color="#1d2c5e" id="stop6"/>
    </linearGradient>
    <linearGradient id="polygon43_1_" gradientUnits="userSpaceOnUse" x1="632.347" y1="-614.834" x2="631.742" y2="-603.336" gradientTransform="matrix(1,0,0,-1,-412.912,-578.9967)">
        <stop offset="0" stop-color="#125d9e" id="stop7"/>
        <stop offset="1" stop-color="#1d2c5e" id="stop8"/>
    </linearGradient>
    <linearGradient id="polygon56_1_" gradientUnits="userSpaceOnUse" x1="589.912" y1="-598.261" x2="576.568" y2="-619.489" gradientTransform="matrix(1,0,0,-1,-412.912,-578.9967)">
        <stop offset="0" stop-color="#125d9e" id="stop9"/>
        <stop offset="1" stop-color="#1d2c5e" id="stop10"/>
    </linearGradient>
    <linearGradient id="path69_1_" gradientUnits="userSpaceOnUse" x1="471.821" y1="-632.309" x2="480.919" y2="-650.202" gradientTransform="matrix(1,0,0,-1,-412.912,-578.9967)">
        <stop offset="0" stop-color="#105fa1" id="stop11"/>
        <stop offset="1" stop-color="#1d2c5e" id="stop12"/>
    </linearGradient>
    <linearGradient id="polygon78_1_" gradientUnits="userSpaceOnUse" x1="437.492" y1="-626.202" x2="448.022" y2="-650.612" gradientTransform="matrix(1,0,0,-1,-412.912,-578.9967)">
        <stop offset="0" stop-color="#105fa1" id="stop13"/>
        <stop offset="1" stop-color="#1d2c5e" id="stop14"/>
    </linearGradient>
    <linearGradient id="path183_1_" gradientUnits="userSpaceOnUse" x1="639.706" y1="2062.77" x2="655.635" y2="2062.77" gradientTransform="translate(-568.912,-2006.4967)">
        <stop offset="0" stop-color="#3c5aa6" id="stop15"/>
        <stop offset=".933" stop-color="#2b73b9" id="stop16"/>
        <stop offset="1" stop-color="#2a75bb" id="stop17"/>
    </linearGradient>
    <path id="polygon16" class="st0" d="m 0.539,36.7893 12,20.3 4.8,-4.6 -13.1,-19.5 z" style="fill:url(#polygon16_1_)"/>
    <path id="polygon18" class="st1" d="m 179.139,20.7893 -0.5,2.7 5.7,-1.9 -0.7,-3.3 z" style="fill:#0071b9"/>
    <path id="polygon25" class="st2" d="m 145.539,2.4893 -18.5,21.2 5.4,-1.5 17.6,-22 z" style="fill:url(#polygon25_1_)"/>
    <path id="polygon27" class="st3" d="m 244.639,31.4893 4.5,-2.4 -1.3,11.4 z" style="fill:#1d2c5e"/>
    <path id="polygon29" class="st3" d="m 216.339,38.7893 4.1,0.9 5.1,-2.5 -4.5,-1.7 z" style="fill:#1d2c5e"/>
    <path id="polygon36" class="st4" d="m 77.139,26.7893 0.6,13.1 5.7,-2.2 -1.7,-13.4 z" style="fill:url(#polygon36_1_)"/>
    <path id="polygon43" class="st5" d="m 220.739,22.7893 -4.5,2.5 0.1,13.5 4.6,-2.3 1.4,-6.6 z" style="fill:url(#polygon43_1_)"/>
    <path id="polygon45" class="st6" d="m 220.139,39.6893 -5,44.4 8,-1.6 1.5,-45.2 z" style="fill:#312370"/>
    <path id="polygon47" class="st7" d="m 229.839,86.1893 0.2,6 15.3,4.9 4.6,-2.4 -15.1,-11.7 -15.2,-1.3 -4.5,2.4 z" style="fill:#21386e"/>
    <path id="polygon49" class="st7" d="m 173.039,75.5893 3.7,-2 2.5,4.4 3.5,-1.9 0.7,5.8 22.3,4 4.4,-2.5 -30.7,-18.7 -21.8,3.7 -4.2,4.1 z" style="fill:#21386e"/>
    <path id="polygon56" class="st8" d="m 165.939,20.9893 -4.5,2.5 -8,49 4.5,-2.4 7.7,-27.5 z" style="fill:url(#polygon56_1_)"/>
    <path id="polygon58" class="st3" d="m 130.339,27.5893 -3.6,1.9 0.3,1.2 8.5,-5.4 -3.7,-4 -4.8,2.4 z" style="fill:#1d2c5e"/>
    <path id="polygon60" class="st7" d="m 140.039,85.4893 -36.3,-18 4.5,-3.5 36.3,19 z" style="fill:#21386e"/>
    <path id="polygon62" class="st3" d="m 107.139,18.4893 -5.5,10.4 5.8,-1.7 4.2,-11.2 z" style="fill:#1d2c5e"/>
    <path id="path69" class="st9" d="m 57.139,61.5893 -4.6,3.2 c 0,0 1,5.2 2.3,8.8 1.3,3.6 4.3,6.5 4.3,6.5 2,1.9 4.3,3.3 7,4.1 5.1,1.5 10.9,0.5 15.9,-2.7 1.3,-0.8 3.1,-2.1 4.2,-3.2 -4.9,3 -29.1,-16.7 -29.1,-16.7 z" style="fill:url(#path69_1_)"/>
    <path id="polygon71" class="st3" d="m 82.039,38.8893 4.2,46.7 17.4,-2.5 4.6,-2.4 -21.5,-44.6 -4.4,1.5 -4.6,2.3 z" style="fill:#1d2c5e"/>
    <path id="polygon78" class="st10" d="m 17.039,55.0893 19.4,43.9 18.4,-5.9 4.5,-3 -38.2,-40 -4.8,2.9 -3.8,4.1 z" style="fill:url(#polygon78_1_)"/>
    <path id="path80" class="st3" d="m 208.939,75.7893 0.3,2.2 c 1.6,-0.2 3.2,-0.4 4.7,-0.9 1.7,-0.6 5.3,-2.2 6.6,-3.4 -0.6,0.2 -9,2.4 -11.6,2.1" style="fill:#1d2c5e"/>
    <path id="path82" class="st3" d="m 143.839,64.5893 0.7,3.5 c 3.7,-0.6 6.9,-1.9 10.1,-3.8 2,-1.2 4.1,-2.9 4.8,-3.4 -0.5,0.3 -15.6,3.7 -15.6,3.7 z" style="fill:#1d2c5e"/>
    <g id="g84" transform="translate(-4.912,-1.4967)">
        <path id="path86" class="st11" d="M 46.4,96.3 45,93.1 26.6,52.1 26.2,51.3 25.4,51.7 24.8,52 21.5,53.6 C 21,52.8 20.2,51.4 19.7,50.5 L 12.3,38 l -1.9,-3.3 3.2,-2 c 3,-1.9 6.4,-3.7 10.2,-5.3 7.4,-3.1 14.9,-4.8 21.8,-4.8 2.3,0 4.5,0.2 6.5,0.5 3.4,0.4 6.6,1.5 9.2,3.3 3.9,2.2 7,5.6 8.7,9.6 1.4,3.3 1.7,7.2 0.8,11.2 l -0.5,2.4 2,-1.4 c 1.3,-1 2.7,-1.8 4.2,-2.4 2.6,-1.1 5.3,-1.7 8,-1.7 2.6,0 5,0.5 7.2,1.5 l 1.4,0.6 -0.1,-1.6 -0.6,-6.7 -0.1,-1.1 -1,0.3 -3.1,0.8 -0.5,-11.4 22.8,-7.3 -0.2,8.9 1.7,0.4 5,-9.5 14.9,13.2 0.6,0.6 0.6,-0.6 c 2,-1.9 4.5,-3.5 7.2,-4.6 l 1.1,-0.5 -0.8,-1 -2.7,-3.3 17.1,-19.7 9,13.4 -13.7,7.4 -3,1.6 3.5,0.1 c 6.5,0.1 12.3,2.9 16.2,7.7 l 1.4,1.8 0.9,1.1 -1.5,1.6 -1,1.1 -3.4,3.7 -0.6,0.7 0.7,0.6 3.2,2.9 1.2,1.1 0.3,-1.6 1.2,-7.6 0.3,-2 0.3,-2 1.8,-11.3 h 17 l 0.1,-0.8 0.3,-1.9 H 204 l 3.6,22.6 0.2,1.5 1.2,-0.9 c 1.5,-1.1 3.1,-1.9 4.8,-2.6 2.3,-0.9 4.6,-1.3 7,-1.3 2.8,0 5.5,0.6 7.8,1.9 0.1,0 0.1,0.1 0.3,0.2 l 1.1,0.4 0.1,-1.2 0.3,-2.5 0.1,-0.8 -0.8,-0.2 -3,-0.7 -0.1,-11.8 22.9,5 1.7,8.5 h 1.8 l 1.8,-7.3 19.1,4.6 -19.6,58.9 -13.9,-4.4 -0.1,-5.4 v -0.8 l -0.8,-0.1 -13.9,-2 0.8,-7.1 0.2,-1.7 -1.5,0.8 c -0.7,0.4 -1.4,0.7 -2.1,0.9 -2.3,0.9 -4.6,1.3 -6.9,1.3 -0.7,0 -1.3,0 -2,-0.1 l -1.2,-0.1 0.2,1.2 1,6.2 -20.3,-3.6 -1.1,-9.2 -0.3,-3 -1.4,2.6 -2.3,4.5 -4.3,-7.9 -1.3,-2.4 -0.4,2.7 -0.9,6.1 -17.8,-2.8 1.4,-8.4 0.3,-1.9 -1.7,1 c -2.9,1.7 -6.3,3.1 -10.2,4 -1.4,0.3 -2.8,0.6 -4.3,0.7 l -0.8,0.1 V 83 l -35,-17.3 -1.3,-0.6 V 81.4 L 96.7,83.7 96,76.6 95.8,74.7 94.4,76 c -2.1,2 -4.4,3.6 -6.9,4.7 -2.6,1.1 -5.3,1.7 -7.9,1.7 -2.7,0 -5.2,-0.6 -7.5,-1.6 -4.2,-2 -7.3,-5.7 -8.6,-10.4 -0.6,-2.2 -0.8,-4.5 -0.5,-6.9 l 0.3,-2.5 -1.8,1.8 c -1.3,1.2 -2.7,2.4 -4.2,3.5 l -0.5,0.4 0.2,0.6 5.3,20.2 0.9,3.6 -3.5,1.1 -9.9,3.2 z M 50.8,42 c -0.5,0 -1,0 -1.6,0.1 l -0.7,0.1 -1,0.2 0.3,1 0.2,0.6 2.8,9.3 0.3,0.9 0.4,1.3 1,-0.9 0.7,-0.6 C 56,51.5 56.9,49 56.3,45.8 55.9,43.9 54.5,43 53.6,42.6 53,42.2 51.9,42 50.8,42 Z m 76.2,0.3 -1.8,1.7 -4.7,4.5 -1,1 1.3,0.5 5,1.9 1.5,0.6 -0.3,-1.6 c -0.4,-2.1 -0.5,-4.2 -0.3,-6.2 z m 20.4,-5.2 c -1.9,0 -3.8,0.8 -5.1,2.3 -2,2.2 -2.4,5.5 -1,8.1 l 0.4,0.7 0.6,1.1 0.9,-1 0.6,-0.6 6.9,-7.8 0.5,-0.6 0.9,-1 -1.2,-0.5 -0.8,-0.3 c -1,-0.2 -1.8,-0.4 -2.7,-0.4 z" style="fill:#ffcb05"/>
    </g>
    <path id="path88" class="st12" d="m 152.939,47.1893 -0.2,0.2 c 0.1,0 0.2,-0.1 0.2,-0.2 z" style="fill:#7d7f68"/>
    <path id="polygon90" class="st12" d="m 158.939,41.7893 3.4,-3.7 -1.2,1.2 v -0.1 l -1,1.1 -3.4,3.6 3.2,2.9 0.6,-3.6 1.6,1.4 z" style="fill:#7d7f68"/>
    <path id="polygon92" class="st12" d="m 158.939,41.7893 3.2,2.8 1.2,-7.6 -1,1.1 z" style="fill:#7d7f68"/>
    <path id="path94" class="st12" d="M 116.239,47.6893 Z" style="fill:#7d7f68"/>
    <path id="path96" class="st13" d="m 135.239,50.8893 c 0.3,0.3 0,0.1 0.3,0.3 l 2.1,-1.5 c -0.3,-0.2 -0.6,-0.5 -0.9,-0.7 -3,-2.8 -2.2,-9 -0.3,-12.4 -5.2,4.2 -4.9,10.6 -1.2,14.3" style="fill:#c7a008"/>
    <path id="path98" class="st13" d="m 160.539,54.3893 c -3.5,2.9 -7.4,4.7 -12.6,6 -1.1,0.3 -2.3,0.5 -3.3,0.5 -8.3,0.8 -15.2,-3 -17.8,-9.1 -0.3,-0.7 -0.6,-1.5 -0.8,-2.3 -1.2,-5.2 -0.2,-9.8 2.4,-13.5 0.3,-0.4 0.5,-0.7 0.8,-1 -0.1,0.1 -0.3,0.2 -0.4,0.3 -1,0.9 -1.9,1.8 -2.6,2.9 -2.6,3.6 -3.6,8.3 -2.4,13.5 0.2,0.8 0.4,1.6 0.8,2.3 2.6,6.2 9.6,10 17.8,9.2 1.1,-0.1 2.2,-0.3 3.4,-0.6 5.2,-1.3 9.2,-3.1 12.6,-6 0.8,-0.7 1.7,-1.5 2.5,-2.3 l -0.1,-0.1 c -0.2,0.1 -0.3,0.1 -0.3,0.2" style="fill:#c7a008"/>
    <path id="polygon100" class="st13" d="m 102.239,38.6893 9.2,-13 -0.4,-0.3 -8.9,12.5 z" style="fill:#c7a008"/>
    <path id="polygon102" class="st13" d="m 163.339,36.9893 -1.2,7.6 -1.6,-1.4 -0.6,3.6 -3.2,-2.9 3.4,-3.6 1,-1.1 v 0.1 l 1.2,-1.2 z" style="fill:#c7a008"/>
    <path id="polygon104" class="st13" d="m 151.939,15.5893 3.2,-1.4 -5.9,-7.6 -1.9,2.8 z" style="fill:#c7a008"/>
    <path id="path106" class="st13" d="m 62.339,34.3893 c -15,-18.2 -41.9,-8.4 -51.5,0.1 l 0.4,0.7 c 2.2,-1.3 4.6,-2.4 7,-3.5 9.6,-4.1 18.8,-5.3 26.1,-4 2.6,0.3 5.3,1.1 7.7,2.7 3.3,1.9 5.8,4.5 7.3,7.9 2.6,6 0.3,14 -5.8,20.6 7.7,-7.1 13,-13.9 8.8,-24.5 z" style="fill:#c7a008"/>
    <path id="path108" class="st13" d="m 92.839,55.5893 c -0.1,-0.3 -0.1,-0.7 -0.2,-1 -0.8,-3 -2.6,-5.4 -5,-7 -3.8,-2.6 -9.2,-3.1 -14.5,-0.9 -2.8,1.2 -5.2,3.1 -7.2,5.3 1.5,-1.3 3.2,-2.3 5,-3.1 5.3,-2.3 10.7,-1.7 14.5,0.9 2.4,1.6 4.2,4 5,7 0.1,0.3 0.2,0.7 0.2,1 0.2,1.2 0.3,2.3 0.3,3.5 -0.1,3.5 -1.4,7 -3.5,10 -0.3,0.5 -0.7,0.9 -1.1,1.4 1.2,-1.1 2.3,-2.2 3.2,-3.5 2.2,-3 3.4,-6.5 3.6,-10 0,-1.2 -0.1,-2.4 -0.3,-3.6" style="fill:#c7a008"/>
    <path id="path110" class="st13" d="m 78.139,51.1893 c 0,0 2.2,-2.2 2.1,-2.2 -2.7,-0.1 -3.9,2.5 -4,2.7 0.6,-0.3 1.2,-0.4 1.9,-0.5" style="fill:#c7a008"/>
    <path id="path112" class="st13" d="m 83.239,54.2893 c 0.1,0.4 0.2,0.7 0.2,1.1 0,0.6 -0.1,1.1 -0.4,1.6 0.4,-0.2 3.6,-1.8 2.4,-5 0.1,0.2 -2.3,2.3 -2.2,2.3" style="fill:#c7a008"/>
    <path id="path114" class="st13" d="m 70.839,56.1893 c 0,-1.3 2.3,-4.6 3,-5.7 -3.6,2.3 -5.2,5.4 -5.2,7.8 0,4.2 3.7,7.6 8.1,7.6 2.1,0 5.9,-1.1 8.4,-5.1 -1.3,0.9 -4.6,2.9 -6.4,2.9 -4.4,0 -7.9,-3.3 -7.9,-7.5" style="fill:#c7a008"/>
    <path id="polygon116" class="st13" d="m 101.739,59.9893 0.1,16.9 2.7,0.2 -0.6,-19.3 z" style="fill:#c7a008"/>
    <path id="polygon118" class="st13" d="m 86.339,27.6893 v 1.5 l 12.8,-3.8 0.9,16.3 2.2,-3 -0.5,-16.3 z" style="fill:#c7a008"/>
    <path id="polygon120" class="st13" d="m 124.839,33.4893 -11.9,-11 -1.5,3.2 10.6,9.9 z" style="fill:#c7a008"/>
    <path id="path122" class="st13" d="m 123.039,53.9893 -14.1,-4.7 -2,2.2 14,5.6 c 1.6,3 4,5.6 7,7.4 2.9,1.8 6.3,2.9 9.8,3.2 v 6.9 l 2.2,1.1 0.7,-10.4 z" style="fill:#c7a008"/>
    <path id="path124" class="st13" d="m 145.639,52.0893 c 3.5,-0.8 5.4,-2.6 7.2,-4.6 -1.3,1.1 -7.7,2.5 -8.8,2.8 l -2.1,2.3 c 0.9,0 2.5,-0.2 3.7,-0.5" style="fill:#c7a008"/>
    <path id="path126" class="st13" d="m 139.339,28.0893 c -6.4,0.8 -9.7,6.2 -10.2,6.8 2.4,-2 5.3,-3.5 8.6,-4.2 7.9,-1.9 14.8,0.5 19.1,5.8 l 2.7,-2.2 c -4.3,-5.2 -12.3,-8.1 -20.2,-6.2" style="fill:#c7a008"/>
    <path id="path128" class="st13" d="m 160.739,54.1893 c 0.8,-0.6 2.1,-1.3 2.9,-2.1 l -8.5,-7.6 c -0.7,0.8 -1.2,2.1 -2,2.7 z" style="fill:#c7a008"/>
    <path id="path130" class="st13" d="m 204.439,74.5893 c -8.9,-7.4 -8.4,-23.1 -4,-28.1 l -3.9,-24.7 -8.6,1.1 -0.4,2.2 h 6.5 l 3.5,22.4 c -4.4,5 -6.5,11.7 -5.1,17.9 1.1,4.8 4.1,8.6 8.3,10.8 0.4,0.2 0.9,0.4 1.3,0.6 l 0.1,0.3 2.6,0.4 c -0.1,0.1 0.2,-2.7 -0.3,-2.9 z" style="fill:#c7a008"/>
    <path id="polygon132" class="st13" d="m 170.139,25.3893 -0.4,2.2 h 9.8 l 2.9,15.9 2.2,-2.2 -2.3,-16.8 z" style="fill:#c7a008"/>
    <path id="polygon134" class="st13" d="m 186.939,56.1893 -3.2,8.2 0.8,2.2 4.5,-12.5 z" style="fill:#c7a008"/>
    <path id="polygon136" class="st13" d="m 177.539,51.0893 -2.2,2.2 -2.4,14.8 2.3,0.8 z" style="fill:#c7a008"/>
    <path id="path138" class="st13" d="m 221.639,46.2893 c 1.3,0.9 2.4,2.1 3.2,3.5 0.7,1.1 1.1,2.2 1.5,3.6 1.1,4.5 -0.2,9.3 -3,13.1 -0.3,0.4 -0.6,0.8 -0.9,1.1 1.1,-1 15.1,-11.3 1.5,-24.8 -15,-4.9 -20.7,4.8 -21.2,5.5 1.6,-1.3 3.4,-2.5 5.4,-3.2 5,-2 10,-1.3 13.5,1.2" style="fill:#c7a008"/>
    <path id="path140" class="st13" d="m 214.139,47.2893 c 0,0.1 2.2,-2.2 2.2,-2.2 -2.7,0.1 -4,1.4 -3.8,2 -0.2,0.2 -0.3,0.5 -0.4,0.7 0.5,-0.3 1.6,-0.5 2,-0.5" style="fill:#c7a008"/>
    <path id="path142" class="st13" d="m 219.139,50.6893 c 0.1,0.4 0.1,0.7 0.1,1.1 0,0.5 -0.2,1 -0.4,1.4 0.4,-0.2 3.6,-1.2 2.4,-4.8 0.1,0.2 -2.2,2.3 -2.1,2.3" style="fill:#c7a008"/>
    <path id="path144" class="st13" d="m 212.039,61.9893 c 3,0.1 6.4,-1.7 8.8,-5 -6.1,1.3 -12.6,-9 -12,-10 -2.3,1.7 -4.4,4.9 -4.5,7.2 -0.2,4.2 3.3,7.6 7.7,7.8" style="fill:#c7a008"/>
    <path id="polygon146" class="st13" d="m 245.739,88.6893 1.4,0.9 17.6,-52.8 -13.2,-3 -0.1,3.1 10.6,2.3 z" style="fill:#c7a008"/>
    <path id="polygon148" class="st13" d="m 224.839,28.0893 0.1,3 14,2.8 5.4,25.6 2.2,-2.2 -5.2,-25.9 z" style="fill:#c7a008"/>
    <path id="polygon150" class="st13" d="m 235.639,57.2893 -3.9,21.8 2.2,0.7 3.9,-24.7 z" style="fill:#c7a008"/>
    <path id="polygon152" class="st13" d="m 53.939,87.0893 -6.5,-23.8 -2.4,1.7 6.1,22.7 z" style="fill:#c7a008"/>
    <path id="path154" class="st13" d="m 52.239,51.3893 c -1.5,1.6 -4.9,4.7 -6.8,5.9 l -1.2,-3.7 -2.5,-8.2 -1.6,-5.5 -1.6,2 1.6,5.5 2.5,8.1 1.2,3.7 c 2.7,-1.5 6.5,-4.7 8.4,-7.8" style="fill:#c7a008"/>
    <path id="path156" class="st12" d="m 145.039,37.2893 c -2.1,-0.8 -5,-0.6 -6.6,1.2 -0.4,0.4 -1.1,1.4 -1.3,1.9 1.5,-1.2 4.3,-1.5 6,-0.8 z" style="fill:#7d7f68"/>
    <path id="path158" class="st12" d="m 50.439,44.6893 c -0.2,-1.2 -1.4,-2.2 -2,-2.5 -1,-0.5 -2.9,-0.6 -4.2,-0.3 0.2,0.8 0.5,1.8 0.6,2.2 0.5,0.1 1.4,0.2 1.9,0.4 0.6,0.3 1.6,0.9 1.8,2.2 0.3,1.6 0.2,3.2 -0.5,4.4 1.9,-1.8 2.8,-3.8 2.4,-6.4" style="fill:#7d7f68"/>
    <g id="g160" transform="translate(-4.912,-1.4967)">
        <g id="g162">
            <path id="path164" class="st14" d="M 58.6,46.1 C 57.7,41.3 51.4,38.6 45.1,42 l 1.6,5.5 2.5,8.2 1.2,3.7 c 4.7,-2.9 9.4,-6.6 8.2,-13.3 z m -6.2,7.5 c -0.7,-2.2 -2.2,-7 -2.2,-7 0,0 -0.3,-1 -0.7,-2.2 1.3,-0.2 2.6,-0.1 3.6,0.4 0.6,0.3 1.6,0.9 1.8,2.2 0.6,2.6 -0.3,4.6 -2.5,6.6 z" style="fill:#3c5aa6"/>
        </g>
    </g>
    <g id="g166" transform="translate(-4.912,-1.4967)">
        <g id="g168">
            <path id="path170" class="st15" d="m 153.2,38.5 c -3.5,-3.2 -8.9,-3 -12.1,0.5 -3.2,3.5 -3,8.9 0.5,12.1 0.3,0.3 0.6,0.5 0.9,0.7 L 153.8,39 c -0.2,-0.1 -0.4,-0.3 -0.6,-0.5 z m -10.6,9 c -1.1,-2 -0.9,-4.6 0.8,-6.4 1.6,-1.7 4,-2.2 6.1,-1.4 z" style="fill:#3567b0"/>
        </g>
    </g>
    <path id="polygon172" class="st16" d="m 163.339,35.5893 -6.2,6 5.9,5.3 z" style="fill:#1e2d5f"/>
    <path id="path174" class="st17" d="m 221.239,48.4893 c 0.1,0.4 0.1,0.8 0.1,1.2 -0.1,2.4 -2.3,4.2 -5,4.1 -2.7,-0.1 -4.8,-2.1 -4.7,-4.5 0.1,-2.2 2.1,-4 4.5,-4.1 -0.5,-0.1 -1,-0.2 -1.5,-0.2 -4.5,-0.2 -8.1,3 -8.3,6.9 -0.2,4.2 3.2,7.7 7.6,7.8 4.5,0.2 8.1,-3 8.3,-7.2 0.3,-1.4 -0.2,-2.8 -1,-4" style="fill:#3466af"/>
    <path id="path183" class="st18" d="m 85.639,53.2893 c 0,2.4 -2.2,4.3 -4.8,4.3 -2.7,0 -4.8,-1.9 -4.8,-4.3 0,-2.2 1.9,-4.1 4.4,-4.3 -0.5,-0.1 -1,-0.1 -1.5,-0.1 -4.5,0 -8,3.3 -8,7.3 0,4.2 3.5,7.5 7.9,7.5 4.5,0 8,-3.3 8,-7.5 0,-1.5 -0.5,-2.8 -1.3,-4 0,0.3 0.1,0.7 0.1,1.1" style="fill:url(#path183_1_)"/>
    <g id="g185" transform="translate(-4.912,-1.4967)">
        <g id="g187">
            <linearGradient id="linearGradient28" gradientUnits="userSpaceOnUse" x1="578.62799" y1="2056.2571" x2="844.37097" y2="2056.2571" gradientTransform="translate(-569.451,-2006.686)">
                <stop offset="0" stop-color="#3c5aa6" id="stop21"/>
                <stop offset=".933" stop-color="#2b73b9" id="stop22"/>
                <stop offset="1" stop-color="#2a75bb" id="stop23"/>
            </linearGradient>
            <path id="path196" class="st19" d="m 254,30.6 -2,8.2 -1.8,-9.1 -24.6,-5.4 0.2,13.7 3.7,0.8 -0.3,2.5 c 0,0 -0.1,0 -0.1,-0.1 -4.6,-2.4 -10.3,-2.7 -15.6,-0.6 -1.8,0.7 -3.5,1.6 -5,2.7 l -3.7,-23.4 h -16.3 l -0.4,2.7 h -17.2 l -2,12 -1.4,-1.8 c -4.2,-5.1 -10.2,-7.9 -16.9,-8.1 L 165.2,16.9 155,1.7 l -18.4,21.2 3.2,3.9 c -2.9,1.2 -5.4,2.8 -7.5,4.8 l -15.8,-14 -5.5,10.5 0.2,-10.2 -24.7,7.9 0.7,13.2 4.2,-1.1 0.6,6.7 c -4.8,-2.2 -10.6,-2.1 -15.9,0.2 -1.6,0.7 -3.1,1.5 -4.4,2.5 0.9,-4.1 0.7,-8.1 -0.9,-11.7 -1.8,-4.2 -5.1,-7.8 -9,-10 -2.8,-1.9 -6.1,-3 -9.6,-3.4 -8.5,-1.5 -18.8,0 -28.9,4.3 -3.7,1.6 -7.2,3.4 -10.3,5.4 l -3.9,2.5 2.4,4 7.4,12.6 2.3,3.8 4,-2 0.6,-0.3 18.4,41 1.8,3.9 4.1,-1.3 L 60,92.9 64.4,91.5 63.3,87.1 58,66.9 c 1.5,-1.1 2.9,-2.3 4.2,-3.6 -0.3,2.4 -0.1,4.9 0.5,7.2 1.4,4.9 4.6,8.8 9.1,10.9 4.8,2.3 10.7,2.3 16.1,0 2.7,-1.2 5.2,-2.8 7.2,-4.9 l 0.7,8.1 17.4,-2.6 V 66.4 l 36.3,18 V 67.1 c 1.5,-0.1 2.9,-0.4 4.4,-0.7 4,-1 7.4,-2.3 10.5,-4.1 l -1.5,9.3 19.6,3.1 1.1,-7.1 5.1,9.5 3.1,-6 1.1,9.9 22.2,3.9 -1.2,-7.5 c 3,0.3 6.2,-0.1 9.3,-1.2 0.7,-0.3 1.5,-0.6 2.1,-1 l -0.9,8 14.8,2.1 0.1,6.1 15.4,4.8 20.1,-60.5 z m -86.8,9 1,-1.1 -1.2,7.6 -3.2,-2.9 z m -13,-31.2 5.4,7.3 -15.4,7.6 -1.1,-1.6 c 0,0.1 11.1,-13.3 11.1,-13.3 z M 52.3,64.8 58.4,88.4 48.5,91.6 28.1,46 c -1.1,0.6 -3.2,1.6 -5,2.5 L 15.7,36 c 2.9,-1.9 6.2,-3.5 9.6,-5 9.6,-4.1 18.8,-5.3 26.1,-4 2.6,0.3 5.3,1.1 7.7,2.7 3.3,1.9 5.8,4.5 7.3,7.9 3.6,8.2 -2.3,20 -14.1,27.2 z M 98,60.6 c -0.1,3.5 -1.4,7 -3.6,10 -2.1,2.9 -4.9,5.2 -8.3,6.7 -8.6,3.7 -17.2,0 -19.5,-8.2 -2.2,-7.9 3,-17.3 11.3,-20.9 5.3,-2.3 10.7,-1.7 14.5,0.9 2.4,1.6 4.2,4 5,7 0.1,0.3 0.2,0.7 0.2,1 0.4,1.2 0.4,2.4 0.4,3.5 z m 46.9,16.7 -36.1,-18 0.1,18.9 -9.3,1.3 -0.7,-7.8 c 2.9,-4.9 3.9,-10.8 2.4,-16.1 -0.8,-2.9 -2.3,-5.5 -4.4,-7.5 l -1.3,-15.9 -4.2,1.1 -0.2,-4 15,-4.5 0.9,15.4 11,-15.5 10.9,10.3 -15.1,15.9 14.2,5.6 c 1.6,3 4,5.5 7,7.4 2.9,1.8 6.3,2.9 9.8,3.2 z m -18.7,-26.2 -5,-1.9 4.7,-4.5 c -0.3,2.1 -0.2,4.2 0.3,6.4 z m 39.2,4.8 c -3.5,2.9 -7.4,4.7 -12.6,6 -1.1,0.3 -2.3,0.5 -3.3,0.5 -8.3,0.8 -15.2,-3 -17.8,-9.1 -0.3,-0.7 -0.6,-1.5 -0.8,-2.3 -1.2,-5.2 -0.2,-9.8 2.4,-13.5 0.7,-1.1 1.6,-2 2.6,-2.9 2.4,-2.2 5.5,-3.7 9,-4.6 7.9,-1.9 14.8,0.5 19.1,5.7 l -15,16 c 1,0.2 2.6,-0.1 3.8,-0.4 3.6,-0.9 5.6,-2.8 7.3,-4.8 l 6,5.4 1.8,1.6 c -0.8,0.9 -1.6,1.7 -2.5,2.4 z m 31.9,21.3 -3.3,-21.6 -4.6,11.9 -6.9,-14.9 h -0.1 l -2.7,17.3 -11.5,-2 1.6,-9.6 c 0.4,-0.4 0.9,-0.8 1.3,-1.3 l 3.7,-3.8 -3.6,-3.3 3.9,-23 h 11.6 l 2.9,15.9 3.3,-18.4 h 8.3 l 3.5,22.4 c -4.4,5 -6.5,11.7 -5.1,17.9 1.1,4.8 4.1,8.6 8.3,10.9 0.4,0.2 0.9,0.4 1.3,0.6 l 0.4,2.9 z M 226,70.1 c -1.3,0.9 -2.7,1.7 -4.2,2.2 -3,1.1 -5.9,1.4 -8.6,0.8 -1.8,-0.4 -3.5,-1.1 -5,-2.1 -2.3,-1.7 -4,-4.1 -4.8,-7.2 -0.9,-3.7 -0.1,-7.7 1.9,-11.2 1,-1.7 2.3,-3.3 3.8,-4.7 1.7,-1.5 3.7,-2.8 5.8,-3.6 5.1,-1.9 10.1,-1.2 13.6,1.3 1.3,0.9 2.4,2.1 3.2,3.5 0.6,1.1 1.1,2.3 1.4,3.6 1.1,4.5 -0.2,9.3 -3,13.1 -0.9,1.7 -2.4,3.1 -4.1,4.3 z m 26,20.4 -8.5,-2.5 -0.7,-31.4 -4.3,24.2 -9.3,-1.5 0.7,-7 c 6.1,-5.1 9.3,-13.2 7.5,-20.6 -0.8,-3.2 -2.4,-6.1 -4.8,-8.2 l 0.8,-8.2 -3.5,-0.9 0.1,-4.4 16,3.2 5.4,25.5 5.5,-22.9 12.2,2.7 z" style="fill:url(#path196_1_)"/>
        </g>
    </g>
    <path id="path198" d="m 258.539,85.4893 h 0.4 c 0.5,0 0.9,-0.2 0.9,-0.7 0,-0.3 -0.3,-0.7 -0.9,-0.7 h -0.4 z m 0,2.1 h -0.6 v -3.8 c 0.3,-0.1 0.6,-0.1 1.1,-0.1 0.6,0 1,0.1 1.2,0.3 0.2,0.2 0.4,0.4 0.4,0.8 0,0.5 -0.3,0.8 -0.7,0.9 0.3,0.1 0.6,0.4 0.6,0.9 0.1,0.6 0.2,0.8 0.2,0.9 h -0.6 c -0.1,-0.1 -0.2,-0.5 -0.3,-1 -0.1,-0.5 -0.3,-0.7 -0.8,-0.7 h -0.5 z m 0.7,-4.9 c -1.5,0 -2.7,1.3 -2.7,2.9 0,1.6 1.2,2.9 2.8,2.9 1.5,0 2.7,-1.3 2.7,-2.9 -0.1,-1.6 -1.3,-2.9 -2.8,-2.9 z m 0,-0.5 c 1.9,0 3.3,1.5 3.3,3.4 0,1.9 -1.5,3.4 -3.4,3.4 -1.9,0 -3.4,-1.5 -3.4,-3.4 0.1,-1.9 1.6,-3.4 3.5,-3.4 z"/>
</svg>
