<?xml version="1.0" encoding="UTF-8" standalone="no"?>
<svg
   version="1.1"
   viewBox="0 0 355 129"
   id="svg372"
   sodipodi:docname="ports.svg"
   inkscape:version="1.1.2 (0a00cf5339, 2022-02-04)"
   xmlns:inkscape="http://www.inkscape.org/namespaces/inkscape"
   xmlns:sodipodi="http://sodipodi.sourceforge.net/DTD/sodipodi-0.dtd"
   xmlns:xlink="http://www.w3.org/1999/xlink"
   xmlns="http://www.w3.org/2000/svg"
   xmlns:svg="http://www.w3.org/2000/svg">
  <defs
     id="defs376">
    <linearGradient
       inkscape:collect="always"
       id="linearGradient34338">
      <stop
         style="stop-color:#f0bd51;stop-opacity:1;"
         offset="0"
         id="stop34334" />
      <stop
         style="stop-color:#d54f18;stop-opacity:1"
         offset="1"
         id="stop34336" />
    </linearGradient>
    <linearGradient
       inkscape:collect="always"
       id="linearGradient23525">
      <stop
         style="stop-color:#5d5e61;stop-opacity:0.99855268"
         offset="0"
         id="stop23521" />
      <stop
         style="stop-color:#929190;stop-opacity:1"
         offset="1"
         id="stop23523" />
    </linearGradient>
    <linearGradient
       inkscape:collect="always"
       xlink:href="#linearGradient23525"
       id="linearGradient29565"
       gradientUnits="userSpaceOnUse"
       x1="178.80193"
       y1="21.074821"
       x2="179.70302"
       y2="73.483055" />
    <linearGradient
       inkscape:collect="always"
       xlink:href="#linearGradient34338"
       id="linearGradient34340"
       x1="175.13281"
       y1="42.864502"
       x2="175.15294"
       y2="2.5883603"
       gradientUnits="userSpaceOnUse" />
  </defs>
  <sodipodi:namedview
     id="namedview374"
     pagecolor="#ffffff"
     bordercolor="#666666"
     borderopacity="1.0"
     inkscape:pageshadow="2"
     inkscape:pageopacity="0.0"
     inkscape:pagecheckerboard="0"
     showgrid="false"
     inkscape:zoom="6.4483349"
     inkscape:cx="182.52774"
     inkscape:cy="59.550257"
     inkscape:window-width="1920"
     inkscape:window-height="1011"
     inkscape:window-x="1920"
     inkscape:window-y="32"
     inkscape:window-maximized="1"
     inkscape:current-layer="g4840" />
  <g
     fill="#848486"
     id="g262" />
  <g
     fill="#ec8d2c"
     id="g292"
     transform="translate(3.2727698,58.672072)" />
  <g
     fill="#626366"
     id="g306" />
  <g
     fill="#f0a539"
     id="g316"
     transform="translate(3.2727698,58.672072)" />
  <g
     fill="#e97821"
     id="g348"
     transform="translate(3.2727698,58.672072)" />
  <g
     id="g4946"
     transform="translate(-1.0513289,99.522752)">
    <g
       id="g4840"
       transform="translate(4.9793289,-213.63722)">
      <g
         fill="#5c2810"
         id="g336"
         transform="translate(-3.928,114.11447)"
         style="fill:#5a2a15;fill-opacity:1;stroke:#552200;stroke-opacity:1">
        <path
           d="M 89.21,55.75 V 58 L 75.5,65.46 54.54,76.75 V 74.5 Z"
           id="path318"
           style="fill:#5a2a15;fill-opacity:1;stroke:#552200;stroke-opacity:1" />
        <path
           d="m 96.5,55.79 q 5.7,2.12 10.96,5.21 l 0.25,2.5 -11.42,-5.75 z"
           id="path320"
           style="fill:#5a2a15;fill-opacity:1;stroke:#552200;stroke-opacity:1" />
        <path
           d="m 192.5,59.04 10.71,6.21 q 0.6,1.02 0,2 l -10.92,-6.5 z"
           id="path322"
           style="fill:#5a2a15;fill-opacity:1;stroke:#552200;stroke-opacity:1" />
        <path
           d="m 168.25,60.04 1.79,0.96 q -4.13,2.94 -8.9,4.75 -0.96,0.17 -1.43,-1 z"
           id="path324"
           style="fill:#5a2a15;fill-opacity:1;stroke:#552200;stroke-opacity:1" />
        <path
           d="m 290.54,66.5 11.92,7.25 0.25,2 q -6.56,-3.16 -12.42,-7.5 z"
           id="path326"
           style="fill:#5a2a15;fill-opacity:1;stroke:#552200;stroke-opacity:1" />
        <path
           d="m 119.35,67.49 q 6.48,2.65 11.86,6.51 v 2 l -12.17,-6.75 q -0.23,-1.06 0.31,-1.76 z"
           id="path328"
           style="fill:#5a2a15;fill-opacity:1;stroke:#552200;stroke-opacity:1" />
        <path
           d="m 235.46,68.75 0.5,1.75 -11.42,6.25 V 74.5 Z"
           id="path330"
           style="fill:#5a2a15;fill-opacity:1;stroke:#552200;stroke-opacity:1" />
        <path
           d="m 149.75,69.46 q 0.88,0.87 0.21,2.04 l -10.92,4.75 -0.25,-2 z"
           id="path332"
           style="fill:#5a2a15;fill-opacity:1;stroke:#552200;stroke-opacity:1" />
        <path
           d="m 259.5,70.71 q -6.17,1.28 -12.48,0.13 6.24,-0.76 12.48,-0.13 z"
           id="path334"
           style="fill:#5a2a15;fill-opacity:1;stroke:#552200;stroke-opacity:1" />
      </g>
      <g
         fill="#77787a"
         id="g362"
         transform="translate(-3.9279998,114.11446)"
         style="fill-opacity:1;fill:url(#linearGradient29565)">
        <path
           id="path360"
           d="m 65.41,44.06 0.07,7.06 Q 59.98,50.47 54.54,51 l -0.01,-7.43 q 5.63,-1.5 10.88,0.49 z m 213.64,-9.38 -0.07,12.64 q -4.59,0.08 -8.81,-1.42 a 1.02,1 32 0 0 -1.03,0.23 q -0.7,0.67 -1.6,0.37 V 33.75 l 0.14,0.35 q 0.28,0.68 0.71,0.08 l 0.52,-0.71 a 1.01,1.01 0 0 1 0.99,-0.4 z M 119,31.44 l 12.21,0.81 v 21 L 119,52.68 Z m 54.46,0.81 -0.02,14.34 a 0.99,0.99 0 0 1 -0.52,0.87 l -13.95,7.72 -20.18,0.07 -0.06,-23.35 q 5.45,-1.75 10.97,-0.52 l 0.1,16.98 a 1,1 0 0 0 1.49,0.86 l 10.94,-6.16 a 1.01,1 76.1 0 0 0.51,-0.86 l 0.08,-11.14 9.34,-0.2 a 0.98,0.99 77.1 0 1 0.93,0.58 z m -77.17,-1.6 q 5.66,0.89 11.42,0.1 L 107.46,61 Q 102.2,57.91 96.5,55.79 Z m 106.98,1.46 v 17.01 q -5.49,-2.21 -11.22,-0.72 l 0.01,-17.31 c 0.98,0.7 1.16,-1.48 1.42,-0.54 a 0.52,0.52 0 0 0 0.56,0.37 q 4.8,-0.56 9.23,1.19 z m 75.78,2.57 -9.15,-1.61 a 1.01,1.01 0 0 0 -0.99,0.4 l -0.52,0.71 q -0.43,0.6 -0.71,-0.08 l -0.14,-0.35 -0.18,-13.49 a 1,1 0 0 1 1,-1.01 h 26.54 q 0.26,0 0.49,0.13 l 6.59,3.78 a 1,0.99 15.3 0 1 0.5,0.86 l 0.06,8.47 a 1,1.01 0 0 1 -1,1.01 h -10.29 a 1,1 0 0 1 -1,-1 v -0.91 a 1,1 0 0 0 -0.99,-1 l -9.16,-0.13 a 1,1 0 0 0 -1.01,0.99 z M 235.54,47 235.45,34.81 q 0,-0.38 -0.09,-0.01 -0.26,1.09 -0.81,-0.25 a 0.99,1.01 79.3 0 0 -0.91,-0.61 l -9.1,-0.19 -0.24,-13.48 a 1,1 0 0 1 1,-1.02 q 12.15,0 24.33,0 c 3.35,0 6.34,2.37 9.13,4 a 1,1.02 15 0 1 0.49,0.87 v 8.38 a 1,1 0 0 1 -1,1 h -10 a 1,1 0 0 1 -1,-1 v -1 a 1,1 0 0 0 -1,-1 h -9.57 a 1,1 0 0 0 -1,0.99 z m -62.08,-14.75 -0.37,-0.81 a 0.98,0.99 77.1 0 0 -0.93,-0.58 l -9.34,0.2 q -6.63,-1.65 -13.12,0.32 -5.52,-1.23 -10.97,0.52 l -0.2,-11.63 a 1.01,1 89.7 0 1 1,-1.02 h 26.12 q 0.26,0 0.49,0.13 l 6.67,3.76 a 1,0.99 14.2 0 1 0.51,0.85 z m -42.25,0 -12.21,-0.81 -0.01,-0.95 a 1,1 0 0 0 -1,-0.99 h -9.5 a 0.8,0.81 4.7 0 0 -0.79,0.68 q -0.04,0.27 0.01,0.57 -5.76,0.79 -11.42,-0.1 l -0.03,-5.48 a 1,1.01 64.5 0 1 0.23,-0.64 l 4.05,-4.91 a 0.98,1 19.8 0 1 0.77,-0.37 h 24.85 a 1.01,1.02 69.1 0 1 0.75,0.33 l 4.05,4.48 a 0.97,1 22.9 0 1 0.26,0.67 z M 89.25,41.11 Q 83.88,40.26 78.54,41 l -0.12,-9.53 a 1,1 0 0 0 -1.01,-0.98 l -10.8,0.05 a 1,1 0 0 0 -1,0.98 l -0.2,12.54 Q 60.16,42.07 54.53,43.57 54.46,32.33 54.52,21.26 c 0,-0.66 -0.12,-0.76 -0.3,-1.34 a 0.52,0.51 81.9 0 1 0.49,-0.66 q 12.47,-0.02 24.93,-0.01 c 3.34,0.01 6.33,2.36 9.1,4 a 1,1 0 0 1 0.49,0.86 z m 114.02,-9 q -4.43,-1.75 -9.23,-1.19 a 0.52,0.52 0 0 1 -0.56,-0.37 c -0.26,-0.94 -0.44,1.24 -1.42,0.54 q -5.04,-0.96 -10.18,-0.57 a 1,1 0 0 1 -1.08,-0.98 l -0.17,-9.28 a 1,1 0 0 1 1,-1.02 h 33.08 a 1,1 0 0 1 0.98,1.22 q -0.2,0.88 -0.18,1.78 0.11,3.7 -0.09,7.37 a 1,1 0 0 1 -1,0.95 L 204.2,30.48 a 0.99,0.99 0 0 0 -0.91,0.57 q -0.22,0.46 -0.02,1.06 z m -44.3,23.07 9.28,4.86 -8.54,4.71 -8.1,-3.56 a 1,1 0 0 0 -1.4,0.85 l -0.46,7.42 -10.96,4.79 v -19 z M 119,52.68 131.21,53.25 V 74 q -5.38,-3.86 -11.86,-6.51 z m 84.27,-3.56 -0.06,16.13 -10.71,-6.21 q -0.91,-5.14 -0.45,-10.64 5.73,-1.49 11.22,0.72 z m 75.71,-1.8 0.09,2.73 a 1.01,1.02 12.4 0 0 0.55,0.87 l 22.27,11.17 a 1.01,1.01 0 0 1 0.55,0.9 l 0.02,10.76 -11.92,-7.25 q -1.18,-1.14 -1.85,-1.48 -10.05,-4.98 -20.1,-10.36 a 1.01,1.03 5.8 0 1 -0.48,-0.6 q -1.1,-3.68 -0.57,-7.56 0.9,0.3 1.6,-0.37 a 1.02,1 32 0 1 1.03,-0.23 q 4.22,1.5 8.81,1.42 z M 89.25,41.11 89.21,55.75 54.54,74.5 V 51 q 5.44,-0.53 10.94,0.12 l 0.19,10.39 a 1,1.01 74.7 0 0 1.5,0.85 l 10.79,-6.12 a 0.99,0.98 75.6 0 0 0.5,-0.86 L 78.54,41 q 5.34,-0.74 10.71,0.11 z m 135.29,-7.36 9.1,0.19 a 0.99,1.01 79.3 0 1 0.91,0.61 q 0.55,1.34 0.81,0.25 0.09,-0.37 0.09,0.01 L 235.54,47 q -0.19,1.36 1.03,1.44 4.7,0.27 11.93,-0.04 a 1,0.99 88.6 0 1 1.04,1 l 0.02,9.16 a 1,1 0 0 1 -1,1 L 236.5,59.51 a 1.01,1.01 0 0 0 -1.01,1 l -0.03,8.24 -10.92,5.75 z"
           style="fill-opacity:1.0;fill:url(#linearGradient29565)" />
      </g>
      <g
         fill="#f3b642"
         id="g370"
         transform="translate(-0.65523004,172.78654)"
         style="fill-opacity:1;fill:url(#linearGradient34340)">
        <path
           id="path368"
           d="m 221.26723,40.077928 11.51,1.94 -9.8,7.13 c -1.04,0.753333 -1.57,0.486667 -1.59,-0.8 z m -85.75,-4 c 3.70667,0.726667 7.43,0.81 11.17,0.25 -0.27333,1.9 0.03,3.67 0.91,5.31 0.24391,0.448901 0.11024,1.009474 -0.31,1.3 l -10.31,7.15 c -1.06,0.733333 -1.58333,0.456667 -1.57,-0.83 z m 64.42,-0.25 c -0.38,2.66 -0.0433,5.203333 1.01,7.63 0.19169,0.440162 0.0399,0.954416 -0.36,1.22 l -11.32,7.71 c -0.91333,0.626667 -1.24,0.4 -0.98,-0.68 0.0467,-0.18 0.0967,-0.353333 0.15,-0.52 1.16,-3.44 0.3,-11.89 0.31,-15.81 3.8,-0.613333 7.53,-0.463333 11.19,0.45 z m -84.17,-25.25 12.17,6.75 0.02,7.72 -12.19,0.03 z m 51,-8.25 c 1.22,0.3066667 2.26,0.8933333 3.12,1.76 0.17952,0.1854591 0.27993,0.4364724 0.28,0.7 l 0.02,17.79 -10.95,-0.17 -0.07,-13.81 c -2.6e-4,-0.3035907 -0.13615,-0.5900768 -0.37,-0.78 l -0.93,-0.74 c 3.18,-1.2066667 6.14667,-2.79 8.9,-4.75 z m 22.25,-0.25 10.92,6.5 0.01,16.93 c -3.73333,0.513333 -7.45333,0.566667 -11.16,0.16 z m -103.08,-2.75 v 4.09 c 0.0053,0.3735916 -0.204101,0.7187189 -0.54,0.89 l -8.88,4.52 c -0.32,-0.36 -0.706667,-0.56 -1.16,-0.6 -0.33712,-0.024614 -0.638119,-0.2165007 -0.8,-0.51 -0.466667,-0.84 -1.243333,-1.15 -2.33,-0.93 z m 7.08,-0.25 11.42,5.75 0.08,21.57 c -3.76,-1.446667 -7.593333,-1.636667 -11.5,-0.57 z m -30.57,35.87 0.24,4.2 c 0.0189,0.332001 -0.127302,0.650643 -0.39,0.85 l -9.71,7.45 c -0.853333,0.66 -1.28,0.45 -1.28,-0.63 l -0.05,-11.55 z m 202.07,-5.37 0.19,2.16 c 0.0471,0.562107 0.54957,0.97402 1.11,0.91 5.98667,-0.693333 11.91333,-0.273333 17.78,1.26 l -17.83,13.69 c -0.86,0.66 -1.28667,0.446667 -1.28,-0.64 z m -64.57,-4.07 -0.01,10.32 c -3.66,-0.913333 -7.39,-1.063333 -11.19,-0.45 l 0.04,-9.71 c 3.70667,0.406667 7.42667,0.353333 11.16,-0.16 z m -71.99,-0.46 0.16,8.65 c 3e-4,0.310292 -0.1393,0.604185 -0.38,0.8 l -18.13,14.52 c -0.37503,0.301892 -0.91712,0.289286 -1.29,-0.03 l -15,-13.1 c -0.21573,-0.191032 -0.339468,-0.463982 -0.34,-0.75 l 0.04,-9.31 c 3.906667,-1.066667 7.74,-0.876667 11.5,0.57 l 9.56,8.16 c 1.08667,0.926667 1.63333,0.673333 1.64,-0.76 l 0.05,-8.72 z m 31.28,-2.64 10.95,0.17 0.03,3.73 c -3.8e-4,0.33302 -0.16096,0.642983 -0.43,0.83 l -8.92,6.21 c -1.04,0.72 -1.56333,0.446667 -1.57,-0.82 z m -12.55,-9.58 v 23.5 c -3.74,0.56 -7.46333,0.476667 -11.17,-0.25 l 0.25,-18.5 z m 86,-1 -0.09,10.48 c -0.004,0.463279 0.31024,0.868828 0.76,0.98 3.01,0.75 6.41,-2.38 10.21,-5.22 0.26768,-0.193616 0.41841,-0.510153 0.4,-0.84 l -0.22,-5.06 c 4.90891,-0.23338 8.08511,-0.87459 12.48,-0.13 l -0.15,11.89 c 6.3e-4,0.308439 -0.14354,0.600469 -0.39,0.79 l -22.91,17.3 -11.51,-1.94 v -22 z m 66.75,5.25 -0.31,4.86 c -0.0193,0.291481 -0.16988,0.559583 -0.41,0.73 l -15.12,11.24 c -5.86667,-1.533333 -11.79333,-1.953333 -17.78,-1.26 -0.56043,0.06402 -1.06288,-0.347893 -1.11,-0.91 l -0.19,-2.16 0.08,-16.76 c 0.005,-0.548376 0.4516,-0.990027 1,-0.99 h 9.13 c 0.55228,0 1,0.447715 1,1 v 6.94 c 0,1.28 0.52333,1.556667 1.57,0.83 l 9.28,-6.46 c 0.26376,-0.189163 0.42308,-0.492974 0.43,-0.82 l 0.01,-3.74 c 3.90667,2.893333 8.04667,5.393333 12.42,7.5 z m -222.92,-8.25 -13.29,7.46 c -0.309733,0.174259 -0.503854,0.5016 -0.51,0.86 l -0.27,17.8 -11.19,0.32 0.01,-17.19 20.96,-11.29 c 1.086667,-0.22 1.863333,0.09 2.33,0.93 0.161881,0.2934993 0.46288,0.485386 0.8,0.51 0.453333,0.04 0.84,0.24 1.16,0.6 z"
           sodipodi:nodetypes="ccccccccccccccccccccccccccccccccccccccccccccccccccccccccccccccccccccccccccccccccccccccccccccccccccccccccccccccccccccccsssccccccccccccccc"
           style="fill-opacity:1.0;fill:url(#linearGradient34340)" />
      </g>
    </g>
    <g
       fill="#000000"
       id="g280"
       transform="translate(1.0513291,-99.52276)"
       style="stroke:none;stroke-opacity:1;fill:#000000;stroke-width:0.5;stroke-miterlimit:4;stroke-dasharray:none">
      <path
         d="m 238,63.1 v 14.13 q 0,1.89 1.56,0.83 l 3.87,-2.65 a 1.01,0.99 71.3 0 0 0.43,-0.9 l -0.42,-5.69 a 1,1 0 0 1 1,-1.07 h 17.91 a 1,0.99 82.4 0 1 0.96,0.74 q 0.43,1.57 0.19,3.04 c -0.65,3.96 -0.55,7.69 -0.45,11.68 a 1.01,1 -19.3 0 1 -0.4,0.82 l -41.82,31.73 a 1,1 0 0 1 -1.59,-0.61 l -0.22,-1.21 a 1.04,1.03 -32.3 0 1 0.18,-0.77 q 2.08,-2.88 1.96,-6.2 c -0.2,-5.69 0.17,-11.33 0.08,-17.02 -0.38,-22.57 -0.27,-45.15 -0.25,-67.73 0.01,-2 -2.21,-5.61 -2.66,0.31 q -0.17,2.27 -0.07,9.7 a 1,0.99 89.4 0 1 -0.99,1.02 h -10.23 a 1.01,1 -89.7 0 0 -1,1 q -0.09,31.98 -0.02,63.89 c 0,1.9 0.86,3 1.96,4.36 a 1,0.99 -36.5 0 1 -0.22,1.45 l -19.12,13.03 q -1.67,1.14 -1.23,-0.83 0.55,-2.46 1.14,-4.9 0.69,-2.82 0.69,-5.58 0.02,-35.7 0.01,-71.42 a 1,1 0 0 0 -1,-1 h -9.24 a 1,1 0 0 1 -1,-1 L 178,21.93 a 1.09,1.05 -66.3 0 0 -0.24,-0.65 l -2.84,-3.38 q -1.42,-1.69 0.79,-1.64 18.46,0.44 37.03,-0.06 18.44,-0.5 36.89,-0.17 c 4.39,0.08 8.37,3.07 12.1,5.37 a 1,1 0 0 1 0.47,0.81 l 0.66,12.99 a 1,1 0 0 1 -1,1.05 h -16.62 a 1,0.99 89.1 0 1 -0.99,-0.97 l -0.03,-0.88 a 1.01,1 -88 0 0 -0.9,-0.97 l -4.22,-0.42 a 1,1 0 0 0 -1.1,1 v 11.24 a 1,1 0 0 0 1,1 h 12.25 a 1,1 0 0 1 1,1 l -0.02,14.06 a 1,1 0 0 1 -1.02,1 L 239.02,62.1 a 1,1 0 0 0 -1.02,1 z M 192.06,31.09 192.05,48.4 q -0.46,5.5 0.45,10.64 l -0.21,1.71 -0.23,23.59 -0.04,9.71 c -0.01,3.92 0.85,12.37 -0.31,15.81 q -0.08,0.25 -0.15,0.52 -0.39,1.62 0.98,0.68 l 11.32,-7.71 a 0.99,0.99 0 0 0 0.36,-1.22 q -1.58,-3.64 -1.01,-7.63 l 0.01,-10.32 -0.01,-16.93 q 0.6,-0.98 0,-2 l 0.06,-16.13 V 32.11 q -0.2,-0.6 0.02,-1.06 a 0.99,0.99 0 0 1 0.91,-0.57 l 10.22,0.08 a 1,1 0 0 0 1,-0.95 q 0.2,-3.67 0.09,-7.37 -0.02,-0.9 0.18,-1.78 a 1,1 0 0 0 -0.98,-1.22 h -33.08 a 1,1 0 0 0 -1,1.02 l 0.17,9.28 a 1,1 0 0 0 1.08,0.98 q 5.14,-0.39 10.18,0.57 z m 32.48,2.66 v 40.75 2.25 22 l 0.12,8.27 q 0.03,1.93 1.59,0.8 l 9.8,-7.13 22.91,-17.3 a 1,0.99 -18.9 0 0 0.39,-0.79 l 0.15,-11.89 q -6.24,-0.63 -12.48,0.13 l 0.22,5.06 a 0.97,0.97 0 0 1 -0.4,0.84 c -3.8,2.84 -7.2,5.97 -10.21,5.22 a 1,1 0 0 1 -0.76,-0.98 l 0.09,-10.48 -0.5,-1.75 0.03,-8.24 a 1.01,1.01 0 0 1 1.01,-1 l 12.06,0.05 a 1,1 0 0 0 1,-1 l -0.02,-9.16 a 1,0.99 88.6 0 0 -1.04,-1 q -7.23,0.31 -11.93,0.04 -1.22,-0.08 -1.03,-1.44 l 0.14,-15.51 a 1,1 0 0 1 1,-0.99 h 9.57 a 1,1 0 0 1 1,1 v 1 a 1,1 0 0 0 1,1 h 10 a 1,1 0 0 0 1,-1 v -8.38 a 1.02,1 -75 0 0 -0.49,-0.87 c -2.79,-1.63 -5.78,-4 -9.13,-4 q -12.18,0 -24.33,0 a 1,1 0 0 0 -1,1.02 z"
         id="path264"
         style="stroke:none;stroke-opacity:1;fill:#000000;stroke-width:0.5;stroke-miterlimit:4;stroke-dasharray:none" />
      <path
         d="m 283.29,74.04 q 2.41,-1.16 3.64,-2.61 c 1.6,-1.88 0.54,-3.73 -1.44,-4.78 Q 275.5,61.34 265.53,55.98 A 1,0.99 -76.1 0 1 265,55.1 V 22 a 1.01,0.95 -65.1 0 0 -0.2,-0.6 l -2.56,-3.44 a 1,1 0 0 1 0.65,-1.59 q 2.18,-0.32 4.29,-0.28 12.93,0.25 25.84,0.13 c 4.1,-0.04 8.94,3.52 12.29,5.69 a 1.02,1 16.9 0 1 0.46,0.84 l -0.05,12.5 a 1,1 0 0 1 -1,1 h -16.48 a 1.01,0.99 87.8 0 1 -0.99,-0.93 l -0.08,-1.01 a 0.99,0.99 0 0 0 -1,-0.92 l -3.18,0.02 a 1,1 0 0 0 -0.99,1 v 14.04 a 1.01,0.99 13.7 0 0 0.55,0.89 l 21.9,11.11 A 1,0.98 -77.1 0 1 305,61.34 L 304.99,82.2 A 1.02,1 71.6 0 1 304.6,83 l -41.74,31.69 a 0.44,0.41 30.3 0 1 -0.32,0.07 c -0.91,-0.15 1.32,-4.53 1.56,-5.1 q 0.9,-2.18 0.9,-4.52 0,-18.19 0,-36.39 a 1,1 0 0 1 1,-1 h 15.06 a 1.01,1 -88.9 0 1 1,1.05 l -0.2,4.3 a 1,0.99 -11.6 0 0 1.43,0.94 z M 267.54,33.75 V 46.5 q -0.53,3.88 0.57,7.56 a 1.03,1.01 -84.2 0 0 0.48,0.6 q 10.05,5.38 20.1,10.36 0.67,0.34 1.85,1.48 l -0.25,1.75 -0.01,3.74 a 1.04,1.03 72.9 0 1 -0.43,0.82 l -9.28,6.46 Q 279,80.36 279,78.44 V 71.5 a 1,1 0 0 0 -1,-1 h -9.13 a 1,1 0 0 0 -1,0.99 l -0.08,16.76 -0.03,17.38 q -0.01,1.63 1.28,0.64 l 17.83,-13.69 15.12,-11.24 a 0.98,0.97 -16.1 0 0 0.41,-0.73 l 0.31,-4.86 -0.25,-2 -0.02,-10.76 a 1.01,1.01 0 0 0 -0.55,-0.9 L 279.62,50.92 a 1.02,1.01 -77.6 0 1 -0.55,-0.87 l -0.09,-2.73 0.07,-12.64 0.04,-3.23 a 1,1 0 0 1 1.01,-0.99 l 9.16,0.13 a 1,1 0 0 1 0.99,1 v 0.91 a 1,1 0 0 0 1,1 h 10.29 a 1.01,1 90 0 0 1,-1.01 l -0.06,-8.47 a 1,0.99 15.3 0 0 -0.5,-0.86 l -6.59,-3.78 q -0.23,-0.13 -0.49,-0.13 h -26.54 a 1,1 0 0 0 -1,1.01 z"
         id="path266"
         style="stroke:none;stroke-opacity:1;fill:#000000;stroke-width:0.5;stroke-miterlimit:4;stroke-dasharray:none" />
      <path
         d="m 69.68,95.25 h 1.83 q 2.89,-0.01 0.62,1.78 l -22.61,17.83 a 0.51,0.5 -58.3 0 1 -0.4,0.1 c -1.05,-0.18 1.09,-4.16 1.33,-4.79 q 0.72,-1.89 0.79,-4.09 C 52.11,78 51.04,49.72 51.46,21.59 a 0.97,0.96 26.3 0 0 -0.22,-0.64 l -2.47,-3.07 q -1.03,-1.29 0.62,-1.3 15.18,-0.12 30.3,-0.1 c 4.14,0.01 8.43,3.17 11.84,5.29 A 1,0.99 -74.4 0 1 92,22.62 v 41.11 a 1,0.99 -13.9 0 1 -0.54,0.88 L 69.52,76.16 a 1.01,1 -13.7 0 0 -0.54,0.87 l -0.3,17.21 a 1,1 0 0 0 1,1.01 z M 54.53,43.57 54.54,51 v 23.5 2.25 l -0.01,17.19 0.05,11.55 q 0,1.62 1.28,0.63 l 9.71,-7.45 a 1,0.99 69.8 0 0 0.39,-0.85 l -0.24,-4.2 0.27,-17.8 a 1.01,1 76.1 0 1 0.51,-0.86 l 13.29,-7.46 8.88,-4.52 a 0.99,0.98 -14.1 0 0 0.54,-0.89 V 58 55.75 l 0.04,-14.64 -0.02,-17 a 1,1 0 0 0 -0.49,-0.86 c -2.77,-1.64 -5.76,-3.99 -9.1,-4 Q 67.18,19.24 54.71,19.26 a 0.52,0.51 81.9 0 0 -0.49,0.66 c 0.18,0.58 0.3,0.68 0.3,1.34 q -0.06,11.07 0.01,22.31 z"
         id="path268"
         style="stroke:none;stroke-opacity:1;fill:#000000;stroke-width:0.5;stroke-miterlimit:4;stroke-dasharray:none" />
      <path
         d="M 93.64,95.52 A 1,1 0 0 1 93.3,94.79 Q 92.59,59.42 93.63,24.06 a 1.01,0.99 66 0 1 0.22,-0.6 l 5.34,-6.59 a 1,0.98 -70.2 0 1 0.77,-0.37 h 27.38 a 1.02,1.01 -20.9 0 1 0.75,0.33 l 5.92,6.58 a 0.98,0.97 -66 0 1 0.26,0.69 q -0.4,17.49 -0.21,25.89 0.68,29.21 0.09,34.58 -0.47,4.36 0.22,8.73 A 1.02,0.99 -24.3 0 1 134,94.24 l -21.22,16.97 a 1,1 0 0 1 -1.28,-0.03 z m 2.65,-64.87 0.21,25.14 -0.21,1.96 V 84.5 l -0.04,9.31 a 1.01,1 20.9 0 0 0.34,0.75 l 15,13.1 a 1.02,1 45.9 0 0 1.29,0.03 l 18.13,-14.52 a 1.03,1.03 0 0 0 0.38,-0.8 L 131.23,83.72 131.21,76 v -2 -20.75 -21 l 0.01,-7.52 a 1,0.97 -67.1 0 0 -0.26,-0.67 l -4.05,-4.48 a 1.02,1.01 -20.9 0 0 -0.75,-0.33 h -24.85 a 1,0.98 -70.2 0 0 -0.77,0.37 l -4.05,4.91 a 1.01,1 -25.5 0 0 -0.23,0.64 z"
         id="path270"
         style="stroke:none;stroke-opacity:1;fill:#000000;stroke-width:0.5;stroke-miterlimit:4;stroke-dasharray:none" />
      <path
         d="m 166.14,54.2 c -1.12667,0.613333 -1.11667,1.206667 0.03,1.78 l 9.53,4.76 c 0.3358,0.164232 0.54908,0.509357 0.55,0.89 v 22.03 c 3.8e-4,0.33302 0.16096,0.642983 0.43,0.83 2.15,1.46 -0.33,2.3 -1.29,2.97 -4.71333,3.26 -9.41667,6.533333 -14.11,9.82 -1.04667,0.733333 -1.57,0.46 -1.57,-0.82 l 0.06,-27.52 c 7.8e-4,-0.374357 -0.2076,-0.717796 -0.54,-0.89 l -5.01,-2.62 c -0.66831,-0.347051 -1.46581,0.133632 -1.46,0.88 -0.02,9.966667 -0.02,19.93 0,29.89 0.01,1.76 0.67,3.29 1.81,4.44 0.43656,0.44441 0.36951,1.17232 -0.14,1.52 l -18.96,13.23 c -1.12667,0.78667 -1.53667,0.51 -1.23,-0.83 0.32,-1.42667 0.66,-2.84 1.02,-4.24 0.5,-1.95333 0.75,-3.86333 0.75,-5.73 -0.0133,-27.62 -0.0167,-55.24 -0.01,-82.86 1.4e-4,-0.239007 -0.0848,-0.472451 -0.24,-0.66 l -2.49,-2.89 c -0.94667,-1.093333 -0.69667,-1.643333 0.75,-1.65 10.08667,-0.04 20.15333,-0.04667 30.2,-0.02 3.81,0.01 8.21,3.22 11.5,5.02 0.3199,0.172556 0.51951,0.506531 0.52,0.87 l 0.01,25.75 c -9.4e-4,0.369661 -0.20046,0.707307 -0.52,0.88 z m -27.41,-22.3 0.06,23.35 v 19 l 0.25,2.00001 -0.25,18.49999 -0.11,13.18 c -0.0133,1.28667 0.51,1.56333 1.57,0.83 l 10.31,-7.15 c 0.42024,-0.29053 0.55391,-0.8511 0.31,-1.3 -0.88,-1.64 -1.18333,-3.41 -0.91,-5.31 V 71.5 c -0.0107,-0.758417 0.37667,-1.46 -0.21,-2.04 l 0.46,-7.42 c 0.0455,-0.692249 0.76483,-1.12899 1.4,-0.85 l 8.1,3.56 c 0.31333,0.78 0.79,1.113333 1.43,1 l 0.93,0.74 c 0.23385,0.189923 0.36974,0.476409 0.37,0.78 l 0.07,13.81 0.06,10.12 c 0.007,1.266667 0.53,1.54 1.57,0.82 l 8.92,-6.21 c 0.26904,-0.187017 0.42962,-0.49698 0.43,-0.83 l -0.03,-3.73 -0.02,-17.79 c -7e-5,-0.263528 -0.10048,-0.514541 -0.28,-0.7 -0.86,-0.866667 -1.9,-1.453333 -3.12,-1.76 l -1.79,-0.96 -9.28,-4.86 13.95,-7.72 c 0.3199,-0.172556 0.51951,-0.506531 0.52,-0.87 l 0.02,-14.34 -0.14,-8.26 c -0.006,-0.352355 -0.20001,-0.676022 -0.51,-0.85 l -6.67,-3.76 c -0.15333,-0.08667 -0.31667,-0.13 -0.49,-0.13 h -26.12 c -0.55622,-8.7e-5 -1.00557,0.45825 -1,1.02 z"
         id="path272"
         sodipodi:nodetypes="cccccccccccccccccccccccccccccccccccccccccccccccccccccccccccccccccsccc"
         style="stroke:none;stroke-opacity:1;fill:#000000;stroke-width:0.5;stroke-miterlimit:4;stroke-dasharray:none" />
      <path
         d="m 119,31.44 v 21.24 l 0.35,14.81 q -0.54,0.7 -0.31,1.76 v 14.5 l -0.05,8.72 q -0.01,2.15 -1.64,0.76 l -9.56,-8.16 -0.08,-21.57 -0.25,-2.5 0.25,-30.25 q -0.05,-0.3 -0.01,-0.57 a 0.81,0.8 -85.3 0 1 0.79,-0.68 h 9.5 a 1,1 0 0 1 1,0.99 z m -7.9,52.74 a 0.33,0.33 0 0 0 0.11,0.25 l 4.24,3.61 a 0.33,0.33 0 0 0 0.54,-0.25 l 0.23,-55.36 A 0.33,0.33 0 0 0 115.9,32.1 l -4.87,-0.11 a 0.33,0.33 0 0 0 -0.34,0.33 z"
         id="path274"
         style="stroke:none;stroke-opacity:1;fill:#000000;stroke-width:0.5;stroke-miterlimit:4;stroke-dasharray:none" />
      <path
         d="m 78.54,41 -0.08,14.38 a 0.99,0.98 75.6 0 1 -0.5,0.86 l -10.79,6.12 a 1.01,1 -15.3 0 1 -1.5,-0.85 l -0.19,-10.39 -0.07,-7.06 0.2,-12.54 a 1,1 0 0 1 1,-0.98 l 10.8,-0.05 a 1,1 0 0 1 1.01,0.98 z M 69.3,33.34 a 0.54,0.54 0 0 0 -0.53,0.54 L 68.7,57.45 a 0.54,0.54 0 0 0 0.81,0.47 l 5.97,-3.37 a 0.54,0.54 0 0 0 0.27,-0.47 V 33.75 A 0.54,0.54 0 0 0 75.2,33.21 Z"
         id="path276"
         style="stroke:none;stroke-opacity:1;fill:#000000;stroke-width:0.5;stroke-miterlimit:4;stroke-dasharray:none" />
      <path
         d="m 162.82,31.06 -0.08,11.14 a 1.01,1 76.1 0 1 -0.51,0.86 l -10.94,6.16 a 1,1 0 0 1 -1.49,-0.86 l -0.1,-16.98 q 6.49,-1.97 13.12,-0.32 z m -3.04,10.24 a 0.51,0.51 0 0 0 0.26,-0.45 l -0.09,-7.1 a 0.51,0.51 0 0 0 -0.51,-0.5 h -6.43 a 0.51,0.51 0 0 0 -0.51,0.51 v 10.89 a 0.51,0.51 0 0 0 0.77,0.44 z"
         id="path278"
         style="stroke:none;stroke-opacity:1;fill:#000000;stroke-width:0.5;stroke-miterlimit:4;stroke-dasharray:none" />
    </g>
  </g>
</svg>
