<?xml version='1.0' encoding='utf-8'?>
<svg xmlns="http://www.w3.org/2000/svg" width="600" height="107.14970967933293" viewBox="-0.001 0 646.36209 115.41383" version="1.1" id="svg9">
    <defs id="defs9"/>
    <g id="g11" style="stroke:#ffffff;stroke-width:10.0584;stroke-linecap:round;stroke-linejoin:round;stroke-dasharray:none;stroke-opacity:1;paint-order:markers stroke fill" transform="translate(16.30571,5.0219557)">
        <g id="path9" style="opacity:1" transform="translate(-11.265454)">
            <path style="baseline-shift:baseline;display:inline;overflow:visible;vector-effect:none;fill:#ffffff;stroke:none;enable-background:accumulate;stop-color:#000000;stop-opacity:1" d="M 51.292969,-4.9433594 C 48.200398,-5.5184263 45.344737,-3.1455841 45.34375,0 c -0.0022,18.007538 5.2e-5,36.014104 0,54.021484 -0.301431,-0.07048 -0.608725,-0.112974 -0.917969,-0.126953 -9.55202,3.368297 -19.075716,6.777353 -28.597656,10.148438 -0.01435,0.0051 -0.02867,0.01036 -0.04297,0.01563 -2.199498,0.801279 -4.648816,1.580666 -7.2128904,2.671875 -2.7807513,1.168979 -5.699346,2.543509 -8.49218748,4.470703 -1.49525822,1.020407 -3.11548842,2.479698 -4.16796872,4.703125 -1.1914664,2.475644 -1.2303407,5.169803 -0.3164063,7.603515 0.00194,0.0059 0.0039,0.01172 0.00586,0.01758 0.9842605,2.589276 2.72452,4.347425 4.34960938,5.605468 0.01167834,0.0092 0.0233972,0.01828 0.03515624,0.02734 2.82934198,2.15019 5.90586418,3.291495 8.69921918,4.105467 8.1901831,2.684113 16.8306191,4.022622 25.4863281,3.830078 3.809609,-0.06108 7.528065,-0.503306 11.171875,-1.099609 7e-5,0.331386 -7.2e-5,0.662754 0,0.99414 4.18e-4,2.191182 1.419344,4.129959 3.507812,4.792969 l 21.935547,6.96094 c 1.898619,0.41364 3.865669,-0.30338 5.052735,-1.8418 0.741101,0.28677 1.539605,0.39386 2.330078,0.3125 14.335663,-5.15471 28.676598,-10.301585 43.017578,-15.451171 -1.3702,1.039574 -2.47088,2.439477 -3.17383,4.123047 -1.23376,2.916269 -1.06748,6.139044 0.55274,8.923824 1.76816,3.08076 4.93591,5.02399 8.64062,4.9961 4.05256,0.0795 7.46912,-2.18737 9.13281,-5.70117 1.6452,-3.42598 1.26657,-7.343943 -1.08203,-10.388676 -2.1444,-2.858793 -5.50072,-4.303553 -9.04883,-3.910157 1.18814,-0.448559 2.22046,-0.732236 3.49805,-1.382812 l 0.008,-0.0039 c 2.32458,-1.177716 5.05256,-2.68174 7.36914,-5.279297 0.007,-0.0078 0.013,-0.01561 0.0195,-0.02344 1.50006,-1.703009 2.73503,-4.090877 2.60937,-7.035156 -0.0824,-3.565108 -2.04691,-6.028635 -3.76758,-7.597656 -0.01,-0.0085 -0.0195,-0.01696 -0.0293,-0.02539 -2.69466,-2.420673 -5.71375,-3.673587 -8.3125,-4.623047 -0.0666,-0.02486 -0.13363,-0.0483 -0.20118,-0.07031 -1.07427,-0.341486 -2.38718,-0.874601 -3.99804,-1.367188 l -0.008,-0.002 c -6.20546,-1.94606 -12.58973,-2.752376 -18.93359,-3.035156 0.74919,-0.848605 1.51605,-1.690493 2.09766,-2.634766 1.79916,-2.921033 2.79413,-6.067526 3.3457,-9.105468 0.67555,-3.578897 0.65609,-6.987023 0.55664,-10.111329 -5.4e-4,-0.02084 -0.001,-0.04167 -0.002,-0.0625 -0.2193,-4.968617 -0.94537,-10.35427 -3.39453,-15.472656 -0.001,-0.0023 -8.5e-4,-0.0055 -0.002,-0.0078 -1.35193,-2.844576 -3.19393,-5.428499 -5.4375,-7.638672 -2.100696,-2.133158 -4.426966,-3.772529 -6.699216,-5.1523439 -0.01428,-0.00853 -0.0286,-0.016998 -0.04297,-0.025391 C 89.727347,6.0859062 84.28298,4.1423789 79.060547,2.4785156 l -0.01953,-0.00586 c -3.304778,-1.0670529 -6.617674,-2.06410181 -9.919923,-3.02343685 -0.0098,-0.003285 -0.01952,-0.006541 -0.0293,-0.009766 C 63.322428,-2.1974328 57.415584,-3.802032 51.292969,-4.9433594 Z m 4.107422,11.3574219 c 3.636522,0.8609322 7.25735,1.656776 10.945312,2.703125 3.148554,0.9148925 6.273313,1.8585165 9.365234,2.8535155 -2.388554,-0.01783 -4.567384,1.007565 -6.052734,2.914063 -2.049157,2.586912 -2.311008,5.384279 -2.369141,7.375 -0.0014,0.04882 -0.002,0.09765 -0.002,0.146484 -0.0073,24.894764 0.0035,49.78492 -0.0078,74.671875 L 55.400391,93.308594 c -0.0056,-28.964148 -0.0034,-57.928854 0,-86.8945315 z m 26.029296,7.5703125 c 2.931989,1.101584 5.759075,2.296938 8.292969,3.798828 1.8473,1.123067 3.477993,2.312433 4.761719,3.621094 0.02193,0.02234 0.04407,0.04448 0.06641,0.06641 1.419003,1.393283 2.581114,3.025579 3.433594,4.822266 0.0026,0.0052 0.0052,0.01043 0.0078,0.01563 1.574003,3.287049 2.225531,7.289958 2.416011,11.550781 0.091,2.888607 0.0601,5.549745 -0.38672,7.908203 -0.003,0.01366 -0.005,0.02734 -0.008,0.04102 -0.385224,2.129452 -1.052949,4.076456 -2.017574,5.642578 -0.809864,1.314869 -1.912675,2.386603 -3.078125,3.011719 l -0.0078,0.0059 c -1.154555,0.622223 -2.581793,0.956148 -3.998047,0.927734 -0.05077,-0.0014 -0.101555,-0.0021 -0.152343,-0.002 -1.451194,0.01493 -3.043152,-0.370717 -4.677735,-0.910156 -0.03077,-8.980755 -0.0082,-17.976528 -0.02148,-26.998047 8.5e-5,-0.01693 8.5e-5,-0.03385 0,-0.05078 -0.01782,-1.55883 0.172897,-3.738306 -0.363281,-6.402344 -0.39236,-2.086383 -1.279142,-4.599476 -3.552735,-6.583984 -0.232322,-0.206742 -0.477392,-0.290696 -0.714844,-0.464844 z m -6.271484,7.921875 c 0.163488,0.03452 0.06728,-0.0073 0.126953,0.01758 -0.0098,-0.0018 -0.01556,0.0038 -0.02539,0.002 z m 15.638672,43.537109 c 0.02348,-1.63e-4 0.0429,0.01001 0.06641,0.0098 h -0.152344 c 0.02879,5.78e-4 0.05714,-0.01021 0.08594,-0.0098 z m -49.722656,0.314453 c -4.69e-4,0.694535 -1.5e-5,1.383838 0,2.080079 -6.44211,2.29501 -12.873437,4.607386 -19.289063,6.898437 -0.02939,0.01014 -0.05869,0.02056 -0.08789,0.03125 -1.151164,0.435546 -2.956438,1.061453 -4.679688,2.767578 -0.0046,0.0045 -0.0091,0.0091 -0.01367,0.01367 -0.580749,0.579201 -1.157898,1.294071 -1.591797,2.412109 -0.433898,1.118039 -0.638113,2.821295 -0.0293,4.410157 0.01394,0.03466 0.02826,0.06917 0.04297,0.103515 0.01717,0.04199 0.04291,0.06438 0.06055,0.105469 -1.242288,-0.331891 -2.524444,-0.492554 -3.746094,-0.894531 -0.05696,-0.01926 -0.114261,-0.03749 -0.171875,-0.05469 C 9.3464103,82.987084 7.4524079,82.188997 6.09375,81.162109 5.4917847,80.690882 5.2400562,80.30858 5.125,80.085937 c 0.066256,-0.09133 0.1840265,-0.279683 0.6308594,-0.583984 0.00913,-0.0058 0.018248,-0.01169 0.027344,-0.01758 1.9245848,-1.329461 4.2121095,-2.442848 6.7050776,-3.490234 0.0072,-0.0033 0.01433,-0.0065 0.02149,-0.0098 1.980528,-0.842963 4.241728,-1.574155 6.673828,-2.458984 0.0052,-0.0019 0.01037,-0.004 0.01563,-0.0059 0.0099,-0.0036 0.01741,-0.0061 0.02734,-0.0098 7.2937,-2.5823 14.570113,-5.171174 21.847657,-7.751954 z m 54.853515,3.691407 C 91.110021,71.14207 86.304828,72.833096 81.5,74.523437 c -5.6e-5,-0.759002 -1.68e-4,-1.518653 0,-2.277343 4.301835,-1.251846 8.729541,-2.20679 13.283203,-2.730469 h 0.0039 c 0.34875,-0.04033 0.779913,-0.03571 1.140625,-0.06641 z m 23.689456,2.373047 c 0.25247,0.07519 0.52428,0.09309 0.77539,0.171875 0.0143,0.004 0.0286,0.0079 0.043,0.01172 0.99547,0.302649 2.23974,0.795554 3.71679,1.275391 2.16258,0.790102 3.90754,1.647075 5.0293,2.650391 0.52092,0.485559 0.49756,0.792583 0.49414,0.36914 3.8e-4,0.0736 0.002,0.147188 0.006,0.220703 -0.019,-0.365247 0.0599,-0.264592 -0.125,-0.05469 l 0.0195,-0.02344 c -0.91303,1.023776 -2.45219,2.012115 -4.41406,3.00586 -0.004,0.002 -0.008,0.0039 -0.0117,0.0059 -1.7636,0.899182 -4.01814,1.611243 -6.59375,2.564453 -12.35242,4.435607 -24.707795,8.871127 -37.060546,13.310547 8.3e-5,-0.670816 2.36e-4,-1.340517 0,-2.011719 10.059429,-3.580672 20.115396,-7.167392 30.171716,-10.755897 0.0242,-0.0089 0.0483,-0.01804 0.0723,-0.02734 1.13601,-0.424773 3.37691,-0.864467 5.75586,-2.757812 0.64908,-0.511016 1.3667,-1.164364 1.99805,-2.34961 0.6356,-1.193223 1.05045,-3.245551 0.38477,-5.076172 -0.0349,-0.09553 -0.0727,-0.189969 -0.11328,-0.283203 -0.0427,-0.09844 -0.10335,-0.15274 -0.14844,-0.246093 z m -85.884768,17.140625 -0.111328,0.02344 c 0.02323,-0.0046 0.0374,-0.01293 0.06055,-0.01758 0.0177,-0.0039 0.03307,-0.002 0.05078,-0.0059 z M 126.125,89.798828 c -0.008,9.32e-4 -0.0152,0.0049 -0.0234,0.0059 -0.01,0.0012 -0.0193,-0.0012 -0.0293,0 z m -0.94727,1.021484 c -0.004,0.001 -0.007,0.0049 -0.0117,0.0059 -0.004,9.22e-4 -0.008,-9.28e-4 -0.0117,0 z m 10.93164,6.435547 0.0332,0.117188 c -0.005,-0.01784 -0.0186,-0.02909 -0.0234,-0.04687 -0.007,-0.02358 -0.003,-0.04674 -0.01,-0.07031 z m -17.82617,4.501951 c 7.6e-4,0.003 0.003,0.006 0.004,0.01 7.2e-4,0.003 -7.2e-4,0.007 0,0.01 z m 14.46094,5.41407 -0.12305,0.0898 c 0.0214,-0.0152 0.0334,-0.0374 0.0547,-0.0527 0.0216,-0.016 0.0468,-0.0209 0.0684,-0.0371 z m -10.50195,0.32617 c 0.007,0.004 0.0147,0.005 0.0215,0.01 0.005,0.003 0.007,0.009 0.0117,0.0117 z" id="path12"/>
            <path style="baseline-shift:baseline;display:inline;overflow:visible;vector-effect:none;stroke:none;enable-background:accumulate;stop-color:#000000;stop-opacity:1" d="m 125.118,96.896 c 0.901,-0.005 1.805,-0.001 2.707,-0.003 0.51,0.007 1.072,0.126 1.434,0.518 0.363,0.41 0.393,1.008 0.293,1.522 -0.057,0.34 -0.356,0.541 -0.573,0.778 0.188,0.168 0.43,0.324 0.475,0.597 0.104,0.521 -0.006,1.067 0.161,1.577 0.105,0.181 0.212,0.363 0.22,0.578 -0.374,0.011 -0.747,0.004 -1.121,0.01 -0.252,-0.594 -0.063,-1.26 -0.221,-1.871 -0.062,-0.249 -0.32,-0.404 -0.565,-0.396 -0.61,-0.025 -1.223,-0.008 -1.83,-0.008 -0.01,0.758 0.021,1.518 -0.019,2.275 a 23.39,23.39 0 0 0 -0.955,0.001 c -0.017,-1.862 -0.006,-3.72 -0.006,-5.578 z m 0.978,0.884 v 1.541 c 0.545,0.004 1.091,0.008 1.638,0.002 0.271,-0.002 0.586,-0.053 0.762,-0.283 a 0.973,0.973 0 0 0 0.015,-0.98 c -0.141,-0.234 -0.438,-0.258 -0.682,-0.273 -0.578,-0.018 -1.156,-0.007 -1.733,-0.007 z M 94.209,64.52 c 2.162,-0.25 4.338,-0.309 6.512,-0.387 7.15,0.027 14.338,0.916 21.178,3.062 1.342,0.408 2.642,0.937 3.979,1.362 2.384,0.871 4.77,1.927 6.678,3.641 1.146,1.045 2.135,2.454 2.148,4.062 0.068,1.31 -0.524,2.566 -1.374,3.531 -1.616,1.812 -3.752,3.058 -5.896,4.144 -2.283,1.164 -4.737,1.915 -7.131,2.801 -14.612,5.247 -29.226,10.492 -43.835,15.745 -0.003,-4.094 0.004,-8.186 -0.003,-12.275 0.022,-0.164 -0.067,-0.449 0.163,-0.492 11.118,-3.955 22.233,-7.922 33.35,-11.889 1.503,-0.562 3.122,-0.969 4.397,-1.988 0.522,-0.41 1.033,-1.062 0.777,-1.766 -0.267,-0.615 -0.905,-0.955 -1.492,-1.21 -1.664,-0.659 -3.476,-0.786 -5.246,-0.836 -2.771,0.019 -5.566,0.36 -8.202,1.249 -7.919,2.775 -15.823,5.584 -23.744,8.35 10e-4,-4.395 -0.003,-8.787 0.002,-13.181 5.729,-2.011 11.713,-3.23 17.739,-3.923 z m 32.483,30.275 c 1.729,-0.215 3.535,0.56 4.571,1.961 1.131,1.447 1.338,3.533 0.539,5.185 -0.807,1.714 -2.65,2.915 -4.56,2.853 -1.757,0.039 -3.459,-0.984 -4.324,-2.5 -0.781,-1.334 -0.875,-3.043 -0.27,-4.463 0.681,-1.64 2.283,-2.836 4.044,-3.036 z m -0.376,0.924 a 4.149,4.149 0 0 0 -2.425,1.613 4.175,4.175 0 0 0 -0.694,3.354 4.164,4.164 0 0 0 1.808,2.61 c 1.403,0.922 3.37,0.871 4.713,-0.141 1.385,-0.979 2.043,-2.857 1.566,-4.484 -0.294,-1.1 -1.08,-2.037 -2.07,-2.582 -0.88,-0.465 -1.93,-0.6 -2.898,-0.37 z M 50.372,0 c 5.858,1.092 11.616,2.652 17.347,4.278 3.277,0.952 6.547,1.937 9.795,2.986 5.102,1.625 10.182,3.465 14.803,6.209 2.07,1.257 4.058,2.677 5.757,4.409 a 21.957,21.957 0 0 1 4.454,6.255 c 2.015,4.208 2.705,8.909 2.909,13.531 0.096,3.016 0.09,6.058 -0.474,9.035 -0.468,2.587 -1.3,5.138 -2.684,7.385 -1.222,1.984 -2.921,3.701 -4.983,4.807 -1.978,1.066 -4.242,1.574 -6.485,1.529 -3.402,0.035 -6.703,-1.049 -9.756,-2.471 C 80.999,47.8 81.046,37.645 81.031,27.494 81.01,25.657 81.135,23.801 80.764,21.989 80.503,20.585 79.931,19.17 78.828,18.217 c -0.73,-0.659 -1.678,-1.031 -2.63,-1.232 -0.963,-0.183 -1.99,0.226 -2.586,0.999 -0.991,1.238 -1.251,2.882 -1.296,4.423 -0.008,27.181 0.01,54.363 -0.008,81.542 A 29319.95,29319.95 0 0 1 50.372,96.988 C 50.365,64.659 50.368,32.33 50.372,0 Z M 17.506,68.784 C 27.039,65.409 36.562,62 46.099,58.637 c 0.015,3.742 0,7.486 0.006,11.232 -0.006,0.508 0.026,1.018 -0.037,1.523 -7.538,2.672 -15.062,5.391 -22.592,8.08 -1.044,0.395 -2.115,0.841 -2.92,1.638 -0.375,0.374 -0.681,0.927 -0.476,1.462 0.258,0.631 0.902,0.975 1.496,1.234 1.652,0.672 3.458,0.768 5.218,0.848 1.962,-0.031 3.933,-0.178 5.854,-0.602 1.299,-0.256 2.549,-0.693 3.787,-1.158 3.218,-1.165 6.436,-2.337 9.659,-3.49 0.023,3.166 0.004,6.334 0.01,9.504 -0.01,0.633 0.029,1.27 -0.034,1.9 -3.958,0.711 -7.963,1.193 -11.986,1.257 C 25.983,92.248 17.863,90.994 10.168,88.462 7.645,87.731 5.137,86.757 3.029,85.155 1.869,84.257 0.831,83.128 0.303,81.739 c -0.442,-1.177 -0.41,-2.535 0.141,-3.67 0.531,-1.133 1.459,-2.027 2.481,-2.723 2.364,-1.633 4.973,-2.879 7.615,-3.989 2.279,-0.97 4.641,-1.726 6.966,-2.573 z" id="path13"/>
        </g>
        <g id="path11" transform="matrix(1.511579,0,0,1.511579,-105.72468,-30.99509)">
            <path style="baseline-shift:baseline;display:inline;overflow:visible;vector-effect:none;fill:#ffffff;stroke:none;enable-background:accumulate;stop-color:#000000;stop-opacity:1" d="m 180.85937,19.033203 a 5.029703,5.029703 0 0 0 -4.56835,2.927734 c 0.46409,-1.008905 -0.52149,0.115364 -0.52149,2.253907 v 5.96289 c 0,0.983649 0.31393,2.613905 1.56641,3.878907 1.25247,1.265002 2.91273,1.605468 3.91211,1.605468 h 71.57422 c 1.8354,0 2.27471,0.375459 2.80859,1.048828 0.53388,0.67337 1.09961,2.140928 1.09961,4.416016 0,2.275717 -0.56572,3.742585 -1.09961,4.416016 -0.53389,0.673431 -0.97319,1.048828 -2.80859,1.048828 h -56.62891 c -11.63957,0 -20.42383,10.246497 -20.42383,22.318359 v 19.083985 c -0.007,1.706175 1.36106,4.556003 3.85156,5.324218 a 5.029703,5.029703 0 0 0 1.48243,0.222657 h 13.18359 a 5.029703,5.029703 0 0 0 1.83594,-0.347657 c 2.15964,-0.846761 3.58341,-2.995565 3.52148,-5.314453 l 0.002,0.134766 V 68.910156 c 0,-2.110601 0.60042,-3.525039 1.2168,-4.277344 0.61638,-0.752304 1.13312,-1.037109 2.24024,-1.037109 h 54.30078 c 7.15488,0 13.23409,-2.335564 17.29882,-6.548828 4.06474,-4.213264 5.90625,-9.968684 5.90625,-15.919922 0,-5.350389 -1.49667,-10.524326 -4.8125,-14.570312 -3.31582,-4.045987 -8.37795,-6.719914 -14.39453,-7.484375 a 5.029703,5.029703 0 0 0 -0.63476,-0.03906 z m 82.02735,10.814453 c 2.21293,0.712288 3.9869,1.688118 5.13086,3.083985 1.60117,1.953763 2.5332,4.681701 2.5332,8.195312 0,3.939762 -1.12512,6.903015 -3.08789,8.9375 -1.1953,1.238978 -2.85603,2.205579 -5.06055,2.8125 0.37425,-0.359569 0.79076,-0.681581 1.11133,-1.085937 2.41411,-3.045069 3.27539,-6.823779 3.27539,-10.664063 0,-3.839911 -0.86127,-7.621135 -3.27539,-10.666016 -0.18103,-0.228327 -0.42835,-0.399045 -0.62695,-0.613281 z M 194.3418,57.033203 c -0.43252,0.397331 -0.88927,0.772411 -1.25977,1.224609 -2.36862,2.890946 -3.49414,6.647946 -3.49414,10.652344 v 14.572266 h -3.75977 V 68.910156 c 0,-6.707861 3.57764,-10.959951 8.51368,-11.876953 z" id="path14"/>
            <path style="baseline-shift:baseline;display:inline;overflow:visible;vector-effect:none;stroke:none;enable-background:accumulate;stop-color:#000000;stop-opacity:1" d="m 181.104,88.512 h 13.183 a 0.52,0.52 0 0 0 0.33,-0.498 V 68.911 c 0,-6.115 3.454,-10.344 8.486,-10.344 h 54.301 c 12.242,0 18.176,-7.55 18.176,-17.441 0,-8.864 -4.856,-15.799 -14.812,-17.064 H 180.86 c -0.023,0.05 -0.062,0.089 -0.062,0.152 v 5.964 c 0,0.302 0.15,0.454 0.45,0.454 h 71.574 c 6.084,0 8.938,4.379 8.938,10.494 0,6.116 -2.854,10.495 -8.938,10.495 h -56.628 c -8.787,0 -15.396,7.476 -15.396,17.29 v 19.104 c -0.001,0.245 0.105,0.435 0.306,0.497 z" id="path15"/>
        </g>
        <g id="path10" transform="matrix(1.511579,0,0,1.511579,-115.78318,-30.99509)">
            <path style="baseline-shift:baseline;display:inline;overflow:visible;vector-effect:none;fill:#ffffff;stroke:none;enable-background:accumulate;stop-color:#000000;stop-opacity:1" d="m 336.35547,19.033203 a 5.029703,5.029703 0 0 0 -0.63281,0.03906 c -6.01442,0.76457 -11.07831,3.438929 -14.39454,7.484375 -3.31622,4.045445 -4.8125,9.218978 -4.8125,14.570312 v 29.972656 c 0,2.253157 -0.57016,3.714656 -1.11914,4.402344 -0.54897,0.687688 -1.01099,1.0625 -2.79101,1.0625 h -39.65235 c -1.245,0 -2.54667,0.39577 -3.6621,1.392578 -1.11544,0.996809 -1.81836,2.680652 -1.81836,4.089844 v 5.964844 c 0,2.302942 1.35292,4.43071 3.70507,5.25 a 5.029703,5.029703 0 0 0 1.6543,0.279297 h 45.01953 a 5.029703,5.029703 0 0 0 0.13281,-0.002 c 6.91365,-0.181503 12.78215,-2.62386 16.69532,-6.808593 3.91316,-4.184733 5.71093,-9.815357 5.71093,-15.628907 v -29.97456 c 0,-2.275088 0.56569,-3.742756 1.09961,-4.416016 0.53393,-0.673259 0.97501,-1.048828 2.8125,-1.048828 h 37.54688 c 1.78358,0 3.01571,-0.75401 3.89062,-1.640625 0.87492,-0.886614 1.58985,-2.08402 1.58985,-3.84375 v -5.96289 a 5.029703,5.029703 0 0 0 -0.006,-0.212891 c -0.0283,-0.670829 -0.17937,-1.331601 -0.44727,-1.947266 a 5.029703,5.029703 0 0 0 -4.61133,-3.021484 z m -2.11914,10.816406 c -0.19832,0.213926 -0.44616,0.383348 -0.62696,0.611328 -2.41482,3.044991 -3.27734,6.826105 -3.27734,10.666016 v 29.974609 c 0,3.798451 -1.09167,6.718999 -3,8.759766 -1.20988,1.293845 -2.88589,2.30332 -5.125,2.9375 0.35086,-0.340793 0.74527,-0.641229 1.04883,-1.021484 2.41927,-3.030562 3.31641,-6.815892 3.31641,-10.677735 V 41.126953 c 0,-3.512665 0.93313,-6.239055 2.53515,-8.193359 1.14401,-1.395573 2.91847,-2.371621 5.12891,-3.083985 z" id="path16"/>
            <path style="baseline-shift:baseline;display:inline;overflow:visible;vector-effect:none;stroke:none;enable-background:accumulate;stop-color:#000000;stop-opacity:1" d="M 335.361,71.101 V 41.126 c 0,-6.115 2.854,-10.494 8.941,-10.494 h 37.547 c 0.229,0 0.451,-0.228 0.451,-0.454 v -5.964 a 0.426,0.426 0 0 0 -0.035,-0.152 h -45.909 c -9.951,1.265 -14.812,8.2 -14.812,17.064 V 71.1 c 0,6.115 -2.934,10.494 -8.939,10.494 h -39.652 c -0.225,0 -0.451,0.152 -0.451,0.453 v 5.965 c 0,0.248 0.152,0.438 0.33,0.5 h 45.02 c 11.732,-0.308 17.509,-7.799 17.509,-17.411 z" id="path17"/>
        </g>
        <g id="g6" style="stroke:#ffffff;stroke-width:10.0584;stroke-linecap:round;stroke-linejoin:round;stroke-dasharray:none;stroke-opacity:1;paint-order:markers stroke fill" transform="matrix(1.511579,0,0,1.511579,-106.52936,-30.99509)">
            <path style="baseline-shift:baseline;display:inline;overflow:visible;opacity:1;vector-effect:none;fill:#ffffff;stroke:none;enable-background:accumulate;stop-color:#000000;stop-opacity:1" d="m 452.95508,31.207031 c -0.92082,0.164181 -1.78077,0.585767 -2.58985,1.230469 l 0.48829,-0.34375 -60.0879,37.179687 c -0.56906,0.339651 -1.37721,0.844655 -2.11132,2.044922 -0.73411,1.200267 -0.93822,3.120765 -0.62305,4.314453 a 5.029703,5.029703 0 0 0 0.28711,0.804688 c 1.30924,2.865149 3.91019,3.240234 5.39648,3.240234 h 60.46485 c 1.83241,0 2.99697,-0.748245 3.86133,-1.611328 0.86435,-0.863083 1.61914,-2.052023 1.61914,-3.871094 V 36.974609 c 0,-1.933858 -1.62894,-4.693176 -3.74414,-5.457031 -1.05761,-0.381927 -2.04013,-0.474728 -2.96094,-0.310547 z m -3.35352,13.488281 v 24.923829 h -40.27929 z" id="path5"/>
            <g id="path6" style="opacity:1">
                <path style="baseline-shift:baseline;display:inline;overflow:visible;vector-effect:none;fill:#ffffff;stroke:none;enable-background:accumulate;stop-color:#000000;stop-opacity:1" d="m 461.14453,19.033203 a 5.029703,5.029703 0 0 0 -1.25,0.158203 c -1.72256,0.442398 -3.43598,1.189125 -5.15234,2.220703 a 5.029703,5.029703 0 0 0 -0.0508,0.03125 l -77.65625,47.945313 a 5.029703,5.029703 0 0 0 -0.0332,0.01953 c -1.9944,1.252395 -3.63606,2.695881 -4.76367,4.6875 -1.11587,1.970883 -1.5275,4.853208 -0.43555,7.234375 0.84517,1.873421 2.51875,3.386934 4.32618,4.195313 1.82301,0.815352 3.77234,1.099609 5.95117,1.099609 h 67.44336 v 1.388672 c 0,1.422177 0.71634,3.108674 1.82812,4.097656 1.11179,0.988982 2.39448,1.384766 3.65039,1.384766 h 12.9961 c 1.21559,0 2.55552,-0.39212 3.68359,-1.41211 1.12807,-1.019989 1.79492,-2.703645 1.79492,-4.070312 V 86.625 h 8.33789 c 1.41476,0 3.11058,-0.716083 4.10352,-1.837891 0.99294,-1.121808 1.37695,-2.412478 1.37695,-3.642578 v -6.041015 c 0,-1.216895 -0.37962,-2.521123 -1.3789,-3.648438 -0.99929,-1.127315 -2.69794,-1.833984 -4.10157,-1.833984 h -8.33789 V 30.632812 c 0,-4.799921 -2.40676,-9.796701 -6.96094,-11.335937 a 5.029703,5.029703 0 0 0 -1.61132,-0.263672 z m 0.89649,10.058594 h 1.27148 c -0.0185,-0.08049 0.10547,-0.429463 0.10547,1.541015 v 43.564454 c 0,1.833303 0.75632,3.009541 1.61719,3.86914 0.0215,0.0215 0.0562,0.03529 0.0781,0.05664 -0.0207,0.02021 -0.0538,0.03238 -0.0742,0.05273 -0.86725,0.864705 -1.62109,2.060992 -1.62109,3.873047 V 83.4375 h -3.83594 v -1.539063 c 0,-1.630989 -0.67584,-2.876243 -1.61914,-3.771484 0.0202,-0.01961 0.0524,-0.03104 0.0723,-0.05078 0.86956,-0.864458 1.62695,-2.066851 1.62695,-3.878906 V 36.974609 c 0,-1.669854 -1.24585,-3.880414 -2.93945,-4.964843 l 3.20117,-1.976563 c 0.86961,-0.522656 1.53305,-0.760763 2.11719,-0.941406 z m -12.4375,15.603515 v 24.925782 h -40.28321 z m -61.61524,29.751954 c 0.008,0.419244 -0.0403,0.878303 0.0508,1.214843 a 5.029703,5.029703 0 0 0 0.26953,0.753907 c 0.0284,0.06287 0.0739,0.08988 0.10352,0.15039 h -3.85742 z" id="path18"/>
                <path style="baseline-shift:baseline;display:inline;overflow:visible;vector-effect:none;stroke:none;enable-background:accumulate;stop-color:#000000;stop-opacity:1" d="m 382.08,81.596 h 72.101 c 0.221,0 0.371,0.15 0.371,0.302 v 6.116 c 0,0.302 0.229,0.453 0.45,0.453 h 12.996 c 0.23,0 0.449,-0.151 0.449,-0.453 v -5.965 c 0,-0.227 0.23,-0.453 0.451,-0.453 h 12.916 c 0.301,0 0.451,-0.227 0.451,-0.452 v -6.041 c 0,-0.228 -0.15,-0.453 -0.451,-0.453 h -12.916 c -0.221,0 -0.451,-0.228 -0.451,-0.452 V 30.632 c 0,-3.555 -1.32,-5.819 -3.542,-6.57 h -3.76 c -1.172,0.301 -2.446,0.84 -3.812,1.661 l -77.656,47.945 c -3.005,1.887 -4.058,4 -3.306,5.586 0.601,1.36 2.324,2.342 5.709,2.342 z M 393.344,73.592 453.5,36.37 c 0.38,-0.302 1.132,-0.226 1.132,0.604 v 37.224 c 0,0.227 -0.23,0.452 -0.451,0.452 h -60.465 c -0.521,0 -0.753,-0.149 -0.822,-0.302 -0.082,-0.303 0.068,-0.529 0.45,-0.756 z" id="path19"/>
            </g>
        </g>
    </g>
</svg>
