<?xml version='1.0' encoding='utf-8'?>
<svg xmlns="http://www.w3.org/2000/svg" width="600" height="196.70903390319214" viewBox="0 0 395.2669 129.58761" version="1.1" id="svg5">
    <defs id="defs2"/>
    <g id="layer1" transform="translate(-27.335904,-38.535354)">
        <g aria-label="Quake II" id="text1838" style="font-size:10.5833px;line-height:1.25;fill:#cccccc;stroke:#666666;stroke-width:0.264583">
            <path style="font-size:105.833px;line-height:1.25;font-family:DpQuake;baseline-shift:baseline;display:inline;overflow:visible;vector-effect:none;fill:#ffffff;stroke:none;stroke-width:0.264583;stroke-linecap:round;stroke-linejoin:round;paint-order:markers stroke fill;enable-background:accumulate;stop-color:#000000" d="m 94.506278,38.833669 a 5.0005,5.0005 0 0 0 -4.103516,9.08789 c 11.461758,6.264938 18.762658,19.945722 16.992188,32.84961 a 5.0005,5.0005 0 0 0 -0.0273,0.24414 c -1.08962,12.446754 -10.791058,24.039031 -22.820352,27.195311 0.02737,-1.98872 -0.05537,-3.95031 -0.02734,-5.24609 0.02412,-1.11537 0.163294,-1.71969 0.355469,-2.19141 0.162354,-0.08 0.357684,-0.16804 0.515625,-0.25 0.291926,-0.15149 0.575269,-0.29882 0.96875,-0.560545 0.39348,-0.261729 1.017259,-0.257207 1.953125,-2.183594 0.467932,-0.963193 0.736105,-2.997523 -0.02734,-4.511719 -0.763449,-1.514196 -1.833182,-2.067529 -2.451172,-2.351562 -1.23598,-0.568067 -1.641225,-0.479031 -2.068359,-0.513672 -0.85427,-0.06928 -1.483803,-0.039 -2.388672,-0.0059 l 0.18164,-0.0039 H 64.650821 a 5.0005,5.0005 0 0 0 -0.517578,9.974612 c 0.719145,0.0748 -0.209269,-0.629415 0.0078,0.13281 0.217081,0.76222 0.264197,2.71191 0.171875,4.61914 a 5.0005,5.0005 0 0 0 -0.0059,0.24219 v 2.88867 C 58.423204,106.4644 53.103126,103.14363 49.433971,98.429338 A 5.0005,5.0005 0 0 0 49.236706,98.191056 C 38.575145,86.115486 39.463068,64.879435 51.201549,53.81215 a 5.0005,5.0005 0 0 0 0.587891,-0.664063 c -0.186042,0.251295 1.890613,-1.673121 3.601563,-2.902343 0.855474,-0.614612 1.658735,-1.171879 2.318359,-1.654297 0.329812,-0.24121 0.585372,-0.415275 1.015625,-0.800782 0.215126,-0.192753 0.443336,-0.165249 1.140625,-1.398437 0.348644,-0.616594 1.341225,-2.230064 0.152344,-4.679687 -0.594441,-1.224812 -1.724963,-2.073968 -2.535157,-2.421875 -0.810193,-0.347908 -1.367042,-0.386087 -1.769531,-0.404297 a 5.0005,5.0005 0 0 0 -2.222656,0.412109 c -17.24437,7.511486 -25.796478,26.221846 -26.099609,43.509766 -0.821492,16.585065 7.603865,32.536586 21.199218,41.710936 4.699627,3.28447 10.051115,5.56691 15.667969,6.74805 -0.12863,4.0004 -0.277655,8.45841 1.576172,13.45703 l -0.179688,-0.59375 c 1.568994,6.67287 3.079162,13.37642 4.595704,20.0957 a 5.0005,5.0005 0 0 0 9.841796,-0.50586 c 0.986804,-8.23525 3.080635,-16.67812 4.423829,-25.57226 a 5.0005,5.0005 0 0 0 0.05664,-0.7461 v -6.19723 C 106.6901,126.65549 123.06988,105.27271 121.91058,82.700856 121.46626,65.504668 113.18674,46.200128 95.3012,39.214528 c -0.03564,-0.01961 -0.06586,-0.04689 -0.101563,-0.06641 l -0.0059,0.01367 c -0.241987,-0.09359 -0.441989,-0.239097 -0.6875,-0.328125 z m -50.164063,7.703124 c -0.15783,0.148807 -0.263034,0.335277 -0.417968,0.486328 -0.05554,0.07231 -0.116671,0.101214 -0.171875,0.175782 z m 72.988285,35.34961 -0.0273,0.244141 c 0.006,-0.04311 0.002,-0.0858 0.008,-0.128907 0.003,-0.03905 0.0161,-0.07617 0.0195,-0.115234 z M 74.14495,100.39226 h 0.699219 c -0.106783,0.79716 -0.306998,1.64948 -0.322266,2.35547 -0.0571,2.64021 0.175711,4.81618 0.06641,6.1543 a 5.0005,5.0005 0 0 0 0.04297,1.17578 c -0.05239,-0.33653 -0.0052,0.15915 -0.04883,0.82422 -0.04358,0.66506 -0.153233,1.51337 -0.0332,2.77539 0.06001,0.631 0.161091,1.40278 0.632812,2.40234 0.471721,0.99956 1.542106,2.28533 2.986328,2.90039 2.376129,1.01193 4.034165,0.37999 5.40625,-0.32031 6.008587,-0.93474 11.516588,-3.32714 16.308593,-6.73242 -5.703055,5.57082 -12.895765,9.49741 -20.777343,10.23632 a 5.0005,5.0005 0 0 0 -4.533203,4.97852 v 9.82617 c -0.02336,0.15218 -0.06006,0.31248 -0.08398,0.46485 -0.248395,-2.97145 -0.0348,-6.46903 -0.185547,-10.58008 a 5.0005,5.0005 0 0 0 -4.517578,-4.79297 c -5.515765,-0.53097 -10.929897,-2.55706 -15.494141,-5.75391 a 5.0005,5.0005 0 0 0 -0.07617,-0.0527 c -2.278419,-1.53408 -4.33423,-3.36987 -6.222656,-5.36328 6.007743,4.68775 13.258395,7.55425 20.673828,8.51172 a 5.0005,5.0005 0 0 0 5.640625,-4.95898 v -9.04883 -0.0332 c 0.06881,-1.32878 0.0496,-3.06472 -0.162109,-4.96875 z m -32.603516,4.17773 c 0.0325,0.0418 0.07671,0.0697 0.109375,0.11133 0.0346,0.0395 0.05506,0.0876 0.08984,0.12696 z m 38.357422,4.83789 c 0.01374,-0.003 0.05975,0.0143 0.07422,0.0117 a 5.0005,5.0005 0 0 0 -0.367188,0.12305 c -0.203489,0.11456 -0.11283,-0.0523 0.292969,-0.13476 z" id="path5"/>
            <g id="path5442" style="opacity:1">
                <path style="font-size:105.833px;font-family:DpQuake;baseline-shift:baseline;display:inline;overflow:visible;vector-effect:none;fill:#217844;stroke:none;stroke-linecap:round;stroke-linejoin:round;paint-order:markers stroke fill;enable-background:accumulate;stop-color:#000000;stop-opacity:1" d="m 92.489161,43.944086 q 9.207469,5.29165 14.499119,14.075789 5.29165,8.678306 5.29165,19.155773 0,15.345785 -9.9483,26.140752 -7.090811,7.61998 -15.663284,9.84247 -2.010827,0.52916 -7.40831,1.69333 v -10.9008 q 0,-2.2225 0.317499,-3.91582 0.634998,-3.38666 4.550819,-4.021658 0.105833,-0.211666 -0.634998,-0.211666 H 64.337583 q 0.317499,0 0.529165,0.211666 3.280823,0.529165 4.021654,4.021658 0.105833,2.11666 0.105833,3.80998 v 11.00664 q -2.434159,-0.10584 -6.984978,-1.69333 -8.784139,-2.11666 -15.980783,-10.2658 -6.984978,-7.831645 -8.784139,-16.933283 -0.846664,-4.339153 -0.846664,-8.784139 0,-12.170795 6.879145,-21.695765 5.079984,-6.984978 12.805793,-11.535797 -7.302477,2.645825 -13.123292,9.52497 -5.397483,6.244147 -8.043308,14.075789 -2.857491,8.254974 -2.857491,16.93328 0,20.743265 16.086616,34.078225 9.313304,7.72581 20.849101,8.88997 v 11.11247 q 0.529165,1.48166 5.820815,24.97659 1.587495,-11.2183 3.492489,-20.00244 0.952497,-4.44499 0.952497,-5.07998 v -10.9008 q 11.853296,-1.27 21.378264,-9.10164 9.20747,-7.61998 13.44079,-19.049942 2.54,-6.773312 2.54,-14.922453 0,-9.313304 -3.28083,-18.203276 -6.34998,-16.827447 -20.849099,-22.330763 z" id="path7"/>
            </g>
            <g id="path5454" style="opacity:1">
                <path style="font-size:105.833px;font-family:DpQuake;baseline-shift:baseline;display:inline;overflow:visible;vector-effect:none;fill:#ffffff;stroke:none;stroke-linecap:round;stroke-linejoin:round;paint-order:markers stroke fill;enable-background:accumulate;stop-color:#000000;stop-opacity:1" d="m 362.68164,53.443359 a 5.0005,5.0005 0 0 0 -1.06641,9.884766 c 0.9794,0.213686 1.08978,0.378092 1.31055,0.699219 0.22078,0.321127 0.57617,1.157951 0.57617,2.882812 a 5.0005,5.0005 0 0 0 0,0.0078 l 0.10352,66.675784 c -0.89375,1.79702 -1.76202,3.43721 -2.33789,4.25391 -0.69431,0.98465 -1.31183,0.87118 0.14453,0.45507 a 5.0005,5.0005 0 0 0 1.375,9.80664 h 23.91797 a 5.0005,5.0005 0 0 0 3.44531,-1.83203 5.0005,5.0005 0 0 0 3.53906,1.83203 h 23.91797 a 5.0005,5.0005 0 0 0 1.04883,-9.88867 c -1.02955,-0.22061 -1.17204,-0.40983 -1.39648,-0.73047 -0.22445,-0.32063 -0.57813,-1.13505 -0.57813,-2.84765 V 67.962891 c 0.89475,-1.799445 1.76345,-3.440382 2.33984,-4.257813 0.69431,-0.984651 1.30988,-0.871183 -0.14648,-0.455078 a 5.0005,5.0005 0 0 0 -1.37305,-9.806641 h -23.91797 a 5.0005,5.0005 0 0 0 -3.44921,1.832032 5.0005,5.0005 0 0 0 -3.53516,-1.832032 z m 27.40039,7.81836 a 5.0005,5.0005 0 0 0 2.43555,2.066406 c 0.97939,0.213686 1.09172,0.378092 1.3125,0.699219 0.22077,0.321127 0.57422,1.157951 0.57422,2.882812 a 5.0005,5.0005 0 0 0 0,0.0078 l 0.10351,66.677734 c -0.89317,1.79564 -1.76231,3.43568 -2.33789,4.25196 -0.6943,0.98465 -1.30987,0.87118 0.14649,0.45507 a 5.0005,5.0005 0 0 0 -2.10743,1.98633 5.0005,5.0005 0 0 0 -2.45703,-2.06836 c -1.02954,-0.22061 -1.17204,-0.40983 -1.39648,-0.73047 -0.22444,-0.32063 -0.57813,-1.13505 -0.57813,-2.84765 V 67.962891 c 0.89478,-1.799534 1.76539,-3.440356 2.3418,-4.257813 0.6943,-0.984651 1.30988,-0.871183 -0.14648,-0.455078 a 5.0005,5.0005 0 0 0 2.10937,-1.988281 z m -16.98437,2.18164 h 3.7832 c -0.21018,0.425635 -0.40787,0.663476 -0.62305,1.119141 a 5.0005,5.0005 0 0 0 -0.48047,2.134766 v 67.945314 c 0,1.18579 0.19729,2.33043 0.41211,3.46679 h -3.68359 c 0.21016,-0.42558 0.4079,-0.66353 0.62305,-1.11914 a 5.0005,5.0005 0 0 0 0.47851,-2.14257 l -0.10547,-67.937504 c 0,-1.18677 -0.19255,-2.33114 -0.40429,-3.466797 z m 30.90429,0 h 3.78125 c -0.21016,0.425585 -0.4079,0.663534 -0.62304,1.119141 a 5.0005,5.0005 0 0 0 -0.47852,2.134766 v 67.945314 c 0,1.18585 0.19726,2.33038 0.41211,3.46679 h -3.68555 c 0.21016,-0.42558 0.4079,-0.66353 0.62305,-1.11914 a 5.0005,5.0005 0 0 0 0.47852,-2.14257 L 404.4043,66.910156 c 0,-1.186753 -0.19061,-2.331155 -0.40235,-3.466797 z m -118.5664,9.72461 a 5.0005,5.0005 0 0 0 -4.58985,1.201172 l -26.4082,24.667968 a 5.0005,5.0005 0 0 0 -0.4082,-0.378906 c -1.04991,-0.335075 -1.42228,-0.661096 -1.49414,-0.728516 V 85.390625 c 0.1381,-0.435927 0.30988,-0.903717 0.28125,-0.865234 -0.0127,0.01711 -0.19418,0.09988 -0.28125,0.164062 -0.18349,0.135244 -0.3652,0.296135 -0.59375,0.34375 a 5.0005,5.0005 0 0 0 -1.01954,-9.894531 h -13.33593 a 5.0005,5.0005 0 0 0 -1.65625,9.40039 c -0.19472,-0.284752 -0.0625,-0.294013 -0.0625,0.363282 l -0.10352,37.287106 c -0.0803,0.42864 -0.19938,0.74198 -0.12109,0.63086 0.0967,-0.13722 0.52775,-0.41171 0.58203,-0.42578 a 5.0005,5.0005 0 0 0 1.25586,9.83984 h 13.33398 a 5.0005,5.0005 0 0 0 1.63086,-9.41015 c -0.008,-0.066 -0.0176,-0.0764 -0.0176,-0.24609 v -12.80665 c 0,-0.96388 0.17559,-1.10913 0.17579,-1.10937 1.9e-4,-2.4e-4 0.0469,-0.16261 0.92578,-0.3457 a 5.0005,5.0005 0 0 0 1.38867,-1.04102 5.0005,5.0005 0 0 0 1.95703,1.30664 l -1.44922,-0.25976 c 14.01867,5.19941 19.87822,11.85085 20.56641,21.08398 a 5.0005,5.0005 0 0 0 9.94726,0.24805 c 0.16655,-1.33243 0.25,-2.6706 0.25,-4.00782 0,-8.41506 -2.51248,-15.94469 -7.58984,-21.70703 -1.3961,-1.60022 -2.93571,-3.01265 -4.58984,-4.232419 4.57636,-5.959856 9.18716,-11.981359 13.98242,-18.335937 a 5.0005,5.0005 0 0 0 3.15234,3.193359 c -0.41351,-0.137838 -0.19289,-0.09626 0.17969,1.107422 v 27.380855 c 0,5.44579 2.96911,10.46697 7.54883,14.00977 a 5.0005,5.0005 0 0 0 0.0469,0.0352 c 4.11258,3.10542 8.85601,4.90835 13.80078,5.11718 0.0217,0.001 0.0408,0.0125 0.0625,0.0137 v -0.006 c 0.0283,0.001 0.0557,0.009 0.084,0.01 a 5.0005,5.0005 0 0 0 2.71875,-1.45312 5.0005,5.0005 0 0 0 2.96289,1.66797 c 0.11458,0 0.26529,-0.0453 0.38086,-0.0469 l 0.002,0.0312 c 0.19774,-0.0152 0.37891,-0.0792 0.57422,-0.10156 2.10502,-0.0727 4.29609,-0.30113 6.8457,-0.83789 2.55997,-0.53894 4.43725,-0.73828 4.47266,-0.73828 0.53581,0 -0.22695,-0.17525 -0.4336,-0.45704 a 5.0005,5.0005 0 0 0 9.03321,-2.95703 v -15.45117 a 5.0005,5.0005 0 0 0 -9.45313,-2.27344 c -4.76047,9.3226 -9.1723,12.64307 -11.80664,12.84571 a 5.0005,5.0005 0 0 0 -2.23437,1.49414 5.0005,5.0005 0 0 0 -2.6211,-1.71289 c -0.0884,-0.005 -0.14609,-0.0252 -0.23047,-0.0312 -0.50514,-0.0231 -0.97267,-0.21145 -1.46289,-0.28711 -1.03474,-0.36777 -1.7742,-1.3283 -2.63867,-3.18945 -0.4704,-2.97483 -0.77344,-5.51346 -0.77344,-5.68165 v -3.82617 c 0.91569,-0.332 2.39237,-0.71315 4.82618,-0.80859 a 5.0005,5.0005 0 0 0 -0.002,-9.992189 c -2.23451,-0.08706 -3.66814,-0.19918 -4.82422,-0.308594 V 85.113281 c 0,-0.794221 0.14288,-0.917598 0.043,-0.759765 a 5.0005,5.0005 0 0 0 2.96289,-2.613282 5.0005,5.0005 0 0 0 3.57422,2.976563 c 4.27209,0.884932 7.11585,2.376238 8.95703,4.193359 1.84119,1.817122 2.91671,4.037472 3.27735,7.421875 a 5.0005,5.0005 0 0 0 9.9707,-0.5625 l -0.10547,-15.980469 a 5.0005,5.0005 0 0 0 -5,-4.966796 h -16.08594 a 5.0005,5.0005 0 0 0 -4.53125,5.96875 5.0005,5.0005 0 0 0 -4.57031,-5.96875 h -13.9707 a 5.0005,5.0005 0 0 0 -3.82617,1.945312 5.0005,5.0005 0 0 0 -3.46289,-3.599609 z m -162.14844,0.490234 a 5.0005,5.0005 0 0 0 -1.5,9.6875 c -0.0382,0.03452 -0.0616,0.182173 0.0332,0.921875 l -0.041,-0.636719 v 27.093751 c 0,5.53621 2.34108,10.79824 6.35937,14.99023 9.9e-4,0.001 0.003,9.2e-4 0.004,0.002 10e-4,10e-4 9.5e-4,0.003 0.002,0.004 3.99258,4.1746 9.67751,6.28291 15.9707,6.49024 0.0317,0.002 0.0601,0.016 0.0918,0.0176 v -0.008 c 0.0401,0.001 0.077,0.0107 0.11719,0.0117 a 5.0005,5.0005 0 0 0 2.45898,-1.33789 5.0005,5.0005 0 0 0 2.22071,1.23242 c 0.0211,-4.5e-4 0.0395,-0.007 0.0605,-0.008 v 0.008 c 0.0324,-0.001 0.0614,-0.0163 0.0937,-0.0176 3.83217,-0.0999 7.38755,-0.84003 10.4961,-2.4414 a 5.0005,5.0005 0 0 0 0.0508,-0.0254 c 1.75051,-0.92675 3.37498,-2.1847 5.10937,-3.75781 4.30796,-3.77875 6.65235,-9.2815 6.65235,-15.16016 V 84.091797 c 0.0896,-0.412179 0.21105,-0.732678 0.15429,-0.660156 a 5.0005,5.0005 0 0 0 -1.3457,-9.667969 h -14.60352 a 5.0005,5.0005 0 0 0 -1.4375,9.789062 c 0.33195,0.09958 0.15356,0.01293 0.2461,0.0625 a 5.0005,5.0005 0 0 0 0,0.01563 v 31.539066 c 0,1.61666 -0.30515,2.51021 -0.3711,2.63477 a 5.0005,5.0005 0 0 0 -0.0801,0.16015 c -1.64442,3.39494 -2.80972,4.08312 -5.29688,4.16602 a 5.0005,5.0005 0 0 0 -2.1289,1.33789 5.0005,5.0005 0 0 0 -1.9043,-1.22852 c -0.19654,-0.01 -0.34096,-0.0563 -0.52344,-0.0742 -0.53392,-0.0239 -0.87187,-0.18054 -1.35547,-0.23633 -1.39823,-0.43327 -2.40748,-1.52698 -3.54883,-3.67188 -0.27446,-0.84363 -0.50781,-1.98762 -0.50781,-3.61718 V 83.736328 a 5.0005,5.0005 0 0 0 -0.008,-0.125 c 0.05,-0.03303 -0.023,-0.03073 0.53906,-0.222656 a 5.0005,5.0005 0 0 0 -1.61523,-9.730469 z m 80.68164,0.953125 a 5.0005,5.0005 0 0 0 -4.58789,3.177734 l -3.57813,9.152344 c -0.6385,1.489597 -1.91635,4.462215 -3.87109,9 a 5.0005,5.0005 0 0 0 -0.0684,0.166016 c -0.31898,0.820233 -2.08556,4.834738 -4.9707,11.167968 -1.92725,4.12846 -3.50137,7.34033 -4.69531,9.59961 -2.3507,4.16382 -4.78782,6.08945 -4.0918,5.7832 a 5.0005,5.0005 0 0 0 2.01367,9.57617 h 9.52539 a 5.0005,5.0005 0 0 0 2.56641,-8.58398 c 0.75926,-2.50855 1.65869,-4.62365 2.65039,-6.41406 0.14703,-0.12753 0.63494,-0.45313 2.7207,-0.45313 a 5.0005,5.0005 0 0 0 3.57227,-2.02929 5.0005,5.0005 0 0 0 3.9414,2.02929 h 0.56055 c 0.94072,0.0523 1.53487,0.12526 2,0.19141 0.42786,0.1747 1.17409,0.70028 2.11719,3.0332 a 5.0005,5.0005 0 0 0 0.0215,0.0547 l 1.52539,3.64648 a 5.0005,5.0005 0 0 0 2.5586,8.52539 h 13.9707 a 5.0005,5.0005 0 0 0 2.17773,-9.49999 c -0.66291,-0.32077 -2.00392,-1.54335 -3.34961,-4.46875 a 5.0005,5.0005 0 0 0 -0.008,-0.0176 c -3.24979,-6.99411 -5.9372,-12.72027 -8.06445,-17.1875 l 0.082,0.17968 c -0.30202,-0.7047 -0.8843,-1.911463 -1.70117,-3.605464 a 5.0005,5.0005 0 0 0 0.0176,-0.179688 l -8.36133,-19.791016 a 5.0005,5.0005 0 0 0 -4.67383,-3.052734 z M 307.9043,98.808594 c 0.0549,0.04164 0.1039,0.09425 0.16211,0.142578 -0.0278,0.0049 -0.0601,0.0048 -0.0879,0.0098 a 5.0005,5.0005 0 0 0 -0.0742,-0.152343 z m -106.35938,3.531246 c 0.56026,1.34928 1.18675,2.84612 2,4.76368 a 5.0005,5.0005 0 0 0 -2.08398,2.00781 5.0005,5.0005 0 0 0 -2.15235,-1.38672 l 1.63282,-4 a 5.0005,5.0005 0 0 0 0.0781,-0.20898 c 0.0415,-0.11623 0.41978,-0.92205 0.52539,-1.17579 z m -38.51562,19.98438 -0.082,0.1582 c 0.0114,-0.0215 0.0122,-0.0449 0.0234,-0.0664 0.0163,-0.0332 0.0425,-0.0585 0.0586,-0.0918 z m 27.53711,0.008 c -0.006,10e-4 0.39332,0.10036 0.78711,0.49414 0.0981,0.0981 0.0705,0.1466 0.14257,0.25391 a 5.0005,5.0005 0 0 0 -0.93164,-0.74414 c 8e-4,-10e-4 0.001,-0.002 0.002,-0.004 z" id="path8"/>
                <path style="font-size:105.833px;font-family:DpQuake;baseline-shift:baseline;display:inline;overflow:visible;vector-effect:none;fill:#217844;stroke:none;stroke-linecap:round;stroke-linejoin:round;paint-order:markers stroke fill;enable-background:accumulate;stop-color:#000000;stop-opacity:1" d="m 411.68135,66.698232 q 3.59833,-7.619976 5.82082,-8.254974 h -23.91826 q 5.82082,1.269996 5.82082,8.46664 l 0.10583,67.944792 q -3.59832,7.61998 -5.82082,8.25498 H 417.608 q -5.92665,-1.27 -5.92665,-8.46664 z m -30.90322,0 q 3.59832,-7.619976 5.82081,-8.254974 h -23.91826 q 5.82082,1.269996 5.82082,8.46664 l 0.10583,67.944792 q -3.59832,7.61998 -5.82081,8.25498 h 23.91825 q -5.92664,-1.27 -5.92664,-8.46664 z m -75.98799,38.523158 q -1.5875,1.37583 -1.5875,3.70416 v 4.12749 q 0,1.69332 0.9525,7.30247 2.85749,6.56165 8.88997,6.87915 -5.92665,-0.21167 -11.11246,-4.12749 -5.60915,-4.33915 -5.60915,-10.05413 V 84.901457 q -1.05833,-4.23332 -3.59832,-5.079984 h 13.96995 q -3.49249,0.846664 -3.49249,5.29165 v 13.440791 q 0,2.751656 1.48166,3.915826 0,0.63499 8.14915,0.95249 -5.39749,0.21167 -8.04331,1.79916 z m 13.75829,22.22493 q 8.25497,-0.63499 15.87495,-15.55745 v 15.45162 q -1.16417,-1.58749 -3.59832,-1.58749 -1.48167,0 -5.50332,0.84666 -4.02165,0.84666 -6.77331,0.84666 z m -2.75166,-47.624847 h 16.08662 l 0.10583,15.980783 Q 330.61339,82.89063 315.79677,79.821473 Z m -68.36809,42.756537 q 0,3.91582 3.38666,4.65665 h -13.33496 q 2.85749,-0.74083 3.28083,-4.65665 l 0.10583,-37.676553 q 0,-4.021654 -3.28082,-4.762485 h 13.33495 q -2.53999,0.529165 -3.38665,4.550819 v 13.334958 q 0,3.809991 4.97415,5.397481 -5.07999,1.05833 -5.07999,6.34998 z m 19.15578,-21.37827 q 8.57247,-11.112466 17.67411,-23.177428 l -27.30492,25.505758 h 0.10584 l -0.10584,0.10583 h 0.21167 q 22.54243,8.36081 23.81243,25.39992 0.21166,-1.69333 0.21166,-3.38666 0,-11.2183 -6.34998,-18.41494 -3.59832,-4.12749 -8.25497,-6.03248 z m -52.70489,26.03492 h 13.96995 q -3.28082,-1.5875 -5.71498,-6.87915 -4.86832,-10.47746 -8.04331,-17.14494 -0.3175,-0.74083 -1.79916,-3.809992 h 0.10583 l -8.3608,-19.790771 -3.59832,9.207471 q -0.9525,2.222493 -3.91583,9.101638 -0.74083,1.904994 -5.07998,11.429964 -2.96332,6.34998 -4.86832,9.9483 -3.80999,6.77331 -6.45581,7.93748 h 9.52497 q -2.32833,-0.42333 -2.64583,-2.64583 l 0.3175,-2.11666 q 1.37583,-4.65665 3.38666,-8.14914 1.90499,-2.53999 6.87914,-2.53999 -3.80998,-0.21167 -3.80998,-2.96332 0,-0.74084 0.42333,-1.79917 l 2.11666,-5.18581 q 0.52916,-1.48166 2.53999,-5.714985 2.11666,-4.23332 3.06916,-3.704155 1.16416,0.634998 3.28082,5.714982 1.16416,2.857488 3.59832,8.572478 0.42333,1.16416 0.42333,1.79916 0,2.01082 -3.06915,2.96332 l -1.05833,0.3175 q 0.21166,0 0.74083,0 2.01083,0.10583 3.17499,0.3175 3.38665,1.05833 5.39748,6.03248 l 2.43416,5.82081 q 0.3175,3.06916 -2.96332,3.28083 z m -87.10058,-16.50995 q 0,6.34998 4.97415,11.5358 4.55082,4.76248 12.69996,4.97415 -6.45581,-0.3175 -9.84247,-6.98498 -0.84666,-2.32833 -0.84666,-5.60915 V 83.737294 q -0.42333,-3.598322 3.91582,-5.079984 H 123.2865 q 2.96333,0.846664 3.49249,4.974151 z m 39.68738,0 q 0,7.09081 -4.97416,11.42996 -2.32832,2.11666 -4.12748,3.06916 -3.49249,1.79916 -8.46664,1.90499 6.34998,-0.21166 9.6308,-6.98497 0.9525,-1.79916 0.9525,-4.97415 V 83.631461 q 0.42333,-3.598322 -3.80999,-4.868318 h 14.60495 q -3.28082,0.740831 -3.80998,4.868318 z" id="path9"/>
            </g>
        </g>
    </g>
</svg>
