<?xml version='1.0' encoding='utf-8'?>
<svg xmlns="http://www.w3.org/2000/svg" width="600" height="102.30517711007933" viewBox="0 0 1997.0292 340.51071" version="1.1" id="svg1" xml:space="preserve">
    <defs id="defs1">
        <rect x="-625.03369" y="-473.92667" width="4691.187" height="2386.8047" id="rect2"/>
    </defs>
    <g id="g12" style="fill:#cbcbca;fill-opacity:1;stroke:none">
        <text xml:space="preserve" style="font-style:italic;font-weight:bold;font-size:106.667px;line-height:0;font-family:Arial;text-align:start;letter-spacing:0px;word-spacing:0px;writing-mode:lr-tb;direction:ltr;text-anchor:start;display:none;fill:#cbcbca;fill-opacity:1;stroke-width:0;stroke-linecap:square;stroke-linejoin:round;stroke-miterlimit:0.5;paint-order:fill markers stroke;stroke:none" x="42.854118" y="1285.6261" id="text1" transform="matrix(0.26458333,0,0,0.26458333,0,-0.00281)">
            <tspan id="tspan1" x="42.854118" y="1285.6261">A          C          C          E          S         S          O           R         Y</tspan>
        </text>
        <path d="M 97.229288,1268.751 H 66.968777 l -9.166695,16.8751 H 41.656198 l 43.177218,-76.3544 h 17.447974 l 12.39587,76.3544 H 99.781379 Z m -1.927089,-12.7083 -4.427097,-30.7293 -18.437558,30.7293 z m 376.667831,2.0833 15.83338,2.3959 q -4.63543,12.8646 -13.90629,19.6875 -9.27087,6.7709 -21.71882,6.7709 -14.01046,0 -21.92715,-8.4376 -7.86461,-8.4375 -7.86461,-24.4792 0,-13.0209 5.26043,-23.8022 5.31252,-10.8333 14.68755,-16.5625 9.37503,-5.7292 20.41673,-5.7292 12.39587,0 20.05214,6.6667 7.65628,6.6146 9.01045,18.073 l -15.05213,1.4583 q -1.25,-6.6667 -4.84377,-9.6354 -3.54167,-3.0209 -9.47919,-3.0209 -6.51044,0 -12.18754,3.9584 -5.62502,3.9583 -9.01045,12.3958 -3.38542,8.3855 -3.38542,16.7709 0,9.1667 4.37501,14.1667 4.4271,5 10.98962,5 6.09377,0 11.14587,-3.9583 5.10418,-3.9583 7.60419,-11.7188 z m 373.38659,0 15.83339,2.3959 q -4.63543,12.8646 -13.9063,19.6875 -9.27086,6.7709 -21.71881,6.7709 -14.01046,0 -21.92716,-8.4376 -7.8646,-8.4375 -7.8646,-24.4792 0,-13.0209 5.26043,-23.8022 5.31252,-10.8333 14.68754,-16.5625 9.37503,-5.7292 20.41674,-5.7292 12.39587,0 20.05214,6.6667 7.65628,6.6146 9.01045,18.073 l -15.05213,1.4583 q -1.25001,-6.6667 -4.84377,-9.6354 -3.54168,-3.0209 -9.4792,-3.0209 -6.51043,0 -12.18753,3.9584 -5.62502,3.9583 -9.01045,12.3958 -3.38543,8.3855 -3.38543,16.7709 0,9.1667 4.37502,14.1667 4.4271,5 10.98962,5 6.09376,0 11.14586,-3.9583 5.10419,-3.9583 7.60419,-11.7188 z m 318.07388,27.5001 15.9376,-76.3544 h 56.6148 l -2.6563,12.7605 h -40.8855 l -3.6459,17.3438 h 39.5314 l -2.6563,12.7604 h -39.5313 l -4.7917,20.7292 h 44.4272 l -2.7083,12.7605 z m 369.897,-24.7397 14.948,-0.7812 q 0.3125,7.1354 2.4479,9.6354 3.4375,4.0625 12.7083,4.0625 7.7084,0 11.1459,-2.7604 3.4375,-2.7604 3.4375,-6.6667 0,-3.3854 -2.8125,-5.7292 -1.9792,-1.7187 -10.8854,-5.5729 -8.8542,-3.8542 -12.9688,-6.4063 -4.0625,-2.6041 -6.4063,-6.7187 -2.3438,-4.1146 -2.3438,-9.6355 0,-9.6354 6.9792,-15.9896 6.9792,-6.3542 20.2084,-6.3542 13.4376,0 20.7813,6.3021 7.3959,6.3021 8.1251,16.7709 l -15.0522,0.6771 q -0.5729,-5.4688 -3.9583,-8.3855 -3.3854,-2.9166 -10,-2.9166 -6.5105,0 -9.323,2.2916 -2.7604,2.2917 -2.7604,5.7813 0,3.2813 2.5521,5.4167 2.5521,2.1875 11.3021,5.9896 13.1771,5.6771 16.7709,9.2188 5.3646,5.2083 5.3646,13.3854 0,10.1042 -8.0209,17.2917 -7.9687,7.1355 -22.2396,7.1355 -9.8438,0 -17.0834,-3.2813 -7.1875,-3.3333 -10.1563,-9.2188 -2.9687,-5.8854 -2.7604,-13.5417 z m 337.8657,0 14.948,-0.7812 q 0.3125,7.1354 2.4479,9.6354 3.4375,4.0625 12.7084,4.0625 7.7083,0 11.1458,-2.7604 3.4375,-2.7604 3.4375,-6.6667 0,-3.3854 -2.8125,-5.7292 -1.9791,-1.7187 -10.8854,-5.5729 -8.8542,-3.8542 -12.9688,-6.4063 -4.0625,-2.6041 -6.4063,-6.7187 -2.3437,-4.1146 -2.3437,-9.6355 0,-9.6354 6.9792,-15.9896 6.9791,-6.3542 20.2084,-6.3542 13.4375,0 20.7813,6.3021 7.3958,6.3021 8.125,16.7709 l -15.0521,0.6771 q -0.573,-5.4688 -3.9584,-8.3855 -3.3854,-2.9166 -10,-2.9166 -6.5104,0 -9.323,2.2916 -2.7604,2.2917 -2.7604,5.7813 0,3.2813 2.5521,5.4167 2.5521,2.1875 11.3021,5.9896 13.1772,5.6771 16.7709,9.2188 5.3646,5.2083 5.3646,13.3854 0,10.1042 -8.0208,17.2917 -7.9688,7.1355 -22.2397,7.1355 -9.8438,0 -17.0834,-3.2813 -7.1875,-3.3333 -10.1563,-9.2188 -2.9687,-5.8854 -2.7604,-13.5417 z m 370.0532,-5.2083 q 0,-6.7709 2.0313,-14.2709 2.6562,-10.0521 8.0729,-17.448 5.4688,-7.3958 13.75,-11.6667 8.2813,-4.3229 18.8543,-4.3229 14.1667,0 22.8646,8.8021 8.75,8.8021 8.75,23.3334 0,12.0834 -5.6771,23.3855 -5.6771,11.3021 -15.4167,17.3959 -9.7396,6.0938 -22.0313,6.0938 -10.6771,0 -17.9167,-4.8438 -7.2396,-4.8438 -10.2605,-11.9792 -3.0208,-7.1875 -3.0208,-14.4792 z m 15.5209,-0.3125 q 0,7.8646 4.7917,13.1771 4.7916,5.3125 12.6042,5.3125 6.3542,0 12.1875,-4.1667 5.8854,-4.2187 9.6875,-12.7083 3.8542,-8.5417 3.8542,-16.6147 0,-9.0104 -4.8437,-14.1146 -4.8438,-5.1563 -12.3438,-5.1563 -11.5105,0 -18.7501,10.7292 -7.1875,10.7292 -7.1875,23.5418 z m 404.5326,30.2605 h -15.7292 l 15.9896,-76.3544 h 33.9064 q 8.75,0 13.5938,1.8229 4.8958,1.7709 7.8646,6.5625 3.0208,4.7917 3.0208,11.6147 0,9.7396 -5.8333,16.0938 -5.8334,6.3021 -17.6563,7.8125 3.0208,2.7083 5.6771,7.1354 5.2604,8.9584 11.7187,25.3126 h -16.875 q -2.0313,-6.4584 -7.9688,-20.1563 -3.2292,-7.3959 -6.875,-9.948 -2.2396,-1.5104 -7.8125,-1.5104 h -6.4063 z m 9.0104,-43.0731 h 8.3334 q 12.6563,0 16.7709,-1.5104 4.1667,-1.5104 6.5104,-4.7396 2.3438,-3.2291 2.3438,-6.7708 0,-4.1667 -3.3854,-6.25 -2.0834,-1.25 -9.0105,-1.25 h -17.2917 z m 355.1574,43.0731 h -15.6771 l 6.1979,-29.7397 -21.0417,-46.6147 h 16.7188 l 9.4792,21.5626 q 3.3854,7.7604 4.5312,11.1979 1.9271,-3.3854 4.4792,-7.1875 l 7.2396,-10.1042 10.7813,-15.4688 h 18.2292 l -35.0001,48.0731 z" id="text12" style="font-style:italic;font-weight:bold;font-size:106.667px;line-height:0;font-family:Arial;letter-spacing:0px;word-spacing:0px;fill:#cbcbca;stroke-width:0;stroke-linecap:square;stroke-linejoin:round;stroke-miterlimit:0.5;paint-order:fill markers stroke;fill-opacity:1;stroke:none" transform="matrix(0.26458333,0,0,0.26458333,0,-0.00281)" aria-label="A          C          C          E          S         S          O           R         Y"/>
    </g>
    <g id="g6" transform="matrix(0.26458333,0,0,0.26458333,0,-0.00281)" style="fill:#cbcbca;fill-opacity:1">
        <path class="st4" d="M 163.6,634.6 C 55.9,701.3 4,803.1 17.8,941.4 c 16,160.4 223.8,261.5 399.8,159.7 15.4,-8.9 9.4,-7.5 15.1,-12.6 L 467.9,864.8 H 258 l -16.1,103 h 87.7 l -10,55.4 c -50.2,20.2 -135.7,12.6 -172.3,-52.8 -23.1,-41.4 -44.5,-133.8 52.8,-218.8 79.2,-69.2 216.2,-81.7 295.4,-45.2 0,0 10,-57.9 17.6,-112 -152,-52.8 -270.3,-8.8 -349.5,40.2" id="path5" style="fill:#cbcbca;fill-opacity:1"/>
        <path class="st4" d="m 711.2,864.7 -20.7,-107 -47.8,106.9 68.5,0.1 m 749.9,271.5 H 1348 l -15.1,-340.7 -147.1,340.7 h -75.5 l -62.9,-308 -98,308 H 757.1 l -29,-164.7 H 597.4 l -74.2,164.7 H 405.1 L 647.7,585.5 h 139.6 l 74.2,445.1 144.6,-445.1 H 1118 l 55.3,301.7 128.3,-301.7 h 135.7 l 23.8,550.7" id="path3" style="fill:#cbcbca;fill-opacity:1"/>
        <polyline class="st4" points="1785.5,1136.2 1804.4,1018.1 1607,1018.1 1622.7,920 1794.3,920 1813.2,801.8 1639.7,801.8       1654.8,703.8 1852.2,703.8 1871,585.6 1557.9,585.6 1470,1136.2 1785.5,1136.2     " id="polyline3" style="fill:#cbcbca;fill-opacity:1"/>
        <path class="st4" d="m 2043.2,588.7 -87.4,546.5 c 0,0 180.9,0 254.6,0 104.8,0 258,-154.5 118.5,-280.8 143.5,-148.4 1.3,-264.5 -74.9,-265.7 -61.1,-1 -212.1,0 -212.1,0 h 1.3 m 62.4,330.6 c 0,0 23.7,0 94.8,0 89.8,0 87.4,109.8 -12.4,109.8 -62.4,0 -99.8,0 -99.8,0 l 17.4,-109.8 m 34.9,-214.6 c 0,0 2.5,0 73.6,0 79.9,0 63.6,102.4 -12.5,102.4 -62.4,0 -78.6,0 -78.6,0 l 17.5,-102.4" id="path6" style="fill:#cbcbca;fill-opacity:1"/>
        <path class="st4" d="m 2583.4,1031.4 c 59.9,26.8 133.1,-25.7 163.6,-117.4 30.5,-91.6 6.8,-187.6 -53.1,-214.4 -59.9,-26.6 -133.1,25.9 -163.6,117.4 -30.6,91.7 -6.7,187.7 53.1,214.4 M 2412.1,813.6 c 35.1,-152.2 165.2,-252.2 290.7,-223.1 125.4,29 198.5,175.9 163.4,328 -35.2,152.3 -165.3,252.2 -290.7,223.2 C 2450.2,1112.6 2377,965.8 2412.1,813.6" id="path4" style="fill:#cbcbca;fill-opacity:1"/>
        <polyline class="st4" points="3255.2,585.6 3123.2,585.6 3011.3,765.4 2940.9,585.6 2811.4,585.6 2944.7,876 2903.7,1136.2       3016.8,1136.2 3051.5,906.2 3255.2,585.6     " id="polyline4" style="fill:#cbcbca;fill-opacity:1"/>
        <path class="st4" d="m 817.64186,289.6101 h 1.42875 c 1.66688,0 2.46063,-0.47625 2.46063,-1.69333 0,-1.27 -0.84667,-1.79917 -2.59292,-1.79917 h -1.27 v 3.4925 m 10.26584,0.82021 c 0,4.81542 -3.9423,8.73125 -8.75771,8.73125 -4.84188,0 -8.78417,-3.94229 -8.78417,-8.73125 0,-4.86833 3.96875,-8.78417 8.78417,-8.78417 4.81541,0 8.75771,3.96875 8.75771,8.78417 z m -8.81063,-10.87437 c -6.00604,0 -10.84792,4.86833 -10.84792,10.87437 0,5.95313 4.84188,10.84792 10.84792,10.84792 5.97958,0 10.87438,-4.86834 10.87438,-10.84792 0,-6.00604 -4.84188,-10.87437 -10.87438,-10.87437 z m 0.3175,4.70958 c 3.38667,0 5.13292,1.16417 5.13292,3.46604 0,1.5875 -1.00542,2.75167 -2.64584,3.175 l 2.69875,5.37104 h -3.22791 l -2.30188,-4.92125 h -1.42875 v 4.92125 h -2.93687 v -12.01208 z" id="path23" style="display:inline;fill:#cbcbca;fill-opacity:1;stroke-width:0.264583" transform="matrix(3.7795276,0,0,3.7795276,0,0.01062047)"/>
    </g>
    <g id="g22" transform="matrix(0.26458333,0,0,0.26458333,0,-0.00281)" style="display:inline;fill:#cbcbca;fill-opacity:1">
        <path class="st2" d="m 2961.9,395.9 c -60.3,0 -202.3,-0.2 -318.2,31.1 -11.4,3.1 -21.4,0.8 -8.6,-26.6 19.2,-41.1 39.9,-92.2 19.6,-134.9 -12.8,-26.9 -42,-49.4 -72.2,-77.1 14.3,-12.7 34.8,-95.2 -26.5,-108.9 -28.4,-6.4 -48.6,2.5 -52.8,34.8 -1.6,12.6 -0.1,25.4 3.3,37.7 3.6,12.9 9.1,24.7 17.7,35.3 -64.3,61 -132.1,117 -214.6,171.5 -77.3,51.1 -164.3,97.9 -271,116.5 -29.8,5.2 -103.9,16.1 -30.7,-75.4 80.9,20 179,-23.8 234.6,-60.7 52.2,-34.6 110,-66.9 104.8,-107.6 -12.9,-101.5 -168.3,-37.2 -278,32.7 -179.1,114.1 -177.7,227.1 -119.9,252.9 111.2,49.7 344.2,-61.4 607.3,-299.9 73.6,89.8 51.7,74.8 6.8,188.6 -8.1,20.5 -20.9,101.2 45.2,88.1 156.8,-31.2 379.2,-55.3 553.6,-33.6 7.5,0.9 13.6,6.4 15.5,13.7 l 1.2,4.5 c 1.8,7.1 8.3,11.9 15.6,11.8 l 55,-1.3 c 11.8,-0.3 21.7,-8.8 23.9,-20.4 2.9,-15.3 4.3,-35.6 -5,-46.7 -15.9,-19.2 -133.6,-26.1 -306.6,-26.1 z M 2308.7,226.7 c 5.2,0.8 7.4,7.3 3.8,11.1 -61.5,64.7 -229.5,133.4 -264.8,118.9 43.8,-50 184.3,-142.4 261,-130 z m 238,-66 0.1,0.1 c 0,0 0,0 0,0 z" id="path20" style="display:inline;fill:#cbcbca;fill-opacity:1"/>
        <path class="st2" d="m 1948.4,241.1 c -13.5,-28.4 -47.5,-21.8 -89.5,-12.4 -64.7,14.4 -149,50.1 -300.5,161.7 -4.3,3.2 -9.5,-2.6 -5.9,-6.5 49.8,-54.2 116.3,-127.2 133.6,-147.4 15.7,-18.3 -14.8,-62.9 -47.5,-43.8 -108.1,62.8 -288.8,167.1 -383.2,227.7 -31.7,20.4 -44.8,8.7 -26.5,-17.6 95,-135.9 153.5,-146.7 145.2,-187.9 -11.5,-57.1 -46.9,-15.6 -67.5,1.6 -31.5,26.4 -81.6,62.9 -161.1,107.1 -74,41.1 -173.6,97.2 -211.2,117.9 -36,19.7 -46.9,0.5 -27.7,-22.6 C 921.3,401.2 1062,280.7 1111,238 c 0,0 30.6,-20.9 16.2,-42.2 -16.6,-24.6 -25.2,-34.6 -57.9,-2.3 -28.7,28.3 -214,191.4 -233.6,222.1 -19.1,30 -19.1,40.9 -10.8,61.6 8.5,21.5 31.3,37.1 56.8,32.9 43.8,-7.2 130.6,-52.9 205.5,-96.7 35.5,-20.8 96.4,-59.7 131.1,-82.1 3.9,-2.5 8.3,2.5 5.2,6 -21.9,24.9 -53.8,64 -59.8,86.7 -6.8,25.5 41.4,57.7 80.5,44.2 46.1,-15.9 228.9,-124.8 312.5,-175.3 4.7,-2.9 9.6,3.5 5.5,7.3 -53.2,49.9 -151.2,149.4 -272.3,307 -17.2,22.4 39.2,56.4 51,41.1 43.2,-55.5 106,-134.1 189.5,-190.3 4.1,-2.7 5.1,-3.3 9,-6 4.9,6.2 11.3,11.4 14.2,14.7 37.3,42.8 102.8,51.2 206.6,-4 0,0 130.4,-69.7 174.2,-133.1 14.4,-20.8 35.7,-42.8 14,-88.5 z m -139.9,129 c -116.5,76.8 -203.6,110.2 -239.3,65 186.5,-121.7 282,-151.5 327.7,-157.5 6.6,-0.9 11.1,6.6 7.1,11.9 -20.3,27.8 -71.8,65 -95.5,80.6 z" id="path21" style="display:inline;fill:#cbcbca;fill-opacity:1"/>
        <path class="st2" d="M 1018.4,78.6 C 1012.9,49.1 981.1,30 884.7,24.2 740.6,15.6 484.6,91.1 413.7,140.7 c -18.3,12.8 -22.7,67.4 -5.5,94 33.9,52.4 130.2,64 210.4,84 80.2,20 147.8,45.9 148.4,61.9 0.7,20.2 -47.2,28.2 -118,39.1 -157.3,24.3 -418.5,65.4 -507.3,64.9 -9.3,0 -18.4,-2.8 -26.2,-7.9 l -7.6,-4.9 c -5,-3.2 -11,-4.7 -16.9,-4.1 l -50.3,5 c -14.2,1.4 -25.1,13.4 -25.1,27.7 v 17 c 0,34.8 10.8,45 50,40.2 C 153,547 267.9,538.8 392.3,525.3 551.3,508.1 727.6,474.4 766.3,453 817.7,424.5 804.8,331.1 743.1,302.4 655.7,261.7 509,240.8 455.2,218.4 431.9,208.7 439.9,199.7 462.6,188 500.9,168.2 577.3,134.6 693.8,110 842,78.7 922.4,82.9 967,97.7 c 16,5.3 44.9,17.2 13.8,32.9 -18.7,9.5 -57.5,21.8 -85.8,30 -31.2,9.1 -24.8,87.5 0.6,75.3 25.4,-12.2 88.9,-28.6 115.2,-65.7 16.1,-22.7 12.5,-65.2 7.6,-91.6 z" id="path22" style="display:inline;fill:#cbcbca;fill-opacity:1"/>
    </g>
    <g id="g10" transform="matrix(0.26458333,0,0,0.26458333,0,-0.00281)" style="display:none;fill:#30308f;fill-opacity:1">
        <path class="st2" d="M 1018.4,78.6 C 1012.9,49.1 981.1,30 884.7,24.2 740.6,15.6 484.6,91.1 413.7,140.7 c -18.3,12.8 -22.7,67.4 -5.5,94 33.9,52.4 130.2,64 210.4,84 80.2,20 147.8,45.9 148.4,61.9 0.7,20.2 -47.2,28.2 -118,39.1 -157.3,24.3 -418.5,65.4 -507.3,64.9 -9.3,0 -18.4,-2.8 -26.2,-7.9 l -7.6,-4.9 c -5,-3.2 -11,-4.7 -16.9,-4.1 l -50.3,5 c -14.2,1.4 -25.1,13.4 -25.1,27.7 v 17 c 0,34.8 10.8,45 50,40.2 C 153,547 267.9,538.8 392.3,525.3 551.3,508.1 727.6,474.4 766.3,453 817.7,424.5 804.8,331.1 743.1,302.4 655.7,261.7 509,240.8 455.2,218.4 431.9,208.7 439.9,199.7 462.6,188 500.9,168.2 577.3,134.6 693.8,110 842,78.7 922.4,82.9 967,97.7 c 16,5.3 44.9,17.2 13.8,32.9 -18.7,9.5 -57.5,21.8 -85.8,30 -31.2,9.1 -24.8,87.5 0.6,75.3 25.4,-12.2 88.9,-28.6 115.2,-65.7 16.1,-22.7 12.5,-65.2 7.6,-91.6 z" id="path8" style="display:inline;fill:#30308f;fill-opacity:1"/>
        <path class="st2" d="m 1948.4,241.1 c -13.5,-28.4 -47.5,-21.8 -89.5,-12.4 -64.7,14.4 -149,50.1 -300.5,161.7 -4.3,3.2 -9.5,-2.6 -5.9,-6.5 49.8,-54.2 116.3,-127.2 133.6,-147.4 15.7,-18.3 -14.8,-62.9 -47.5,-43.8 -108.1,62.8 -288.8,167.1 -383.2,227.7 -31.7,20.4 -44.8,8.7 -26.5,-17.6 95,-135.9 153.5,-146.7 145.2,-187.9 -11.5,-57.1 -46.9,-15.6 -67.5,1.6 -31.5,26.4 -81.6,62.9 -161.1,107.1 -74,41.1 -173.6,97.2 -211.2,117.9 -36,19.7 -46.9,0.5 -27.7,-22.6 C 921.3,401.2 1062,280.7 1111,238 c 0,0 30.6,-20.9 16.2,-42.2 -16.6,-24.6 -25.2,-34.6 -57.9,-2.3 -28.7,28.3 -214,191.4 -233.6,222.1 -19.1,30 -19.1,40.9 -10.8,61.6 8.5,21.5 31.3,37.1 56.8,32.9 43.8,-7.2 130.6,-52.9 205.5,-96.7 35.5,-20.8 96.4,-59.7 131.1,-82.1 3.9,-2.5 8.3,2.5 5.2,6 -21.9,24.9 -53.8,64 -59.8,86.7 -6.8,25.5 41.4,57.7 80.5,44.2 46.1,-15.9 228.9,-124.8 312.5,-175.3 4.7,-2.9 9.6,3.5 5.5,7.3 -53.2,49.9 -151.2,149.4 -272.3,307 -17.2,22.4 39.2,56.4 51,41.1 43.2,-55.5 106,-134.1 189.5,-190.3 4.1,-2.7 5.1,-3.3 9,-6 4.9,6.2 11.3,11.4 14.2,14.7 37.3,42.8 102.8,51.2 206.6,-4 0,0 130.4,-69.7 174.2,-133.1 14.4,-20.8 35.7,-42.8 14,-88.5 z m -139.9,129 c -116.5,76.8 -203.6,110.2 -239.3,65 186.5,-121.7 282,-151.5 327.7,-157.5 6.6,-0.9 11.1,6.6 7.1,11.9 -20.3,27.8 -71.8,65 -95.5,80.6 z" id="path10" style="display:inline;fill:#30308f;fill-opacity:1"/>
        <path class="st2" d="m 2961.9,395.9 c -60.3,0 -202.3,-0.2 -318.2,31.1 -11.4,3.1 -21.4,0.8 -8.6,-26.6 19.2,-41.1 39.9,-92.2 19.6,-134.9 -12.8,-26.9 -42,-49.4 -72.2,-77.1 14.3,-12.7 34.8,-95.2 -26.5,-108.9 -28.4,-6.4 -48.6,2.5 -52.8,34.8 -1.6,12.6 -0.1,25.4 3.3,37.7 3.6,12.9 9.1,24.7 17.7,35.3 -64.3,61 -132.1,117 -214.6,171.5 -77.3,51.1 -164.3,97.9 -271,116.5 -29.8,5.2 -103.9,16.1 -30.7,-75.4 80.9,20 179,-23.8 234.6,-60.7 52.2,-34.6 110,-66.9 104.8,-107.6 -12.9,-101.5 -168.3,-37.2 -278,32.7 -179.1,114.1 -177.7,227.1 -119.9,252.9 111.2,49.7 344.2,-61.4 607.3,-299.9 73.6,89.8 51.7,74.8 6.8,188.6 -8.1,20.5 -20.9,101.2 45.2,88.1 156.8,-31.2 379.2,-55.3 553.6,-33.6 7.5,0.9 13.6,6.4 15.5,13.7 l 1.2,4.5 c 1.8,7.1 8.3,11.9 15.6,11.8 l 55,-1.3 c 11.8,-0.3 21.7,-8.8 23.9,-20.4 2.9,-15.3 4.3,-35.6 -5,-46.7 -15.9,-19.2 -133.6,-26.1 -306.6,-26.1 z M 2308.7,226.7 c 5.2,0.8 7.4,7.3 3.8,11.1 -61.5,64.7 -229.5,133.4 -264.8,118.9 43.8,-50 184.3,-142.4 261,-130 z m 238,-66 0.1,0.1 c 0,0 0,0 0,0 z" id="path9" style="display:inline;fill:#30308f;fill-opacity:1"/>
    </g>
    <g id="g13" style="display:inline;fill:#ec2024;fill-opacity:1" transform="matrix(0.26458333,0,0,0.26458333,0,-0.00281)">
        <path class="st3" d="M 1002.7,55.1 C 997.2,25.6 965.4,6.5 869,0.7 724.9,-8 468.9,67.6 398,117.2 c -18.3,12.8 -22.7,67.4 -5.5,94 33.9,52.4 130.2,64 210.4,84 80.2,20 147.8,45.9 148.4,61.9 0.7,20.2 -47.2,28.2 -118,39.1 -157.3,24.4 -418.5,65.5 -507.3,65 -9.3,0 -18.4,-2.8 -26.2,-7.9 l -7.6,-4.9 c -5,-3.2 -11,-4.7 -16.9,-4.1 l -50.3,5 C 10.8,450.8 0,462.7 0,477 v 17 c 0,34.8 10.8,45 50,40.2 87.4,-10.6 202.3,-18.8 326.7,-32.3 159,-17.2 335.3,-50.9 374,-72.3 51.4,-28.5 38.5,-121.9 -23.2,-150.6 -87.4,-40.7 -234.1,-61.6 -287.9,-84 -23.3,-9.7 -15.3,-18.7 7.4,-30.4 38.3,-19.8 114.7,-53.4 231.2,-78 148.2,-31.4 228.6,-27.1 273.1,-12.3 16,5.3 44.9,17.2 13.8,32.9 -18.7,9.5 -57.5,21.8 -85.8,30 -31.2,9.1 -24.8,87.5 0.6,75.3 25.4,-12.2 88.9,-28.6 115.2,-65.7 16.1,-22.8 12.5,-65.3 7.6,-91.7 z" id="path11" style="fill:#ec2024;fill-opacity:1"/>
        <path class="st3" d="m 1932.7,217.6 c -13.5,-28.4 -47.5,-21.8 -89.5,-12.4 -64.7,14.4 -149,50.1 -300.5,161.7 -4.3,3.2 -9.5,-2.6 -5.9,-6.5 49.8,-54.2 116.3,-127.2 133.6,-147.4 15.7,-18.3 -14.8,-62.9 -47.5,-43.8 -108.1,62.8 -288.8,167.1 -383.2,227.7 -31.7,20.4 -44.8,8.7 -26.5,-17.6 95,-135.9 153.5,-146.7 145.2,-187.9 -11.5,-57.1 -46.9,-15.6 -67.5,1.6 -31.5,26.4 -81.6,62.9 -161.1,107.1 -74,41.1 -173.6,97.2 -211.2,117.9 -36,19.7 -46.9,0.5 -27.7,-22.6 14.7,-17.7 155.4,-138.2 204.4,-180.9 0,0 30.6,-20.9 16.2,-42.2 -16.6,-24.6 -25.2,-34.6 -57.9,-2.3 -28.7,28.3 -214,191.4 -233.6,222.1 -19.1,30 -19.1,40.9 -10.8,61.6 8.5,21.5 31.3,37.1 56.8,32.9 43.8,-7.2 130.6,-52.9 205.5,-96.7 35.5,-20.8 96.4,-59.7 131.1,-82.1 3.9,-2.5 8.3,2.5 5.2,6 -21.9,24.9 -53.8,64 -59.8,86.7 -6.8,25.5 41.4,57.7 80.5,44.2 46.1,-15.9 228.9,-124.8 312.5,-175.3 4.7,-2.9 9.6,3.5 5.5,7.3 -53.2,49.9 -151.2,149.4 -272.3,307 -17.2,22.4 39.2,56.4 51,41.1 43.2,-55.5 106,-134.1 189.5,-190.3 4.1,-2.7 5.1,-3.3 9,-6 4.9,6.2 11.3,11.4 14.2,14.7 37.3,42.8 102.8,51.2 206.6,-4 0,0 130.4,-69.7 174.2,-133.1 14.4,-20.8 35.7,-42.8 14,-88.5 z m -139.9,129 c -116.5,76.8 -203.6,110.2 -239.3,65 186.5,-121.7 282,-151.5 327.7,-157.5 6.6,-0.9 11.1,6.6 7.1,11.9 -20.3,27.8 -71.7,65 -95.5,80.6 z" id="path13" style="fill:#ec2024;fill-opacity:1"/>
        <path class="st3" d="m 2946.2,372.4 c -60.3,0 -202.3,-0.2 -318.2,31.1 -11.4,3.1 -21.4,0.8 -8.6,-26.6 19.2,-41.1 39.9,-92.2 19.6,-134.9 -12.8,-26.9 -42,-49.4 -72.2,-77.1 14.3,-12.7 34.8,-95.2 -26.5,-108.9 -28.4,-6.4 -48.6,2.5 -52.8,34.8 -1.6,12.6 -0.1,25.4 3.3,37.7 3.6,12.9 9.1,24.7 17.7,35.3 -64.3,61 -132.1,117 -214.6,171.5 -77.3,51.1 -164.3,97.9 -271,116.5 -29.8,5.2 -103.9,16.1 -30.7,-75.4 80.9,20 179,-23.8 234.6,-60.7 52.2,-34.6 110,-66.9 104.8,-107.6 -12.9,-101.5 -168.3,-37.2 -278,32.7 -179.1,114.1 -177.7,227.1 -119.9,252.9 111.2,49.7 344.2,-61.4 607.3,-299.9 73.6,89.8 51.7,74.8 6.8,188.6 -8.1,20.5 -20.9,101.2 45.2,88.1 156.8,-31.2 379.2,-55.3 553.6,-33.6 7.5,0.9 13.6,6.4 15.5,13.7 l 1.2,4.5 c 1.8,7.1 8.3,11.9 15.6,11.8 l 55,-1.3 c 11.8,-0.3 21.7,-8.8 23.9,-20.4 2.9,-15.3 4.3,-35.6 -5,-46.7 -15.8,-19.2 -133.6,-26.1 -306.6,-26.1 z M 2293,203.2 c 5.2,0.8 7.4,7.3 3.8,11.1 -61.5,64.7 -229.5,133.4 -264.8,118.9 43.8,-50 184.3,-142.4 261,-130 z m 238.1,-66 0.1,0.1 c 0,0 0,0 0,0 0,0 -0.1,0 -0.1,-0.1 z" id="path12" style="display:inline;fill:#ec2024;fill-opacity:1"/>
    </g>
    <path id="path2-5" d="M 46.4,128.8 V 200 H 200 353.6 V 128.8 57.6 H 200 46.4 v 71.2 m 87.895,-60.2 c -0.002,2.805 -0.03,14.852 -0.061,26.772 -0.031,11.92 -0.029,21.7 0.005,21.733 0.169,0.168 1.286,-1.137 6.061,-7.082 2.86,-3.561 6.415,-7.977 7.9,-9.815 4.141,-5.124 8.794,-10.863 9.169,-11.308 0.185,-0.22 1.818,-2.245 3.628,-4.5 4.371,-5.444 15.23,-18.851 16.242,-20.054 l 0.803,-0.954 4.329,0.054 4.329,0.054 0.05,40.679 c 0.038,29.902 -0.009,40.751 -0.174,40.95 -0.284,0.342 -12.558,0.402 -13.19,0.064 -0.38,-0.204 -0.387,-0.695 -0.379,-26.748 0.006,-18.222 -0.056,-26.561 -0.199,-26.609 -0.225,-0.075 -0.418,0.131 -2.122,2.264 -2.969,3.715 -4.175,5.208 -4.279,5.3 -0.062,0.055 -1.051,1.27 -2.197,2.7 -1.146,1.43 -3.529,4.39 -5.297,6.579 -1.767,2.188 -3.663,4.539 -4.213,5.224 -0.55,0.685 -1.9,2.351 -3,3.703 -1.1,1.351 -2.433,3.001 -2.963,3.666 -0.53,0.665 -1.264,1.573 -1.632,2.019 -1.198,1.451 -6.797,8.395 -7.206,8.937 -0.22,0.291 -0.979,1.236 -1.687,2.1 -3.21,3.916 -4.027,4.922 -5.836,7.182 -1.06,1.326 -2.242,2.743 -2.626,3.15 l -0.697,0.74 h -3.94 c -2.356,0 -4.096,-0.084 -4.33,-0.209 -0.384,-0.206 -0.39,-0.628 -0.379,-26.926 0.005,-14.695 -0.031,-26.759 -0.082,-26.81 -0.197,-0.196 -0.726,0.303 -1.848,1.745 -0.965,1.239 -3.897,4.871 -5.249,6.5 -0.307,0.371 -2.886,3.567 -4.019,4.983 -0.272,0.339 -3.334,4.127 -6.805,8.417 -3.47,4.29 -6.533,8.08 -6.805,8.423 -0.667,0.838 -6.897,8.539 -10.437,12.901 -1.572,1.938 -4.164,5.148 -5.759,7.133 -1.595,1.985 -3.08,3.66 -3.3,3.723 -0.538,0.154 -16.182,0.153 -16.584,-0.001 -0.478,-0.184 -0.393,-0.43 0.534,-1.548 1.203,-1.45 1.066,-1.282 5.884,-7.231 2.405,-2.97 6.256,-7.74 8.558,-10.6 2.302,-2.86 5.9,-7.31 7.997,-9.889 5.011,-6.165 8.558,-10.551 11.89,-14.701 1.496,-1.865 3.273,-4.07 3.947,-4.9 0.674,-0.831 2.474,-3.052 4,-4.937 10.379,-12.82 10.434,-12.888 13.56,-16.792 0.872,-1.09 1.642,-2.026 1.71,-2.081 0.069,-0.055 0.66,-0.775 1.314,-1.6 0.655,-0.825 2.3,-2.874 3.656,-4.554 l 2.466,-3.053 4.634,0.053 4.634,0.054 -0.005,5.1 m 113.653,3.1 c 0.027,4.51 -0.024,8.313 -0.113,8.452 -0.127,0.199 -4.157,0.262 -19.248,0.3 L 209.5,80.5 l -0.8,0.432 c -4.762,2.575 -4.696,12.103 0.1,14.429 0.633,0.306 2.112,0.349 15.4,0.439 16.451,0.112 15.148,-0.008 17.2,1.582 10.832,8.395 10.1,41.157 -1.058,47.341 L 239.3,145.3 216,145.357 c -12.815,0.031 -23.502,0.006 -23.75,-0.054 l -0.45,-0.111 v -8.356 c 0,-6.232 0.061,-8.417 0.24,-8.596 0.183,-0.183 4.913,-0.24 20.07,-0.24 h 19.83 l 0.793,-0.574 c 3.232,-2.341 3.645,-8.983 0.758,-12.194 -1.645,-1.829 -0.608,-1.718 -17.091,-1.833 -16.446,-0.114 -14.935,0.048 -17.388,-1.858 -6.238,-4.844 -9.292,-20.756 -6.514,-33.941 0.563,-2.671 1.939,-6.532 2.944,-8.259 0.307,-0.527 0.558,-0.995 0.558,-1.04 0,-0.596 2.665,-3.491 3.99,-4.336 l 0.891,-0.567 23.509,0.051 23.51,0.051 0.048,8.2 m 18.652,21.2 0.1,29.4 0.589,1.2 c 1.976,4.029 4.552,4.898 14.511,4.895 9.624,-0.003 12.114,-0.844 14.228,-4.81 l 0.472,-0.885 0.1,-29.6 0.1,-29.6 h 6.8 6.8 v 34.6 c 0,38.833 0.127,35.53 -1.497,38.8 -1.852,3.728 -5.175,6.579 -9.286,7.968 -1.409,0.476 -30.179,0.775 -33.654,0.35 -6.042,-0.739 -11.563,-6.019 -12.649,-12.096 -0.154,-0.863 -0.334,-58.879 -0.216,-69.575 0.001,-0.084 3.04,-0.129 6.752,-0.1 l 6.75,0.053 0.1,29.4 m 75.351,11.3 c 0.048,38.088 0.03,40.716 -0.288,40.95 -0.437,0.322 -12.681,0.362 -13.276,0.043 C 328.008,144.99 328,144.506 328,120.688 V 96.39 l -0.55,-0.209 c -0.349,-0.133 -2.674,-0.191 -6.361,-0.159 -3.196,0.027 -5.919,-0.017 -6.05,-0.098 -0.175,-0.108 -0.239,-1.482 -0.239,-5.121 v -4.972 l 3.45,-4.252 c 1.898,-2.339 4.028,-4.978 4.734,-5.865 0.705,-0.888 1.336,-1.659 1.401,-1.714 0.12,-0.102 2.596,-3.156 4.215,-5.2 0.495,-0.625 1.228,-1.533 1.628,-2.018 0.401,-0.485 1.193,-1.446 1.761,-2.136 l 1.032,-1.254 4.439,0.054 4.44,0.054 0.051,40.7 m -93.796,62.35 c 0.968,0.487 2.445,1.909 2.445,2.355 0,0.09 0.121,0.306 0.268,0.479 0.255,0.301 0.798,1.743 1.337,3.551 0.137,0.459 0.195,0.977 0.128,1.15 -0.109,0.286 -2.057,1.315 -2.489,1.315 -0.101,0 -0.465,0.141 -0.811,0.313 -0.74,0.37 -1.033,0.248 -1.033,-0.431 0,-1.255 -1.601,-3.282 -2.591,-3.282 -3.084,0 -4.177,12.957 -1.346,15.95 1.541,1.629 3.583,-0.093 4.032,-3.4 0.159,-1.17 0.37,-1.198 2.129,-0.292 2.568,1.324 2.666,1.471 2.076,3.142 -0.165,0.468 -0.3,1.032 -0.3,1.253 0,0.652 -1.505,3.586 -2.231,4.352 -1.648,1.737 -4.887,2.208 -7.183,1.045 -6.477,-3.281 -6.84,-23.094 -0.497,-27.152 1.753,-1.121 4.243,-1.264 6.066,-0.348 m -183.208,0.213 c 0.254,0.161 0.483,1.367 0.861,4.537 0.119,0.99 0.301,2.205 0.405,2.7 0.104,0.495 0.276,1.755 0.382,2.8 0.231,2.268 1.174,5.198 1.212,3.762 0.004,-0.144 0.143,-1.297 0.31,-2.562 0.168,-1.265 0.385,-2.975 0.484,-3.8 0.098,-0.825 0.319,-2.31 0.489,-3.3 0.17,-0.99 0.361,-2.315 0.423,-2.943 0.139,-1.392 0.177,-1.405 3.887,-1.317 l 2.5,0.06 v 13.6 13.6 H 74 72.1 l -0.106,-8 c -0.058,-4.4 -0.127,-8.045 -0.153,-8.1 -0.162,-0.342 -0.418,0.701 -0.535,2.177 -0.075,0.948 -0.264,2.231 -0.421,2.852 -0.157,0.621 -0.285,1.521 -0.285,2 0,0.479 -0.13,1.591 -0.289,2.471 -0.159,0.88 -0.395,2.365 -0.523,3.3 -0.128,0.935 -0.291,2.06 -0.361,2.5 l -0.127,0.8 h -1.9 -1.9 l -0.128,-1.434 c -0.071,-0.788 -0.186,-1.526 -0.256,-1.64 -0.122,-0.198 -0.5,-2.916 -0.934,-6.726 -0.112,-0.99 -0.334,-2.258 -0.493,-2.817 -0.159,-0.559 -0.347,-1.706 -0.418,-2.55 -0.291,-3.435 -0.469,-1.084 -0.519,6.817 L 62.7,193.9 h -1.9 -1.9 l -0.051,-13.487 c -0.041,-10.658 0.001,-13.521 0.2,-13.647 0.325,-0.207 5.574,-0.209 5.898,-0.003 m 27.009,0.005 c 0.192,0.123 0.242,0.854 0.2,2.947 l -0.056,2.785 -3.641,0.1 c -4.281,0.118 -4.094,0.014 -4.018,2.219 l 0.059,1.681 3.6,0.116 c 1.98,0.064 3.625,0.132 3.655,0.15 0.031,0.019 0.031,1.317 0,2.884 l -0.055,2.85 -3.4,0.1 c -1.87,0.055 -3.512,0.173 -3.65,0.262 -0.213,0.138 -0.401,4.819 -0.2,4.977 0.028,0.022 1.85,0.089 4.05,0.15 l 4,0.111 v 2.9 2.9 H 86 79.5 l -0.051,-13.487 c -0.041,-10.658 0.001,-13.521 0.2,-13.647 0.331,-0.21 11.975,-0.208 12.307,0.002 m 14.152,0.458 c 3.359,2.187 5.074,9.582 4.098,17.674 -0.878,7.277 -2.897,9.144 -9.79,9.054 L 96.3,193.9 96.249,180.413 c -0.041,-10.654 0.001,-13.523 0.2,-13.657 0.702,-0.472 8.819,-0.077 9.659,0.47 m 12.243,-0.46 c 0.199,0.126 0.241,2.989 0.2,13.647 l -0.051,13.487 -2,0.058 c -1.1,0.033 -2.203,0.008 -2.45,-0.053 l -0.45,-0.113 v -13.481 c 0,-12.672 0.021,-13.487 0.35,-13.573 0.614,-0.16 4.14,-0.138 4.401,0.028 m 13.756,-0.051 c 0.419,0.112 0.509,0.412 1.199,3.985 0.148,0.77 0.365,1.85 0.482,2.4 0.116,0.55 0.34,1.63 0.496,2.4 0.709,3.489 0.919,4.496 1.229,5.887 0.183,0.819 0.408,1.944 0.501,2.5 0.229,1.371 0.567,3.044 0.809,4.013 0.11,0.44 0.321,1.475 0.469,2.3 0.148,0.825 0.372,1.898 0.497,2.384 0.126,0.485 0.182,1.003 0.126,1.15 -0.142,0.37 -4.883,0.386 -5.02,0.016 -0.051,-0.137 -0.18,-0.79 -0.285,-1.45 -0.106,-0.66 -0.266,-1.56 -0.355,-2 l -0.161,-0.8 -2.45,-0.056 -2.449,-0.056 -0.212,0.556 c -0.116,0.306 -0.293,1.269 -0.393,2.141 -0.222,1.947 -0.191,1.927 -2.89,1.865 -2.586,-0.059 -2.564,-0.033 -2,-2.427 0.801,-3.399 0.907,-3.88 1.088,-4.923 0.104,-0.605 0.289,-1.55 0.41,-2.1 0.121,-0.55 0.348,-1.63 0.504,-2.4 0.157,-0.77 0.471,-2.3 0.698,-3.4 0.227,-1.1 0.551,-2.675 0.719,-3.5 0.168,-0.825 0.402,-1.905 0.519,-2.4 0.117,-0.495 0.294,-1.395 0.392,-2 0.098,-0.605 0.26,-1.325 0.36,-1.6 0.099,-0.275 0.237,-0.922 0.306,-1.437 0.086,-0.643 0.231,-0.966 0.464,-1.027 0.5,-0.132 4.472,-0.149 4.947,-0.021 m 28.561,0.137 c 0.301,0.22 0.337,0.587 0.288,2.95 l -0.056,2.698 -3.7,0.1 c -4.452,0.12 -4.2,-0.005 -4.2,2.09 0,2.031 -0.228,1.909 3.566,1.913 4.23,0.004 3.855,-0.3 3.789,3.072 l -0.055,2.825 -3.4,0.1 c -4.203,0.124 -3.9,-0.085 -3.9,2.687 0,2.881 -0.296,2.692 4.315,2.758 l 3.785,0.055 v 2.9 2.9 h -6.5 -6.5 l -0.052,-13.4 c -0.048,-12.42 -0.027,-13.418 0.288,-13.65 0.491,-0.36 11.839,-0.359 12.332,0.002 m 9.271,1.148 c 0.352,0.715 0.645,1.421 0.65,1.57 0.006,0.148 0.133,0.553 0.281,0.9 0.149,0.346 0.47,1.17 0.714,1.83 0.244,0.66 0.525,1.352 0.623,1.537 0.099,0.185 0.371,0.905 0.605,1.6 0.234,0.695 0.59,1.626 0.792,2.07 0.202,0.444 0.429,1.055 0.505,1.359 0.163,0.648 0.523,0.608 0.716,-0.081 0.074,-0.267 0.144,-3.063 0.155,-6.214 0.018,-5.027 0.059,-5.743 0.336,-5.85 0.465,-0.178 3.742,-0.142 4.035,0.045 0.199,0.126 0.241,2.989 0.2,13.647 L 179.5,193.9 h -2.3 -2.3 l -0.914,-2.4 c -0.503,-1.32 -1.02,-2.653 -1.15,-2.963 -0.13,-0.31 -0.236,-0.674 -0.236,-0.81 0,-0.136 -0.078,-0.332 -0.173,-0.437 -0.096,-0.104 -0.404,-0.865 -0.684,-1.69 -0.281,-0.825 -0.652,-1.77 -0.826,-2.1 -0.173,-0.33 -0.315,-0.746 -0.316,-0.926 0,-0.179 -0.125,-0.428 -0.277,-0.554 -0.152,-0.126 -0.333,-0.514 -0.402,-0.862 -0.346,-1.728 -0.52,0.182 -0.569,6.249 L 169.3,193.9 h -2.2 -2.2 l -0.051,-13.535 c -0.049,-12.767 -0.032,-13.541 0.3,-13.63 0.193,-0.053 1.206,-0.082 2.251,-0.065 l 1.9,0.03 0.639,1.3 m 18.011,-1.274 c 0.449,0.12 0.45,0.129 0.45,4.473 0,5.206 -0.213,4.835 2.729,4.758 l 2.171,-0.057 0.1,-4.6 0.1,-4.6 1.8,-0.061 c 0.99,-0.033 2.093,-0.006 2.45,0.059 l 0.65,0.12 v 13.487 13.487 l -0.45,0.113 c -0.247,0.061 -1.35,0.086 -2.45,0.053 l -2,-0.058 -0.053,-5.384 c -0.063,-6.368 0.123,-5.916 -2.433,-5.916 -2.819,0 -2.602,-0.481 -2.662,5.9 l -0.052,5.4 h -2.4 -2.4 l -0.052,-13.4 c -0.048,-12.42 -0.027,-13.418 0.288,-13.65 0.354,-0.26 3.374,-0.349 4.214,-0.124 m 23.663,0.081 c 0.223,0.119 0.387,0.417 0.387,0.703 0,0.273 0.128,1.012 0.284,1.643 0.292,1.178 0.512,2.23 1.017,4.847 0.159,0.825 0.476,2.355 0.703,3.4 0.228,1.045 0.493,2.414 0.589,3.043 0.096,0.628 0.235,1.24 0.308,1.359 0.074,0.119 0.267,0.955 0.428,1.857 0.528,2.945 0.817,4.426 1.041,5.341 0.37,1.51 0.662,3.051 0.768,4.05 l 0.101,0.95 h -2.38 c -2.673,0 -2.859,-0.081 -2.859,-1.249 0,-0.423 -0.146,-1.35 -0.324,-2.06 L 211.351,189.4 H 209 c -2.812,0 -2.734,-0.06 -3.024,2.326 -0.288,2.372 -0.188,2.297 -2.956,2.23 l -2.32,-0.056 0.07,-0.883 c 0.039,-0.485 0.197,-1.239 0.35,-1.675 0.154,-0.436 0.28,-1.102 0.28,-1.48 0,-0.379 0.085,-0.847 0.188,-1.04 0.174,-0.325 0.561,-2.155 1.018,-4.822 0.104,-0.605 0.317,-1.595 0.473,-2.2 0.156,-0.605 0.39,-1.64 0.519,-2.3 0.13,-0.66 0.366,-1.83 0.526,-2.6 0.284,-1.368 0.604,-2.985 1.07,-5.4 0.127,-0.66 0.361,-1.617 0.519,-2.127 0.158,-0.51 0.288,-1.185 0.29,-1.5 0.004,-0.654 0.167,-0.964 0.597,-1.127 0.532,-0.203 4.614,-0.153 5.013,0.061 m 12.329,-0.047 c 0.133,0.085 0.385,0.511 0.559,0.947 0.174,0.436 0.391,0.973 0.481,1.193 0.091,0.22 0.364,0.94 0.608,1.6 0.708,1.919 1.029,2.759 1.3,3.4 0.14,0.33 0.454,1.14 0.698,1.8 0.245,0.66 0.571,1.515 0.725,1.9 0.154,0.385 0.373,0.957 0.487,1.272 0.172,0.476 0.256,0.53 0.503,0.325 0.251,-0.207 0.297,-1.192 0.297,-6.298 v -6.052 l 0.45,-0.121 c 0.659,-0.177 3.608,-0.147 3.901,0.04 0.199,0.126 0.241,2.989 0.2,13.647 l -0.051,13.487 -2.252,0.057 -2.253,0.056 -0.202,-0.556 c -0.111,-0.307 -0.281,-0.737 -0.378,-0.957 -0.098,-0.22 -0.422,-1.075 -0.721,-1.9 -0.299,-0.825 -0.72,-1.95 -0.935,-2.5 -0.216,-0.55 -0.637,-1.675 -0.936,-2.5 -0.3,-0.825 -0.642,-1.68 -0.76,-1.9 -0.119,-0.22 -0.277,-0.686 -0.352,-1.036 -0.075,-0.35 -0.266,-0.744 -0.424,-0.875 -0.158,-0.131 -0.287,-0.402 -0.287,-0.602 0,-0.2 -0.089,-0.418 -0.197,-0.485 -0.128,-0.079 -0.216,2.223 -0.25,6.538 l -0.053,6.66 h -2.3 -2.3 l -0.052,-13.4 c -0.048,-12.42 -0.027,-13.418 0.288,-13.65 0.377,-0.277 3.797,-0.35 4.206,-0.09 m 44.726,0.092 c 0.301,0.22 0.337,0.587 0.288,2.95 l -0.056,2.698 -3.7,0.1 c -4.452,0.12 -4.2,-0.005 -4.2,2.09 0,2.031 -0.228,1.909 3.566,1.913 4.23,0.004 3.855,-0.3 3.789,3.072 l -0.055,2.825 -3.4,0.1 c -4.203,0.124 -3.9,-0.085 -3.9,2.687 0,2.881 -0.296,2.692 4.315,2.758 l 3.785,0.055 v 2.9 2.9 h -6.5 -6.5 l -0.052,-13.4 c -0.048,-12.42 -0.027,-13.418 0.288,-13.65 0.491,-0.36 11.839,-0.359 12.332,0.002 m 9.482,-0.126 c 0.361,0.097 0.451,0.265 0.455,0.847 0.002,0.4 0.093,1.087 0.201,1.527 0.108,0.44 0.332,1.835 0.497,3.1 0.166,1.265 0.385,2.75 0.487,3.3 0.102,0.55 0.192,1.373 0.198,1.829 0.015,1.01 0.764,3.524 1.006,3.375 0.096,-0.06 0.229,-0.715 0.296,-1.456 0.068,-0.741 0.25,-2.158 0.406,-3.148 0.331,-2.105 0.646,-4.424 0.971,-7.158 0.158,-1.323 0.33,-2.019 0.533,-2.147 0.497,-0.313 5.709,-0.246 5.977,0.077 0.164,0.198 0.212,3.935 0.174,13.65 L 289.3,193.9 h -1.9 -1.9 l -0.108,-8 c -0.059,-4.4 -0.127,-8.04 -0.15,-8.09 -0.194,-0.416 -0.504,0.682 -0.64,2.266 -0.091,1.057 -0.258,2.35 -0.372,2.873 -0.113,0.523 -0.304,1.761 -0.422,2.751 -0.518,4.319 -1.017,7.503 -1.248,7.958 -0.158,0.309 -0.417,0.349 -1.921,0.3 l -1.739,-0.058 -0.245,-1.6 c -0.134,-0.88 -0.342,-2.365 -0.462,-3.3 -0.119,-0.935 -0.347,-2.355 -0.505,-3.156 -0.158,-0.8 -0.29,-1.88 -0.293,-2.4 -0.002,-0.519 -0.182,-1.613 -0.4,-2.43 -0.217,-0.818 -0.396,-1.898 -0.398,-2.4 -10e-4,-0.503 -0.069,-1.139 -0.15,-1.414 -0.081,-0.275 -0.192,3.37 -0.247,8.1 l -0.1,8.6 h -2 -2 l -0.052,-13.4 c -0.048,-12.42 -0.027,-13.418 0.288,-13.65 0.357,-0.262 4.935,-0.359 5.814,-0.124 m 27.806,0.042 c 0.192,0.123 0.242,0.854 0.2,2.947 l -0.056,2.785 -3.641,0.1 c -4.281,0.118 -4.094,0.014 -4.018,2.219 l 0.059,1.681 3.6,0.116 c 1.98,0.064 3.625,0.132 3.655,0.15 0.031,0.019 0.031,1.317 0,2.884 l -0.055,2.85 -3.4,0.1 c -1.87,0.055 -3.512,0.173 -3.65,0.262 -0.213,0.138 -0.401,4.819 -0.2,4.977 0.028,0.022 1.85,0.089 4.05,0.15 l 4,0.111 v 2.9 2.9 h -6.5 -6.5 l -0.051,-13.487 c -0.041,-10.658 10e-4,-13.521 0.2,-13.647 0.331,-0.21 11.975,-0.208 12.307,0.002 m 7.986,-0.008 c 0.133,0.085 0.385,0.511 0.559,0.947 0.174,0.436 0.391,0.973 0.481,1.193 0.091,0.22 0.364,0.94 0.608,1.6 0.708,1.919 1.029,2.759 1.3,3.4 0.14,0.33 0.454,1.14 0.698,1.8 0.245,0.66 0.571,1.515 0.725,1.9 0.154,0.385 0.373,0.957 0.487,1.272 0.172,0.476 0.256,0.53 0.503,0.325 0.251,-0.207 0.297,-1.192 0.297,-6.298 v -6.052 l 0.45,-0.121 c 0.659,-0.177 3.608,-0.147 3.901,0.04 0.199,0.126 0.241,2.989 0.2,13.647 l -0.051,13.487 -2.252,0.057 -2.253,0.056 -0.202,-0.556 c -0.111,-0.307 -0.281,-0.737 -0.378,-0.957 -0.098,-0.22 -0.422,-1.075 -0.721,-1.9 -0.299,-0.825 -0.72,-1.95 -0.935,-2.5 -0.216,-0.55 -0.637,-1.675 -0.936,-2.5 -0.3,-0.825 -0.642,-1.68 -0.76,-1.9 -0.119,-0.22 -0.277,-0.686 -0.352,-1.036 -0.075,-0.35 -0.266,-0.744 -0.424,-0.875 -0.158,-0.131 -0.287,-0.402 -0.287,-0.602 0,-0.2 -0.089,-0.418 -0.197,-0.485 -0.128,-0.079 -0.216,2.223 -0.25,6.538 l -0.053,6.66 h -2.3 -2.3 l -0.052,-13.4 c -0.048,-12.42 -0.027,-13.418 0.288,-13.65 0.377,-0.277 3.797,-0.35 4.206,-0.09 m 27.414,0.008 c 0.192,0.123 0.242,0.854 0.2,2.947 l -0.056,2.785 -2.188,0.057 c -3.02,0.079 -2.712,-1.169 -2.712,10.974 v 10.482 l -2.35,-0.057 -2.35,-0.056 -0.052,-10.55 c -0.028,-5.802 -0.073,-10.562 -0.1,-10.576 -0.026,-0.015 -1.083,-0.082 -2.348,-0.15 l -2.3,-0.124 -0.056,-2.698 c -0.049,-2.363 -0.013,-2.73 0.288,-2.95 0.397,-0.29 13.575,-0.368 14.024,-0.084 m -239.908,5.988 c -0.198,0.133 -0.241,1.805 -0.2,7.657 l 0.052,7.487 0.857,0.062 c 1.182,0.085 2.155,-0.541 2.703,-1.74 0.616,-1.348 0.765,-8.945 0.211,-10.81 -0.573,-1.932 -2.549,-3.38 -3.623,-2.656 m 27.963,2.514 c -0.116,0.306 -0.211,0.753 -0.21,0.993 0,0.24 -0.139,1.202 -0.31,2.137 -0.621,3.389 -0.685,3.886 -0.519,4.052 0.284,0.284 2.737,0.089 2.675,-0.212 -0.03,-0.144 -0.15,-0.954 -0.267,-1.8 -0.117,-0.847 -0.341,-2.031 -0.497,-2.632 -0.155,-0.601 -0.284,-1.411 -0.286,-1.8 -0.005,-1.05 -0.317,-1.444 -0.586,-0.738 m 79.293,0.28 c -0.063,0.413 -0.244,1.425 -0.401,2.25 -0.464,2.432 -0.719,4.412 -0.595,4.613 0.15,0.242 2.433,0.245 2.582,0.003 0.144,-0.233 -0.231,-2.794 -0.605,-4.134 -0.157,-0.559 -0.285,-1.29 -0.285,-1.625 0,-1.661 -0.492,-2.444 -0.696,-1.107" style="display:none;fill:#000000;fill-opacity:1;fill-rule:evenodd;stroke:none" transform="matrix(3.0768896,0,0,2.5169483,944.72982,-149.73781)"/>
    <path id="path1" d="m 1321.2734,18.192981 c -4.5322,4.606015 -9.6245,9.783378 -11.3168,11.50497 -8.7599,8.917548 -12.9506,13.135953 -13.2706,13.362479 -0.1938,0.138432 -6.6984,6.707667 -14.4521,14.5983 -18.9168,19.252137 -24.8059,25.22989 -26.0367,26.427957 -0.5692,0.553729 -4.723,4.744448 -9.2368,9.312709 -4.5107,4.568261 -9.2122,9.305154 -10.4491,10.525874 -1.2339,1.22072 -3.4923,3.51115 -5.0154,5.08676 -1.523,1.57812 -4.9845,5.1094 -7.6922,7.84784 -9.3076,9.42094 -23.369,23.60898 -24.3936,24.61324 -2.6338,2.58239 -30.375,30.71935 -34.9904,35.48645 -1.523,1.57561 -3.7784,3.861 -5.0153,5.08172 -2.1107,2.08907 -14.5229,14.57313 -18.7659,18.88215 -1.0646,1.07977 -4.5969,4.6488 -7.8461,7.93342 -3.2523,3.28462 -5.9107,6.16652 -5.9107,6.40815 0,0.89603 3.323,0.99671 27.5874,0.85576 l 24.8151,-0.14598 1.9538,-1.79459 c 1.8738,-1.72411 23.9844,-24.03182 45.3534,-45.75308 17.7782,-18.07169 20.5782,-20.90829 20.9044,-21.16502 0.1723,-0.13843 2.5292,-2.50185 5.2338,-5.25287 6.8522,-6.96188 11.1321,-11.29355 20.9259,-21.17509 4.6645,-4.70669 12.1537,-12.29529 16.6398,-16.86355 4.4861,-4.568263 9.7414,-9.891608 11.6768,-11.829658 1.9354,-1.938051 5.3353,-5.401371 7.5568,-7.696828 6.5907,-6.810862 5.9477,-13.505945 6.0954,63.537846 0.1046,54.40635 0.283,67.48441 0.923,67.81665 0.9139,0.4757 22.8582,0.56883 24.9659,0.10571 0.8492,-0.18373 5.1538,-4.11772 10.8768,-9.93439 5.2123,-5.29566 13.3999,-13.59152 18.1937,-18.43665 4.7968,-4.84512 10.8122,-10.94117 13.369,-13.54873 2.5569,-2.60504 5.1415,-5.21008 5.7477,-5.78898 0.603,-0.57638 4.7845,-4.80234 9.2922,-9.39074 4.5046,-4.58588 13.4583,-13.64689 19.8952,-20.13558 16.8982,-17.03723 28.252,-28.53213 33.5288,-33.94608 21.1598,-21.708683 23.6859,-24.12747 24.6798,-23.624081 0.3199,0.161085 0.5507,28.396211 0.5507,67.396321 0,60.74152 0.092,67.14967 0.9723,67.42653 1.64,0.51346 37.5935,0.34231 39.295,-0.18625 l 1.5815,-0.49081 -0.1569,-102.57822 -0.1539,-102.578233 h -13.5198 -13.523 l -11.7075,11.890064 c -6.44,6.539032 -14.0553,14.240893 -16.9168,17.115248 -4.9814,4.99866 -24.0243,24.283517 -30.4858,30.875405 -3.9907,4.072422 -14.5291,14.719114 -18.4613,18.655621 -1.6923,1.693906 -7.9784,8.049201 -13.9722,14.120075 -5.9907,6.0734 -15.3721,15.57236 -20.8428,21.10965 -5.4738,5.53729 -12.4491,12.62501 -15.5045,15.74855 -3.0553,3.12353 -5.8615,5.59517 -6.2338,5.49449 -0.6184,-0.16863 -0.763,-78.994419 -0.2215,-122.172667 l 0.16,-12.836436 -14.2214,-0.1359152 -14.2214,-0.1333982 -8.2399,8.3738874 m 239.4097,-7.112896 c -35.8888,15.310596 -34.9288,107.876405 1.2708,122.482255 l 3.3846,1.3667 44.3072,0.2517 44.3072,0.25169 3.2153,1.19052 c 13.643,5.04396 16.4768,24.92534 4.8092,33.72207 l -2.7661,2.08655 h -61.1993 c -54.8179,0 -61.3009,0.0831 -62.1686,0.79032 -1.6861,1.38181 -1.4369,41.75618 0.2615,42.50119 0.8585,0.37503 22.9567,0.49333 73.0762,0.39516 l 71.8484,-0.14346 2.5354,-1.10998 c 36.7134,-16.06568 36.735,-105.25626 0.031,-121.54343 l -3.7969,-1.683838 -45.2303,-0.251695 c -39.6827,-0.221491 -45.4949,-0.349856 -47.3872,-1.054601 -14.526,-5.413956 -14.9844,-29.048101 -0.7077,-36.312013 l 2.2492,-1.142695 58.9102,-0.138432 c 57.4886,-0.133398 58.9224,-0.161085 59.5439,-1.109974 0.4154,-0.634271 0.5785,-8.003896 0.4739,-21.255629 l -0.16,-20.284086 -71.9992,-0.1031948 -71.9993,-0.1031949 -2.8092,1.1980677 m 162.9183,-0.913653 c -0.7139,0.581416 -0.4985,171.270778 0.2184,174.630908 2.9508,13.80294 15.3106,25.06377 32.9012,29.97434 l 4.3077,1.2031 h 50.4609 50.461 l 5.3508,-1.56554 c 16.2367,-4.75452 28.0796,-15.50692 31.3811,-28.49186 0.6462,-2.53708 0.8062,-20.34197 0.8062,-89.497646 V 10.088407 h -20.769 -20.7659 l -0.157,73.99828 -0.1538,73.998283 -1.72,2.81898 c -6.3784,10.45037 -13.7629,12.51678 -44.741,12.5193 -30.3536,0 -37.2273,-1.83234 -43.738,-11.65599 l -2.1077,-3.1789 -0.3077,-74.249978 -0.3077,-74.249975 -20.3505,-0.1333982 c -11.1937,-0.072992 -20.5383,0.022652 -20.769,0.2114232 m 239.4312,6.113668 c -3.4707,3.553931 -8.443,8.597895 -11.046,11.210488 -2.6,2.610075 -12.366,12.441275 -21.7013,21.847111 l -16.9721,17.100147 0.1661,12.599843 0.1631,12.599843 19.7967,0.251695 c 10.886,0.138432 19.9659,0.392644 20.1752,0.563796 0.2123,0.17367 0.3661,27.870167 0.3476,61.549457 l -0.034,61.23483 1.5877,0.49584 c 2.0923,0.64937 37.8426,0.65189 39.9319,0.003 l 1.5815,-0.49081 -0.1569,-102.57822 -0.1539,-102.578233 -13.686,-0.1359152 -13.6829,-0.1359152 -6.3169,6.4635234 m -269.5694,252.4927 c -7.0153,2.13437 -11.5968,7.1129 -15.126,16.42812 -4.1538,10.9739 -3.003,31.04656 2.4862,43.28145 7.843,17.48272 34.3873,15.00101 39.2765,-3.67223 0.3415,-1.30126 0.9077,-3.44319 1.2553,-4.75955 0.7293,-2.75858 0.9046,-2.59497 -6.2768,-5.78898 -5.8246,-2.58994 -6.4461,-2.5245 -6.9784,0.75508 -1.8215,11.1677 -11.4799,13.43296 -15.6368,3.6672 -1.9384,-4.54561 -1.9169,-23.66435 0.028,-28.48682 3.7569,-9.30516 12.8676,-8.89993 15.2614,0.67706 0.4462,1.77696 1.8646,2.29294 3.9723,1.43969 0.7169,-0.28945 2.8276,-1.02691 4.6892,-1.63853 5.7322,-1.8852 5.9537,-4.27378 1.1323,-12.28019 -5.3538,-8.88987 -14.4922,-12.54196 -24.0829,-9.6223 m -566.7384,1.16032 c -1.0216,0.21897 -1.0739,2.16205 -0.9231,34.29845 l 0.1569,34.0669 h 5.8461 5.8461 l 0.16,-21.26822 c 0.1538,-20.3168 0.7077,-26.063 1.6584,-17.16559 0.24,2.25771 0.7047,4.68153 1.0339,5.38879 0.3292,0.70726 0.9969,3.90127 1.483,7.0978 1.6154,10.59886 2.1908,13.83314 3.0923,17.38959 0.4923,1.93805 0.8923,4.57581 0.8892,5.86197 -0.012,2.82654 0.2646,2.94735 6.7692,2.94735 5.6215,0 5.0399,0.65692 6.4399,-7.29915 0.5354,-3.04551 1.3785,-7.48289 1.8769,-9.85889 0.4985,-2.37851 0.9046,-5.29062 0.9046,-6.47107 0,-1.18297 0.3877,-3.42808 0.8646,-4.99111 0.4739,-1.56302 1.0493,-4.73941 1.28,-7.05752 0.2277,-2.32063 0.5785,-4.56826 0.7816,-4.99866 0.9907,-2.11172 1.2984,2.5698 1.3384,20.35456 0.049,22.24982 -0.5723,20.43007 6.9076,20.21613 l 5.1353,-0.14598 v -34.2305 -34.2305 l -8.4706,-0.14095 c -10.3445,-0.17115 -10.7076,-0.0478 -11.1814,3.78801 -0.197,1.59323 -0.6616,4.30398 -1.0308,6.02306 -0.9261,4.3065 -4.1015,23.66938 -4.2338,25.81885 -0.2277,3.7125 -3.083,-4.73186 -4.3415,-12.83643 -3.0984,-19.96192 -3.6215,-22.27248 -5.1353,-22.60472 -1.5108,-0.33223 -15.5537,-0.29196 -17.1475,0.0478 m 63.3839,0 c -1.0215,0.21897 -1.0738,2.16205 -0.9231,34.29845 l 0.157,34.0669 18.769,0.14094 c 24.1874,0.18122 21.5382,1.08984 21.5382,-7.39479 0,-8.38144 1.3015,-7.59615 -12.6152,-7.59615 -13.843,0 -12.6153,0.66699 -12.6153,-6.84862 0,-3.43311 0.071,-6.2823 0.1539,-6.33515 0.086,-0.0529 5.1384,-0.22401 11.2306,-0.37755 l 11.0768,-0.2819 0.1723,-6.75548 c 0.2154,-8.40913 1.1138,-7.78996 -11.7383,-8.09451 l -10.5876,-0.2517 -0.1785,-4.65635 c -0.2092,-5.58259 -2.0215,-4.79982 11.8707,-5.13206 l 11.6922,-0.27938 0.1723,-7.0097 c 0.1292,-5.26797 -0.025,-7.10786 -0.6154,-7.41745 -0.8092,-0.41781 -35.6212,-0.4908 -37.5596,-0.0755 m 51.6917,-0.0176 c -1.0215,0.23407 -1.0738,2.18723 -0.923,34.31607 l 0.1569,34.0669 12.406,0.13591 c 14.0491,0.15353 16.5968,-0.28693 21.0429,-3.65209 8.3106,-6.28986 12.0306,-24.8599 8.8276,-44.05415 -1.5539,-9.30012 -6.5538,-17.07497 -12.7384,-19.80335 -2.3969,-1.05963 -25.1012,-1.85499 -28.772,-1.00929 m 53.541,0.21394 c -1.0092,0.48073 -1.0769,2.64783 -1.0769,34.20533 v 33.69186 l 1.3846,0.28442 c 0.76,0.15353 4.1538,0.21646 7.5384,0.1334 l 6.1537,-0.14598 0.157,-34.04425 0.16,-34.04676 -1.3908,-0.30455 c -2.2615,-0.49584 -11.7599,-0.32972 -12.926,0.22653 m 41.0888,-0.0831 c -1.2031,0.38257 -1.7815,1.87512 -3.4369,8.85211 -0.3292,1.38432 -0.9877,3.98936 -1.4677,5.78898 -0.48,1.79961 -1.2953,4.97097 -1.8153,7.04745 -0.517,2.07648 -1.5262,6.04068 -2.24,8.80932 -0.7108,2.76864 -1.7046,6.73284 -2.2061,8.80932 -0.5016,2.07648 -1.1877,4.68152 -1.5293,5.78898 -0.3415,1.10746 -1.0061,3.7125 -1.4769,5.78898 -0.8153,3.58162 -1.8307,7.56847 -3.4338,13.44302 -1.1169,4.1127 -1.0154,4.17562 6.7292,4.17562 8.0184,0 7.9322,0.0554 8.7014,-5.47185 0.8862,-6.35781 0.5816,-6.16148 9.3568,-5.99537 l 7.4369,0.14095 0.7723,2.51695 c 0.4246,1.38432 0.9754,3.76284 1.2215,5.28559 0.5692,3.52121 0.5323,3.50611 8.723,3.51618 7.9291,0.008 7.9568,-0.008 6.7445,-3.89372 -0.4953,-1.59071 -1.0861,-4.02712 -1.3107,-5.41144 -0.2246,-1.38432 -0.6646,-3.08326 -0.9785,-3.77542 -0.5323,-1.18045 -1.7784,-6.25965 -3.0861,-12.58474 -0.3138,-1.52276 -0.96,-4.1278 -1.4338,-5.78898 -0.4739,-1.66119 -1.2862,-4.71928 -1.8031,-6.79576 -0.5169,-2.07649 -1.2677,-5.02132 -1.6677,-6.54407 -0.9753,-3.71753 -2.1045,-8.38899 -3.3199,-13.74002 -0.5508,-2.43389 -1.2708,-4.99614 -1.5938,-5.69585 -0.3262,-0.6972 -0.5908,-1.82479 -0.5908,-2.50688 0,-1.99343 -11.6306,-3.2519 -16.2952,-1.75935 m 65.0639,0.0579 -1.3846,0.45557 v 33.39235 c 0,25.29785 0.1785,33.53582 0.7384,33.9939 0.7816,0.63931 36.935,0.91617 38.9042,0.29952 1.4554,-0.45809 1.4554,-14.0345 0,-14.49259 -0.5353,-0.16612 -5.7753,-0.30455 -11.6429,-0.30455 -13.8091,0 -12.6153,0.62169 -12.6153,-6.56923 0,-7.2765 -0.9661,-6.71019 11.9999,-7.02229 l 10.4614,-0.2517 0.1693,-7.1733 c 0.095,-3.94406 0.095,-7.21105 0,-7.25888 -0.092,-0.0453 -5.1538,-0.21645 -11.2461,-0.37754 l -11.0768,-0.29197 -0.1815,-4.26874 c -0.2431,-5.74116 -0.6923,-5.54735 12.9137,-5.54735 h 10.9599 v -7.2463 c 0,-6.14135 -0.1477,-7.2916 -0.9723,-7.55084 -1.5508,-0.48577 -35.495,-0.28945 -37.0273,0.21394 m 51.3841,-0.17115 c -1.0123,0.21645 -1.077,2.26777 -1.077,34.16253 v 33.93098 l 1.3846,0.28442 c 0.7631,0.15605 3.8769,0.21646 6.923,0.13592 l 5.5384,-0.1485 0.3077,-16.69744 c 0.1693,-9.18183 0.5139,-16.86607 0.7693,-17.07246 0.2553,-0.20639 0.4646,-0.0554 0.4646,0.33727 0,0.39265 0.4338,1.38684 0.96,2.2124 0.5261,0.82556 1.6492,2.97755 2.4922,4.7822 0.8431,1.80465 1.9354,4.02712 2.4246,4.93574 0.4893,0.90861 0.8892,1.88267 0.8892,2.16709 0,0.2819 0.5047,1.46486 1.1231,2.62518 0.6154,1.16031 1.6123,3.13108 2.2154,4.37697 0.6,1.24589 1.48,3.01027 1.9538,3.91889 0.4738,0.90862 0.8708,1.92798 0.8831,2.26525 0.012,0.33727 0.5538,1.51772 1.2092,2.62518 0.6554,1.10746 1.1969,2.2728 1.2092,2.58994 0.034,0.92875 1.6369,1.18548 7.4061,1.18548 2.9907,0 5.8768,-0.13843 6.4122,-0.30455 1.6738,-0.52604 1.4615,-67.40388 -0.2184,-68.13882 -1.28,-0.56128 -9.3046,-0.70223 -11.5784,-0.20388 l -1.3846,0.30455 v 15.00101 c 0,8.25056 -0.1692,15.36094 -0.3723,15.79889 -0.6738,1.42963 -1.9538,0.83814 -2.9076,-1.34405 -0.5139,-1.17542 -1.5231,-3.3853 -2.24,-4.90805 -1.4554,-3.08074 -1.7169,-3.64706 -5.7938,-12.58474 -1.5785,-3.46081 -3.1107,-6.74542 -3.4092,-7.29915 -0.2954,-0.55373 -0.88,-1.7518 -1.2984,-2.66293 -0.4185,-0.90862 -1.2616,-1.87261 -1.8677,-2.13941 -1.0954,-0.47822 -10.3414,-0.58141 -12.4183,-0.13591 m 57.5378,0.17115 -1.3846,0.45557 v 33.68935 c 0,30.25623 0.098,33.72207 0.9723,33.99642 0.5354,0.16612 3.5599,0.30455 6.7199,0.30455 8.5107,0 7.6922,1.49507 7.6922,-14.04709 0,-15.84922 -0.6276,-14.64864 7.6615,-14.63857 8.4307,0.0101 7.6768,-1.39187 7.8676,14.61592 l 0.1631,13.81805 6.1538,0.14598 c 3.3845,0.0831 6.7783,0.0201 7.5383,-0.1334 l 1.3846,-0.28442 v -33.69942 c 0,-39.07058 1.0093,-34.74647 -8.1137,-34.73388 -7.8399,0.0101 -7.2215,-0.99923 -7.4122,12.09645 l -0.1662,11.30362 -6.1538,0.14598 c -9.8799,0.23659 -8.923,1.49003 -8.923,-11.67361 0,-11.25076 0,-11.25831 -1.3846,-11.56286 -2.0922,-0.45808 -11.0398,-0.31462 -12.6152,0.20136 m 69.8669,-0.17367 c -0.6646,0.14095 -1.1877,0.91365 -1.4061,2.079 -0.1908,1.02188 -0.7539,3.00775 -1.2492,4.41724 -0.4985,1.40698 -0.9046,3.06816 -0.9046,3.69237 0,0.62168 -0.4123,2.52701 -0.9139,4.2335 -0.5015,1.70649 -1.4892,5.36865 -2.1907,8.1373 -0.7046,2.76864 -1.6831,6.61957 -2.1754,8.55762 -1.3169,5.1975 -2.6123,10.23895 -3.363,13.08813 -0.3631,1.38432 -1.0215,4.10263 -1.4615,6.04068 -0.44,1.93805 -1.0954,4.54309 -1.4554,5.78898 -1.9508,6.71773 -2.6031,9.47379 -2.6,10.94872 l 0.01,1.63602 h 6.7261 c 8.2122,0 8.2614,-0.0327 9.1722,-5.81415 0.9446,-5.97775 0.6769,-5.8217 9.566,-5.65307 l 7.4399,0.14095 0.4739,2.01356 c 0.2615,1.10746 0.7292,3.45577 1.0369,5.22015 0.7354,4.21337 0.5969,4.15045 8.7137,3.98433 l 7.0246,-0.14346 -0.092,-2.26526 c -0.049,-1.24589 -0.6923,-4.41724 -1.4308,-7.04745 -0.7354,-2.63021 -1.7107,-6.48115 -2.1723,-8.55763 -0.4584,-2.07648 -1.1323,-4.90805 -1.5015,-6.29237 -0.3661,-1.38432 -1.0738,-4.10262 -1.5723,-6.04067 -0.4984,-1.93805 -1.3169,-5.10941 -1.8215,-7.04746 -0.5046,-1.93805 -1.2061,-4.76962 -1.56,-6.29237 -1.4184,-6.12625 -2.36,-9.92684 -2.9969,-12.08135 -1.0492,-3.55142 -2.0061,-7.6037 -2.3569,-9.97467 -0.2523,-1.71907 -0.6338,-2.27029 -1.8307,-2.64279 -1.5015,-0.46564 -13.0737,-0.5638 -15.1045,-0.12585 m 40.9011,0.17367 -1.3846,0.45557 v 33.68935 c 0,30.25623 0.098,33.72207 0.9723,33.99642 1.8277,0.57135 12.286,0.33224 13.0583,-0.29952 0.5446,-0.4455 0.7446,-4.99111 0.757,-17.24109 l 0.022,-16.63703 1.3631,2.29294 c 1.3876,2.32566 3.0676,5.6883 5.4584,10.92104 0.7261,1.59323 1.6953,3.6093 2.1538,4.48017 0.4554,0.87338 0.8307,1.81723 0.8307,2.09913 0,0.2819 0.4031,1.15276 0.8954,1.93805 0.4892,0.78277 1.4923,2.78374 2.2215,4.44493 0.7323,1.66119 1.7169,3.76536 2.1846,4.67397 0.4677,0.90862 0.8523,1.98084 0.8523,2.38104 0,1.04956 1.9938,1.31384 8.6153,1.14773 l 5.8461,-0.1485 0.1569,-33.94609 c 0.1262,-26.82563 0,-34.03165 -0.6154,-34.34879 -1.2738,-0.66196 -11.1845,-0.4908 -12.3414,0.21142 -0.9292,0.56128 -1.0553,2.26526 -1.1969,15.97507 -0.1415,13.71989 -0.2646,15.36346 -1.16,15.50441 -0.6615,0.10571 -1.1476,-0.31714 -1.4307,-1.25093 -0.2369,-0.77522 -0.7939,-2.08906 -1.2369,-2.91966 -0.4462,-0.83059 -1.5169,-3.09584 -2.3815,-5.03389 -0.8677,-1.93805 -3.1323,-6.80835 -5.0338,-10.82288 -1.9046,-4.01453 -3.7108,-7.95356 -4.0154,-8.75395 -1.2092,-3.16884 -8.9568,-4.66139 -14.5906,-2.80891 m 112.6142,0 -1.3846,0.45557 v 33.39235 c 0,25.29785 0.1784,33.53582 0.7384,33.9939 0.7816,0.63931 36.935,0.91617 38.9042,0.29952 1.4554,-0.45809 1.4554,-14.0345 0,-14.49259 -0.5353,-0.16612 -5.7753,-0.30455 -11.6429,-0.30455 -13.8091,0 -12.6153,0.62169 -12.6153,-6.56923 0,-7.2765 -0.9661,-6.71019 11.9999,-7.02229 l 10.4614,-0.2517 0.1693,-7.1733 c 0.095,-3.94406 0.095,-7.21105 0,-7.25888 -0.092,-0.0453 -5.1538,-0.21645 -11.2461,-0.37754 l -11.0768,-0.29197 -0.1815,-4.26874 c -0.2431,-5.74116 -0.6923,-5.54735 12.9137,-5.54735 h 10.9599 v -7.2463 c 0,-6.14135 -0.1477,-7.2916 -0.9723,-7.55084 -1.5508,-0.48577 -35.495,-0.28945 -37.0273,0.21394 m 49.2302,0 -1.3846,0.45557 v 33.39235 c 0,38.11666 -0.6584,34.59797 6.4615,34.59797 7.0276,0 6.4615,1.9607 6.4615,-22.33288 0,-11.62075 0.1661,-20.98883 0.3723,-20.82272 0.203,0.16612 0.6092,2.07397 0.9015,4.23603 0.2923,2.16457 0.9384,5.29314 1.4338,6.95433 0.4954,1.66118 1.2,5.17233 1.5692,7.80254 0.7046,5.02383 1.8616,11.95047 3.1877,19.1288 0.9446,5.10437 0.8215,5.01628 6.8584,5.02635 5.5815,0.0101 5.3784,0.20387 6.5199,-6.28482 0.3908,-2.21492 1.0031,-5.6128 1.3631,-7.55085 0.36,-1.93805 1.0184,-5.78898 1.4615,-8.55762 0.4431,-2.76864 1.1077,-6.73284 1.4738,-8.80932 0.3662,-2.07648 0.8339,-5.07668 1.0369,-6.66991 0.3077,-2.39362 0.9385,-3.45577 1.6431,-2.76864 0.071,0.0705 0.28,9.18686 0.4615,20.26143 l 0.3323,20.13559 h 5.8461 5.8461 l 0.1569,-33.67174 c 0.12,-25.42621 -0.018,-33.84792 -0.5723,-34.39158 -0.7692,-0.76012 -17.7567,-0.80542 -18.6767,-0.0529 -0.2308,0.19129 -0.6677,2.23002 -0.9692,4.53051 -0.3046,2.30301 -0.8369,5.20505 -1.1815,6.45094 -0.3477,1.24589 -0.8893,4.30398 -1.2,6.79576 -0.3139,2.49178 -0.8769,6.22945 -1.2523,8.30593 -0.3754,2.07648 -0.8769,4.90805 -1.1108,6.29237 -0.8369,4.95335 -3.0276,0.77774 -4.3599,-8.30593 -1.2123,-8.27824 -1.9969,-12.87671 -2.8738,-16.86355 -0.4862,-2.21492 -0.8831,-4.65636 -0.8831,-5.42403 0,-1.03698 -0.4062,-1.52275 -1.5785,-1.88771 -1.9661,-0.61162 -15.4644,-0.58896 -17.3444,0.0277 m 65.5347,-0.17115 c -1.0215,0.21897 -1.0738,2.16205 -0.9231,34.29845 l 0.1569,34.0669 18.7691,0.14094 c 24.1874,0.18122 21.5382,1.08984 21.5382,-7.39479 0,-8.38144 1.3015,-7.59615 -12.6152,-7.59615 -13.843,0 -12.6153,0.66699 -12.6153,-6.84862 0,-3.43311 0.071,-6.2823 0.1539,-6.33515 0.086,-0.0529 5.1384,-0.22401 11.2306,-0.37755 l 11.0768,-0.2819 0.1723,-6.75548 c 0.2154,-8.40913 1.1138,-7.78996 -11.7383,-8.09451 l -10.5876,-0.2517 -0.1785,-4.65635 c -0.2092,-5.58259 -2.0215,-4.79982 11.8707,-5.13206 l 11.6922,-0.27938 0.1723,-7.0097 c 0.1292,-5.26797 -0.025,-7.10786 -0.6154,-7.41745 -0.8092,-0.41781 -35.6212,-0.4908 -37.5596,-0.0755 m 49.541,0.17115 -1.3846,0.45557 v 33.68935 c 0,30.25623 0.099,33.72207 0.9723,33.99642 1.8277,0.57135 12.286,0.33224 13.0583,-0.29952 0.5446,-0.4455 0.7446,-4.99111 0.7569,-17.24109 l 0.022,-16.63703 1.363,2.29294 c 1.3877,2.32566 3.0677,5.6883 5.4584,10.92104 0.7262,1.59323 1.6954,3.6093 2.1539,4.48017 0.4553,0.87338 0.8307,1.81723 0.8307,2.09913 0,0.2819 0.4031,1.15276 0.8954,1.93805 0.4892,0.78277 1.4923,2.78374 2.2215,4.44493 0.7323,1.66119 1.7169,3.76536 2.1846,4.67397 0.4677,0.90862 0.8523,1.98084 0.8523,2.38104 0,1.04956 1.9938,1.31384 8.6153,1.14773 l 5.8461,-0.1485 0.1569,-33.94609 c 0.1261,-26.82563 0,-34.03165 -0.6154,-34.34879 -1.2738,-0.66196 -11.1845,-0.4908 -12.3414,0.21142 -0.9292,0.56128 -1.0554,2.26526 -1.1969,15.97507 -0.1415,13.71989 -0.2646,15.36346 -1.16,15.50441 -0.6615,0.10571 -1.1477,-0.31714 -1.4307,-1.25093 -0.237,-0.77522 -0.7939,-2.08906 -1.237,-2.91966 -0.4461,-0.83059 -1.5169,-3.09584 -2.3815,-5.03389 -0.8676,-1.93805 -3.1322,-6.80835 -5.0338,-10.82288 -1.9045,-4.01453 -3.7107,-7.95356 -4.0153,-8.75395 -1.2092,-3.16884 -8.9568,-4.66139 -14.5906,-2.80891 m 54.1533,-0.18626 c -0.5662,0.18878 -0.7693,2.17716 -0.7693,7.51309 v 7.25637 l 5.6923,0.008 c 3.1322,0.003 6.3168,0.14346 7.0768,0.30958 l 1.3846,0.30455 v 26.05545 c 0,30.31161 -0.9046,27.2812 8.0892,27.07733 l 6.3722,-0.14346 0.16,-26.13096 c 0.1077,-17.89047 0.3692,-26.33735 0.8277,-26.78788 0.4615,-0.45557 2.8061,-0.70475 7.5322,-0.80291 l 6.8646,-0.14095 0.1723,-6.79072 c 0.1507,-5.94755 0.04,-6.87127 -0.8862,-7.425 -1.0554,-0.63176 -40.6642,-0.91114 -42.5164,-0.30204 m -687.9618,16.48853 c 3.9476,2.46409 4.4307,4.44242 4.4307,18.16482 0,15.8014 -1.7754,19.2471 -9.6707,18.78147 l -2.6369,-0.15605 -0.16,-18.8444 c -0.1261,-14.72918 0.01,-18.93752 0.6154,-19.27479 1.3354,-0.7425 5.2123,-0.0478 7.4215,1.32895 m 80.476,7.16324 c 0.3231,1.89778 0.9723,4.92315 1.4462,6.72277 2.6184,9.95201 2.7138,9.5644 -2.4154,9.5644 -4.7199,0 -4.7353,-0.0176 -3.9538,-4.07746 3.2523,-16.86355 3.8707,-18.40141 4.923,-12.20971 m 243.8743,-1.70901 c 0.1569,0.90107 0.6092,3.10843 1.0031,4.90805 3.1876,14.59075 3.3999,13.08813 -1.8492,13.08813 -3.1846,0 -4.3077,-0.17619 -4.3077,-0.67203 0,-0.92623 1.6277,-9.58957 2.3815,-12.6678 0.3385,-1.38432 0.7846,-3.36516 0.9908,-4.40466 0.4615,-2.32062 1.3969,-2.45402 1.7815,-0.25169" style="display:inline;fill:#cbcbca;fill-opacity:1;fill-rule:evenodd;stroke:none;stroke-width:2.78287"/>
    <path id="path0" d="m 1124.7398,227.62485 c -0.2862,0.37754 -0.5416,21.56773 -0.3539,29.33755 l 0.034,1.38432 h 435.3521 435.3522 l 0.3693,-1.63601 c 0.84,-3.70747 0.043,-28.57995 -0.9292,-29.08083 -1.277,-0.66195 -869.326,-0.66447 -869.8244,-0.005" style="fill:#ec2024;fill-opacity:1;fill-rule:evenodd;stroke:none;stroke-width:2.78287"/>
    <path id="rect4" style="display:inline;fill:#cbcbca;fill-opacity:1;stroke-width:0;stroke-linecap:square;stroke-linejoin:round;stroke-miterlimit:0.5;paint-order:fill markers stroke" d="m 884.36603,156.62567 h 200.12917 v 34.52854 H 884.36603 Z M 949.33417,88.477249 H 1019.527 V 259.30263 h -70.19283 z" transform="translate(4.9975508,19.081558)"/>
    <path id="rect6" style="display:inline;fill:#ec2024;fill-opacity:1;stroke-width:0;stroke-linecap:square;stroke-linejoin:round;stroke-miterlimit:0.5;paint-order:fill markers stroke" d="m 884.36603,156.62567 h 200.12917 v 34.52854 H 884.36603 Z M 949.33417,88.477249 H 1019.527 V 259.30263 h -70.19283 z"/>
    <g id="g15" style="display:inline;fill:#30308f;fill-opacity:1">
        <text xml:space="preserve" style="font-style:italic;font-weight:bold;font-size:106.667px;line-height:0;font-family:Arial;text-align:start;letter-spacing:0px;word-spacing:0px;writing-mode:lr-tb;direction:ltr;text-anchor:start;display:none;fill:#30308f;fill-opacity:1;stroke-width:0;stroke-linecap:square;stroke-linejoin:round;stroke-miterlimit:0.5;paint-order:fill markers stroke" x="42.854118" y="1285.6261" id="text13" transform="matrix(0.26458333,0,0,0.26458333,0,-0.00281)">
            <tspan id="tspan12" x="0" y="0">A          C          C          E          S         S          O           R         Y</tspan>
        </text>
        <path d="M 97.229288,1268.751 H 66.968777 l -9.166695,16.8751 H 41.656198 l 43.177218,-76.3544 h 17.447974 l 12.39587,76.3544 H 99.781379 Z m -1.927089,-12.7083 -4.427097,-30.7293 -18.437558,30.7293 z m 376.667831,2.0833 15.83338,2.3959 q -4.63543,12.8646 -13.90629,19.6875 -9.27087,6.7709 -21.71882,6.7709 -14.01046,0 -21.92715,-8.4376 -7.86461,-8.4375 -7.86461,-24.4792 0,-13.0209 5.26043,-23.8022 5.31252,-10.8333 14.68755,-16.5625 9.37503,-5.7292 20.41673,-5.7292 12.39587,0 20.05214,6.6667 7.65628,6.6146 9.01045,18.073 l -15.05213,1.4583 q -1.25,-6.6667 -4.84377,-9.6354 -3.54167,-3.0209 -9.47919,-3.0209 -6.51044,0 -12.18754,3.9584 -5.62502,3.9583 -9.01045,12.3958 -3.38542,8.3855 -3.38542,16.7709 0,9.1667 4.37501,14.1667 4.4271,5 10.98962,5 6.09377,0 11.14587,-3.9583 5.10418,-3.9583 7.60419,-11.7188 z m 373.38659,0 15.83339,2.3959 q -4.63543,12.8646 -13.9063,19.6875 -9.27086,6.7709 -21.71881,6.7709 -14.01046,0 -21.92716,-8.4376 -7.8646,-8.4375 -7.8646,-24.4792 0,-13.0209 5.26043,-23.8022 5.31252,-10.8333 14.68754,-16.5625 9.37503,-5.7292 20.41674,-5.7292 12.39587,0 20.05214,6.6667 7.65628,6.6146 9.01045,18.073 l -15.05213,1.4583 q -1.25001,-6.6667 -4.84377,-9.6354 -3.54168,-3.0209 -9.4792,-3.0209 -6.51043,0 -12.18753,3.9584 -5.62502,3.9583 -9.01045,12.3958 -3.38543,8.3855 -3.38543,16.7709 0,9.1667 4.37502,14.1667 4.4271,5 10.98962,5 6.09376,0 11.14586,-3.9583 5.10419,-3.9583 7.60419,-11.7188 z m 318.07388,27.5001 15.9376,-76.3544 h 56.6148 l -2.6563,12.7605 h -40.8855 l -3.6459,17.3438 h 39.5314 l -2.6563,12.7604 h -39.5313 l -4.7917,20.7292 h 44.4272 l -2.7083,12.7605 z m 369.897,-24.7397 14.948,-0.7812 q 0.3125,7.1354 2.4479,9.6354 3.4375,4.0625 12.7083,4.0625 7.7084,0 11.1459,-2.7604 3.4375,-2.7604 3.4375,-6.6667 0,-3.3854 -2.8125,-5.7292 -1.9792,-1.7187 -10.8854,-5.5729 -8.8542,-3.8542 -12.9688,-6.4063 -4.0625,-2.6041 -6.4063,-6.7187 -2.3438,-4.1146 -2.3438,-9.6355 0,-9.6354 6.9792,-15.9896 6.9792,-6.3542 20.2084,-6.3542 13.4376,0 20.7813,6.3021 7.3959,6.3021 8.1251,16.7709 l -15.0522,0.6771 q -0.5729,-5.4688 -3.9583,-8.3855 -3.3854,-2.9166 -10,-2.9166 -6.5105,0 -9.323,2.2916 -2.7604,2.2917 -2.7604,5.7813 0,3.2813 2.5521,5.4167 2.5521,2.1875 11.3021,5.9896 13.1771,5.6771 16.7709,9.2188 5.3646,5.2083 5.3646,13.3854 0,10.1042 -8.0209,17.2917 -7.9687,7.1355 -22.2396,7.1355 -9.8438,0 -17.0834,-3.2813 -7.1875,-3.3333 -10.1563,-9.2188 -2.9687,-5.8854 -2.7604,-13.5417 z m 337.8657,0 14.948,-0.7812 q 0.3125,7.1354 2.4479,9.6354 3.4375,4.0625 12.7084,4.0625 7.7083,0 11.1458,-2.7604 3.4375,-2.7604 3.4375,-6.6667 0,-3.3854 -2.8125,-5.7292 -1.9791,-1.7187 -10.8854,-5.5729 -8.8542,-3.8542 -12.9688,-6.4063 -4.0625,-2.6041 -6.4063,-6.7187 -2.3437,-4.1146 -2.3437,-9.6355 0,-9.6354 6.9792,-15.9896 6.9791,-6.3542 20.2084,-6.3542 13.4375,0 20.7813,6.3021 7.3958,6.3021 8.125,16.7709 l -15.0521,0.6771 q -0.573,-5.4688 -3.9584,-8.3855 -3.3854,-2.9166 -10,-2.9166 -6.5104,0 -9.323,2.2916 -2.7604,2.2917 -2.7604,5.7813 0,3.2813 2.5521,5.4167 2.5521,2.1875 11.3021,5.9896 13.1772,5.6771 16.7709,9.2188 5.3646,5.2083 5.3646,13.3854 0,10.1042 -8.0208,17.2917 -7.9688,7.1355 -22.2397,7.1355 -9.8438,0 -17.0834,-3.2813 -7.1875,-3.3333 -10.1563,-9.2188 -2.9687,-5.8854 -2.7604,-13.5417 z m 370.0532,-5.2083 q 0,-6.7709 2.0313,-14.2709 2.6562,-10.0521 8.0729,-17.448 5.4688,-7.3958 13.75,-11.6667 8.2813,-4.3229 18.8543,-4.3229 14.1667,0 22.8646,8.8021 8.75,8.8021 8.75,23.3334 0,12.0834 -5.6771,23.3855 -5.6771,11.3021 -15.4167,17.3959 -9.7396,6.0938 -22.0313,6.0938 -10.6771,0 -17.9167,-4.8438 -7.2396,-4.8438 -10.2605,-11.9792 -3.0208,-7.1875 -3.0208,-14.4792 z m 15.5209,-0.3125 q 0,7.8646 4.7917,13.1771 4.7916,5.3125 12.6042,5.3125 6.3542,0 12.1875,-4.1667 5.8854,-4.2187 9.6875,-12.7083 3.8542,-8.5417 3.8542,-16.6147 0,-9.0104 -4.8437,-14.1146 -4.8438,-5.1563 -12.3438,-5.1563 -11.5105,0 -18.7501,10.7292 -7.1875,10.7292 -7.1875,23.5418 z m 404.5326,30.2605 h -15.7292 l 15.9896,-76.3544 h 33.9064 q 8.75,0 13.5938,1.8229 4.8958,1.7709 7.8646,6.5625 3.0208,4.7917 3.0208,11.6147 0,9.7396 -5.8333,16.0938 -5.8334,6.3021 -17.6563,7.8125 3.0208,2.7083 5.6771,7.1354 5.2604,8.9584 11.7187,25.3126 h -16.875 q -2.0313,-6.4584 -7.9688,-20.1563 -3.2292,-7.3959 -6.875,-9.948 -2.2396,-1.5104 -7.8125,-1.5104 h -6.4063 z m 9.0104,-43.0731 h 8.3334 q 12.6563,0 16.7709,-1.5104 4.1667,-1.5104 6.5104,-4.7396 2.3438,-3.2291 2.3438,-6.7708 0,-4.1667 -3.3854,-6.25 -2.0834,-1.25 -9.0105,-1.25 h -17.2917 z m 355.1574,43.0731 h -15.6771 l 6.1979,-29.7397 -21.0417,-46.6147 h 16.7188 l 9.4792,21.5626 q 3.3854,7.7604 4.5312,11.1979 1.9271,-3.3854 4.4792,-7.1875 l 7.2396,-10.1042 10.7813,-15.4688 h 18.2292 l -35.0001,48.0731 z" id="path15" style="font-style:italic;font-weight:bold;font-size:106.667px;line-height:0;font-family:Arial;letter-spacing:0px;word-spacing:0px;fill:#30308f;fill-opacity:1;stroke-width:0;stroke-linecap:square;stroke-linejoin:round;stroke-miterlimit:0.5;paint-order:fill markers stroke" transform="matrix(0.26458333,0,0,0.26458333,0,-0.00281)" aria-label="A          C          C          E          S         S          O           R         Y"/>
    </g>
    <g id="g19" transform="matrix(0.26458333,0,0,0.26458333,0,-0.00281)" style="display:inline;fill:#30308f;fill-opacity:1">
        <path class="st4" d="M 163.6,634.6 C 55.9,701.3 4,803.1 17.8,941.4 c 16,160.4 223.8,261.5 399.8,159.7 15.4,-8.9 9.4,-7.5 15.1,-12.6 L 467.9,864.8 H 258 l -16.1,103 h 87.7 l -10,55.4 c -50.2,20.2 -135.7,12.6 -172.3,-52.8 -23.1,-41.4 -44.5,-133.8 52.8,-218.8 79.2,-69.2 216.2,-81.7 295.4,-45.2 0,0 10,-57.9 17.6,-112 -152,-52.8 -270.3,-8.8 -349.5,40.2" id="path16" style="fill:#30308f;fill-opacity:1"/>
        <path class="st4" d="m 711.2,864.7 -20.7,-107 -47.8,106.9 68.5,0.1 m 749.9,271.5 H 1348 l -15.1,-340.7 -147.1,340.7 h -75.5 l -62.9,-308 -98,308 H 757.1 l -29,-164.7 H 597.4 l -74.2,164.7 H 405.1 L 647.7,585.5 h 139.6 l 74.2,445.1 144.6,-445.1 H 1118 l 55.3,301.7 128.3,-301.7 h 135.7 l 23.8,550.7" id="path17" style="fill:#30308f;fill-opacity:1"/>
        <polyline class="st4" points="1785.5,1136.2 1804.4,1018.1 1607,1018.1 1622.7,920 1794.3,920 1813.2,801.8 1639.7,801.8       1654.8,703.8 1852.2,703.8 1871,585.6 1557.9,585.6 1470,1136.2 1785.5,1136.2     " id="polyline17" style="fill:#30308f;fill-opacity:1"/>
        <path class="st4" d="m 2043.2,588.7 -87.4,546.5 c 0,0 180.9,0 254.6,0 104.8,0 258,-154.5 118.5,-280.8 143.5,-148.4 1.3,-264.5 -74.9,-265.7 -61.1,-1 -212.1,0 -212.1,0 h 1.3 m 62.4,330.6 c 0,0 23.7,0 94.8,0 89.8,0 87.4,109.8 -12.4,109.8 -62.4,0 -99.8,0 -99.8,0 l 17.4,-109.8 m 34.9,-214.6 c 0,0 2.5,0 73.6,0 79.9,0 63.6,102.4 -12.5,102.4 -62.4,0 -78.6,0 -78.6,0 l 17.5,-102.4" id="path18" style="fill:#30308f;fill-opacity:1"/>
        <path class="st4" d="m 2583.4,1031.4 c 59.9,26.8 133.1,-25.7 163.6,-117.4 30.5,-91.6 6.8,-187.6 -53.1,-214.4 -59.9,-26.6 -133.1,25.9 -163.6,117.4 -30.6,91.7 -6.7,187.7 53.1,214.4 M 2412.1,813.6 c 35.1,-152.2 165.2,-252.2 290.7,-223.1 125.4,29 198.5,175.9 163.4,328 -35.2,152.3 -165.3,252.2 -290.7,223.2 C 2450.2,1112.6 2377,965.8 2412.1,813.6" id="path19" style="fill:#30308f;fill-opacity:1"/>
        <polyline class="st4" points="3255.2,585.6 3123.2,585.6 3011.3,765.4 2940.9,585.6 2811.4,585.6 2944.7,876 2903.7,1136.2       3016.8,1136.2 3051.5,906.2 3255.2,585.6     " id="polyline19" style="fill:#30308f;fill-opacity:1"/>
        <path class="st4" d="m 817.64186,289.6101 h 1.42875 c 1.66688,0 2.46063,-0.47625 2.46063,-1.69333 0,-1.27 -0.84667,-1.79917 -2.59292,-1.79917 h -1.27 v 3.4925 m 10.26584,0.82021 c 0,4.81542 -3.9423,8.73125 -8.75771,8.73125 -4.84188,0 -8.78417,-3.94229 -8.78417,-8.73125 0,-4.86833 3.96875,-8.78417 8.78417,-8.78417 4.81541,0 8.75771,3.96875 8.75771,8.78417 z m -8.81063,-10.87437 c -6.00604,0 -10.84792,4.86833 -10.84792,10.87437 0,5.95313 4.84188,10.84792 10.84792,10.84792 5.97958,0 10.87438,-4.86834 10.87438,-10.84792 0,-6.00604 -4.84188,-10.87437 -10.87438,-10.87437 z m 0.3175,4.70958 c 3.38667,0 5.13292,1.16417 5.13292,3.46604 0,1.5875 -1.00542,2.75167 -2.64584,3.175 l 2.69875,5.37104 h -3.22791 l -2.30188,-4.92125 h -1.42875 v 4.92125 h -2.93687 v -12.01208 z" id="path2" style="display:inline;fill:#30308f;fill-opacity:1;stroke-width:0.264583" transform="matrix(3.7795276,0,0,3.7795276,0,0.01062047)"/>
    </g>
</svg>
