<?xml version='1.0' encoding='utf-8'?>
<svg xmlns:xlink="http://www.w3.org/1999/xlink" xmlns="http://www.w3.org/2000/svg" width="600" height="204.88834927890264" viewBox="0 0 891.73047 304.50865" version="1.1" id="svg1" xml:space="preserve">
    <defs id="defs1">
        <linearGradient id="linearGradient66">
            <stop style="stop-color:#a6c8f3;stop-opacity:1" offset="0" id="stop64"/>
            <stop style="stop-color:#285bc3;stop-opacity:1" offset="0.4926073" id="stop65"/>
            <stop style="stop-color:#285bc3;stop-opacity:1" offset="0.66196132" id="stop67"/>
            <stop style="stop-color:#698cd5;stop-opacity:1" offset="1" id="stop66"/>
        </linearGradient>
        <linearGradient id="linearGradient36">
            <stop style="stop-color:#a6c8f3;stop-opacity:1" offset="0" id="stop36"/>
            <stop style="stop-color:#285bc4;stop-opacity:1" offset="0.54461324" id="stop38"/>
            <stop style="stop-color:#698cd5;stop-opacity:1" offset="1" id="stop37"/>
        </linearGradient>
        <marker id="DistanceX" orient="auto" refX="0" refY="0" style="overflow:visible">
            <path d="M 3,-3 -3,3 M 0,-5 V 5" style="stroke:#000000;stroke-width:0.5" id="path1"/>
        </marker>
        <pattern id="Hatch" patternUnits="userSpaceOnUse" width="8" height="8" x="0" y="0">
            <path d="M8 4 l-4,4" stroke="#000000" stroke-width="0.25" linecap="square" id="path2"/>
            <path d="M6 2 l-4,4" stroke="#000000" stroke-width="0.25" linecap="square" id="path3"/>
            <path d="M4 0 l-4,4" stroke="#000000" stroke-width="0.25" linecap="square" id="path4"/>
        </pattern>
        <symbol id="*Model_Space"/>
        <symbol id="*Paper_Space"/>
        <symbol id="*Paper_Space0"/>
        <linearGradient xlink:href="#linearGradient66" id="linearGradient37" x1="434.38052" y1="34.757252" x2="434.38052" y2="111.64378" gradientUnits="userSpaceOnUse"/>
        <linearGradient xlink:href="#linearGradient36" id="linearGradient58" gradientUnits="userSpaceOnUse" x1="434.38052" y1="34.757252" x2="434.38052" y2="111.64378"/>
        <linearGradient xlink:href="#linearGradient36" id="linearGradient59" gradientUnits="userSpaceOnUse" x1="434.38052" y1="34.757252" x2="434.38052" y2="111.64378"/>
        <linearGradient xlink:href="#linearGradient36" id="linearGradient60" gradientUnits="userSpaceOnUse" x1="434.38052" y1="34.757252" x2="434.38052" y2="111.64378"/>
        <linearGradient xlink:href="#linearGradient36" id="linearGradient61" gradientUnits="userSpaceOnUse" x1="434.38052" y1="34.757252" x2="434.38052" y2="111.64378"/>
        <linearGradient xlink:href="#linearGradient36" id="linearGradient62" gradientUnits="userSpaceOnUse" x1="434.38052" y1="34.757252" x2="434.38052" y2="111.64378"/>
        <linearGradient xlink:href="#linearGradient36" id="linearGradient63" gradientUnits="userSpaceOnUse" x1="434.38052" y1="34.757252" x2="434.38052" y2="111.64378"/>
        <linearGradient xlink:href="#linearGradient36" id="linearGradient64" gradientUnits="userSpaceOnUse" x1="434.38052" y1="34.757252" x2="434.38052" y2="111.64378"/>
    </defs>
    <g id="g33" transform="translate(-2.570429,-243.91581)">
        <path style="baseline-shift:baseline;display:inline;overflow:visible;vector-effect:none;fill:#ffffff;fill-opacity:1;stroke:none;stroke-width:25;stroke-linecap:round;stroke-linejoin:round;stroke-miterlimit:8;stroke-dasharray:none;stroke-opacity:1;paint-order:markers stroke fill;enable-background:accumulate;stop-color:#000000" d="m 55.494257,395.00648 c -12.967096,0 -25.164935,5.55252 -35.013672,14.66016 l 0.689453,-0.40235 a 12.50125,12.50125 0 0 0 -2.5625,1.99024 12.50125,12.50125 0 0 0 -1.929687,2.50195 l 0.605469,-1.03711 c -9.4441222,10.236 -14.712891,23.42159 -14.712891,37.37305 0,11.7308 3.697983,22.90971 10.431641,32.26758 A 12.50125,12.50125 0 0 0 2.570429,494.00257 v 20.56446 0.79297 20.56445 a 12.50125,12.50125 0 0 0 12.5,12.5 h 57.722656 c 13.743422,0 26.712118,-6.10089 36.750005,-16.25 10.37765,-10.39819 16.17187,-24.21119 16.17187,-38.83399 0,-11.73539 -3.74639,-22.91224 -10.55469,-32.21679 a 12.50125,12.50125 0 0 0 10.55469,-11.69336 v -20.56641 -0.79297 -20.56445 a 12.50125,12.50125 0 0 0 -12.5,-12.5 z m 0,25 h 45.220703 v 8.06445 0.79297 8.06641 H 59.818476 c -2.578328,0 -3.740821,-0.50946 -8.16211,1.70117 0.178237,-0.0891 0.471498,-0.21989 0.423829,-0.19922 -0.04767,0.0207 -0.624226,-1.14747 -4.492188,3.26172 -1.904658,2.17117 -3.086214,6.33995 -3.082031,8.39453 -0.0054,2.0803 1.227272,6.32946 3.162109,8.49219 3.926581,4.38906 4.417049,3.17339 4.445313,3.18555 0.02826,0.0122 -0.272408,-0.12254 -0.457032,-0.21485 4.395873,2.19794 5.573977,1.70313 8.16211,1.70313 h 12.974609 c 6.855961,0 12.633376,2.41485 18.978516,8.83203 a 12.50125,12.50125 0 0 0 0.103515,0.10351 c 6.185516,6.11188 8.839844,12.46702 8.839844,21.15039 0,8.56552 -2.652764,14.96117 -8.888672,21.19727 a 12.50125,12.50125 0 0 0 -0.05078,0.0508 c -6.346645,6.42076 -12.124295,8.83594 -18.982422,8.83594 H 27.570429 v -8.06445 -0.79297 -8.06446 h 40.896484 c 2.591405,0 3.763864,0.49699 8.164063,-1.70312 -0.185675,0.0928 -0.488473,0.22779 -0.462891,0.2168 0.02558,-0.011 0.500595,1.19663 4.419922,-3.15235 1.943061,-2.15607 3.216921,-6.44658 3.205078,-8.52344 0,-7.7e-4 10e-7,-0.001 0,-0.002 3e-6,-4.6e-4 -2e-6,-0.002 0,-0.002 0.01153,-2.05012 -1.208881,-6.26361 -3.123047,-8.42968 -3.861561,-4.36975 -4.421842,-3.20904 -4.466797,-3.22852 -0.04495,-0.0195 0.248456,0.11153 0.427735,0.20117 -4.400087,-2.20003 -5.572639,-1.70312 -8.164063,-1.70312 H 55.494257 c -6.877156,0 -12.744148,-2.41251 -19.162109,-8.73047 -6.111652,-6.19917 -8.761719,-12.65307 -8.761719,-21.35344 0,-8.5874 2.637081,-15.0051 8.771484,-21.22266 6.44266,-6.4321 12.300131,-8.86328 19.152344,-8.86328 z m 28.298828,73.33008 c -1.05e-4,-0.0168 0.01395,-0.0519 0.01367,-0.0684 -0.03439,-2.05582 -0.275927,-2.41755 -0.271484,-2.39649 0.0089,0.0421 0.257037,1.47436 0.257812,2.46485 z m 0,0.004 c 0,0.99071 -0.247044,2.41842 -0.253906,2.45117 -0.0034,0.0164 0.234064,-0.35342 0.267578,-2.38281 2.73e-4,-0.0165 -0.01378,-0.0515 -0.01367,-0.0684 z m -45.527344,-66.97852 -1.93164,2.50586 -2.558594,1.98438 a 12.50125,12.50125 0 0 0 4.490234,-4.49024 z m 21.667969,11.67383 c 0.05699,9.4e-4 0.454539,0.19834 0.548828,0.21875 h -0.664062 c -0.02253,0 -0.186099,-0.2237 0.115234,-0.21875 z m -15.175781,9.5625 c 0.006,-0.0282 -0.233987,0.32298 -0.277344,2.36719 -4.58e-4,0.0216 0.01774,0.0677 0.01758,0.0898 0.0072,-0.99341 0.247949,-2.40157 0.259766,-2.45703 z m -0.259766,2.52735 c 1.65e-4,0.0221 -0.01803,0.0682 -0.01758,0.0898 0.04224,2.01804 0.278383,2.37687 0.273438,2.35351 -0.0098,-0.0461 -0.249341,-1.44985 -0.25586,-2.44336 z m 64.947267,4.28125 0.10352,0.10156 c -0.0145,-0.0147 -0.0324,-0.0244 -0.0469,-0.0391 -0.0201,-0.0199 -0.0365,-0.0426 -0.0566,-0.0625 z m -49.626954,7.52343 h 0.660156 c -0.597433,0.12994 -0.692839,0 -0.660156,0 z m 8.533203,19.35157 c 0.300001,-0.005 0.136122,0.2207 0.115234,0.2207 h -0.667968 c 0.09512,-0.0207 0.495563,-0.21984 0.552734,-0.2207 z m -50.65625,6.78516 c 0.303398,0.32181 0.57094,0.66874 0.882812,0.98437 l -0.580078,-0.57812 z m 50.103516,17.10937 h 0.667968 c 0.02486,0 -0.07374,0.12928 -0.667968,0 z" id="path16"/>
        <path style="baseline-shift:baseline;display:inline;overflow:visible;vector-effect:none;fill:#ffffff;fill-opacity:1;stroke:none;stroke-width:25;stroke-linecap:round;stroke-linejoin:round;stroke-miterlimit:8;stroke-dasharray:none;stroke-opacity:1;paint-order:markers stroke fill;enable-background:accumulate;stop-color:#000000" d="m 114.16418,395.00648 a 12.50125,12.50125 0 0 0 -12.5,12.5 v 40.42383 c 0,12.87708 2.51742,24.62874 8.58984,34.41211 4.28044,6.89626 10.32722,12.36006 17.35743,16.3164 v 37.26563 a 12.50125,12.50125 0 0 0 12.5,12.5 h 21.625 1.32031 18.97851 a 12.50125,12.50125 0 0 0 12.5,-12.5 v -37.26563 c 7.03029,-3.95625 13.07682,-9.41987 17.35743,-16.3164 6.07175,-9.78227 8.59179,-21.53388 8.59179,-34.41211 v -40.42383 a 12.50125,12.50125 0 0 0 -12.5,-12.5 h -19.50781 -0.79297 -21.62305 a 12.50125,12.50125 0 0 0 -4.98632,2.06641 12.50125,12.50125 0 0 0 -4.98829,-2.06641 h -21.62304 -0.79297 z m 12.5,25 h 7.00586 0.79297 9.12305 v 27.92383 c 0,3.11905 1.15095,7.86576 4.30468,11.01953 a 12.50125,12.50125 0 0 0 0,0.002 c 3.15367,3.1536 7.90408,4.30273 11.01953,4.30273 h 4.32618 c 3.11545,0 7.86169,-1.14495 11.01953,-4.30273 a 12.50125,12.50125 0 0 0 0.002,-0.002 c 3.15782,-3.15786 4.30273,-7.90404 4.30273,-11.01953 v -27.92383 h 9.12305 0.79297 7.00781 v 27.92383 c 0,9.61748 -1.88137,16.47153 -4.83398,21.22851 -2.77191,4.46586 -6.63455,7.57111 -12.85156,9.81055 a 12.50125,12.50125 0 0 0 -8.26368,11.75977 v 32.69531 h -6.47851 -1.32031 -9.125 v -32.69531 a 12.50125,12.50125 0 0 0 -8.26368,-11.75977 c -6.21686,-2.23939 -10.07942,-5.34432 -12.85156,-9.81055 -2.95193,-4.75589 -4.83203,-11.60988 -4.83203,-21.22851 z" id="path18"/>
        <path style="baseline-shift:baseline;display:inline;overflow:visible;vector-effect:none;fill:#ffffff;fill-opacity:1;stroke:none;stroke-width:25;stroke-linecap:round;stroke-linejoin:round;stroke-miterlimit:8;stroke-dasharray:none;stroke-opacity:1;paint-order:markers stroke fill;enable-background:accumulate;stop-color:#000000" d="m 249.03527,395.00648 c -12.89322,0 -25.01968,5.49986 -34.83984,14.51367 l 1.00391,-0.52734 a 12.50125,12.50125 0 0 0 -3.04883,2.25976 12.50125,12.50125 0 0 0 -2.0625,2.73243 l 0.65429,-1.17579 c -9.39197,10.22354 -14.63281,23.37218 -14.63281,37.28321 0,11.7308 3.69798,22.9097 10.43164,32.26758 a 12.50125,12.50125 0 0 0 -10.43164,11.64257 v 20.56446 0.79297 20.56445 a 12.50125,12.50125 0 0 0 12.5,12.5 h 57.72266 c 13.74073,0 26.70707,-6.09861 36.74414,-16.24414 10.382,-10.39899 16.17969,-24.21381 16.17969,-38.83985 0,-11.73486 -3.74893,-22.91053 -10.55664,-32.21484 a 12.50125,12.50125 0 0 0 10.55664,-11.69531 v -20.56641 -0.79297 -20.56445 a 12.50125,12.50125 0 0 0 -12.5,-12.5 z m 0,25 h 45.22071 v 8.06445 0.79297 8.06641 h -40.89649 c -2.57833,0 -3.7429,-0.50937 -8.16406,1.70117 0.17822,-0.0891 0.47153,-0.21991 0.42383,-0.19922 -0.0477,0.0207 -0.62412,-1.14798 -4.49219,3.26172 -1.90427,2.17092 -3.08382,6.33955 -3.08008,8.39453 -0.005,2.0807 1.2257,6.3297 3.16016,8.49219 3.9267,4.38957 4.41896,3.17337 4.44726,3.18555 0.0283,0.0122 -0.27437,-0.12255 -0.45898,-0.21485 4.39575,2.19785 5.57593,1.70313 8.16406,1.70313 h 12.97266 c 6.85596,0 12.63534,2.4149 18.98047,8.83203 a 12.50125,12.50125 0 0 0 0.10156,0.10351 c 6.18552,6.11188 8.8418,12.46701 8.8418,21.15039 0,8.56552 -2.65277,14.96118 -8.88868,21.19727 a 12.50125,12.50125 0 0 0 -0.0508,0.0508 c -6.34665,6.42076 -12.12624,8.83594 -18.98437,8.83594 h -45.22266 v -8.06445 -0.79297 -8.06446 h 40.89844 c 2.5914,0 3.76376,0.49707 8.16406,-1.70312 -0.18566,0.0928 -0.49045,0.2278 -0.46484,0.2168 0.0256,-0.011 0.50243,1.19505 4.42187,-3.1543 1.94311,-2.15624 3.21701,-6.4447 3.20508,-8.52149 0,-7.7e-4 0,-0.001 0,-0.002 0,-4.6e-4 0,-0.002 0,-0.002 0.0116,-2.05006 -1.20883,-6.2615 -3.12305,-8.42773 -3.86165,-4.37006 -4.42377,-3.21098 -4.46875,-3.23047 -0.045,-0.0195 0.25043,0.11154 0.42969,0.20117 -4.4002,-2.20011 -5.57264,-1.70312 -8.16406,-1.70312 h -12.97266 c -6.87984,0 -12.74901,-2.41284 -19.16992,-8.73633 -6.10728,-6.19734 -8.75586,-12.6502 -8.75586,-21.34766 0,-8.58453 2.63584,-15.00118 8.76563,-21.21679 6.44564,-6.43764 12.30529,-8.86907 19.16017,-8.86907 z m 28.29883,73.33008 c -10e-5,-0.0168 0.014,-0.0518 0.0137,-0.0684 -0.0345,-2.05573 -0.27594,-2.41763 -0.27148,-2.39649 0.009,0.0422 0.25704,1.47429 0.25781,2.46485 z m 0,0.004 c 0,0.99077 -0.24702,2.4183 -0.2539,2.45117 -0.003,0.0164 0.23398,-0.35349 0.26757,-2.38281 2.8e-4,-0.0165 -0.0138,-0.0515 -0.0137,-0.0684 z m -45.39844,-67.20703 -2.05859,2.73047 -3.05469,2.26172 a 12.50125,12.50125 0 0 0 5.11328,-4.99219 z m 21.53907,11.90234 c 0.057,9.4e-4 0.45454,0.19834 0.54882,0.21875 h -0.66406 c -0.0225,0 -0.1861,-0.2237 0.11524,-0.21875 z m -15.17774,9.5625 c 0.006,-0.0282 -0.23191,0.32116 -0.27539,2.36523 -4.6e-4,0.0216 0.0178,0.0677 0.0176,0.0899 0.008,-0.99334 0.24596,-2.39948 0.25781,-2.45508 z m -0.25781,2.5293 c 1.7e-4,0.0222 -0.018,0.0682 -0.0176,0.0898 0.0423,2.01791 0.27645,2.37502 0.27149,2.35156 -0.01,-0.0462 -0.24702,-1.44797 -0.25391,-2.44141 z m 64.94727,4.2793 0.10351,0.10156 c -0.0145,-0.0147 -0.0323,-0.0244 -0.0469,-0.0391 -0.0201,-0.0199 -0.0365,-0.0426 -0.0566,-0.0625 z m -49.62696,7.52343 h 0.66016 c -0.59743,0.12994 -0.69284,0 -0.66016,0 z m -23.73437,9.2793 0.18164,0.17969 1.21094,1.41406 a 12.50125,12.50125 0 0 0 -1.39258,-1.59375 z m 32.26758,10.07227 c 0.3,-0.005 0.13612,0.2207 0.11523,0.2207 h -0.66797 c 0.095,-0.0207 0.4956,-0.21984 0.55274,-0.2207 z m -50.70508,6.73242 c 0.31911,0.33933 0.60117,0.70463 0.92968,1.03711 a 12.50125,12.50125 0 0 0 0.084,0.082 12.50125,12.50125 0 0 0 0.0273,0.0332 l -0.66406,-0.63086 z m 1.05664,1.16601 c 0.0103,0.0102 0.0228,0.0171 0.0332,0.0273 a 12.50125,12.50125 0 0 0 0.12305,0.1211 z m 49.0957,15.9961 h 0.66797 c 0.0248,0 -0.0739,0.12918 -0.66797,0 z" id="path20"/>
        <path style="baseline-shift:baseline;display:inline;overflow:visible;vector-effect:none;fill:#ffffff;fill-opacity:1;stroke:none;stroke-width:25;stroke-linecap:round;stroke-linejoin:round;stroke-miterlimit:8;stroke-dasharray:none;stroke-opacity:1;paint-order:markers stroke fill;enable-background:accumulate;stop-color:#000000" d="m 307.53918,395.00648 a 12.50125,12.50125 0 0 0 -12.5,12.5 v 21.62305 0.79297 19.50781 a 12.50125,12.50125 0 0 0 12.5,12.5 h 17.77344 v 73.99414 a 12.50125,12.50125 0 0 0 12.5,12.5 h 21.625 0.79297 19.50586 a 12.50125,12.50125 0 0 0 12.5,-12.5 v -73.99414 h 17.77343 a 12.50125,12.50125 0 0 0 12.5,-12.5 v -19.50781 -0.79297 -21.62305 a 12.50125,12.50125 0 0 0 -12.5,-12.5 z m 12.5,25 h 77.4707 v 9.12305 0.79297 7.00781 h -17.77343 a 12.50125,12.50125 0 0 0 -12.5,12.5 v 73.99414 h -7.00586 -0.79297 -9.125 v -73.99414 a 12.50125,12.50125 0 0 0 -12.5,-12.5 h -17.77344 v -7.00781 -0.79297 z" id="path23"/>
        <path style="baseline-shift:baseline;display:inline;overflow:visible;vector-effect:none;fill:#ffffff;fill-opacity:1;stroke:none;stroke-width:25;stroke-linecap:round;stroke-linejoin:round;stroke-miterlimit:8;stroke-dasharray:none;stroke-opacity:1;paint-order:markers stroke fill;enable-background:accumulate;stop-color:#000000" d="m 451.43176,395.00648 c -15.3222,0 -29.29854,4.03487 -39.09375,13.83008 -9.79521,9.79521 -13.83008,23.77155 -13.83008,39.09375 v 47.57226 c 0,15.3222 4.03576,29.29553 13.83008,39.08985 9.79521,9.79521 23.77155,13.83203 39.09375,13.83203 h 43.17187 8.72461 10.38867 0.52344 22.25586 a 12.50125,12.50125 0 0 0 11.86328,-8.5586 l 8.45703,-25.45703 9.35352,25.7793 a 12.50125,12.50125 0 0 0 11.75,8.23633 h 4.16211 a 12.50125,12.50125 0 0 0 11.75,-8.23633 l 9.35547,-25.7793 8.45508,25.45508 a 12.50125,12.50125 0 0 0 11.86328,8.56055 h 22.2539 4.23047 17.53711 A 12.50125,12.50125 0 0 0 679.3009,531.72132 L 639.04309,418.9557 c -4.58819,-12.85233 -16.11547,-22.04175 -29.66797,-23.64649 -10.93379,-1.29467 -21.68691,2.58315 -29.375,10.10547 -7.68751,-7.52156 -18.43791,-11.40005 -29.3711,-10.10547 -13.55221,1.60473 -25.08137,10.79255 -29.66992,23.64649 l -3.63086,10.17187 v -21.62109 a 12.50125,12.50125 0 0 0 -12.5,-12.5 z m 0,25 h 40.89648 v 9.12305 0.79297 7.00781 h -36.57226 c -3.10456,0 -7.85113,1.13235 -11.02149,4.30273 -2.1578,2.1578 -2.75972,3.82359 -3.21875,5.00977 a 12.50125,12.50125 0 0 0 11.65821,17.01172 h 26.18164 v 6.47656 1.32226 9.12305 h -26.18164 a 12.50125,12.50125 0 0 0 -11.65821,17.01172 c 0.45719,1.18142 1.05145,2.84246 3.21875,5.00977 3.15793,3.15795 7.90609,4.30468 11.02149,4.30468 h 38.46484 a 12.50125,12.50125 0 0 0 22.38086,-0.97851 l 27.90234,-78.16211 c 1.411,-3.95263 4.89525,-6.73093 9.06446,-7.22461 4.16974,-0.49374 8.20865,1.39244 10.5039,4.90625 l 5.46485,8.36523 a 12.50125,12.50125 0 0 0 20.93164,-0.002 l 5.46093,-8.36328 c 2.29498,-3.51322 6.33433,-5.39997 10.50391,-4.90625 4.16896,0.49364 7.65483,3.27054 9.06641,7.22461 l 34.29297,96.0625 h -4.03321 -13.23437 l -16.95117,-51.03706 a 12.50125,12.50125 0 0 0 -23.61329,-0.32422 l -11.95898,32.95117 -11.95703,-32.95117 a 12.50125,12.50125 0 0 0 -23.61328,0.32227 l -16.95508,51.03906 h -13.23633 -0.52344 -10.38867 -8.72461 -43.17187 c -11.12646,0 -17.52969,-2.62344 -21.41602,-6.50977 -3.88722,-3.88722 -6.50781,-10.28564 -6.50781,-21.41211 v -47.57226 c 0,-11.12646 2.62148,-17.52969 6.50781,-21.41602 3.88633,-3.88633 10.28956,-6.50781 21.41602,-6.50781 z m 54.32422,41.53906 -1.40039,3.92188 v -3.53711 h 0.47265 a 12.50125,12.50125 0 0 0 0.92774,-0.38477 z" id="path26"/>
        <path style="baseline-shift:baseline;display:inline;overflow:visible;vector-effect:none;fill:#ffffff;fill-opacity:1;stroke:none;stroke-width:25;stroke-linecap:round;stroke-linejoin:round;stroke-miterlimit:8;stroke-dasharray:none;stroke-opacity:1;paint-order:markers stroke fill;enable-background:accumulate;stop-color:#000000" d="m 720.66809,395.00648 c -12.89221,0 -25.01618,5.4992 -34.83594,14.51172 l 1,-0.52539 a 12.50125,12.50125 0 0 0 -3.04688,2.25976 12.50125,12.50125 0 0 0 -2.0625,2.73243 l 0.65235,-1.17579 c -9.39199,10.22349 -14.63086,23.37246 -14.63086,37.28321 0,11.7308 3.69798,22.9097 10.43164,32.26758 a 12.50125,12.50125 0 0 0 -10.43164,11.64257 v 20.56446 0.79297 20.56445 a 12.50125,12.50125 0 0 0 12.5,12.5 h 57.72265 c 13.74343,0 26.71212,-6.10089 36.75,-16.25 10.37766,-10.3982 16.17188,-24.21119 16.17188,-38.83399 0,-11.73539 -3.74639,-22.91224 -10.55469,-32.21679 a 12.50125,12.50125 0 0 0 10.55469,-11.69336 v -20.56641 -0.79297 -20.56445 a 12.50125,12.50125 0 0 0 -12.5,-12.5 z m 0,25 h 45.2207 v 8.06445 0.79297 8.06641 H 724.9923 c -2.57832,0 -3.74094,-0.50937 -8.1621,1.70117 0.17822,-0.0891 0.47153,-0.21991 0.42382,-0.19922 -0.0477,0.0207 -0.62411,-1.14798 -4.49218,3.26172 -1.90428,2.17092 -3.08578,6.33955 -3.08204,8.39453 -0.005,2.0807 1.22765,6.3297 3.16211,8.49219 3.92671,4.38957 4.41897,3.17337 4.44727,3.18555 0.0283,0.0122 -0.27438,-0.12255 -0.45898,-0.21485 4.39574,2.19785 5.57397,1.70313 8.1621,1.70313 h 12.97461 c 6.85597,0 12.63339,2.4149 18.97852,8.83203 a 12.50125,12.50125 0 0 0 0.10352,0.10351 c 6.18551,6.11188 8.83984,12.46701 8.83984,21.15039 0,8.56552 -2.65081,14.96118 -8.88672,21.19727 a 12.50125,12.50125 0 0 0 -0.0527,0.0508 c -6.34666,6.42076 -12.12429,8.83594 -18.98243,8.83594 h -45.22265 v -8.06445 -0.79297 -8.06446 h 40.89648 c 2.59141,0 3.76376,0.49707 8.16406,-1.70312 -0.18566,0.0928 -0.4885,0.2278 -0.46289,0.2168 0.0256,-0.011 0.50244,1.19505 4.42188,-3.1543 1.94311,-2.15624 3.21505,-6.4447 3.20312,-8.52149 0,-7.7e-4 0,-0.001 0,-0.002 10e-6,-4.6e-4 0,-0.002 0,-0.002 0.0116,-2.05006 -1.20883,-6.2615 -3.12304,-8.42773 -3.86166,-4.37006 -4.42182,-3.21098 -4.4668,-3.23047 -0.045,-0.0195 0.24847,0.11154 0.42773,0.20117 -4.40019,-2.20011 -5.57263,-1.70312 -8.16406,-1.70312 h -12.97265 c -6.87984,0 -12.74706,-2.41284 -19.16797,-8.73633 -6.10729,-6.19734 -8.75586,-12.65019 -8.75586,-21.34766 0,-8.58453 2.63561,-15.00118 8.76562,-21.21679 6.4456,-6.43764 12.3033,-8.86907 19.15818,-8.86907 z m 28.29882,73.33008 c -10e-5,-0.0168 0.014,-0.0518 0.0137,-0.0684 -0.0345,-2.05573 -0.27595,-2.41763 -0.27149,-2.39649 0.009,0.0422 0.25704,1.47429 0.25781,2.46485 z m 0,0.004 c 0,0.99077 -0.24701,2.4183 -0.2539,2.45117 -0.003,0.0164 0.23399,-0.35349 0.26758,-2.38281 2.7e-4,-0.0165 -0.0138,-0.0515 -0.0137,-0.0684 z m -45.39648,-67.20703 -2.05859,2.73047 -3.05469,2.26172 a 12.50125,12.50125 0 0 0 5.11328,-4.99219 z m 21.53711,11.90235 c 0.057,9.3e-4 0.45454,0.19834 0.54883,0.21875 h -0.66407 c -0.0225,0 -0.1861,-0.22371 0.11524,-0.21875 z m -15.17578,9.5625 c 0.006,-0.0282 -0.23387,0.32116 -0.27735,2.36523 -4.5e-4,0.0216 0.0177,0.0677 0.0176,0.0898 0.008,-0.99334 0.24792,-2.39947 0.25977,-2.45508 z m -0.25977,2.52929 c 1.7e-4,0.0222 -0.018,0.0682 -0.0176,0.0898 0.0424,2.01792 0.27841,2.37502 0.27344,2.35157 -0.01,-0.0462 -0.24897,-1.44797 -0.25586,-2.44141 z m 64.94922,4.2793 0.10156,0.10156 c -0.0115,-0.0117 -0.0256,-0.0196 -0.0371,-0.0312 -0.0227,-0.0225 -0.0417,-0.0478 -0.0644,-0.0703 z m -49.62891,7.52344 h 0.66211 c -0.59763,0.13003 -0.69479,0 -0.66211,0 z m -23.73437,9.27929 0.18359,0.17969 1.21875,1.42383 a 12.50125,12.50125 0 0 0 -1.40234,-1.60352 z m 32.26758,10.07227 c 0.3,-0.005 0.13612,0.2207 0.11523,0.2207 h -0.66797 c 0.0951,-0.0207 0.49557,-0.21983 0.55274,-0.2207 z m -50.70703,6.72852 c 0.32033,0.3407 0.60378,0.70722 0.93359,1.04101 a 12.50125,12.50125 0 0 0 0.0859,0.0859 12.50125,12.50125 0 0 0 0.0312,0.0352 c 0.011,0.0109 0.0241,0.0184 0.0352,0.0293 a 12.50125,12.50125 0 0 0 0.12891,0.12696 l -0.16406,-0.15625 -0.67188,-0.63672 z m 50.15429,17.16601 h 0.66797 c 0.0249,0 -0.0737,0.12929 -0.66797,0 z" id="path29"/>
        <path style="baseline-shift:baseline;display:inline;overflow:visible;vector-effect:none;fill:#ffffff;fill-opacity:1;stroke:none;stroke-width:25;stroke-linecap:round;stroke-linejoin:round;stroke-miterlimit:8;stroke-dasharray:none;stroke-opacity:1;paint-order:markers stroke fill;enable-background:accumulate;stop-color:#000000" d="m 779.33215,395.00648 a 12.50125,12.50125 0 0 0 -12.5,12.5 v 19.50586 0.79297 22.94922 0.79297 84.37695 a 12.50125,12.50125 0 0 0 12.5,12.5 h 21.62305 1.32226 18.97656 a 12.50125,12.50125 0 0 0 12.5,-12.5 V 505.1764 h 7.625 c 13.70595,0 26.65953,-6.01303 36.71289,-16.0664 10.42227,-10.42228 16.20899,-24.30891 16.20899,-39.01758 0,-14.62605 -5.79496,-28.44235 -16.17774,-38.8418 -10.03715,-10.14529 -23.0034,-16.24414 -36.74414,-16.24414 z m 12.5,25 h 49.54687 c 6.85813,0 12.63532,2.41493 18.98243,8.83594 a 12.50125,12.50125 0 0 0 0.0527,0.0527 c 6.23513,6.23513 8.88672,12.63175 8.88672,21.19726 0,8.68424 -2.66651,15.11963 -8.88672,21.33985 -6.339,6.339 -12.13741,8.74414 -19.03516,8.74414 h -20.125 a 12.50125,12.50125 0 0 0 -12.5,12.5 v 30.74804 h -6.47656 -1.32226 -9.12305 v -71.87694 -0.79297 -22.94922 -0.79297 z" id="path32"/>
    </g>
    <g id="g44" style="display:none;fill:#ffffff;fill-opacity:1;stroke:#ffffff;stroke-width:24;stroke-linecap:round;stroke-linejoin:round;stroke-miterlimit:0;stroke-dasharray:none;stroke-opacity:1" transform="translate(13.499393,163.80651)">
        <path id="path57" style="stroke:none;paint-order:fill markers stroke" d="m 38.923889,-13.499979 c -12.862288,0 -24.950141,5.5055702 -34.7322467,14.5763713 L 4.8515503,0.68933581 A 12.0012,12.0012 0 0 0 2.396403,2.5956794 12.0012,12.0012 0 0 0 0.53915205,5.0017341 L 1.1210287,4.0038622 C -8.2733922,14.161143 -13.499784,27.227648 -13.499784,41.085836 c 0,11.83806 3.7850644,23.086112 10.6851356,32.455384 A 12.0012,12.0012 0 0 0 -13.499784,84.996335 v 20.564115 0.79324 20.56412 A 12.0012,12.0012 0 0 0 -1.5,138.91811 h 57.722575 c 13.599755,0 26.418572,-6.02344 36.380725,-16.08998 10.30357,-10.31649 16.0414,-23.986068 16.0414,-38.494287 0,-11.843159 -3.83936,-23.086937 -10.816396,-32.40009 A 12.0012,12.0012 0 0 0 108.6447,40.423861 V 19.857675 19.064442 -1.5001946 A 12.0012,12.0012 0 0 0 96.644397,-13.499979 Z m 53.599313,59.255815 0.09973,0.09767 c -0.01417,-0.01433 -0.03078,-0.02495 -0.04496,-0.03927 -0.01911,-0.01893 -0.03564,-0.03948 -0.05478,-0.05839 z M 1.521521,78.755889 c 0.2894783,0.306455 0.5445456,0.636566 0.8418091,0.93741 L 1.808842,79.138811 Z"/>
        <path id="path55" style="stroke:none;paint-order:fill markers stroke" d="M 97.593693,-13.499979 A 12.0012,12.0012 0 0 0 85.593909,-1.5001946 V 38.923695 c 0,12.811914 2.505227,24.466007 8.515242,34.14882 4.289437,6.91076 10.353749,12.384559 17.432009,16.312182 v 37.533113 a 12.0012,12.0012 0 0 0 11.99979,12.0003 h 21.62503 1.32034 18.97868 a 12.0012,12.0012 0 0 0 11.99979,-12.0003 V 89.384697 c 7.07833,-3.927533 13.14189,-9.401158 17.43149,-16.312182 6.00937,-9.681766 8.51783,-21.335802 8.51783,-34.14882 V -1.5001946 a 12.0012,12.0012 0 0 0 -12.0003,-11.9997844 h -19.50734 -0.79323 -21.62297 a 12.0012,12.0012 0 0 0 -4.98626,2.066541 12.0012,12.0012 0 0 0 -4.98833,-2.066541 h -21.62297 -0.79323 z"/>
        <path id="path53" style="stroke:none;paint-order:fill markers stroke" d="m 232.46505,-13.499979 c -12.79349,0 -24.8174,5.4565947 -34.57257,14.43942874 l 0.96893,-0.50952962 a 12.0012,12.0012 0 0 0 -2.92798,2.16782638 12.0012,12.0012 0 0 0 -1.97818,2.6230957 l 0.62891,-1.1311971 c -9.34469,10.1453399 -14.54485,23.1764319 -14.54485,36.9961909 0,11.837525 3.78772,23.084295 10.6872,32.453317 a 12.0012,12.0012 0 0 0 -10.6872,11.457182 v 20.564115 0.79324 20.56412 a 12.0012,12.0012 0 0 0 11.99978,12.0003 h 57.72258 c 13.60333,0 26.4252,-6.02641 36.38847,-16.09773 10.29922,-10.31568 16.0352,-23.981574 16.0352,-38.486537 0,-11.843157 -3.83935,-23.086935 -10.81639,-32.40009 A 12.0012,12.0012 0 0 0 302.18534,40.423861 V 19.857675 19.064442 -1.5001946 A 12.0012,12.0012 0 0 0 290.18556,-13.499979 Z m 53.59931,59.255815 0.0997,0.09767 c -0.0142,-0.01433 -0.0308,-0.02495 -0.045,-0.03927 -0.0191,-0.01893 -0.0357,-0.03948 -0.0548,-0.05839 z m -91.04871,32.94941 c 0.30469,0.323338 0.57344,0.670944 0.88677,0.988053 a 12.0012,12.0012 0 0 0 0.0801,0.07803 12.0012,12.0012 0 0 0 0.0253,0.02946 l -0.63459,-0.601514 z m 1.0139,1.117244 c 0.009,0.0089 0.0199,0.01433 0.0289,0.02325 a 12.0012,12.0012 0 0 0 0.11524,0.113172 z"/>
        <path id="path51" style="stroke:none;paint-order:fill markers stroke" d="m 290.96897,-13.499979 a 12.0012,12.0012 0 0 0 -12.0003,11.9997844 v 21.6234866 0.792716 19.507853 a 12.0012,12.0012 0 0 0 12.0003,11.999785 h 18.2733 v 74.494164 a 12.0012,12.0012 0 0 0 11.99979,12.0003 h 21.62503 0.79324 19.50578 a 12.0012,12.0012 0 0 0 11.99979,-12.0003 V 52.423646 h 18.2733 A 12.0012,12.0012 0 0 0 405.4395,40.423861 V 20.916008 20.123292 -1.5001946 A 12.0012,12.0012 0 0 0 393.4392,-13.499979 Z"/>
        <path id="path49" style="stroke:none;paint-order:fill markers stroke" d="m 434.86148,-13.499979 c -15.23829,0 -29.06323,4.0063708 -38.74027,13.68340254 C 386.44418,9.8604542 382.43729,23.68541 382.43729,38.923695 v 47.57229 c 0,15.238285 4.00775,29.060485 13.68392,38.736655 9.67704,9.67703 23.50198,13.68547 38.74027,13.68547 h 43.17152 8.72505 10.38852 0.52348 22.25549 a 12.0012,12.0012 0 0 0 11.38897,-8.21707 l 8.91005,-26.82007 9.84591,27.13064 a 12.0012,12.0012 0 0 0 11.2789,7.9065 h 4.16253 a 12.0012,12.0012 0 0 0 11.2789,-7.9065 l 9.84798,-27.13271 8.90798,26.82214 a 12.0012,12.0012 0 0 0 11.38897,8.21707 h 22.25394 4.23023 17.53692 a 12.0012,12.0012 0 0 0 11.30111,-16.0352 L 622.00199,10.117184 c -4.52465,-12.6743593 -15.89281,-21.73389 -29.25764,-23.316406 -10.94817,-1.296376 -21.71185,2.662445 -29.31294,10.3084146 -7.60058,-7.6462006 -18.36567,-11.6047926 -29.31397,-10.3084146 -13.36455,1.5825 -24.73317,10.6404919 -29.25817,23.316406 L 500.258,23.00787 V 20.916008 20.123292 -1.5001946 A 12.0012,12.0012 0 0 0 488.2577,-13.499979 Z m 55.15632,65.195504 -2.73265,7.652246 v -6.924125 h 0.97255 a 12.0012,12.0012 0 0 0 1.7601,-0.728121 z"/>
        <path id="path47" style="stroke:none;paint-order:fill markers stroke" d="m 704.09776,-13.499979 c -12.79172,0 -24.8119,5.454739 -34.56637,14.43529462 l 0.96273,-0.5053955 a 12.0012,12.0012 0 0 0 -2.92592,2.16782638 12.0012,12.0012 0 0 0 -1.98024,2.6230957 l 0.62477,-1.124996 c -9.3415,10.1445158 -14.53865,23.1729998 -14.53865,36.9899898 0,11.838059 3.78507,23.086111 10.68514,32.455384 a 12.0012,12.0012 0 0 0 -10.68514,11.455115 v 20.564115 0.79324 20.56412 a 12.0012,12.0012 0 0 0 11.99979,12.0003 h 57.72257 c 13.60334,0 26.4252,-6.02641 36.38848,-16.09773 10.29922,-10.31568 16.03365,-23.981574 16.03365,-38.486537 0,-11.843157 -3.83936,-23.086935 -10.8164,-32.40009 a 12.0012,12.0012 0 0 0 10.8164,-11.509892 V 19.857675 19.064442 -1.5001946 a 12.0012,12.0012 0 0 0 -12.0003,-11.9997844 z m 53.60138,59.255815 0.0977,0.09767 c -0.0116,-0.01168 -0.0256,-0.01934 -0.0372,-0.03101 -0.0214,-0.02124 -0.039,-0.04545 -0.0605,-0.06666 z m -91.05646,32.939591 c 0.30739,0.326358 0.57831,0.677858 0.89452,0.997872 a 12.0012,12.0012 0 0 0 0.0822,0.08217 12.0012,12.0012 0 0 0 0.031,0.03514 c 0.011,0.01089 0.024,0.01857 0.0351,0.02945 a 12.0012,12.0012 0 0 0 0.12092,0.118856 l -0.15606,-0.148311 -0.6444,-0.611333 z"/>
        <path id="path45" style="stroke:none;paint-order:fill markers stroke" d="m 762.76188,-13.499979 a 12.0012,12.0012 0 0 0 -12.0003,11.9997844 v 19.5063026 0.792717 22.948987 0.793233 84.376765 a 12.0012,12.0012 0 0 0 12.0003,12.0003 h 21.62297 1.3224 18.9761 a 12.0012,12.0012 0 0 0 12.0003,-12.0003 V 95.670102 h 8.12509 c 13.56979,0 26.37994,-5.940873 36.35902,-15.919959 10.33823,-10.338231 16.06258,-24.076126 16.06258,-38.664307 0,-14.504969 -5.73317,-28.171975 -16.03313,-38.4880895 -9.96337,-10.0710827 -22.78513,-16.0977255 -36.38847,-16.0977255 z"/>
    </g>
    <g id="g21" style="display:inline;fill:#000000;fill-opacity:1;stroke:#000000;stroke-width:5;stroke-dasharray:none" transform="translate(13.499393,163.80651)">
        <path id="path22" style="display:inline;fill:#000000;fill-opacity:1;stroke:#000000;stroke-width:3;stroke-linecap:square;stroke-miterlimit:8;stroke-dasharray:none;stroke-opacity:1;paint-order:fill markers stroke" d="m 38.923722,-1.5001668 c -10.306694,0 -19.729803,4.2594298 -28.019478,12.5491048 l -0.0021,0.0036 -0.0036,0.0021 C 2.6770418,19.375188 -1.5001828,29.48676 -1.5001828,41.08588 c 0,11.692216 4.1750921,21.851162 12.3987268,30.173869 l 0.0057,0.0057 0.0062,0.0083 c 8.290954,8.192258 17.711437,12.396142 28.013277,12.396142 h 12.972852 c 1.316591,0 2.210979,0.201412 2.574003,0.382923 0.363025,0.181512 0.252181,0.06033 0.252181,0.281119 0,0.220798 0.110843,0.09806 -0.252181,0.27957 -0.363024,0.181513 -1.257413,0.382922 -2.574003,0.382922 H -1.5001668 v 20.564635 0.7922 20.56515 H 56.222408 c 10.303707,0 19.68008,-4.26027 27.873234,-12.5491 8.319138,-8.31939 12.549105,-18.431982 12.549105,-30.035377 0,-11.696452 -4.229073,-21.81601 -12.554789,-30.04261 C 75.898239,46.006598 66.523576,41.747839 56.222408,41.747839 H 43.248006 c -1.316593,0 -2.209427,-0.200892 -2.572453,-0.382405 -0.363026,-0.181513 -0.251664,-0.05877 -0.251664,-0.27957 0,-0.220796 -0.111362,-0.09961 0.251664,-0.28112 0.363026,-0.181512 1.25586,-0.380855 2.572453,-0.380855 H 96.644747 V 19.857186 19.064469 -1.5001668 Z"/>
        <path id="path24" style="fill:#000000;fill-opacity:1;stroke:#000000;stroke-width:3;stroke-linecap:square;stroke-miterlimit:8;stroke-dasharray:none;stroke-opacity:1;paint-order:fill markers stroke" d="M 97.593526,-1.5001668 V 38.923722 c 0,11.247856 2.199037,20.550898 6.711214,27.820524 4.32846,6.973631 10.84104,11.954432 19.23604,14.978414 v 45.19517 h 21.62504 1.31981 18.97921 V 81.72266 c 8.395,-3.023982 14.90809,-8.004783 19.23655,-14.978414 4.51218,-7.269626 6.71277,-16.572668 6.71277,-27.820524 V -1.5001668 H 171.90579 171.11307 149.4901 V 38.923722 c 0,1.191593 -0.2751,1.814535 -0.64234,2.181779 -0.36725,0.367243 -0.99019,0.642338 -2.18178,0.642338 h -4.32635 c -1.19159,0 -1.81401,-0.275095 -2.18126,-0.642338 -0.36724,-0.367244 -0.64285,-0.990186 -0.64285,-2.181779 V -1.5001668 h -21.62297 -0.7922 z"/>
        <path id="path36" style="display:inline;fill:#000000;fill-opacity:1;stroke:#000000;stroke-width:3;stroke-linecap:square;stroke-miterlimit:8;stroke-dasharray:none;stroke-opacity:1;paint-order:fill markers stroke" d="m 232.46389,-1.5001668 c -10.3067,0 -19.7298,4.2594298 -28.01948,12.5491048 l -0.002,0.0036 -0.004,0.0021 C 196.21722,19.375172 192.04,29.486744 192.04,41.085864 c 0,11.692216 4.17509,21.851162 12.39873,30.173869 l 0.006,0.0057 0.006,0.0083 c 8.29096,8.192258 17.71144,12.396142 28.01328,12.396142 h 12.97285 c 1.31659,0 2.21098,0.201412 2.574,0.382923 0.36303,0.181512 0.25218,0.06033 0.25218,0.281119 0,0.220798 0.11085,0.09806 -0.25218,0.27957 -0.36302,0.181513 -1.25741,0.382922 -2.574,0.382922 H 192.04 v 20.564641 0.7922 20.56515 h 57.72257 c 10.30371,0 19.68008,-4.26027 27.87324,-12.5491 8.31914,-8.31939 12.5491,-18.431988 12.5491,-30.035383 0,-11.696452 -4.22907,-21.81601 -12.55479,-30.04261 -8.19171,-8.284662 -17.56638,-12.543421 -27.86755,-12.543421 h -12.9744 c -1.31659,0 -2.20942,-0.200892 -2.57245,-0.382405 -0.36303,-0.181513 -0.25166,-0.05877 -0.25166,-0.27957 0,-0.220796 -0.11137,-0.09961 0.25166,-0.28112 0.36303,-0.181512 1.25586,-0.380855 2.57245,-0.380855 h 53.39674 V 19.857186 19.064469 -1.5001668 Z"/>
        <path id="path28" style="fill:#000000;fill-opacity:1;stroke:#000000;stroke-width:3;stroke-linecap:square;stroke-miterlimit:8;stroke-dasharray:none;stroke-opacity:1;paint-order:fill markers stroke" d="m 290.9688,-1.5001668 v 21.6229698 0.792716 19.50837 h 30.27361 v 86.493941 h 21.62503 0.7922 19.50631 V 40.423889 h 30.2736 V 20.915519 20.122803 -1.5001668 Z"/>
        <path id="path30" style="fill:#000000;fill-opacity:1;stroke:#000000;stroke-width:3;stroke-linecap:square;stroke-miterlimit:8;stroke-dasharray:none;stroke-opacity:1;paint-order:fill markers stroke" d="m 434.86131,-1.5001668 c -13.22433,0 -23.4132,3.3291517 -30.25397,10.1699218 -6.84077,6.84077 -10.16992,17.029636 -10.16992,30.253967 v 47.57229 c 0,13.224331 3.32915,23.411128 10.16992,30.251898 6.84077,6.84077 17.02964,10.16992 30.25397,10.16992 h 43.17204 8.72454 10.38903 0.52296 22.25601 l 19.79879,-59.597391 21.62504,59.597391 h 4.16202 l 21.62865,-59.597391 19.79517,59.597391 h 22.25394 4.23127 17.5364 L 610.70122,14.152108 C 607.70134,5.7489098 600.19466,-0.23393632 591.33393,-1.2831258 582.47327,-2.3323198 573.77428,1.7308235 568.89447,9.2009888 L 563.43176,17.56637 557.96698,9.2009888 C 553.08741,1.7308261 544.38973,-2.3323085 535.52907,-1.2831258 526.66836,-0.23392701 519.16,5.7488222 516.16023,14.152108 L 488.25805,92.314262 V 84.995846 H 439.1856 c -1.19159,0 -1.81453,-0.275086 -2.18178,-0.642339 -0.16025,-0.16025 -0.29065,-0.399815 -0.4005,-0.683679 H 475.2852 V 62.046859 60.725492 41.747839 h -38.68188 c 0.10985,-0.283864 0.24025,-0.522912 0.4005,-0.683162 0.36725,-0.367252 0.99019,-0.640788 2.18178,-0.640788 h 49.07245 V 20.915519 20.122803 -1.5001668 Z"/>
        <path id="path35" style="display:inline;fill:#000000;fill-opacity:1;stroke:#000000;stroke-width:3;stroke-linecap:square;stroke-miterlimit:8;stroke-dasharray:none;stroke-opacity:1;paint-order:fill markers stroke" d="m 704.09789,-1.5001668 c -10.3067,0 -19.7298,4.2594298 -28.01948,12.5491048 l -0.002,0.0036 -0.004,0.0021 c -8.22151,8.32055 -12.39873,18.432122 -12.39873,30.031242 0,11.692216 4.17509,21.851162 12.39873,30.173869 l 0.006,0.0057 0.006,0.0083 c 8.29096,8.192258 17.71144,12.396142 28.01328,12.396142 h 12.97285 c 1.31659,0 2.21098,0.201412 2.574,0.382923 0.36303,0.181512 0.25218,0.06033 0.25218,0.281119 0,0.220798 0.11085,0.09806 -0.25218,0.27957 -0.36302,0.181513 -1.25741,0.382922 -2.574,0.382922 H 663.674 v 20.564635 0.7922 20.56515 h 57.72257 c 10.30371,0 19.68008,-4.26027 27.87324,-12.5491 8.31914,-8.31939 12.5491,-18.431982 12.5491,-30.035377 0,-11.696452 -4.22907,-21.81601 -12.55479,-30.04261 -8.19171,-8.284662 -17.56638,-12.543421 -27.86755,-12.543421 h -12.9744 c -1.31659,0 -2.20942,-0.200892 -2.57245,-0.382405 -0.36303,-0.181513 -0.25166,-0.05877 -0.25166,-0.27957 0,-0.220796 -0.11137,-0.09961 0.25166,-0.28112 0.36303,-0.181512 1.25586,-0.380855 2.57245,-0.380855 h 53.39674 V 19.857186 19.064469 -1.5001668 Z"/>
        <path id="path34" style="fill:#000000;fill-opacity:1;stroke:#000000;stroke-width:3;stroke-linecap:square;stroke-miterlimit:8;stroke-dasharray:none;stroke-opacity:1;paint-order:fill markers stroke" d="m 762.76171,-1.5001668 v 19.5063028 0.792717 22.948986 0.792717 84.377274 h 21.62349 1.32136 18.97714 V 83.669828 h 20.12539 c 10.30185,0 19.67653,-4.208224 27.87271,-12.404411 8.32124,-8.321242 12.54911,-18.4831 12.54911,-30.179553 0,-11.603394 -4.22997,-21.717788 -12.54911,-30.036926 -8.19343,-8.2888298 -17.56952,-12.5491048 -27.87323,-12.5491048 z"/>
    </g>
    <g id="g15" style="display:inline;fill:url(#linearGradient37);stroke:none;stroke-width:1;stroke-linecap:square;stroke-linejoin:miter;stroke-dasharray:none;stroke-opacity:1" transform="translate(13.499393,163.80651)">
        <path d="M 0,41.08537 Q 0,24.21874 11.96522,12.10937 24.07459,0 38.92298,0 h 56.22208 v 17.2991 h -51.8973 q -11.96521,0 -19.02901,7.0638 -6.91964,7.0638 -6.91964,16.72247 0,9.80282 6.91964,16.86662 7.0638,6.91964 19.02901,6.91964 h 8.64955 q 10.2353,0 15.85751,5.76637 5.76637,5.62221 5.76637,13.69512 0,7.92876 -5.76637,13.69513 -5.62221,5.76636 -15.85751,5.76636 H 0 v -17.2991 h 51.89731 q 4.32477,0 4.32477,-2.16239 0,-2.16238 -4.32477,-2.16238 H 38.92298 q -14.84839,0 -26.95776,-11.96522 Q 0,58.09615 0,41.08537 Z m 21.62388,0 q 0,-7.92876 5.62221,-13.69512 5.76637,-5.76637 16.00167,-5.76637 h 51.8973 v 17.2991 h -51.8973 q -4.32478,0 -4.32478,2.16239 0,2.16239 4.32478,2.16239 h 12.97432 q 14.8484,0 26.81361,12.10937 12.10937,11.96521 12.10937,28.97599 0,16.86663 -12.10937,28.976 -11.96521,12.10937 -26.81361,12.10937 H 0 v -17.2991 h 51.89731 q 11.96521,0 18.88485,-7.0638 7.0638,-7.0638 7.0638,-16.72247 0,-9.80282 -7.0638,-16.72246 -6.91964,-7.0638 -18.88485,-7.0638 h -8.64955 q -10.2353,0 -16.00167,-5.62221 -5.62221,-5.76637 -5.62221,-13.83928 z" id="text1" style="font-size:147.619px;line-height:0;font-family:NiseSega;letter-spacing:0px;word-spacing:0px;fill:url(#linearGradient58);stroke:none;stroke-width:1;stroke-linecap:square;stroke-linejoin:miter;stroke-miterlimit:8;stroke-dasharray:none;stroke-opacity:1;paint-order:fill markers stroke" aria-label="S"/>
        <path d="M 172.61404,38.92298 V 0 h 17.2991 v 38.92298 q 0,33.15661 -25.94865,41.80616 v 44.68935 H 146.66538 V 64.87163 h 4.32478 q 21.62388,0 21.62388,-25.94865 z m -73.52119,0 V 0 h 17.29911 v 38.92298 q 0,25.94865 21.62387,25.94865 h 4.32478 v 60.54686 h -17.2991 V 80.72914 Q 99.09285,72.07959 99.09285,38.92298 Z m 69.19641,0 q 0,21.62388 -17.2991,21.62388 h -12.97433 q -17.2991,0 -17.2991,-21.62388 V 0 h 17.2991 v 38.92298 q 0,4.32478 4.32478,4.32478 h 4.32477 q 4.32478,0 4.32478,-4.32478 V 0 h 17.2991 z" id="text1-8" style="font-size:147.619px;line-height:0;font-family:NiseSega;letter-spacing:0px;word-spacing:0px;fill:url(#linearGradient59);stroke:none;stroke-width:1;stroke-linecap:square;stroke-linejoin:miter;stroke-miterlimit:8;stroke-dasharray:none;stroke-opacity:1;paint-order:fill markers stroke" aria-label="Y"/>
        <path d="m 193.54079,41.08537 q 0,-16.86663 11.96521,-28.976 Q 217.61537,0 232.46377,0 h 56.22208 v 17.2991 h -51.8973 q -11.96522,0 -19.02902,7.0638 -6.91964,7.0638 -6.91964,16.72247 0,9.80282 6.91964,16.86662 7.0638,6.91964 19.02902,6.91964 h 8.64955 q 10.2353,0 15.85751,5.76637 5.76636,5.62221 5.76636,13.69512 0,7.92876 -5.76636,13.69513 -5.62221,5.76636 -15.85751,5.76636 h -51.89731 v -17.2991 h 51.89731 q 4.32477,0 4.32477,-2.16239 0,-2.16238 -4.32477,-2.16238 h -12.97433 q -14.8484,0 -26.95777,-11.96522 -11.96521,-12.10937 -11.96521,-29.12015 z m 21.62388,0 q 0,-7.92876 5.62221,-13.69512 5.76636,-5.76637 16.00167,-5.76637 h 51.8973 v 17.2991 h -51.8973 q -4.32478,0 -4.32478,2.16239 0,2.16239 4.32478,2.16239 h 12.97432 q 14.8484,0 26.81361,12.10937 12.10937,11.96521 12.10937,28.97599 0,16.86663 -12.10937,28.976 -11.96521,12.10937 -26.81361,12.10937 h -56.22208 v -17.2991 h 51.89731 q 11.96521,0 18.88485,-7.0638 7.0638,-7.0638 7.0638,-16.72247 0,-9.80282 -7.0638,-16.72246 -6.91964,-7.0638 -18.88485,-7.0638 h -8.64955 q -10.23531,0 -16.00167,-5.62221 -5.62221,-5.76637 -5.62221,-13.83928 z" id="text1-5" style="font-size:147.619px;line-height:0;font-family:NiseSega;letter-spacing:0px;word-spacing:0px;fill:url(#linearGradient60);stroke:none;stroke-width:1;stroke-linecap:square;stroke-linejoin:miter;stroke-miterlimit:8;stroke-dasharray:none;stroke-opacity:1;paint-order:fill markers stroke" aria-label="S"/>
        <path d="m 292.46965,0 v 17.2991 h 99.46983 V 0 Z m 0,21.62388 v 17.2991 h 30.27342 v 86.49551 h 17.29911 V 21.62388 Z m 51.8973,103.79461 h 17.2991 V 38.92298 h 30.27343 v -17.2991 h -47.57253 z" id="text1-2" style="font-size:147.619px;line-height:0;font-family:NiseSega;letter-spacing:0px;word-spacing:0px;fill:url(#linearGradient61);stroke:none;stroke-width:1;stroke-linecap:square;stroke-linejoin:miter;stroke-miterlimit:8;stroke-dasharray:none;stroke-opacity:1;paint-order:fill markers stroke" aria-label="T"/>
        <path id="text1-6" style="font-size:147.619px;line-height:0;font-family:NiseSega;letter-spacing:0px;word-spacing:0px;fill:url(#linearGradient62);stroke:none;stroke-width:1;stroke-linecap:square;stroke-linejoin:miter;stroke-miterlimit:8;stroke-dasharray:none;stroke-opacity:1;paint-order:fill markers stroke" d="m 434.86131,0 c -25.94865,0 -38.9232,12.974552 -38.9232,38.923206 v 47.57229 c 0,25.948654 12.97455,38.923204 38.9232,38.923204 h 43.17204 8.72505 9.85366 l 36.9254,-103.435546 c 0.92364,-2.58747 3.37423,-4.314982 6.12159,-4.314982 2.74733,0 5.19796,1.727512 6.12159,4.314982 l 17.6506,49.439877 17.6475,-49.439877 c 0.92361,-2.58747 3.37423,-4.314982 6.12159,-4.314982 2.74732,0 5.19796,1.727542 6.12159,4.314982 l 36.9254,103.435546 h 18.58181 L 609.28942,14.656986 C 606.48,6.7873165 599.45478,1.1882422 591.15668,0.2056722 c -8.2981,-0.98258 -16.43646,2.8205351 -21.00647,9.8164548 l -6.71845,10.288778 -6.72052,-10.288778 c -4.56978,-6.9959097 -12.70785,-10.7990248 -21.00595,-9.8164548 -8.2981,0.98258 -15.32397,6.5816443 -18.13326,14.4513138 L 486.7584,100.97678 V 86.495496 h -47.57229 c -2.88318,0 -4.3248,-1.441621 -4.3248,-4.324801 h 38.92321 V 64.871493 h -56.22241 v 21.624003 c 0,11.532733 5.76647,17.299204 17.2992,17.299204 h 50.89095 l -1.54357,4.3248 h -49.34738 c -14.41592,0 -21.624,-7.20808 -21.624,-21.624004 v -47.57229 c 0,-14.41592 7.20808,-21.624004 21.624,-21.624004 H 486.7584 V 0 Z m 0,21.624003 c -11.53273,0 -17.2992,5.766469 -17.2992,17.299203 v 21.623486 h 56.22241 V 43.248006 h -38.92321 c 0,-2.883186 1.44162,-4.3248 4.3248,-4.3248 H 486.7584 V 21.624003 Z m 104.79929,0.04444 c -0.97965,0 -1.95918,0.553 -2.35386,1.65933 L 500.86348,125.4187 H 518.8443 L 539.66215,62.750692 562.4003,125.4187 h 2.06085 L 587.2024,62.750692 608.01715,125.4187 h 17.9834 L 589.55626,23.327775 c -0.79044,-2.21266 -3.91967,-2.21266 -4.70927,0 L 563.43228,83.320496 542.01446,23.327775 c -0.39467,-1.10633 -1.37421,-1.65933 -2.35386,-1.65933 z"/>
        <path d="m 665.17453,41.08537 q 0,-16.86663 11.96522,-28.976 Q 689.24912,0 704.09751,0 h 56.22208 v 17.2991 h -51.8973 q -11.96521,0 -19.02901,7.0638 -6.91964,7.0638 -6.91964,16.72247 0,9.80282 6.91964,16.86662 7.0638,6.91964 19.02901,6.91964 h 8.64955 q 10.2353,0 15.85751,5.76637 5.76637,5.62221 5.76637,13.69512 0,7.92876 -5.76637,13.69513 -5.62221,5.76636 -15.85751,5.76636 h -51.89731 v -17.2991 h 51.89731 q 4.32477,0 4.32477,-2.16239 0,-2.16238 -4.32477,-2.16238 h -12.97433 q -14.84839,0 -26.95776,-11.96522 -11.96522,-12.10937 -11.96522,-29.12015 z m 21.62388,0 q 0,-7.92876 5.62221,-13.69512 5.76637,-5.76637 16.00167,-5.76637 h 51.8973 v 17.2991 h -51.8973 q -4.32478,0 -4.32478,2.16239 0,2.16239 4.32478,2.16239 h 12.97432 q 14.8484,0 26.81361,12.10937 12.10937,11.96521 12.10937,28.97599 0,16.86663 -12.10937,28.976 -11.96521,12.10937 -26.81361,12.10937 h -56.22208 v -17.2991 h 51.89731 q 11.96521,0 18.88485,-7.0638 7.0638,-7.0638 7.0638,-16.72247 0,-9.80282 -7.0638,-16.72246 -6.91964,-7.0638 -18.88485,-7.0638 h -8.64955 q -10.2353,0 -16.00167,-5.62221 -5.62221,-5.76637 -5.62221,-13.83928 z" id="text1-52" style="font-size:147.619px;line-height:0;font-family:NiseSega;letter-spacing:0px;word-spacing:0px;fill:url(#linearGradient63);stroke:none;stroke-width:1;stroke-linecap:square;stroke-linejoin:miter;stroke-miterlimit:8;stroke-dasharray:none;stroke-opacity:1;paint-order:fill markers stroke" aria-label="S"/>
        <path d="m 863.73122,41.08537 q 0,17.01078 -12.10937,29.12015 -11.96521,11.96522 -26.81361,11.96522 h -21.62387 v 43.24775 H 785.88526 V 64.87163 h 38.92298 q 7.64044,0 14.56008,-6.91964 7.0638,-7.0638 7.0638,-16.86662 0,-9.65867 -7.0638,-16.72247 -6.91964,-7.0638 -14.56008,-7.0638 H 764.26139 V 0 h 60.54685 q 14.8484,0 26.81361,12.10937 12.10937,12.10937 12.10937,28.976 z m -21.62387,0 q 0,8.07291 -5.76637,13.83928 -5.62221,5.62221 -11.53274,5.62221 h -43.24775 v 64.87163 h -17.2991 V 43.24776 h 56.22208 q 4.32477,0 4.32477,-2.16239 0,-2.16239 -4.32477,-2.16239 h -56.22208 v -17.2991 h 60.54685 q 5.91053,0 11.53274,5.76637 5.76637,5.76636 5.76637,13.69512 z" id="text1-89" style="font-size:147.619px;line-height:0;font-family:NiseSega;letter-spacing:0px;word-spacing:0px;fill:url(#linearGradient64);stroke:none;stroke-width:1;stroke-linecap:square;stroke-linejoin:miter;stroke-miterlimit:8;stroke-dasharray:none;stroke-opacity:1;paint-order:fill markers stroke" aria-label="P"/>
    </g>
    <g id="g1" style="stroke:#ffffff;stroke-width:25;stroke-linecap:round;stroke-linejoin:round;stroke-dasharray:none;stroke-opacity:1;paint-order:markers stroke fill" transform="translate(-3.91e-4,2.7341411)">
        <g id="g5" transform="matrix(6.527569,0,0,6.527569,3506.0448,-1032.7974)" style="display:inline;stroke:#ffffff;stroke-width:3.82991;stroke-linecap:round;stroke-linejoin:round;stroke-dasharray:none;stroke-opacity:1;paint-order:markers stroke fill">
            <g id="g30" style="display:none;stroke:#ffffff;stroke-width:121.089;stroke-linecap:round;stroke-linejoin:round;stroke-dasharray:none;stroke-opacity:1;paint-order:markers stroke fill" transform="matrix(0.03162901,0,0,0.03162901,-529.59534,158.22083)">
                <g id="path20-4" class="st0" style="opacity:1">
                    <path style="baseline-shift:baseline;display:inline;overflow:visible;vector-effect:none;fill:#ffffff;stroke:none;enable-background:accumulate;stop-color:#000000;stop-opacity:1" d="m 2591.4004,-60.544922 c -64.9179,0 -124.5621,26.43257 -167.834,69.6269533 A 60.550309,60.550309 0 0 0 2363.1992,-50.34375 h -312.2988 c -35.7234,0 -70.0299,7.278142 -101.5684,20.3125 A 60.550309,60.550309 0 0 0 1905,-50.34375 h -320.5996 c -37.4709,0 -73.3776,7.832127 -106.127,21.953125 a 60.550309,60.550309 0 0 0 -45.9726,-21.953125 h -304.1016 c -162.78763,0 -296.84373,134.056098 -296.84373,296.84375 0,40.06747 8.18681,78.5049 22.83789,113.54102 a 60.550309,60.550309 0 0 0 -22.83789,46.85937 v 275.40039 a 60.550309,60.550309 0 0 0 60.54492,60.54297 H 1196 c 77.1762,0 147.4654,-29.84404 200.7266,-78.57227 48.6889,48.16744 115.4355,78.57227 189.6738,78.57227 h 322.6992 a 60.550309,60.550309 0 0 0 43.9258,-19.9043 c 31.4862,12.83436 65.9724,19.9043 101.9746,19.9043 h 892 a 60.550309,60.550309 0 0 0 57.416,-79.75195 l -187,-559 0.3418,1.05273 C 2787.2154,7.976566 2695.9985,-60.544922 2591.4004,-60.544922 Z m 0,121.089844 c 51.4019,0 96.1842,34.278121 110.8418,80.910158 a 60.550309,60.550309 0 0 0 0.3418,1.05273 l 160.3203,479.24805 H 2055 c -41.7632,0 -77.1571,-15.9364 -103.0879,-41.86719 a 60.550309,60.550309 0 0 0 -103.1953,41.86719 h -262.3164 c -58.9251,0 -108.005,-33.59066 -133.2188,-82.36133 a 60.550309,60.550309 0 0 0 -105.2968,-4.00391 C 1314.9307,588.75938 1260.9884,621.75586 1196,621.75586 H 952.44336 v -154.3125 h 3.15625 A 60.550309,60.550309 0 0 0 999.56836,365.2793 c -28.43998,-30.04429 -47.125,-73.23752 -47.125,-118.7793 0,-96.21235 79.54354,-175.755859 175.75584,-175.755859 h 243.5567 V 76 a 60.550309,60.550309 0 0 0 104.4101,41.73047 c 28.4753,-29.93184 65.3619,-46.986329 108.2344,-46.986329 h 260.2129 a 60.550309,60.550309 0 0 0 102,43.031249 c 28.8368,-27.288084 65.2231,-43.031249 104.2871,-43.031249 h 251.7559 V 300.09961 a 60.550309,60.550309 0 0 0 117.916,19.33984 l 59.5996,-176.79883 a 60.550309,60.550309 0 0 0 0.3633,-1.11328 c 14.7737,-46.794389 59.3292,-80.982418 110.8652,-80.982418 z" id="path5"/>
                    <path style="baseline-shift:baseline;display:inline;overflow:visible;vector-effect:none;fill:#ffffff;stroke:none;enable-background:accumulate;stop-color:#000000;stop-opacity:1" d="M 2760,123.3 C 2737.4,51.4 2669.4,0 2591.4,0 2513.3,0 2445.5,51.4 2422.8,123.3 l -59.6,176.8 V 10.2 h -312.3 c -55.5,0 -106.8,22.6 -145.9,59.6 V 10.2 h -320.6 c -59.6,0 -113,24.7 -152.1,65.8 V 10.2 h -304.1 c -129.5,0 -236.3,106.8 -236.3,236.3 0,61.7 24.7,119.2 63.7,160.4 H 891.9 V 682.3 H 1196 c 86.2,0 160.3,-45.3 203.4,-115.1 35,67.7 104.8,115.1 187,115.1 h 322.7 v -59.6 c 37,37 88.3,59.6 145.9,59.6 h 892 z" id="path6"/>
                </g>
            </g>
            <g id="g2" transform="matrix(0.03162901,0,0,0.03162901,-489.47556,186.14558)" style="display:inline;stroke:#ffffff;stroke-width:121.089;stroke-linecap:round;stroke-linejoin:round;stroke-dasharray:none;stroke-opacity:1;paint-order:markers stroke fill">
                <g id="path21-5" class="st1" style="opacity:1">
                    <path style="baseline-shift:baseline;display:inline;overflow:visible;vector-effect:none;fill:#ffffff;stroke:none;enable-background:accumulate;stop-color:#000000;stop-opacity:1" d="m 1320.9512,-896.12695 c -85.9563,0 -160.2505,57.3812 -181.7637,137.30859 l 1.1563,-3.79687 -30.1485,88.45312 v -52.42187 a 60.550309,60.550309 0 0 0 -1.4238,-8.98829 60.550309,60.550309 0 0 0 1.5234,-9.61328 v -80 A 60.550309,60.550309 0 0 0 1049.75,-885.72852 H 782.55078 c -49.8217,0 -95.97581,16.85687 -133.08594,45.10157 a 60.550309,60.550309 0 0 0 -58.11328,-45.20117 H 316.05078 c -53.13746,0 -102.12139,19.15211 -140.38867,50.87109 a 60.550309,60.550309 0 0 0 -59.01172,-50.87109 H -140.25 c -137.26743,0 -249.54297,112.38308 -249.54297,249.54296 0,56.43363 19.03794,108.63921 50.96485,150.57422 a 60.550309,60.550309 0 0 0 -50.96485,59.02539 v 80.10157 a 60.550309,60.550309 0 0 0 1.4668,9.25 60.550309,60.550309 0 0 0 -1.4668,9.25 v 80.09961 a 60.550309,60.550309 0 0 0 60.54297,60.54492 h 256.800781 c 82.737506,0 156.349257,-40.86513 201.814449,-103.33985 39.27094,62.0115 108.46081,103.53907 186.68555,103.53907 h 275.30078 a 60.550309,60.550309 0 0 0 58.08594,-45.02344 c 37.1149,28.25701 83.27956,45.12305 133.11328,45.12305 h 330.80082 a 60.550309,60.550309 0 0 0 10.9531,-1.71094 60.550309,60.550309 0 0 0 9.4453,1.51172 h 94.5 a 60.550309,60.550309 0 0 0 30.0332,-8.70313 60.550309,60.550309 0 0 0 29.9668,8.70313 h 324.7012 a 60.550309,60.550309 0 0 0 57.3574,-79.92969 l -166.7012,-493.19922 0.5196,1.61133 c -23.8576,-77.6825 -95.7949,-137.26953 -183.1758,-137.26953 z m 1.2363,285.79687 10.7969,32.05469 a 60.550309,60.550309 0 0 0 -21.6348,-0.48633 z" id="path7"/>
                    <path style="baseline-shift:baseline;display:inline;overflow:visible;vector-effect:none;fill:#034693;stroke:none;enable-background:accumulate;stop-color:#000000;stop-opacity:1" d="m 1320.9519,-835.58323 c -59.5,0 -108.9008,39 -123.3008,92.5 l -149.9004,439.79884 V -625.98362 H 821.65106 v 80.09961 h 148 v 217.80079 h -185 c -45.3,0 -80.0996,-37.00157 -80.0996,-80.10157 v -256.89844 c 0,-45.3 36.9996,-80.10156 80.0996,-80.10156 h 265.09964 v -80 H 782.55146 c -88.3,0 -160.3008,72.00078 -160.3008,160.30078 v 256.9004 c 0,88.3 72.0008,160.29883 160.3008,160.29883 h 330.80084 l 166.5,-482.89845 c 6.2,-18.5 22.5992,-30.80078 43.1992,-30.80078 20.6,0 36.9993,12.30078 43.1993,30.80078 l 135.7011,402.79884 h -213.7011 v 79.90039 h 324.7011 l -166.7011,-493.19923 c -16.4,-53.4 -65.7989,-94.5 -125.2989,-94.5 z m -1461.20124,10.29883 c -104.8,0 -188.99997,84.3 -188.99997,189 0,104.7 84.29997,189 188.99997,189 h 65.800796 c 6.2,0 10.1992,4.10118 10.1992,10.20118 0.1,6.2 -4.0988,10.39843 -8.2988,10.39843 H -329.24931 v 80.10157 h 256.800766 c 49.2,0 90.4004,-41.20039 90.4004,-90.40039 0,-49.2 -41.2004,-90.4004 -90.4004,-90.4004 h -65.800796 c -59.6,0 -108.8984,-49.20039 -108.8984,-108.90039 0,-59.7 49.2984,-108.90039 108.8984,-108.90039 h 254.9004 v -80.09961 z m 456.3008,0 c -88.3,0 -160.3008,72.00078 -160.3008,160.30078 v 256.9004 c 0,88.3 72.0008,160.29883 160.3008,160.29883 h 275.3008 V -327.884 h -275.3008 c -45.3,0 -80.0996,-36.99961 -80.0996,-80.09961 v -257.00001 c 0,-45.3 36.9996,-80.09961 80.0996,-80.09961 h 275.3008 v -80.20117 z m 1006.80084,82.09961 c -10.2,0 -20.6012,8.30039 -24.7012,16.40039 l -164.4004,478.9004 h 94.5001 l 57.6015,-170.5 v 72 l 2.0996,-0.0996 h 187 l -127.4004,-378.20119 c -4.1,-10.2 -12.2992,-18.5 -24.6992,-18.5 z m -1463.10164,16.5 c -49.2,0 -90.3984,41.20039 -90.3984,90.40039 0,49.2 41.1984,90.40039 90.3984,90.40039 h 65.800796 c 59.6,0 108.9004,49.2004 108.9004,108.9004 0,59.7 -49.2004,108.90039 -108.9004,108.90039 H -329.24931 v 80.09961 h 256.800766 c 104.8,0 189.000004,-84.3 189.000004,-189 0,-104.7 -84.300004,-189.00001 -189.000004,-189.00001 h -65.800796 c -6.2,0 -10.1992,-4.10117 -10.1992,-10.20117 -0.1,-4.2 4.0992,-8.29883 8.1992,-8.29883 h 256.9004 v -82.20117 z m 456.2012,0 c -35,0 -61.7012,26.80117 -61.7012,61.70117 v 119.19922 h 279.5 v -80.19922 h -199.1992 c 0,-10.2 8.3,-18.5 18.5,-18.5 h 236.3008 v -82.20117 z m 466.5,0 c -35,0 -61.7012,26.80117 -61.7012,61.70117 v 256.9004 c 0,35 26.8012,61.69922 61.7012,61.69922 h 166.5 v -181.00001 h -127.4004 v 80.09961 h 47.3008 v 18.50001 h -47.3008 c -10.2,0 -18.5,-8.30001 -18.5,-18.50001 v -180.69922 c 0,-10.2 8.3,-18.5 18.5,-18.5 h 228.09964 v -80.09961 z m -528.0996,201.40039 v 119.20118 c 0,35 26.7992,61.69922 61.6992,61.69922 h 275.3008 v -80.19922 h -238.4004 c -10.3,-2.1 -18.4004,-10.30157 -18.4004,-20.60157 h 199.3008 v -80.09961 z m 1066.59964,6.20118 26.7989,82.19922 h -55.5 z" id="path8"/>
                </g>
            </g>
        </g>
    </g>
</svg>
