<?xml version='1.0' encoding='utf-8'?>
<svg xmlns="http://www.w3.org/2000/svg" xmlns:rdf="http://www.w3.org/1999/02/22-rdf-syntax-ns#" xmlns:cc="http://creativecommons.org/ns#" xmlns:dc="http://purl.org/dc/elements/1.1/" width="600" height="167.3312969539309" id="svg2" version="1.1" viewBox="0 0 305.91889133858274 85.31634141732283">
    <defs id="defs4"/>
    <metadata id="metadata7">
        <rdf:RDF>
            <cc:Work rdf:about="">
                <dc:format>image/svg+xml</dc:format>
                <dc:type rdf:resource="http://purl.org/dc/dcmitype/StillImage"/>
            </cc:Work>
        </rdf:RDF>
    </metadata>
    <g id="layer1" transform="translate(-196.65384,-200.17526)">
        <g id="rect2999" style="opacity:1" transform="matrix(1,0,-0.14613824,0.98926418,0,0)">
            <path style="baseline-shift:baseline;display:inline;overflow:visible;vector-effect:none;fill:#ffffff;stroke-linecap:round;stroke-linejoin:round;paint-order:markers stroke fill;enable-background:accumulate;stop-color:#000000;stop-opacity:1" d="m 462.73047,202.34766 c -6.24799,0 -12.03984,2.35283 -15.99024,6.83593 a 5.0275604,5.0275604 0 0 0 -0.0273,0.0332 c -2.80793,3.2429 -4.38182,7.45498 -5.1582,12.33203 a 5.0275604,5.0275604 0 0 0 4.0039,5.72461 l 10.53321,2.05273 a 5.0275604,5.0275604 0 0 0 0.46289,-0.10351 5.0275604,5.0275604 0 0 0 -0.74219,1.45898 l -0.57422,9.4375 a 5.0275604,5.0275604 0 0 0 5.87305,5.25977 c 0.34934,-0.0603 0.65301,-0.0859 0.91797,-0.0859 1.27149,0 1.77631,0.23247 2.42187,0.81055 a 5.0275604,5.0275604 0 0 0 0.0312,0.0273 c 0.61366,0.54048 0.9886,1.12122 1.19922,2.5625 0.24813,1.69792 0.012,2.16684 -0.46289,2.74023 a 5.0275604,5.0275604 0 0 0 -0.0273,0.0352 c -0.47797,0.5878 -0.63556,0.75 -2.04688,0.75 -0.88608,0 -1.1256,-0.13146 -1.56641,-0.51758 -0.14616,-0.14301 -1.08506,-1.45247 -1.83203,-4.0293 a 5.0275604,5.0275604 0 0 0 -5.44336,-3.58984 l -10.55273,1.30469 0.55859,0.49414 a 5.0275604,5.0275604 0 0 0 -1.51562,0.20703 c 0.0953,-1.97627 0.22677,-3.88095 0.006,-5.39258 -0.501,-3.42829 -2.15547,-6.68252 -4.75391,-8.94922 -2.62907,-2.3093 -6.14527,-3.46679 -9.66797,-3.46679 -2.56731,0 -5.10238,0.52358 -7.4082,1.58398 -0.11006,0.05 -0.20547,0.13508 -0.31445,0.1875 a 5.0275604,5.0275604 0 0 0 -2.39453,-1.03125 h -7.96875 a 5.0275604,5.0275604 0 0 0 -5.01758,4.72266 l -0.32032,5.29297 c -1.16185,-2.14126 -2.65403,-4.07221 -4.5039,-5.67188 l -0.002,-0.002 c -3.92621,-3.41125 -9.08348,-5.08203 -14.60938,-5.08203 -6.39305,0 -12.28404,2.41371 -16.01172,7.11718 -0.34829,0.43963 -0.5603,0.95597 -0.86328,1.42188 -1.10573,-1.73421 -2.48851,-3.28614 -4.12305,-4.56641 -3.42215,-2.68041 -7.75765,-3.97265 -12.3125,-3.97265 -4.24881,0 -8.34167,1.17733 -11.76172,3.50976 -10e-4,8.3e-4 -0.003,0.001 -0.004,0.002 -0.0309,0.0209 -0.0552,0.0493 -0.0859,0.0703 a 5.0275604,5.0275604 0 0 0 -2.37891,-2.2793 c -1.92541,-0.79831 -3.8972,-1.30273 -5.95507,-1.30273 -2.11705,0 -4.03214,0.72972 -5.82032,1.74804 a 5.0275604,5.0275604 0 0 0 -2.33398,-1.00781 H 316.336 a 5.0275604,5.0275604 0 0 0 -2.51563,0.99805 l 0.45313,-7.63672 a 5.0275604,5.0275604 0 0 0 -5.01758,-5.32422 h -8.4082 a 5.0275604,5.0275604 0 0 0 -2.04688,0.8125 l 3.34961,-8.39453 a 5.0275604,5.0275604 0 0 0 -4.66797,-6.89063 h -11.67969 a 5.0275604,5.0275604 0 0 0 -4.67578,3.17969 l -12.07617,30.55078 -9.42578,-30.20117 a 5.0275604,5.0275604 0 0 0 -4.79883,-3.5293 h -11.75781 a 5.0275604,5.0275604 0 0 0 -4.7832,6.57422 l 18.73242,57.88867 a 5.0275604,5.0275604 0 0 0 2.49414,1.81446 h -16.33789 a 5.0275604,5.0275604 0 0 0 -5.02735,5.02734 v 9.67578 a 5.0275604,5.0275604 0 0 0 5.02735,5.02539 h 294.34375 a 5.0275604,5.0275604 0 0 0 5.02734,-5.02539 v -9.67578 a 5.0275604,5.0275604 0 0 0 -5.02734,-5.02734 h -11.27539 a 5.0275604,5.0275604 0 0 0 1.43164,-3.07422 l 0.59765,-10.34375 a 5.0275604,5.0275604 0 0 0 -5.01953,-5.31836 h -9.33008 c 0.74602,-0.82608 0.88457,-1.02921 1.8418,-2.06641 a 5.0275604,5.0275604 0 0 0 0.0156,-0.0176 c 3.07643,-3.36461 5.29601,-5.96914 6.81054,-8.09571 a 5.0275604,5.0275604 0 0 0 0.0254,-0.0371 c 2.02072,-2.89146 3.49841,-5.80744 4.29297,-8.82617 a 5.0275604,5.0275604 0 0 0 0.006,-0.0215 c 0.75628,-2.92496 0.93571,-5.93978 0.50391,-8.89453 -0.81842,-5.60028 -3.60811,-10.61593 -7.93555,-14.25586 -4.44467,-3.73856 -10.19937,-5.5625 -16.45508,-5.5625 -5.85614,0 -11.28379,1.90367 -15.13086,5.79492 -1.84815,1.86742 -3.1902,4.12333 -4.14062,6.61914 -1.23888,-2.44126 -2.89103,-4.68092 -4.95508,-6.60352 -4.17975,-3.91541 -9.86944,-5.81054 -16.07031,-5.81054 z m -212.75,10.29101 h 1.14844 l 12.56445,40.25977 a 5.0275604,5.0275604 0 0 0 9.47266,0.35156 l 16.05468,-40.61133 h 0.8418 l -19.08789,47.83203 h -5.51563 z m 248.86328,0.38867 c -0.91713,0.58411 -1.77373,1.25064 -2.44922,2.06446 -1.2468,1.48503 -1.97097,3.09401 -2.41406,4.84179 l -1.1875,-0.17578 c 0.50299,-1.91949 1.20963,-3.49176 2.25,-4.54297 a 5.0275604,5.0275604 0 0 0 0.002,-0.002 c 1.02341,-1.03549 2.28756,-1.71939 3.79883,-2.18555 z m -41.01758,0.19532 c -0.8216,0.50717 -1.69143,0.9661 -2.32422,1.66015 -1.02622,1.11094 -1.71478,2.34043 -2.22851,3.65235 l -0.5,-0.0977 c 0.4681,-1.10669 0.98869,-2.00047 1.5332,-2.63086 1.04271,-1.17737 2.16345,-2.02612 3.51953,-2.58398 z m 13.15039,1.08007 0.041,0.0352 c -0.007,-0.007 -0.018,-0.009 -0.0254,-0.0156 -0.006,-0.006 -0.009,-0.014 -0.0156,-0.0195 z m 41.58008,0.0645 0.0371,0.0332 c -0.007,-0.006 -0.0168,-0.008 -0.0234,-0.0137 -0.006,-0.005 -0.008,-0.0141 -0.0137,-0.0195 z m -40.69336,1.08984 c 0.0208,0.0192 0.0516,0.0255 0.0723,0.0449 a 5.0275604,5.0275604 0 0 0 0.0137,0.0117 c 2.42468,2.25852 3.65845,4.61301 4.10547,7.67188 0.30062,2.0571 0.0181,3.45598 -0.8125,4.90234 -0.4193,0.7301 -0.92459,1.33255 -1.57422,1.85742 1.26628,-2.4826 1.61312,-5.40842 1.20898,-8.17383 -0.33927,-2.32159 -1.45423,-4.50884 -3.01367,-6.31445 z m 43.50195,2.91602 c 1.03308,1.51665 1.8017,3.1674 2.10547,5.24609 0.23711,1.62247 0.15032,3.21172 -0.28906,4.91602 -0.4112,1.55566 -1.29785,3.44664 -2.79883,5.59765 -1.03821,1.45526 -3.09118,3.91808 -6.02344,7.125 -3.02754,3.28077 -5.01032,5.49164 -6.1875,6.96289 a 5.0275604,5.0275604 0 0 0 -0.002,0.004 c -1.06925,1.33796 -2.07458,2.75569 -3.01562,4.25 a 5.0275604,5.0275604 0 0 0 4.2539,7.70508 h 14.51953 l -0.0176,0.29101 h -24.39454 c 0.12038,-0.45862 0.19182,-0.93378 0.34961,-1.38086 0.76713,-2.13617 1.79918,-4.09405 3.125,-5.92187 1.35899,-1.87354 4.334,-5.42731 8.69727,-10.29688 a 5.0275604,5.0275604 0 0 0 0.0215,-0.0234 c 3.33314,-3.76657 5.35765,-6.10667 6.49219,-7.61719 a 5.0275604,5.0275604 0 0 0 0.0176,-0.0254 c 1.7283,-2.3303 3.01713,-4.48101 3.74219,-6.85742 0.62071,-2.03444 0.89555,-4.14308 0.58593,-6.26172 -0.18755,-1.2834 -0.63251,-2.52585 -1.18164,-3.71289 z m -10.76562,2.91211 c 0.58183,0 0.65612,0.0215 1.13086,0.46484 a 5.0275604,5.0275604 0 0 0 0.0371,0.0332 c 0.46496,0.42564 0.6869,0.76472 0.83203,1.75782 0.0443,0.30318 0.039,0.9065 -0.25586,1.87304 -0.19018,0.62331 -0.88495,2.02364 -2.19727,3.79492 -0.57239,0.7605 -2.69253,3.27652 -5.96679,6.97657 -4.44306,4.95939 -7.48313,8.5365 -9.32813,11.08007 -0.65675,0.90543 -1.20221,1.87626 -1.76367,2.8379 0.0183,-1.14823 -0.009,-2.30225 -0.17773,-3.45704 -0.44849,-3.06889 -1.68532,-5.99323 -3.52344,-8.60351 -0.49832,-0.70765 -1.1777,-1.26447 -1.76953,-1.89649 0.88383,-0.93379 1.69782,-1.92945 2.34179,-3.05078 0.80813,-1.40714 1.34406,-2.9361 1.71485,-4.50781 a 5.0275604,5.0275604 0 0 0 0.68945,0.38281 l 11.21875,1.65821 a 5.0275604,5.0275604 0 0 0 5.75781,-4.75 c 0.13537,-3.04965 0.95682,-4.56684 0.75391,-4.32618 a 5.0275604,5.0275604 0 0 0 0.0371,-0.043 c 0.30705,-0.37259 -0.007,-0.22461 0.46875,-0.22461 z m -41.32227,0.19726 c 0.66651,0 0.70183,0.0495 1.01368,0.33008 a 5.0275604,5.0275604 0 0 0 0.041,0.0352 c 0.28436,0.25044 0.4581,0.43532 0.5957,1.37695 0.2389,1.63471 0.008,1.94655 -0.25,2.24805 -0.12439,0.13844 -0.59794,0.5664 -2.70312,0.5664 -0.12282,0 -0.28538,-0.009 -0.48633,-0.0352 a 5.0275604,5.0275604 0 0 0 -0.0527,0.0156 5.0275604,5.0275604 0 0 0 0.61328,-1.05469 c 0.26911,-2.34689 0.95362,-3.39397 0.83594,-3.26757 a 5.0275604,5.0275604 0 0 0 0.0449,-0.0469 c 0.27574,-0.3038 -0.0102,-0.16797 0.34765,-0.16797 z m -167.69336,4.44727 -0.21093,3.55468 a 5.0275604,5.0275604 0 0 0 0.75976,2.0918 5.0275604,5.0275604 0 0 0 -1.01562,2.16602 l -1.90821,31.45117 a 5.0275604,5.0275604 0 0 0 1.32813,3.66797 h -17.70313 a 5.0275604,5.0275604 0 0 0 2.21485,-1.5 z m 173.47266,8.53711 a 5.0275604,5.0275604 0 0 0 0.14648,2.98828 c -1.15024,-0.70155 -2.32313,-1.25643 -3.63281,-1.59375 l 0.01,-0.16797 c 1.22468,-0.24992 2.38518,-0.66427 3.47656,-1.22656 z m -37.66602,1.99804 0.10352,0.0879 c -0.0178,-0.0156 -0.0426,-0.0197 -0.0606,-0.0351 -0.0174,-0.0148 -0.0254,-0.0381 -0.043,-0.0527 z m -71.68554,0.49414 0.0371,0.0312 c -0.006,-0.005 -0.0152,-0.006 -0.0215,-0.0117 -0.007,-0.006 -0.009,-0.014 -0.0156,-0.0195 z m 19.13672,0.73829 c -0.007,0.006 -0.0106,0.0151 -0.0176,0.0215 -0.005,0.005 -0.0124,0.007 -0.0176,0.0117 z m 16.06054,0.0937 0.0527,0.0488 c -0.008,-0.008 -0.0209,-0.01 -0.0293,-0.0176 -0.01,-0.009 -0.0136,-0.0225 -0.0234,-0.0312 z m 76.22461,0.79492 0.0312,0.0273 c -0.006,-0.005 -0.0138,-0.007 -0.0195,-0.0117 -0.005,-0.004 -0.007,-0.0113 -0.0117,-0.0156 z m -56.21875,2.36914 a 5.0275604,5.0275604 0 0 0 0.11524,0.18945 c -0.0516,0.0909 -0.0949,0.18532 -0.14453,0.27734 z m 59.33203,1.88281 c 0.31305,0.32881 0.67682,0.64059 0.92579,0.99414 1.05367,1.49631 1.58941,2.8633 1.79492,4.26953 0.45661,3.1245 -0.10637,5.53405 -1.93555,8.1836 a 5.0275604,5.0275604 0 0 0 -0.002,0.004 c -1.58654,2.30305 -3.39459,3.67202 -5.75391,4.43164 1.40747,-0.73026 2.70353,-1.6668 3.70508,-2.89258 2.39222,-2.89998 3.19762,-6.87004 2.6543,-10.58789 -0.22373,-1.53095 -0.7223,-3.01355 -1.38868,-4.40234 z m -60.3789,0.53516 c -0.003,0.008 -0.003,0.0159 -0.006,0.0234 -0.002,0.007 -0.007,0.0127 -0.01,0.0195 z m -60.94531,1.24023 c 0.41815,0 0.25818,-0.009 0.33398,0.0547 a 5.0275604,5.0275604 0 0 0 0.0391,0.0312 c -0.0565,-0.0468 0.24082,0.18605 0.51758,1.26172 a 5.0275604,5.0275604 0 0 0 2.9043,3.10937 5.0275604,5.0275604 0 0 0 -4.02149,3.54883 c -0.26451,1.25958 -0.61241,1.63839 -0.70898,1.72461 -0.34886,0.31145 -0.21181,0.20508 -0.33203,0.20508 -0.0957,0 0.16477,0.15289 -0.10352,-0.10547 -0.0905,-0.0871 -0.32996,-0.33043 -0.48633,-1.40039 -0.22877,-1.56547 -0.2137,-3.32375 0.10352,-5.31641 0.29344,-1.75326 0.7964,-2.51187 1.03125,-2.74609 0.44383,-0.44265 0.36686,-0.36719 0.72266,-0.36719 z m 33.88476,0.11719 c 0.71871,0 0.86401,0.0651 1.34766,0.50976 a 5.0275604,5.0275604 0 0 0 0.0547,0.0488 c 0.44531,0.39788 0.68165,0.73557 0.8379,1.80469 0.46096,3.15428 10e-4,5.16619 -1.0879,6.86133 a 5.0275604,5.0275604 0 0 0 -0.01,0.0156 c -0.53085,0.83279 -0.27014,0.66602 -1.125,0.66602 -0.6286,0 -0.80575,-0.0422 -1.41406,-0.61524 -0.51102,-0.48137 -0.87099,-1.05238 -1.07227,-2.42968 -0.1634,-1.11813 -0.12258,-2.48738 0.24024,-4.16016 a 5.0275604,5.0275604 0 0 0 0.004,-0.0137 c 0.30952,-1.44909 0.73732,-2.0175 1.01758,-2.27149 a 5.0275604,5.0275604 0 0 0 0.0371,-0.0332 c 0.33963,-0.31391 0.40992,-0.38281 1.16992,-0.38281 z m 37.67188,0.37695 c -0.0246,0.64046 -0.0468,1.27559 -0.10352,2.23633 l -1.08203,17.84961 a 5.0275604,5.0275604 0 0 0 1.32812,3.66797 h -4.23828 a 5.0275604,5.0275604 0 0 0 1.43164,-3.06055 l 0.7793,-12.9082 v -0.004 c 0.22041,-3.6032 0.748,-6.14912 0.7207,-6.07422 a 5.0275604,5.0275604 0 0 0 0.0156,-0.043 c 0.29201,-0.82446 0.65858,-1.24697 1.14844,-1.66406 z m -92.79883,0.68945 c 0.32041,0 0.57422,0.0444 0.85351,0.14063 a 5.0275604,5.0275604 0 0 0 0.14258,-0.01 c -0.3284,2.48991 -0.42869,5.01921 -0.0527,7.5918 0.74341,5.08703 2.93374,9.65079 6.55273,12.88477 1.1016,0.9844 2.3365,1.76856 3.62695,2.45703 h -16.37695 a 5.0275604,5.0275604 0 0 0 1.4336,-3.05274 l 0.60937,-9.86132 a 5.0275604,5.0275604 0 0 0 0.002,-0.0176 c 0.22332,-3.81485 0.66918,-6.533 0.99024,-7.56446 a 5.0275604,5.0275604 0 0 0 0.006,-0.0215 c 0.32874,-1.07295 0.72001,-1.60313 1.24804,-2.04688 0.62328,-0.50633 0.80499,-0.5 0.96485,-0.5 z m 34.0039,3.20508 c 0.004,0.28037 0.0469,0.57078 0.0586,0.85352 l -3.20703,-0.50977 z m 85.95313,5.54102 c 0.023,0.0498 0.0372,0.11068 0.0606,0.16015 -0.0385,-0.0598 -0.0968,-0.0916 -0.13477,-0.15234 z m -9.44727,3.66992 c 1.67318,3.11913 3.79824,5.87086 6.4961,8.01953 a 5.0275604,5.0275604 0 0 0 0.0312,0.0234 c 1.32216,1.03667 2.75976,1.87242 4.24804,2.60547 h -12.66015 a 5.0275604,5.0275604 0 0 0 1.43359,-3.06446 z m -73.19336,3.125 c 0.1662,0.27683 0.26309,0.58478 0.44141,0.85547 1.88041,2.85448 4.52782,5.1248 7.61719,6.66797 h -15.04688 c 0.83585,-0.4687 1.64576,-0.98533 2.39453,-1.59375 1.95673,-1.58997 3.45033,-3.63729 4.59375,-5.92969 z m 114.06055,0.93555 c -0.10587,1.09968 -0.24661,2.19393 -0.22656,3.31445 a 5.0275604,5.0275604 0 0 0 1.4082,3.27344 h -8.77344 c 2.98741,-1.55198 5.57673,-3.77012 7.5918,-6.58789 z m -79.60547,1.60547 -0.0801,1.31445 a 5.0275604,5.0275604 0 0 0 1.32813,3.66797 h -7.25977 c 2.33983,-1.21493 4.40617,-2.85763 6.01172,-4.98242 z m -92.93359,4.35742 a 5.0275604,5.0275604 0 0 0 0.22656,0.625 h -0.51953 a 5.0275604,5.0275604 0 0 0 0.29297,-0.625 z" id="path1"/>
            <path style="baseline-shift:baseline;display:inline;overflow:visible;vector-effect:none;stroke-linecap:round;stroke-linejoin:round;paint-order:markers stroke fill;enable-background:accumulate;stop-color:#000000;stop-opacity:1" d="m 243.17337,273.88867 h 294.34448 v 9.67494 H 243.17337 Z m 255.14339,-48.23225 -11.21892,-1.65844 q 0.15095,-8.05523 4.37149,-12.31976 4.25383,-4.30402 11.55852,-4.30402 8.00781,0 13.21864,4.383 5.21084,4.38299 6.19759,11.13516 0.50203,3.43532 -0.39642,6.91013 -0.90422,3.43532 -3.55337,7.22602 -1.9123,2.68507 -6.42536,7.62087 -4.51884,4.89632 -5.97215,6.7127 -1.42002,1.77688 -2.68822,3.79069 h 19.84375 l -0.59751,10.34544 h -34.80469 q -0.0763,-4.26453 1.27799,-8.09471 1.38762,-3.86968 3.79353,-7.18654 2.4059,-3.31685 9.02214,-10.70081 4.96184,-5.60707 6.23714,-7.30499 2.28428,-3.07994 2.97099,-5.33066 0.68671,-2.25074 0.42127,-4.06711 -0.42702,-2.922 -2.41121,-4.73837 -1.94513,-1.81638 -4.56232,-1.81638 -2.65625,0 -4.34837,2.0533 -1.69789,2.01381 -1.93451,7.34448 z m -53.95018,24.71849 10.55176,-1.30305 q 1.33921,4.61991 3.31763,6.39681 2.01749,1.77688 4.90811,1.77688 3.82813,0 5.94728,-2.60611 2.15821,-2.6061 1.56385,-6.6732 -0.51934,-3.55377 -2.85066,-5.60707 -2.33708,-2.09278 -5.77458,-2.09278 -0.85938,0 -1.7738,0.15794 l 0.57399,-9.43724 q 0.59747,0.0789 1.14434,0.0789 4.49219,0 6.50126,-2.2902 2.00329,-2.32971 1.42624,-6.27835 -0.4097,-2.80354 -2.24785,-4.42248 -1.79909,-1.61894 -4.37722,-1.61894 -2.42187,0 -4.0705,1.81637 -1.65439,1.77689 -2.15245,6.1204 l -10.53444,-2.05329 q 1.01831,-6.39681 3.99284,-9.83212 4.52328,-5.13324 12.21859,-5.13324 7.89063,0 12.64425,4.46196 4.74785,4.42248 5.65382,10.62186 0.65783,4.50145 -1.42847,8.1342 -2.0863,3.63275 -6.40849,5.33067 3.91558,1.93483 6.08442,5.01477 2.16885,3.07994 2.65934,6.43628 0.93482,6.39681 -2.77259,11.76696 -5.0595,7.34447 -14.747,7.34447 -7.26563,0 -12.60386,-4.18556 -5.30494,-4.22505 -7.44581,-11.9249 z m -34.07554,-16.32763 h 7.96875 l -0.22307,4.08685 q 2.60743,-2.60611 5.02542,-3.70186 2.44297,-1.12536 5.31406,-1.12536 3.83789,0 6.35975,2.22111 2.55115,2.22111 3.0878,5.89335 0.24236,1.65843 -0.0493,6.27834 l -1.06107,17.7985 h -8.4082 l 1.08171,-17.85773 q 0.23605,-3.998 0.12353,-4.76798 -0.23803,-1.62882 -1.339,-2.54688 -1.07599,-0.94767 -2.77521,-0.94767 -1.8457,0 -3.87218,1.56958 -2.02648,1.56959 -2.93902,4.14607 -0.66917,1.83612 -1.01443,7.49255 l -0.77907,12.91206 h -8.40821 z m -39.35341,18.3908 q -1.27672,-8.73637 2.82918,-13.91896 4.13087,-5.21221 12.07033,-5.21221 6.88476,0 11.31457,3.84992 4.42549,3.82032 5.37329,10.30596 1.11658,7.64062 -2.90377,13.20821 -4.02034,5.56758 -12.13557,5.56758 -4.39454,0 -8.05264,-1.77689 -3.65811,-1.77688 -5.8041,-5.03452 -2.14598,-3.25762 -2.69129,-6.98909 z m 23.07763,-6.07104 q -0.44145,-3.02071 -2.46325,-4.82721 -1.99685,-1.83612 -4.75076,-1.83612 -2.7246,0 -4.58297,1.71766 -1.86268,1.68804 -2.55849,4.94567 -0.70014,3.22802 -0.30198,5.95258 0.49338,3.37609 2.59975,5.36029 2.10637,1.98419 4.86027,1.98419 3.45704,0 5.36368,-2.9911 2.72096,-4.23492 1.83375,-10.30596 z m -36.40605,7.28525 8.36857,1.33266 q -1.2165,5.50836 -4.75177,8.381 -3.53528,2.87263 -8.75012,2.87263 -5.94727,0 -9.95726,-3.58339 -4.01,-3.58339 -4.92751,-9.86173 -0.74872,-5.12337 0.69416,-9.68405 1.44289,-4.56067 5.31008,-7.16678 3.86287,-2.63572 8.93123,-2.63572 5.50781,0 9.21319,2.90225 3.70538,2.90226 4.808,7.64063 l -7.87254,0.85883 q -0.67815,-2.63573 -2.17828,-3.87955 -1.47083,-1.24382 -3.5802,-1.24382 -2.43164,0 -4.2727,1.83612 -1.84104,1.83612 -2.44696,5.50835 -0.58096,3.64263 -0.11355,6.84103 0.40682,2.78379 1.97519,4.29415 1.56838,1.51035 3.58986,1.51035 2.02149,0 3.6801,-1.48074 1.6586,-1.48074 2.28051,-4.44222 z m -41.27325,-19.60501 h 7.85157 l -0.36823,6.10066 q 3.39479,-6.84103 8.52174,-6.84103 1.81641,0 4.03065,0.91806 l -2.20561,6.95948 q -1.20317,-0.41461 -2.49223,-0.41461 -2.16797,0 -4.18147,1.65844 -1.9842,1.65842 -2.83714,4.44222 -0.85728,2.75418 -1.2092,8.76598 l -0.6096,9.86173 h -8.4082 z m -15.48869,-11.96439 h 8.4082 l -0.45678,7.69986 h -8.4082 z m -0.71248,11.96439 h 8.4082 l -1.90772,31.45093 h -8.4082 z m -25.75538,31.45093 h -12.57813 l -18.73295,-57.88708 h 11.75781 l 13.66508,43.79043 17.31148,-43.79043 h 11.67969 z" id="path2"/>
        </g>
    </g>
</svg>
