<?xml version='1.0' encoding='utf-8'?>
<svg xmlns="http://www.w3.org/2000/svg" width="600" height="184.1046277665996" viewBox="0 0 263.08087 80.718796" version="1.1" id="svg34629">
    <defs id="defs34626"/>
    <g id="layer1" transform="translate(180.76695,-35.121266)">
        <g id="g33867" transform="translate(-204.81563,-23.67453)">
            <path id="path30818-8" style="opacity:1;fill:#000080;fill-opacity:1;stroke:none;stroke-width:2.57611;stroke-dasharray:none;stroke-opacity:1;paint-order:markers stroke fill;stop-color:#000000" d="m 265.32432,84.240179 -4.87768,10.665869 3.05293,1.513868 -15.40501,34.199604 c 0,0 9.8987,4.88004 17.4754,4.26635 7.62033,-0.61722 12.79356,-4.94622 16.6683,-10.2186 4.01633,-5.46505 5.69617,-13.33354 4.52675,-19.71466 -0.71631,-3.90862 -3.3857,-10.219232 -9.08861,-14.072068 -4.00156,-2.703419 -12.35208,-6.640363 -12.35208,-6.640363 z m 8.10576,18.171781 c 0,0 3.17065,3.68241 3.9305,6.25651 0.7883,2.67045 0.37139,5.678 -0.49128,8.32626 -0.78991,2.42496 -2.78835,4.95123 -4.63203,6.74358 -4.75376,4.62146 -12.98402,3.5148 -12.98402,3.5148 z"/>
            <g id="g23659">
                <path style="opacity:1;fill:#0e4093;fill-opacity:1;stroke:none;stroke-width:2.409;stroke-dasharray:none;stroke-opacity:1;paint-order:markers stroke fill;stop-color:#000000" d="m 31.777429,107.67103 2.081362,2.89988 3.090597,-2.23704 24.514182,29.03931 1.893361,2.14141 -3.001709,-24.73419 13.589429,19.4038 1.89216,2.55574 -0.748356,-10.80438 -0.243501,-3.0383 -1.908019,0.55938 0.654809,-13.79779 -2.128131,-21.598048 3.344209,-1.016293 -0.514493,-10.196333 -3.052667,0.02254 -10.417717,8.396435 1.216075,14.990489 -6.875507,-0.350799 -7.132756,6.852129 -12.792188,-2.75956 z" id="path11467"/>
                <path style="opacity:1;fill:#fdae10;fill-opacity:1;stroke:#fa1a02;stroke-width:2.409;stroke-dasharray:none;stroke-opacity:1;paint-order:markers stroke fill;stop-color:#000000" d="m 32.32355,87.597787 -6.813021,11.443229 6.085417,7.606774 2.248958,-1.78594 26.259896,29.36875 -2.71198,-23.21719 1.058334,-0.46302 14.089062,19.9099 -4.299479,-45.905211 3.505729,-1.058334 -0.661458,-8.665104 -13.229167,-0.859896 5.225521,29.434895 -16.999479,-19.777603 3.241146,25.863023 z" id="path1326"/>
                <path style="opacity:1;fill:#0e4093;fill-opacity:1;stroke:none;stroke-width:2.409;stroke-dasharray:none;stroke-opacity:1;paint-order:markers stroke fill;stop-color:#000000" d="m 74.433646,126.68392 11.459181,0.65481 v -9.49475 l -0.09355,-23.011905 2.853103,11.318865 -1.403165,11.31886 0.140317,4.49013 6.361014,-4.20949 1.870888,-0.14032 2.104747,5.00462 1.543481,2.38538 7.296458,-5.28525 6.87551,-1.16931 -2.43215,-19.597535 -2.5257,-17.492792 0.60804,-0.608036 1.91766,0.280633 0.14032,-8.746395 -9.12058,0.982216 0.18709,23.245765 1.02899,13.283294 -2.80633,-0.37418 -6.688424,-6.8755 -6.92228,-11.459184 -7.062597,0.374177 -6.173925,31.243807 z" id="path11337"/>
                <path style="opacity:1;fill:#fdae10;fill-opacity:1;stroke:#fa1a02;stroke-width:2.409;stroke-dasharray:none;stroke-opacity:1;paint-order:markers stroke fill;stop-color:#000000" d="m 82.594383,123.51497 -9.128125,-0.7276 4.630208,-50.138541 24.275524,39.290621 1.12448,4.10104 -5.953129,5.02709 -5.357813,-7.67292 -6.35,3.96875 -0.330729,-8.46667 3.96875,-2.24895 -5.688541,-11.046357 -1.190625,0.46302 z" id="path1424"/>
                <path style="opacity:1;fill:#0e4093;fill-opacity:1;stroke:none;stroke-width:2.409;stroke-dasharray:none;stroke-opacity:1;paint-order:markers stroke fill;stop-color:#000000" d="m 93.516689,82.507608 1.543482,4.583674 1.590254,-1.075762 -0.140317,-7.460159 z" id="path11465"/>
                <path style="opacity:1;fill:#0e4093;fill-opacity:1;stroke:none;stroke-width:2.409;stroke-dasharray:none;stroke-opacity:1;paint-order:markers stroke fill;stop-color:#000000" d="m 121.29936,116.25373 1.87088,2.8531 5.51912,-3.64823 -9.30766,-23.292822 c 0,0 2.19499,-2.446595 2.66601,-6.454277 0.0695,-0.591081 0.14799,-1.251345 0.22239,-1.873755 0.15501,-1.296807 0.29211,-2.429283 0.29211,-2.429283 l 2.05206,0.01961 0.23977,-10.262703 -5.14493,5.659431 -4.44336,16.697664 z" id="path13292"/>
                <path id="path1457" style="display:inline;opacity:1;fill:#fdae10;fill-opacity:1;stroke:#fa1a02;stroke-width:2.409;stroke-dasharray:none;stroke-opacity:1;paint-order:markers stroke fill;stop-color:#000000" d="m 106.38518,67.881678 c -1.17209,0.01196 -2.34875,0.105334 -3.55017,0.203089 -2.72431,0.221665 -5.331236,1.351446 -7.80521,2.513541 -1.561212,0.733346 -4.365625,2.778125 -4.365625,2.778125 l 2.447396,9.392709 2.910416,-1.653646 8.731253,35.123434 5.68854,-1.19062 -2.64583,-20.769793 1.05833,-0.264584 12.43542,21.166667 4.23333,-2.91042 -9.26042,-22.952601 c 0,0 2.8874,-5.422725 2.51354,-10.252604 -0.11093,-1.433106 -0.28865,-3.284487 -0.79375,-4.630208 -0.72521,-1.932135 -2.06998,-3.692781 -3.70416,-4.630209 -2.75701,-1.581524 -5.31446,-1.949192 -7.89306,-1.92288 z m 0.17105,9.721371 c 1.82512,-0.01174 5.51908,0.570672 5.86992,5.421374 0.34796,4.810919 -5.22552,7.153052 -5.22552,7.153052 l -1.65364,-12.500529 c 0,0 0.40086,-0.06998 1.00924,-0.0739 z"/>
                <path style="display:inline;opacity:1;fill:#0e4093;fill-opacity:1;stroke:none;stroke-width:2.409;stroke-dasharray:none;stroke-opacity:1;paint-order:markers stroke fill;stop-color:#000000" d="m 129.82251,114.72209 -0.0661,2.31059 h 8.33438 l -0.1323,-51.196872 -3.45242,1.586815 z" id="path15581"/>
                <path style="opacity:1;fill:#fdae10;fill-opacity:1;stroke:#fa1a02;stroke-width:2.409;stroke-dasharray:none;stroke-opacity:1;paint-order:markers stroke fill;stop-color:#000000" d="m 120.36391,69.808966 0.5145,7.670636 3.22728,-0.514496 4.16272,36.529064 6.50133,-0.14032 -0.28063,-48.876913 z" id="path12197"/>
                <path id="text16021-1" style="font-style:normal;font-variant:normal;font-weight:bold;font-stretch:normal;font-size:25.4px;font-family:Wayoshi;display:inline;fill:#0e4093;fill-opacity:1;stroke:none;stroke-width:2.48329;stroke-dasharray:none;stroke-opacity:1;paint-order:markers stroke fill;stop-color:#000000" d="m 157.27097,67.364166 -3.41737,0.184408 -3.48247,1.191885 -3.01532,1.749799 c -3.07128,2.732403 -5.34044,5.867946 -6.80734,9.406404 -0.64749,1.831551 -1.11407,3.548405 -1.39991,5.150945 -0.28587,1.60253 -0.44705,2.989618 -0.48318,4.160649 -0.0136,1.168662 -0.053,2.197114 -0.11885,3.085465 l 0.41082,3.922596 c 0.21441,2.263958 0.76188,4.563563 1.64177,6.899693 1.49103,4.27206 3.95227,7.84548 7.38404,10.7202 2.67747,1.95442 5.41824,2.99752 8.22224,3.12817 l 0.88935,0.0479 c 2.20094,0.004 3.9516,-0.61051 5.54746,-1.18511 1.64318,-0.55582 3.20225,-1.48421 4.67672,-2.78437 3.16346,-2.71836 5.37666,-6.70468 6.64094,-11.96052 0.86605,-3.42694 1.20588,-7.227178 0.72244,-12.058972 -0.55212,-3.538174 -1.03748,-5.785296 -1.45521,-6.741329 -1.08522,-3.862633 -3.16376,-7.357973 -6.23631,-10.485253 l -1.77044,-1.633631 -2.42466,-1.385671 -2.3027,-0.863178 z m 5.1e-4,19.197252 1.27176,0.226087 0.90899,0.353708 0.95705,0.568333 0.69918,0.669915 c 1.21291,1.282442 2.03346,2.715759 2.46186,4.299741 0.1649,0.392054 0.35619,1.313641 0.57413,2.76458 0.19084,1.981419 0.0571,3.539846 -0.28474,4.945168 -0.49911,2.15531 -1.37326,3.79034 -2.62206,4.90506 -0.58207,0.53318 -1.19721,0.91345 -1.84588,1.14137 -0.62997,0.23565 -1.3212,0.48804 -2.19005,0.48602 l -0.35088,-0.0198 c -1.10691,-0.0536 -2.18886,-0.48105 -3.2458,-1.28252 -1.35474,-1.17886 -2.32646,-2.64424 -2.91507,-4.39612 -0.34733,-0.95801 -0.56332,-1.901279 -0.64802,-2.82968 l -0.16226,-1.608629 c 0.0259,-0.364303 0.042,-0.786094 0.047,-1.265335 0.0143,-0.480219 0.0778,-1.048875 0.19069,-1.706048 0.11284,-0.657163 0.29682,-1.361282 0.55242,-2.112366 0.57907,-1.451059 1.47475,-2.736968 2.68717,-3.857475 l 1.19063,-0.717314 1.37459,-0.488637 z"/>
                <path id="text16021" style="font-style:normal;font-variant:normal;font-weight:bold;font-stretch:normal;font-size:25.4px;font-family:Wayoshi;display:inline;opacity:1;fill:#fdae10;fill-opacity:1;stroke:#fa1b03;stroke-width:2.47334;stroke-dasharray:none;stroke-opacity:1;paint-order:markers stroke fill;stop-color:#000000" d="m 154.75019,64.067441 -3.41737,0.182934 -3.48247,1.182357 -3.01532,1.735812 c -3.07128,2.710561 -5.34044,5.821039 -6.80734,9.331213 -0.64749,1.816912 -1.11407,3.520036 -1.39991,5.109766 -0.28587,1.589726 -0.44705,2.965718 -0.48318,4.127396 -0.0136,1.159315 -0.053,2.179551 -0.11885,3.060795 l 0.41082,3.891236 c 0.21441,2.245867 0.76188,4.52708 1.64177,6.844543 1.49103,4.237907 3.95227,7.782757 7.38404,10.634497 2.67747,1.9388 5.41824,2.97356 8.22224,3.10317 l 0.88935,0.0475 c 2.20094,0.004 3.9516,-0.60563 5.54746,-1.17564 1.64318,-0.55138 3.20225,-1.47235 4.67672,-2.76211 3.16346,-2.69663 5.37666,-6.65109 6.64094,-11.864905 0.86605,-3.399551 1.20588,-7.169412 0.72244,-11.962577 -0.55212,-3.509894 -1.03748,-5.739048 -1.45521,-6.687447 -1.08522,-3.831752 -3.16376,-7.299151 -6.23631,-10.401433 l -1.77044,-1.620572 -2.42466,-1.374594 -2.3027,-0.856278 z m 5.1e-4,19.043799 1.27176,0.224275 0.90899,0.350883 0.95705,0.56379 0.69918,0.664559 c 1.21291,1.272186 2.03346,2.694045 2.46186,4.265373 0.1649,0.38892 0.35619,1.303133 0.57413,2.742468 0.19084,1.965582 0.0571,3.511556 -0.28474,4.905644 -0.49911,2.138084 -1.37326,3.760038 -2.62206,4.865848 -0.58207,0.52892 -1.19721,0.90615 -1.84588,1.13224 -0.62997,0.23377 -1.3212,0.48414 -2.19005,0.48214 l -0.35088,-0.0196 c -1.10691,-0.0532 -2.18886,-0.47721 -3.2458,-1.27227 -1.35474,-1.16944 -2.32646,-2.623096 -2.91507,-4.360978 -0.34733,-0.95035 -0.56332,-1.886078 -0.64802,-2.807064 l -0.16226,-1.595769 c 0.0259,-0.361382 0.042,-0.779808 0.047,-1.25522 0.0143,-0.476379 0.0778,-1.040487 0.19069,-1.692403 0.11284,-0.651915 0.29682,-1.350401 0.55242,-2.09548 0.57907,-1.439456 1.47475,-2.715092 2.68717,-3.826639 l 1.19063,-0.711585 1.37459,-0.484725 z"/>
            </g>
            <path style="opacity:1;fill:#000080;fill-opacity:1;stroke:none;stroke-width:2.452;stroke-dasharray:none;stroke-opacity:1;paint-order:markers stroke fill;stop-color:#000000" d="m 192.48659,63.541495 c 0.18709,-0.140317 6.03361,-1.403165 6.03361,-1.403165 l -11.31886,50.32685 6.82874,4.58367 3.78854,1.77734 -2.66601,5.3788 -17.21216,-4.16272 0.14032,-6.59487 z" id="path31655"/>
            <path style="opacity:1;fill:#fdae10;fill-opacity:1;stroke:#fa1b03;stroke-width:2.452;stroke-dasharray:none;stroke-opacity:1;paint-order:markers stroke fill;stop-color:#000000" d="m 194.91001,60.544141 -12.17084,3.505729 -6.01927,52.25521 15.61042,4.03489 2.05052,-4.10104 -10.71563,-4.63021 z" id="path26565"/>
            <path id="path31720" style="opacity:1;fill:#000080;fill-opacity:1;stroke:none;stroke-width:2.452;stroke-dasharray:none;stroke-opacity:1;paint-order:markers stroke fill;stop-color:#000000" d="m 214.84368,65.693181 -2.4319,3.834908 -14.827,35.173051 -12.39459,6.36085 13.47049,6.22081 3.08664,-6.96909 8.98033,4.86431 1.5906,2.99361 0.32711,2.85306 10.71097,-0.28061 6.87555,3.2272 3.5078,-11.64632 7.24969,-9.30796 1.63711,-5.519042 -0.60824,-21.327897 -5.56606,1.169438 -11.27167,33.441891 -3.08715,-0.93535 -0.37414,-0.65474 z m -6.50142,29.27935 2.90008,12.207519 -0.36483,6.38566 -7.04608,-3.5326 1.23713,-7.67085 z"/>
            <path style="opacity:1;fill:#000080;fill-opacity:1;stroke:none;stroke-width:2.452;stroke-dasharray:none;stroke-opacity:1;paint-order:markers stroke fill;stop-color:#000000" d="m 236.54597,124.34531 0.32741,2.05798 6.2207,2.24506 17.3057,-37.651593 2.67351,-8.624491 -4.25186,1.026901 -16.42893,34.023863 z" id="path32792"/>
            <path style="opacity:1;fill:#fdae10;fill-opacity:1;stroke:#fa1b03;stroke-width:2.452;stroke-dasharray:none;stroke-opacity:1;paint-order:markers stroke fill;stop-color:#000000" d="m 224.99325,84.776059 1.6838,-8.652852 12.20753,-1.637024 1.02899,31.758297 1.02899,0.0468 9.30766,-28.531025 9.58829,3.367595 -19.45722,43.45134 -5.09816,-1.82411 -2.10475,-19.27013 -1.21608,0.0935 -4.63044,16.18317 -6.03361,-2.75956 7.01582,-32.132478 z" id="path30816"/>
            <path id="path30818" style="opacity:1;fill:#fdae10;fill-opacity:1;stroke:#fa1b03;stroke-width:2.452;stroke-dasharray:none;stroke-opacity:1;paint-order:markers stroke fill;stop-color:#000000" d="m 263.07329,82.372267 -4.59714,10.252604 2.87735,1.455208 -14.51901,32.874481 c 0,0 9.32939,4.69095 16.47031,4.10104 7.18206,-0.59331 12.05776,-4.75457 15.70964,-9.82266 3.78533,-5.2533 5.36856,-12.81691 4.2664,-18.95078 -0.67511,-3.757177 -3.19097,-9.823271 -8.56588,-13.52682 -3.77142,-2.59867 -11.64167,-6.383073 -11.64167,-6.383073 z m 6.84609,17.197916 c 0,0 3.78177,3.809497 4.49792,6.283857 0.74296,2.56698 0.35003,5.458 -0.46302,8.00364 -0.74449,2.331 -2.62799,4.75939 -4.36563,6.48229 -4.48035,4.44239 -13.03073,3.10886 -13.03073,3.10886 z"/>
            <g id="g33843">
                <path style="opacity:1;fill:#fdae10;fill-opacity:1;stroke:#fa1b03;stroke-width:2.452;stroke-dasharray:none;stroke-opacity:1;paint-order:markers stroke fill;stop-color:#000000" d="m 187.79933,109.49206 8.20208,3.83646 2.84427,-6.97839 8.7974,4.26641 -0.19844,-8.36745 -5.58932,-3.27422 5.62239,-12.468489 0.99219,0.429948 2.74505,30.360941 8.92969,-0.42995 -8.16901,-51.097658 z" id="path30406"/>
                <path style="opacity:1;fill:#fa1b03;fill-opacity:1;stroke:none;stroke-width:2.452;stroke-dasharray:none;stroke-opacity:1;paint-order:markers stroke fill;stop-color:#000000" d="m 207.35447,111.79941 3.52304,1.7663 -2.21045,-11.2483 -1.02398,8.29913 z" id="path31725"/>
            </g>
        </g>
    </g>
</svg>
