<?xml version="1.0" encoding="UTF-8" standalone="no"?>
<!DOCTYPE svg PUBLIC "-//W3C//DTD SVG 1.1//EN" "http://www.w3.org/Graphics/SVG/1.1/DTD/svg11.dtd">
<svg xmlns="http://www.w3.org/2000/svg" version="1.1" viewBox="0 0 600 300">
<g stroke-width="2.00" fill="none" stroke-linecap="butt">
<path stroke="#37586c" vector-effect="non-scaling-stroke" d="   M 153.96 219.81   Q 177.60 218.85 200.52 224.75   A 0.49 0.49 -71.8 0 0 201.11 224.45   L 224.93 161.74   A 0.45 0.45 -72.4 0 0 224.62 161.14   Q 200.70 155.57 177.04 159.25"/>
<path stroke="#783934" vector-effect="non-scaling-stroke" d="   M 184.44 139.87   Q 207.75 137.51 231.30 142.93   A 0.77 0.77 -72.9 0 0 232.20 142.45   L 255.07 82.36   A 0.79 0.78 17.3 0 0 254.51 81.31   Q 231.67 75.81 207.75 78.46"/>
<path stroke="#546841" vector-effect="non-scaling-stroke" d="   M 250.20 148.13   Q 271.53 156.04 289.01 169.76   A 0.47 0.47 29.6 0 0 289.74 169.56   L 312.68 109.30   A 1.11 1.11 -60.9 0 0 312.32 108.03   Q 294.72 94.81 273.34 87.11   A 0.43 0.41 19.7 0 0 272.80 87.35   L 249.90 147.47   A 0.51 0.51 82.5 0 0 250.20 148.13"/>
<path stroke="#7f6e0f" vector-effect="non-scaling-stroke" d="   M 281.86 188.30   C 270.06 178.88 257.49 172.69 243.51 166.94   A 0.87 0.86 21.3 0 0 242.38 167.43   L 218.97 228.79   A 0.63 0.63 -28.1 0 0 219.34 229.60   Q 240.65 237.57 258.32 251.19   A 0.32 0.31 -60.8 0 0 258.81 251.05   L 282.19 189.51   A 1.08 1.06 -60.6 0 0 281.86 188.30"/>
</g>
<path fill="#000000" d="   M 84.44 3.63   C 83.59 6.28 82.36 12.38 79.18 12.34   C 76.41 12.30 73.65 12.60 70.82 12.83   A 0.63 0.62 8.0 0 1 70.17 11.99   L 73.22 4.40   A 0.85 0.84 7.9 0 1 73.93 3.87   L 83.93 2.97   A 0.50 0.50 -83.0 0 1 84.44 3.63   Z"/>
<path fill="#000000" d="   M 90.43 18.85   A 0.91 0.86 9.4 0 1 91.23 18.31   L 106.01 17.77   A 0.66 0.66 -80.8 0 1 106.65 18.66   L 103.76 26.23   A 1.80 1.71 -80.8 0 1 102.25 27.38   L 87.36 28.33   A 0.38 0.37 8.8 0 1 86.98 27.82   L 90.43 18.85   Z"/>
<path fill="#ef7066" d="   M 63.68 31.81   Q 67.66 30.86 71.75 31.20   A 0.41 0.39 12.8 0 1 72.11 31.73   L 69.67 37.98   A 0.84 0.81 8.6 0 1 68.94 38.50   L 60.97 39.00   A 0.35 0.34 -80.5 0 1 60.64 38.52   L 63.01 32.39   A 0.97 0.91 2.5 0 1 63.68 31.81   Z"/>
<path fill="#000000" d="   M 127.58 32.19   A 0.43 0.42 -80.9 0 1 127.99 32.77   L 123.50 44.24   A 0.79 0.79 -81.4 0 1 122.81 44.75   L 104.11 45.74   A 0.36 0.35 8.9 0 1 103.75 45.26   L 108.12 33.77   A 0.81 0.75 7.6 0 1 108.82 33.27   L 127.58 32.19   Z"/>
<path fill="#000000" d="   M 123.90 59.42   L 129.63 44.28   A 0.79 0.75 -80.9 0 1 130.30 43.77   L 153.69 42.33   A 0.33 0.33 9.0 0 1 154.02 42.78   L 148.13 58.23   A 0.78 0.77 8.8 0 1 147.45 58.72   L 124.50 60.22   A 0.60 0.59 8.5 0 1 123.90 59.42   Z"/>
<path fill="#000000" d="   M 440.21 98.54   Q 440.68 100.30 441.00 98.51   L 450.50 45.73   A 0.90 0.90 -84.5 0 1 451.38 45.00   L 477.52 45.00   A 0.43 0.42 -84.3 0 1 477.93 45.51   L 457.57 143.11   A 1.12 1.11 5.6 0 1 456.47 144.00   L 429.45 144.00   A 0.68 0.66 -7.2 0 1 428.80 143.51   L 413.01 83.43   Q 412.54 81.67 412.08 83.43   L 396.36 143.39   A 0.83 0.82 7.2 0 1 395.56 144.00   L 368.47 144.00   A 0.87 0.87 84.3 0 1 367.62 143.30   L 347.06 45.80   A 0.67 0.66 84.3 0 1 347.71 45.00   L 373.95 45.00   A 0.74 0.74 -5.1 0 1 374.68 45.61   L 384.19 98.43   Q 384.45 99.85 384.82 98.45   L 398.67 45.80   A 1.08 1.07 7.3 0 1 399.71 45.00   L 425.29 45.00   A 1.07 1.06 -7.4 0 1 426.32 45.79   L 440.21 98.54   Z"/>
<rect fill="#000000" x="483.75" y="45.00" width="26.26" height="18.76" rx="0.60"/>
<path fill="#ef7066" d="   M 82.33 47.34   A 0.92 0.81 6.2 0 1 83.09 46.80   L 93.80 45.77   A 0.53 0.52 7.5 0 1 94.35 46.47   L 91.48 54.05   A 1.37 1.36 7.6 0 1 90.33 54.92   L 79.62 55.93   A 0.35 0.35 7.2 0 1 79.25 55.46   L 82.33 47.34   Z"/>
<path fill="#000000" d="   M 155.06 52.01   A 1.54 1.49 8.1 0 1 156.37 51.06   L 182.58 49.23   A 0.48 0.48 7.8 0 1 183.07 49.87   L 175.37 70.09   A 1.38 1.35 9.1 0 1 174.15 70.95   L 148.15 72.27   A 0.56 0.56 8.8 0 1 147.59 71.51   L 155.06 52.01   Z"/>
<path fill="#000101" d="   M 153.96 219.81   Q 177.60 218.85 200.52 224.75   A 0.49 0.49 -71.8 0 0 201.11 224.45   L 224.93 161.74   A 0.45 0.45 -72.4 0 0 224.62 161.14   Q 200.70 155.57 177.04 159.25   Q 180.27 149.22 184.44 139.87   Q 207.75 137.51 231.30 142.93   A 0.77 0.77 -72.9 0 0 232.20 142.45   L 255.07 82.36   A 0.79 0.78 17.3 0 0 254.51 81.31   Q 231.67 75.81 207.75 78.46   L 218.12 51.53   A 0.83 0.81 6.2 0 1 218.80 51.00   Q 223.01 50.47 227.25 50.50   C 270.49 50.82 315.48 67.72 343.21 101.98   A 2.45 2.43 36.3 0 1 343.59 104.41   L 268.05 297.40   A 0.47 0.47 -55.0 0 1 267.26 297.54   C 239.62 265.58 199.17 248.76 157.50 246.54   Q 150.99 246.19 144.55 246.75   A 0.55 0.54 7.8 0 1 143.99 246.02   L 153.96 219.81   Z   M 250.20 148.13   Q 271.53 156.04 289.01 169.76   A 0.47 0.47 29.6 0 0 289.74 169.56   L 312.68 109.30   A 1.11 1.11 -60.9 0 0 312.32 108.03   Q 294.72 94.81 273.34 87.11   A 0.43 0.41 19.7 0 0 272.80 87.35   L 249.90 147.47   A 0.51 0.51 82.5 0 0 250.20 148.13   Z   M 281.86 188.30   C 270.06 178.88 257.49 172.69 243.51 166.94   A 0.87 0.86 21.3 0 0 242.38 167.43   L 218.97 228.79   A 0.63 0.63 -28.1 0 0 219.34 229.60   Q 240.65 237.57 258.32 251.19   A 0.32 0.31 -60.8 0 0 258.81 251.05   L 282.19 189.51   A 1.08 1.06 -60.6 0 0 281.86 188.30   Z"/>
<path fill="#000000" d="   M 185.44 53.67   A 1.07 1.05 -80.7 0 1 186.36 52.99   L 214.05 51.47   A 0.50 0.49 9.1 0 1 214.54 52.14   L 204.81 77.42   A 1.88 1.85 -80.7 0 1 203.17 78.62   L 176.58 80.06   A 0.77 0.77 -80.8 0 1 175.83 79.01   L 185.44 53.67   Z"/>
<path fill="#ef7066" d="   M 52.82 59.11   A 0.89 0.87 8.5 0 1 53.60 58.55   L 61.61 58.16   A 0.41 0.41 -80.8 0 1 62.01 58.72   L 59.25 65.61   A 0.83 0.74 -78.8 0 1 58.57 66.13   L 50.61 66.47   A 0.38 0.37 -80.7 0 1 50.25 65.95   L 52.82 59.11   Z"/>
<path fill="#ef7066" d="   M 99.83 62.60   A 0.56 0.53 7.8 0 1 100.32 62.25   L 114.83 61.35   A 0.67 0.64 8.4 0 1 115.51 62.22   L 111.77 71.87   A 0.83 0.77 8.1 0 1 111.06 72.36   L 96.56 73.18   A 0.35 0.35 -81.7 0 1 96.21 72.71   L 99.83 62.60   Z"/>
<path fill="#ef7066" d="   M 121.50 72.78   A 0.80 0.78 -81.3 0 1 122.19 72.26   L 141.81 70.96   A 0.33 0.33 -81.5 0 1 142.14 71.41   L 137.10 84.94   A 0.83 0.77 -80.5 0 1 136.41 85.47   L 116.93 86.77   A 0.48 0.48 -81.7 0 1 116.45 86.12   L 121.50 72.78   Z"/>
<path fill="#000000" d="   M 543.37 82.31   Q 543.35 84.17 544.43 82.70   C 558.18 64.00 590.33 66.26 590.78 94.04   Q 591.17 117.95 590.99 143.13   A 0.86 0.84 -89.3 0 1 590.14 143.98   L 565.44 143.83   A 0.53 0.52 90.0 0 1 564.93 143.31   Q 564.80 123.10 564.54 102.89   C 564.47 97.16 562.61 92.44 556.30 92.31   C 545.95 92.09 544.98 103.56 545.07 111.25   Q 545.25 127.25 545.25 143.33   A 0.67 0.67 -89.8 0 1 544.58 144.00   L 519.94 144.00   A 0.69 0.69 -0.3 0 1 519.25 143.31   L 519.25 72.75   A 0.50 0.50 0.0 0 1 519.75 72.25   L 542.85 72.25   A 0.63 0.61 0.4 0 1 543.48 72.87   L 543.37 82.31   Z"/>
<rect fill="#000000" x="-13.10" y="-35.87" transform="translate(496.85,108.12) rotate(0.1)" width="26.20" height="71.74" rx="0.54"/>
<path fill="#ef7066" d="   M 71.68 75.21   A 1.44 1.29 6.0 0 1 72.88 74.34   L 83.50 73.38   A 0.42 0.40 7.6 0 1 83.94 73.93   L 80.77 81.85   A 0.88 0.85 -81.2 0 1 80.06 82.39   L 69.32 83.42   A 0.35 0.35 6.8 0 1 68.95 82.96   L 71.68 75.21   Z"/>
<path fill="#ef7066" d="   M 184.44 139.87   L 207.75 78.46   Q 231.67 75.81 254.51 81.31   A 0.79 0.78 17.3 0 1 255.07 82.36   L 232.20 142.45   A 0.77 0.77 -72.9 0 1 231.30 142.93   Q 207.75 137.51 184.44 139.87   Z"/>
<path fill="#ef7066" d="   M 146.87 82.13   A 1.33 1.32 -80.8 0 1 148.04 81.28   L 168.99 80.26   A 0.60 0.60 9.0 0 1 169.58 81.07   L 163.68 96.61   A 1.23 1.23 8.5 0 1 162.61 97.40   L 141.07 98.92   A 0.46 0.45 -81.3 0 1 140.62 98.30   L 146.87 82.13   Z"/>
<path fill="#000000" d="   M 174.07 83.87   A 1.29 1.24 7.9 0 1 175.19 83.06   L 202.47 81.64   A 0.48 0.48 8.7 0 1 202.95 82.29   L 194.42 104.97   A 1.80 1.73 -80.4 0 1 192.86 106.13   L 165.76 107.49   A 0.35 0.34 8.8 0 1 165.41 107.03   L 174.07 83.87   Z"/>
<path fill="#a8ce81" d="   M 250.20 148.13   A 0.51 0.51 -25.2 0 1 249.90 147.47   L 272.80 87.35   A 0.43 0.41 19.7 0 1 273.34 87.11   Q 294.72 94.81 312.32 108.03   A 1.11 1.11 -60.9 0 1 312.68 109.30   L 289.74 169.56   A 0.47 0.47 29.6 0 1 289.01 169.76   Q 271.53 156.04 250.20 148.13   Z"/>
<path fill="#000000" d="   M 41.09 88.55   A 0.84 0.81 -81.3 0 1 41.79 88.02   L 52.02 87.26   A 0.45 0.45 -81.6 0 1 52.47 87.87   L 49.35 96.10   A 0.96 0.91 -79.7 0 1 48.52 96.71   L 38.68 97.00   A 0.63 0.60 -79.7 0 1 38.11 96.14   L 41.09 88.55   Z"/>
<path fill="#ef7066" d="   M 89.35 90.27   A 0.81 0.79 -80.5 0 1 90.04 89.76   L 104.70 88.99   A 0.52 0.51 -80.7 0 1 105.20 89.70   L 101.69 98.92   A 0.89 0.83 -81.0 0 1 100.96 99.49   L 86.24 100.72   A 0.65 0.63 -81.6 0 1 85.60 99.84   L 89.35 90.27   Z"/>
<path fill="#ef7066" d="   M 111.07 100.33   A 0.82 0.79 -80.7 0 1 111.77 99.81   L 131.18 98.58   A 0.35 0.33 8.2 0 1 131.53 99.03   L 126.38 112.48   A 0.76 0.76 -80.6 0 1 125.70 112.97   L 106.62 113.76   A 0.54 0.52 -80.6 0 1 106.12 113.03   L 111.07 100.33   Z"/>
<path fill="#000000" d="   M 58.13 103.68   A 1.04 1.03 8.7 0 1 59.01 103.04   L 74.26 102.00   A 0.45 0.43 8.2 0 1 74.72 102.59   L 71.39 110.97   A 0.83 0.82 -81.3 0 1 70.69 111.49   L 55.63 112.66   A 0.74 0.72 -81.0 0 1 54.92 111.65   L 58.13 103.68   Z"/>
<path fill="#ef7066" d="   M 136.33 109.83   A 1.54 1.52 8.0 0 1 137.66 108.84   L 158.65 107.44   A 0.64 0.64 -81.1 0 1 159.28 108.31   L 153.09 124.49   A 0.75 0.75 -81.4 0 1 152.45 124.97   L 130.70 126.50   A 0.42 0.42 8.0 0 1 130.27 125.93   L 136.33 109.83   Z"/>
<path fill="#000000" d="   M 163.51 111.63   A 1.70 1.65 8.4 0 1 165.00 110.56   L 192.19 109.19   A 0.38 0.38 -81.2 0 1 192.56 109.70   L 183.67 133.12   A 0.99 0.97 -80.8 0 1 182.80 133.76   L 155.18 135.27   A 0.43 0.42 8.8 0 1 154.75 134.70   L 163.51 111.63   Z"/>
<path fill="#6eaed7" d="   M 31.13 116.26   A 0.82 0.75 7.4 0 1 31.84 115.76   L 39.43 115.26   A 0.68 0.67 8.2 0 1 40.12 116.17   L 37.55 122.73   A 0.91 0.76 -78.1 0 1 36.81 123.31   L 28.93 123.60   A 0.39 0.37 -80.3 0 1 28.58 123.08   L 31.13 116.26   Z"/>
<path fill="#000000" d="   M 95.54 116.44   A 0.34 0.33 8.4 0 1 95.88 116.89   L 91.50 128.31   A 1.12 1.08 8.4 0 1 90.52 129.01   L 72.11 129.99   A 0.48 0.48 9.0 0 1 71.63 129.34   L 76.11 118.02   A 0.82 0.80 9.0 0 1 76.82 117.52   L 95.54 116.44   Z"/>
<path fill="#000000" d="   M 97.55 128.38   A 0.60 0.57 -80.4 0 1 98.06 128.00   L 121.50 126.49   A 0.47 0.47 8.3 0 1 121.98 127.12   L 116.18 142.45   A 0.85 0.84 8.3 0 1 115.43 143.00   L 92.35 144.51   A 0.59 0.58 -81.3 0 1 91.77 143.71   L 97.55 128.38   Z"/>
<path fill="#6eaed7" d="   M 50.21 131.64   A 1.06 0.93 7.3 0 1 51.16 131.00   L 61.64 130.65   A 0.48 0.48 9.2 0 1 62.11 131.30   L 59.17 138.82   A 1.51 1.46 9.2 0 1 57.84 139.74   L 47.81 140.16   A 0.37 0.34 8.0 0 1 47.44 139.71   L 50.21 131.64   Z"/>
<path fill="#000000" d="   M 123.25 135.80   A 0.77 0.74 8.4 0 1 123.94 135.31   L 150.20 133.97   A 0.63 0.63 -81.1 0 1 150.82 134.82   L 143.29 154.52   A 1.10 1.08 8.6 0 1 142.33 155.21   L 116.13 156.52   A 0.55 0.55 8.6 0 1 115.58 155.78   L 123.25 135.80   Z"/>
<path fill="#000000" d="   M 153.20 138.80   A 0.85 0.82 8.5 0 1 153.94 138.27   L 181.30 136.77   A 0.67 0.67 9.1 0 1 181.96 137.68   L 173.42 160.22   A 1.84 1.76 -80.3 0 1 171.83 161.40   L 144.76 162.73   A 0.35 0.33 8.2 0 1 144.41 162.28   L 153.20 138.80   Z"/>
<path fill="#6eaed7" d="   M 27.12 150.00   A 0.83 0.77 8.1 0 1 26.41 150.49   L 18.81 150.97   A 0.67 0.67 -81.1 0 1 18.14 150.05   L 20.50 144.03   A 1.22 1.21 8.8 0 1 21.58 143.25   L 29.11 142.84   A 0.55 0.51 8.6 0 1 29.66 143.54   L 27.12 150.00   Z"/>
<path fill="#6eaed7" d="   M 67.57 147.33   A 0.44 0.41 -80.8 0 1 67.93 147.05   L 82.93 146.31   A 0.37 0.35 8.8 0 1 83.30 146.79   L 79.80 155.92   A 1.29 1.19 8.0 0 1 78.70 156.68   L 64.47 157.50   A 0.45 0.45 -81.5 0 1 64.02 156.89   L 67.57 147.33   Z"/>
<path fill="#000000" d="   M 456.69 220.36   Q 456.68 218.87 455.78 220.06   C 433.34 249.84 388.19 235.47 385.25 198.75   C 383.36 175.19 394.97 154.99 419.50 150.50   C 439.69 146.81 459.87 158.13 467.71 176.78   Q 470.82 184.17 472.09 196.22   C 474.39 217.98 473.93 249.33 458.65 267.29   C 449.10 278.50 434.15 283.47 419.32 281.67   C 401.80 279.54 390.52 268.85 387.64 250.82   A 0.77 0.73 83.2 0 1 388.30 249.94   L 402.75 248.76   A 0.65 0.59 79.7 0 1 403.38 249.24   C 406.22 260.02 411.02 267.91 423.25 268.79   C 450.10 270.74 456.85 240.13 456.69 220.36   Z   M 409.13 213.62   C 417.36 222.52 432.48 224.75 442.44 218.19   C 452.38 211.63 455.28 200.77 454.52 189.39   C 452.95 165.89 426.81 153.25 409.70 172.24   C 399.83 183.19 398.88 202.54 409.13 213.62   Z"/>
<path fill="#6eaed7" d="   M 89.56 156.86   A 0.59 0.56 8.4 0 1 90.07 156.50   L 108.80 155.60   A 0.88 0.87 9.1 0 1 109.67 156.79   L 104.97 169.06   A 1.10 1.09 8.5 0 1 104.03 169.75   L 85.02 171.01   A 0.59 0.59 -81.7 0 1 84.43 170.21   L 89.56 156.86   Z"/>
<path fill="#6eaed7" d="   M 153.96 219.81   L 177.04 159.25   Q 200.70 155.57 224.62 161.14   A 0.45 0.45 -72.4 0 1 224.93 161.74   L 201.11 224.45   A 0.49 0.49 -71.8 0 1 200.52 224.75   Q 177.60 218.85 153.96 219.81   Z"/>
<path fill="#6eaed7" d="   M 51.17 158.19   A 0.50 0.49 -80.7 0 1 51.65 158.87   L 48.73 166.39   A 1.23 1.21 -81.3 0 1 47.67 167.18   L 37.18 167.75   A 0.42 0.41 -81.6 0 1 36.77 167.19   L 39.74 159.26   A 0.79 0.77 -80.0 0 1 40.43 158.76   L 51.17 158.19   Z"/>
<path fill="#000000" d="   M 142.56 166.62   A 1.31 1.30 8.7 0 1 143.70 165.79   L 171.01 164.33   A 0.58 0.57 -80.9 0 1 171.57 165.11   L 162.64 188.37   A 0.94 0.94 -80.9 0 1 161.81 188.97   L 134.56 190.47   A 0.75 0.75 -81.1 0 1 133.82 189.45   L 142.56 166.62   Z"/>
<path fill="#6eaed7" d="   M 114.74 166.80   A 1.19 1.17 8.5 0 1 115.77 166.05   L 136.97 164.52   A 0.60 0.60 -81.6 0 1 137.57 165.33   L 131.40 181.34   A 1.31 1.30 -81.4 0 1 130.28 182.17   L 108.82 183.60   A 0.37 0.37 8.6 0 1 108.45 183.10   L 114.74 166.80   Z"/>
<path fill="#fddb1d" d="   M 243.51 166.94   C 257.49 172.69 270.06 178.88 281.86 188.30   A 1.08 1.06 -60.6 0 1 282.19 189.51   L 258.81 251.05   A 0.32 0.31 -60.8 0 1 258.32 251.19   Q 240.65 237.57 219.34 229.60   A 0.63 0.63 76.7 0 1 218.97 228.79   L 242.38 167.43   A 0.87 0.86 21.3 0 1 243.51 166.94   Z"/>
<path fill="#000000" d="   M 17.57 179.55   A 1.25 1.07 6.9 0 1 16.52 180.25   L 6.60 180.86   A 0.33 0.31 7.4 0 1 6.26 180.45   L 9.48 171.88   A 0.78 0.76 -79.6 0 1 10.18 171.38   L 20.19 171.27   A 0.38 0.37 -79.6 0 1 20.53 171.79   L 17.57 179.55   Z"/>
<path fill="#6eaed7" d="   M 57.03 175.20   A 1.15 1.12 -81.4 0 1 57.98 174.48   L 72.64 173.24   A 0.54 0.54 -81.9 0 1 73.19 173.98   L 69.37 183.72   A 0.80 0.75 -79.7 0 1 68.69 184.23   L 53.92 185.01   A 0.50 0.48 -79.7 0 1 53.46 184.32   L 57.03 175.20   Z"/>
<path fill="#6eaed7" d="   M 79.17 184.48   A 0.75 0.69 7.8 0 1 79.81 184.03   L 98.96 182.73   A 0.49 0.48 8.1 0 1 99.46 183.38   L 94.40 196.54   A 1.52 1.42 8.0 0 1 93.10 197.45   L 74.41 198.66   A 0.44 0.42 7.7 0 1 73.96 198.09   L 79.17 184.48   Z"/>
<path fill="#000000" d="   M 39.43 195.12   A 0.24 0.21 7.4 0 1 39.23 195.25   L 23.69 195.93   A 0.49 0.48 -80.6 0 1 23.22 195.26   L 26.43 187.04   A 0.84 0.78 -79.5 0 1 27.14 186.51   L 42.31 185.93   A 0.37 0.36 9.0 0 1 42.67 186.42   L 39.43 195.12   Z"/>
<path fill="#6eaed7" d="   M 104.10 194.68   A 1.68 1.67 8.4 0 1 105.56 193.60   L 126.82 192.14   A 0.33 0.33 9.0 0 1 127.15 192.59   L 120.81 209.24   A 0.78 0.77 9.0 0 1 120.11 209.74   L 98.62 210.78   A 0.49 0.49 -81.0 0 1 98.14 210.11   L 104.10 194.68   Z"/>
<path fill="#000000" d="   M 132.01 194.25   A 1.24 1.19 -80.4 0 1 133.07 193.46   L 160.25 191.98   A 0.70 0.70 -81.0 0 1 160.94 192.93   L 152.18 215.95   A 0.86 0.85 -80.9 0 1 151.43 216.50   L 123.96 218.01   A 0.69 0.69 -81.1 0 1 123.28 217.07   L 132.01 194.25   Z"/>
<path fill="#000000" d="   M 514.07 222.79   A 0.75 0.73 46.4 0 0 515.30 222.83   L 535.62 193.61   A 1.44 1.43 -72.2 0 1 536.79 193.00   L 553.01 193.00   Q 553.94 193.00 553.41 193.77   L 524.81 234.98   A 1.06 1.06 -45.3 0 0 524.81 236.18   L 555.63 281.15   Q 556.21 282.00 555.19 282.00   L 538.80 282.00   A 1.71 1.69 -16.5 0 1 537.38 281.24   L 516.15 248.69   A 0.72 0.71 45.6 0 0 514.96 248.67   L 492.72 281.33   A 1.55 1.52 -72.5 0 1 491.46 282.00   L 475.31 282.00   Q 474.06 282.00 474.78 280.97   L 505.58 236.68   A 1.30 1.30 0.0 0 0 505.58 235.20   L 477.05 193.96   Q 476.39 193.00 477.55 193.00   L 494.58 193.00   A 0.98 0.94 -15.9 0 1 495.39 193.43   L 514.07 222.79   Z"/>
<path fill="#000000" d="   M 59.98 211.53   A 1.12 1.08 -80.6 0 1 59.00 212.26   L 40.42 213.25   A 0.41 0.40 8.3 0 1 40.01 212.71   L 44.30 201.71   A 0.82 0.78 8.2 0 1 45.01 201.21   L 63.51 200.23   A 0.54 0.53 -80.7 0 1 64.03 200.97   L 59.98 211.53   Z"/>
<path fill="#000000" d="   M 60.43 227.81   A 0.42 0.42 -81.5 0 1 60.01 227.24   L 65.64 212.28   A 0.80 0.78 -81.5 0 1 66.31 211.77   L 89.84 210.23   A 0.35 0.34 8.6 0 1 90.19 210.69   L 84.39 225.72   A 0.81 0.78 8.4 0 1 83.69 226.22   L 60.43 227.81   Z"/>
<path fill="#000000" d="   M 91.32 219.61   A 0.56 0.56 -81.0 0 1 91.81 219.25   L 118.77 217.26   A 0.45 0.44 -81.4 0 1 119.21 217.87   L 111.70 237.52   A 1.48 1.43 8.3 0 1 110.42 238.44   L 84.16 240.28   A 0.48 0.47 8.3 0 1 83.68 239.64   L 91.32 219.61   Z"/>
<path fill="#000000" d="   M 121.65 221.64   A 0.99 0.99 -81.0 0 1 122.53 221.00   L 150.27 219.47   A 0.40 0.40 -81.1 0 1 150.67 220.02   L 141.07 245.22   A 1.45 1.42 -81.2 0 1 139.83 246.15   L 112.50 248.03   A 0.63 0.63 -81.6 0 1 111.87 247.18   L 121.65 221.64   Z"/>
</svg>