<?xml version="1.0" encoding="UTF-8" standalone="no"?>
<!DOCTYPE svg PUBLIC "-//W3C//DTD SVG 1.1//EN" "http://www.w3.org/Graphics/SVG/1.1/DTD/svg11.dtd">
<svg xmlns="http://www.w3.org/2000/svg" version="1.1" viewBox="0 0 600 300">
<g stroke-width="2.00" fill="none" stroke-linecap="butt">
<path stroke="#00007f" vector-effect="non-scaling-stroke" d="   M 183.54 223.50   Q 207.60 213.54 233.26 209.00   A 1.21 1.20 -5.2 0 0 234.25 207.82   L 234.25 143.56   A 0.90 0.89 86.8 0 0 233.26 142.67   Q 206.91 145.51 183.62 156.44"/>
<path stroke="#7f0000" vector-effect="non-scaling-stroke" d="   M 183.54 134.00   C 202.05 126.55 215.99 121.88 233.31 120.25   A 1.05 1.04 87.3 0 0 234.25 119.21   L 234.25 51.20   A 0.50 0.50 -2.6 0 0 233.70 50.70   C 215.72 52.54 200.00 58.22 183.54 65.00"/>
<path stroke="#004000" vector-effect="non-scaling-stroke" d="   M 304.25 55.25   C 288.00 49.21 273.69 46.28 255.50 47.34   A 1.06 1.06 -1.7 0 0 254.50 48.40   L 254.50 117.94   A 0.56 0.56 0.0 0 0 255.06 118.50   C 264.49 118.50 274.42 117.94 283.22 119.57   Q 293.29 121.43 303.54 125.12   A 0.72 0.71 10.0 0 0 304.50 124.45   L 304.44 55.51   A 0.29 0.27 10.8 0 0 304.25 55.25"/>
<path stroke="#7f7f00" vector-effect="non-scaling-stroke" d="   M 304.12 145.96   Q 280.50 136.72 255.31 139.51   A 0.56 0.55 -2.9 0 0 254.81 140.06   L 254.81 207.19   A 0.48 0.48 -1.1 0 0 255.31 207.67   Q 280.34 206.62 303.66 214.63   A 0.63 0.63 -80.5 0 0 304.50 214.03   L 304.50 146.51   A 0.60 0.59 11.0 0 0 304.12 145.96"/>
</g>
<path fill="#000000" d="   M 183.54 223.50   Q 207.60 213.54 233.26 209.00   A 1.21 1.20 -5.2 0 0 234.25 207.82   L 234.25 143.56   A 0.90 0.89 86.8 0 0 233.26 142.67   Q 206.91 145.51 183.62 156.44   L 183.54 134.00   C 202.05 126.55 215.99 121.88 233.31 120.25   A 1.05 1.04 87.3 0 0 234.25 119.21   L 234.25 51.20   A 0.50 0.50 -2.6 0 0 233.70 50.70   C 215.72 52.54 200.00 58.22 183.54 65.00   L 183.93 34.19   A 0.78 0.78 -11.2 0 1 184.40 33.49   Q 259.92 1.25 335.06 35.67   A 1.61 1.60 12.3 0 1 336.00 37.13   L 336.00 255.65   A 0.68 0.68 -76.8 0 1 335.02 256.26   C 286.95 232.28 232.92 227.88 185.01 255.34   A 0.84 0.83 74.9 0 1 183.76 254.61   L 183.54 223.50   Z   M 304.25 55.25   C 288.00 49.21 273.69 46.28 255.50 47.34   A 1.06 1.06 -1.7 0 0 254.50 48.40   L 254.50 117.94   A 0.56 0.56 0.0 0 0 255.06 118.50   C 264.49 118.50 274.42 117.94 283.22 119.57   Q 293.29 121.43 303.54 125.12   A 0.72 0.71 10.0 0 0 304.50 124.45   L 304.44 55.51   A 0.29 0.27 10.8 0 0 304.25 55.25   Z   M 304.12 145.96   Q 280.50 136.72 255.31 139.51   A 0.56 0.55 -2.9 0 0 254.81 140.06   L 254.81 207.19   A 0.48 0.48 -1.1 0 0 255.31 207.67   Q 280.34 206.62 303.66 214.63   A 0.63 0.63 -80.5 0 0 304.50 214.03   L 304.50 146.51   A 0.60 0.59 11.0 0 0 304.12 145.96   Z"/>
<path fill="#000000" d="   M 438.07 108.95   Q 438.65 110.72 439.32 108.98   Q 448.95 83.80 458.49 59.13   Q 462.11 49.78 463.69 41.19   C 464.67 35.87 456.88 33.26 452.94 32.63   A 0.88 0.73 -2.3 0 1 452.25 32.10   Q 451.96 31.18 452.49 30.43   A 1.06 0.83 13.7 0 1 453.30 30.06   L 482.44 30.06   A 0.80 0.71 -9.7 0 1 483.16 30.51   Q 483.49 31.37 483.15 32.24   A 0.96 0.77 2.4 0 1 482.44 32.76   C 476.17 33.73 472.19 37.02 470.30 43.18   Q 468.11 50.29 465.50 57.25   Q 450.95 96.13 436.43 135.02   A 1.47 1.11 -87.1 0 1 435.82 135.75   Q 434.41 136.45 433.00 135.70   A 1.39 1.15 -89.9 0 1 432.40 134.97   L 410.64 74.14   Q 410.19 72.87 409.77 74.15   L 389.91 135.03   A 1.23 0.91 -86.2 0 1 389.32 135.73   Q 388.10 136.23 385.82 135.76   A 1.54 1.54 -3.3 0 1 384.67 134.74   Q 368.74 88.32 352.50 42.33   C 350.77 37.42 347.83 34.88 343.16 33.29   C 341.53 32.73 339.72 33.82 340.03 30.73   A 0.81 0.80 -87.2 0 1 340.83 30.00   Q 358.57 30.00 376.14 30.00   C 377.93 30.00 378.70 29.88 377.92 32.23   A 0.73 0.72 -81.4 0 1 377.25 32.73   C 370.22 32.90 366.82 36.67 368.40 43.41   Q 370.24 51.32 372.98 58.97   Q 382.03 84.24 391.01 109.77   Q 391.53 111.26 392.01 109.75   L 406.58 63.97   A 3.82 3.82 41.3 0 0 406.40 61.20   C 404.12 56.37 402.22 51.18 400.76 45.79   Q 397.89 35.19 387.05 32.79   A 1.01 0.82 -0.7 0 1 386.36 32.24   Q 386.01 31.28 386.51 30.47   A 0.96 0.81 12.7 0 1 387.30 30.06   L 425.44 30.06   A 1.12 0.94 -15.6 0 1 426.28 30.44   Q 426.95 31.36 426.30 32.36   A 0.89 0.73 16.9 0 1 425.50 32.69   C 415.62 31.71 413.93 40.11 416.69 47.56   Q 428.11 78.41 438.07 108.95   Z"/>
<path fill="#000000" d="   M 150.99 77.32   A 0.55 0.54 2.9 0 1 150.50 76.78   L 150.50 50.88   A 2.34 2.33 -13.0 0 1 151.82 48.78   L 178.79 35.90   A 0.45 0.45 -13.3 0 1 179.44 36.30   L 179.50 62.03   A 1.61 1.57 -14.1 0 1 178.64 63.43   Q 165.46 70.20 152.47 77.00   Q 151.74 77.38 150.99 77.32   Z"/>
<path fill="#000000" d="   M 27.33 45.61   A 1.31 1.05 -14.1 0 1 26.55 46.64   L 18.34 50.31   A 0.95 0.90 -12.8 0 1 17.00 49.52   L 17.00 41.67   A 1.23 1.22 76.5 0 1 17.66 40.58   L 26.37 36.05   A 0.76 0.72 -13.7 0 1 27.47 36.68   L 27.33 45.61   Z"/>
<path fill="#000000" d="   M 52.65 54.59   L 40.27 61.74   Q 39.25 62.33 39.25 61.11   L 39.25 49.56   A 1.89 1.89 -15.3 0 1 40.18 47.93   L 51.85 40.99   Q 53.24 40.17 53.22 41.74   L 53.09 53.81   A 0.95 0.91 75.6 0 1 52.65 54.59   Z"/>
<path fill="#000000" d="   M 145.33 70.70   A 1.54 1.53 78.2 0 1 144.48 72.01   L 119.83 84.33   A 0.75 0.75 76.7 0 1 118.75 83.66   L 118.75 59.99   A 1.67 1.65 -13.4 0 1 119.67 58.51   L 144.76 45.99   A 0.34 0.34 -14.2 0 1 145.25 46.28   Q 145.83 58.65 145.33 70.70   Z"/>
<path fill="#007f00" d="   M 255.50 47.34   C 273.69 46.28 288.00 49.21 304.25 55.25   A 0.29 0.27 10.8 0 1 304.44 55.51   L 304.50 124.45   A 0.72 0.71 10.0 0 1 303.54 125.12   Q 293.29 121.43 283.22 119.57   C 274.42 117.94 264.49 118.50 255.06 118.50   A 0.56 0.56 0.0 0 1 254.50 117.94   L 254.50 48.40   A 1.06 1.06 -1.7 0 1 255.50 47.34   Z"/>
<path fill="#000000" d="   M 90.88 57.96   L 112.81 47.62   A 0.46 0.44 77.9 0 1 113.44 48.05   L 113.26 68.86   A 1.68 1.56 78.5 0 1 112.35 70.35   L 91.00 80.34   A 0.52 0.52 -12.3 0 1 90.26 79.87   L 90.42 58.68   A 0.82 0.80 78.4 0 1 90.88 57.96   Z"/>
<path fill="#000000" d="   M 64.20 59.21   A 0.56 0.50 -13.9 0 1 64.52 58.74   L 82.17 50.54   A 0.41 0.41 77.5 0 1 82.75 50.91   L 82.75 66.49   A 1.22 1.20 78.1 0 1 82.04 67.60   L 65.18 75.09   A 0.83 0.83 -11.8 0 1 64.01 74.33   L 64.20 59.21   Z"/>
<path fill="#000000" d="   M 513.06 69.86   Q 512.95 93.78 513.00 118.25   C 513.01 125.15 513.56 133.07 523.26 131.58   A 1.91 1.42 -30.5 0 1 524.21 131.68   C 527.58 133.10 524.31 134.00 522.97 134.00   Q 497.52 133.87 472.07 134.18   A 1.11 0.88 -14.9 0 1 471.22 133.81   Q 470.55 132.89 471.20 131.89   A 0.88 0.72 17.5 0 1 472.00 131.57   Q 477.52 132.31 481.79 129.01   A 1.56 1.53 -12.3 0 0 482.32 128.20   Q 483.21 124.71 483.25 118.50   Q 483.42 91.00 483.05 63.51   C 482.97 57.03 480.95 52.67 474.00 52.50   C 472.81 52.47 470.63 53.17 470.96 51.05   A 0.62 0.57 3.7 0 1 471.57 50.56   L 512.09 50.50   A 2.30 2.30 -19.9 0 1 513.86 51.33   L 565.61 113.28   Q 566.50 114.34 566.50 112.96   Q 566.54 89.04 566.45 65.51   C 566.43 57.79 565.40 51.78 556.22 52.43   C 555.26 52.50 553.51 52.52 554.30 50.98   A 0.89 0.77 11.9 0 1 555.06 50.56   L 581.18 50.56   A 0.89 0.71 -9.3 0 1 581.95 50.99   Q 582.20 51.57 581.80 52.09   A 1.19 0.80 13.0 0 1 580.93 52.42   Q 571.74 52.28 571.75 61.25   Q 571.80 98.21 571.69 135.18   A 0.76 0.64 82.9 0 1 571.23 135.88   Q 569.96 136.28 568.94 135.06   Q 541.33 102.40 513.93 69.55   Q 513.07 68.52 513.06 69.86   Z   M 497.66 55.32   Q 496.76 58.80 496.76 61.50   Q 496.75 92.82 496.75 124.15   C 496.75 125.98 496.34 127.54 497.59 129.02   C 499.86 131.70 502.63 132.10 505.56 129.65   Q 507.47 128.05 507.52 125.56   Q 508.12 95.11 507.51 63.50   A 1.76 1.59 -65.0 0 0 507.23 62.59   Q 504.01 57.85 498.34 55.01   A 0.48 0.48 20.4 0 0 497.66 55.32   Z"/>
<path fill="#fe0000" d="   M 183.54 134.00   L 183.54 65.00   C 200.00 58.22 215.72 52.54 233.70 50.70   A 0.50 0.50 -2.6 0 1 234.25 51.20   L 234.25 119.21   A 1.05 1.04 87.3 0 1 233.31 120.25   C 215.99 121.88 202.05 126.55 183.54 134.00   Z"/>
<path fill="#000000" d="   M 150.69 82.03   A 1.09 1.06 -13.5 0 1 151.30 81.07   L 178.24 67.91   A 0.88 0.88 77.1 0 1 179.50 68.70   L 179.50 93.47   A 2.56 2.53 76.4 0 1 178.14 95.73   L 151.59 109.36   A 0.73 0.73 -13.5 0 1 150.52 108.71   L 150.69 82.03   Z"/>
<path fill="#fe0000" d="   M 17.62 72.93   L 26.72 68.49   A 0.35 0.33 77.6 0 1 27.20 68.81   L 27.23 77.32   A 1.21 1.15 -12.6 0 1 26.50 78.41   L 17.70 82.29   A 0.36 0.33 -13.9 0 1 17.19 82.01   L 17.14 73.69   A 0.86 0.81 -14.2 0 1 17.62 72.93   Z"/>
<path fill="#fe0000" d="   M 40.10 80.65   L 52.02 73.37   Q 52.97 72.79 52.96 73.91   L 52.78 86.25   A 0.92 0.88 -15.1 0 1 52.32 87.01   L 40.59 93.48   A 0.72 0.72 -14.4 0 1 39.52 92.85   L 39.66 81.43   A 0.94 0.94 74.6 0 1 40.10 80.65   Z"/>
<path fill="#fe0000" d="   M 118.93 115.92   L 119.00 92.16   A 1.42 1.38 77.2 0 1 119.77 90.90   L 144.57 78.56   A 0.47 0.47 -13.3 0 1 145.25 78.98   L 145.25 102.61   A 1.29 1.27 77.0 0 1 144.54 103.76   L 119.50 116.28   A 0.39 0.39 77.2 0 1 118.93 115.92   Z"/>
<path fill="#fe0000" d="   M 91.23 112.47   A 0.51 0.50 -13.0 0 1 90.50 112.02   L 90.50 90.97   A 0.92 0.90 78.0 0 1 91.03 90.14   L 112.54 80.20   A 0.34 0.33 -12.5 0 1 113.02 80.50   L 113.23 100.52   A 2.30 2.20 -13.6 0 1 111.93 102.55   L 91.23 112.47   Z"/>
<path fill="#fe0000" d="   M 82.44 85.70   L 82.60 98.56   A 0.82 0.76 -13.3 0 1 82.12 99.27   L 65.14 107.00   A 0.63 0.63 77.8 0 1 64.25 106.42   L 64.25 92.23   A 1.47 1.45 -13.0 0 1 65.08 90.92   Q 73.47 86.94 81.77 83.36   Q 83.47 82.63 82.68 84.36   Q 82.43 84.90 82.44 85.70   Z"/>
<path fill="#fe0000" d="   M 17.62 103.68   L 26.32 99.27   A 0.66 0.63 77.1 0 1 27.24 99.87   L 27.20 108.44   A 0.78 0.73 -12.0 0 1 26.72 109.13   L 17.65 112.87   A 0.37 0.35 -11.9 0 1 17.14 112.56   L 17.14 104.44   A 0.87 0.84 -13.7 0 1 17.62 103.68   Z"/>
<path fill="#000000" d="   M 150.69 113.60   Q 151.26 112.66 151.84 112.38   Q 165.19 105.98 177.95 99.77   A 1.08 1.08 77.0 0 1 179.50 100.74   L 179.50 125.89   A 1.43 1.40 76.7 0 1 178.74 127.15   L 151.69 140.94   A 0.69 0.69 -13.4 0 1 150.69 140.33   L 150.50 114.29   A 1.36 1.34 -29.9 0 1 150.69 113.60   Z"/>
<path fill="#fe0000" d="   M 40.10 111.39   Q 45.85 107.19 52.41 103.82   A 0.41 0.40 -13.5 0 1 53.00 104.18   C 53.00 107.94 52.84 111.73 53.08 115.36   C 53.23 117.74 51.86 118.04 50.14 118.99   Q 45.06 121.79 40.54 124.43   Q 39.52 125.03 39.53 123.87   L 39.66 112.19   A 1.07 0.97 -19.0 0 1 40.10 111.39   Z"/>
<path fill="#fe0000" d="   M 118.93 146.41   L 119.00 122.51   A 1.02 0.99 77.5 0 1 119.56 121.60   L 144.55 109.22   A 0.33 0.32 -14.2 0 1 145.02 109.49   L 145.23 133.29   A 1.37 1.30 -14.1 0 1 144.47 134.49   L 119.59 146.83   A 0.46 0.46 77.0 0 1 118.93 146.41   Z"/>
<path fill="#fe0000" d="   M 113.08 131.52   A 1.79 1.76 -12.7 0 1 112.06 133.10   L 91.07 142.97   A 0.41 0.40 77.5 0 1 90.50 142.60   L 90.50 121.70   A 0.95 0.92 77.7 0 1 91.03 120.85   L 112.19 111.00   A 0.73 0.73 -12.4 0 1 113.23 111.66   L 113.08 131.52   Z"/>
<path fill="#fe0000" d="   M 82.57 129.25   A 1.19 1.05 -13.0 0 1 81.85 130.26   L 65.22 137.56   A 0.69 0.69 -11.8 0 1 64.25 136.93   L 64.25 122.57   A 1.14 1.12 -12.9 0 1 64.90 121.55   L 82.02 113.38   A 0.34 0.33 -13.1 0 1 82.51 113.67   L 82.57 129.25   Z"/>
<path fill="#000000" d="   M 17.61 135.44   L 26.63 130.91   A 0.63 0.60 77.2 0 1 27.50 131.49   L 27.50 140.07   A 1.46 1.45 -12.4 0 1 26.65 141.39   L 17.94 145.38   A 0.63 0.60 -12.7 0 1 17.05 144.84   L 17.15 136.18   A 0.85 0.84 77.2 0 1 17.61 135.44   Z"/>
<path fill="#000000" d="   M 150.78 145.53   A 0.44 0.39 -21.4 0 1 150.94 145.21   Q 153.24 143.32 156.12 142.03   Q 166.88 137.19 177.77 131.77   A 1.20 1.20 -13.2 0 1 179.50 132.84   L 179.50 157.79   A 1.31 1.29 76.6 0 1 178.80 158.95   L 151.73 172.99   A 0.84 0.83 -13.5 0 1 150.51 172.25   L 150.78 145.53   Z"/>
<path fill="#000000" d="   M 39.44 143.90   A 0.98 0.92 -16.1 0 1 39.91 143.11   L 51.89 135.94   Q 53.25 135.13 53.25 136.73   L 53.25 148.34   A 2.35 2.30 75.6 0 1 52.08 150.37   L 40.25 157.00   A 0.65 0.63 -14.5 0 1 39.29 156.45   L 39.44 143.90   Z"/>
<path fill="#000000" d="   M 388.52 264.89   C 375.25 262.24 378.67 245.45 391.41 251.19   C 398.71 254.48 405.18 259.11 413.58 257.58   C 435.32 253.63 435.76 220.83 420.45 209.79   Q 411.00 202.97 399.30 202.94   A 0.73 0.71 -9.7 0 1 398.62 202.47   Q 397.75 200.06 400.56 199.56   C 410.67 197.79 420.76 189.06 423.21 178.86   C 425.79 168.14 422.95 154.11 410.68 150.73   C 399.14 147.56 390.22 155.40 384.81 164.63   A 0.99 0.83 -72.5 0 1 384.06 165.11   Q 382.81 165.14 382.04 164.17   A 0.94 0.83 -55.7 0 1 381.93 163.28   C 388.18 146.70 399.96 134.56 419.19 138.81   C 429.94 141.19 438.21 152.54 437.91 163.44   C 437.63 173.48 430.98 183.05 423.42 189.90   A 0.79 0.79 36.8 0 0 423.61 191.20   Q 445.38 201.63 443.36 227.01   C 441.04 256.13 415.58 270.30 388.52 264.89   Z"/>
<path fill="#fefe00" d="   M 304.12 145.96   A 0.60 0.59 11.0 0 1 304.50 146.51   L 304.50 214.03   A 0.63 0.63 -80.5 0 1 303.66 214.63   Q 280.34 206.62 255.31 207.67   A 0.48 0.48 -1.1 0 1 254.81 207.19   L 254.81 140.06   A 0.56 0.55 -2.9 0 1 255.31 139.51   Q 280.50 136.72 304.12 145.96   Z"/>
<path fill="#000000" d="   M 118.93 154.65   A 1.35 1.33 -13.2 0 1 119.68 153.45   L 144.76 140.99   A 0.34 0.34 -13.2 0 1 145.25 141.29   L 145.48 164.90   A 2.64 2.54 -14.2 0 1 144.03 167.23   L 119.65 179.58   A 0.61 0.60 -13.2 0 1 118.77 179.04   L 118.93 154.65   Z"/>
<path fill="#000000" d="   M 91.69 175.37   A 1.01 1.01 77.4 0 1 90.25 174.45   L 90.25 153.72   A 0.92 0.89 78.0 0 1 90.77 152.89   L 112.10 142.90   A 0.77 0.77 77.5 0 1 113.19 143.60   L 113.25 164.24   A 1.42 1.42 -14.5 0 1 112.45 165.52   L 91.69 175.37   Z"/>
<path fill="#0000fe" d="   M 183.54 223.50   L 183.62 156.44   Q 206.91 145.51 233.26 142.67   A 0.90 0.89 86.8 0 1 234.25 143.56   L 234.25 207.82   A 1.21 1.20 -5.2 0 1 233.26 209.00   Q 207.60 213.54 183.54 223.50   Z"/>
<path fill="#000000" d="   M 64.20 154.20   A 0.58 0.56 79.9 0 1 64.51 153.74   L 81.54 145.62   A 0.85 0.85 77.4 0 1 82.75 146.39   L 82.75 161.49   A 1.24 1.21 -12.5 0 1 82.03 162.60   L 65.13 170.19   A 0.65 0.65 75.7 0 1 64.22 169.65   Q 63.67 162.22 64.20 154.20   Z"/>
<path fill="#000000" d="   M 150.69 177.05   A 0.93 0.92 -12.8 0 1 151.21 176.24   L 178.45 162.93   A 0.69 0.68 -13.1 0 1 179.44 163.54   L 179.50 189.35   A 1.30 1.30 76.6 0 1 178.79 190.51   L 151.90 204.30   A 0.95 0.95 -13.5 0 1 150.51 203.45   L 150.69 177.05   Z"/>
<path fill="#0000fe" d="   M 27.15 172.88   L 17.77 176.98   A 0.38 0.35 -13.3 0 1 17.24 176.68   L 17.13 168.43   A 0.93 0.68 -17.1 0 1 17.65 167.73   L 26.37 163.32   A 0.61 0.59 -13.8 0 1 27.25 163.83   L 27.25 172.73   A 0.16 0.16 79.3 0 1 27.15 172.88   Z"/>
<path fill="#0000fe" d="   M 52.84 180.61   A 1.52 1.47 -14.9 0 1 52.07 181.89   L 40.02 188.71   A 0.35 0.34 75.8 0 1 39.51 188.40   L 39.55 176.30   A 0.87 0.86 75.0 0 1 39.98 175.55   L 52.04 168.37   Q 52.99 167.80 52.98 168.90   L 52.84 180.61   Z"/>
<path fill="#0000fe" d="   M 118.94 186.77   A 1.30 1.27 -13.7 0 1 119.65 185.63   L 144.28 173.33   A 0.67 0.67 -13.2 0 1 145.25 173.93   L 145.25 197.10   A 2.02 2.01 -13.4 0 1 144.14 198.90   L 119.49 211.22   A 0.46 0.46 -12.9 0 1 118.82 210.80   L 118.94 186.77   Z"/>
<path fill="#0000fe" d="   M 113.29 180.83   Q 112.91 188.13 113.08 196.30   A 1.16 1.15 76.8 0 1 112.42 197.38   L 91.25 207.38   A 0.52 0.52 -12.9 0 1 90.50 206.91   L 90.50 186.03   A 1.08 1.07 -12.6 0 1 91.12 185.06   L 112.40 175.06   A 0.59 0.58 -14.8 0 1 113.23 175.54   Q 113.44 177.95 113.29 180.83   Z"/>
<path fill="#0000fe" d="   M 82.48 178.16   Q 83.09 186.34 82.48 193.44   A 0.86 0.85 -10.1 0 1 81.98 194.15   L 65.01 202.09   A 0.52 0.50 -12.1 0 1 64.27 201.63   L 64.47 186.50   A 0.87 0.79 -13.4 0 1 64.96 185.78   L 81.93 177.84   A 0.39 0.39 75.1 0 1 82.48 178.16   Z"/>
<path fill="#000000" d="   M 529.09 208.25   A 0.59 0.59 -41.4 0 0 530.10 208.31   Q 536.09 199.56 541.19 190.44   Q 543.54 186.22 539.88 183.94   C 538.27 182.93 535.11 183.92 536.15 180.53   A 0.70 0.66 7.8 0 1 536.81 180.06   Q 548.65 179.95 560.50 179.98   Q 561.82 179.99 561.46 181.04   Q 561.31 181.46 561.37 181.98   Q 561.48 183.11 559.75 183.25   C 554.32 183.70 548.96 191.06 546.09 195.37   Q 539.72 204.97 533.44 214.22   A 1.05 1.04 -44.1 0 0 533.42 215.37   Q 543.65 231.95 553.76 247.99   C 557.63 254.14 561.02 260.25 568.19 260.78   A 1.27 0.96 -11.9 0 1 569.02 261.17   Q 569.90 262.27 569.25 263.57   A 0.87 0.76 11.3 0 1 568.50 264.00   L 534.60 264.00   A 0.67 0.67 -7.2 0 1 533.95 263.50   C 533.29 261.00 533.78 261.24 535.55 260.87   Q 543.55 259.17 539.45 251.75   Q 532.67 239.47 525.14 227.81   A 0.45 0.44 46.3 0 0 524.40 227.79   Q 517.55 237.40 511.50 246.84   C 508.12 252.12 503.32 258.18 512.81 260.70   C 514.45 261.13 515.28 261.95 514.29 263.59   A 0.98 0.84 13.3 0 1 513.49 264.00   L 490.31 263.94   A 0.59 0.56 -3.3 0 1 489.73 263.45   Q 489.60 262.47 489.89 261.54   A 1.08 0.93 -3.7 0 1 490.54 260.90   Q 495.19 259.25 498.44 254.69   Q 512.73 234.64 520.97 221.93   A 0.83 0.81 -44.0 0 0 521.00 221.07   Q 513.22 208.01 505.11 195.16   C 501.19 188.94 497.47 183.44 490.00 183.02   A 0.79 0.72 -7.1 0 1 489.32 182.54   Q 488.30 179.65 491.41 179.86   C 502.07 180.56 513.22 179.99 523.94 180.06   A 1.02 0.89 -14.8 0 1 524.75 180.46   Q 525.44 181.52 524.79 182.60   A 1.01 0.81 12.0 0 1 524.00 183.00   C 517.53 183.21 518.19 188.99 520.84 193.42   Q 525.32 200.92 529.09 208.25   Z"/>
<path fill="#0000fe" d="   M 26.68 203.76   L 17.78 207.76   A 0.39 0.36 -12.7 0 1 17.24 207.44   L 17.13 199.72   A 1.72 1.50 -14.5 0 1 18.13 198.26   L 26.67 194.28   A 0.41 0.41 78.0 0 1 27.25 194.66   L 27.25 202.84   A 1.03 0.97 78.4 0 1 26.68 203.76   Z"/>
<path fill="#000000" d="   M 151.18 237.06   A 0.81 0.80 -85.9 0 1 150.50 236.26   L 150.50 210.39   A 2.35 2.32 -13.0 0 1 151.83 208.29   L 178.15 195.65   A 0.90 0.89 -13.0 0 1 179.44 196.44   L 179.50 221.93   A 1.60 1.58 -14.0 0 1 178.64 223.34   C 175.21 225.14 153.32 237.39 151.18 237.06   Z"/>
<path fill="#0000fe" d="   M 52.82 211.64   A 1.52 1.42 -15.4 0 1 52.05 212.89   L 40.23 219.52   A 0.49 0.49 75.4 0 1 39.50 219.09   L 39.50 207.27   A 1.55 1.54 -15.6 0 1 40.25 205.95   L 52.14 198.82   Q 52.99 198.31 52.98 199.28   L 52.82 211.64   Z"/>
<path fill="#0000fe" d="   M 119.10 221.20   Q 119.19 219.57 118.90 218.54   A 1.84 1.82 -21.2 0 1 119.85 216.41   L 144.50 204.12   A 0.51 0.50 -13.1 0 1 145.24 204.57   L 145.08 228.56   A 0.85 0.84 -12.8 0 1 144.61 229.30   L 119.45 242.03   A 0.32 0.32 -14.8 0 1 118.98 241.76   Q 118.54 231.47 119.10 221.20   Z"/>
<path fill="#0000fe" d="   M 113.28 210.07   C 112.88 215.76 112.97 221.44 113.00 227.10   A 1.00 1.00 77.5 0 1 112.42 228.01   L 91.29 237.83   A 0.56 0.56 77.8 0 1 90.50 237.32   L 90.50 216.58   A 0.90 0.89 77.6 0 1 91.01 215.77   L 112.49 205.76   A 0.40 0.39 72.0 0 1 113.04 206.05   Q 113.42 208.05 113.28 210.07   Z"/>
<path fill="#0000fe" d="   M 82.12 224.79   L 65.12 232.84   A 0.62 0.61 77.6 0 1 64.25 232.27   L 64.25 217.47   A 0.82 0.82 77.5 0 1 64.72 216.73   L 81.87 208.60   A 0.58 0.57 -12.8 0 1 82.70 209.11   L 82.58 224.07   A 0.81 0.79 -13.0 0 1 82.12 224.79   Z"/>
<path fill="#000000" d="   M 26.88 236.32   Q 23.00 238.66 17.64 240.46   A 0.49 0.49 -9.1 0 1 17.00 240.00   L 17.00 231.94   A 1.83 1.58 79.3 0 1 17.93 230.34   L 26.77 226.17   A 0.38 0.37 -13.3 0 1 27.31 226.50   L 27.36 235.57   A 0.97 0.80 -17.9 0 1 26.88 236.32   Z"/>
<path fill="#000000" d="   M 150.66 245.70   C 150.78 241.22 150.24 241.01 154.41 239.03   Q 165.98 233.52 178.26 227.63   A 0.87 0.87 -12.8 0 1 179.50 228.41   L 179.50 253.68   A 1.86 1.83 76.7 0 1 178.50 255.33   L 152.04 269.01   A 1.06 1.06 75.9 0 1 150.50 268.08   Q 150.36 256.74 150.66 245.70   Z"/>
<path fill="#000000" d="   M 39.41 239.35   A 2.10 1.71 -18.9 0 1 40.42 237.73   L 51.55 231.01   Q 53.24 229.99 53.22 231.90   L 53.09 244.31   A 0.93 0.91 75.6 0 1 52.64 245.09   L 40.03 252.20   A 0.37 0.36 -15.0 0 1 39.48 251.89   L 39.41 239.35   Z"/>
<path fill="#000000" d="   M 145.30 261.09   A 1.37 1.36 -12.1 0 1 144.54 262.26   L 119.75 274.59   A 0.69 0.69 76.7 0 1 118.75 273.97   L 118.75 250.53   A 2.53 2.52 -13.3 0 1 120.15 248.27   L 144.76 235.99   A 0.34 0.34 -14.2 0 1 145.25 236.28   Q 145.82 248.53 145.30 261.09   Z"/>
<path fill="#000000" d="   M 113.29 259.01   A 1.86 1.79 -13.5 0 1 112.24 260.66   L 91.58 270.48   A 0.92 0.91 -12.5 0 1 90.26 269.65   L 90.48 248.50   A 0.83 0.83 77.8 0 1 90.95 247.77   L 112.73 237.51   A 0.32 0.32 -13.3 0 1 113.19 237.79   L 113.29 259.01   Z"/>
<path fill="#000000" d="   M 82.56 257.30   A 0.70 0.66 -12.0 0 1 82.13 257.92   L 65.41 265.31   A 0.96 0.95 -12.4 0 1 64.06 264.46   L 64.00 250.33   A 2.16 2.16 77.6 0 1 65.25 248.37   L 81.72 240.74   A 0.71 0.70 -12.4 0 1 82.73 241.38   L 82.56 257.30   Z"/>
<ellipse fill="#000000" cx="0.00" cy="0.00" transform="translate(472.12,255.48) rotate(90.3)" rx="10.53" ry="9.18"/>
<path fill="#000000" d="   M 333.20 260.18   A 0.65 0.65 -17.2 0 1 334.19 260.70   C 334.23 261.31 334.55 264.83 333.82 264.97   A 0.66 0.49 78.0 0 1 333.21 264.44   C 332.92 263.12 331.63 261.11 333.20 260.18   Z"/>
<path fill="#000000" d="   M 324.71 261.21   Q 321.59 259.84 326.26 260.00   C 327.87 260.06 327.12 260.73 326.49 261.12   Q 325.58 261.67 325.96 264.08   Q 326.13 265.11 325.16 264.73   Q 324.52 264.48 325.32 262.93   A 1.26 1.25 25.6 0 0 324.71 261.21   Z"/>
<path fill="#000000" d="   M 328.98 264.62   C 328.19 264.80 328.87 262.12 328.68 261.30   A 0.70 0.62 71.1 0 1 328.99 260.56   Q 330.70 259.67 330.28 262.20   A 1.25 0.76 -21.6 0 1 329.74 262.91   Q 329.15 263.29 329.28 263.96   A 0.61 0.43 79.1 0 1 328.98 264.62   Z"/>
<path fill="#000000" d="   M 330.95 262.77   Q 331.11 262.67 331.34 262.70   A 0.52 0.42 -89.1 0 1 331.71 263.17   Q 331.96 266.70 330.86 263.66   A 0.86 0.48 66.6 0 1 330.95 262.77   Z"/>
</svg>