<?xml version='1.0' encoding='utf-8'?>
<svg xmlns="http://www.w3.org/2000/svg" id="svg2" height="236.26206811812986" width="600" version="1.1" viewBox="0 0 590.70001 232.60001">
    <defs id="defs1"/>
    <path id="path4" style="fill:#ca010c" d="m 490.3,33.225 14.175,14.875 -35.225,124.725 -18.425,15.025 51.775,-0.675 -12.075,-11.45 8.25,-37.375 27.675,0.2 7.525,36.575 L 522.2,187.95 585.8,187.475 570.025,172.45 532.95,33.725 Z m 22.80715,55.06838 9.79267,34.64222 -18.51396,-0.6 z"/>
    <path id="path6" style="fill:#ca010c" d="M 409.2282,35.643224 370.69327,34.229 385.36459,48.464611 385.55743,174.75057 365.772,190.386 416.96448,188.13609 C 506.58412,171.31799 491.64532,32.563802 409.2282,35.643224 Z m 6.82188,12.332164 c 30.15086,0.950045 47.27852,103.745852 1.15,126.525092 z"/>
    <path id="path8" style="fill:#ca010c" d="M 27.9,7.4 10.3,55.3 56.4,19.1 147.5,20 11.3,227.1 l 165.57496,2.625 14.72862,-40.16431 87.76773,-1.02509 -0.97853,-69.77836 -21.54275,54.99276 -27.01448,-0.0999 0.19285,-54.96458 15.0787,-1.46422 14.55706,16.59285 -0.1,-48.61396 -14.92844,15.67137 -14.57871,-0.27853 -0.0215,-52.586041 26.31448,-1.564223 22.72128,46.792845 0.68569,-59.692668 -93.7998,0.685689 12.22862,15.228445 0.48569,125.978713 L 154.9,214.5 55.7,215 191.69996,7.5 Z"/>
    <path id="path10" style="fill:#ca010c" d="m 281.12164,34.814311 65.87103,-1.071378 -15.35707,13.528622 0.69285,125.992845 14.49302,-0.39285 20.86422,-56.55706 0.87853,71.14973 -88.46404,-0.29284 19.34991,-13.55707 L 298.37871,46.9 Z"/>
    <path id="path36" style="fill:#ef9fa1" d="M 160.14293,29.285689 127.9,90.8 l -13,6.300001 z"/>
    <path id="path38" style="fill:#7d0609" d="M 160.16422,29.150088 115.5,96.100001 114.3,83.3 Z"/>
    <path id="path40" style="fill:#ef9fa1" d="m 284.4,29.7 c 21.8,1.3 43.6,0.1 65.4,0.6 -2.1,2.1 -4.3,4.3 -7.2,5.2 -18.8,-0.3 -37.7,-0.2 -56.5,-0.1 -0.4,-0.1 -1.1,-0.4 -1.4,-0.6 -0.1,-1.7 -0.2,-3.4 -0.3,-5.1 z"/>
    <path id="path42" style="fill:#7d0609" d="m 350.5,29.6 1.6837,5.864488 L 335.6,48 l 0.6,123 -6.4,4.2 L 329,44.050265 342.6,35.5 Z"/>
    <path id="path44" style="fill:#ef9fa1" d="m 367.6,30.2 c 24.9,0.5 49.77525,-2.6 73.57525,6.4 L 436.7,41.4 c -19.6,-8.6 -41.5,-5.3 -62.2,-6 l -11.4,0.1 z"/>
    <path id="path46" style="fill:#ef9fa1" d="M 488.07138,30.3 H 535.9 l -5,4.4 h -46.4 z"/>
    <path id="path48" style="fill:#7d0609" d="m 535.9,30.3 0.7,-0.8 35.6,139.4 18.5,17.9 -0.4,5.1 -71.7,0.5 -1.6,-5.8 9.3,-0.4 55.1,-0.2 -14,-11.8 -36.5,-139.3 z"/>
    <path id="path50" style="fill:#7d0609" d="m 284.4,29.7 0.3,5.1 15.8,11 -6.9,1.2 -9,-5.4 v 54.300001 l -11.5,0.1 5,-4.2 L 278,35.3 Z"/>
    <path id="path52" style="fill:#7d0609" d="m 363.1,35.5 c 3.8,0 7.6,-0.1 11.4,-0.1 4.1,4.3 9.1,7.6 13.5,11.6 -2.3,1.5 -4.7,2.7 -7.4,3.3 -5.7,-5.2 -11.6,-9.9 -17.5,-14.8 z"/>
    <path id="path54" style="fill:#7d0609" d="M 485.11431,34.7 H 494.1 l 13,13.1 -6.62862,0.392845 z"/>
    <path id="path56" style="fill:#ef9fa1" d="m 500.71431,48.5 6.38569,-0.7 -35.5,126.5 -15.5,11.5 -9.6,6.6 -1.1,-5.9 L 467,170 Z"/>
    <path id="path58" style="fill:#7d0609" d="m 436.7,41.4 4.51061,-4.703536 C 472.61061,49.896464 482.9,87.1 480.1,118.4 c -0.7,15.5 -3.9,31.3 -12.5,44.5 -12.8,21.5 -39.4,29.7 -63.2,29.3 -69.9,0.4 -139.8,-0.1 -209.8,0.2 l -14.1,40.2 H 7.3 l -3.5,-5.8 170.72809,0.9 15.92182,-42.1356 L 278.2,185.9 v -65.5 l 6.7,-4.6 -0.3,64.2 -1.5,6.12 84,-0.12 v -65 l 6.7,-6.2 v 62 l -2.8,9.5 48.6,-0.8 c 21.9,-1.9 42.5,-17 48.5,-38.5 11.1,-36.1 8.1,-88.3 -31.4,-105.6 z"/>
    <path id="path60" style="fill:#7d0609" d="M 227.4,44.2 258.84276,44.1928 254,49.1 h -19.9 l -0.2,0.8 V 98.600001 L 227.7,103.2 Z"/>
    <path id="path62" style="fill:#ef9fa1" d="m 258.4,44.1 19.7,47.700001 -5,4.2 -0.3,0.2 L 254,49.1 Z"/>
    <path id="path64" style="fill:#ef9fa1" d="m 411.8,44.2 c 30.5,4.8 37.8,42.3 37.8,68 -0.7,24.8 -7.6,60.9 -36.8,65.6 l 6.4,-7.4 c 8.5,-2.8 12.6,-11.8 16,-19.4 10.3,-27.6 10.3,-60.2 -2.8,-86.9 -3.1,-5.3 -6.9,-11.3 -13.3,-12.9 z"/>
    <path id="path68" style="fill:#7d0609" d="m 412.3,44.7 6.8,6.5 0.1,119.2 -5.8,6.7 z"/>
    <path id="path70" style="fill:#ef9fa1" d="m 300.5,45.8 1,128.4 -18.1,12 1.2,-6.2 10.2,-7.8 L 293.6,47 Z"/>
    <path id="path74" style="fill:#ef9fa1" d="m 380.6,50.3 7.4,-3.3 -0.1,129.8 -16.9,9.5 2.8,-9.5 7.6,-3.8 z"/>
    <path id="path76" style="fill:#ef9fa1" d="m 195.3,49.3 6.4,-1.6 -0.1,129.2 -46.7,37.6 -99.2,0.5 0.3,-1.1 11,-5.2 86.2,0.2 42.3,-35.6 z"/>
    <path id="path82" style="fill:#ef9fa1" d="m 513.9,77.5 12.5,47.9 h -26.6 l 8.1,-5.7 10.9,0.6 -5.4,-20 z"/>
    <path id="path84" style="fill:#7d0609" d="m 513.9,78.6 -0.5,21.7 -5.5,19.4 -7.7,5.68569 z"/>
    <path id="path86" style="fill:#ef9fa1" d="m 258.9,80.1 6.6,2.2 -7.4,7 -12,14.5 -18.4,-0.6 6.2,-4.599999 9.7,0.1 z"/>
    <path id="path88" style="fill:#7d0609" d="m 258.1,89.3 c 2.2,-2.6 4.8,-4.8 7.4,-7 0,18.2 0.1,36.4 0,54.6 -0.1,0.3 -0.4,0.8 -0.5,1.1 -0.9,0.3 -1.9,0.6 -2.9,0.9 -1.7,0.5 -3.4,0.8 -5.1,1.2 -4.5,-6.6 -9.1,-13.1 -13.6,-19.7 -3,-0.1 -5.9,-0.1 -8.9,-0.1 h -1.1 c 0,16.8 0.2,33.6 0,50.4 -2.1,1.7 -4.2,3.3 -6.2,5 -0.1,-20.6 -0.1,-41.2 -0.1,-61.7 6.1,0.1 12.2,0.1 18.3,0 5,4.9 8.4,11 12.8,16.3 0.1,-13.7 0.2,-27.4 -0.1,-41 z"/>
    <path id="path90" style="fill:#7d0609" d="m 94.1,113 13.4,-5.3 1.1,12 -12.5,5.1 z"/>
    <path id="path92" style="fill:#ef9fa1" d="M 362.4,115.2 373.62122,114.87878 367.1,121 l -19.4,54.8 -18.3,0.1 6.8,-4.9 7.1,-0.4 z"/>
    <path id="path94" style="fill:#ef9fa1" d="M 273.3,116.2 284.58569,116.1072 278.2,120.4 258.9,175.8 h -31.7 v -0.1 l 6.2,-5 21.8,-0.3 z"/>
    <path id="path96" style="fill:#ef9fa1" d="m 96.1,124.8 5.2,-8 6.9,3.2 -12.5,5.4 z"/>
    <path id="path98" style="fill:#7d0609" d="m 497.3,136 31.2,0.2 -5.1,5.2 -21.3,0.3 -8.6,33.3 13.90517,11.81767 L 505.7,191.8 l -59.2,0.6 9.6,-6.6 42.4,0.2 -11.5,-8.8 z"/>
    <path id="path100" style="fill:#ef9fa1" d="m 528.5,136.2 0.2,0.8 8.5,39.6 -11.19284,9.6 -9.02863,0.4 13.59285,-11.89284 L 523.4,141.4 Z"/>
    <path id="path102" style="fill:#7d0609" d="m 74.9,143.7 13.7,-4.9 v 10.9 L 41.9,205 Z"/>
    <path id="path104" style="fill:#ef9fa1" d="m 81.7,146.7 7.1,3.4 -45.628622,53.97155 z"/>
    <path id="path106" style="fill:#ef9fa1" d="M 22.9,0.6 C 81.7,0.1 140.7,1.1 199.4,0 l -0.8,0.7 c -2.3,2.2 -4.4,4.7 -6.9,6.8 C 137.1,7.2 82.5,7.4 27.9,7.4 22.2,23.4 16,39.2 10.3,55.3 7.1,58.4 3.5,60.9 0,63.5 7.4,42.4 15.7,21.7 22.9,0.6 Z"/>
    <path id="path108" style="fill:#7d0609" d="m 191.7,7.5 6.9,-6.8 2.5,6.5 -16.75707,24.942756 17.30698,15.710821 L 195.3,49.3 181.2,37.3 67,208.7 56,213.9 Z"/>
    <path id="path110" style="fill:#7d0609" d="m 56.4,19.1 91.1,0.9 -11,4.9 L 58.2,24.8 4.5,67.9 0,63.5 Z"/>
    <path id="path112" style="fill:#ef9fa1" d="M 148.4,19.7 11.3,227.1 H 3.8 L 136.5,24.9 Z"/>
    <path id="path114" style="fill:#ef9fa1" d="m 183.3,33.7 c 0.9,-1.3 1.9,-2.6 2.8,-3.9 32.5,1.1 65.1,0 97.6,0.5 -1.9,1.7 -3.8,3.4 -5.7,5 -29.9,0.1 -59.8,-0.1 -89.7,0.1 -1.7,-0.5 -3.4,-1.1 -5,-1.7 z"/>
</svg>
