<?xml version='1.0' encoding='utf-8'?>
<svg xmlns="http://www.w3.org/2000/svg" version="1.2" width="600" height="167.77052740597506" xml:space="preserve" id="svg5" viewBox="0 0 418.2774 116.9577">
    <defs id="defs5"/>
    <g id="g5" transform="matrix(0.66833994,0,0,1.9437861,39.37611,-4.1110202)">
        <path fill="#ca2825" d="m 429.958,2.173 -60.103,60.112 h 34.207 L 464.167,2.173 Z" id="path2"/>
        <path fill="#fdc601" d="m 464.244,2.173 -60.106,60.112 h 34.209 L 498.451,2.173 Z" id="path3"/>
        <path fill="#009c37" d="m 498.501,2.173 -60.103,60.112 h 34.207 L 532.71,2.173 Z" id="path4"/>
        <path fill="#02559c" d="m 532.722,2.173 -60.105,60.112 h 34.209 L 566.929,2.173 Z" id="path5"/>
    </g>
    <g id="path15" style="opacity:1" transform="matrix(1.5045818,0,0,1.5045818,-2.4292855,-37.27204)">
        <path style="baseline-shift:baseline;display:inline;overflow:visible;vector-effect:none;fill:#ffffff;stroke-linecap:round;stroke-linejoin:round;paint-order:markers stroke fill;enable-background:accumulate;stop-color:#000000;stop-opacity:1" d="m 55.005859,73.867187 c -2.083793,10e-7 -4.230627,0.524993 -6.042968,1.804688 -1.812342,1.279695 -3.210938,3.524238 -3.210938,6.158203 0,1.856219 0.820385,3.383567 1.859375,4.568359 a 2.50025,2.50025 0 0 0 -2.464844,2.4375 c -0.03358,2.930222 1.349968,5.458009 3.345703,6.923829 1.995736,1.46582 4.433692,2.029296 6.84375,2.029296 2.786276,0 5.175151,-0.715157 6.982422,-2.115234 v 3.791016 a 2.50025,2.50025 0 0 0 2.5,2.499996 h 3.59375 a 2.50025,2.50025 0 0 0 2.5,-2.499996 V 97.375 c 0.49739,0.09918 0.966187,0.337891 1.470703,0.337891 2.621606,0 4.917019,-1.255718 6.289063,-3.048829 0.154183,-0.2015 0.201435,-0.450725 0.335937,-0.662109 0.228632,0.322145 0.343417,0.719778 0.617188,1.007813 1.649146,1.735068 4.063006,2.701171 6.697266,2.701171 1.849932,0 3.681806,-0.428639 5.21289,-1.486328 0.891434,-0.615811 1.593845,-1.468073 2.191406,-2.421875 1.636924,2.303972 4.179609,3.910157 7.265628,3.910157 2.1793,0 4.26496,-0.623171 5.86914,-1.960938 0.59115,-0.492975 1.01006,-1.155326 1.43359,-1.806641 0.4228,1.103115 1.03657,2.093146 1.9375,2.632813 1.43821,0.861499 2.87866,0.935547 4.17188,0.935547 0.7692,0 1.62921,-0.01289 2.52148,-0.166016 a 2.50025,2.50025 0 0 0 0.58789,-0.697265 2.50025,2.50025 0 0 0 0.71094,0.710937 h 3.59375 a 2.50025,2.50025 0 0 0 2.5,-2.5 v -5.896484 c 0,-0.819565 0.19966,-1.343398 0.30273,-1.484375 0.10308,-0.140977 0.0241,-0.210938 0.73829,-0.210938 a 2.50025,2.50025 0 0 0 0.002,0 c 0.0676,-3.9e-5 0.13372,0.01626 0.20117,0.01953 v 2.53711 c 0,1.867428 0.21916,3.782269 1.4707,5.423828 1.25154,1.641559 3.43218,2.462891 5.81055,2.462891 1.19258,0 2.41332,-0.314139 3.51367,-0.916016 a 2.50025,2.50025 0 0 0 0.56055,0.560547 h 3.41601 a 2.50025,2.50025 0 0 0 1.41602,-1.416016 2.50025,2.50025 0 0 0 1.41797,1.416016 h 3.5918 a 2.50025,2.50025 0 0 0 2.30273,-2.302735 2.50025,2.50025 0 0 0 2.30273,2.302735 h 3.5918 a 2.50025,2.50025 0 0 0 2.30078,-2.302735 2.50025,2.50025 0 0 0 2.30274,2.302735 h 3.59375 a 2.50025,2.50025 0 0 0 2.5,-2.5 v -8.751953 c 0,-2.187107 -0.74055,-4.207501 -2.19532,-5.488282 -1.45476,-1.28078 -3.31041,-1.691406 -5.08789,-1.691406 -1.51248,0 -2.77504,0.508023 -3.8457,1.214844 -1.20924,-0.794596 -2.62133,-1.214844 -3.91992,-1.214844 -1.24964,0 -2.44,0.338307 -3.48828,0.914063 a 2.50025,2.50025 0 0 0 -0.5586,-0.558594 h -3.39062 a 2.50025,2.50025 0 0 0 -1.41797,1.417969 2.50025,2.50025 0 0 0 -1.41797,-1.416016 h -3.5918 a 2.50025,2.50025 0 0 0 -2.5,2.5 v 6.855469 c 0,0.493206 -0.0279,0.408581 -0.0742,0.632812 -0.004,-0.07518 -0.01,-0.01743 -0.01,-0.103515 V 81.78125 a 2.50025,2.50025 0 0 0 -2.5,-2.5 h -3.59375 a 2.50025,2.50025 0 0 0 -0.31055,0.310547 2.50025,2.50025 0 0 0 -0.2832,-0.396485 c -0.56709,-0.196491 -1.02113,-0.265625 -1.60352,-0.265625 -1.28884,0 -2.50429,0.379115 -3.57226,1.00586 a 2.50025,2.50025 0 0 0 -0.6543,-0.654297 h -3.41406 a 2.50025,2.50025 0 0 0 -0.86133,0.859375 2.50025,2.50025 0 0 0 -0.85937,-0.859375 h -0.13086 v -1.421875 a 2.50025,2.50025 0 0 0 -2.5,-2.5 h -3.5918 a 2.50025,2.50025 0 0 0 -2.5,2.5 v 1.748047 a 2.50025,2.50025 0 0 0 -1.0625,1.0625 c -0.0113,-0.0084 -0.016,-0.02492 -0.0273,-0.0332 -1.65215,-1.210726 -3.6441,-1.710938 -5.625,-1.710938 -2.715593,0 -5.167784,1.042297 -6.789066,2.839844 -0.314127,0.348278 -0.448565,0.808339 -0.699219,1.199219 -0.12783,-0.205683 -0.15942,-0.453676 -0.304688,-0.650391 -1.489766,-2.017371 -4.024331,-3.390625 -6.951171,-3.390625 -3.089809,0 -5.607865,1.609296 -7.253907,3.898438 -0.150999,-0.249607 -0.202549,-0.540521 -0.380859,-0.777344 -1.400213,-1.859701 -3.782618,-3.117188 -6.505859,-3.117188 -1.16644,0 -2.368764,0.289616 -3.447266,0.853516 a 2.50025,2.50025 0 0 0 -0.5,-0.5 h -3.416016 a 2.50025,2.50025 0 0 0 -0.626953,0.626953 C 63.673313,78.161342 62.81359,76.599173 61.466797,75.660156 59.544338,74.31977 57.25363,73.867188 55.005859,73.867187 Z m -31.52539,0.429688 a 2.50025,2.50025 0 0 0 -0.744141,0.447266 2.50025,2.50025 0 0 0 -0.445312,-0.445313 H 8.0761719 a 2.50025,2.50025 0 0 0 -2.5,2.5 v 3.335938 a 2.50025,2.50025 0 0 0 2.5,2.5 h 3.5781251 l -6.2558595,7.482421 a 2.50025,2.50025 0 0 0 -0.5839844,1.603516 v 3.136719 a 2.50025,2.50025 0 0 0 2.5,2.5 H 22.542969 a 2.50025,2.50025 0 0 0 0.162109,-0.16211 2.50025,2.50025 0 0 0 0.269531,0.16211 h 4.478516 a 2.50025,2.50025 0 0 0 2.101562,-1.146485 l 1.900391,-2.951171 1.853516,2.93164 a 2.50025,2.50025 0 0 0 2.113281,1.166016 h 4.730469 a 2.50025,2.50025 0 0 0 2.080078,-3.888672 l -5.369141,-8.042969 4.859375,-7.236328 a 2.50025,2.50025 0 0 0 -2.076172,-3.892578 h -4.351562 a 2.50025,2.50025 0 0 0 -2.109375,1.158203 l -1.521485,2.392578 -1.449218,-2.359375 a 2.50025,2.50025 0 0 0 -2.128907,-1.191406 z m -4.242188,5.001953 h 0.326172 l -0.384766,0.460938 a 2.50025,2.50025 0 0 0 0.05859,-0.460938 z m 4.671875,2.59375 2.376953,3.513672 -2.949218,4.408203 a 2.50025,2.50025 0 0 0 -0.794922,-0.794922 h -4.591797 z m 88.167974,0.595703 a 2.50025,2.50025 0 0 0 0.49609,0.494141 2.50025,2.50025 0 0 0 -0.5,0.498047 2.50025,2.50025 0 0 0 -0.49414,-0.494141 2.50025,2.50025 0 0 0 0.49805,-0.498047 z m -80.705083,2.44336 a 2.50025,2.50025 0 0 0 0.404297,0.03906 2.50025,2.50025 0 0 0 -0.002,1.298828 2.50025,2.50025 0 0 0 -0.398438,-0.101562 2.50025,2.50025 0 0 0 -0.0039,-1.236328 z m 69.861333,1.6875 c -0.0755,-0.06375 -0.0469,-0.137788 -0.002,0.15039 a 2.50025,2.50025 0 0 0 1.64258,1.40625 2.50025,2.50025 0 0 0 -1.52344,1.322266 c -0.0551,0.383964 -0.16156,0.487641 -0.1582,0.484375 0.003,-0.0033 0.0791,0.02344 -0.22461,0.02344 -0.29341,0 -0.0418,0.113803 -0.17773,-0.11914 -0.1359,-0.232944 -0.3086,-0.893532 -0.3086,-1.503907 0,-0.631482 0.17798,-1.328218 0.33008,-1.589843 0.1521,-0.261625 -0.0766,-0.158203 0.23242,-0.158203 0.30946,0 0.26495,0.04812 0.18946,-0.01563 z m -29.839849,0.01367 c 0.373168,0 0.173887,-0.0662 0.3125,0.15625 0.138613,0.222451 0.326172,0.866863 0.326172,1.56836 0,0.765101 -0.18672,1.376732 -0.291016,1.542969 -0.104295,0.166236 0.138472,0.105468 -0.320312,0.105468 -0.439845,0 -0.221477,0.05095 -0.333984,-0.125 -0.112507,-0.175945 -0.302735,-0.778192 -0.302735,-1.523437 0,-0.764998 0.188521,-1.412237 0.306641,-1.605469 0.11812,-0.193231 -0.12968,-0.119141 0.302734,-0.119141 z m -60.96875,5.263672 a 2.50025,2.50025 0 0 0 -0.05859,0.460938 h -0.326172 z" id="path31"/>
        <path style="baseline-shift:baseline;display:inline;overflow:visible;vector-effect:none;fill:#1a1a1a;stroke-linecap:round;stroke-linejoin:round;paint-order:markers stroke fill;enable-background:accumulate;stop-color:#000000;stop-opacity:1" d="M 7.3153875,91.72 17.003387,80.134 H 8.0753875 V 76.798 H 22.290387 v 3.136 l -9.688,11.586 h 9.941 v 3.338 H 7.3153875 Z m 21.9849995,-6.323 -5.819,-8.601 h 4.604 l 3.542,5.768 3.668,-5.768 h 4.351 l -5.792,8.625 6.298,9.436 h -4.73 l -3.947,-6.247 -4.022,6.247 h -4.479 z m 22.187,3.468 c 0,2.402 1.871,3.338 3.996,3.338 1.393,0 3.519,-0.404 3.519,-2.252 0,-1.947 -2.707,-2.275 -5.363,-2.984 -2.681,-0.709 -5.388,-1.744 -5.388,-5.137 0,-3.692 3.491,-5.463 6.754,-5.463 3.769,0 7.235,1.643 7.235,5.818 h -3.845 c -0.126,-2.176 -1.67,-2.73 -3.566,-2.73 -1.266,0 -2.732,0.531 -2.732,2.049 0,1.394 0.861,1.567 5.389,2.731 1.315,0.329 5.362,1.163 5.362,5.261 0,3.313 -2.605,5.793 -7.513,5.793 -3.997,0 -7.741,-1.974 -7.69,-6.424 z m 13.331,-7.084 h 3.416 v 1.67 h 0.052 c 0.858,-1.391 2.275,-2.023 3.895,-2.023 4.099,0 5.944,3.314 5.944,7.031 0,3.492 -1.922,6.754 -5.742,6.754 -1.569,0 -3.061,-0.684 -3.921,-1.973 h -0.051 v 6.225 h -3.593 z m 9.715,6.576 c 0,-2.074 -0.835,-4.225 -3.138,-4.225 -2.353,0 -3.11,2.101 -3.11,4.225 0,2.125 0.809,4.148 3.137,4.148 2.351,0 3.111,-2.022 3.111,-4.148 z m 8.704,0.834 c 0.101,2.277 1.214,3.314 3.212,3.314 1.441,0 2.605,-0.885 2.833,-1.694 h 3.161 c -1.012,3.085 -3.161,4.399 -6.121,4.399 -4.124,0 -6.678,-2.832 -6.678,-6.881 0,-3.922 2.708,-6.906 6.678,-6.906 4.451,0 6.603,3.746 6.35,7.767 z m 5.842,-2.275 c -0.328,-1.822 -1.113,-2.781 -2.858,-2.781 -2.277,0 -2.935,1.77 -2.985,2.781 z m 14.623003,-0.532 c -0.229,-1.467 -1.164,-2.25 -2.657,-2.25 -2.302003,0 -3.062003,2.326 -3.062003,4.248 0,1.873 0.733,4.123 2.985003,4.123 1.669,0 2.63,-1.063 2.858,-2.653 h 3.464 c -0.455,3.464 -2.858,5.36 -6.298,5.36 -3.946003,0 -6.604003,-2.781 -6.604003,-6.703 0,-4.072 2.428,-7.084 6.678003,-7.084 3.088,0 5.92,1.619 6.147,4.961 z m 10.171,-4.603 h 2.63 v 2.403 h -2.63 v 6.476 c 0,1.215 0.303,1.521 1.517,1.521 0.38,0 0.734,-0.025 1.113,-0.104 v 2.807 c -0.606,0.104 -1.391,0.13 -2.099,0.13 -2.201,0 -4.123,-0.509 -4.123,-3.112 v -7.714 h -2.177 v -2.403 h 2.177 V 77.86 h 3.592 z m 4.351,0 h 3.415 v 2.43 h 0.051 c 0.657,-1.646 2.429,-2.782 4.175,-2.782 0.253,0 0.556,0.05 0.784,0.129 v 3.337 a 6.627,6.627 0 0 0 -1.29,-0.126 c -2.63,0 -3.542,1.896 -3.542,4.196 v 5.896 h -3.592 z m 22.109,13.077 h -3.416 v -1.821 h -0.076 c -0.911,1.467 -2.479,2.176 -3.997,2.176 -3.82,0 -4.782,-2.147 -4.782,-5.387 v -8.045 h 3.594 v 7.387 c 0,2.149 0.632,3.213 2.301,3.213 1.949,0 2.783,-1.088 2.783,-3.743 v -6.854 h 3.592 z m 2.834,-13.077 h 3.391 v 1.771 h 0.05 c 0.937,-1.344 2.302,-2.127 3.997,-2.127 1.645,0 3.111,0.607 3.82,2.178 0.759,-1.141 2.125,-2.178 3.946,-2.178 2.783,0 4.782,1.289 4.782,4.681 v 8.752 h -3.593 v -7.412 c 0,-1.743 -0.15,-3.187 -2.2,-3.187 -2.024,0 -2.404,1.67 -2.404,3.313 v 7.286 h -3.592 v -7.335 c 0,-1.52 0.101,-3.264 -2.177,-3.264 -0.708,0 -2.428,0.455 -2.428,3.011 v 7.588 h -3.592 z" id="path32"/>
    </g>
    <g id="g30" transform="translate(7.3153875,7.5)">
        <g id="path1" style="opacity:1">
            <path style="baseline-shift:baseline;display:inline;overflow:visible;vector-effect:none;fill:#ffffff;stroke-linecap:round;stroke-linejoin:round;paint-order:markers stroke fill;enable-background:accumulate;stop-color:#000000;stop-opacity:1" d="m 74.357422,-7.5 a 7.50075,7.50075 0 0 0 -7.5,7.5 V 4.4609375 H 0.18554687 A 7.50075,7.50075 0 0 0 -7.3144531,12.080078 l 0.3808594,23.820313 a 7.50075,7.50075 0 0 0 1.8339843,4.28125 7.50075,7.50075 0 0 0 -1.8339843,4.425781 v 7.736328 0.002 a 7.50075,7.50075 0 0 0 7.49999995,7.5 H 69.373047 a 7.50075,7.50075 0 0 0 2.49414,-1.033203 7.50075,7.50075 0 0 0 2.490235,1.03125 h 8.24414 a 7.50075,7.50075 0 0 0 2.212891,-0.916016 7.50075,7.50075 0 0 0 2.208984,0.916016 l 8.242188,0.002 a 7.50075,7.50075 0 0 0 7.503905,-7.5 V 27.326172 H 140.0918 V 52.34375 a 7.50075,7.50075 0 0 0 7.5,7.5 h 8.24414 a 7.50075,7.50075 0 0 0 2.19531,-0.910156 7.50075,7.50075 0 0 0 2.20508,0.914062 h 68.86133 a 7.50075,7.50075 0 0 0 2.74414,-1.136719 7.50075,7.50075 0 0 0 2.74023,1.134766 h 8.24609 a 7.50075,7.50075 0 0 0 2.20118,-0.912109 7.50075,7.50075 0 0 0 2.19922,0.912109 h 68.86132 a 7.50075,7.50075 0 0 0 2.45508,-1.017578 7.50075,7.50075 0 0 0 2.44922,1.015625 h 8.29492 a 7.50075,7.50075 0 0 0 2.48633,-1.03125 7.50075,7.50075 0 0 0 2.49609,1.035156 h 8.24414 a 7.50075,7.50075 0 0 0 7.5,-7.5 V 27.326172 h 53.0625 a 7.50075,7.50075 0 0 0 7.5,-7.5 v -7.712891 a 7.50075,7.50075 0 0 0 -7.5,-7.4999998 H 336.78906 V 0 a 7.50075,7.50075 0 0 0 -7.5,-7.5 h -8.29492 a 7.50075,7.50075 0 0 0 -7.5,7.5 V 4.6132812 H 250.32812 V 0 a 7.50075,7.50075 0 0 0 -7.5,-7.5 h -8.24609 a 7.50075,7.50075 0 0 0 -7.5,7.5 v 4.6132812 h -66.8457 a 7.50075,7.50075 0 0 0 -2.20117,0.9121094 7.50075,7.50075 0 0 0 -2.19922,-0.9121094 H 90.101562 V 0 a 7.50075,7.50075 0 0 0 -7.5,-7.5 z M 176.0332,27.326172 h 51.04883 v 9.783203 H 176.0332 Z" id="path29"/>
            <path style="baseline-shift:baseline;display:inline;overflow:visible;vector-effect:none;fill:#1a1a1a;stroke-linecap:round;stroke-linejoin:round;paint-order:markers stroke fill;enable-background:accumulate;stop-color:#000000;stop-opacity:1" d="M 0.566,52.343 V 44.608 H 61.131 V 35.781 H 0.566 L 0.185,11.961 h 68.81 v 7.714 H 8.429 L 8.81,28.069 H 69.374 V 52.345 H 0.566 Z m 73.791,0 v -40.23 h 8.244 v 40.23 z m 12.669,0 v -40.23 h 68.81 v 40.23 h -8.244 V 19.826 H 95.269 v 32.52 z m 73.211,0 v -40.23 h 68.86 v 7.714 h -60.564 v 24.782 h 60.564 v 7.739 h -68.86 z m 74.346,0 V 0 h 8.246 v 52.345 h -8.246 z m 86.411,0 v -40.23 h 8.295 v 40.23 z m 13.277,0 v -40.23 h 68.807 v 7.714 h -60.563 v 32.521 h -8.244 z m -87.043,-40.23 v 7.714 h 60.564 v 8.824 h -60.564 v 23.694 h 68.861 V 12.113 Z m 60.564,32.496 h -52.271 v -8.827 h 52.271 z M 74.357,7.739 V 0 h 8.244 v 7.739 z m 246.637,0 V 0 h 8.295 v 7.739 z" id="path30"/>
        </g>
    </g>
</svg>
