<?xml version="1.0" encoding="utf-8"?>
<svg width="50" height="50" viewBox="0 0 50 50" fill="none" xmlns="http://www.w3.org/2000/svg">
  <path fill-rule="evenodd" clip-rule="evenodd" d="M 0 50 L 50 0 L 50 50 L 0 50 Z" fill="white"/>
  <g transform="matrix(1, 0, 0, 1, 25.047688, 42.495068)">
    <g>
      <path style="fill: rgb(128, 128, 128);" d="M 20.28 -13.163 L 18.964 -14.822 C 18.793 -15.035 18.535 -14.997 18.535 -14.997 L 2.813 -14.997 C 2.486 -14.997 2.222 -14.734 2.222 -14.408 L 2.222 2.868 C 2.222 3.193 2.486 3.459 2.813 3.459 L 20.087 3.459 C 20.414 3.459 20.678 3.195 20.678 2.868 L 20.678 2.165 L 20.678 2.052 L 20.678 -12.207 C 20.678 -12.258 20.681 -12.614 20.28 -13.163 Z M 5.321 -13.792 L 17.183 -13.792 L 17.183 -6.095 L 5.321 -6.095 C 5.321 -6.095 5.321 -13.792 5.321 -13.792 Z M 11.911 0.93 C 10.332 0.93 9.05 -0.35 9.05 -1.929 C 9.05 -3.508 10.33 -4.789 11.911 -4.789 C 13.489 -4.789 14.769 -3.508 14.769 -1.929 C 14.769 -0.35 13.489 0.93 11.911 0.93 Z"/>
      <path style="fill: rgb(128, 128, 128);" d="M 15.534 -7.299 L 12.498 -7.299 L 12.498 -12.367 L 15.534 -12.367 L 15.534 -7.299 Z"/>
      <path style="fill: rgb(128, 128, 128);" d="M 11.93 -3.285 C 11.181 -3.285 10.576 -2.68 10.576 -1.932 C 10.576 -1.183 11.182 -0.578 11.93 -0.578 C 12.676 -0.578 13.282 -1.183 13.282 -1.932 C 13.282 -2.68 12.676 -3.285 11.93 -3.285 Z"/>
    </g>
  </g>
</svg>